<svg id="Layer_1" data-name="Layer 1" xmlns="http://www.w3.org/2000/svg" viewBox="0 0 128 128"><path d="M45.37,68.82a7.75,7.75,0,0,1-5-1.79.4.4,0,0,0-.6,0l-1.42,1.64a.43.43,0,0,0,0,.61A10,10,0,0,0,45.37,72c4.13,0,7.2-2.63,7.2-6.94a5.69,5.69,0,0,0-6-5.84l0-.06,5.24-5.55a.86.86,0,0,0,.2-.52V51.41a.38.38,0,0,0-.41-.43H39.73a.38.38,0,0,0-.41.43v2.26a.38.38,0,0,0,.41.43h7.83c-.55.44-1.91,1.85-2.45,2.43l-2.84,3.09a.55.55,0,0,0-.11.61l.55,1.19a.44.44,0,0,0,.52.26,9,9,0,0,1,1.82-.21c2.63,0,4.07,1.19,4.07,3.5A3.51,3.51,0,0,1,45.37,68.82Z"/><path d="M62.74,53.81a7.43,7.43,0,0,1,4.34,1.42.36.36,0,0,0,.58-.09L69,53.29a.43.43,0,0,0-.06-.61,10.38,10.38,0,0,0-6.19-2c-3.9,0-7.11,2.37-7.11,7v7.55c0,4,2.95,6.85,7.17,6.85a6.8,6.8,0,0,0,7.17-7c0-4.26-2.66-6.6-6.79-6.6A6.23,6.23,0,0,0,59,59.68V57.46A3.44,3.44,0,0,1,62.74,53.81Zm.18,7.61c2.45,0,3.58,1.27,3.58,3.53a3.75,3.75,0,0,1-7.49.2v-.26C59,62.43,60.75,61.42,62.92,61.42Z"/><path d="M72.89,57.6v7.32C72.89,70,76.54,72,80,72s7.12-2,7.12-7.08V57.6c0-5-3.62-7-7.12-7S72.89,52.63,72.89,57.6Zm3.38.06a3.75,3.75,0,1,1,7.49,0V65c0,2.92-2,3.7-3.73,3.7S76.27,68,76.27,65Z"/><path d="M92.91,52.36A4.18,4.18,0,0,0,97.27,48a4.38,4.38,0,0,0-8.76,0A4.14,4.14,0,0,0,92.91,52.36Zm0-6.62A2.05,2.05,0,0,1,95.05,48a2.16,2.16,0,1,1-4.31,0A2.07,2.07,0,0,1,92.91,45.74Z"/><path d="M111.24,58.29V53.62a1.5,1.5,0,0,0-2.51-1.11L102,58.66a1.51,1.51,0,0,0-.49,1.11,1.52,1.52,0,0,0,.49,1.11L108.73,67a1.5,1.5,0,0,0,1,.4,1.59,1.59,0,0,0,.61-.13,1.5,1.5,0,0,0,.89-1.37V61.48c8.2,3.07,12.88,6.84,12.88,10.47,0,8.31-24,17.22-59.62,17.22A178.27,178.27,0,0,1,34.84,86.8,1.51,1.51,0,0,0,33.11,88a1.49,1.49,0,0,0,1.22,1.73A181.19,181.19,0,0,0,64.5,92.17c30.78,0,62.62-7.56,62.62-20.22C127.12,66.69,121.62,62,111.24,58.29Z"/><path d="M20.39,83.65C9.9,80.39,3.88,76.12,3.88,72c0-4,5.53-8.08,15.16-11.28a1.5,1.5,0,0,0-.94-2.84C6.84,61.57.88,66.45.88,72c0,5.74,6.44,10.77,18.62,14.57a1.74,1.74,0,0,0,.45.06,1.5,1.5,0,0,0,.44-2.93Z"/><path d="M72.34,95.08a1.5,1.5,0,0,0-1.83,1.08c-4.42,16.93-12.06,27.46-20,27.46-12.89,0-23.78-27.3-23.78-59.62S37.66,4.38,50.55,4.38c7.85,0,15.39,10.31,19.83,27l-5.16,1.16a1.5,1.5,0,0,0-.53,2.69l7.48,5.22a1.46,1.46,0,0,0,.86.27,1.24,1.24,0,0,0,.33,0,1.48,1.48,0,0,0,1-.72L78.85,32a1.51,1.51,0,0,0-.1-1.63,1.48,1.48,0,0,0-1.54-.57l-3.91.88C68.44,12.32,60,1.38,50.55,1.38c-15,0-26.78,27.51-26.78,62.62s11.77,62.62,26.78,62.62c9.47,0,18-11.11,22.86-29.71A1.5,1.5,0,0,0,72.34,95.08Z"/></svg>