<svg id="Layer_1" data-name="Layer 1" xmlns="http://www.w3.org/2000/svg" viewBox="0 0 128 128"><title>accident_house-lg</title><path d="M126,123.6,67.14,64.88l9.19-9.19L81,60.31a1.49,1.49,0,0,0,1.06.44,1.51,1.51,0,0,0,1.06-.44,1.49,1.49,0,0,0,0-2.12l-4.62-4.62L86,46.06a1.5,1.5,0,0,0-2.13-2.12L65,62.76,53.27,51l9.2-9.2,4.62,4.62a1.47,1.47,0,0,0,1.06.44,1.45,1.45,0,0,0,1.06-.44,1.49,1.49,0,0,0,0-2.12l-4.62-4.62L72.1,32.2A1.5,1.5,0,0,0,70,30.08L51.15,48.91,41.7,39.48a1.51,1.51,0,0,0-2.12,0,1.49,1.49,0,0,0,0,2.12L49,51l-4,3.94a1.49,1.49,0,0,0,0,2.12,1.5,1.5,0,0,0,2.12,0l3.95-4L62.89,64.88,53,74.76,35.74,57.48a1.51,1.51,0,0,0-2.12,0L3.9,87.2a1.5,1.5,0,0,0-.44,1.06V125A1.5,1.5,0,0,0,5,126.5H27.77a1.5,1.5,0,0,0,1.5-1.5V107.88H40.09V125a1.5,1.5,0,0,0,1.5,1.5h22.8a1.5,1.5,0,0,0,1.5-1.5V88.26a1.49,1.49,0,0,0-.43-1.06L55.14,76.88,65,67l58.82,58.73a1.51,1.51,0,0,0,2.12,0A1.51,1.51,0,0,0,126,123.6ZM62.89,88.88V123.5H43.09V106.38a1.5,1.5,0,0,0-1.5-1.5H27.77a1.5,1.5,0,0,0-1.5,1.5V123.5H6.46V88.88L34.68,60.66,50.9,76.88,44.78,83a1.49,1.49,0,0,0,0,2.12,1.5,1.5,0,0,0,2.12,0L53,79Z"/><path d="M19.47,35.14a1.5,1.5,0,0,0-1.5-1.5H3.1a1.5,1.5,0,0,0,0,3H18A1.5,1.5,0,0,0,19.47,35.14Z"/><path d="M21.77,24.26a1.45,1.45,0,0,0,1.06.44,1.48,1.48,0,0,0,1.06-.44,1.51,1.51,0,0,0,0-2.12L13.36,11.62a1.49,1.49,0,0,0-2.12,0,1.51,1.51,0,0,0,0,2.12Z"/><path d="M34.6,20a1.5,1.5,0,0,0,1.5-1.5V3a1.5,1.5,0,0,0-3,0V18.51A1.5,1.5,0,0,0,34.6,20Z"/></svg>