<svg id="Layer_1" data-name="Layer 1" xmlns="http://www.w3.org/2000/svg" viewBox="0 0 128 128"><title>accident_switch-lg</title><path d="M64,65.56H46.52a1.5,1.5,0,0,0-1.5,1.5v37.75a1.5,1.5,0,0,0,1.5,1.5H64a1.5,1.5,0,0,0,1.5-1.5V67.06A1.5,1.5,0,0,0,64,65.56Zm-1.5,37.75H48V87.44h14.5Zm0-18.87H48V68.56h14.5Z"/><path d="M50.76,100.85a1,1,0,0,0,.83-.44,4.42,4.42,0,0,1,7.36,0,1,1,0,0,0,1.66-1.12,6.43,6.43,0,0,0-10.68,0,1,1,0,0,0,.27,1.39A1.07,1.07,0,0,0,50.76,100.85Z"/><path d="M55.27,59.19a2.33,2.33,0,1,0-2.33-2.33A2.33,2.33,0,0,0,55.27,59.19Z"/><path d="M55.27,112.52a2.33,2.33,0,1,0,2.33,2.32A2.33,2.33,0,0,0,55.27,112.52Z"/><path d="M88.72,10.9a69.93,69.93,0,0,1-8.34-9.17,1.5,1.5,0,0,0-2.7.76,35.62,35.62,0,0,1-7.84,18.65C63.27,29.56,61.21,37.81,61.33,45H22.65a1.5,1.5,0,0,0-1.5,1.5v78.88a1.5,1.5,0,0,0,1.5,1.5H87.89a1.5,1.5,0,0,0,1.5-1.5V83.6c3-2.8,17.09-16.8,17.45-36C107.09,34.69,101,22.33,88.72,10.9Zm-2.33,56a48.23,48.23,0,0,1-6.26,7.26,1.5,1.5,0,0,0,1,2.62,1.49,1.49,0,0,0,1-.37,44.4,44.4,0,0,0,4.28-4.53V82.67a1.42,1.42,0,0,0,0,.58v40.63H24.15V48H61.52A42.08,42.08,0,0,0,69.8,68.69a1.5,1.5,0,1,0,2.29-1.94A38.53,38.53,0,0,1,64.53,48h7.2a29.86,29.86,0,0,0,5.94,14.13h0A1.5,1.5,0,0,0,80,60.24,26.52,26.52,0,0,1,74.77,48H86.39ZM87.89,45H74.55c0-4.69,1.35-10.1,5.73-15.72a57.6,57.6,0,0,0,3.32-4.71c6.74,7.45,10.1,15.08,10,22.69a32.3,32.3,0,0,1-4.2,14.79V46.5A1.5,1.5,0,0,0,87.89,45Zm1.5,34.34V67.86c3.55-5.17,7.09-12.36,7.2-20.56.13-8.92-4-17.75-12.17-26.25a1.49,1.49,0,0,0-2.37.29,55.47,55.47,0,0,1-4.13,6.1C73,33.71,71.47,39.75,71.53,45H64.34c-.11-6.63,1.79-14.23,7.86-22a39.81,39.81,0,0,0,8-16.71,76.49,76.49,0,0,0,6.51,6.83c11.62,10.81,17.39,22.4,17.17,34.45C103.57,62.48,94.05,74.4,89.39,79.34Z"/></svg>