<svg id="Layer_1" data-name="Layer 1" xmlns="http://www.w3.org/2000/svg" viewBox="0 0 128 128"><title>accident_lightning-lg</title><path d="M122.18,123.12s0,0,0-.05a1.77,1.77,0,0,0-.3-.45s0,0,0,0L63,63.88l9.19-9.19,4.62,4.62a1.49,1.49,0,0,0,1.06.44A1.5,1.5,0,0,0,79,57.19l-4.62-4.62,7.5-7.51a1.5,1.5,0,0,0-2.12-2.12l-8.56,8.57h0L60.9,61.76,49.16,50l9.2-9.2L63,45.45a1.5,1.5,0,0,0,2.12,0,1.49,1.49,0,0,0,0-2.12l-4.62-4.62L68,31.2a1.5,1.5,0,1,0-2.12-2.12L57.3,37.65h0L47,47.91l-9.45-9.43a1.51,1.51,0,0,0-2.12,0,1.49,1.49,0,0,0,0,2.12L44.92,50,26.07,68.88a1.49,1.49,0,0,0,0,2.12,1.5,1.5,0,0,0,2.12,0L35,64.22l4.62,4.62a1.53,1.53,0,0,0,1.06.44,1.5,1.5,0,0,0,1.06-2.56L37.09,62.1l9.95-10L58.78,63.88l-11,11h0l-7.84,7.84A1.5,1.5,0,0,0,41,85.3a1.53,1.53,0,0,0,1.06-.44l6.78-6.78,4.62,4.62a1.51,1.51,0,0,0,1.06.44,1.5,1.5,0,0,0,1.06-2.56L51,76l10-10,55,54.94C50.39,105.7.8,122.41.29,122.58a1.5,1.5,0,0,0,.5,2.92,1.73,1.73,0,0,0,.49-.08c.51-.18,51.87-17.5,119.14-.3a1.34,1.34,0,0,0,.35,0h0a1.71,1.71,0,0,0,.51-.1l0,0a1.51,1.51,0,0,0,.45-.29l0,0,0,0a1.35,1.35,0,0,0,.29-.44l0-.07c0-.05,0-.09,0-.14a1.47,1.47,0,0,0,0-.36v-.05A1.71,1.71,0,0,0,122.18,123.12Z"/><path d="M128.27,18.46,117.76,8a1.49,1.49,0,0,0-2.12,0,1.51,1.51,0,0,0,0,2.12l10.51,10.51a1.48,1.48,0,0,0,1.06.44,1.45,1.45,0,0,0,1.06-.44A1.49,1.49,0,0,0,128.27,18.46Z"/><path d="M104.83,30.4a1.5,1.5,0,0,0,1.5-1.5V14a1.5,1.5,0,0,0-3,0V28.9A1.5,1.5,0,0,0,104.83,30.4Z"/><path d="M82.22,21.48A1.53,1.53,0,0,0,83.28,21l11-11A1.5,1.5,0,1,0,92.12,8l-11,11a1.5,1.5,0,0,0,1.06,2.56Z"/><path d="M1,37.64H15.86a1.5,1.5,0,0,0,0-3H1a1.5,1.5,0,0,0,0,3Z"/><path d="M19.66,25.26a1.45,1.45,0,0,0,1.06.44,1.48,1.48,0,0,0,1.06-.44,1.51,1.51,0,0,0,0-2.12L11.25,12.62a1.5,1.5,0,0,0-2.12,2.12Z"/><path d="M32.49,21a1.5,1.5,0,0,0,1.5-1.5V4a1.5,1.5,0,0,0-3,0V19.51A1.5,1.5,0,0,0,32.49,21Z"/></svg>