<svg xmlns="http://www.w3.org/2000/svg" viewBox="0 0 128 128">
	<path d="M91.7,41.3c-2.7,0-5-2.2-5-5s2.2-5,5-5c2.7,0,5,2.2,5,5S94.4,41.3,91.7,41.3z M91.7,34.4c-1.1,0-2,0.9-2,2c0,1.1,0.9,2,2,2
		c1.1,0,2-0.9,2-2C93.7,35.2,92.8,34.4,91.7,34.4z"/>
	<path d="M113.5,37.8c-0.8,0-1.5-0.7-1.5-1.5c0-11.2-9.1-20.3-20.3-20.3c-0.8,0-1.5-0.7-1.5-1.5s0.7-1.5,1.5-1.5
		c12.9,0,23.3,10.5,23.3,23.3C115,37.1,114.3,37.8,113.5,37.8z"/>
	<path d="M103.5,37.8c-0.8,0-1.5-0.7-1.5-1.5c0-5.7-4.6-10.3-10.3-10.3c-0.8,0-1.5-0.7-1.5-1.5s0.7-1.5,1.5-1.5
		C99,23,105,29,105,36.3C105,37.1,104.3,37.8,103.5,37.8z"/>
	<path d="M96.9,115H21.1c-4.5,0-8.1-3.6-8.1-8.1V31.1c0-4.5,3.6-8.1,8.1-8.1H81c0.8,0,1.5,0.7,1.5,1.5S81.9,26,81,26H21.1
		c-2.8,0-5.1,2.3-5.1,5.1v75.8c0,2.8,2.3,5.1,5.1,5.1h75.8c2.8,0,5.1-2.3,5.1-5.1V48.1c0-0.8,0.7-1.5,1.5-1.5s1.5,0.7,1.5,1.5v58.8
		C105,111.4,101.3,115,96.9,115z"/>
	<path d="M81.7,96.6c-3.4,0-6.2-2.8-6.2-6.2c0-3.4,2.8-6.2,6.2-6.2c3.4,0,6.2,2.8,6.2,6.2C88,93.8,85.2,96.6,81.7,96.6z M81.7,87.1
		c-1.8,0-3.2,1.4-3.2,3.2c0,1.8,1.4,3.2,3.2,3.2c1.8,0,3.2-1.4,3.2-3.2C85,88.6,83.5,87.1,81.7,87.1z"/>
	<path d="M35.8,96.6c-3.4,0-6.2-2.8-6.2-6.2c0-3.4,2.8-6.2,6.2-6.2c3.4,0,6.2,2.8,6.2,6.2C42.1,93.8,39.3,96.6,35.8,96.6z
		 M35.8,87.1c-1.8,0-3.2,1.4-3.2,3.2c0,1.8,1.4,3.2,3.2,3.2c1.8,0,3.2-1.4,3.2-3.2C39.1,88.6,37.6,87.1,35.8,87.1z"/>
	<path d="M58.8,96.6c-3.4,0-6.2-2.8-6.2-6.2c0-3.4,2.8-6.2,6.2-6.2c3.4,0,6.2,2.8,6.2,6.2C65,93.8,62.2,96.6,58.8,96.6z M58.8,87.1
		c-1.8,0-3.2,1.4-3.2,3.2c0,1.8,1.4,3.2,3.2,3.2c1.8,0,3.2-1.4,3.2-3.2C62,88.6,60.6,87.1,58.8,87.1z"/>
	<path d="M86.5,75.2H31.1c-0.8,0-1.5-0.7-1.5-1.5s0.7-1.5,1.5-1.5h55.3c0.8,0,1.5,0.7,1.5,1.5S87.3,75.2,86.5,75.2z"/>
	<path d="M86.5,62.5H31.1c-0.8,0-1.5-0.7-1.5-1.5V47.4c0-0.8,0.7-1.5,1.5-1.5h55.3c0.8,0,1.5,0.7,1.5,1.5V61
		C88,61.8,87.3,62.5,86.5,62.5z M32.6,59.5H85V48.9H32.6V59.5z"/>
	<path d="M39,55.9c-0.8,0-1.5-0.7-1.5-1.5v-0.4c0-0.8,0.7-1.5,1.5-1.5s1.5,0.7,1.5,1.5v0.4C40.5,55.2,39.8,55.9,39,55.9z"/>
	<path d="M46.8,55.9c-0.8,0-1.5-0.7-1.5-1.5v-0.4c0-0.8,0.7-1.5,1.5-1.5s1.5,0.7,1.5,1.5v0.4C48.3,55.2,47.7,55.9,46.8,55.9z"/>
	<path d="M54.7,55.9c-0.8,0-1.5-0.7-1.5-1.5v-0.4c0-0.8,0.7-1.5,1.5-1.5s1.5,0.7,1.5,1.5v0.4C56.2,55.2,55.5,55.9,54.7,55.9z"/>
	<path d="M62.5,55.9c-0.8,0-1.5-0.7-1.5-1.5v-0.4c0-0.8,0.7-1.5,1.5-1.5s1.5,0.7,1.5,1.5v0.4C64,55.2,63.4,55.9,62.5,55.9z"/>
	<path d="M70.4,55.9c-0.8,0-1.5-0.7-1.5-1.5v-0.4c0-0.8,0.7-1.5,1.5-1.5s1.5,0.7,1.5,1.5v0.4C71.9,55.2,71.2,55.9,70.4,55.9z"/>
	<path d="M78.2,55.9c-0.8,0-1.5-0.7-1.5-1.5v-0.4c0-0.8,0.7-1.5,1.5-1.5s1.5,0.7,1.5,1.5v0.4C79.7,55.2,79,55.9,78.2,55.9z"/>
	<path d="M35.8,115c-0.8,0-1.5-0.7-1.5-1.5V95.1c0-0.8,0.7-1.5,1.5-1.5s1.5,0.7,1.5,1.5v18.5C37.3,114.3,36.7,115,35.8,115z"/>
	<path d="M58.8,115c-0.8,0-1.5-0.7-1.5-1.5V95.1c0-0.8,0.7-1.5,1.5-1.5s1.5,0.7,1.5,1.5v18.5C60.3,114.3,59.6,115,58.8,115z"/>
	<path d="M81.7,115c-0.8,0-1.5-0.7-1.5-1.5V95.1c0-0.8,0.7-1.5,1.5-1.5s1.5,0.7,1.5,1.5v18.5C83.2,114.3,82.6,115,81.7,115z"/>
</svg>
