<svg xmlns="http://www.w3.org/2000/svg" viewBox="0 0 128 128">
		<path d="M91.7,41.3c-2.7,0-5-2.2-5-5s2.2-5,5-5c2.7,0,5,2.2,5,5S94.4,41.3,91.7,41.3z M91.7,34.4c-1.1,0-2,0.9-2,2
			c0,1.1,0.9,2,2,2c1.1,0,2-0.9,2-2C93.7,35.2,92.8,34.4,91.7,34.4z"/>
		<path d="M91.7,41.8c-3,0-5.5-2.4-5.5-5.5c0-3,2.4-5.5,5.5-5.5c3,0,5.5,2.4,5.5,5.5C97.2,39.3,94.7,41.8,91.7,41.8z M91.7,31.9
			c-2.5,0-4.5,2-4.5,4.5c0,2.5,2,4.5,4.5,4.5s4.5-2,4.5-4.5C96.2,33.8,94.2,31.9,91.7,31.9z M91.7,38.8c-1.4,0-2.5-1.1-2.5-2.5
			s1.1-2.5,2.5-2.5s2.5,1.1,2.5,2.5S93.1,38.8,91.7,38.8z M91.7,34.9c-0.8,0-1.5,0.7-1.5,1.5c0,0.8,0.7,1.5,1.5,1.5s1.5-0.7,1.5-1.5
			C93.2,35.5,92.5,34.9,91.7,34.9z"/>
		<path d="M113.5,37.8c-0.8,0-1.5-0.7-1.5-1.5c0-11.2-9.1-20.3-20.3-20.3c-0.8,0-1.5-0.7-1.5-1.5s0.7-1.5,1.5-1.5
			c12.9,0,23.3,10.5,23.3,23.3C115,37.1,114.3,37.8,113.5,37.8z"/>
		<path d="M113.5,38.3c-1.1,0-2-0.9-2-2c0-10.9-8.9-19.8-19.8-19.8c-1.1,0-2-0.9-2-2s0.9-2,2-2c13.1,0,23.8,10.7,23.8,23.8
			C115.5,37.4,114.6,38.3,113.5,38.3z M91.7,13.5c-0.6,0-1,0.4-1,1s0.4,1,1,1c11.5,0,20.8,9.3,20.8,20.8c0,0.6,0.4,1,1,1s1-0.4,1-1
			C114.5,23.7,104.3,13.5,91.7,13.5z"/>
		<path d="M103.5,37.8c-0.8,0-1.5-0.7-1.5-1.5c0-5.7-4.6-10.3-10.3-10.3c-0.8,0-1.5-0.7-1.5-1.5s0.7-1.5,1.5-1.5
			C99,23,105,29,105,36.3C105,37.1,104.3,37.8,103.5,37.8z"/>
		<path d="M103.5,38.3c-1.1,0-2-0.9-2-2c0-5.4-4.4-9.8-9.8-9.8c-1.1,0-2-0.9-2-2s0.9-2,2-2c7.6,0,13.8,6.2,13.8,13.8
			C105.5,37.4,104.6,38.3,103.5,38.3z M91.7,23.5c-0.6,0-1,0.4-1,1s0.4,1,1,1c5.9,0,10.8,4.8,10.8,10.8c0,0.6,0.4,1,1,1s1-0.4,1-1
			C104.5,29.3,98.7,23.5,91.7,23.5z"/>
		<path d="M96.9,115H21.1c-4.5,0-8.1-3.6-8.1-8.1V31.1c0-4.5,3.6-8.1,8.1-8.1H81c0.8,0,1.5,0.7,1.5,1.5S81.9,26,81,26H21.1
			c-2.8,0-5.1,2.3-5.1,5.1v75.8c0,2.8,2.3,5.1,5.1,5.1h75.8c2.8,0,5.1-2.3,5.1-5.1V48.1c0-0.8,0.7-1.5,1.5-1.5s1.5,0.7,1.5,1.5v58.8
			C105,111.4,101.3,115,96.9,115z"/>
		<path d="M96.9,115.5H21.1c-4.7,0-8.6-3.9-8.6-8.6V31.1c0-4.7,3.9-8.6,8.6-8.6H81c1.1,0,2,0.9,2,2s-0.9,2-2,2H21.1
			c-2.5,0-4.6,2.1-4.6,4.6v75.8c0,2.5,2.1,4.6,4.6,4.6h75.8c2.5,0,4.6-2.1,4.6-4.6V48.1c0-1.1,0.9-2,2-2s2,0.9,2,2v58.8
			C105.5,111.6,101.6,115.5,96.9,115.5z M21.1,23.5c-4.2,0-7.6,3.4-7.6,7.6v75.8c0,4.2,3.4,7.6,7.6,7.6h75.8c4.2,0,7.6-3.4,7.6-7.6
			V48.1c0-0.6-0.4-1-1-1s-1,0.4-1,1v58.8c0,3.1-2.5,5.6-5.6,5.6H21.1c-3.1,0-5.6-2.5-5.6-5.6V31.1c0-3.1,2.5-5.6,5.6-5.6H81
			c0.6,0,1-0.4,1-1s-0.4-1-1-1H21.1z"/>
		<path d="M81.7,96.6c-3.4,0-6.2-2.8-6.2-6.2c0-3.4,2.8-6.2,6.2-6.2c3.4,0,6.2,2.8,6.2,6.2C88,93.8,85.2,96.6,81.7,96.6z M81.7,87.1
			c-1.8,0-3.2,1.4-3.2,3.2c0,1.8,1.4,3.2,3.2,3.2c1.8,0,3.2-1.4,3.2-3.2C85,88.6,83.5,87.1,81.7,87.1z"/>
		<path d="M81.7,97.1c-3.7,0-6.7-3-6.7-6.7s3-6.7,6.7-6.7s6.7,3,6.7,6.7S85.4,97.1,81.7,97.1z M81.7,84.6c-3.2,0-5.7,2.6-5.7,5.7
			c0,3.2,2.6,5.7,5.7,5.7c3.2,0,5.7-2.6,5.7-5.7C87.5,87.2,84.9,84.6,81.7,84.6z M81.7,94.1c-2.1,0-3.7-1.7-3.7-3.7s1.7-3.7,3.7-3.7
			s3.7,1.7,3.7,3.7S83.8,94.1,81.7,94.1z M81.7,87.6c-1.5,0-2.7,1.2-2.7,2.7c0,1.5,1.2,2.7,2.7,2.7c1.5,0,2.7-1.2,2.7-2.7
			C84.5,88.8,83.2,87.6,81.7,87.6z"/>
		<path d="M35.8,96.6c-3.4,0-6.2-2.8-6.2-6.2c0-3.4,2.8-6.2,6.2-6.2c3.4,0,6.2,2.8,6.2,6.2C42.1,93.8,39.3,96.6,35.8,96.6z
			 M35.8,87.1c-1.8,0-3.2,1.4-3.2,3.2c0,1.8,1.4,3.2,3.2,3.2c1.8,0,3.2-1.4,3.2-3.2C39.1,88.6,37.6,87.1,35.8,87.1z"/>
		<path d="M35.8,97.1c-3.7,0-6.7-3-6.7-6.7s3-6.7,6.7-6.7c3.7,0,6.7,3,6.7,6.7S39.5,97.1,35.8,97.1z M35.8,84.6
			c-3.2,0-5.7,2.6-5.7,5.7c0,3.2,2.6,5.7,5.7,5.7c3.2,0,5.7-2.6,5.7-5.7C41.6,87.2,39,84.6,35.8,84.6z M35.8,94.1
			c-2,0-3.7-1.7-3.7-3.7s1.7-3.7,3.7-3.7c2.1,0,3.7,1.7,3.7,3.7S37.9,94.1,35.8,94.1z M35.8,87.6c-1.5,0-2.7,1.2-2.7,2.7
			c0,1.5,1.2,2.7,2.7,2.7c1.5,0,2.7-1.2,2.7-2.7C38.6,88.8,37.3,87.6,35.8,87.6z"/>
		<path d="M58.8,96.6c-3.4,0-6.2-2.8-6.2-6.2c0-3.4,2.8-6.2,6.2-6.2c3.4,0,6.2,2.8,6.2,6.2C65,93.8,62.2,96.6,58.8,96.6z M58.8,87.1
			c-1.8,0-3.2,1.4-3.2,3.2c0,1.8,1.4,3.2,3.2,3.2c1.8,0,3.2-1.4,3.2-3.2C62,88.6,60.6,87.1,58.8,87.1z"/>
		<path d="M58.8,97.1c-3.7,0-6.7-3-6.7-6.7s3-6.7,6.7-6.7c3.7,0,6.7,3,6.7,6.7S62.5,97.1,58.8,97.1z M58.8,84.6
			c-3.2,0-5.7,2.6-5.7,5.7c0,3.2,2.6,5.7,5.7,5.7c3.2,0,5.7-2.6,5.7-5.7C64.5,87.2,61.9,84.6,58.8,84.6z M58.8,94.1
			c-2,0-3.7-1.7-3.7-3.7s1.7-3.7,3.7-3.7c2.1,0,3.7,1.7,3.7,3.7S60.8,94.1,58.8,94.1z M58.8,87.6c-1.5,0-2.7,1.2-2.7,2.7
			c0,1.5,1.2,2.7,2.7,2.7c1.5,0,2.7-1.2,2.7-2.7C61.5,88.8,60.3,87.6,58.8,87.6z"/>
		<path d="M86.5,75.2H31.1c-0.8,0-1.5-0.7-1.5-1.5s0.7-1.5,1.5-1.5h55.3c0.8,0,1.5,0.7,1.5,1.5S87.3,75.2,86.5,75.2z"/>
		<path d="M86.5,75.7H31.1c-1.1,0-2-0.9-2-2s0.9-2,2-2h55.3c1.1,0,2,0.9,2,2S87.6,75.7,86.5,75.7z M31.1,72.7c-0.6,0-1,0.4-1,1
			s0.4,1,1,1h55.3c0.6,0,1-0.4,1-1s-0.4-1-1-1H31.1z"/>
		<path d="M86.5,62.5H31.1c-0.8,0-1.5-0.7-1.5-1.5V47.4c0-0.8,0.7-1.5,1.5-1.5h55.3c0.8,0,1.5,0.7,1.5,1.5V61
			C88,61.8,87.3,62.5,86.5,62.5z M32.6,59.5H85V48.9H32.6V59.5z"/>
		<path d="M86.5,63H31.1c-1.1,0-2-0.9-2-2V47.4c0-1.1,0.9-2,2-2h55.3c1.1,0,2,0.9,2,2V61C88.5,62.1,87.6,63,86.5,63z M31.1,46.4
			c-0.6,0-1,0.4-1,1V61c0,0.6,0.4,1,1,1h55.3c0.6,0,1-0.4,1-1V47.4c0-0.6-0.4-1-1-1H31.1z M85.5,60H32.1V48.4h53.3V60z M33.1,59
			h51.3v-9.6H33.1V59z"/>
		<path d="M39,55.9c-0.8,0-1.5-0.7-1.5-1.5v-0.4c0-0.8,0.7-1.5,1.5-1.5s1.5,0.7,1.5,1.5v0.4C40.5,55.2,39.8,55.9,39,55.9z"/>
		<path d="M39,56.4c-1.1,0-2-0.9-2-2v-0.4c0-1.1,0.9-2,2-2s2,0.9,2,2v0.4C41,55.5,40.1,56.4,39,56.4z M39,52.9c-0.6,0-1,0.4-1,1v0.4
			c0,0.6,0.4,1,1,1s1-0.4,1-1v-0.4C40,53.4,39.5,52.9,39,52.9z"/>
		<path d="M46.8,55.9c-0.8,0-1.5-0.7-1.5-1.5v-0.4c0-0.8,0.7-1.5,1.5-1.5s1.5,0.7,1.5,1.5v0.4C48.3,55.2,47.7,55.9,46.8,55.9z"/>
		<path d="M46.8,56.4c-1.1,0-2-0.9-2-2v-0.4c0-1.1,0.9-2,2-2s2,0.9,2,2v0.4C48.8,55.5,47.9,56.4,46.8,56.4z M46.8,52.9
			c-0.6,0-1,0.4-1,1v0.4c0,0.6,0.4,1,1,1s1-0.4,1-1v-0.4C47.8,53.4,47.4,52.9,46.8,52.9z"/>
		<path d="M54.7,55.9c-0.8,0-1.5-0.7-1.5-1.5v-0.4c0-0.8,0.7-1.5,1.5-1.5s1.5,0.7,1.5,1.5v0.4C56.2,55.2,55.5,55.9,54.7,55.9z"/>
		<path d="M54.7,56.4c-1.1,0-2-0.9-2-2v-0.4c0-1.1,0.9-2,2-2s2,0.9,2,2v0.4C56.7,55.5,55.8,56.4,54.7,56.4z M54.7,52.9
			c-0.6,0-1,0.4-1,1v0.4c0,0.6,0.4,1,1,1s1-0.4,1-1v-0.4C55.7,53.4,55.2,52.9,54.7,52.9z"/>
		<path d="M62.5,55.9c-0.8,0-1.5-0.7-1.5-1.5v-0.4c0-0.8,0.7-1.5,1.5-1.5s1.5,0.7,1.5,1.5v0.4C64,55.2,63.4,55.9,62.5,55.9z"/>
		<path d="M62.5,56.4c-1.1,0-2-0.9-2-2v-0.4c0-1.1,0.9-2,2-2s2,0.9,2,2v0.4C64.5,55.5,63.6,56.4,62.5,56.4z M62.5,52.9
			c-0.6,0-1,0.4-1,1v0.4c0,0.6,0.4,1,1,1s1-0.4,1-1v-0.4C63.5,53.4,63.1,52.9,62.5,52.9z"/>
		<path d="M70.4,55.9c-0.8,0-1.5-0.7-1.5-1.5v-0.4c0-0.8,0.7-1.5,1.5-1.5s1.5,0.7,1.5,1.5v0.4C71.9,55.2,71.2,55.9,70.4,55.9z"/>
		<path d="M70.4,56.4c-1.1,0-2-0.9-2-2v-0.4c0-1.1,0.9-2,2-2s2,0.9,2,2v0.4C72.4,55.5,71.5,56.4,70.4,56.4z M70.4,52.9
			c-0.6,0-1,0.4-1,1v0.4c0,0.6,0.4,1,1,1s1-0.4,1-1v-0.4C71.4,53.4,70.9,52.9,70.4,52.9z"/>
		<path d="M78.2,55.9c-0.8,0-1.5-0.7-1.5-1.5v-0.4c0-0.8,0.7-1.5,1.5-1.5s1.5,0.7,1.5,1.5v0.4C79.7,55.2,79,55.9,78.2,55.9z"/>
		<path d="M78.2,56.4c-1.1,0-2-0.9-2-2v-0.4c0-1.1,0.9-2,2-2s2,0.9,2,2v0.4C80.2,55.5,79.3,56.4,78.2,56.4z M78.2,52.9
			c-0.6,0-1,0.4-1,1v0.4c0,0.6,0.4,1,1,1s1-0.4,1-1v-0.4C79.2,53.4,78.8,52.9,78.2,52.9z"/>
		<path d="M35.8,115c-0.8,0-1.5-0.7-1.5-1.5V95.1c0-0.8,0.7-1.5,1.5-1.5s1.5,0.7,1.5,1.5v18.5C37.3,114.3,36.7,115,35.8,115z"/>
		<path d="M35.8,115.5c-1.1,0-2-0.9-2-2V95.1c0-1.1,0.9-2,2-2s2,0.9,2,2v18.5C37.8,114.6,36.9,115.5,35.8,115.5z M35.8,94.1
			c-0.6,0-1,0.4-1,1v18.5c0,0.6,0.4,1,1,1s1-0.4,1-1V95.1C36.8,94.5,36.4,94.1,35.8,94.1z"/>
		<path d="M58.8,115c-0.8,0-1.5-0.7-1.5-1.5V95.1c0-0.8,0.7-1.5,1.5-1.5s1.5,0.7,1.5,1.5v18.5C60.3,114.3,59.6,115,58.8,115z"/>
		<path d="M58.8,115.5c-1.1,0-2-0.9-2-2V95.1c0-1.1,0.9-2,2-2s2,0.9,2,2v18.5C60.8,114.6,59.9,115.5,58.8,115.5z M58.8,94.1
			c-0.6,0-1,0.4-1,1v18.5c0,0.6,0.4,1,1,1s1-0.4,1-1V95.1C59.8,94.5,59.3,94.1,58.8,94.1z"/>
		<path d="M81.7,115c-0.8,0-1.5-0.7-1.5-1.5V95.1c0-0.8,0.7-1.5,1.5-1.5s1.5,0.7,1.5,1.5v18.5C83.2,114.3,82.6,115,81.7,115z"/>
		<path d="M81.7,115.5c-1.1,0-2-0.9-2-2V95.1c0-1.1,0.9-2,2-2s2,0.9,2,2v18.5C83.7,114.6,82.8,115.5,81.7,115.5z M81.7,94.1
			c-0.6,0-1,0.4-1,1v18.5c0,0.6,0.4,1,1,1s1-0.4,1-1V95.1C82.7,94.5,82.3,94.1,81.7,94.1z"/>
</svg>
