<svg id="Layer_1" data-name="Layer 1" xmlns="http://www.w3.org/2000/svg" viewBox="0 0 64 64"><path d="M47.81,8.4a2,2,0,0,0-2.13.24,51.8,51.8,0,0,1-10,6.47,48.23,48.23,0,0,1-10.47,3,1.42,1.42,0,0,0-1.39-1.22H9.32a1.41,1.41,0,0,0-1.41,1.41v3H3a1.4,1.4,0,0,0-1.4,1.4V33.21A1.41,1.41,0,0,0,3,34.62H7.91v3A1.41,1.41,0,0,0,9.32,39h1.87l3.54,15.23a2,2,0,0,0,1.95,1.55h6.53a2,2,0,0,0,1.95-2.5L21.63,39h2.21a1.4,1.4,0,0,0,1.4-1.4v-.18a26.54,26.54,0,0,1,9.67,2.91,77.47,77.47,0,0,1,10.8,7,2,2,0,0,0,1.23.42,2,2,0,0,0,.89-.21A2,2,0,0,0,49,45.82V10.21A2,2,0,0,0,47.81,8.4ZM3.64,32.62V23.35H7.91v9.27ZM23.21,53.81H16.67L13.25,39h6.32Zm0-16.78H9.91V18.93H23.24V37Zm23.69,8.8a78.37,78.37,0,0,0-11.11-7.25,28.25,28.25,0,0,0-10.58-3.14V20.18a50.44,50.44,0,0,0,11.27-3.24A54.75,54.75,0,0,0,47,10.21Z"/><path d="M58.47,16.6A1,1,0,1,0,57,17.91a15.73,15.73,0,0,1,3.4,10.25,16,16,0,0,1-3.13,9.92,1,1,0,0,0,.16,1.41,1,1,0,0,0,.62.22,1,1,0,0,0,.78-.37,18.07,18.07,0,0,0,3.57-11.18A17.66,17.66,0,0,0,58.47,16.6Z"/><path d="M53.35,20.56a1,1,0,0,0-.4,1.36A12.71,12.71,0,0,1,52.84,34a1,1,0,0,0,.36,1.36.93.93,0,0,0,.5.14,1,1,0,0,0,.87-.5A14.75,14.75,0,0,0,54.71,21,1,1,0,0,0,53.35,20.56Z"/></svg>