<svg xmlns="http://www.w3.org/2000/svg" viewBox="0 0 112 112">
  <g id="apartment" transform="translate(0.5 0.5)">
    <g id="Group_271" data-name="Group 271">
      <g id="Group_270" data-name="Group 270">
        <path id="Path_60" data-name="Path 60" d="M173.117,477.867h-51.8a1.851,1.851,0,0,0-1.85,1.85v3.7a1.85,1.85,0,0,0,3.7,0v-1.85h49.95a1.85,1.85,0,0,0,0-3.7Z" transform="translate(-93.567 -374.267)" fill="#495460" stroke="#f7fafa" stroke-width="1"/>
        <path id="Path_61" data-name="Path 61" d="M187.733,166.55a1.851,1.851,0,0,0,1.85,1.85h7.4a1.851,1.851,0,0,0,1.85-1.85v-11.1a1.851,1.851,0,0,0-1.85-1.85h-7.4a1.851,1.851,0,0,0-1.85,1.85v11.1Zm3.7-9.25h3.7v7.4h-3.7Z" transform="translate(-147.033 -120.3)" fill="#495460" stroke="#f7fafa" stroke-width="1"/>
        <path id="Path_62" data-name="Path 62" d="M24.05,102.4H1.85A1.851,1.851,0,0,0,0,104.25v37a1.85,1.85,0,1,0,3.7,0V106.1H24.05a1.85,1.85,0,0,0,0-3.7Z" transform="translate(0 -80.2)" fill="#495460" stroke="#f7fafa" stroke-width="1"/>
        <path id="Path_63" data-name="Path 63" d="M409.6,371.35a1.851,1.851,0,0,0,1.85,1.85h7.4a1.851,1.851,0,0,0,1.85-1.85v-11.1a1.851,1.851,0,0,0-1.85-1.85h-7.4a1.851,1.851,0,0,0-1.85,1.85Zm3.7-9.25H417v7.4h-3.7Z" transform="translate(-320.8 -280.7)" fill="#495460" stroke="#f7fafa" stroke-width="1"/>
        <path id="Path_64" data-name="Path 64" d="M9.25,307.2C.105,307.2,0,331.01,0,331.25a9.266,9.266,0,0,0,7.4,9.063v9.437a1.85,1.85,0,0,0,3.7,0v-9.437a9.266,9.266,0,0,0,7.4-9.063C18.5,331.01,18.395,307.2,9.25,307.2Zm0,29.6a5.557,5.557,0,0,1-5.55-5.55c0-9.217,2.475-20.35,5.55-20.35s5.55,11.133,5.55,20.35A5.557,5.557,0,0,1,9.25,336.8Z" transform="translate(0 -240.6)" fill="#495460" stroke="#f7fafa" stroke-width="1"/>
        <path id="Path_65" data-name="Path 65" d="M60.45,256h-7.4a1.851,1.851,0,0,0-1.85,1.85v3.7a1.85,1.85,0,0,0,3.7,0V259.7h3.7v9.25a1.85,1.85,0,1,0,3.7,0v-11.1A1.85,1.85,0,0,0,60.45,256Z" transform="translate(-40.1 -200.5)" fill="#495460" stroke="#f7fafa" stroke-width="1"/>
        <path id="Path_66" data-name="Path 66" d="M411.45,168.4h7.4a1.851,1.851,0,0,0,1.85-1.85v-11.1a1.851,1.851,0,0,0-1.85-1.85h-7.4a1.851,1.851,0,0,0-1.85,1.85v11.1A1.851,1.851,0,0,0,411.45,168.4Zm1.85-11.1H417v7.4h-3.7Z" transform="translate(-320.8 -120.301)" fill="#495460" stroke="#f7fafa" stroke-width="1"/>
        <path id="Path_67" data-name="Path 67" d="M60.45,153.6h-7.4a1.851,1.851,0,0,0-1.85,1.85v11.1a1.851,1.851,0,0,0,1.85,1.85h7.4a1.851,1.851,0,0,0,1.85-1.85v-11.1A1.85,1.85,0,0,0,60.45,153.6ZM58.6,164.7H54.9v-7.4h3.7v7.4Z" transform="translate(-40.1 -120.3)" fill="#495460" stroke="#f7fafa" stroke-width="1"/>
        <path id="Path_68" data-name="Path 68" d="M273.067,166.55a1.851,1.851,0,0,0,1.85,1.85h7.4a1.851,1.851,0,0,0,1.85-1.85v-11.1a1.851,1.851,0,0,0-1.85-1.85h-7.4a1.851,1.851,0,0,0-1.85,1.85Zm3.7-9.25h3.7v7.4h-3.7Z" transform="translate(-213.867 -120.3)" fill="#495460" stroke="#f7fafa" stroke-width="1"/>
        <path id="Path_69" data-name="Path 69" d="M416.584,102.4h-22.2a1.85,1.85,0,0,0,0,3.7h20.35V180.44a5.286,5.286,0,0,0-2.8-.257,7.388,7.388,0,0,0-12.9,0,5.441,5.441,0,0,0-.951-.083,5.55,5.55,0,1,0,0,11.1h14.8a5.557,5.557,0,0,0,5.55-5.55v-81.4A1.851,1.851,0,0,0,416.584,102.4Zm-3.7,85.1h-14.8a1.85,1.85,0,0,1,0-3.7,1.828,1.828,0,0,1,1,.3,1.85,1.85,0,0,0,2.8-1.138,3.685,3.685,0,0,1,7.185,0,1.85,1.85,0,0,0,2.8,1.138,1.887,1.887,0,0,1,2.853,1.548A1.853,1.853,0,0,1,412.884,187.5Z" transform="translate(-307.434 -80.2)" fill="#495460" stroke="#f7fafa" stroke-width="1"/>
        <path id="Path_70" data-name="Path 70" d="M274.917,66h7.4a1.851,1.851,0,0,0,1.85-1.85v-11.1a1.851,1.851,0,0,0-1.85-1.85h-7.4a1.851,1.851,0,0,0-1.85,1.85v11.1A1.851,1.851,0,0,0,274.917,66Zm1.85-11.1h3.7v7.4h-3.7Z" transform="translate(-213.867 -40.101)" fill="#495460" stroke="#f7fafa" stroke-width="1"/>
        <path id="Path_71" data-name="Path 71" d="M273.067,268.95a1.851,1.851,0,0,0,1.85,1.85h7.4a1.851,1.851,0,0,0,1.85-1.85v-11.1a1.851,1.851,0,0,0-1.85-1.85h-7.4a1.851,1.851,0,0,0-1.85,1.85Zm3.7-9.25h3.7v7.4h-3.7Z" transform="translate(-213.867 -200.5)" fill="#495460" stroke="#f7fafa" stroke-width="1"/>
        <path id="Path_72" data-name="Path 72" d="M189.584,66h7.4a1.851,1.851,0,0,0,1.85-1.85v-11.1a1.851,1.851,0,0,0-1.85-1.85h-7.4a1.851,1.851,0,0,0-1.85,1.85v11.1A1.85,1.85,0,0,0,189.584,66Zm1.85-11.1h3.7v7.4h-3.7Z" transform="translate(-147.034 -40.101)" fill="#495460" stroke="#f7fafa" stroke-width="1"/>
        <path id="Path_73" data-name="Path 73" d="M248,410.22a1.85,1.85,0,1,0,2.627,0A1.945,1.945,0,0,0,248,410.22Z" transform="translate(-193.816 -320.883)" fill="#495460" stroke="#f7fafa" stroke-width="1"/>
        <path id="Path_74" data-name="Path 74" d="M187.733,268.95a1.851,1.851,0,0,0,1.85,1.85h7.4a1.851,1.851,0,0,0,1.85-1.85v-11.1a1.851,1.851,0,0,0-1.85-1.85h-7.4a1.851,1.851,0,0,0-1.85,1.85v11.1Zm3.7-9.25h3.7v7.4h-3.7Z" transform="translate(-147.033 -200.5)" fill="#495460" stroke="#f7fafa" stroke-width="1"/>
        <path id="Path_75" data-name="Path 75" d="M170.667,360.25a1.851,1.851,0,0,0,1.85,1.85h5.55v16.65a1.85,1.85,0,0,0,3.7,0V362.1h14.8v16.65a1.85,1.85,0,0,0,3.7,0V362.1h5.55a1.85,1.85,0,1,0,0-3.7h-33.3A1.851,1.851,0,0,0,170.667,360.25Z" transform="translate(-133.667 -280.7)" fill="#495460" stroke="#f7fafa" stroke-width="1"/>
        <path id="Path_76" data-name="Path 76" d="M409.6,268.95a1.851,1.851,0,0,0,1.85,1.85h7.4a1.851,1.851,0,0,0,1.85-1.85v-11.1a1.851,1.851,0,0,0-1.85-1.85h-7.4a1.851,1.851,0,0,0-1.85,1.85Zm3.7-9.25H417v7.4h-3.7Z" transform="translate(-320.8 -200.5)" fill="#495460" stroke="#f7fafa" stroke-width="1"/>
        <path id="Path_77" data-name="Path 77" d="M186.484,0h-48.1a1.851,1.851,0,0,0-1.85,1.85v96.2a1.85,1.85,0,0,0,3.7,0V3.7h44.4V98.05a1.85,1.85,0,0,0,3.7,0V1.85A1.85,1.85,0,0,0,186.484,0Z" transform="translate(-106.934)" fill="#495460" stroke="#f7fafa" stroke-width="1"/>
      </g>
    </g>
  </g>
</svg>
