<svg xmlns="http://www.w3.org/2000/svg" viewBox="0 0 128 128"><title>apartment-alt</title><path d="M30.15,59.35H22.26a1.5,1.5,0,0,0-1.5,1.5V75.72a1.5,1.5,0,0,0,1.5,1.5h7.89a1.5,1.5,0,0,0,1.5-1.5V60.85A1.5,1.5,0,0,0,30.15,59.35Zm-1.5,14.87H23.76V62.35h4.89Z"/><path d="M30.15,83.73H22.26a1.5,1.5,0,0,0-1.5,1.5V100.1a1.5,1.5,0,0,0,1.5,1.5h7.89a1.5,1.5,0,0,0,1.5-1.5V85.23A1.5,1.5,0,0,0,30.15,83.73ZM28.65,98.6H23.76V86.73h4.89Z"/><path d="M30.15,35H22.26a1.5,1.5,0,0,0-1.5,1.5V51.34a1.5,1.5,0,0,0,1.5,1.5h7.89a1.5,1.5,0,0,0,1.5-1.5V36.47A1.5,1.5,0,0,0,30.15,35Zm-1.5,14.87H23.76V38h4.89Z"/><path d="M97.93,77.22h7.89a1.5,1.5,0,0,0,1.5-1.5V60.85a1.5,1.5,0,0,0-1.5-1.5H97.93a1.5,1.5,0,0,0-1.5,1.5V75.72A1.5,1.5,0,0,0,97.93,77.22Zm1.5-14.87h4.89V74.22H99.43Z"/><path d="M97.93,52.84h7.89a1.5,1.5,0,0,0,1.5-1.5V36.47a1.5,1.5,0,0,0-1.5-1.5H97.93a1.5,1.5,0,0,0-1.5,1.5V51.34A1.5,1.5,0,0,0,97.93,52.84ZM99.43,38h4.89V49.84H99.43Z"/><path d="M97.93,101.6h7.89a1.5,1.5,0,0,0,1.5-1.5V85.23a1.5,1.5,0,0,0-1.5-1.5H97.93a1.5,1.5,0,0,0-1.5,1.5V100.1A1.5,1.5,0,0,0,97.93,101.6Zm1.5-14.87h4.89V98.6H99.43Z"/><path d="M59.93,35H52a1.5,1.5,0,0,0-1.5,1.5V51.34a1.5,1.5,0,0,0,1.5,1.5h7.89a1.5,1.5,0,0,0,1.5-1.5V36.47A1.5,1.5,0,0,0,59.93,35Zm-1.5,14.87H53.54V38h4.89Z"/><path d="M76,35H68.07a1.5,1.5,0,0,0-1.5,1.5V51.34a1.5,1.5,0,0,0,1.5,1.5H76a1.5,1.5,0,0,0,1.5-1.5V36.47A1.5,1.5,0,0,0,76,35Zm-1.5,14.87H69.57V38h4.89Z"/><path d="M59.93,59.35H52a1.5,1.5,0,0,0-1.5,1.5V75.72a1.5,1.5,0,0,0,1.5,1.5h7.89a1.5,1.5,0,0,0,1.5-1.5V60.85A1.5,1.5,0,0,0,59.93,59.35Zm-1.5,14.87H53.54V62.35h4.89Z"/><path d="M76,59.35H68.07a1.5,1.5,0,0,0-1.5,1.5V75.72a1.5,1.5,0,0,0,1.5,1.5H76a1.5,1.5,0,0,0,1.5-1.5V60.85A1.5,1.5,0,0,0,76,59.35Zm-1.5,14.87H69.57V62.35h4.89Z"/><path d="M122.12,110.27h-3.83V23.37a1.5,1.5,0,0,0-1.5-1.5H88.38V16.23a1.5,1.5,0,0,0-1.5-1.5H41.12a1.5,1.5,0,0,0-1.5,1.5v5.64H11.29a1.5,1.5,0,0,0-1.5,1.5v86.9H5.88a1.5,1.5,0,1,0,0,3H122.12a1.5,1.5,0,0,0,0-3Zm-6.83-85.4v85.4H88.38V24.87Zm-102.5,0H39.62v85.4H12.79Zm44.93,85.4V91.81H70.28v18.46Zm15.56,0v-20a1.5,1.5,0,0,0-1.5-1.5H56.22a1.5,1.5,0,0,0-1.5,1.5v20H42.62V17.73H85.38v92.54Z"/></svg>