<svg xmlns="http://www.w3.org/2000/svg" viewBox="0 0 113.71 127"><title>audit-lg</title><path d="M27.71,39.44h23a1.5,1.5,0,0,0,0-3h-23a1.5,1.5,0,0,0,0,3Z" transform="translate(-6.93 -0.5)"/><circle cx="13.89" cy="37.44" r="2.17"/><path d="M63.32,57.83A1.5,1.5,0,0,0,61.2,60L71.93,70.68a1.5,1.5,0,0,0,1.06.44,1.52,1.52,0,0,0,1.06-.44l20.19-20.2a1.49,1.49,0,0,0,0-2.12,1.51,1.51,0,0,0-2.12,0L73,67.5Z" transform="translate(-6.93 -0.5)"/><circle cx="13.89" cy="52.94" r="2.17"/><path d="M20.82,70.69a2.17,2.17,0,1,0-2.16-2.17A2.17,2.17,0,0,0,20.82,70.69Z" transform="translate(-6.93 -0.5)"/><path d="M27.71,84.14h23a1.5,1.5,0,0,0,0-3h-23a1.5,1.5,0,1,0,0,3Z" transform="translate(-6.93 -0.5)"/><circle cx="13.89" cy="82.14" r="2.17"/><path d="M63.08,96.39H20.16a1.5,1.5,0,0,0-1.5,1.5v10.59a1.5,1.5,0,0,0,1.5,1.5H63.08a1.5,1.5,0,0,0,1.5-1.5V97.89A1.5,1.5,0,0,0,63.08,96.39ZM61.58,107H21.66V99.39H61.58Z" transform="translate(-6.93 -0.5)"/><path d="M119.51,116.18,107.32,99.86V2a1.5,1.5,0,0,0-1.5-1.5H8.43A1.5,1.5,0,0,0,6.93,2V126a1.5,1.5,0,0,0,1.5,1.5h97.39a1.5,1.5,0,0,0,1.5-1.5v-4.8l1.87,2.5a6,6,0,0,0,4.89,2.43,6.61,6.61,0,0,0,6.45-5.31A5.92,5.92,0,0,0,119.51,116.18ZM104.32,3.5v14H9.93V3.5Zm0,121H9.93v-104h94.39V95.84l-13-17.48a24.45,24.45,0,0,0,7-17.07,1.5,1.5,0,0,0-3,0,21.5,21.5,0,1,1-11.42-19,1.5,1.5,0,0,0,1.41-2.65A24.53,24.53,0,0,0,51,52a1.36,1.36,0,0,0-.36-.05h-23a1.5,1.5,0,0,0,0,3H50a24.14,24.14,0,0,0-.84,6.35A24.62,24.62,0,0,0,49.88,67H27.71a1.5,1.5,0,1,0,0,3h23.1A24.55,24.55,0,0,0,73.71,85.8a24.28,24.28,0,0,0,6.53-.89l24.08,32.27Zm13.26-4.24a3.52,3.52,0,0,1-1.41,2.18,3.25,3.25,0,0,1-4.56-.52l-28.39-38a24.74,24.74,0,0,0,5.83-3.5l28,37.57A2.9,2.9,0,0,1,117.58,120.26Z" transform="translate(-6.93 -0.5)"/></svg>