<svg xmlns="http://www.w3.org/2000/svg" viewBox="0 0 128 128"><title>bell-lg</title><path d="M124.7,29.9c-0.8,0-1.5-0.7-1.5-1.5c0-13-10.6-23.6-23.6-23.6c-0.8,0-1.5-0.7-1.5-1.5s0.7-1.5,1.5-1.5	c14.7,0,26.6,11.9,26.6,26.6C126.2,29.2,125.5,29.9,124.7,29.9z"/><path d="M124.7,30.9c-1.4,0-2.5-1.1-2.5-2.5c0-12.5-10.2-22.6-22.6-22.6c-1.4,0-2.5-1.1-2.5-2.5s1.1-2.5,2.5-2.5	c15.2,0,27.6,12.4,27.6,27.6C127.2,29.8,126.1,30.9,124.7,30.9z M99.6,2.8c-0.3,0-0.5,0.2-0.5,0.5s0.2,0.5,0.5,0.5	c13.6,0,24.6,11.1,24.6,24.6c0,0.3,0.2,0.5,0.5,0.5s0.5-0.2,0.5-0.5C125.2,14.3,113.7,2.8,99.6,2.8z"/><path d="M113.1,29.9c-0.8,0-1.5-0.7-1.5-1.5c0-6.7-5.4-12.1-12.1-12.1c-0.8,0-1.5-0.7-1.5-1.5s0.7-1.5,1.5-1.5c8.3,0,15,6.7,15,15	C114.6,29.2,114,29.9,113.1,29.9z"/><path d="M113.1,30.9c-1.4,0-2.5-1.1-2.5-2.5c0-6.1-5-11.1-11.1-11.1c-1.4,0-2.5-1.1-2.5-2.5s1.1-2.5,2.5-2.5c8.8,0,16,7.2,16,16	C115.6,29.8,114.5,30.9,113.1,30.9z M99.6,14.4c-0.3,0-0.5,0.2-0.5,0.5s0.2,0.5,0.5,0.5c7.2,0,13.1,5.9,13.1,13.1	c0,0.3,0.2,0.5,0.5,0.5s0.5-0.2,0.5-0.5C113.6,20.7,107.3,14.4,99.6,14.4z"/><path d="M102.9,28.4c0,1.9-1.5,3.4-3.4,3.4c-1.9,0-3.4-1.5-3.4-3.4c0-1.9,1.5-3.4,3.4-3.4C101.4,25,102.9,26.5,102.9,28.4z"/><path d="M99.6,32.8c-2.4,0-4.4-2-4.4-4.4c0-2.4,2-4.4,4.4-4.4c2.4,0,4.4,2,4.4,4.4C103.9,30.8,102,32.8,99.6,32.8z M99.6,26	c-1.3,0-2.4,1.1-2.4,2.4c0,1.3,1.1,2.4,2.4,2.4c1.3,0,2.4-1.1,2.4-2.4C101.9,27.1,100.9,26,99.6,26z"/>	<path d="M50.8,69.8c0,1.9-1.5,3.4-3.4,3.4c-1.9,0-3.4-1.5-3.4-3.4c0-1.9,1.5-3.4,3.4-3.4C49.3,66.4,50.8,67.9,50.8,69.8z"/>	<path d="M47.4,74.1c-2.4,0-4.4-2-4.4-4.4c0-2.4,2-4.4,4.4-4.4c2.4,0,4.4,2,4.4,4.4C51.8,72.2,49.9,74.1,47.4,74.1z M47.4,67.4		c-1.3,0-2.4,1.1-2.4,2.4c0,1.3,1.1,2.4,2.4,2.4c1.3,0,2.4-1.1,2.4-2.4C49.8,68.5,48.8,67.4,47.4,67.4z"/>	<path d="M72.4,69.8c0,1.9-1.5,3.4-3.4,3.4c-1.9,0-3.4-1.5-3.4-3.4c0-1.9,1.5-3.4,3.4-3.4C70.9,66.4,72.4,67.9,72.4,69.8z"/>	<path d="M69.1,74.1c-2.4,0-4.4-2-4.4-4.4c0-2.4,2-4.4,4.4-4.4c2.4,0,4.4,2,4.4,4.4C73.4,72.2,71.5,74.1,69.1,74.1z M69.1,67.4		c-1.3,0-2.4,1.1-2.4,2.4c0,1.3,1.1,2.4,2.4,2.4s2.4-1.1,2.4-2.4C71.4,68.5,70.4,67.4,69.1,67.4z"/><path d="M58.2,102.8C40,102.8,25.1,88,25.1,69.8c0-18.2,14.8-33.1,33.1-33.1c18.2,0,33.1,14.8,33.1,33.1	C91.3,88,76.4,102.8,58.2,102.8z M58.2,39.6c-16.6,0-30.1,13.5-30.1,30.1c0,16.6,13.5,30.1,30.1,30.1c16.6,0,30.1-13.5,30.1-30.1	C88.3,53.2,74.8,39.6,58.2,39.6z"/><path d="M58.2,103.8c-18.8,0-34.1-15.3-34.1-34.1c0-18.8,15.3-34.1,34.1-34.1C77,35.7,92.3,51,92.3,69.8	C92.3,88.6,77,103.8,58.2,103.8z M58.2,37.7c-17.7,0-32.1,14.4-32.1,32.1c0,17.7,14.4,32.1,32.1,32.1c17.7,0,32.1-14.4,32.1-32.1	C90.3,52.1,75.9,37.7,58.2,37.7z M58.2,100.9c-17.2,0-31.1-14-31.1-31.1c0-17.2,14-31.1,31.1-31.1c17.2,0,31.1,14,31.1,31.1	C89.3,86.9,75.4,100.9,58.2,100.9z M58.2,40.6c-16.1,0-29.1,13.1-29.1,29.1c0,16.1,13.1,29.1,29.1,29.1	c16.1,0,29.1-13.1,29.1-29.1C87.3,53.7,74.3,40.6,58.2,40.6z"/><path d="M102.6,126.2H13.9c-6.7,0-12.1-5.4-12.1-12.1V25.5c0-6.7,5.4-12.1,12.1-12.1h71.3c0.8,0,1.5,0.7,1.5,1.5	c0,0.8-0.7,1.5-1.5,1.5H13.9c-5.1,0-9.2,4.1-9.2,9.2v88.6c0,5.1,4.1,9.2,9.2,9.2h88.6c5.1,0,9.2-4.1,9.2-9.2V42.7	c0-0.8,0.7-1.5,1.5-1.5s1.5,0.7,1.5,1.5v71.3C114.7,120.8,109.2,126.2,102.6,126.2z"/><path d="M102.6,127.2H13.9c-7.2,0-13.1-5.9-13.1-13.1V25.5c0-7.2,5.9-13.1,13.1-13.1h71.3c1.4,0,2.5,1.1,2.5,2.5s-1.1,2.5-2.5,2.5	H13.9c-4.5,0-8.2,3.7-8.2,8.2v88.6c0,4.5,3.7,8.2,8.2,8.2h88.6c4.5,0,8.2-3.7,8.2-8.2V42.7c0-1.4,1.1-2.5,2.5-2.5	c1.4,0,2.5,1.1,2.5,2.5v71.3C115.7,121.3,109.8,127.2,102.6,127.2z M13.9,14.4c-6.1,0-11.1,5-11.1,11.1v88.6	c0,6.1,5,11.1,11.1,11.1h88.6c6.1,0,11.1-5,11.1-11.1V42.7c0-0.3-0.2-0.5-0.5-0.5c-0.3,0-0.5,0.2-0.5,0.5v71.3	c0,5.6-4.6,10.2-10.2,10.2H13.9c-5.6,0-10.2-4.6-10.2-10.2V25.5c0-5.6,4.6-10.2,10.2-10.2h71.3c0.3,0,0.5-0.2,0.5-0.5	s-0.2-0.5-0.5-0.5H13.9z"/></svg>