<svg xmlns="http://www.w3.org/2000/svg" viewBox="0 0 128 128"><title>bell-lg</title><path d="M124.7,29.9c-0.8,0-1.5-0.7-1.5-1.5c0-13-10.6-23.6-23.6-23.6c-0.8,0-1.5-0.7-1.5-1.5s0.7-1.5,1.5-1.5	c14.7,0,26.6,11.9,26.6,26.6C126.2,29.2,125.5,29.9,124.7,29.9z"/><path d="M113.1,29.9c-0.8,0-1.5-0.7-1.5-1.5c0-6.7-5.4-12.1-12.1-12.1c-0.8,0-1.5-0.7-1.5-1.5s0.7-1.5,1.5-1.5c8.3,0,15,6.7,15,15	C114.6,29.2,114,29.9,113.1,29.9z"/><path d="M102.9,28.4c0,1.9-1.5,3.4-3.4,3.4c-1.9,0-3.4-1.5-3.4-3.4c0-1.9,1.5-3.4,3.4-3.4C101.4,25,102.9,26.5,102.9,28.4z"/><path d="M50.8,69.8c0,1.9-1.5,3.4-3.4,3.4c-1.9,0-3.4-1.5-3.4-3.4c0-1.9,1.5-3.4,3.4-3.4C49.3,66.4,50.8,67.9,50.8,69.8z"/><path d="M72.4,69.8c0,1.9-1.5,3.4-3.4,3.4c-1.9,0-3.4-1.5-3.4-3.4c0-1.9,1.5-3.4,3.4-3.4C70.9,66.4,72.4,67.9,72.4,69.8z"/><path d="M58.2,102.8C40,102.8,25.1,88,25.1,69.8c0-18.2,14.8-33.1,33.1-33.1c18.2,0,33.1,14.8,33.1,33.1	C91.3,88,76.4,102.8,58.2,102.8z M58.2,39.6c-16.6,0-30.1,13.5-30.1,30.1c0,16.6,13.5,30.1,30.1,30.1c16.6,0,30.1-13.5,30.1-30.1	C88.3,53.2,74.8,39.6,58.2,39.6z"/><path d="M102.6,126.2H13.9c-6.7,0-12.1-5.4-12.1-12.1V25.5c0-6.7,5.4-12.1,12.1-12.1h71.3c0.8,0,1.5,0.7,1.5,1.5	c0,0.8-0.7,1.5-1.5,1.5H13.9c-5.1,0-9.2,4.1-9.2,9.2v88.6c0,5.1,4.1,9.2,9.2,9.2h88.6c5.1,0,9.2-4.1,9.2-9.2V42.7	c0-0.8,0.7-1.5,1.5-1.5s1.5,0.7,1.5,1.5v71.3C114.7,120.8,109.2,126.2,102.6,126.2z"/></svg>