<svg id="Layer_1" data-name="Layer 1" xmlns="http://www.w3.org/2000/svg" viewBox="0 0 128 128"><path d="M97.37,65.62a1.62,1.62,0,1,0-1.57-1.56A1.62,1.62,0,0,0,97.37,65.62Z"/><path d="M87.59,42A1.63,1.63,0,1,0,86,40.46,1.62,1.62,0,0,0,87.59,42Z"/><path d="M64,32.26a1.63,1.63,0,1,0-1.57-1.57A1.63,1.63,0,0,0,64,32.26Z"/><path d="M40.41,38.78A1.63,1.63,0,1,0,42,40.35,1.63,1.63,0,0,0,40.41,38.78Z"/><path d="M30.63,62.38A1.62,1.62,0,1,0,32.2,64,1.62,1.62,0,0,0,30.63,62.38Z"/><path d="M87.59,86a1.63,1.63,0,1,0,1.57,1.68A1.63,1.63,0,0,0,87.59,86Z"/><path d="M64,95.74a1.63,1.63,0,1,0,1.57,1.68A1.63,1.63,0,0,0,64,95.74Z"/><path d="M40.41,86A1.63,1.63,0,1,0,42,87.65,1.63,1.63,0,0,0,40.41,86Z"/><path d="M91.8,80.23a31.8,31.8,0,0,0,3.35-8.06h6.22a1.5,1.5,0,0,0,1.5-1.5V57.33a1.5,1.5,0,0,0-1.5-1.5H95.15a31.8,31.8,0,0,0-3.35-8.06l4.41-4.41a1.51,1.51,0,0,0,0-2.12l-9.45-9.45a1.55,1.55,0,0,0-2.12,0l-4.41,4.42a31.83,31.83,0,0,0-8.06-3.36V26.63a1.5,1.5,0,0,0-1.5-1.5H57.33a1.5,1.5,0,0,0-1.5,1.5v6.22a31.8,31.8,0,0,0-8.06,3.35l-4.41-4.41a1.51,1.51,0,0,0-2.12,0l-9.45,9.45a1.5,1.5,0,0,0,0,2.12l4.42,4.41a31.83,31.83,0,0,0-3.36,8.06H26.63a1.5,1.5,0,0,0-1.5,1.5V70.67a1.5,1.5,0,0,0,1.5,1.5h6.22a31.83,31.83,0,0,0,3.36,8.06l-4.42,4.41a1.5,1.5,0,0,0,0,2.12l9.45,9.45a1.51,1.51,0,0,0,2.12,0l4.41-4.41a32.17,32.17,0,0,0,8.06,3.35v6.22a1.5,1.5,0,0,0,1.5,1.5H70.67a1.5,1.5,0,0,0,1.5-1.5V95.15a31.83,31.83,0,0,0,8.06-3.36l4.41,4.42a1.5,1.5,0,0,0,2.12,0l9.45-9.45a1.51,1.51,0,0,0,0-2.12ZM85.7,93l-4.17-4.17a1.5,1.5,0,0,0-1.83-.23l-.89.53a28.89,28.89,0,0,1-7.51,3.12l-1,.26A1.51,1.51,0,0,0,69.17,94v5.89H58.83V94a1.51,1.51,0,0,0-1.13-1.45l-1-.25a29.23,29.23,0,0,1-7.5-3.12l-.9-.54a1.51,1.51,0,0,0-1.83.23L42.3,93,35,85.7l4.17-4.17a1.5,1.5,0,0,0,.23-1.83l-.53-.89a28.89,28.89,0,0,1-3.12-7.51l-.26-1A1.5,1.5,0,0,0,34,69.17H28.13V58.83H34a1.5,1.5,0,0,0,1.45-1.13l.26-1a28.68,28.68,0,0,1,3.12-7.5l.53-.9a1.5,1.5,0,0,0-.23-1.83L35,42.3,42.3,35l4.17,4.17a1.5,1.5,0,0,0,1.83.23l.89-.53a29.12,29.12,0,0,1,7.51-3.13l1-.25A1.51,1.51,0,0,0,58.83,34V28.13H69.17V34a1.51,1.51,0,0,0,1.13,1.45l1,.26a28.68,28.68,0,0,1,7.5,3.12l.9.53a1.5,1.5,0,0,0,1.83-.23L85.7,35,93,42.3l-4.17,4.17a1.5,1.5,0,0,0-.23,1.83l.53.89a29.12,29.12,0,0,1,3.13,7.51l.26,1A1.49,1.49,0,0,0,94,58.83h5.88V69.17H94a1.49,1.49,0,0,0-1.45,1.13l-.26,1a29.23,29.23,0,0,1-3.12,7.5l-.54.9a1.5,1.5,0,0,0,.23,1.83L93,85.7Z"/><path d="M64.12,46.2A17.72,17.72,0,1,0,81.84,63.92,17.74,17.74,0,0,0,64.12,46.2Zm0,32.43A14.72,14.72,0,1,1,78.84,63.92,14.73,14.73,0,0,1,64.12,78.63Z"/><path d="M77.58,122a59.5,59.5,0,0,1-60.1-95l9.65,6.8A1.53,1.53,0,0,0,28,34a1.44,1.44,0,0,0,.75-.21,1.49,1.49,0,0,0,.74-1.44l-2-21.08A1.5,1.5,0,0,0,25.58,10l-20,5.56a1.5,1.5,0,0,0-.46,2.67l9.92,7a62.52,62.52,0,0,0,63.24,99.69,1.5,1.5,0,0,0-.68-2.92ZM24.65,13.33l1.54,16L9.41,17.56Z"/><path d="M122.78,110.34l-10.11-7.13a62.54,62.54,0,0,0-63-100.06,1.5,1.5,0,1,0,.69,2.92,59.51,59.51,0,0,1,59.9,95.41l-9.46-6.67a1.53,1.53,0,0,0-1.62-.07,1.5,1.5,0,0,0-.74,1.44l2,21.08a1.5,1.5,0,0,0,.64,1.09,1.48,1.48,0,0,0,.85.27,1.34,1.34,0,0,0,.4-.06l20-5.55a1.51,1.51,0,0,0,1.08-1.19A1.49,1.49,0,0,0,122.78,110.34Zm-19.55,4.85-1.54-16L118.47,111Z"/></svg>