<svg xmlns="http://www.w3.org/2000/svg" viewBox="0 0 128 128"><title>bell-lg</title><path d="M64,89.5c-24.1,0-43.7-19.6-43.7-43.7C20.3,21.6,39.9,2,64,2c24.1,0,43.7,19.6,43.7,43.7C107.7,69.9,88.1,89.5,64,89.5zM64,5C41.5,5,23.3,23.3,23.3,45.8c0,22.5,18.3,40.7,40.7,40.7c22.5,0,40.7-18.3,40.7-40.7C104.7,23.3,86.5,5,64,5z"/><path d="M64,68.6c-12.6,0-22.8-10.2-22.8-22.8c0-12.6,10.2-22.8,22.8-22.8c12.6,0,22.8,10.2,22.8,22.8C86.8,58.3,76.6,68.6,64,68.6z M64,25.9c-10.9,0-19.8,8.9-19.8,19.8S53.1,65.6,64,65.6c10.9,0,19.8-8.9,19.8-19.8S74.9,25.9,64,25.9z"/><path d="M50.5,126c-0.5,0-0.9-0.2-1.2-0.6l-9.3-13l-15.5,4.1c-0.5,0.1-1.1,0-1.5-0.4c-0.4-0.4-0.5-1-0.3-1.5L36,77.8c0.3-0.8,1.1-1.2,1.9-0.9c0.8,0.3,1.2,1.1,0.9,1.9l-12.3,34l13.7-3.6c0.6-0.2,1.2,0.1,1.6,0.6l8.2,11.5l12.3-34c0.3-0.8,1.1-1.2,1.9-0.9c0.8,0.3,1.2,1.1,0.9,1.9L51.9,125c-0.2,0.5-0.7,0.9-1.2,1C50.6,126,50.5,126,50.5,126z"/><path d="M78.8,126c-0.1,0-0.1,0-0.2,0c-0.6-0.1-1-0.5-1.2-1L64.1,88.3c-0.3-0.8,0.1-1.6,0.9-1.9c0.8-0.3,1.6,0.1,1.9,0.9l12.3,34l8.2-11.5c0.4-0.5,1-0.7,1.6-0.6l13.7,3.6l-12.3-34c-0.3-0.8,0.1-1.6,0.9-1.9s1.6,0.1,1.9,0.9l13.2,36.7c0.2,0.5,0.1,1.1-0.3,1.5c-0.4,0.4-1,0.6-1.5,0.4l-15.5-4.1l-9.3,13C79.7,125.7,79.3,126,78.8,126z"/></svg>