<svg xmlns="http://www.w3.org/2000/svg" viewBox="0 0 128 128"><title>bell-lg</title><path d="M64,68.6c12.6,0,22.8-10.2,22.8-22.8c0-12.6-10.2-22.8-22.8-22.8c-12.6,0-22.8,10.2-22.8,22.8C41.2,58.3,51.4,68.6,64,68.6z M64,25.9c10.9,0,19.8,8.9,19.8,19.8S74.9,65.6,64,65.6c-10.9,0-19.8-8.9-19.8-19.8S53.1,25.9,64,25.9z"/><path d="M64,69.6c-13.1,0-23.8-10.7-23.8-23.8S50.9,21.9,64,21.9c13.1,0,23.8,10.7,23.8,23.8S77.1,69.6,64,69.6z M64,23.9c-12,0-21.8,9.8-21.8,21.8S52,67.6,64,67.6c12,0,21.8-9.8,21.8-21.8S76,23.9,64,23.9z M64,66.6c-11.5,0-20.8-9.4-20.8-20.8S52.5,24.9,64,24.9c11.5,0,20.8,9.4,20.8,20.8S75.5,66.6,64,66.6z M64,26.9c-10.4,0-18.8,8.5-18.8,18.8S53.6,64.6,64,64.6c10.4,0,18.8-8.5,18.8-18.8S74.4,26.9,64,26.9z"/><path d="M93.4,78.1c8.8-8,14.3-19.5,14.3-32.3C107.7,21.6,88.1,2,64,2C39.9,2,20.3,21.6,20.3,45.8c0,13.3,5.9,25.1,15.3,33.2l-12.8,35.5c-0.2,0.5-0.1,1.1,0.3,1.5c0.4,0.4,0.9,0.6,1.5,0.4l15.5-4.1l9.3,13c0.3,0.4,0.7,0.6,1.2,0.6c0.1,0,0.1,0,0.2,0c0.6-0.1,1-0.5,1.2-1l12.7-35.3L77.4,125c0.2,0.5,0.7,0.9,1.2,1c0.1,0,0.1,0,0.2,0c0.5,0,0.9-0.2,1.2-0.6l9.3-13l15.5,4.1c0.5,0.1,1.1,0,1.5-0.4c0.4-0.4,0.5-1,0.3-1.5L93.4,78.1z M23.3,45.8C23.3,23.3,41.5,5,64,5c22.5,0,40.7,18.3,40.7,40.7c0,21.7-17.1,39.6-38.6,40.7c-0.3-0.1-0.7-0.2-1.1,0c0,0-0.1,0-0.1,0.1c-0.2,0-0.4,0-0.6,0c0,0-0.1-0.1-0.1-0.1c-0.4-0.1-0.8-0.1-1.2,0.1c-9.2-0.2-17.6-3.5-24.4-8.8c-0.2-0.3-0.5-0.6-0.8-0.7c0,0-0.1,0-0.1,0C28.9,69.4,23.3,58.2,23.3,45.8z M50,121.3l-8.2-11.5c-0.4-0.5-1-0.7-1.6-0.6l-13.7,3.6L38,80.9c6.7,4.9,14.7,8,23.5,8.5L50,121.3z M89.1,109.2c-0.6-0.2-1.2,0.1-1.6,0.6l-8.2,11.5l-11.5-32c8.7-0.7,16.7-4,23.3-9.2l11.8,32.7L89.1,109.2z"/><path d="M78.8,127c-0.1,0-0.2,0-0.3,0c-0.9-0.1-1.7-0.8-2-1.6L64.6,92.6l-11.8,32.7c-0.3,0.9-1.1,1.5-2,1.6c-0.1,0-0.2,0-0.3,0c-0.8,0-1.6-0.4-2-1l-8.9-12.5l-14.8,3.9c-0.9,0.2-1.9,0-2.5-0.7c-0.6-0.7-0.8-1.7-0.5-2.5l12.6-34.9c-9.6-8.5-15.1-20.7-15.1-33.5C19.3,21.1,39.3,1,64,1c24.7,0,44.7,20.1,44.7,44.7c0,12.3-5.1,24.2-14.1,32.6l12.9,35.8c0.3,0.9,0.1,1.8-0.5,2.5c-0.6,0.7-1.6,1-2.5,0.7l-14.8-3.9l-8.9,12.5C80.4,126.6,79.6,127,78.8,127z M40.4,111.2l9.7,13.6c0.1,0.1,0.2,0.2,0.4,0.2c0.3,0,0.4-0.2,0.5-0.3l13.4-37.2l-0.2,0l-0.3-0.2c-0.1,0-0.3,0-0.3,0l-0.2,0.1l-0.2,0c-9.2-0.2-17.8-3.3-25-9l-0.2-0.1l-0.1-0.2c0-0.1-0.1-0.2-0.3-0.2l-0.3-0.1l-0.2-0.1c-9.4-8-14.8-19.6-14.8-31.9C22.3,22.7,41,4,64,4c23,0,41.7,18.7,41.7,41.7c0,22.2-17.4,40.5-39.6,41.7l-0.2,0l-0.2-0.1c-0.1,0-0.2-0.1-0.4,0l-0.2,0.1l-0.3,0l13.4,37.2c0.1,0.2,0.2,0.3,0.4,0.3c0.2,0,0.4-0.1,0.5-0.2l9.7-13.6l16.1,4.3c0.2,0,0.4,0,0.5-0.1c0.1-0.1,0.2-0.3,0.1-0.5l-13.4-37l0.5-0.5c8.9-8.1,14-19.6,14-31.6C106.7,22.2,87.6,3,64,3C40.4,3,21.3,22.2,21.3,45.8c0,12.4,5.4,24.3,14.9,32.4l0.5,0.4l-13.1,36.2c-0.1,0.2,0,0.4,0.1,0.5c0.1,0.1,0.3,0.2,0.5,0.1L40.4,111.2z M63.7,85.3c0.3,0,0.6,0,0.8,0.1c0,0,0,0,0,0l0.1,0c0,0,0,0,0,0c0.5-0.2,1-0.2,1.6,0c21-1.2,37.5-18.6,37.5-39.7C103.7,23.8,85.9,6,64,6C42.1,6,24.3,23.8,24.3,45.8c0,11.6,5.1,22.6,14,30.2c0.5,0.2,1,0.6,1.2,1c6.7,5.3,14.8,8.2,23.4,8.5C63.2,85.4,63.4,85.3,63.7,85.3z M50.3,123.4L41,110.3c-0.1-0.2-0.3-0.2-0.5-0.2l-15.5,4.1l12.6-34.9l1.1,0.8c6.7,5,14.7,7.8,23,8.3l1.3,0.1L50.3,123.4z M40.6,108.1c0.8,0,1.6,0.4,2,1l7.1,10l10.4-28.8c-7.8-0.7-15.2-3.4-21.6-7.8l-10.4,28.8l11.8-3.1C40.2,108.1,40.4,108.1,40.6,108.1z M78.9,123.4l-12.6-35l1.3-0.1c8.3-0.7,16.2-3.8,22.7-9l1.1-0.9l12.9,35.8l-15.5-4.1c-0.2-0.1-0.4,0-0.5,0.2L78.9,123.4z M69.1,90.2l10.5,29l7.1-10c0.6-0.8,1.7-1.2,2.7-1l0,0l11.8,3.1L90.5,81.8C84.2,86.4,76.8,89.3,69.1,90.2z"/></svg>
