<svg id="Layer_1" data-name="Layer 1" xmlns="http://www.w3.org/2000/svg" viewBox="0 0 128 128"><path d="M102.84,50.4a23.57,23.57,0,0,0-8.21,1.47l-6.12-13.8a1.47,1.47,0,0,0-.23-.76,1.42,1.42,0,0,0-.2-.22l-1.71-3.84h7.2a1.5,1.5,0,0,0,0-3h-18a1.5,1.5,0,0,0,0,3h7.48l1.77,4L49,48.26l-2.9-7.88H52.9a1.5,1.5,0,0,0,0-3H35.08a1.5,1.5,0,0,0,0,3h7.86l3.46,9.37-6,6.24a23.67,23.67,0,1,0,8.2,21.25l3.49.25a6.81,6.81,0,0,0,5,5.17V86H54.93a1.5,1.5,0,1,0,0,3h7.38a1.5,1.5,0,1,0,0-3H60.12V82.71a6.77,6.77,0,0,0,2-12.46l24.39-29.2L91.9,53.1a23.65,23.65,0,1,0,10.94-2.7ZM40.48,60.25A20.54,20.54,0,0,1,45.83,74L28.45,72.81ZM25.16,94.75A20.68,20.68,0,1,1,38.33,58.16L24.07,73a1.5,1.5,0,0,0,1,2.53L45.59,77A20.68,20.68,0,0,1,25.16,94.75ZM42.58,58.07l5-5.19L54.23,71a6.78,6.78,0,0,0-2.08,3.46l-3.33-.24c0-.06,0-.12,0-.17A23.58,23.58,0,0,0,42.58,58.07ZM58.73,79.86a3.78,3.78,0,1,1,3.77-3.78A3.79,3.79,0,0,1,58.73,79.86ZM59,69.32h-.3a6.6,6.6,0,0,0-1.84.26L50.08,51.08l32.55-10Zm43.81,25.43a20.67,20.67,0,0,1-9.73-38.9l8.36,18.83a1.51,1.51,0,0,0,1.37.9,1.46,1.46,0,0,0,.61-.13,1.49,1.49,0,0,0,.76-2L95.86,54.64a20.5,20.5,0,0,1,7-1.24,20.68,20.68,0,1,1,0,41.35Z"/></svg>