<svg xmlns="http://www.w3.org/2000/svg" viewBox="0 0 128 128"><title>big-house-alt</title><path d="M126.07,110.27h-7.86V36.47a1.49,1.49,0,0,0-.63-1.23l-6.18-4.38V11.69a1.5,1.5,0,0,0-1.5-1.5h-12a1.5,1.5,0,0,0-1.5,1.5v8.56L94.7,19A1.5,1.5,0,0,0,93,19L70.07,35.24a1.52,1.52,0,0,0-.63,1.23v3H58.56v-3a1.52,1.52,0,0,0-.63-1.23l-6.18-4.38V11.69a1.5,1.5,0,0,0-1.5-1.5h-12a1.5,1.5,0,0,0-1.5,1.5v8.56L35,19a1.5,1.5,0,0,0-1.74,0L10.42,35.24a1.49,1.49,0,0,0-.63,1.23v73.8H1.93a1.5,1.5,0,0,0,0,3H126.07a1.5,1.5,0,0,0,0-3ZM39.79,13.19h9V28.73l-9-6.36Zm.66,97.08H27.89V91.81H40.45Zm15.11,0H43.45v-20a1.5,1.5,0,0,0-1.5-1.5H26.39a1.51,1.51,0,0,0-1.5,1.5v20H12.79v-73L34.17,22.07,55.56,37.24Zm13.88,0H58.56V42.42H69.44Zm30-97.08h9V28.73l-9-6.36Zm.67,97.08H87.55V91.81h12.56Zm15.1,0h-12.1v-20a1.51,1.51,0,0,0-1.5-1.5H86.05a1.5,1.5,0,0,0-1.5,1.5v20H72.44v-73L93.83,22.07l21.38,15.17Z"/><path d="M30.1,39.42H22.21a1.5,1.5,0,0,0-1.5,1.5V55.79a1.5,1.5,0,0,0,1.5,1.5H30.1a1.5,1.5,0,0,0,1.5-1.5V40.92A1.5,1.5,0,0,0,30.1,39.42ZM28.6,54.29H23.71V42.42H28.6Z"/><path d="M38.25,57.29h7.89a1.5,1.5,0,0,0,1.5-1.5V40.92a1.5,1.5,0,0,0-1.5-1.5H38.25a1.5,1.5,0,0,0-1.5,1.5V55.79A1.5,1.5,0,0,0,38.25,57.29Zm1.5-14.87h4.89V54.29H39.75Z"/><path d="M30.1,63.8H22.21a1.5,1.5,0,0,0-1.5,1.5V80.17a1.5,1.5,0,0,0,1.5,1.5H30.1a1.5,1.5,0,0,0,1.5-1.5V65.3A1.5,1.5,0,0,0,30.1,63.8ZM28.6,78.67H23.71V66.8H28.6Z"/><path d="M38.25,81.67h7.89a1.5,1.5,0,0,0,1.5-1.5V65.3a1.5,1.5,0,0,0-1.5-1.5H38.25a1.5,1.5,0,0,0-1.5,1.5V80.17A1.5,1.5,0,0,0,38.25,81.67Zm1.5-14.87h4.89V78.67H39.75Z"/><path d="M89.75,39.42H81.86a1.5,1.5,0,0,0-1.5,1.5V55.79a1.5,1.5,0,0,0,1.5,1.5h7.89a1.5,1.5,0,0,0,1.5-1.5V40.92A1.5,1.5,0,0,0,89.75,39.42Zm-1.5,14.87H83.36V42.42h4.89Z"/><path d="M97.9,57.29h7.89a1.5,1.5,0,0,0,1.5-1.5V40.92a1.5,1.5,0,0,0-1.5-1.5H97.9a1.5,1.5,0,0,0-1.5,1.5V55.79A1.5,1.5,0,0,0,97.9,57.29Zm1.5-14.87h4.89V54.29H99.4Z"/><path d="M89.75,63.8H81.86a1.5,1.5,0,0,0-1.5,1.5V80.17a1.5,1.5,0,0,0,1.5,1.5h7.89a1.5,1.5,0,0,0,1.5-1.5V65.3A1.5,1.5,0,0,0,89.75,63.8Zm-1.5,14.87H83.36V66.8h4.89Z"/><path d="M97.9,81.67h7.89a1.5,1.5,0,0,0,1.5-1.5V65.3a1.5,1.5,0,0,0-1.5-1.5H97.9a1.5,1.5,0,0,0-1.5,1.5V80.17A1.5,1.5,0,0,0,97.9,81.67ZM99.4,66.8h4.89V78.67H99.4Z"/></svg>