<svg id="Layer_1" data-name="Layer 1" xmlns="http://www.w3.org/2000/svg" viewBox="0 0 128 128"><path d="M123.8,78.9l-5-20.12a1.5,1.5,0,0,0-1.45-1.14l-29.49,0V32.11l5.25,2.8a1.53,1.53,0,0,0,.71.18,1.5,1.5,0,0,0,.7-2.83l-38-20.21a1.5,1.5,0,0,0-1.44,0L18.91,32.28a1.49,1.49,0,0,0-.58,2,1.51,1.51,0,0,0,2,.58L23.78,33V67.43L4.92,78a1.5,1.5,0,1,0,1.47,2.62l3.51-2v36a1.5,1.5,0,0,0,1.5,1.5h106a1.5,1.5,0,0,0,1.5-1.5V80.76h3.49a1.51,1.51,0,0,0,1.18-.57A1.53,1.53,0,0,0,123.8,78.9ZM67.12,70.78V60.58H77.43l.8,16.11ZM47.9,60.56l16.22,0v8.61Zm33.38,17.2L80.43,60.6H86a1.27,1.27,0,0,0,.34,0,1.24,1.24,0,0,0,.33,0H90.6l1.71,17.15Zm14,0-1.7-17.15,10.16,0,2.56,17.13ZM26.78,31.32,55.87,15.08l29,15.44V57.6l-43-.05h-.06l-.29,0-.1,0-.23.1,0,0-14.36,8ZM41.89,60.76,70.33,75.89a1.69,1.69,0,0,0-.07.45v36.79H12.9V76.94Zm46.39,52.37V94.67h12.56v18.46Zm27.58,0h-12v-20a1.5,1.5,0,0,0-1.5-1.5H86.78a1.5,1.5,0,0,0-1.5,1.5v20h-12V77.45l5.89,3.14,0,0,.08,0,.16,0,.08,0h0a1.36,1.36,0,0,0,.29,0h36Zm-6.49-35.37-2.56-17.13h9.38l4.24,17.12Z"/><path d="M32,103.08H51.17a1.5,1.5,0,0,0,1.5-1.5V82.4a1.5,1.5,0,0,0-1.5-1.5H32a1.5,1.5,0,0,0-1.5,1.5v19.18A1.5,1.5,0,0,0,32,103.08Zm1.5-9.59h6.59v6.59H33.49Zm9.59,6.59V93.49h6.59v6.59Zm6.59-9.59H43.08V83.9h6.59ZM40.08,83.9v6.59H33.49V83.9Z"/><path d="M51.31,49.87H62.17a1.5,1.5,0,0,0,1.5-1.5V34.19a1.5,1.5,0,0,0-1.5-1.5H51.31a1.5,1.5,0,0,0-1.5,1.5V48.37A1.5,1.5,0,0,0,51.31,49.87Zm1.5-14.18h7.86V46.87H52.81Z"/></svg>