<svg id="Layer_1" data-name="Layer 1" xmlns="http://www.w3.org/2000/svg" viewBox="0 0 128 128"><path d="M124.73,123.67h-7.07V81.12h7.07a1.51,1.51,0,0,0,1.39-.93,1.49,1.49,0,0,0-.32-1.63L110.45,63V20.29h8.21a1.49,1.49,0,0,0,1.12-2.49l-14.2-16a1.53,1.53,0,0,0-1.12-.51H23.54a1.53,1.53,0,0,0-1.12.51l-14.2,16a1.49,1.49,0,0,0,1.12,2.49h8.21V63L2.2,78.56a1.49,1.49,0,0,0-.32,1.63,1.51,1.51,0,0,0,1.39.93h7.07v42.55H3.27a1.5,1.5,0,1,0,0,3H124.73a1.5,1.5,0,0,0,0-3ZM24.22,4.33h79.56l11.54,13H12.68Zm83.23,16V62.15H20.55V20.29ZM19.67,65.15h88.66l12.81,13H6.86Zm7.66,49.57H60.86v8.83H27.33Zm0-3v-9.34H60.86v9.34ZM60.86,99.38H27.33V90.55H60.86Zm20.21,24.29V89.52h19.6v34.15Zm22.6,0V88a1.5,1.5,0,0,0-1.5-1.5H79.57a1.5,1.5,0,0,0-1.5,1.5v35.65H63.86V89.05a1.5,1.5,0,0,0-1.5-1.5H25.83a1.5,1.5,0,0,0-1.5,1.5v34.62h-11V81.12H114.66v42.55Z"/><path d="M96.23,105.42a1,1,0,0,0-1,1v4.7a1,1,0,0,0,2,0v-4.7A1,1,0,0,0,96.23,105.42Z"/><path d="M31.73,54.63H46.34a1.5,1.5,0,0,0,1.5-1.5V29.32a1.5,1.5,0,0,0-1.5-1.5H31.73a1.5,1.5,0,0,0-1.5,1.5V53.13A1.5,1.5,0,0,0,31.73,54.63Zm1.5-3V42.72H44.84v8.91ZM44.84,30.82v8.9H33.23v-8.9Z"/><path d="M56.7,54.63H71.3a1.5,1.5,0,0,0,1.5-1.5V29.32a1.5,1.5,0,0,0-1.5-1.5H56.7a1.5,1.5,0,0,0-1.5,1.5V53.13A1.5,1.5,0,0,0,56.7,54.63Zm1.5-3V42.72H69.8v8.91ZM69.8,30.82v8.9H58.2v-8.9Z"/><path d="M81.66,54.63H96.27a1.5,1.5,0,0,0,1.5-1.5V29.32a1.5,1.5,0,0,0-1.5-1.5H81.66a1.5,1.5,0,0,0-1.5,1.5V53.13A1.5,1.5,0,0,0,81.66,54.63Zm1.5-3V42.72H94.77v8.91ZM94.77,30.82v8.9H83.16v-8.9Z"/></svg>