<svg xmlns="http://www.w3.org/2000/svg" viewBox="0 0 126.19 81.76"><g id="Layer_2" data-name="Layer 2"><g id="Layer_1-2" data-name="Layer 1"><path d="M70.9,28V12.37h5.36a1,1,0,0,0,.89-.58,1,1,0,0,0-.16-1L67.72.33A1,1,0,0,0,67,0H14.21a1,1,0,0,0-.73.33L4.21,10.74a1,1,0,0,0,.73,1.63H10.3V40.25L.28,50.38A1,1,0,0,0,1,52.05H5.59V79.81H1a1,1,0,1,0,0,2H80.22a1,1,0,1,0,0-2H75.61V52.05h5.61l-.59-2L70.9,40.25V28ZM14.65,2h51.9l7.53,8.45h-67ZM69,12.37V39.68H12.25V12.37ZM11.68,41.63H69.52l8.36,8.46H3.32Zm5,32.34H38.55v5.76H16.67Zm0-2v-6.1H38.55V72ZM38.55,64H16.67V58.2H38.55ZM51.73,79.81V57.53H64.52V79.81Zm14.75,0V56.55a1,1,0,0,0-1-1H50.76a1,1,0,0,0-1,1V79.81H40.51V57.22a1,1,0,0,0-1-1H15.7a1,1,0,0,0-1,1V79.81H7.55V52.05h66.1V79.81Z"/><path d="M61.63,67.9a.66.66,0,0,0-.66.65v3.07a.66.66,0,0,0,.66.65.65.65,0,0,0,.65-.65V68.55A.65.65,0,0,0,61.63,67.9Z"/><path d="M19.55,34.77h9.53a1,1,0,0,0,1-1V18.25a1,1,0,0,0-1-1H19.55a1,1,0,0,0-1,1V33.79A1,1,0,0,0,19.55,34.77Zm1-2V27H28.1v5.81ZM28.1,19.23v5.82H20.53V19.23Z"/><path d="M35.83,34.77h9.54a1,1,0,0,0,1-1V18.25a1,1,0,0,0-1-1H35.83a1,1,0,0,0-1,1V33.79A1,1,0,0,0,35.83,34.77Zm1-2V27h7.58v5.81Zm7.58-13.58v5.82H36.81V19.23Z"/><path d="M52.12,34.77h9.53a1,1,0,0,0,1-1V18.25a1,1,0,0,0-1-1H52.12a1,1,0,0,0-1,1V33.79A1,1,0,0,0,52.12,34.77Zm1-2V27h7.57v5.81Zm7.57-13.58v5.82H53.1V19.23Z"/><path d="M80.22,52.05h38.25V79.81h-39v2h40a1,1,0,0,0,1-1V52.05h4.78a1,1,0,0,0,.82-.45,1,1,0,0,0,.07-.93l-10-22.1a1,1,0,0,0-.89-.58h-6.69V20.5a1,1,0,0,0-1-1h-9a1,1,0,0,0-1,1V28H69.9v2H97.56V39.6a1,1,0,0,0,1,1h9a1,1,0,0,0,1-1V30h6.06l9.15,20.14H79.63m26.9-11.47h-7V21.48h7Z"/><path d="M81.54,72.26H95.06a1,1,0,0,0,1-1V57.76a1,1,0,0,0-1-1H81.54a1,1,0,0,0-1,1V71.28A1,1,0,0,0,81.54,72.26Zm7.74-13.52h4.8v4.8h-4.8Zm0,6.76h4.8v4.81h-4.8Zm-6.76-6.76h4.8v4.8h-4.8Zm0,6.76h4.8v4.81h-4.8Z"/><path d="M99.76,72.26h13.52a1,1,0,0,0,1-1V57.76a1,1,0,0,0-1-1H99.76a1,1,0,0,0-1,1V71.28A1,1,0,0,0,99.76,72.26Zm7.74-13.52h4.8v4.8h-4.8Zm0,6.76h4.8v4.81h-4.8Zm-6.76-6.76h4.8v4.8h-4.8Zm0,6.76h4.8v4.81h-4.8Z"/></g></g></svg>