<?xml version="1.0" encoding="utf-8"?>
<!-- Generator: Adobe Illustrator 23.0.1, SVG Export Plug-In . SVG Version: 6.00 Build 0)  -->
<svg version="1.1" id="Layer_1" xmlns="http://www.w3.org/2000/svg" xmlns:xlink="http://www.w3.org/1999/xlink" x="0px" y="0px"
	 viewBox="0 0 128 128" style="enable-background:new 0 0 128 128;" xml:space="preserve">
<g>
	<g>
		<path d="M102.1,125.6H25.8c-0.8,0-1.5-0.7-1.5-1.5V21.2c0-0.8,0.7-1.5,1.5-1.5h76.3c0.8,0,1.5,0.7,1.5,1.5v102.9
			C103.6,124.9,103,125.6,102.1,125.6z M27.3,122.6h73.3V22.7H27.3V122.6z"/>
		<path d="M102.1,126.1H25.8c-1.1,0-2-0.9-2-2V21.2c0-1.1,0.9-2,2-2h76.3c1.1,0,2,0.9,2,2v102.9
			C104.1,125.2,103.2,126.1,102.1,126.1z M25.8,20.2c-0.6,0-1,0.4-1,1v102.9c0,0.6,0.4,1,1,1h76.3c0.6,0,1-0.4,1-1V21.2
			c0-0.6-0.4-1-1-1H25.8z M101.1,123.1H26.8V22.2h74.3V123.1z M27.8,122.1h72.3V23.2H27.8V122.1z"/>
	</g>
	<g>
		<path d="M102.2,76.6H25.9c-0.8,0-1.5-0.7-1.5-1.5s0.7-1.5,1.5-1.5h76.3c0.8,0,1.5,0.7,1.5,1.5S103,76.6,102.2,76.6z"/>
		<path d="M102.2,77.1H25.9c-1.1,0-2-0.9-2-2s0.9-2,2-2h76.3c1.1,0,2,0.9,2,2S103.3,77.1,102.2,77.1z M25.9,74.1c-0.6,0-1,0.4-1,1
			s0.4,1,1,1h76.3c0.6,0,1-0.4,1-1s-0.4-1-1-1H25.9z"/>
	</g>
	<g>
		<path d="M41,97.3c-3.2,0-5.8-2.6-5.8-5.8s2.6-5.8,5.8-5.8c3.2,0,5.8,2.6,5.8,5.8S44.2,97.3,41,97.3z M41,88.7
			c-1.6,0-2.8,1.3-2.8,2.8s1.3,2.8,2.8,2.8c1.6,0,2.8-1.3,2.8-2.8S42.5,88.7,41,88.7z"/>
		<path d="M41,97.8c-3.5,0-6.3-2.8-6.3-6.3s2.8-6.3,6.3-6.3c3.5,0,6.3,2.8,6.3,6.3S44.4,97.8,41,97.8z M41,86.2
			c-2.9,0-5.3,2.4-5.3,5.3s2.4,5.3,5.3,5.3c2.9,0,5.3-2.4,5.3-5.3S43.9,86.2,41,86.2z M41,94.8c-1.8,0-3.3-1.5-3.3-3.3
			s1.5-3.3,3.3-3.3c1.8,0,3.3,1.5,3.3,3.3S42.8,94.8,41,94.8z M41,89.2c-1.3,0-2.3,1-2.3,2.3s1,2.3,2.3,2.3c1.3,0,2.3-1,2.3-2.3
			S42.2,89.2,41,89.2z"/>
	</g>
	<g>
		<path d="M41,113.1c-3.2,0-5.8-2.6-5.8-5.8s2.6-5.8,5.8-5.8c3.2,0,5.8,2.6,5.8,5.8S44.2,113.1,41,113.1z M41,104.5
			c-1.6,0-2.8,1.3-2.8,2.8s1.3,2.8,2.8,2.8c1.6,0,2.8-1.3,2.8-2.8S42.5,104.5,41,104.5z"/>
		<path d="M41,113.6c-3.5,0-6.3-2.8-6.3-6.3s2.8-6.3,6.3-6.3c3.5,0,6.3,2.8,6.3,6.3S44.4,113.6,41,113.6z M41,102
			c-2.9,0-5.3,2.4-5.3,5.3c0,2.9,2.4,5.3,5.3,5.3c2.9,0,5.3-2.4,5.3-5.3C46.3,104.3,43.9,102,41,102z M41,110.6
			c-1.8,0-3.3-1.5-3.3-3.3c0-1.8,1.5-3.3,3.3-3.3c1.8,0,3.3,1.5,3.3,3.3C44.3,109.1,42.8,110.6,41,110.6z M41,105
			c-1.3,0-2.3,1-2.3,2.3c0,1.3,1,2.3,2.3,2.3c1.3,0,2.3-1,2.3-2.3C43.3,106,42.2,105,41,105z"/>
	</g>
	<g>
		<path d="M76.9,22.7c-0.8,0-1.5-0.7-1.5-1.5v-4.4c0-6.3-5.1-11.4-11.4-11.4c-6.3,0-11.4,5.1-11.4,11.4v4.4c0,0.8-0.7,1.5-1.5,1.5
			s-1.5-0.7-1.5-1.5v-4.4c0-7.9,6.4-14.4,14.4-14.4c7.9,0,14.4,6.4,14.4,14.4v4.4C78.4,22,77.7,22.7,76.9,22.7z"/>
		<path d="M76.9,23.2c-1.1,0-2-0.9-2-2v-4.4c0-6-4.9-10.9-10.9-10.9c-6,0-10.9,4.9-10.9,10.9v4.4c0,1.1-0.9,2-2,2s-2-0.9-2-2v-4.4
			c0-8.2,6.7-14.9,14.9-14.9c8.2,0,14.9,6.7,14.9,14.9v4.4C78.9,22.3,78,23.2,76.9,23.2z M64,4.9c6.5,0,11.9,5.3,11.9,11.9v4.4
			c0,0.6,0.4,1,1,1s1-0.4,1-1v-4.4c0-7.6-6.2-13.9-13.9-13.9c-7.6,0-13.9,6.2-13.9,13.9v4.4c0,0.6,0.4,1,1,1s1-0.4,1-1v-4.4
			C52.2,10.3,57.5,4.9,64,4.9z"/>
	</g>
	<g>
		<path d="M72,97.3H56c-0.8,0-1.5-0.7-1.5-1.5v-8.6c0-0.8,0.7-1.5,1.5-1.5H72c0.8,0,1.5,0.7,1.5,1.5v8.6
			C73.5,96.6,72.9,97.3,72,97.3z M57.5,94.3h13.1v-5.6H57.5V94.3z"/>
		<path d="M72,97.8H56c-1.1,0-2-0.9-2-2v-8.6c0-1.1,0.9-2,2-2H72c1.1,0,2,0.9,2,2v8.6C74,96.9,73.1,97.8,72,97.8z M56,86.2
			c-0.6,0-1,0.4-1,1v8.6c0,0.6,0.4,1,1,1H72c0.6,0,1-0.4,1-1v-8.6c0-0.6-0.4-1-1-1H56z M71,94.8H57v-6.6H71V94.8z M58,93.8H70v-4.6
			H58V93.8z"/>
	</g>
	<g>
		<path d="M72,104.5H56c-0.8,0-1.5-0.7-1.5-1.5s0.7-1.5,1.5-1.5H72c0.8,0,1.5,0.7,1.5,1.5S72.9,104.5,72,104.5z"/>
		<path d="M72,105H56c-1.1,0-2-0.9-2-2s0.9-2,2-2H72c1.1,0,2,0.9,2,2S73.2,105,72,105z M56,102c-0.6,0-1,0.4-1,1s0.4,1,1,1H72
			c0.6,0,1-0.4,1-1s-0.4-1-1-1H56z"/>
	</g>
	<g>
		<path d="M72,112.4H56c-0.8,0-1.5-0.7-1.5-1.5s0.7-1.5,1.5-1.5H72c0.8,0,1.5,0.7,1.5,1.5S72.9,112.4,72,112.4z"/>
		<path d="M72,112.9H56c-1.1,0-2-0.9-2-2s0.9-2,2-2H72c1.1,0,2,0.9,2,2S73.2,112.9,72,112.9z M56,109.9c-0.6,0-1,0.4-1,1s0.4,1,1,1
			H72c0.6,0,1-0.4,1-1s-0.4-1-1-1H56z"/>
	</g>
</g>
</svg>
