<?xml version="1.0" encoding="utf-8"?>
<!-- Generator: Adobe Illustrator 23.0.1, SVG Export Plug-In . SVG Version: 6.00 Build 0)  -->
<svg version="1.1" id="Layer_1" xmlns="http://www.w3.org/2000/svg" xmlns:xlink="http://www.w3.org/1999/xlink" x="0px" y="0px"
	 viewBox="0 0 128 128" style="enable-background:new 0 0 128 128;" xml:space="preserve">
<g>
	<path d="M102.1,125.6H25.8c-0.8,0-1.5-0.7-1.5-1.5V21.2c0-0.8,0.7-1.5,1.5-1.5h76.3c0.8,0,1.5,0.7,1.5,1.5v102.9
		C103.6,124.9,103,125.6,102.1,125.6z M27.3,122.6h73.3V22.7H27.3V122.6z"/>
	<path d="M102.2,76.6H25.9c-0.8,0-1.5-0.7-1.5-1.5s0.7-1.5,1.5-1.5h76.3c0.8,0,1.5,0.7,1.5,1.5S103,76.6,102.2,76.6z"/>
	<path d="M41,97.3c-3.2,0-5.8-2.6-5.8-5.8s2.6-5.8,5.8-5.8c3.2,0,5.8,2.6,5.8,5.8S44.2,97.3,41,97.3z M41,88.7
		c-1.6,0-2.8,1.3-2.8,2.8s1.3,2.8,2.8,2.8c1.6,0,2.8-1.3,2.8-2.8S42.5,88.7,41,88.7z"/>
	<path d="M41,113.1c-3.2,0-5.8-2.6-5.8-5.8s2.6-5.8,5.8-5.8c3.2,0,5.8,2.6,5.8,5.8S44.2,113.1,41,113.1z M41,104.5
		c-1.6,0-2.8,1.3-2.8,2.8s1.3,2.8,2.8,2.8c1.6,0,2.8-1.3,2.8-2.8S42.5,104.5,41,104.5z"/>
	<path d="M76.9,22.7c-0.8,0-1.5-0.7-1.5-1.5v-4.4c0-6.3-5.1-11.4-11.4-11.4c-6.3,0-11.4,5.1-11.4,11.4v4.4c0,0.8-0.7,1.5-1.5,1.5
		s-1.5-0.7-1.5-1.5v-4.4c0-7.9,6.4-14.4,14.4-14.4c7.9,0,14.4,6.4,14.4,14.4v4.4C78.4,22,77.7,22.7,76.9,22.7z"/>
	<path d="M72,97.3H56c-0.8,0-1.5-0.7-1.5-1.5v-8.6c0-0.8,0.7-1.5,1.5-1.5H72c0.8,0,1.5,0.7,1.5,1.5v8.6C73.5,96.6,72.9,97.3,72,97.3
		z M57.5,94.3h13.1v-5.6H57.5V94.3z"/>
	<path d="M72,104.5H56c-0.8,0-1.5-0.7-1.5-1.5s0.7-1.5,1.5-1.5H72c0.8,0,1.5,0.7,1.5,1.5S72.9,104.5,72,104.5z"/>
	<path d="M72,112.4H56c-0.8,0-1.5-0.7-1.5-1.5s0.7-1.5,1.5-1.5H72c0.8,0,1.5,0.7,1.5,1.5S72.9,112.4,72,112.4z"/>
</g>
</svg>
