<svg id="Layer_1" data-name="Layer 1" xmlns="http://www.w3.org/2000/svg" viewBox="0 0 128 128"><path d="M105.06,28.93a1,1,0,0,0-.07-.21l-.06-.1a1,1,0,0,0-.1-.17l-.08-.1-.13-.13,0,0c-2.38-2-3.76-5.46-3.68-9.29.07-3.6,1.43-6.75,3.63-8.43a1.5,1.5,0,0,0-.91-2.69H34.42A11.54,11.54,0,0,0,22.88,19.29v89.42a11.54,11.54,0,0,0,11.54,11.53h69.2a1.5,1.5,0,0,0,1.5-1.5V29.33a1.12,1.12,0,0,0,0-.32A.24.24,0,0,0,105.06,28.93ZM34.42,10.76h65.82a15.32,15.32,0,0,0-2.34,8,16,16,0,0,0,2.42,9H34.42a8.54,8.54,0,1,1,0-17.07Zm0,106.48a8.55,8.55,0,0,1-8.54-8.53V27a11.52,11.52,0,0,0,8.54,3.8h67.7v86.41Z"/><path d="M34.42,36a1.5,1.5,0,0,0-1.5,1.5v72.66a1.5,1.5,0,0,0,3,0V37.51A1.5,1.5,0,0,0,34.42,36Z"/><path d="M84.7,48.51H50.4a1.5,1.5,0,0,0,0,3H84.7a1.5,1.5,0,0,0,0-3Z"/><path d="M84.7,57.5H50.4a1.5,1.5,0,0,0,0,3H84.7a1.5,1.5,0,0,0,0-3Z"/></svg>