<svg xmlns="http://www.w3.org/2000/svg" viewBox="0 0 128 128"><title>bell-lg</title><path d="M115.8,126.7c-0.8,0-1.5-0.7-1.5-1.5V25.5H85.2c-0.8,0-1.5-0.7-1.5-1.5s0.7-1.5,1.5-1.5h30.6c0.8,0,1.5,0.7,1.5,1.5v101.2	C117.3,126,116.6,126.7,115.8,126.7z"/><path d="M115.8,127.7c-1.4,0-2.5-1.1-2.5-2.5V26.5H85.2c-1.4,0-2.5-1.1-2.5-2.5s1.1-2.5,2.5-2.5h30.6c1.4,0,2.5,1.1,2.5,2.5v101.2	C118.3,126.6,117.2,127.7,115.8,127.7z M85.2,23.5c-0.3,0-0.5,0.2-0.5,0.5s0.2,0.5,0.5,0.5h30.1v100.7c0,0.3,0.2,0.5,0.5,0.5	s0.5-0.2,0.5-0.5V24c0-0.3-0.2-0.5-0.5-0.5H85.2z"/><path d="M124.9,126.7H3.1c-0.8,0-1.5-0.7-1.5-1.5s0.7-1.5,1.5-1.5h121.7c0.8,0,1.5,0.7,1.5,1.5S125.7,126.7,124.9,126.7z"/><path d="M124.9,127.7H3.1c-1.4,0-2.5-1.1-2.5-2.5s1.1-2.5,2.5-2.5h121.7c1.4,0,2.5,1.1,2.5,2.5S126.2,127.7,124.9,127.7z	 M3.1,124.7c-0.3,0-0.5,0.2-0.5,0.5s0.2,0.5,0.5,0.5h121.7c0.3,0,0.5-0.2,0.5-0.5s-0.2-0.5-0.5-0.5H3.1z"/><path d="M85.2,126.7c-0.8,0-1.5-0.7-1.5-1.5V4.3H13.2v120.9c0,0.8-0.7,1.5-1.5,1.5s-1.5-0.7-1.5-1.5V2.8c0-0.8,0.7-1.5,1.5-1.5	h73.6c0.8,0,1.5,0.7,1.5,1.5v122.4C86.7,126,86,126.7,85.2,126.7z"/><path d="M85.2,127.7c-1.4,0-2.5-1.1-2.5-2.5V5.3H14.2v119.9c0,1.4-1.1,2.5-2.5,2.5s-2.5-1.1-2.5-2.5V2.8c0-1.4,1.1-2.5,2.5-2.5	h73.6c1.4,0,2.5,1.1,2.5,2.5v122.4C87.7,126.6,86.6,127.7,85.2,127.7z M12.2,3.3h72.6v121.9c0,0.3,0.2,0.5,0.5,0.5	s0.5-0.2,0.5-0.5V2.8c0-0.3-0.2-0.5-0.5-0.5H11.7c-0.3,0-0.5,0.2-0.5,0.5v122.4c0,0.3,0.2,0.5,0.5,0.5s0.5-0.2,0.5-0.5V3.3z"/><path d="M56.1,126.7c-0.8,0-1.5-0.7-1.5-1.5v-24.6H42.3v24.6c0,0.8-0.7,1.5-1.5,1.5s-1.5-0.7-1.5-1.5V99.1c0-0.8,0.7-1.5,1.5-1.5	h15.3c0.8,0,1.5,0.7,1.5,1.5v26.1C57.6,126,56.9,126.7,56.1,126.7z"/><path d="M56.1,127.7c-1.4,0-2.5-1.1-2.5-2.5v-23.6H43.3v23.6c0,1.4-1.1,2.5-2.5,2.5s-2.5-1.1-2.5-2.5V99.1c0-1.4,1.1-2.5,2.5-2.5	h15.3c1.4,0,2.5,1.1,2.5,2.5v26.1C58.6,126.6,57.5,127.7,56.1,127.7z M41.3,99.6h14.3v25.6c0,0.3,0.2,0.5,0.5,0.5s0.5-0.2,0.5-0.5	V99.1c0-0.3-0.2-0.5-0.5-0.5H40.8c-0.3,0-0.5,0.2-0.5,0.5v26.1c0,0.3,0.2,0.5,0.5,0.5s0.5-0.2,0.5-0.5V99.6z"/><path d="M26.6,24.5c-0.8,0-1.5-0.7-1.5-1.5v-6.3c0-0.8,0.7-1.5,1.5-1.5s1.5,0.7,1.5,1.5V23C28.1,23.8,27.4,24.5,26.6,24.5z"/><path d="M26.6,25.5c-1.4,0-2.5-1.1-2.5-2.5v-6.3c0-1.4,1.1-2.5,2.5-2.5s2.5,1.1,2.5,2.5V23C29.1,24.4,28,25.5,26.6,25.5z		 M26.6,16.2c-0.3,0-0.5,0.2-0.5,0.5V23c0,0.3,0.2,0.5,0.5,0.5s0.5-0.2,0.5-0.5v-6.3C27.1,16.4,26.9,16.2,26.6,16.2z"/><path d="M26.6,68.1c-0.8,0-1.5-0.7-1.5-1.5v-6.3c0-0.8,0.7-1.5,1.5-1.5s1.5,0.7,1.5,1.5v6.3C28.1,67.5,27.4,68.1,26.6,68.1z"/><path d="M26.6,69.1c-1.4,0-2.5-1.1-2.5-2.5v-6.3c0-1.4,1.1-2.5,2.5-2.5s2.5,1.1,2.5,2.5v6.3C29.1,68,28,69.1,26.6,69.1z		 M26.6,59.8c-0.3,0-0.5,0.2-0.5,0.5v6.3c0,0.3,0.2,0.5,0.5,0.5s0.5-0.2,0.5-0.5v-6.3C27.1,60,26.9,59.8,26.6,59.8z"/><path d="M26.6,46.3c-0.8,0-1.5-0.7-1.5-1.5v-6.3c0-0.8,0.7-1.5,1.5-1.5s1.5,0.7,1.5,1.5v6.3C28.1,45.6,27.4,46.3,26.6,46.3z"/><path d="M26.6,47.3c-1.4,0-2.5-1.1-2.5-2.5v-6.3c0-1.4,1.1-2.5,2.5-2.5s2.5,1.1,2.5,2.5v6.3C29.1,46.2,28,47.3,26.6,47.3z		 M26.6,38c-0.3,0-0.5,0.2-0.5,0.5v6.3c0,0.3,0.2,0.5,0.5,0.5s0.5-0.2,0.5-0.5v-6.3C27.1,38.2,26.9,38,26.6,38z"/><path d="M26.6,90c-0.8,0-1.5-0.7-1.5-1.5v-6.3c0-0.8,0.7-1.5,1.5-1.5s1.5,0.7,1.5,1.5v6.3C28.1,89.3,27.4,90,26.6,90z"/><path d="M26.6,91c-1.4,0-2.5-1.1-2.5-2.5v-6.3c0-1.4,1.1-2.5,2.5-2.5s2.5,1.1,2.5,2.5v6.3C29.1,89.8,28,91,26.6,91z M26.6,81.6		c-0.3,0-0.5,0.2-0.5,0.5v6.3c0,0.3,0.2,0.5,0.5,0.5s0.5-0.2,0.5-0.5v-6.3C27.1,81.9,26.9,81.6,26.6,81.6z"/><path d="M26.6,111.8c-0.8,0-1.5-0.7-1.5-1.5V104c0-0.8,0.7-1.5,1.5-1.5s1.5,0.7,1.5,1.5v6.3C28.1,111.1,27.4,111.8,26.6,111.8z"		/><path d="M26.6,112.8c-1.4,0-2.5-1.1-2.5-2.5V104c0-1.4,1.1-2.5,2.5-2.5s2.5,1.1,2.5,2.5v6.3C29.1,111.7,28,112.8,26.6,112.8z		 M26.6,103.5c-0.3,0-0.5,0.2-0.5,0.5v6.3c0,0.3,0.2,0.5,0.5,0.5s0.5-0.2,0.5-0.5V104C27.1,103.7,26.9,103.5,26.6,103.5z"/><path d="M48.1,24.5c-0.8,0-1.5-0.7-1.5-1.5v-6.3c0-0.8,0.7-1.5,1.5-1.5s1.5,0.7,1.5,1.5V23C49.6,23.8,48.9,24.5,48.1,24.5z"/><path d="M48.1,25.5c-1.4,0-2.5-1.1-2.5-2.5v-6.3c0-1.4,1.1-2.5,2.5-2.5s2.5,1.1,2.5,2.5V23C50.6,24.4,49.5,25.5,48.1,25.5z	 M48.1,16.2c-0.3,0-0.5,0.2-0.5,0.5V23c0,0.3,0.2,0.5,0.5,0.5s0.5-0.2,0.5-0.5v-6.3C48.6,16.4,48.4,16.2,48.1,16.2z"/><path d="M48.1,68.1c-0.8,0-1.5-0.7-1.5-1.5v-6.3c0-0.8,0.7-1.5,1.5-1.5s1.5,0.7,1.5,1.5v6.3C49.6,67.5,48.9,68.1,48.1,68.1z"/><path d="M48.1,69.1c-1.4,0-2.5-1.1-2.5-2.5v-6.3c0-1.4,1.1-2.5,2.5-2.5s2.5,1.1,2.5,2.5v6.3C50.6,68,49.5,69.1,48.1,69.1z	 M48.1,59.8c-0.3,0-0.5,0.2-0.5,0.5v6.3c0,0.3,0.2,0.5,0.5,0.5s0.5-0.2,0.5-0.5v-6.3C48.6,60,48.4,59.8,48.1,59.8z"/><path d="M48.1,46.3c-0.8,0-1.5-0.7-1.5-1.5v-6.3c0-0.8,0.7-1.5,1.5-1.5s1.5,0.7,1.5,1.5v6.3C49.6,45.6,48.9,46.3,48.1,46.3z"/><path d="M48.1,47.3c-1.4,0-2.5-1.1-2.5-2.5v-6.3c0-1.4,1.1-2.5,2.5-2.5s2.5,1.1,2.5,2.5v6.3C50.6,46.2,49.5,47.3,48.1,47.3z	 M48.1,38c-0.3,0-0.5,0.2-0.5,0.5v6.3c0,0.3,0.2,0.5,0.5,0.5s0.5-0.2,0.5-0.5v-6.3C48.6,38.2,48.4,38,48.1,38z"/><path d="M48.1,90c-0.8,0-1.5-0.7-1.5-1.5v-6.3c0-0.8,0.7-1.5,1.5-1.5s1.5,0.7,1.5,1.5v6.3C49.6,89.3,48.9,90,48.1,90z"/><path d="M48.1,91c-1.4,0-2.5-1.1-2.5-2.5v-6.3c0-1.4,1.1-2.5,2.5-2.5s2.5,1.1,2.5,2.5v6.3C50.6,89.8,49.5,91,48.1,91z M48.1,81.6	c-0.3,0-0.5,0.2-0.5,0.5v6.3c0,0.3,0.2,0.5,0.5,0.5s0.5-0.2,0.5-0.5v-6.3C48.6,81.9,48.4,81.6,48.1,81.6z"/><path d="M69.6,24.5c-0.8,0-1.5-0.7-1.5-1.5v-6.3c0-0.8,0.7-1.5,1.5-1.5s1.5,0.7,1.5,1.5V23C71.1,23.8,70.4,24.5,69.6,24.5z"/><path d="M69.6,25.5c-1.4,0-2.5-1.1-2.5-2.5v-6.3c0-1.4,1.1-2.5,2.5-2.5s2.5,1.1,2.5,2.5V23C72.1,24.4,71,25.5,69.6,25.5z		 M69.6,16.2c-0.3,0-0.5,0.2-0.5,0.5V23c0,0.3,0.2,0.5,0.5,0.5s0.5-0.2,0.5-0.5v-6.3C70.1,16.4,69.9,16.2,69.6,16.2z"/><path d="M69.6,68.1c-0.8,0-1.5-0.7-1.5-1.5v-6.3c0-0.8,0.7-1.5,1.5-1.5s1.5,0.7,1.5,1.5v6.3C71.1,67.5,70.4,68.1,69.6,68.1z"/><path d="M69.6,69.1c-1.4,0-2.5-1.1-2.5-2.5v-6.3c0-1.4,1.1-2.5,2.5-2.5s2.5,1.1,2.5,2.5v6.3C72.1,68,71,69.1,69.6,69.1z		 M69.6,59.8c-0.3,0-0.5,0.2-0.5,0.5v6.3c0,0.3,0.2,0.5,0.5,0.5s0.5-0.2,0.5-0.5v-6.3C70.1,60,69.9,59.8,69.6,59.8z"/><path d="M69.6,46.3c-0.8,0-1.5-0.7-1.5-1.5v-6.3c0-0.8,0.7-1.5,1.5-1.5s1.5,0.7,1.5,1.5v6.3C71.1,45.6,70.4,46.3,69.6,46.3z"/><path d="M69.6,47.3c-1.4,0-2.5-1.1-2.5-2.5v-6.3c0-1.4,1.1-2.5,2.5-2.5s2.5,1.1,2.5,2.5v6.3C72.1,46.2,71,47.3,69.6,47.3z		 M69.6,38c-0.3,0-0.5,0.2-0.5,0.5v6.3c0,0.3,0.2,0.5,0.5,0.5s0.5-0.2,0.5-0.5v-6.3C70.1,38.2,69.9,38,69.6,38z"/><path d="M69.6,90c-0.8,0-1.5-0.7-1.5-1.5v-6.3c0-0.8,0.7-1.5,1.5-1.5s1.5,0.7,1.5,1.5v6.3C71.1,89.3,70.4,90,69.6,90z"/><path d="M69.6,91c-1.4,0-2.5-1.1-2.5-2.5v-6.3c0-1.4,1.1-2.5,2.5-2.5s2.5,1.1,2.5,2.5v6.3C72.1,89.8,71,91,69.6,91z M69.6,81.6		c-0.3,0-0.5,0.2-0.5,0.5v6.3c0,0.3,0.2,0.5,0.5,0.5s0.5-0.2,0.5-0.5v-6.3C70.1,81.9,69.9,81.6,69.6,81.6z"/><path d="M69.6,111.8c-0.8,0-1.5-0.7-1.5-1.5V104c0-0.8,0.7-1.5,1.5-1.5s1.5,0.7,1.5,1.5v6.3C71.1,111.1,70.4,111.8,69.6,111.8z"		/><path d="M69.6,112.8c-1.4,0-2.5-1.1-2.5-2.5V104c0-1.4,1.1-2.5,2.5-2.5s2.5,1.1,2.5,2.5v6.3C72.1,111.7,71,112.8,69.6,112.8z		 M69.6,103.5c-0.3,0-0.5,0.2-0.5,0.5v6.3c0,0.3,0.2,0.5,0.5,0.5s0.5-0.2,0.5-0.5V104C70.1,103.7,69.9,103.5,69.6,103.5z"/><path d="M100.5,68.1c-0.8,0-1.5-0.7-1.5-1.5v-6.3c0-0.8,0.7-1.5,1.5-1.5s1.5,0.7,1.5,1.5v6.3C102,67.5,101.3,68.1,100.5,68.1z"/><path d="M100.5,69.1c-1.4,0-2.5-1.1-2.5-2.5v-6.3c0-1.4,1.1-2.5,2.5-2.5s2.5,1.1,2.5,2.5v6.3C103,68,101.9,69.1,100.5,69.1z	 M100.5,59.8c-0.3,0-0.5,0.2-0.5,0.5v6.3c0,0.3,0.2,0.5,0.5,0.5s0.5-0.2,0.5-0.5v-6.3C101,60,100.8,59.8,100.5,59.8z"/><path d="M100.5,46.3c-0.8,0-1.5-0.7-1.5-1.5v-6.3c0-0.8,0.7-1.5,1.5-1.5s1.5,0.7,1.5,1.5v6.3C102,45.6,101.3,46.3,100.5,46.3z"/><path d="M100.5,47.3c-1.4,0-2.5-1.1-2.5-2.5v-6.3c0-1.4,1.1-2.5,2.5-2.5s2.5,1.1,2.5,2.5v6.3C103,46.2,101.9,47.3,100.5,47.3z	 M100.5,38c-0.3,0-0.5,0.2-0.5,0.5v6.3c0,0.3,0.2,0.5,0.5,0.5s0.5-0.2,0.5-0.5v-6.3C101,38.2,100.8,38,100.5,38z"/><path d="M100.5,90c-0.8,0-1.5-0.7-1.5-1.5v-6.3c0-0.8,0.7-1.5,1.5-1.5s1.5,0.7,1.5,1.5v6.3C102,89.3,101.3,90,100.5,90z"/><path d="M100.5,91c-1.4,0-2.5-1.1-2.5-2.5v-6.3c0-1.4,1.1-2.5,2.5-2.5s2.5,1.1,2.5,2.5v6.3C103,89.8,101.9,91,100.5,91z	 M100.5,81.6c-0.3,0-0.5,0.2-0.5,0.5v6.3c0,0.3,0.2,0.5,0.5,0.5s0.5-0.2,0.5-0.5v-6.3C101,81.9,100.8,81.6,100.5,81.6z"/><path d="M100.5,111.8c-0.8,0-1.5-0.7-1.5-1.5V104c0-0.8,0.7-1.5,1.5-1.5s1.5,0.7,1.5,1.5v6.3C102,111.1,101.3,111.8,100.5,111.8z"	/><path d="M100.5,112.8c-1.4,0-2.5-1.1-2.5-2.5V104c0-1.4,1.1-2.5,2.5-2.5s2.5,1.1,2.5,2.5v6.3C103,111.7,101.9,112.8,100.5,112.8z	 M100.5,103.5c-0.3,0-0.5,0.2-0.5,0.5v6.3c0,0.3,0.2,0.5,0.5,0.5s0.5-0.2,0.5-0.5V104C101,103.7,100.8,103.5,100.5,103.5z"/></svg>