<svg xmlns="http://www.w3.org/2000/svg" viewBox="0 0 128 128"><title>bell-lg</title><path d="M99.8,46.1H26.7c-0.8,0-1.5-0.7-1.5-1.5v-7.3c0-0.6,0.3-1.1,0.9-1.4l4.1-2C30.7,16.2,45.3,1.8,63.3,1.8	S95.9,16.2,96.4,34l4.1,2c0.5,0.3,0.9,0.8,0.9,1.4v7.3C101.4,45.5,100.7,46.1,99.8,46.1z M28.3,43.1h70.1v-4.8l-4.1-2	c-0.5-0.3-0.9-0.8-0.9-1.4c0-16.6-13.5-30.1-30.1-30.1S33.2,18.4,33.2,34.9c0,0.6-0.3,1.1-0.9,1.4l-4.1,2V43.1z"/><path d="M99.8,47.1H26.7c-1.4,0-2.5-1.1-2.5-2.5v-7.3c0-1,0.6-1.8,1.4-2.3l3.6-1.7c0.8-18,16-32.5,34.1-32.5s33.3,14.5,34.1,32.5	l3.6,1.7c0.9,0.4,1.4,1.3,1.4,2.3v7.3C102.4,46,101.2,47.1,99.8,47.1z M63.3,2.8c-17.2,0-31.6,14-32.1,31.2l0,0.6l-4.6,2.3	c-0.2,0.1-0.3,0.3-0.3,0.5v7.3c0,0.3,0.2,0.5,0.5,0.5h73.1c0.3,0,0.5-0.2,0.5-0.5v-7.3c0-0.2-0.1-0.4-0.3-0.5l-4.6-2.3l0-0.6	C94.9,16.8,80.5,2.8,63.3,2.8z M99.3,44.1H27.3v-6.4l4.6-2.3c0.2-0.1,0.3-0.3,0.3-0.5c0-17.1,14-31.1,31.1-31.1	c17.1,0,31.1,13.9,31.1,31.1c0,0.2,0.1,0.4,0.3,0.5l4.6,2.3V44.1z M29.3,42.1h68.1v-3.2l-3.5-1.7c-0.9-0.4-1.4-1.3-1.4-2.3	c0-16-13.1-29.1-29.1-29.1S34.2,18.9,34.2,34.9c0,1-0.6,1.8-1.4,2.3l-3.5,1.7V42.1z"/>	<path d="M69.4,27.1c-0.8,0-1.5-0.7-1.5-1.5V4.4c0-0.8,0.7-1.5,1.5-1.5s1.5,0.7,1.5,1.5v21.2C70.9,26.5,70.2,27.1,69.4,27.1z"/>	<path d="M69.4,28.1c-1.4,0-2.5-1.1-2.5-2.5V4.4c0-1.4,1.1-2.5,2.5-2.5c1.4,0,2.5,1.1,2.5,2.5v21.2C71.9,27,70.7,28.1,69.4,28.1z		 M69.4,3.9c-0.3,0-0.5,0.2-0.5,0.5v21.2c0,0.3,0.2,0.5,0.5,0.5c0.3,0,0.5-0.2,0.5-0.5V4.4C69.9,4.1,69.6,3.9,69.4,3.9z"/>	<path d="M57.2,27.1c-0.8,0-1.5-0.7-1.5-1.5V4.4c0-0.8,0.7-1.5,1.5-1.5s1.5,0.7,1.5,1.5v21.2C58.7,26.5,58.1,27.1,57.2,27.1z"/>	<path d="M57.2,28.1c-1.4,0-2.5-1.1-2.5-2.5V4.4c0-1.4,1.1-2.5,2.5-2.5s2.5,1.1,2.5,2.5v21.2C59.7,27,58.6,28.1,57.2,28.1z		 M57.2,3.9c-0.3,0-0.5,0.2-0.5,0.5v21.2c0,0.3,0.2,0.5,0.5,0.5s0.5-0.2,0.5-0.5V4.4C57.7,4.1,57.5,3.9,57.2,3.9z"/><path d="M23.3,126.2c-0.8,0-1.5-0.7-1.5-1.5V96c0-0.8,0.7-1.5,1.5-1.5s1.5,0.7,1.5,1.5v28.6C24.8,125.5,24.1,126.2,23.3,126.2z"	/><path d="M23.3,127.2c-1.4,0-2.5-1.1-2.5-2.5V96c0-1.4,1.1-2.5,2.5-2.5s2.5,1.1,2.5,2.5v28.6C25.8,126.1,24.6,127.2,23.3,127.2z	 M23.3,95.5c-0.3,0-0.5,0.2-0.5,0.5v28.6c0,0.3,0.2,0.5,0.5,0.5s0.5-0.2,0.5-0.5V96C23.8,95.7,23.5,95.5,23.3,95.5z"/><path d="M104.7,126.2c-0.8,0-1.5-0.7-1.5-1.5V96.4c0-0.8,0.7-1.5,1.5-1.5s1.5,0.7,1.5,1.5v28.3	C106.2,125.5,105.6,126.2,104.7,126.2z"/><path d="M104.7,127.2c-1.4,0-2.5-1.1-2.5-2.5V96.4c0-1.4,1.1-2.5,2.5-2.5c1.4,0,2.5,1.1,2.5,2.5v28.3	C107.2,126.1,106.1,127.2,104.7,127.2z M104.7,95.9c-0.3,0-0.5,0.2-0.5,0.5v28.3c0,0.3,0.2,0.5,0.5,0.5c0.3,0,0.5-0.2,0.5-0.5	V96.4C105.2,96.1,105,95.9,104.7,95.9z"/><path d="M87.5,116.9h-47c-0.8,0-1.5-0.7-1.5-1.5V87c0-0.8,0.7-1.5,1.5-1.5S42,86.2,42,87v26.9h44V87.5c0-0.8,0.7-1.5,1.5-1.5s1.5,0.7,1.5,1.5v27.9C89,116.3,88.3,116.9,87.5,116.9z"/><path d="M87.5,117.9h-47c-1.4,0-2.5-1.1-2.5-2.5V87c0-1.4,1.1-2.5,2.5-2.5S43,85.7,43,87v25.9h42V87.5c0-1.4,1.1-2.5,2.5-2.5c1.4,0,2.5,1.1,2.5,2.5v27.9C90,116.8,88.9,117.9,87.5,117.9z M40.5,86.5c-0.3,0-0.5,0.2-0.5,0.5v28.4c0,0.3,0.2,0.5,0.5,0.5h47c0.3,0,0.5-0.2,0.5-0.5V87.5c0-0.3-0.2-0.5-0.5-0.5c-0.3,0-0.5,0.2-0.5,0.5v27.4H41V87C41,86.8,40.8,86.5,40.5,86.5z"/><path d="M124.6,126.1c-0.7,0-1.4-0.5-1.5-1.3l-3.1-18.9L81.9,86.4c-0.7-0.4-1-1.3-0.7-2c0.4-0.7,1.3-1,2-0.7l39.5,20.3l3.3,20.4	c0.1,0.8-0.4,1.6-1.3,1.7C124.8,126.1,124.7,126.1,124.6,126.1z"/><path d="M124.6,127.1c-1.2,0-2.3-0.9-2.5-2.1l-3-18.4L81.5,87.3c-1.2-0.6-1.7-2.2-1.1-3.4c0.3-0.6,0.8-1,1.5-1.2	c0.6-0.2,1.3-0.1,1.9,0.2l40,20.6l3.4,20.9c0.1,0.7,0,1.3-0.4,1.9c-0.4,0.5-1,0.9-1.6,1C124.9,127.1,124.8,127.1,124.6,127.1z	 M82.6,84.5c-0.1,0-0.1,0-0.2,0c-0.1,0-0.2,0.1-0.3,0.3c-0.1,0.3,0,0.6,0.2,0.7l38.6,19.9l3.1,19.4c0,0.3,0.3,0.5,0.6,0.4	c0.1,0,0.3-0.1,0.3-0.2c0.1-0.1,0.1-0.2,0.1-0.4l-3.2-19.9L82.8,84.6C82.8,84.5,82.7,84.5,82.6,84.5z"/><path d="M3.4,126.1c-0.1,0-0.2,0-0.2,0c-0.8-0.1-1.4-0.9-1.3-1.7L5.1,104L43,83.7c0.7-0.4,1.7-0.1,2.1,0.6	c0.4,0.7,0.1,1.7-0.6,2.1L7.9,106l-3,18.9C4.7,125.6,4.1,126.1,3.4,126.1z"/><path d="M3.4,127.1c-0.1,0-0.3,0-0.4,0c-1.4-0.2-2.3-1.5-2.1-2.9l3.3-20.8l0.4-0.2l37.9-20.3c1.2-0.7,2.8-0.2,3.4,1	c0.3,0.6,0.4,1.3,0.2,1.9c-0.2,0.6-0.6,1.2-1.2,1.5L8.8,106.6L5.8,125C5.6,126.2,4.6,127.1,3.4,127.1z M6,104.7l-3.2,19.9	c0,0.3,0.1,0.5,0.4,0.6l0.1,0c0.2,0,0.5-0.2,0.5-0.4L7,105.3l0.4-0.2L44,85.5c0.1-0.1,0.2-0.2,0.3-0.3c0-0.1,0-0.3,0-0.4	c-0.1-0.3-0.4-0.3-0.7-0.2L6,104.7z"/><path d="M63.3,82.1c-12.4,0-23.4-9.7-27.1-23.6c-2.4-0.6-4-2.4-4.5-5l-1.6-8.6c-0.1-0.8,0.4-1.6,1.2-1.8c0.8-0.1,1.6,0.4,1.8,1.2l1.5,8.6c0.5,2.4,2.3,2.6,3,2.7l1.1,0.1l0.2,1C42,69.9,52,79.1,63.3,79.1c11.3,0,21.3-9.2,24.4-22.3l0.2-1l1.1-0.1c0.6-0.1,2.5-0.3,3-2.7l1.6-8.6c0.1-0.8,0.9-1.4,1.8-1.2c0.8,0.1,1.4,0.9,1.2,1.8L95,53.5c-0.5,2.6-2.1,4.4-4.5,5C86.7,72.4,75.7,82.1,63.3,82.1z"/><path d="M63.3,83.1L63.3,83.1c-12.6,0-24-9.8-28-23.8c-2.5-0.8-4.2-2.8-4.7-5.6l-1.6-8.7c-0.2-1.4,0.7-2.7,2-2.9c1.4-0.2,2.7,0.7,2.9,2l1.5,8.6c0.3,1.5,1.2,1.8,2.1,1.9l1.8,0.2l0.4,1.7c3,12.6,12.7,21.5,23.5,21.5c10.8,0,20.5-8.8,23.5-21.5l0.4-1.7l1.8-0.2c0.9-0.1,1.8-0.4,2.1-1.9l1.6-8.6c0.2-1.4,1.6-2.3,2.9-2c1.4,0.2,2.3,1.6,2,2.9L96,53.7c-0.5,2.8-2.3,4.8-4.7,5.6C87.3,73.3,75.9,83.1,63.3,83.1z M31.5,44.1C31.5,44.1,31.5,44.1,31.5,44.1c-0.4,0.1-0.6,0.3-0.5,0.6l1.6,8.6c0.4,2.2,1.8,3.6,3.8,4.2l0.6,0.1l0.2,0.6c3.6,13.5,14.3,22.9,26.2,22.9c11.8,0,22.6-9.4,26.2-22.9l0.2-0.6l0.6-0.1c2.1-0.5,3.4-2,3.8-4.2l1.6-8.6c0.1-0.3-0.1-0.5-0.4-0.6c-0.3-0.1-0.5,0.1-0.6,0.4L93,53.1c-0.3,1.5-1.2,3.3-3.8,3.5l-0.4,0l-0.1,0.4c-3.2,13.5-13.7,23-25.4,23c-11.7,0-22.2-9.5-25.4-23l-0.1-0.4l-0.4,0c-2.7-0.3-3.5-2-3.8-3.5l-1.5-8.6C32,44.3,31.8,44.1,31.5,44.1z"/></svg>