<svg id="Layer_1" data-name="Layer 1" xmlns="http://www.w3.org/2000/svg" viewBox="0 0 128 128"><title>builder_powerline-lg</title><path d="M53.72,58.45h.16a1.4,1.4,0,0,0,.58-.12A4.77,4.77,0,0,0,57,60C59.92,70.81,68.5,78.26,78.14,78.27S96.36,70.81,99.29,60a5,5,0,0,0,3.56-4l1-5.39h2.45a1.5,1.5,0,0,0,1.5-1.5V43.5a1.48,1.48,0,0,0-.84-1.35l-3-1.45a25.82,25.82,0,0,0-51.33-3A147.29,147.29,0,0,1,31.28,33.9V30.27h5.16a1.5,1.5,0,0,0,0-3H21V17.34a1.5,1.5,0,1,0-3,0v9.93H2.65a1.5,1.5,0,1,0,0,3H8.43V35a1.5,1.5,0,0,0,3,0V30.27H18V44.84H2.65a1.5,1.5,0,1,0,0,3H8.43v4.75a1.5,1.5,0,0,0,3,0V47.84H18v62.84a1.5,1.5,0,0,0,3,0V47.84h7.24v4.75h0A1.26,1.26,0,0,0,29.16,54l.06,0a38.43,38.43,0,0,0,6.22,1.58A182.91,182.91,0,0,0,53.72,58.45Zm46.18-3a2,2,0,0,1-2,1.81,1.51,1.51,0,0,0-1.31,1.15c-2.35,9.92-10,16.86-18.47,16.87S62,68.32,59.66,58.4a1.51,1.51,0,0,0-1.31-1.15,2,2,0,0,1-2-1.78l-.86-4.87h45.24ZM54.47,43a1.48,1.48,0,0,0,.84-1.35A22.85,22.85,0,0,1,72,19.68V34.46a1.5,1.5,0,1,0,3,0V19.05a21.89,21.89,0,0,1,6.33,0V34.46a1.5,1.5,0,0,0,3,0V19.68a22.85,22.85,0,0,1,16.66,22,1.49,1.49,0,0,0,.85,1.35l3,1.44V47.6H51.51V44.43Zm-18,1.85H21V30.27h7.24V35h0a1.26,1.26,0,0,0,.88,1.35l.06,0A39.16,39.16,0,0,0,35.44,38c3.48.75,9.15,1.81,16.85,2.72l-2.93,1.43a1.49,1.49,0,0,0-.85,1.35v5.6A1.5,1.5,0,0,0,50,50.6h2.46l.85,4.78a147.52,147.52,0,0,1-22-3.92V47.84h5.16a1.5,1.5,0,0,0,0-3Z"/><path d="M126.83,110.41l-2.45-15.1a1.5,1.5,0,0,0-.8-1.09L93.69,78.85a1.5,1.5,0,0,0-1.37,2.67L95.25,83v19H62.09V82.42l1.7-.91a1.5,1.5,0,0,0-1.41-2.65L33.73,94.23A1.51,1.51,0,0,0,33,95.32l-2.42,15.09a1.5,1.5,0,0,0,1.25,1.72l.23,0a1.5,1.5,0,0,0,1.48-1.27l2.31-14.36,10-5.38v19.54a1.5,1.5,0,0,0,3,0V89.53L59.09,84v19.53a1.5,1.5,0,0,0,1.5,1.5H96.75a1.5,1.5,0,0,0,1.5-1.5v-19l10.26,5.27v20.84a1.5,1.5,0,0,0,3,0V91.39l10,5.15,2.33,14.35a1.49,1.49,0,0,0,1.47,1.26l.25,0A1.51,1.51,0,0,0,126.83,110.41Z"/></svg>