<svg xmlns="http://www.w3.org/2000/svg" viewBox="0 0 128 128"><title>bell-lg</title><path d="M115.8,126.7c-0.8,0-1.5-0.7-1.5-1.5V25.5H85.2c-0.8,0-1.5-0.7-1.5-1.5s0.7-1.5,1.5-1.5h30.6c0.8,0,1.5,0.7,1.5,1.5v101.2C117.3,126,116.6,126.7,115.8,126.7z"/><path d="M124.9,126.7H3.1c-0.8,0-1.5-0.7-1.5-1.5s0.7-1.5,1.5-1.5h121.7c0.8,0,1.5,0.7,1.5,1.5S125.7,126.7,124.9,126.7z"/><path d="M85.2,126.7c-0.8,0-1.5-0.7-1.5-1.5V4.3H13.2v120.9c0,0.8-0.7,1.5-1.5,1.5s-1.5-0.7-1.5-1.5V2.8c0-0.8,0.7-1.5,1.5-1.5h73.6c0.8,0,1.5,0.7,1.5,1.5v122.4C86.7,126,86,126.7,85.2,126.7z"/><path d="M56.1,126.7c-0.8,0-1.5-0.7-1.5-1.5v-24.6H42.3v24.6c0,0.8-0.7,1.5-1.5,1.5s-1.5-0.7-1.5-1.5V99.1c0-0.8,0.7-1.5,1.5-1.5h15.3c0.8,0,1.5,0.7,1.5,1.5v26.1C57.6,126,56.9,126.7,56.1,126.7z"/><path d="M26.6,24.5c-0.8,0-1.5-0.7-1.5-1.5v-6.3c0-0.8,0.7-1.5,1.5-1.5s1.5,0.7,1.5,1.5V23C28.1,23.8,27.4,24.5,26.6,24.5z"/><path d="M26.6,68.1c-0.8,0-1.5-0.7-1.5-1.5v-6.3c0-0.8,0.7-1.5,1.5-1.5s1.5,0.7,1.5,1.5v6.3C28.1,67.5,27.4,68.1,26.6,68.1z"/><path d="M26.6,46.3c-0.8,0-1.5-0.7-1.5-1.5v-6.3c0-0.8,0.7-1.5,1.5-1.5s1.5,0.7,1.5,1.5v6.3C28.1,45.6,27.4,46.3,26.6,46.3z"/><path d="M26.6,90c-0.8,0-1.5-0.7-1.5-1.5v-6.3c0-0.8,0.7-1.5,1.5-1.5s1.5,0.7,1.5,1.5v6.3C28.1,89.3,27.4,90,26.6,90z"/><path d="M26.6,111.8c-0.8,0-1.5-0.7-1.5-1.5V104c0-0.8,0.7-1.5,1.5-1.5s1.5,0.7,1.5,1.5v6.3C28.1,111.1,27.4,111.8,26.6,111.8z"/><path d="M48.1,24.5c-0.8,0-1.5-0.7-1.5-1.5v-6.3c0-0.8,0.7-1.5,1.5-1.5s1.5,0.7,1.5,1.5V23C49.6,23.8,48.9,24.5,48.1,24.5z"/><path d="M48.1,68.1c-0.8,0-1.5-0.7-1.5-1.5v-6.3c0-0.8,0.7-1.5,1.5-1.5s1.5,0.7,1.5,1.5v6.3C49.6,67.5,48.9,68.1,48.1,68.1z"/><path d="M48.1,46.3c-0.8,0-1.5-0.7-1.5-1.5v-6.3c0-0.8,0.7-1.5,1.5-1.5s1.5,0.7,1.5,1.5v6.3C49.6,45.6,48.9,46.3,48.1,46.3z"/><path d="M48.1,90c-0.8,0-1.5-0.7-1.5-1.5v-6.3c0-0.8,0.7-1.5,1.5-1.5s1.5,0.7,1.5,1.5v6.3C49.6,89.3,48.9,90,48.1,90z"/><path d="M69.6,24.5c-0.8,0-1.5-0.7-1.5-1.5v-6.3c0-0.8,0.7-1.5,1.5-1.5s1.5,0.7,1.5,1.5V23C71.1,23.8,70.4,24.5,69.6,24.5z"/><path d="M69.6,68.1c-0.8,0-1.5-0.7-1.5-1.5v-6.3c0-0.8,0.7-1.5,1.5-1.5s1.5,0.7,1.5,1.5v6.3C71.1,67.5,70.4,68.1,69.6,68.1z"/><path d="M69.6,46.3c-0.8,0-1.5-0.7-1.5-1.5v-6.3c0-0.8,0.7-1.5,1.5-1.5s1.5,0.7,1.5,1.5v6.3C71.1,45.6,70.4,46.3,69.6,46.3z"/><path d="M69.6,90c-0.8,0-1.5-0.7-1.5-1.5v-6.3c0-0.8,0.7-1.5,1.5-1.5s1.5,0.7,1.5,1.5v6.3C71.1,89.3,70.4,90,69.6,90z"/><path d="M69.6,111.8c-0.8,0-1.5-0.7-1.5-1.5V104c0-0.8,0.7-1.5,1.5-1.5s1.5,0.7,1.5,1.5v6.3C71.1,111.1,70.4,111.8,69.6,111.8z"/><path d="M100.5,68.1c-0.8,0-1.5-0.7-1.5-1.5v-6.3c0-0.8,0.7-1.5,1.5-1.5s1.5,0.7,1.5,1.5v6.3C102,67.5,101.3,68.1,100.5,68.1z"/><path d="M100.5,46.3c-0.8,0-1.5-0.7-1.5-1.5v-6.3c0-0.8,0.7-1.5,1.5-1.5s1.5,0.7,1.5,1.5v6.3C102,45.6,101.3,46.3,100.5,46.3z"/><path d="M100.5,90c-0.8,0-1.5-0.7-1.5-1.5v-6.3c0-0.8,0.7-1.5,1.5-1.5s1.5,0.7,1.5,1.5v6.3C102,89.3,101.3,90,100.5,90z"/><path d="M100.5,111.8c-0.8,0-1.5-0.7-1.5-1.5V104c0-0.8,0.7-1.5,1.5-1.5s1.5,0.7,1.5,1.5v6.3C102,111.1,101.3,111.8,100.5,111.8z"/></svg>