<svg xmlns="http://www.w3.org/2000/svg" viewBox="0 0 128 128"><title>build</title><path d="M124,61.21a1,1,0,0,0,0-.28s0-.06,0-.09,0,0,0,0a2.55,2.55,0,0,0-.13-.29l0,0a1.12,1.12,0,0,0-.19-.24l-.07-.07a1.08,1.08,0,0,0-.24-.18l0,0-.05,0h0L111.1,53.09c5.55-2.63,5.55-4.29,5.55-5.36,0-6-12.72-13.82-24.92-19.27l1.37-4a1.43,1.43,0,0,1,.47-.54l6.12-3.06h.1c3.5,0,19.84-.35,23.36-6.74.8-1.47,1.31-3.92-.87-7.26-1.8-2.76-4.06-4.11-6.74-4.07C107.88,3,99.93,15.46,98.27,18.21l-6,3a4.32,4.32,0,0,0-2,2.25L89,27.26c-7.61-3.2-14.61-5.33-17.66-5.33-6.08,0-20.14,18.57-30.1,32.9L5.4,64.81l0,0A1.37,1.37,0,0,0,5,65l0,0a1.64,1.64,0,0,0-.3.29l-.06.08-.07.09a1.43,1.43,0,0,0-.13.28h0a1.25,1.25,0,0,0-.07.43s0,0,0,0V101.9a1.52,1.52,0,0,0,.75,1.3l35.44,20.49.06,0,.24.11.1,0a1.34,1.34,0,0,0,.35,0,1.76,1.76,0,0,0,.4-.06h0L123,98.16a1.49,1.49,0,0,0,1-1.43V61.26A.43.43,0,0,0,124,61.21ZM115.61,5.79h.1c1.54,0,2.87.88,4.06,2.71,1.65,2.53,1,3.77.75,4.17-1.9,3.45-11.39,4.9-18.44,5.15C105.19,13.17,111,5.89,115.61,5.79ZM71.31,24.93c2.92,0,9.52,2.1,16.68,5.18l-1.55,4.51a1.59,1.59,0,0,1-.51.61L60.44,49.52a1.49,1.49,0,0,0,.73,2.8,1.47,1.47,0,0,0,.73-.19L87.4,37.85a4.49,4.49,0,0,0,1.88-2.26l1.46-4.27c1.68.77,3.36,1.57,5,2.41,13.22,6.68,17.9,11.72,17.91,14,0,.09-.58,2.13-12.66,6C94.11,55.93,84.63,58.39,72.8,61c-15.27,3.42-30.58,6.27-37.19,7.47,2.39-3.66,5-7.53,7.69-11.39a1.36,1.36,0,0,0,.23-.32C54.74,40.74,67.25,24.93,71.31,24.93ZM31.21,69.79a1.47,1.47,0,0,0,0,1.63,1.49,1.49,0,0,0,1.25.68,1.07,1.07,0,0,0,.25,0c.08,0,2.91-.5,7.47-1.35l8.19,5.46a1.43,1.43,0,0,0,.83.26A1.5,1.5,0,0,0,50,73.69l-5.63-3.76c4-.76,8.78-1.69,13.94-2.74l5,3.32a1.52,1.52,0,0,0,.84.25,1.46,1.46,0,0,0,1.24-.67A1.5,1.5,0,0,0,65,68l-2.51-1.67c3.8-.79,7.73-1.64,11.66-2.52L76,63.41l4.14,2.76a1.52,1.52,0,0,0,.83.25,1.48,1.48,0,0,0,1.25-.67,1.5,1.5,0,0,0-.41-2.08L80,62.48c5-1.19,9.35-2.29,13.09-3.31l2,1.33a1.47,1.47,0,0,0,.83.25,1.5,1.5,0,0,0,1-2.64c4.55-1.32,8.06-2.49,10.76-3.54l11.21,6.31L41.42,85.63,9.59,66.76l29-8.08C35.17,63.66,32.51,67.75,31.21,69.79ZM7.3,68.89,39.74,88.12v31.67L7.3,101Zm35.44,51.45v-32l78.31-25V95.63Z"/></svg>