<svg id="Layer_1" data-name="Layer 1" xmlns="http://www.w3.org/2000/svg" viewBox="0 0 64 64"><title>bulb-md</title><path d="M10.19,63A9.19,9.19,0,0,1,3.7,47.32L7.06,44h0l2.58-2.59a1,1,0,0,1,.43-.25,6.73,6.73,0,0,1,1.84-3.37l1-1a11.32,11.32,0,0,0,3.3-7.47,17.77,17.77,0,1,1,18.5,18.52,11.26,11.26,0,0,0-7.46,3.29l-1,1A6.82,6.82,0,0,1,22.88,54a.91.91,0,0,1-.24.41h0l-5.94,5.94A9.18,9.18,0,0,1,10.19,63ZM7.76,46.09,5.11,48.74A7.18,7.18,0,0,0,15.27,58.9l2.65-2.65Zm1.42-1.42L19.34,54.83l1.17-1.17-7-7,0,0,0,0L10.35,43.5Zm10.31,5.14,2.27,2.28a4.75,4.75,0,0,0,3.08-1.41l1-1a13.25,13.25,0,0,1,8.79-3.88A15.78,15.78,0,1,0,18.17,29.41a13.25,13.25,0,0,1-3.88,8.8l-1,1a4.84,4.84,0,0,0-1.41,3.08l2.28,2.27L26,32.72a1,1,0,0,1,1.41,0,1,1,0,0,1,0,1.42l-11.8,11.8,2.46,2.46L29.88,36.6A1,1,0,1,1,31.29,38ZM32.42,59a1,1,0,0,1-1-1V52.19a1,1,0,0,1,2,0V58A1,1,0,0,1,32.42,59ZM53.31,51.3a1,1,0,0,1-.7-.29l-4.09-4.09a1,1,0,0,1,0-1.42,1,1,0,0,1,1.41,0L54,49.59A1,1,0,0,1,54,51,1,1,0,0,1,53.31,51.3ZM39.6,37a1,1,0,0,1-1-1V33.16H35.73a1,1,0,0,1-.71-.29,1,1,0,0,1-.29-.71V29.28H31.85a1,1,0,0,1-1-1V25.41H28a1,1,0,0,1,0-2h3.87a1,1,0,0,1,1,1v2.87h2.88a1,1,0,0,1,1,1v2.88H39.6a1,1,0,0,1,1,1V36A1,1,0,0,1,39.6,37ZM62,31.31H56.2a1,1,0,0,1,0-2H62a1,1,0,0,1,0,2Zm-50.22,0H6a1,1,0,0,1,0-2h5.79a1,1,0,0,1,0,2ZM17,16.75a1,1,0,0,1-.7-.29l-4.1-4.1a1,1,0,0,1,0-1.42,1,1,0,0,1,1.41,0l4.1,4.1A1,1,0,0,1,17,16.75Zm32.29-1.88a1,1,0,0,1-.71-1.71l4-4.05a1,1,0,0,1,1.42,0,1,1,0,0,1,0,1.41l-4,4.05A1,1,0,0,1,49.24,14.87Zm-16.82-6a1,1,0,0,1-1-1V2a1,1,0,0,1,2,0V7.86A1,1,0,0,1,32.42,8.86Z"/></svg>