<svg xmlns="http://www.w3.org/2000/svg" viewBox="0 0 128 128"><title>bulb-lg</title><path d="M99.68,28a1.49,1.49,0,0,0,1.06-.44l8.39-8.39A1.5,1.5,0,1,0,107,17l-8.38,8.39a1.51,1.51,0,0,0,0,2.12A1.53,1.53,0,0,0,99.68,28Z"/><path d="M64.87,15.53a1.5,1.5,0,0,0,1.5-1.5V1.91a1.5,1.5,0,0,0-3,0V14A1.5,1.5,0,0,0,64.87,15.53Z"/><path d="M31.8,31.43a1.53,1.53,0,0,0,1.06.44,1.5,1.5,0,0,0,1.06-2.56l-8.48-8.49a1.5,1.5,0,0,0-2.12,2.12Z"/><path d="M126.06,59h-12a1.5,1.5,0,0,0,0,3h12a1.5,1.5,0,0,0,0-3Z"/><path d="M100.72,92.35a1.5,1.5,0,0,0-2.13,2.12l8.46,8.46a1.51,1.51,0,0,0,2.13,0,1.51,1.51,0,0,0,0-2.12Z"/><path d="M79.74,62.82H73.22V56.3a1.5,1.5,0,0,0-1.5-1.5H65.2V48.28a1.5,1.5,0,0,0-1.5-1.5h-8a1.5,1.5,0,0,0,0,3H62.2V56.3a1.5,1.5,0,0,0,1.5,1.5h6.52v6.53a1.53,1.53,0,0,0,.44,1.06,1.5,1.5,0,0,0,1.06.44h6.52v6.52a1.5,1.5,0,0,0,3,0v-8a1.53,1.53,0,0,0-.44-1.06A1.5,1.5,0,0,0,79.74,62.82Z"/><path d="M93.62,34.41a36.22,36.22,0,0,0-61.8,24.08,23.91,23.91,0,0,1-7,15.83l-2,2a13.49,13.49,0,0,0-3.75,7.08,1.45,1.45,0,0,0-1,.42L5.84,96.11a18.44,18.44,0,0,0,26.07,26.08l12.3-12.3a1.55,1.55,0,0,0,.42-1,13.55,13.55,0,0,0,7.08-3.74l2-2a23.91,23.91,0,0,1,15.83-7A36.22,36.22,0,0,0,93.62,34.41ZM26.1,93.9h0l14.82,14.81h0l.1.11-3.22,3.23L16,90.23,19.19,87Zm3.69,26.17A15.44,15.44,0,0,1,8,98.24l5.89-5.89,21.83,21.83ZM91.5,83.5a33.13,33.13,0,0,1-22.1,9.71,26.89,26.89,0,0,0-17.82,7.86l-2,2a10.47,10.47,0,0,1-7,3.09l-5.28-5.29L62.13,76a1.49,1.49,0,0,0,0-2.12,1.51,1.51,0,0,0-2.12,0L35.18,98.74l-5.9-5.9L54.11,68a1.49,1.49,0,0,0,0-2.12,1.51,1.51,0,0,0-2.12,0L27.16,90.72l-5.28-5.28a10.5,10.5,0,0,1,3.08-7l2-2a26.92,26.92,0,0,0,7.86-17.82A33.21,33.21,0,1,1,91.5,83.5Z"/><path d="M10.16,62h12a1.5,1.5,0,0,0,0-3h-12a1.5,1.5,0,1,0,0,3Z"/><path d="M64.87,104.29a1.5,1.5,0,0,0-1.5,1.5v12a1.5,1.5,0,1,0,3,0v-12A1.5,1.5,0,0,0,64.87,104.29Z"/></svg>