<svg xmlns="http://www.w3.org/2000/svg" viewBox="0 0 128 128"><title>buses</title><path d="M117.21,6.8a4,4,0,0,1,4,4V117.21a4,4,0,0,1-4,4H10.79a4,4,0,0,1-4-4V10.79a4,4,0,0,1,4-4H117.21m0-4H10.79a8,8,0,0,0-8,8V117.21a8,8,0,0,0,8,8H117.21a8,8,0,0,0,8-8V10.79a8,8,0,0,0-8-8Z"/><path d="M93.34,46.55V38.07a2.91,2.91,0,0,0-1.9-2.72c-4.54-1.7-16.52-5.74-27.35-5.74s-22.94,4-27.53,5.74a2.91,2.91,0,0,0-1.9,2.73v8.47A2.46,2.46,0,0,0,32.2,49v7.54A2.47,2.47,0,0,0,34.66,59V88.3a2.91,2.91,0,0,0,2.92,2.91h3.18v4.37a2.81,2.81,0,0,0,2.81,2.81h1.56a2.8,2.8,0,0,0,2.8-2.81V91.21H80.07v4.37a2.8,2.8,0,0,0,2.8,2.81h1.56a2.81,2.81,0,0,0,2.81-2.81V91.21h3.18a2.91,2.91,0,0,0,2.92-2.91V59a2.47,2.47,0,0,0,2.46-2.47V49A2.46,2.46,0,0,0,93.34,46.55ZM52.72,37.09H75.28a2.36,2.36,0,1,1,0,4.71H52.72a2.36,2.36,0,1,1,0-4.71ZM44.35,85.7a3.59,3.59,0,1,1,3.58-3.58A3.58,3.58,0,0,1,44.35,85.7Zm39.3,0a3.59,3.59,0,1,1,3.59-3.58A3.58,3.58,0,0,1,83.65,85.7Zm3.59-16.23a2.35,2.35,0,0,1-2.35,2.36H43.11a2.35,2.35,0,0,1-2.35-2.36V48.91a2.36,2.36,0,0,1,2.35-2.36H84.89a2.36,2.36,0,0,1,2.35,2.36Z"/></svg>