<?xml version="1.0" encoding="utf-8"?>
<!-- Generator: Adobe Illustrator 23.0.3, SVG Export Plug-In . SVG Version: 6.00 Build 0)  -->
<svg version="1.1" id="Layer_1" xmlns="http://www.w3.org/2000/svg" xmlns:xlink="http://www.w3.org/1999/xlink" x="0px" y="0px"
	 viewBox="0 0 128 128" style="enable-background:new 0 0 128 128;" xml:space="preserve">
<title>personal-lg</title>
<g>
	<path d="M63.8,78.7c-12.3,0-23.2-9.6-26.9-23.4c-2.4-0.6-4-2.3-4.5-4.9L31.3,44c-0.4-2.5-0.1-4.5,1.1-6c1-1.3,2.7-2.1,4.7-2.2
		c0.8,0,1.5,0.6,1.6,1.4c0,0.8-0.6,1.5-1.4,1.6c-0.6,0-1.8,0.2-2.4,1c-0.6,0.8-0.8,2-0.5,3.6l1.1,6.4c0.5,2.4,2.3,2.6,2.9,2.7
		c0.6,0.1,1.2,0.5,1.3,1.1c3.1,13,13,22,24.2,22c11.2,0,21.1-9.1,24.2-22c0.1-0.6,0.7-1.1,1.3-1.1c0.6-0.1,2.4-0.3,2.9-2.7l1.1-6.3
		c0.3-1.6,0.1-2.8-0.5-3.6c-0.7-0.8-1.8-1-2.5-1c-0.8,0-1.5-0.7-1.4-1.6c0-0.8,0.7-1.5,1.6-1.4c2,0.1,3.6,0.9,4.7,2.2
		c1.2,1.5,1.5,3.5,1.1,6l-1.1,6.4c-0.5,2.6-2.1,4.3-4.5,4.9C87,69.1,76.1,78.6,63.8,78.7z"/>
	<g>
		<path d="M124,125.5c-0.7,0-1.4-0.5-1.5-1.3l-3-18.7L85.8,88.4c-0.7-0.4-1-1.3-0.7-2c0.4-0.7,1.3-1,2-0.7l34.3,17.5
			c0.4,0.2,0.7,0.6,0.8,1.1l3.1,19.4c0.1,0.8-0.4,1.6-1.2,1.7C124.2,125.5,124.1,125.5,124,125.5z"/>
		<path d="M4,125.5c-0.1,0-0.2,0-0.2,0c-0.8-0.1-1.4-0.9-1.2-1.7l3.1-19.4c0.1-0.5,0.4-0.9,0.8-1.1l35.4-17.5c0.7-0.4,1.6-0.1,2,0.7
			c0.4,0.7,0.1,1.6-0.7,2L8.5,105.6l-3,18.7C5.4,125,4.7,125.5,4,125.5z"/>
	</g>
	<path d="M95,38.8h-5.2c-14,0-23.5,0-30.8-10.5c-3.2,5.2-9,10.5-19.3,10.5h-6.9c-0.8,0-1.5-0.7-1.5-1.5c0-19.9,14-34.8,32.6-34.8
		c18.7,0,32.8,15,32.8,34.8C96.5,38.2,95.8,38.8,95,38.8z M58.8,23.9c0.5,0,1,0.3,1.3,0.7c6.6,11.2,14.8,11.2,29.6,11.2h3.7
		C92.8,18.4,80.2,5.5,63.7,5.5c-16.4,0-28.9,12.9-29.6,30.3h5.4c8.3,0,14.3-3.7,17.9-11.1C57.7,24.2,58.2,23.9,58.8,23.9
		C58.8,23.9,58.8,23.9,58.8,23.9z"/>
	<g>
		<g>
			<path d="M52.4,125.5c-0.1,0-0.2,0-0.3,0c-0.8-0.2-1.3-1-1.1-1.8l7.3-31.8c0.2-0.8,1-1.3,1.8-1.1c0.8,0.2,1.3,1,1.1,1.8l-7.3,31.8
				C53.7,125,53.1,125.5,52.4,125.5z"/>
			<path d="M75.3,125.5c-0.7,0-1.3-0.5-1.5-1.2l-7.3-31.8c-0.2-0.8,0.3-1.6,1.1-1.8c0.8-0.2,1.6,0.3,1.8,1.1l7.3,31.8
				c0.2,0.8-0.3,1.6-1.1,1.8C75.5,125.5,75.4,125.5,75.3,125.5z"/>
		</g>
		<path d="M63.8,94.7c-4.5,0-8.5-2.9-10-7.1c-0.3-0.8,0.1-1.6,0.9-1.9c0.8-0.3,1.6,0.1,1.9,0.9c1.1,3.1,3.9,5.1,7.2,5.1
			c3.2,0,6.1-2.1,7.2-5.1c0.3-0.8,1.1-1.2,1.9-0.9c0.8,0.3,1.2,1.1,0.9,1.9C72.4,91.8,68.3,94.7,63.8,94.7z"/>
	</g>
</g>
</svg>
