<svg id="Layer_1" data-name="Layer 1" xmlns="http://www.w3.org/2000/svg" viewBox="0 0 128 128"><title>businessmen-lg</title><path d="M120.28,46.3a1.5,1.5,0,0,0-.92-1.27l-12.93-5.31a1.5,1.5,0,1,0-1.14,2.77l12.08,5,3.1,37.84-7.39,1.1a1.48,1.48,0,0,0-1.27,1.36L109.31,118H83.6L81.1,87.76a1.49,1.49,0,0,0-1.27-1.36l-7.4-1.1,3.11-37.84,12.08-5a1.5,1.5,0,1,0-1.14-2.77L73.55,45a1.53,1.53,0,0,0-.93,1.27L69.33,86.45a1.5,1.5,0,0,0,1.27,1.61l7.61,1.13,2.51,30.45a1.51,1.51,0,0,0,1.5,1.37h28.47a1.51,1.51,0,0,0,1.5-1.37l2.51-30.45,7.6-1.13a1.51,1.51,0,0,0,1.28-1.61Z"/><path d="M96.46,37.51a13,13,0,0,0,12.93-12.94V19.93a12.94,12.94,0,0,0-25.88,0v4.64A13,13,0,0,0,96.46,37.51ZM86.51,19.93a9.94,9.94,0,1,1,19.88,0v4.64a9.94,9.94,0,1,1-19.88,0Z"/><path d="M54.45,45,41.52,39.72a1.5,1.5,0,1,0-1.14,2.77l12.08,5L55.57,85.3l-7.4,1.1a1.5,1.5,0,0,0-1.27,1.36L44.4,118H18.69L16.2,87.76a1.5,1.5,0,0,0-1.28-1.36L7.53,85.3l3.1-37.84,12.08-5a1.5,1.5,0,1,0-1.14-2.77L8.64,45a1.52,1.52,0,0,0-.92,1.27L4.42,86.45A1.51,1.51,0,0,0,5.7,88.06l7.6,1.13,2.52,30.45A1.49,1.49,0,0,0,17.31,121H45.79a1.49,1.49,0,0,0,1.49-1.37l2.51-30.45,7.61-1.13a1.5,1.5,0,0,0,1.27-1.61L55.38,46.3A1.53,1.53,0,0,0,54.45,45Z"/><path d="M31.55,37.51A13,13,0,0,0,44.49,24.57V19.93a12.94,12.94,0,0,0-25.88,0v4.64A13,13,0,0,0,31.55,37.51ZM21.61,19.93a9.94,9.94,0,0,1,19.88,0v4.64a9.94,9.94,0,0,1-19.88,0Z"/></svg>