<svg id="Layer_1" data-name="Layer 1" xmlns="http://www.w3.org/2000/svg" viewBox="0 0 128 128"><path d="M105.28,2.71H22.72A9.73,9.73,0,0,0,13,12.43V115.57a9.73,9.73,0,0,0,9.72,9.72h82.56a9.73,9.73,0,0,0,9.72-9.72V12.43A9.73,9.73,0,0,0,105.28,2.71ZM112,115.57a6.72,6.72,0,0,1-6.72,6.72H22.72A6.73,6.73,0,0,1,16,115.57V12.43a6.73,6.73,0,0,1,6.72-6.72h82.56A6.72,6.72,0,0,1,112,12.43Z"/><path d="M98.4,16.06H29.6a1.5,1.5,0,0,0-1.5,1.5V34.07a1.5,1.5,0,0,0,1.5,1.5H98.4a1.5,1.5,0,0,0,1.5-1.5V17.56A1.5,1.5,0,0,0,98.4,16.06ZM96.9,32.57H31.1V19.06H96.9Z"/><path d="M98.4,40H29.6a1.5,1.5,0,0,0-1.5,1.5v68.95a1.5,1.5,0,0,0,1.5,1.5H98.4a1.5,1.5,0,0,0,1.5-1.5V41.49A1.5,1.5,0,0,0,98.4,40ZM51,108.94H31.1V89H51Zm0-23H31.1V66H51Zm0-23H31.1V43H51Zm22.94,46H54V89H74Zm0-23H54V66H74Zm0-23H54V43H74Zm22.93,46H77V66H96.9Zm0-46H77V43H96.9Z"/></svg>