<?xml version="1.0" encoding="utf-8"?>
<!-- Generator: Adobe Illustrator 23.0.3, SVG Export Plug-In . SVG Version: 6.00 Build 0)  -->
<svg version="1.1" id="Layer_1" xmlns="http://www.w3.org/2000/svg" xmlns:xlink="http://www.w3.org/1999/xlink" x="0px" y="0px"
	 viewBox="0 0 128 128" style="enable-background:new 0 0 128 128;" xml:space="preserve">
<title>personal-lg</title>
<g>
	<path d="M115.8,125.5H12.2c-5.4,0-9.7-4.4-9.7-9.7V29.6c0-5.4,4.4-9.7,9.7-9.7h103.6c5.4,0,9.7,4.4,9.7,9.7v86.1
		C125.5,121.1,121.1,125.5,115.8,125.5z M12.2,22.9c-3.7,0-6.7,3-6.7,6.7v86.1c0,3.7,3,6.7,6.7,6.7h103.6c3.7,0,6.7-3,6.7-6.7V29.6
		c0-3.7-3-6.7-6.7-6.7H12.2z"/>
	<g>
		<path d="M38.3,22c-0.8,0-1.5-0.7-1.5-1.5v-15h-7.9v15c0,0.8-0.7,1.5-1.5,1.5s-1.5-0.7-1.5-1.5V4c0-0.8,0.7-1.5,1.5-1.5h10.9
			c0.8,0,1.5,0.7,1.5,1.5v16.5C39.8,21.3,39.1,22,38.3,22z"/>
		<path d="M100.6,22c-0.8,0-1.5-0.7-1.5-1.5v-15h-7.9v15c0,0.8-0.7,1.5-1.5,1.5s-1.5-0.7-1.5-1.5V4c0-0.8,0.7-1.5,1.5-1.5h10.9
			c0.8,0,1.5,0.7,1.5,1.5v16.5C102.1,21.3,101.4,22,100.6,22z"/>
	</g>
	<path d="M41.5,110.8c-0.8,0-1.5-0.7-1.5-1.5v-52c0-0.8,0.7-1.5,1.5-1.5s1.5,0.7,1.5,1.5v52C43,110.1,42.4,110.8,41.5,110.8z"/>
	<path d="M64,110.8c-0.8,0-1.5-0.7-1.5-1.5v-52c0-0.8,0.7-1.5,1.5-1.5s1.5,0.7,1.5,1.5v52C65.5,110.1,64.8,110.8,64,110.8z"/>
	<path d="M86.4,110.8c-0.8,0-1.5-0.7-1.5-1.5v-52c0-0.8,0.7-1.5,1.5-1.5s1.5,0.7,1.5,1.5v52C87.9,110.1,87.3,110.8,86.4,110.8z"/>
	<path d="M108.9,93.5H19.1c-0.8,0-1.5-0.7-1.5-1.5s0.7-1.5,1.5-1.5h89.8c0.8,0,1.5,0.7,1.5,1.5S109.7,93.5,108.9,93.5z"/>
	<path d="M108.9,76.2H19.1c-0.8,0-1.5-0.7-1.5-1.5s0.7-1.5,1.5-1.5h89.8c0.8,0,1.5,0.7,1.5,1.5S109.7,76.2,108.9,76.2z"/>
	<path d="M108.9,110.8H19.1c-0.8,0-1.5-0.7-1.5-1.5v-52c0-0.8,0.7-1.5,1.5-1.5h89.8c0.8,0,1.5,0.7,1.5,1.5v52
		C110.4,110.1,109.7,110.8,108.9,110.8z M20.6,107.8h86.8v-49H20.6V107.8z"/>
</g>
</svg>
