<svg xmlns="http://www.w3.org/2000/svg" viewBox="0 0 128 128"><title>canal</title><path d="M95.78,64.68H92.45a1.5,1.5,0,1,0,0,3h3.33a1.5,1.5,0,0,0,0-3Z"/><path d="M108.21,71h-3.33a1.5,1.5,0,0,0,0,3h3.33a1.5,1.5,0,0,0,0-3Z"/><path d="M107.46,85.82h-3.33a1.5,1.5,0,0,0,0,3h3.33a1.5,1.5,0,0,0,0-3Z"/><path d="M21.89,74.49a1.5,1.5,0,0,0-1.5-1.5H17.06a1.5,1.5,0,1,0,0,3h3.33A1.5,1.5,0,0,0,21.89,74.49Z"/><path d="M26.21,85.82H22.88a1.5,1.5,0,1,0,0,3h3.33a1.5,1.5,0,1,0,0-3Z"/><path d="M120.64,40.89a1.5,1.5,0,0,0-1.5,1.5v3.18A96,96,0,0,0,96.7,35.78V30.91a1.5,1.5,0,1,0-3,0v4q-2.45-.66-5.08-1.23a107.73,107.73,0,0,0-22.88-2.44V26.12a1.5,1.5,0,1,0-3,0V31.3a116.15,116.15,0,0,0-28,4.26V30.91a1.5,1.5,0,0,0-3,0v5.52A134.56,134.56,0,0,0,8.86,45.86V42.39a1.5,1.5,0,0,0-3,0v58.49a2.5,2.5,0,0,0,2.5,2.5H35.79a2.5,2.5,0,0,0,2.5-2.5v-5a27,27,0,0,1,12.9-23.28,26,26,0,0,1,26.1,0A27,27,0,0,1,90.18,95.83v5a2.51,2.51,0,0,0,2.5,2.5h27a2.5,2.5,0,0,0,2.5-2.5V42.39A1.5,1.5,0,0,0,120.64,40.89Zm-1.5,8.24V61.35A96,96,0,0,0,96.7,51.56V38.92A90.91,90.91,0,0,1,119.14,49.13ZM87.84,36.6c2,.44,4,.93,5.86,1.44V50.71c-1.63-.43-3.32-.85-5.08-1.23A108.39,108.39,0,0,0,65.74,47V34.26A104.31,104.31,0,0,1,87.84,36.6Zm-25.1-2.3V47.09a115.61,115.61,0,0,0-28,4.25V38.67A113.63,113.63,0,0,1,62.74,34.3Zm-31,5.27V52.22A133.67,133.67,0,0,0,8.86,61.64V49.25A132.49,132.49,0,0,1,31.73,39.57Zm61.45,60.81V95.83A30,30,0,0,0,78.82,70a28.95,28.95,0,0,0-29.16,0A30,30,0,0,0,35.29,95.83v4.55H8.86V65c32.67-17.47,61-16.54,79-12.65a95.14,95.14,0,0,1,31.3,12.54v35.46Z"/></svg>