<svg id="Layer_1" data-name="Layer 1" xmlns="http://www.w3.org/2000/svg" viewBox="0 0 128 128"><path d="M36.94,65.48a7.86,7.86,0,1,0,7.85,7.85A7.87,7.87,0,0,0,36.94,65.48Zm0,12.71a4.86,4.86,0,1,1,4.85-4.86A4.87,4.87,0,0,1,36.94,78.19Z"/><path d="M90.75,65.48a7.86,7.86,0,1,0,7.86,7.85A7.86,7.86,0,0,0,90.75,65.48Zm0,12.71a4.86,4.86,0,1,1,4.86-4.86A4.86,4.86,0,0,1,90.75,78.19Z"/><path d="M104.28,57.64a4.43,4.43,0,0,0,3.59-4.34V49.72a4.43,4.43,0,0,0-4.43-4.43H97L91.54,33.21a7.05,7.05,0,0,0-6.4-4.16L43,28.88h0A7.06,7.06,0,0,0,36.59,33L31,45.29H24.19a4.43,4.43,0,0,0-4.42,4.43V53.3a4.42,4.42,0,0,0,3.85,4.37,8.75,8.75,0,0,0-6.87,8.53V80.14a1.47,1.47,0,0,0,.34.94A16.66,16.66,0,0,0,21,84.24V95.07a4.06,4.06,0,0,0,4,4.05h9.47a4.05,4.05,0,0,0,4-4.05V90.64A126.62,126.62,0,0,0,64,92.91a126.62,126.62,0,0,0,25.41-2.27v4.43a4.05,4.05,0,0,0,4,4.05h9.47a4.06,4.06,0,0,0,4-4.05V84.24a16.66,16.66,0,0,0,3.94-3.16,1.47,1.47,0,0,0,.34-.94V66.2A8.76,8.76,0,0,0,104.28,57.64Zm-.84-9.35a1.43,1.43,0,0,1,1.43,1.43V53.3a1.43,1.43,0,0,1-1.43,1.42h-2.19l-2.9-6.43Zm-64.12-14A4.07,4.07,0,0,1,43,31.88h0l42.1.17a4.08,4.08,0,0,1,3.68,2.39l10.38,23H28.81Zm-16.55,19V49.72a1.43,1.43,0,0,1,1.42-1.43h5.48l-2.91,6.43H24.19A1.43,1.43,0,0,1,22.77,53.3ZM35.59,95.07a1,1,0,0,1-1,1.05H25.08a1,1,0,0,1-1-1.05V85.9A56.54,56.54,0,0,0,35.59,90Zm68.38,0a1,1,0,0,1-1,1.05H93.45a1,1,0,0,1-1-1.05V90A56.54,56.54,0,0,0,104,85.9Zm4.28-15.54c-2,1.85-12.71,10.38-44.25,10.38S21.68,81.36,19.75,79.53V66.2a5.75,5.75,0,0,1,5.75-5.74h77a5.75,5.75,0,0,1,5.75,5.74Z"/><path d="M70.94,70.68H57.06a1.5,1.5,0,0,0,0,3H70.94a1.5,1.5,0,0,0,0-3Z"/><path d="M70.94,77.45H57.06a1.5,1.5,0,1,0,0,3H70.94a1.5,1.5,0,0,0,0-3Z"/></svg>