<svg id="Layer_1" data-name="Layer 1" xmlns="http://www.w3.org/2000/svg" viewBox="0 0 128 128"><path d="M98.18,46.2a5.86,5.86,0,1,0-5.85-5.86A5.87,5.87,0,0,0,98.18,46.2Zm0-8.71a2.86,2.86,0,1,1-2.85,2.85A2.86,2.86,0,0,1,98.18,37.49Z"/><path d="M98.64,11.49a1.5,1.5,0,0,0,0,3,25.25,25.25,0,0,1,25.22,25.23,1.5,1.5,0,0,0,3,0A28.26,28.26,0,0,0,98.64,11.49Z"/><path d="M97.92,23.83a1.5,1.5,0,0,0,0,3,13.71,13.71,0,0,1,13.7,13.7,1.5,1.5,0,0,0,3,0A16.72,16.72,0,0,0,97.92,23.83Z"/><path d="M42.94,66.55c0-4.31-2.9-6.87-7.84-6.87h-7c-.27,0-.42.15-.42.45V80.79c0,.3.15.45.42.45h2.78c.27,0,.42-.15.42-.45V73.37H34l5.28,7.57a.56.56,0,0,0,.51.3h3.41c.33,0,.48-.21.27-.54L37.93,73A6.26,6.26,0,0,0,42.94,66.55ZM35.1,70.11H31.3V63h3.8c2.8,0,4.13,1.11,4.13,3.55S37.9,70.11,35.1,70.11Z"/><path d="M60.12,63c.3,0,.46-.15.46-.43V60.13a.4.4,0,0,0-.46-.45H47.31c-.27,0-.42.15-.42.45V80.79c0,.3.15.45.42.45h2.77c.27,0,.42-.15.42-.45V72.62h8.36c.27,0,.42-.16.42-.46V69.75c0-.3-.15-.45-.42-.45H50.5V63Z"/><path d="M64.34,59.68c-.27,0-.42.15-.42.45V80.79c0,.3.15.45.42.45h2.78c.27,0,.42-.15.42-.45V60.13c0-.3-.15-.45-.42-.45Z"/><path d="M80.38,59.68H72.91a.39.39,0,0,0-.43.45V80.79a.39.39,0,0,0,.43.45h7.47c5,0,8.14-2.66,8.14-7.87V67.64C88.52,62.36,85.39,59.68,80.38,59.68ZM84.75,73.4c0,3-1.47,4.43-4.37,4.43H76.13V63h4.25c2.9,0,4.37,1.47,4.37,4.58Z"/><path d="M112.87,47.65a1.5,1.5,0,0,0-1.5,1.5V106.4a7.12,7.12,0,0,1-7.1,7.11h-93a7.12,7.12,0,0,1-7.1-7.11V33.93a7.11,7.11,0,0,1,7.1-7.1h73.6a1.5,1.5,0,0,0,0-3H11.24a10.11,10.11,0,0,0-10.1,10.1V106.4a10.12,10.12,0,0,0,10.1,10.11h93a10.12,10.12,0,0,0,10.1-10.11V49.15A1.5,1.5,0,0,0,112.87,47.65Z"/></svg>