<svg id="Layer_1" data-name="Layer 1" xmlns="http://www.w3.org/2000/svg" viewBox="0 0 128 128"><path d="M46.89,89.43a5,5,0,1,0,5,5A5,5,0,0,0,46.89,89.43Zm0,8a3,3,0,1,1,3-3A3,3,0,0,1,46.89,97.46Z"/><path d="M80.91,89.43a5,5,0,1,0,5,5A5,5,0,0,0,80.91,89.43Zm0,8a3,3,0,1,1,3-3A3,3,0,0,1,80.91,97.46Z"/><path d="M89.67,84.52a2.84,2.84,0,0,0,2.12-2.74V79.51a2.86,2.86,0,0,0-2.85-2.85h-4l-3.43-7.61a4.51,4.51,0,0,0-4.09-2.65l-26.62-.11h0a4.52,4.52,0,0,0-4.11,2.65l-3.5,7.72H38.83A2.86,2.86,0,0,0,36,79.51v2.27a2.85,2.85,0,0,0,2.23,2.77,5.58,5.58,0,0,0-4.13,5.39v8.81a1,1,0,0,0,.22.63,10.62,10.62,0,0,0,2.48,2v6.82a2.61,2.61,0,0,0,2.61,2.61h6A2.61,2.61,0,0,0,48,108.19v-2.74a80.29,80.29,0,0,0,16,1.42,80.29,80.29,0,0,0,16-1.42v2.74a2.61,2.61,0,0,0,2.61,2.61h6a2.61,2.61,0,0,0,2.61-2.61v-6.82a10.62,10.62,0,0,0,2.48-2,1,1,0,0,0,.22-.63V89.94A5.6,5.6,0,0,0,89.67,84.52Zm-.73-5.86a.85.85,0,0,1,.85.85v2.27a.85.85,0,0,1-.85.85H87.58l-1.79-4Zm-40.5-8.89a2.53,2.53,0,0,1,2.29-1.48h0l26.62.11a2.51,2.51,0,0,1,2.28,1.48l6.53,14.48H41.83ZM38,79.51a.85.85,0,0,1,.85-.85h3.39l-1.8,4H38.83a.85.85,0,0,1-.85-.85Zm8,28.68a.61.61,0,0,1-.61.61h-6a.61.61,0,0,1-.61-.61v-5.72A35.91,35.91,0,0,0,46,105Zm43.23,0a.61.61,0,0,1-.61.61h-6a.61.61,0,0,1-.61-.61V105a35.91,35.91,0,0,0,7.21-2.53Zm2.7-9.85c-1.26,1.19-8.07,6.53-27.92,6.53s-26.67-5.35-27.92-6.53v-8.4a3.58,3.58,0,0,1,3.58-3.58H88.34a3.58,3.58,0,0,1,3.58,3.58Z"/><path d="M68.39,92.09H59.61a1,1,0,1,0,0,2h8.78a1,1,0,1,0,0-2Z"/><path d="M68.39,97H59.61a1,1,0,0,0,0,2h8.78a1,1,0,0,0,0-2Z"/><path d="M13.81,40.34a5,5,0,1,0,5,5A5,5,0,0,0,13.81,40.34Zm0,8a3,3,0,1,1,3-3A3,3,0,0,1,13.81,48.38Z"/><path d="M47.84,50.38a5,5,0,1,0-5-5A5,5,0,0,0,47.84,50.38Zm0-8a3,3,0,1,1-3,3A3,3,0,0,1,47.84,42.34Z"/><path d="M46.93,56.36V59.1a2.62,2.62,0,0,0,2.61,2.61h6a2.61,2.61,0,0,0,2.61-2.61V52.28a10.62,10.62,0,0,0,2.48-2,1,1,0,0,0,.23-.63V40.85a5.6,5.6,0,0,0-4.26-5.42,2.83,2.83,0,0,0,2.12-2.74V30.43a2.85,2.85,0,0,0-2.85-2.85h-4L48.38,20a4.52,4.52,0,0,0-4.09-2.65L17.67,17.2a4.54,4.54,0,0,0-4.13,2.65l-3.49,7.73H5.76a2.84,2.84,0,0,0-2.85,2.85v2.26a2.85,2.85,0,0,0,2.22,2.78A5.58,5.58,0,0,0,1,40.85v8.81a1,1,0,0,0,.22.63,10.9,10.9,0,0,0,2.48,2V59.1a2.62,2.62,0,0,0,2.61,2.61h6a2.61,2.61,0,0,0,2.61-2.61V56.36a80.26,80.26,0,0,0,16,1.43A80.19,80.19,0,0,0,46.93,56.36Zm9.21,2.74a.61.61,0,0,1-.61.61h-6a.61.61,0,0,1-.61-.61V55.91a36,36,0,0,0,7.21-2.52Zm-.28-29.52a.85.85,0,0,1,.85.85v2.26a.85.85,0,0,1-.85.85H54.51l-1.79-4Zm-40.49-8.9a2.5,2.5,0,0,1,2.28-1.48h0l26.62.11a2.5,2.5,0,0,1,2.28,1.48l6.53,14.48H8.76ZM4.91,30.43a.85.85,0,0,1,.85-.85H9.14l-1.8,4H5.76a.85.85,0,0,1-.85-.85ZM3,40.85a3.58,3.58,0,0,1,3.58-3.58H55.27a3.58,3.58,0,0,1,3.58,3.58v8.41a11.87,11.87,0,0,1-2.08,1.53l-.08,0c-3.37,2-10.87,5-25.77,5C11.05,55.79,4.25,50.43,3,49.26ZM12.91,59.1a.61.61,0,0,1-.61.61h-6a.61.61,0,0,1-.61-.61V53.39a36.22,36.22,0,0,0,7.21,2.52Z"/><path d="M26.53,45h8.78a1,1,0,0,0,0-2H26.53a1,1,0,0,0,0,2Z"/><path d="M36.31,48.91a1,1,0,0,0-1-1H26.53a1,1,0,0,0,0,2h8.78A1,1,0,0,0,36.31,48.91Z"/><path d="M80,40.34a5,5,0,1,0,5,5A5,5,0,0,0,80,40.34Zm0,8a3,3,0,1,1,3-3A3,3,0,0,1,80,48.38Z"/><path d="M114,40.34a5,5,0,1,0,5,5A5,5,0,0,0,114,40.34Zm0,8a3,3,0,1,1,3-3A3,3,0,0,1,114,48.38Z"/><path d="M122.74,35.43a2.84,2.84,0,0,0,2.13-2.74V30.43A2.85,2.85,0,0,0,122,27.58h-4L114.54,20a4.54,4.54,0,0,0-4.1-2.65L83.83,17.2h0a4.52,4.52,0,0,0-4.11,2.65l-3.5,7.73H71.91a2.85,2.85,0,0,0-2.85,2.85v2.26a2.85,2.85,0,0,0,2.22,2.78,5.58,5.58,0,0,0-4.13,5.38v8.81a1,1,0,0,0,.23.63,10.62,10.62,0,0,0,2.48,2V59.1a2.61,2.61,0,0,0,2.61,2.61h6a2.62,2.62,0,0,0,2.61-2.61V56.36a80.19,80.19,0,0,0,16,1.43,80.26,80.26,0,0,0,16-1.43V59.1a2.61,2.61,0,0,0,2.61,2.61h6a2.62,2.62,0,0,0,2.61-2.61V52.28a10.9,10.9,0,0,0,2.48-2,1,1,0,0,0,.22-.63V40.85A5.6,5.6,0,0,0,122.74,35.43ZM122,29.58a.86.86,0,0,1,.85.85v2.26a.86.86,0,0,1-.85.85h-1.36l-1.79-4Zm-40.5-8.9a2.52,2.52,0,0,1,2.29-1.48h0l26.62.11a2.49,2.49,0,0,1,2.27,1.48l6.54,14.48H74.91ZM71.06,30.43a.85.85,0,0,1,.85-.85h3.38l-1.79,4H71.91a.85.85,0,0,1-.85-.85Zm8,28.67a.61.61,0,0,1-.61.61h-6a.61.61,0,0,1-.61-.61V53.39a36,36,0,0,0,7.21,2.52Zm43.23,0a.61.61,0,0,1-.61.61h-6a.61.61,0,0,1-.61-.61V55.91a36.22,36.22,0,0,0,7.21-2.52Zm2.7-9.84a11.47,11.47,0,0,1-2.08,1.53l-.07,0c-3.38,2-10.88,5-25.77,5-19.87,0-26.67-5.36-27.93-6.53V40.85a3.58,3.58,0,0,1,3.58-3.58h48.69A3.58,3.58,0,0,1,125,40.85Z"/><path d="M101.47,43H92.69a1,1,0,0,0,0,2h8.78a1,1,0,0,0,0-2Z"/><path d="M101.47,47.91H92.69a1,1,0,0,0,0,2h8.78a1,1,0,0,0,0-2Z"/></svg>