<svg id="Layer_1" data-name="Layer 1" xmlns="http://www.w3.org/2000/svg" viewBox="0 0 128 128"><path d="M117.45,111.09H75.68a2.69,2.69,0,1,1,0-5.37h11.1a9.29,9.29,0,0,0,9.28-9.27c0-2.49,0-5.4.06-8.48.06-6,.13-12.75,0-18.24,13.52-.8,24.22-10,24.22-21.1V29.31a1.5,1.5,0,0,0-1.5-1.5H69.54a1.5,1.5,0,0,0-1.5,1.5V48.63C68,60,79.18,69.31,93.1,69.77c.15,5.44.08,12.16,0,18.17,0,3.09-.07,6-.06,8.51a6.28,6.28,0,0,1-6.28,6.27H75.68a5.69,5.69,0,1,0,0,11.37h41.77a3.59,3.59,0,0,1,3.58,3.53,3.54,3.54,0,0,1-1,2.55,3.58,3.58,0,0,1-2.53,1.07c-12.53.06-55.1.24-76.76.09a14.72,14.72,0,0,1-14.62-14.87V58H43.71a1.5,1.5,0,0,0,1.5-1.5V5.11a1.5,1.5,0,0,0-1.5-1.5H5.47A1.5,1.5,0,0,0,4,5.11V56.47A1.5,1.5,0,0,0,5.47,58H23.09v48.48a17.72,17.72,0,0,0,17.6,17.88c6,0,13.51.06,21.57.06,21.26,0,46.14-.11,55.23-.15a6.58,6.58,0,0,0,0-13.15ZM71,48.58V30.81h46.28V48.63c0,10-10.38,18.16-23.14,18.16S71,58.65,71,48.58ZM7,6.61H42.21V55H7Z"/><path d="M82.08,23.89a1.5,1.5,0,0,0,1.5-1.5V5.11a1.5,1.5,0,1,0-3,0V22.39A1.5,1.5,0,0,0,82.08,23.89Z"/><path d="M106.28,23.89a1.5,1.5,0,0,0,1.5-1.5V5.11a1.5,1.5,0,1,0-3,0V22.39A1.5,1.5,0,0,0,106.28,23.89Z"/><path d="M34.25,30.14a1.52,1.52,0,0,0-1.37-.88H18.82l5.95-11a1.5,1.5,0,0,0-2.64-1.43L15,30.05a1.5,1.5,0,0,0,0,1.48,1.53,1.53,0,0,0,1.29.73H29.58L20.16,43a1.5,1.5,0,0,0,.14,2.12,1.49,1.49,0,0,0,1,.37A1.51,1.51,0,0,0,22.42,45L34,31.75A1.5,1.5,0,0,0,34.25,30.14Z"/></svg>