<svg xmlns="http://www.w3.org/2000/svg" viewBox="0 0 128 128"><title>chatbot-lg</title><path d="M64.67,98H33.37a1.5,1.5,0,0,0-1.5,1.5,17.15,17.15,0,1,0,34.3,0A1.5,1.5,0,0,0,64.67,98ZM49,113.62A14.16,14.16,0,0,1,35,101H63.09A14.16,14.16,0,0,1,49,113.62Z"/><path d="M41.3,77.4a9.79,9.79,0,1,0-9.79,9.79A9.8,9.8,0,0,0,41.3,77.4Zm-9.79,6.79A6.79,6.79,0,1,1,38.3,77.4,6.8,6.8,0,0,1,31.51,84.19Z"/><path d="M66.53,67.61a9.79,9.79,0,1,0,9.79,9.79A9.8,9.8,0,0,0,66.53,67.61Zm0,16.58a6.79,6.79,0,1,1,6.79-6.79A6.79,6.79,0,0,1,66.53,84.19Z"/><path d="M31.51,74a1.5,1.5,0,0,0-1.5,1.5v3.76a1.5,1.5,0,1,0,3,0V75.52A1.5,1.5,0,0,0,31.51,74Z"/><path d="M66.53,74a1.5,1.5,0,0,0-1.5,1.5v3.76a1.5,1.5,0,0,0,3,0V75.52A1.5,1.5,0,0,0,66.53,74Z"/><path d="M88.74,85.52A39.76,39.76,0,0,0,50.52,46.34V34a6.51,6.51,0,1,0-3,0V46.34A39.75,39.75,0,0,0,9.31,85.52a10.32,10.32,0,0,0,0,20.43v20a1.5,1.5,0,0,0,1.5,1.5H87.25a1.5,1.5,0,0,0,1.5-1.5V106a10.32,10.32,0,0,0,0-20.43ZM45.51,27.69A3.51,3.51,0,1,1,49,31.2,3.52,3.52,0,0,1,45.51,27.69Zm-42,68.05a7.36,7.36,0,0,1,5.83-7.19v14.37A7.36,7.36,0,0,1,3.46,95.74ZM85.75,124.5H12.29V86A36.77,36.77,0,0,1,49,49.3h0A36.77,36.77,0,0,1,85.75,86Zm3-21.58V88.55a7.34,7.34,0,0,1,0,14.37Z"/><path d="M120.56.5h-47a7,7,0,0,0-7,7V32.94a7,7,0,0,0,7,7H83.73V53.14a1.49,1.49,0,0,0,.93,1.38,1.42,1.42,0,0,0,.57.12,1.47,1.47,0,0,0,1.06-.44l14.29-14.29h20a7,7,0,0,0,7-7V7.48A7,7,0,0,0,120.56.5Zm4,32.44a4,4,0,0,1-4,4H100a1.5,1.5,0,0,0-1.06.44L86.73,49.52V38.41a1.5,1.5,0,0,0-1.5-1.5H73.55a4,4,0,0,1-4-4V7.48a4,4,0,0,1,4-4h47a4,4,0,0,1,4,4Z"/><path d="M93,13.31a1.5,1.5,0,0,0-1.5,1.5v9.82a1.5,1.5,0,0,0,3,0V14.81A1.5,1.5,0,0,0,93,13.31Z"/><path d="M100.44,13.31a1.5,1.5,0,0,0-1.5,1.5v9.82a1.5,1.5,0,0,0,3,0V14.81A1.51,1.51,0,0,0,100.44,13.31Z"/><path d="M81.2,13.31a6.41,6.41,0,1,0,6.41,6.41A6.42,6.42,0,0,0,81.2,13.31Zm0,9.82a3.41,3.41,0,1,1,3.41-3.41A3.41,3.41,0,0,1,81.2,23.13Z"/><path d="M112.27,13.31a6.41,6.41,0,1,0,6.41,6.41A6.42,6.42,0,0,0,112.27,13.31Zm0,9.82a3.41,3.41,0,1,1,3.41-3.41A3.41,3.41,0,0,1,112.27,23.13Z"/></svg>