<svg id="Layer_1" data-name="Layer 1" xmlns="http://www.w3.org/2000/svg" viewBox="0 0 64 64"><title>chatbot-md</title><path d="M43.25,63h-37a1,1,0,0,1-1-1V52.53a5.27,5.27,0,0,1,0-10.36,19.51,19.51,0,0,1,18.49-19V17.71a3.43,3.43,0,1,1,2,0v5.48a19.51,19.51,0,0,1,18.49,19,5.28,5.28,0,0,1,0,10.36V62A1,1,0,0,1,43.25,63Zm-36-2h35V42.66a17.5,17.5,0,1,0-35,0Zm37-16.76v6.23a3.27,3.27,0,0,0,0-6.23Zm-39,0a3.27,3.27,0,0,0,0,6.23ZM24.75,13a1.43,1.43,0,1,0,1.43,1.42A1.43,1.43,0,0,0,24.75,13Zm0,44.72a8.57,8.57,0,0,1-8.57-8.57,1,1,0,0,1,1-1H32.33a1,1,0,0,1,1,1A8.58,8.58,0,0,1,24.75,57.73Zm-6.49-7.57a6.57,6.57,0,0,0,13,0Zm15-6.66a5,5,0,1,1,5-5A5,5,0,0,1,33.22,43.5Zm0-8a3,3,0,1,0,3,3A3,3,0,0,0,33.22,35.47Zm-16.94,8a5,5,0,1,1,5-5A5,5,0,0,1,16.28,43.5Zm0-8a3,3,0,1,0,3,3A3,3,0,0,0,16.28,35.47Zm16.94,4.78a1,1,0,0,1-1-1V37.76a1,1,0,1,1,2,0v1.49A1,1,0,0,1,33.22,40.25Zm-16.94,0a1,1,0,0,1-1-1V37.76a1,1,0,1,1,2,0v1.49A1,1,0,0,1,16.28,40.25Zm26-12.5a1,1,0,0,1-1-1V20.62H36.62A3.66,3.66,0,0,1,33,17V4.65A3.66,3.66,0,0,1,36.62,1H59.37A3.66,3.66,0,0,1,63,4.65V17a3.66,3.66,0,0,1-3.65,3.65H49.81L43,27.45A1,1,0,0,1,42.27,27.75ZM36.62,3A1.65,1.65,0,0,0,35,4.65V17a1.65,1.65,0,0,0,1.65,1.65h5.65a1,1,0,0,1,1,1v4.71l5.42-5.42a1,1,0,0,1,.71-.29h10A1.65,1.65,0,0,0,61,17V4.65A1.65,1.65,0,0,0,59.37,3ZM55.35,14a3.38,3.38,0,1,1,3.38-3.37A3.37,3.37,0,0,1,55.35,14Zm0-4.75a1.38,1.38,0,1,0,1.38,1.38A1.37,1.37,0,0,0,55.35,9.2ZM49.63,14a1,1,0,0,1-1-1V8.2a1,1,0,1,1,2,0V13A1,1,0,0,1,49.63,14ZM46,14a1,1,0,0,1-1-1V8.2a1,1,0,1,1,2,0V13A1,1,0,0,1,46,14Zm-5.7,0a3.38,3.38,0,1,1,3.38-3.37A3.37,3.37,0,0,1,40.32,14Zm0-4.75a1.38,1.38,0,1,0,1.38,1.38A1.37,1.37,0,0,0,40.32,9.2Z"/></svg>