<svg viewBox="0 0 120 120" xmlns="http://www.w3.org/2000/svg">
    <path d="M55.7784 4.11727C48.1115 4.85692 41.7135 6.60808 35.3363 9.71266C29.5362 12.5361 25.1258 15.7173 20.2591 20.5882C11.6558 29.1988 6.32813 39.8213 4.46362 52.0824C3.84546 56.1473 3.84546 63.9371 4.46362 68.002C6.33646 80.3177 11.6715 90.9155 20.3786 99.6169C29.1329 108.366 39.6421 113.645 52.1062 115.554C55.9858 116.149 63.8948 116.149 67.7744 115.554C86.4489 112.693 102.178 101.249 110.242 84.6569C113.817 77.3023 115.585 70.1328 115.92 61.6339C116.067 57.9217 116.047 57.6594 115.54 56.6645C114.842 55.2959 113.78 54.6557 112.208 54.6557C110.753 54.6557 109.607 55.2697 108.902 56.4275C108.525 57.0468 108.415 57.6648 108.413 59.185C108.375 83.9451 90.9286 104.355 66.7638 107.908C63.3391 108.412 56.5415 108.412 53.1168 107.908C34.9831 105.241 20.1064 92.901 14.1676 75.5996C8.76283 59.8531 11.8664 42.5095 22.4348 29.4001C26.8101 23.973 33.7521 18.6411 40.1102 15.8243C53.0047 10.1119 66.8331 10.1496 79.7868 15.9321C82.9165 17.3293 83.8265 17.4449 85.2532 16.6267C87.0081 15.6201 87.6005 13.4614 86.6394 11.5762C86.0699 10.4597 85.7206 10.2187 82.7081 8.86353C77.3597 6.45721 70.8578 4.74255 65.0814 4.21499C62.4609 3.97546 57.7583 3.92624 55.7784 4.11727ZM110.339 18.4687C109.85 18.7712 99.7701 28.549 87.9389 40.1975C76.1079 51.846 64.7656 63.0077 62.7339 65.001L59.0396 68.6256L47.605 57.3363C40.5455 50.367 35.85 45.9134 35.3327 45.6971C34.1529 45.2041 33.251 45.2607 32.0345 45.9043C30.2613 46.8424 29.5658 48.9905 30.4425 50.8208C30.8158 51.5999 56.3584 76.8097 57.3335 77.3615C57.6229 77.5251 58.4102 77.6589 59.0834 77.6589C59.7567 77.6589 60.5462 77.5251 60.838 77.3615C61.7309 76.8609 115.117 24.3051 115.575 23.4758C116.187 22.367 116.131 20.6262 115.452 19.6306C114.306 17.9502 112.019 17.4305 110.339 18.4687Z"/>
</svg>
