<svg xmlns="http://www.w3.org/2000/svg" viewBox="0 0 128 128"><title>chemicals</title><path d="M61.28,28.14h.26A2.18,2.18,0,0,0,63.73,26v-.08a3.7,3.7,0,0,0-.44-1.76l-1.47-2.69a.33.33,0,0,0-.55,0l-1.46,2.69a3.71,3.71,0,0,0-.45,1.76A2.23,2.23,0,0,0,61.28,28.14Z"/><path d="M63.31,31.61,61.84,34.3a3.71,3.71,0,0,0-.45,1.76,2.23,2.23,0,0,0,1.93,2.25h.26a2.19,2.19,0,0,0,2.19-2.18v-.08a3.71,3.71,0,0,0-.45-1.76l-1.46-2.69A.33.33,0,0,0,63.31,31.61Z"/><path d="M55.18,34.24l.26,0a2.19,2.19,0,0,0,2.19-2.19V32a3.63,3.63,0,0,0-.45-1.76l-1.46-2.68a.32.32,0,0,0-.55,0l-1.46,2.68A3.63,3.63,0,0,0,53.26,32,2.23,2.23,0,0,0,55.18,34.24Z"/><path d="M80.55,93.2l-.62.11a8.53,8.53,0,0,0,.22-6.46.61.61,0,0,0-.05-.12L67.92,64,67.81,52.5a4.24,4.24,0,0,0,3.1-4.16,4.78,4.78,0,0,0-.09-.76A4.24,4.24,0,0,0,66.6,44.2l-14.23,0a4.24,4.24,0,0,0-2.8,7.31,4.21,4.21,0,0,0,1.66,1V64L39.34,86.2h-.06A18.59,18.59,0,0,0,29.7,87l-.16.07-12,6L16.72,91A3.75,3.75,0,0,0,12,88.69l-6.3,2A3.76,3.76,0,0,0,3.41,95.5L12.69,121a3.78,3.78,0,0,0,3.53,2.49,3.51,3.51,0,0,0,1.23-.22l6.3-2A3.78,3.78,0,0,0,26,116.44l-.66-1.81,4.22-1.85a.72.72,0,0,1,.5,0l.17,0,10.08,2.12a16.46,16.46,0,0,0,4.47.61,8,8,0,0,0,2.57-.34L90,101.55a6,6,0,0,0,3.34-3,.67.67,0,0,0,.06-.12,6,6,0,0,0,.2-4.62C93.07,92.4,91.68,91.28,80.55,93.2Zm-28.14-46,14.23,0a1.27,1.27,0,0,1,1.24,1,1.46,1.46,0,0,1,0,.22,1.24,1.24,0,0,1-1.16,1.27H52.52a1.31,1.31,0,0,1-.87-.34h0a1.24,1.24,0,0,1,.78-2.13Zm1.65,17.89a1.54,1.54,0,0,0,.17-.7V52.66H64.81l.11,11.71a1.51,1.51,0,0,0,.18.69l4.37,8.17c-3.25-.6-7.27-.8-9.64.09a14.14,14.14,0,0,1-5.54,1,16.69,16.69,0,0,1-4.66-1ZM48.19,76a24.75,24.75,0,0,0,6.1,1.28h.36a17,17,0,0,0,6.25-1.18c2.19-.82,7.44-.33,10.46.64l6,11.3c.81,1.9-.16,5.1-1.79,6.06-2.33.48-4.41,1-5.88,1.33v0a3.93,3.93,0,0,0-.23-.82,6,6,0,0,0-4.62-3.88l-22.44-4Zm-25,42a.72.72,0,0,1-.37.38l-6.29,2a.78.78,0,0,1-1-.46L6.23,94.48a.79.79,0,0,1,0-.59.7.7,0,0,1,.37-.37l6.3-2a.77.77,0,0,1,1,.46l1.36,3.74h0L19.36,107l3.82,10.49A.73.73,0,0,1,23.15,118.05Zm67.57-21,0,.09A3,3,0,0,1,89,98.71L46.38,112.37a11.54,11.54,0,0,1-5.2-.3L41,112,30.93,109.9a3.86,3.86,0,0,0-2.48.1l-4.14,1.81-2.26-6.21L18.55,96l12.26-6.16a15.58,15.58,0,0,1,8-.67l25.62,4.54a3,3,0,0,1,2.32,2,1.72,1.72,0,0,1,.07.21,2.65,2.65,0,0,0,0,.33,2.75,2.75,0,0,1,0,.85s0,.06,0,.09c-.34.44-2.75,1.16-8.31.72-3.89-.13-14.7-.84-18-2.55A1.5,1.5,0,1,0,39.18,98c4.45,2.34,17.75,2.85,19.18,2.9,8.25.66,10.47-1,11.13-2.23,1.4-.41,4-1,6.9-1.59l.16,0C82.2,95.87,89,94.82,90.89,95.24A3.12,3.12,0,0,1,90.72,97.08Z"/><path d="M119.84,16.75,80.25,10.18l.08-.35a4.51,4.51,0,0,0-3.65-5.21,3.77,3.77,0,0,0-.81-.08A4.5,4.5,0,0,0,71.46,8.2L68.3,22.43A4.51,4.51,0,0,0,72,27.65a4.11,4.11,0,0,0,.78.07,4.54,4.54,0,0,0,2.59-.81,4.46,4.46,0,0,0,1.85-2.85l.16-.7,40.41,7.51a5,5,0,0,0,.76.06c3,0,5.67-3,6.21-6.08S123.24,17.36,119.84,16.75ZM73.62,24.44h0A1.5,1.5,0,0,1,71.25,23L74.4,8.79a1.52,1.52,0,0,1,1.49-1.25h0a1.15,1.15,0,0,1,.26,0,1.5,1.5,0,0,1,1.24,1.68L74.24,23.47A1.54,1.54,0,0,1,73.62,24.44Zm6-11.32,18.76,3.11c-.12.13-.24.24-.36.38a14,14,0,0,1-4.29,3.63c-1,.64-4.71,1.4-6.28,1.73l-.55.12-8.78-1.63Zm42.12,11.21c-.32,1.8-2,3.84-3.49,3.58L94,23.41a7.42,7.42,0,0,0,1.25-.58,16.75,16.75,0,0,0,5.12-4.34c.78-.95,1.34-1,3-.89a14.52,14.52,0,0,0,2.83-.07l13.13,2.17C120.78,20,122.1,22.47,121.77,24.33Z"/><path d="M67.92,87.4a2.23,2.23,0,1,0-2.15-2.15A2.22,2.22,0,0,0,67.92,87.4Z"/><path d="M53.2,80.3a2.22,2.22,0,1,0,2.15,2.14A2.22,2.22,0,0,0,53.2,80.3Z"/></svg>