<svg xmlns="http://www.w3.org/2000/svg" viewBox="0 0 128 128"><title>chemical-free</title><path d="M64,3.11A60.89,60.89,0,1,0,124.89,64,61,61,0,0,0,64,3.11ZM121.89,64A57.66,57.66,0,0,1,106,103.83L91.29,89.17A31.07,31.07,0,0,0,95.2,74.08h0A31.38,31.38,0,0,0,71.94,43.91V32c2.28-.86,3.85-2.17,3.85-4,0-3.59-6.11-5.23-11.79-5.23S52.21,24.37,52.21,28c0,1.83,1.57,3.14,3.85,4V43.91a30.59,30.59,0,0,0-7.15,2.88L24.17,22.05a57.85,57.85,0,0,1,97.72,42ZM64,30.2c-5.66,0-8.62-1.63-8.8-2.21.18-.63,3.14-2.26,8.8-2.26s8.55,1.6,8.79,2.23C72.55,28.6,69.59,30.2,64,30.2ZM57.88,46.55l.1,0,.18,0,.11-.06a.67.67,0,0,0,.14-.09.39.39,0,0,0,.1-.08l.12-.1.08-.1a1.47,1.47,0,0,0,.1-.13l.06-.1.08-.16,0-.11a1,1,0,0,0,.05-.16.76.76,0,0,0,0-.15.68.68,0,0,0,0-.14V32.77a28.59,28.59,0,0,0,9.88,0V45.08a.68.68,0,0,0,0,.14.76.76,0,0,0,0,.15,1,1,0,0,0,0,.16l0,.11c0,.06.06.11.08.16l.06.1a1.47,1.47,0,0,0,.1.13l.08.1.12.1a.39.39,0,0,0,.1.08.67.67,0,0,0,.14.09l.11.06.18,0,.1,0A28.36,28.36,0,0,1,91.48,67.91a15.87,15.87,0,0,0-1.17-1.15c-5.31-4.6-10.07-2.86-11.84-1.3a1.8,1.8,0,0,0-.19.2s-2.5,3.1-5.32,3.27a4.16,4.16,0,0,1-2.91-1L51.12,49A27.83,27.83,0,0,1,57.88,46.55Zm4.77,18.22a8.85,8.85,0,0,0-5.85,2.69c-.68.7-2.76,2.84-7.24-1-2.55-2.19-5.21-3.05-7.9-2.57A10.35,10.35,0,0,0,37,66.23,28.51,28.51,0,0,1,48.47,50.59ZM35.9,72c.9-1.49,3.34-4.64,6.3-5.17,1.78-.33,3.55.29,5.4,1.88,5.77,5,9.59,2.65,11.35.83a5.86,5.86,0,0,1,4.17-1.81,5.59,5.59,0,0,1,4,1.61l.13.13a9.78,9.78,0,0,0,.77.69L87.5,89.63A28.19,28.19,0,0,1,35.8,74.08C35.8,73.38,35.84,72.7,35.9,72ZM74,71.83c3.41-.6,6-3.49,6.58-4.18.5-.37,3.53-2.34,7.81,1.38a18,18,0,0,1,3.85,5.36A28,28,0,0,1,89.07,87ZM6.11,64A57.66,57.66,0,0,1,22.05,24.17L46.3,48.42a31.49,31.49,0,0,0-13.38,23v.08c-.08.86-.12,1.72-.12,2.59a31.18,31.18,0,0,0,56.86,17.7L103.83,106A57.85,57.85,0,0,1,6.11,64Z"/><path d="M74,60.18a3.91,3.91,0,1,0-3.91-3.91A3.92,3.92,0,0,0,74,60.18Zm0-5.82a1.91,1.91,0,1,1-1.91,1.91A1.92,1.92,0,0,1,74,54.36Z"/><path d="M51.9,93.77a1.52,1.52,0,0,0,2-.8,1.51,1.51,0,0,0-.8-2s-4.26-2-8.14-9.36A1.5,1.5,0,0,0,42.26,83C46.7,91.51,51.69,93.68,51.9,93.77Z"/></svg>