<svg id="Layer_1" data-name="Layer 1" xmlns="http://www.w3.org/2000/svg" viewBox="0 0 128 128"><title>clock-lg</title><path d="M118.49,64a54,54,0,1,0-86,43.48L17.07,122.92a1.49,1.49,0,0,0,0,2.12,1.5,1.5,0,0,0,2.12,0L35,109.21a53.84,53.84,0,0,0,59.76-.53l16.37,16.38a1.51,1.51,0,0,0,2.13,0,1.51,1.51,0,0,0,0-2.12l-16-16A53.94,53.94,0,0,0,118.49,64Zm-54,51a51,51,0,1,1,51-51A51.06,51.06,0,0,1,64.49,115Z"/><path d="M64.49,20.93A43.07,43.07,0,1,0,107.55,64,43.11,43.11,0,0,0,64.49,20.93ZM66,104V95.77a1.5,1.5,0,1,0-3,0V104A40.12,40.12,0,0,1,24.46,65.5h8.26a1.5,1.5,0,0,0,0-3H24.46A40.12,40.12,0,0,1,63,24v8.26a1.5,1.5,0,0,0,3,0V24A40.12,40.12,0,0,1,104.52,62.5H96.26a1.5,1.5,0,1,0,0,3h8.26A40.12,40.12,0,0,1,66,104Z"/><path d="M31.89,9.43a1.51,1.51,0,0,0,0-2.12A16.42,16.42,0,0,0,8.67,30.52a1.5,1.5,0,0,0,2.12,0Zm-21.1,0a13.44,13.44,0,0,1,17.85-1L9.79,27.28A13.43,13.43,0,0,1,10.79,9.43Z"/><path d="M119.33,7.31a16.44,16.44,0,0,0-23.22,0,1.51,1.51,0,0,0,0,2.12l21.1,21.09a1.5,1.5,0,0,0,2.12,0A16.43,16.43,0,0,0,119.33,7.31Zm-1.12,20L99.36,8.43a13.41,13.41,0,0,1,18.85,18.85Z"/><path d="M78.66,62.5H66V42.33a1.5,1.5,0,0,0-3,0V64a1.5,1.5,0,0,0,1.5,1.5H78.66a1.5,1.5,0,0,0,0-3Z"/></svg>