<svg id="Layer_1" data-name="Layer 1" xmlns="http://www.w3.org/2000/svg" viewBox="0 0 128 128"><title>code-lg</title><path d="M45.72,33H41.3V6a1.46,1.46,0,0,0-.11-.55v0a1.51,1.51,0,0,0-.81-.82h0a1.41,1.41,0,0,0-1.09,0h0a1.41,1.41,0,0,0-.49.33l-8.38,8.37a1.51,1.51,0,0,0,0,2.12,1.48,1.48,0,0,0,1.06.44,1.45,1.45,0,0,0,1.06-.44L38.3,9.66V33H33.88a1.5,1.5,0,0,0,0,3H45.72a1.5,1.5,0,0,0,0-3Z"/><path d="M71.15,33H66.73V6a1.46,1.46,0,0,0-.11-.55v0a1.51,1.51,0,0,0-.81-.82h0a1.41,1.41,0,0,0-1.09,0h0a1.56,1.56,0,0,0-.5.33l-8.37,8.37a1.51,1.51,0,0,0,0,2.12,1.47,1.47,0,0,0,1.06.44,1.45,1.45,0,0,0,1.06-.44l5.82-5.81V33H59.31a1.5,1.5,0,0,0,0,3H71.15a1.5,1.5,0,0,0,0-3Z"/><path d="M71.15,76.52H66.73v-27a1.42,1.42,0,0,0-.11-.55v0a1.48,1.48,0,0,0-.81-.82h0a1.54,1.54,0,0,0-1.09,0h0a1.56,1.56,0,0,0-.5.33l-8.37,8.37a1.5,1.5,0,0,0,1.06,2.56A1.49,1.49,0,0,0,57.91,59l5.82-5.81V76.52H59.31a1.5,1.5,0,1,0,0,3H71.15a1.5,1.5,0,0,0,0-3Z"/><path d="M20.29,76.52H15.87v-27a1.42,1.42,0,0,0-.11-.55v0a1.48,1.48,0,0,0-.81-.82h0a1.54,1.54,0,0,0-1.09,0h0a1.41,1.41,0,0,0-.49.33L4.93,56.86a1.51,1.51,0,0,0,0,2.12A1.53,1.53,0,0,0,6,59.42,1.49,1.49,0,0,0,7.05,59l5.82-5.81V76.52H8.45a1.5,1.5,0,1,0,0,3H20.29a1.5,1.5,0,1,0,0-3Z"/><path d="M96.58,76.52H92.16v-27a1.42,1.42,0,0,0-.11-.55v0a1.48,1.48,0,0,0-.81-.82h0a1.54,1.54,0,0,0-1.09,0h0a1.56,1.56,0,0,0-.5.33l-8.37,8.37a1.5,1.5,0,0,0,1.06,2.56A1.49,1.49,0,0,0,83.34,59l5.82-5.81V76.52H84.73a1.5,1.5,0,0,0,0,3H96.58a1.5,1.5,0,0,0,0-3Z"/><path d="M71.15,120.46H66.73v-27a1.46,1.46,0,0,0-.11-.55v0a1.51,1.51,0,0,0-.81-.82h0a1.41,1.41,0,0,0-1.09,0h0a1.56,1.56,0,0,0-.5.33l-8.37,8.37a1.51,1.51,0,0,0,0,2.12,1.47,1.47,0,0,0,1.06.44,1.45,1.45,0,0,0,1.06-.44l5.82-5.81v23.35H59.31a1.5,1.5,0,1,0,0,3H71.15a1.5,1.5,0,0,0,0-3Z"/><path d="M96.58,120.46H92.16v-27a1.46,1.46,0,0,0-.11-.55v0a1.51,1.51,0,0,0-.81-.82h0a1.41,1.41,0,0,0-1.09,0h0a1.56,1.56,0,0,0-.5.33l-8.37,8.37a1.51,1.51,0,0,0,0,2.12,1.47,1.47,0,0,0,1.06.44,1.45,1.45,0,0,0,1.06-.44l5.82-5.81v23.35H84.73a1.5,1.5,0,0,0,0,3H96.58a1.5,1.5,0,0,0,0-3Z"/><path d="M122,120.46h-4.42v-27a1.46,1.46,0,0,0-.11-.55v0a1.51,1.51,0,0,0-.81-.82h0a1.41,1.41,0,0,0-1.09,0h0a1.56,1.56,0,0,0-.5.33l-8.37,8.37a1.51,1.51,0,0,0,0,2.12,1.47,1.47,0,0,0,1.06.44,1.45,1.45,0,0,0,1.06-.44l5.82-5.81v23.35h-4.43a1.5,1.5,0,0,0,0,3H122a1.5,1.5,0,0,0,0-3Z"/><path d="M20.29,120.46H15.87v-27a1.46,1.46,0,0,0-.11-.55v0a1.51,1.51,0,0,0-.81-.82h0a1.41,1.41,0,0,0-1.09,0h0a1.41,1.41,0,0,0-.49.33L4.93,100.8a1.51,1.51,0,0,0,0,2.12,1.48,1.48,0,0,0,1.06.44,1.45,1.45,0,0,0,1.06-.44l5.82-5.81v23.35H8.45a1.5,1.5,0,1,0,0,3H20.29a1.5,1.5,0,1,0,0-3Z"/><path d="M45.72,120.46H41.3v-27a1.46,1.46,0,0,0-.11-.55v0a1.51,1.51,0,0,0-.81-.82h0a1.41,1.41,0,0,0-1.09,0h0a1.41,1.41,0,0,0-.49.33l-8.38,8.37a1.51,1.51,0,0,0,0,2.12,1.48,1.48,0,0,0,1.06.44,1.45,1.45,0,0,0,1.06-.44l5.82-5.81v23.35H33.88a1.5,1.5,0,0,0,0,3H45.72a1.5,1.5,0,1,0,0-3Z"/><path d="M13.14,4.54c-4.85,0-8.65,6.91-8.65,15.73S8.29,36,13.14,36s8.65-6.91,8.65-15.74S18,4.54,13.14,4.54Zm0,28.47c-2.67,0-5.65-5.23-5.65-12.74s3-12.73,5.65-12.73,5.65,5.23,5.65,12.73S15.81,33,13.14,33Z"/><path d="M89.43,4.54c-4.85,0-8.65,6.91-8.65,15.73S84.58,36,89.43,36s8.65-6.91,8.65-15.74S94.28,4.54,89.43,4.54Zm0,28.47c-2.67,0-5.65-5.23-5.65-12.74s3-12.73,5.65-12.73,5.65,5.23,5.65,12.73S92.1,33,89.43,33Z"/><path d="M114.86,36c4.85,0,8.65-6.91,8.65-15.74s-3.8-15.73-8.65-15.73-8.65,6.91-8.65,15.73S110,36,114.86,36Zm0-28.47c2.67,0,5.65,5.23,5.65,12.73S117.53,33,114.86,33s-5.65-5.23-5.65-12.74S112.19,7.54,114.86,7.54Z"/><path d="M114.86,48.05c-4.85,0-8.65,6.91-8.65,15.73s3.8,15.74,8.65,15.74,8.65-6.91,8.65-15.74S119.71,48.05,114.86,48.05Zm0,28.47c-2.67,0-5.65-5.23-5.65-12.74s3-12.73,5.65-12.73,5.65,5.23,5.65,12.73S117.53,76.52,114.86,76.52Z"/><path d="M38.57,48.05c-4.85,0-8.65,6.91-8.65,15.73s3.8,15.74,8.65,15.74,8.65-6.91,8.65-15.74S43.42,48.05,38.57,48.05Zm0,28.47c-2.67,0-5.65-5.23-5.65-12.74s3-12.73,5.65-12.73,5.65,5.23,5.65,12.73S41.24,76.52,38.57,76.52Z"/></svg>