<svg xmlns="http://www.w3.org/2000/svg" viewBox="0 0 24 24"><title>comment</title><path d="M20.08,1H3.92A2.88,2.88,0,0,0,1,3.88V15.06a2.88,2.88,0,0,0,2.88,2.88h3V22a1,1,0,0,0,.61.92.91.91,0,0,0,.39.08,1,1,0,0,0,.7-.29l4.77-4.77h6.67A2.88,2.88,0,0,0,23,15.06V3.88A2.88,2.88,0,0,0,20.08,1ZM21,15.06a.89.89,0,0,1-.88.88H13a1,1,0,0,0-.71.29L8.94,19.59V16.94a1,1,0,0,0-1-1h-4A.89.89,0,0,1,3,15.06V3.88A.89.89,0,0,1,3.92,3H20.08a.89.89,0,0,1,.88.88Z"/><path d="M17.88,5.2H6.05a1,1,0,0,0,0,2H17.88a1,1,0,0,0,0-2Z"/><path d="M14.76,9.2H6.05a1,1,0,0,0,0,2h8.71a1,1,0,1,0,0-2Z"/></svg>