<svg id="Layer_1" data-name="Layer 1" xmlns="http://www.w3.org/2000/svg" viewBox="0 0 128 128"><title>compass-lg</title><path d="M64,1.57A62.43,62.43,0,1,0,126.43,64,62.51,62.51,0,0,0,64,1.57Zm0,121.86A59.43,59.43,0,1,1,123.43,64,59.5,59.5,0,0,1,64,123.43Z"/><path d="M64,11.06A52.94,52.94,0,1,0,116.94,64,53,53,0,0,0,64,11.06Zm0,102.88A49.94,49.94,0,1,1,113.94,64,50,50,0,0,1,64,113.94Z"/><path d="M107,62.5H98a1.5,1.5,0,0,0,0,3H107a1.5,1.5,0,0,0,0-3Z"/><path d="M31.47,64A1.5,1.5,0,0,0,30,62.5H21.05a1.5,1.5,0,1,0,0,3H30A1.5,1.5,0,0,0,31.47,64Z"/><path d="M64,96.53A1.5,1.5,0,0,0,62.5,98V107a1.5,1.5,0,0,0,3,0V98A1.5,1.5,0,0,0,64,96.53Z"/><path d="M64,31.47A1.5,1.5,0,0,0,65.5,30V21.05a1.5,1.5,0,1,0-3,0V30A1.5,1.5,0,0,0,64,31.47Z"/><path d="M74.53,73.83,97.44,32.49s0,0,0,0a.94.94,0,0,0,.06-.15.5.5,0,0,0,0-.13.58.58,0,0,0,0-.14l0-.14v-.29l0-.14,0-.14s0-.09,0-.13a1,1,0,0,0-.07-.15s0,0,0,0l-.06-.08-.09-.13-.11-.11a.94.94,0,0,0-.1-.1l-.15-.1-.07-.05h0l-.18-.07-.1,0-.17,0-.12,0H96l-.15,0-.13,0-.12.05-.16.07h0l-41,23.42a.24.24,0,0,0-.08.06.38.38,0,0,0-.13.09l-.09.08,0,0v0l-.08.08-.09.13-.06.08L30.57,95.5l0,0-.06.14a1.12,1.12,0,0,0,0,.13l0,.14,0,.15v.29l0,.14,0,.14a.69.69,0,0,0,0,.13l.06.15,0,0,0,0a1.37,1.37,0,0,0,.17.23.6.6,0,0,0,.08.08,1.18,1.18,0,0,0,.25.19l0,0h0l.18.08a1.15,1.15,0,0,0,.17.06,1.31,1.31,0,0,0,.38.06h0a1.73,1.73,0,0,0,.38,0l.16-.07a1.54,1.54,0,0,0,.19-.08h0L74,74.41h0l.06,0a1.3,1.3,0,0,0,.23-.18.6.6,0,0,0,.08-.08,2,2,0,0,0,.17-.23Zm-1.67-3.18L57.53,55.5,92.22,35.72Zm-17.45-13L70.74,72.77,35.81,92.31Z"/></svg>