<svg id="Layer_1" data-name="Layer 1" xmlns="http://www.w3.org/2000/svg" viewBox="0 0 128 128"><title>compare-lg</title><path d="M93.1,10.17H34.9a1.5,1.5,0,0,0-1.5,1.5V116.33a1.5,1.5,0,0,0,1.5,1.5H93.1a1.5,1.5,0,0,0,1.5-1.5V11.67A1.5,1.5,0,0,0,93.1,10.17ZM91.6,114.83H36.4V13.17H91.6Z"/><path d="M26.38,23.67a1.5,1.5,0,0,0,0-3H2.62a1.5,1.5,0,0,0-1.5,1.5v83.66a1.5,1.5,0,0,0,1.5,1.5H26.38a1.5,1.5,0,1,0,0-3H4.12V23.67Z"/><path d="M125.38,20.67H101.62a1.5,1.5,0,0,0,0,3h22.26v80.66H101.62a1.5,1.5,0,0,0,0,3h23.76a1.5,1.5,0,0,0,1.5-1.5V22.17A1.5,1.5,0,0,0,125.38,20.67Z"/></svg>