<svg id="Layer_1" data-name="Layer 1" xmlns="http://www.w3.org/2000/svg" viewBox="0 0 128 128"><title>construction-lg</title><path d="M127.51,84.12c0-.08,0-.16,0-.25a1.42,1.42,0,0,0-.56-.87L76.37,32.45a1.5,1.5,0,0,0-2.56,1.06v8.26L39.92,53.17a1.49,1.49,0,0,0-1,1.42v2.76H32.51a1.5,1.5,0,0,0-1.5,1.5V82H26.54V29.54H37.46V33a1.5,1.5,0,0,0,3,0v-3.5H48a1.5,1.5,0,0,0,0-3H26.54V15.65H37.46v3.5a1.5,1.5,0,0,0,3,0v-3.5H48a1.5,1.5,0,0,0,0-3H26.54V2a1.5,1.5,0,0,0-3,0V12.65H2a1.5,1.5,0,0,0,0,3h8.4v3.5a1.5,1.5,0,0,0,3,0v-3.5h10.1V26.54H2a1.5,1.5,0,1,0,0,3h8.4V33a1.5,1.5,0,0,0,3,0v-3.5h10.1V82H9.6A9.13,9.13,0,0,0,.48,91.15v12.16a1.5,1.5,0,0,0,1.5,1.5H8.1v4.59a9.11,9.11,0,0,0,1.5,18.1H80.82a9.12,9.12,0,0,0,0-18.24h-24v-4.45H62.9a1.5,1.5,0,0,0,1.5-1.5V83.53a1.49,1.49,0,0,0-.07-.47L57.85,63.15,75.05,57l45,31.09-18.7,18.7h-4.5a1.5,1.5,0,0,0,0,3h21.1a9.72,9.72,0,0,0,6.8-2.81,9.57,9.57,0,0,0,2.81-6.71V84.19S127.51,84.15,127.51,84.12ZM9.6,85h6.57v7.23H3.48V91.15A6.12,6.12,0,0,1,9.6,85Zm77.33,33.35a6.12,6.12,0,0,1-6.11,6.12H9.6a6.12,6.12,0,0,1,0-12.24H80.82A6.12,6.12,0,0,1,86.93,118.38Zm-33.16-9.12H11.1v-4.45H53.77ZM3.48,101.81V95.26H17.67a1.5,1.5,0,0,0,1.5-1.5V85H32.51a1.5,1.5,0,0,0,1.5-1.5V60.35H38.9V83.53a1.48,1.48,0,0,0,.88,1.36L61.4,94.73v7.08ZM61.4,91.43,41.9,82.56V60.35H53.79l.77,2.39h0l6.83,21ZM56.3,58.38a1.5,1.5,0,0,0-1.42-1h-13V55.67L73.81,44.94v9.31l-16.88,6Zm20.51-3.83V37.14l47.07,47.07-1.71,1.71Zm45.77,50.29a6.59,6.59,0,0,1-4.67,1.94H105.56L123.32,89s.08,0,.11-.08l1.09-1.09v12.4A6.48,6.48,0,0,1,122.58,104.84Z"/></svg>