<svg id="Layer_1" data-name="Layer 1" xmlns="http://www.w3.org/2000/svg" viewBox="0 0 128 128"><path d="M18.73,76.88H50.05a1.5,1.5,0,0,0,1.5-1.5V73.85a1.28,1.28,0,0,0,0-.19A13,13,0,0,0,44,63.47L39.8,61.63V59.71a8.74,8.74,0,0,0,3.07-6.62V49.37a8.83,8.83,0,0,0-8.11-8.91,8.69,8.69,0,0,0-9.26,8.66v4a8.72,8.72,0,0,0,3.07,6.62v1.94L24.78,63.4a13.05,13.05,0,0,0-7.54,10.26,1.28,1.28,0,0,0,0,.19v1.53A1.5,1.5,0,0,0,18.73,76.88ZM26,66.12,30.7,64a1.49,1.49,0,0,0,.87-1.36V59a1.49,1.49,0,0,0-.64-1.22,5.71,5.71,0,0,1-2.43-4.66v-4a5.68,5.68,0,0,1,6.07-5.67,5.83,5.83,0,0,1,5.3,5.92v3.72a5.71,5.71,0,0,1-2.43,4.66A1.49,1.49,0,0,0,36.8,59v3.64A1.5,1.5,0,0,0,37.69,64l5,2.24a10,10,0,0,1,5.81,7.66H20.24A10.07,10.07,0,0,1,26,66.12Z"/><path d="M63.92,47.64h41.37a1.5,1.5,0,0,0,0-3H63.92a1.5,1.5,0,0,0,0,3Z"/><path d="M63.92,60.16h41.37a1.5,1.5,0,0,0,0-3H63.92a1.5,1.5,0,0,0,0,3Z"/><path d="M63.92,72.68h41.37a1.5,1.5,0,1,0,0-3H63.92a1.5,1.5,0,0,0,0,3Z"/><path d="M123.68,21.38H4.32a1.5,1.5,0,0,0-1.5,1.5v82.24a1.5,1.5,0,0,0,1.5,1.5H17a1.5,1.5,0,0,0,1.5-1.5,5.36,5.36,0,0,1,10.72,0,1.5,1.5,0,0,0,1.5,1.5H43.74a1.5,1.5,0,0,0,1.5-1.5,5.36,5.36,0,0,1,10.72,0,1.5,1.5,0,0,0,1.5,1.5H70.54a1.5,1.5,0,0,0,1.5-1.5,5.36,5.36,0,0,1,10.72,0,1.5,1.5,0,0,0,1.5,1.5H97.33a1.5,1.5,0,0,0,1.5-1.5,5.36,5.36,0,0,1,10.72,0,1.5,1.5,0,0,0,1.5,1.5h12.63a1.5,1.5,0,0,0,1.5-1.5V22.88A1.5,1.5,0,0,0,123.68,21.38Zm-1.5,82.24h-9.76a8.37,8.37,0,0,0-16.46,0H85.62a8.36,8.36,0,0,0-16.45,0H58.83a8.36,8.36,0,0,0-16.45,0H32a8.37,8.37,0,0,0-16.46,0H5.82V24.38H122.18Z"/></svg>