<svg id="Layer_1" data-name="Layer 1" xmlns="http://www.w3.org/2000/svg" viewBox="0 0 128 128"><path d="M125.68,64.18l-12.35-38a2.5,2.5,0,0,0-3.15-1.6L95.05,29.54a2.51,2.51,0,0,0-1.61,3.15L94,34.27,89.88,36a2.71,2.71,0,0,1-1.06.12L67.11,32.26a9.49,9.49,0,0,0-8,2.31L55.4,37.88l-10.86.42a2.79,2.79,0,0,1-1.14-.25l-4.61-2.38.74-1.42a2.5,2.5,0,0,0-1.07-3.37L24.34,23.54a2.44,2.44,0,0,0-1.91-.16A2.41,2.41,0,0,0,21,24.61L2.56,60a2.51,2.51,0,0,0,1.07,3.37l14.12,7.34A2.51,2.51,0,0,0,18.9,71a2.48,2.48,0,0,0,2.22-1.35l.69-1.32,1.62.87a2.64,2.64,0,0,1,.75.74l2.61,4.85-.56.75a5.83,5.83,0,0,0-1.11,4.34,5.87,5.87,0,0,0,5.78,5l.27,0a5.94,5.94,0,0,0,0,1.63,6.07,6.07,0,0,0,2.5,4,6.15,6.15,0,0,0,3.56,1.14,5.79,5.79,0,0,0,.83-.06,6,6,0,0,0,6,6.08,6.64,6.64,0,0,0,.77,0,5,5,0,0,0,.56-.1l0,.26a5.77,5.77,0,0,0,5.73,4.94,5.81,5.81,0,0,0,4.67-2.32l.08-.11,3.67,3.14a6.53,6.53,0,0,0,4.29,1.59l.58,0a6.6,6.6,0,0,0,6-5.8,6.5,6.5,0,0,0,3.62,1.12l.58,0a6.59,6.59,0,0,0,6-6.18,6.64,6.64,0,0,0,2.6.56,5.49,5.49,0,0,0,.58,0,6.58,6.58,0,0,0,6-6.28,6.54,6.54,0,0,0,2.16.37l.58,0a6.62,6.62,0,0,0,3.72-11.63h0a10.92,10.92,0,0,0,5.9-6,1.71,1.71,0,0,1,.52-.64l2.53-1.48.51,1.57a2.54,2.54,0,0,0,2.38,1.73,2.54,2.54,0,0,0,.77-.13l15.14-4.92a2.49,2.49,0,0,0,1.45-1.25A2.42,2.42,0,0,0,125.68,64.18ZM36.87,32.87Zm-18.18,35L5.46,61,23.4,26.43l13.24,6.88ZM29.2,81.35h0a2.85,2.85,0,0,1-.57-4l2.13-2.85a2.85,2.85,0,1,1,4.57,3.42l-2.14,2.85A2.85,2.85,0,0,1,29.2,81.35Zm6.24,6.78a3.12,3.12,0,0,1-.69-4.42l.85-1.13h0l2.13-2.86h0l2.1-2.8a3.12,3.12,0,1,1,5,3.74l-5.08,6.8A3.1,3.1,0,0,1,35.44,88.13Zm9,6.58a3,3,0,0,1-2.28-.64h0a3,3,0,0,1-.52-4.18l4.18-5.59a3,3,0,0,1,2-1.19,2.56,2.56,0,0,1,.39,0,3,3,0,0,1,1.89.67,3,3,0,0,1,.53,4.18l-4.18,5.59A3,3,0,0,1,44.48,94.71Zm9,4a2.83,2.83,0,0,1-3.91.58,2.83,2.83,0,0,1-.59-4l1-1.29a2.81,2.81,0,0,1,3.91-.58,2.76,2.76,0,0,1,1.12,1.85,2.79,2.79,0,0,1-.53,2.09ZM94.84,84.5a3.62,3.62,0,0,1-2.47,1.3,3.55,3.55,0,0,1-2.66-.86l-1.79-1.53c-.11-.11-.22-.22-.34-.32L87.41,83,73.78,71.31a1.5,1.5,0,0,0-2,2.28l14,12A3.61,3.61,0,0,1,81,90.88L67.4,79.28a1.5,1.5,0,1,0-2,2.28l10.76,9.22a1.73,1.73,0,0,0,.23.24,3.62,3.62,0,0,1-2,6.36,3.57,3.57,0,0,1-2.66-.86l-3.1-2.64a4.78,4.78,0,0,0-.46-.44,1.77,1.77,0,0,0-.24-.17l-7.48-6.4a1.5,1.5,0,0,0-1.95,2.28L66.46,96a3.6,3.6,0,0,1-2.25,6.13,3.55,3.55,0,0,1-2.66-.86l-4-3.41a5.79,5.79,0,0,0-2-6.8,5.68,5.68,0,0,0-2.66-1l.19-.25a6,6,0,0,0-4.81-9.64,6.12,6.12,0,0,0-9.84-6,5.84,5.84,0,0,0-9.68-1.84l-2-3.66a5.37,5.37,0,0,0-2-2l-1.66-.89L37.41,38.33,42,40.71a6,6,0,0,0,2.49.59h.15L51.93,41l-3.74,3.37a9.58,9.58,0,0,0-3.14,6.79l-.4,13.58a1.5,1.5,0,0,0,.75,1.34,8.59,8.59,0,0,0,6.53.84,8.13,8.13,0,0,0,5-3.84c1.14-2,2.13-7.18,2.24-7.76a2.84,2.84,0,0,1,.48-1L62,51.91,94.4,79.44A3.62,3.62,0,0,1,94.84,84.5ZM101.24,68a4.66,4.66,0,0,0-1.85,2.26,8,8,0,0,1-5.32,4.56,1.75,1.75,0,0,0-.34.15L63.65,49.36a2.56,2.56,0,0,0-3.51.18l-2.66,2.78a5.65,5.65,0,0,0-1.26,2.47,32.06,32.06,0,0,1-1.9,6.83A5.12,5.12,0,0,1,51.14,64a5.6,5.6,0,0,1-3.46-.16l.37-12.61a6.55,6.55,0,0,1,2.15-4.65L61.08,36.8a6.46,6.46,0,0,1,5.51-1.58L88.3,39.05a5.43,5.43,0,0,0,2.74-.3l3.85-1.62,9.44,29Zm7.25,1.29-12-37,14.19-4.62,12,37Z"/></svg>