<svg id="Layer_1" data-name="Layer 1" xmlns="http://www.w3.org/2000/svg" viewBox="0 0 128 128"><title>Artboard 68</title><path d="M64,19.3a3,3,0,1,0-3-3A3,3,0,0,0,64,19.3Z"/><path d="M64,107A3,3,0,1,0,67,110,3,3,0,0,0,64,107Z"/><path d="M64,2.44A61.56,61.56,0,1,0,125.56,64,61.62,61.62,0,0,0,64,2.44Zm0,120.12A58.56,58.56,0,1,1,122.56,64,58.63,58.63,0,0,1,64,122.56Z"/><path d="M101.6,68.5a1.5,1.5,0,0,0,0-3h-77a1.5,1.5,0,0,0,0,3Z"/><path d="M30.47,77.3A6.48,6.48,0,1,0,37,83.78,6.48,6.48,0,0,0,30.47,77.3Zm0,10A3.48,3.48,0,1,1,34,83.78,3.48,3.48,0,0,1,30.47,87.26Z"/><path d="M97.53,77.3A6.48,6.48,0,1,0,104,83.78,6.48,6.48,0,0,0,97.53,77.3Zm0,10A3.48,3.48,0,1,1,101,83.78,3.48,3.48,0,0,1,97.53,87.26Z"/><path d="M75.18,77.3a6.48,6.48,0,1,0,6.48,6.48A6.48,6.48,0,0,0,75.18,77.3Zm0,10a3.48,3.48,0,1,1,3.48-3.48A3.48,3.48,0,0,1,75.18,87.26Z"/><path d="M52.82,77.3a6.48,6.48,0,1,0,6.48,6.48A6.48,6.48,0,0,0,52.82,77.3Zm0,10a3.48,3.48,0,1,1,3.48-3.48A3.48,3.48,0,0,1,52.82,87.26Z"/><path d="M24.58,57.27h77a1.5,1.5,0,0,0,1.5-1.5V39.29a1.5,1.5,0,0,0-1.5-1.5h-77a1.5,1.5,0,0,0-1.5,1.5V55.77A1.5,1.5,0,0,0,24.58,57.27Zm1.5-16.48h74V54.27h-74Z"/><path d="M32.14,44.48a1.5,1.5,0,0,0-1.5,1.5v3.09a1.5,1.5,0,1,0,3,0V46A1.5,1.5,0,0,0,32.14,44.48Z"/><path d="M41,44.48a1.5,1.5,0,0,0-1.5,1.5v3.09a1.5,1.5,0,0,0,3,0V46A1.5,1.5,0,0,0,41,44.48Z"/><path d="M49.82,44.48a1.5,1.5,0,0,0-1.5,1.5v3.09a1.5,1.5,0,0,0,3,0V46A1.5,1.5,0,0,0,49.82,44.48Z"/><path d="M58.67,44.48a1.5,1.5,0,0,0-1.5,1.5v3.09a1.5,1.5,0,1,0,3,0V46A1.5,1.5,0,0,0,58.67,44.48Z"/><path d="M67.51,44.48A1.5,1.5,0,0,0,66,46v3.09a1.5,1.5,0,1,0,3,0V46A1.5,1.5,0,0,0,67.51,44.48Z"/><path d="M76.35,44.48a1.5,1.5,0,0,0-1.5,1.5v3.09a1.5,1.5,0,0,0,3,0V46A1.5,1.5,0,0,0,76.35,44.48Z"/><path d="M85.2,44.48A1.5,1.5,0,0,0,83.7,46v3.09a1.5,1.5,0,1,0,3,0V46A1.5,1.5,0,0,0,85.2,44.48Z"/><path d="M94,44.48a1.5,1.5,0,0,0-1.5,1.5v3.09a1.5,1.5,0,1,0,3,0V46A1.5,1.5,0,0,0,94,44.48Z"/></svg>