<svg xmlns="http://www.w3.org/2000/svg" viewBox="0 0 128 128"><title>data-lg</title><path d="M125.39,52.92H102.33V46a1.5,1.5,0,0,0-1.5-1.5H76.28a1.5,1.5,0,0,0-1.5,1.5v23.9H53.22V62.24a1.5,1.5,0,0,0-1.5-1.5H27.17a1.5,1.5,0,0,0-1.5,1.5V78.52H2.61A1.5,1.5,0,0,0,1.11,80v46a1.5,1.5,0,0,0,1.5,1.5H125.39a1.5,1.5,0,0,0,1.5-1.5V54.42A1.5,1.5,0,0,0,125.39,52.92ZM4.11,81.52H25.67v43H4.11ZM28.67,80V63.74H50.22V124.5H28.67Zm24.55-7.16H74.78V124.5H53.22Zm24.56-1.5V47.46H99.33v77H77.78Zm46.11,53.14H102.33V55.92h21.56Z"/><path d="M14.89,43.12A8.73,8.73,0,0,0,23.6,34.4a8.45,8.45,0,0,0-.43-2.68l9.28-4.91a8.7,8.7,0,0,0,15-1.87l7.8,1.92c0,.12,0,.24,0,.35a8.71,8.71,0,1,0,17.42,0,8.61,8.61,0,0,0-.85-3.72l10.71-8a8.68,8.68,0,0,0,13-1.19l9.16,4.51a8.86,8.86,0,0,0-.35,2.43,8.74,8.74,0,1,0,1.68-5.12l-9.16-4.51a8.88,8.88,0,0,0,.35-2.44,8.72,8.72,0,1,0-16.49,3.91L70.13,21a8.7,8.7,0,0,0-14.2,2.9L48.14,22c0-.13,0-.26,0-.39A8.72,8.72,0,1,0,31.1,24.13l-9.34,4.94a8.71,8.71,0,1,0-6.87,14Zm98.22-27.55a5.72,5.72,0,1,1-5.71,5.71A5.72,5.72,0,0,1,113.11,15.57ZM88.56,3.5a5.72,5.72,0,1,1-5.72,5.71A5.71,5.71,0,0,1,88.56,3.5ZM64,21.5a5.72,5.72,0,1,1-5.71,5.71A5.71,5.71,0,0,1,64,21.5ZM39.44,15.91a5.72,5.72,0,1,1-5.71,5.71A5.72,5.72,0,0,1,39.44,15.91ZM14.89,28.69A5.72,5.72,0,1,1,9.17,34.4,5.71,5.71,0,0,1,14.89,28.69Z"/></svg>