<svg id="Layer_1" data-name="Layer 1" xmlns="http://www.w3.org/2000/svg" viewBox="0 0 128 128"><title>day-lg</title><path d="M63.84,37.35a2.5,2.5,0,0,0,2.5-2.5v-11a2.5,2.5,0,1,0-5,0v11A2.5,2.5,0,0,0,63.84,37.35Z"/><path d="M84.5,45.78A2.5,2.5,0,0,0,86.27,45L94,37.29a2.5,2.5,0,0,0-3.54-3.54l-7.76,7.76a2.51,2.51,0,0,0,1.77,4.27Z"/><path d="M104.12,61.34h-11a2.5,2.5,0,0,0,0,5h11a2.5,2.5,0,0,0,0-5Z"/><path d="M86.49,82.73A2.5,2.5,0,0,0,83,86.27L90.71,94a2.51,2.51,0,0,0,3.54,0,2.52,2.52,0,0,0,0-3.54Z"/><path d="M64.16,90.65a2.5,2.5,0,0,0-2.5,2.5v11a2.5,2.5,0,0,0,5,0v-11A2.5,2.5,0,0,0,64.16,90.65Z"/><path d="M41.73,83,34,90.71a2.52,2.52,0,0,0,0,3.54,2.51,2.51,0,0,0,3.54,0l7.76-7.76A2.5,2.5,0,0,0,41.73,83Z"/><path d="M37.35,64.16a2.5,2.5,0,0,0-2.5-2.5h-11a2.5,2.5,0,1,0,0,5h11A2.5,2.5,0,0,0,37.35,64.16Z"/><path d="M41.51,45.27a2.53,2.53,0,0,0,1.77.73A2.5,2.5,0,0,0,45,41.73L37.29,34a2.5,2.5,0,1,0-3.54,3.54Z"/><path d="M64,42.82A21.18,21.18,0,1,0,85.18,64,21.2,21.2,0,0,0,64,42.82Zm0,37.36A16.18,16.18,0,1,1,80.18,64,16.2,16.2,0,0,1,64,80.18Z"/></svg>