<svg id="Layer_1" data-name="Layer 1" xmlns="http://www.w3.org/2000/svg" viewBox="0 0 128 128"><title>day_night-lg</title><path d="M46,19.47a2.5,2.5,0,0,0,2.5-2.5V6a2.5,2.5,0,0,0-5,0V17A2.5,2.5,0,0,0,46,19.47Z"/><path d="M66.63,27.9a2.53,2.53,0,0,0,1.77-.73l7.76-7.76a2.5,2.5,0,0,0-3.54-3.54l-7.76,7.76a2.5,2.5,0,0,0,1.77,4.27Z"/><path d="M72.78,46a2.5,2.5,0,0,0,2.5,2.5h11a2.5,2.5,0,0,0,0-5h-11A2.49,2.49,0,0,0,72.78,46Z"/><path d="M65.09,64.86a2.49,2.49,0,0,0,0,3.53l7.75,7.76a2.51,2.51,0,0,0,3.54,0,2.52,2.52,0,0,0,0-3.54l-7.76-7.75A2.49,2.49,0,0,0,65.09,64.86Z"/><path d="M46.29,72.77a2.49,2.49,0,0,0-2.5,2.5v11a2.5,2.5,0,0,0,5,0v-11A2.5,2.5,0,0,0,46.29,72.77Z"/><path d="M23.86,65.08,16.1,72.83a2.52,2.52,0,0,0,0,3.54,2.51,2.51,0,0,0,3.54,0l7.76-7.76a2.5,2.5,0,0,0-3.54-3.53Z"/><path d="M19.48,46.28a2.5,2.5,0,0,0-2.5-2.5H6a2.5,2.5,0,1,0,0,5H17A2.5,2.5,0,0,0,19.48,46.28Z"/><path d="M23.64,27.39a2.49,2.49,0,0,0,1.77.73,2.45,2.45,0,0,0,1.76-.73,2.5,2.5,0,0,0,0-3.54l-7.75-7.76a2.5,2.5,0,0,0-3.54,3.54Z"/><path d="M67.31,46.12A21.18,21.18,0,1,0,46.13,67.3,21.2,21.2,0,0,0,67.31,46.12ZM30,46.12A16.18,16.18,0,1,1,46.13,62.3,16.19,16.19,0,0,1,30,46.12Z"/><path d="M114.31,65a34.83,34.83,0,0,0-9.23-6.6,2.5,2.5,0,0,0-3.35,3.35,29.86,29.86,0,0,1-40,40A2.5,2.5,0,0,0,58.35,105a34.88,34.88,0,1,0,56-40.06Zm-3.57,45.8a29.92,29.92,0,0,1-42.27,0c-.62-.62-1.21-1.27-1.77-1.94a34.85,34.85,0,0,0,42.14-42.06c.67.56,1.31,1.15,1.93,1.77A29.91,29.91,0,0,1,110.74,110.76Z"/></svg>