<svg xmlns="http://www.w3.org/2000/svg" viewBox="0 0 128 128"><title>delivery</title><path d="M33.77,93.53A2.75,2.75,0,1,1,31,90.79,2.74,2.74,0,0,1,33.77,93.53Z"/><path d="M42.08,93.53A11.06,11.06,0,1,1,31,82.48,11.06,11.06,0,0,1,42.08,93.53Z" fill="none" stroke="#000" stroke-linecap="round" stroke-linejoin="round" stroke-width="3"/><path d="M105,93.53a2.75,2.75,0,1,1-2.75-2.74A2.74,2.74,0,0,1,105,93.53Z"/><path d="M113.26,93.53a11.06,11.06,0,1,1-11.06-11A11.06,11.06,0,0,1,113.26,93.53Z" fill="none" stroke="#000" stroke-linecap="round" stroke-linejoin="round" stroke-width="3"/><path d="M20,91H16c-6.43,0-7.69-.35-7.69-5.67V29.08c0-5.32,1.26-5.67,7.69-5.67H78.9c6.44,0,7.7.35,7.7,5.67V91" fill="none" stroke="#000" stroke-linecap="round" stroke-linejoin="round" stroke-width="3"/><line x1="90.15" y1="90.99" x2="42.08" y2="90.99" fill="none" stroke="#000" stroke-linecap="round" stroke-linejoin="round" stroke-width="3"/><path d="M91.54,58h23.22a4.71,4.71,0,0,1,4.94,4.41V86.59a4.71,4.71,0,0,1-4.94,4.4" fill="none" stroke="#000" stroke-linecap="round" stroke-linejoin="round" stroke-width="3"/><polygon points="103.15 41.88 111.88 58.02 86.6 58.02 86.6 41.88 103.15 41.88" fill="none" stroke="#000" stroke-linecap="round" stroke-linejoin="round" stroke-width="3"/><path d="M111.13,74.59a1.3,1.3,0,0,0,1.28,1.31h6a1.3,1.3,0,0,0,1.28-1.31v-3a1.3,1.3,0,0,0-1.28-1.31h-5.16a2.13,2.13,0,0,0-2.13,2.13Z" fill="none" stroke="#000" stroke-linecap="round" stroke-linejoin="round" stroke-width="3"/><path d="M86.6,33.74H99.85c2,0,3.56.56,3.56,1.24l3,5.67c0,.68-1.6,1.23-3.56,1.23H86.6" fill="none" stroke="#000" stroke-linecap="round" stroke-linejoin="round" stroke-width="3"/><polyline points="61.39 45.18 41.34 65.23 33.51 53.04" fill="none" stroke="#000" stroke-linecap="round" stroke-linejoin="round" stroke-width="3"/></svg>