<svg id="Layer_1" data-name="Layer 1" xmlns="http://www.w3.org/2000/svg" viewBox="0 0 128 128"><path d="M31,90.79a2.74,2.74,0,1,0,2.75,2.74A2.74,2.74,0,0,0,31,90.79Z"/><path d="M102.2,90.79A2.74,2.74,0,1,0,105,93.53,2.74,2.74,0,0,0,102.2,90.79Z"/><path d="M114.76,56.52h-2l-7.29-13.47c1.36-.39,2.42-1.14,2.42-2.4a1.47,1.47,0,0,0-.18-.71l-2.87-5.43c-.4-1.66-2.87-2.27-5-2.27H88.1V29.08c0-6.58-2.39-7.17-9.2-7.17H16c-6.81,0-9.19.59-9.19,7.17V85.32c0,6.59,2.38,7.17,9.19,7.17h2.53c0,.35-.05.69-.05,1a12.56,12.56,0,1,0,25.11,0c0-.35,0-.69-.06-1H89.7c0,.35,0,.69,0,1a12.56,12.56,0,1,0,25.11,0c0-.35,0-.7-.05-1h.05a6.2,6.2,0,0,0,6.44-5.9V62.43A6.2,6.2,0,0,0,114.76,56.52ZM31,103.09a9.56,9.56,0,1,1,9.56-9.56A9.56,9.56,0,0,1,31,103.09ZM85.1,41.88V89.49H42.9a12.54,12.54,0,0,0-23.75,0H16c-6.19,0-6.19-.15-6.19-4.17V29.08c0-4,0-4.17,6.19-4.17H78.9c6.2,0,6.2.16,6.2,4.17Zm3-6.64H99.85a6,6,0,0,1,2.19.34,1,1,0,0,0,0,.1l2.4,4.53a6.89,6.89,0,0,1-1.63.17H88.1Zm0,8.14h14.16l7.11,13.14H88.1Zm14.11,59.71a9.56,9.56,0,1,1,9.55-9.56A9.57,9.57,0,0,1,102.21,103.09Zm16-28.69h-5.57v-2a.63.63,0,0,1,.63-.63h4.94Zm0-5.61h-4.94a3.64,3.64,0,0,0-3.63,3.63v2.17a2.8,2.8,0,0,0,2.78,2.81h5.79v9.19a3.21,3.21,0,0,1-3.44,2.9,1.46,1.46,0,0,0-.63.15,12.54,12.54,0,0,0-23.81-.13l-.17,0H88.1v-30h26.66a3.21,3.21,0,0,1,3.44,2.91Z"/><path d="M60.33,44.12,41.59,62.85,34.77,52.23a1.5,1.5,0,0,0-2.53,1.62L40.08,66a1.5,1.5,0,0,0,1.1.68h.16a1.52,1.52,0,0,0,1.06-.44L62.45,46.24a1.5,1.5,0,0,0-2.12-2.12Z"/></svg>