<svg id="Layer_1" data-name="Layer 1" xmlns="http://www.w3.org/2000/svg" viewBox="0 0 128 128"><path d="M124.94,111.08,85.57,71.72a46.13,46.13,0,0,0-2.64-53.54l4.39-4.84a6.84,6.84,0,0,0,3.74,1.1A7,7,0,0,0,97.87,9h10.06a1.5,1.5,0,0,0,0-3H97.87a7,7,0,1,0-12.68,5.25L81,15.86a46.31,46.31,0,1,0-8.91,69.58l39.25,39.25a9.63,9.63,0,0,0,13.62-13.61ZM91.06,3.5a4,4,0,1,1-4,4A4,4,0,0,1,91.06,3.5ZM3.26,46.81A43.31,43.31,0,1,1,46.57,90.12,43.36,43.36,0,0,1,3.26,46.81Zm119.56,75.76a6.65,6.65,0,0,1-9.38,0L74.55,83.68a46.74,46.74,0,0,0,9.3-9.44l39,39a6.68,6.68,0,0,1,0,9.37Z"/><path d="M46.57,8.66A38.15,38.15,0,1,0,84.72,46.81,38.19,38.19,0,0,0,46.57,8.66Zm0,3A35.07,35.07,0,0,1,73.71,24.5l-5.54,5.82a7,7,0,0,0-9.93,9.24l-10,10.31a6.88,6.88,0,0,0-6.94.06l-8.86-8.86a7,7,0,1,0-12.68-5.24l-6.53-.09A35.21,35.21,0,0,1,46.57,11.66ZM60.32,36.12a4,4,0,1,1,4,4A4,4,0,0,1,60.32,36.12ZM44.8,52a4,4,0,1,1-4,4A4,4,0,0,1,44.8,52ZM29.32,40.09c-.06,0-.08.13-.13.19a3.92,3.92,0,0,1-2.65,1,4,4,0,1,1,4-4,3.9,3.9,0,0,1-1,2.63A1,1,0,0,0,29.32,40.09ZM46.57,82A35.19,35.19,0,0,1,11.42,46.81a34.7,34.7,0,0,1,.95-8.08l7.36.1A7,7,0,0,0,30.31,43.2L39.08,52a6.88,6.88,0,0,0-1.25,4,7,7,0,1,0,12.63-4.07l9.8-10.08a7,7,0,0,0,10-9.3l5.29-5.56a35.12,35.12,0,0,1-29,55Z"/></svg>