<svg xmlns="http://www.w3.org/2000/svg" viewBox="0 0 128 128"><title>digging</title><path d="M47.59,95.83h0a1.5,1.5,0,0,0,0,3c9.09.14,11.47,3.11,11.57,3.23a1.51,1.51,0,0,0,2.05.43,1.51,1.51,0,0,0,.46-2.07C61.34,100,58.5,96,47.59,95.83Z"/><path d="M110.91,93.58c-5.27-3.71-12-5.38-20.21-5L97,73.76a5.09,5.09,0,0,0-2.44-6.55l-4.28-2.09,1.31-2.72a5.05,5.05,0,0,0,.17-4,5.38,5.38,0,0,0-.73-1.28l16-32.09a5,5,0,0,0,.51-2.35,2,2,0,0,0,.39-.13l5.92-2.93a5.07,5.07,0,0,0,.11-9l-7.88-4.13a5.07,5.07,0,0,0-7.39,5l.71,6.58a1.36,1.36,0,0,0,.18.57A5,5,0,0,0,98,20.55L82,53.12a5.1,5.1,0,0,0-4.24,2.67l-1.36,2.56L71.68,56a5.06,5.06,0,0,0-6.87,2.54L57,76.52c-.63,0-1.26.11-1.9.2-12.51,1.79-20.19,11.81-22.92,16a2.07,2.07,0,0,1-1.84.94c-8.12-.35-14.44,1.58-18.76,5.75C6,104.9,5.19,112.86,5.24,117.12a5.07,5.07,0,0,0,5.07,5H117.69a5.06,5.06,0,0,0,5-5.54C122.21,110.73,120,100,110.91,93.58ZM102.62,9.26a2,2,0,0,1,2.13-.12l7.87,4.12a2.07,2.07,0,0,1,0,3.69l-5.91,2.93a4.86,4.86,0,0,0-1.79-1.6,5,5,0,0,0-2.44-.54l-.71-6.55A2,2,0,0,1,102.62,9.26ZM100.7,21.87a2,2,0,0,1,1.2-1.05,2.07,2.07,0,0,1,2.51,2.89L88.6,55.35,85,53.83ZM80.45,57.19a2.08,2.08,0,0,1,2.64-.93l4.77,2a2.07,2.07,0,0,1,1,2.8l-1.3,2.71-8.48-4.14ZM67.56,59.76a2.07,2.07,0,0,1,2.81-1l6,2.94h0l16.89,8.25a2.07,2.07,0,0,1,1,2.67L87.33,88.86l-.36,0c-9.24-7.87-18.18-12-26.65-12.4Zm51.66,58.67a2,2,0,0,1-1.53.68H10.31a2.06,2.06,0,0,1-2.07-2c0-3.78.61-10.81,5.45-15.49,3.41-3.29,8.38-5,14.81-5,.57,0,1.15,0,1.74,0a5.06,5.06,0,0,0,4.49-2.31c2.5-3.87,9.54-13.06,20.83-14.68,8.49-1.21,17.7,2.08,27.42,9.8-1.87.34-3.79.76-5.78,1.27A1.5,1.5,0,0,0,78,93.67,69.81,69.81,0,0,1,86.64,92l.09,0c9.37-1.18,16.9.18,22.45,4.09,8.07,5.69,10.09,15.48,10.57,20.81A2,2,0,0,1,119.22,118.43Z"/></svg>