<svg id="Layer_1" data-name="Layer 1" xmlns="http://www.w3.org/2000/svg" viewBox="0 0 128 128"><title>direction-lg</title><path d="M126.08,64.57v0a1.56,1.56,0,0,0,0-1.1v0a1.37,1.37,0,0,0-.33-.49L106,43.22a1.5,1.5,0,1,0-2.13,2.12L121.07,62.5H65.5V6.93L82.66,24.09a1.5,1.5,0,0,0,2.12,0,1.51,1.51,0,0,0,0-2.13L65.06,2.25a1.37,1.37,0,0,0-.49-.33h0a1.43,1.43,0,0,0-1.1,0h0a1.37,1.37,0,0,0-.49.33L43.22,22a1.51,1.51,0,0,0,0,2.13,1.5,1.5,0,0,0,2.12,0L62.5,6.93V62.5H6.93L24.09,45.34A1.5,1.5,0,0,0,22,43.22L2.25,62.94a1.37,1.37,0,0,0-.33.49v0a1.56,1.56,0,0,0,0,1.1v0a1.37,1.37,0,0,0,.33.49L22,84.78a1.51,1.51,0,0,0,2.13,0,1.5,1.5,0,0,0,0-2.12L6.93,65.5H62.5v55.57L45.34,103.91a1.51,1.51,0,0,0-2.12,0,1.51,1.51,0,0,0,0,2.13l19.72,19.71a1.37,1.37,0,0,0,.49.33h0a1.43,1.43,0,0,0,1.1,0h0a1.37,1.37,0,0,0,.49-.33L84.78,106a1.51,1.51,0,0,0,0-2.13,1.51,1.51,0,0,0-2.12,0L65.5,121.07V65.5h55.57L103.91,82.66a1.5,1.5,0,0,0,0,2.12,1.51,1.51,0,0,0,2.13,0l19.71-19.72A1.37,1.37,0,0,0,126.08,64.57Z"/></svg>