<svg id="Layer_1" data-name="Layer 1" xmlns="http://www.w3.org/2000/svg" viewBox="0 0 128 128"><path d="M113,3.05H15A6,6,0,0,0,9.09,9V119A6,6,0,0,0,15,125h98a6,6,0,0,0,5.93-5.94V9A6,6,0,0,0,113,3.05ZM81,43.78l-.06,0-.06,0c-.08.05-7.65,5.69-15,0-9-7-20.07-.39-20.54-.1l0,0-.07,0c-.08.05-7.65,5.69-14.95,0-6.68-5.2-14.47-2.91-18.25-1.25V29.4H115.91V44.26c-1.92,1.19-8.23,4.39-14.35-.38C92.54,36.86,81.49,43.5,81,43.78ZM15,6.05h98A2.94,2.94,0,0,1,115.91,9V26.4H12.09V9A2.94,2.94,0,0,1,15,6.05ZM113,122H15A2.94,2.94,0,0,1,12.09,119V46c2.37-1.21,10.18-4.55,16.4.29a14.2,14.2,0,0,0,8.9,3.17A17.79,17.79,0,0,0,47,46.31c.69-.4,9.93-5.63,17.08-.07A14.2,14.2,0,0,0,73,49.41a17.79,17.79,0,0,0,9.62-3.09c.64-.37,9.95-5.64,17.09-.08a14.2,14.2,0,0,0,8.9,3.17,17,17,0,0,0,7.3-1.76V119A2.94,2.94,0,0,1,113,122Z"/><path d="M104.06,20a3.73,3.73,0,1,0-3.72-3.72A3.73,3.73,0,0,0,104.06,20Zm0-5.45a1.73,1.73,0,1,1-1.72,1.73A1.73,1.73,0,0,1,104.06,14.5Z"/><path d="M93.19,20a3.73,3.73,0,1,0-3.72-3.72A3.73,3.73,0,0,0,93.19,20Zm0-5.45a1.73,1.73,0,1,1-1.72,1.73A1.74,1.74,0,0,1,93.19,14.5Z"/><path d="M77.2,60.85H50.8a1.25,1.25,0,0,0-1.25,1.25V76.65A11.18,11.18,0,0,0,59.9,87.78v12.79a6.55,6.55,0,0,0-6.33,6.54v2.46a1.25,1.25,0,0,0,1.25,1.25H73.18a1.25,1.25,0,0,0,1.25-1.25v-2.46a6.55,6.55,0,0,0-6.22-6.53V87.77A11.17,11.17,0,0,0,78.45,76.65V62.1A1.25,1.25,0,0,0,77.2,60.85Zm-14.8,27h3.31v12.74H62.4Zm9.53,19.29v1.21H56.07v-1.21a4.05,4.05,0,0,1,4-4h7.78A4.05,4.05,0,0,1,71.93,107.11Zm4-30.46a8.68,8.68,0,0,1-8.67,8.67H60.72a8.68,8.68,0,0,1-8.67-8.67V63.35H76Z"/></svg>