<svg id="Layer_1" data-name="Layer 1" xmlns="http://www.w3.org/2000/svg" viewBox="0 0 128 128"><path d="M124.91,116.94a1.59,1.59,0,0,0,.07-.38v-.15a1.46,1.46,0,0,0-.1-.45.13.13,0,0,0,0-.06h0a1.42,1.42,0,0,0-.29-.43s0,0,0,0l-7.27-7a1.5,1.5,0,1,0-2.08,2.16l4.6,4.45H13V7.89L17.52,12a1.5,1.5,0,0,0,2-2.22l-7-6.34a1.9,1.9,0,0,0-.43-.26l-.12,0a1.76,1.76,0,0,0-.4-.07h-.14a1.52,1.52,0,0,0-.46.1h-.07a1.37,1.37,0,0,0-.42.29s0,0,0,0l-7,7.26a1.5,1.5,0,0,0,1.08,2.55,1.53,1.53,0,0,0,1.08-.46L10,8.21V116.35c0,.05,0,.1,0,.15a1.5,1.5,0,0,0,1.5,1.5H120.11l-4.06,4.49a1.49,1.49,0,0,0,1.11,2.5,1.48,1.48,0,0,0,1.11-.49l6.33-7a1.48,1.48,0,0,0,.27-.43S124.89,117,124.91,116.94Z"/><path d="M25.66,57.83a.4.4,0,0,0,.62.15l3.26-2.25V73a.41.41,0,0,0,.47.46h2.71c.28,0,.43-.15.43-.46V51.88c0-.31-.15-.47-.43-.47H30.34a.8.8,0,0,0-.55.16l-5.27,3.57a.46.46,0,0,0-.12.65Z"/><path d="M37.22,73.45H51.05a.41.41,0,0,0,.47-.46v-2.4a.42.42,0,0,0-.47-.47H42.3c2-1.85,3.61-3.57,4.59-4.71,2.62-3,4.29-5.21,4.29-8.11,0-4.13-3-6.26-6.91-6.26a9.14,9.14,0,0,0-7,3.24.43.43,0,0,0,0,.62l1.45,2a.35.35,0,0,0,.61,0,6.78,6.78,0,0,1,4.93-2.47c2.35,0,3.24,1.45,3.24,2.93,0,2.16-1.88,4.26-4.25,6.72L37,70.59a.69.69,0,0,0-.22.55V73A.4.4,0,0,0,37.22,73.45Z"/><path d="M62.45,73.82c3.73,0,7.59-2.16,7.59-7.55v-7.8c0-5.3-3.86-7.43-7.59-7.43s-7.61,2.13-7.61,7.43v7.8C54.84,71.66,58.73,73.82,62.45,73.82Zm-4-15.29c0-3.17,2.15-4,4-4s4,.83,4,4v7.86c0,3.12-2.13,4-4,4s-4-.83-4-4Z"/><path d="M80.94,73.45h2.65a.4.4,0,0,0,.46-.46V60.66a8.66,8.66,0,0,1,2.47-.34c2,0,3,1,3,3.24V73a.42.42,0,0,0,.46.46h2.66a.41.41,0,0,0,.46-.46V63.62a8.09,8.09,0,0,0-.4-2.5,4.83,4.83,0,0,1,2.71-.77c2.22,0,3.17,1.2,3.17,3.21V73c0,.31.16.46.43.46h2.69c.27,0,.43-.15.43-.46V63.68c0-4.31-2.78-6.56-6.63-6.56a8.2,8.2,0,0,0-4.65,1.41,7.13,7.13,0,0,0-4.47-1.41,14.14,14.14,0,0,0-5.58,1.2.54.54,0,0,0-.37.55V73A.4.4,0,0,0,80.94,73.45Z"/><path d="M105.16,60.81h7.52a.41.41,0,0,0,.47-.46V58.84c0-.28-.16-.43-.47-.43H108.4c.4-.34,1.08-.89,1.72-1.51,1.95-1.88,2.81-3,2.81-4.78,0-2.06-1.48-3.42-3.79-3.42a5.85,5.85,0,0,0-4,1.57.45.45,0,0,0,0,.62L106,52a.4.4,0,0,0,.65,0A3.36,3.36,0,0,1,109,51c.93,0,1.45.4,1.45,1.17,0,1-.92,1.95-1.91,2.93L105,58.5a.64.64,0,0,0-.25.56v1.29A.42.42,0,0,0,105.16,60.81Z"/></svg>