<svg id="Layer_1" data-name="Layer 1" xmlns="http://www.w3.org/2000/svg" viewBox="0 0 128 128"><path d="M44.5,58.75c4.75,0,7.68-3,7.68-7.67S49.37,43.9,45,43.9a7,7,0,0,0-3.76,1l.15-5.11h9.13a.42.42,0,0,0,.46-.47V36.81a.41.41,0,0,0-.46-.46H38.37a.42.42,0,0,0-.46.46l-.4,10.63a.49.49,0,0,0,.4.53l2.09.71a.54.54,0,0,0,.62-.16,5.55,5.55,0,0,1,4-1.32c2.71,0,4,1.26,4,3.88s-1.38,4.22-4,4.22a7.92,7.92,0,0,1-5-1.88c-.24-.21-.46-.24-.65,0l-1.69,1.85a.44.44,0,0,0,0,.65A10.52,10.52,0,0,0,44.5,58.75Z"/><path d="M62.47,58.38h2.65a.4.4,0,0,0,.46-.46V45.59a8.66,8.66,0,0,1,2.47-.34c2,0,3,1,3,3.24v9.43a.42.42,0,0,0,.46.46h2.65a.4.4,0,0,0,.46-.46V48.55a7.69,7.69,0,0,0-.4-2.49A4.78,4.78,0,0,1,77,45.28c2.22,0,3.18,1.21,3.18,3.21v9.43c0,.31.15.46.43.46h2.68c.28,0,.43-.15.43-.46V48.61c0-4.31-2.77-6.56-6.62-6.56a8.17,8.17,0,0,0-4.66,1.42A7.07,7.07,0,0,0,68,42.05a14.09,14.09,0,0,0-5.57,1.2.55.55,0,0,0-.37.56V57.92A.4.4,0,0,0,62.47,58.38Z"/><path d="M121.39,83.67s0,0,0-.06a1.38,1.38,0,0,0,.08-.45v0s0,0,0,0h0V83a1.89,1.89,0,0,0-.11-.47h0a0,0,0,0,0,0,0s0,0,0,0a1.4,1.4,0,0,0-.3-.42h0l-7.26-7a1.5,1.5,0,0,0-2.09,2.16l4.6,4.45H11.37l4.09-4.52a1.5,1.5,0,0,0-2.22-2l-6.34,7-.08.13-.15.24a.67.67,0,0,0-.06.12l0,.12a1.42,1.42,0,0,0-.07.42h0s0,0,0,0v0a1.48,1.48,0,0,0,.62,1.15l7.09,6.86a1.5,1.5,0,0,0,2.09-2.15l-4.57-4.42H116.61l-4.07,4.49a1.49,1.49,0,0,0,.11,2.12,1.46,1.46,0,0,0,1,.38,1.5,1.5,0,0,0,1.12-.49l6.33-7,0,0a1.29,1.29,0,0,0,.26-.42S121.39,83.68,121.39,83.67Z"/></svg>