<svg id="Layer_1" data-name="Layer 1" xmlns="http://www.w3.org/2000/svg" viewBox="0 0 128 128"><path d="M124.91,116.94a1.59,1.59,0,0,0,.07-.38v-.15a1.64,1.64,0,0,0-.09-.44.64.64,0,0,0,0-.07h0a1.42,1.42,0,0,0-.29-.43s0,0,0,0l-7.27-7a1.5,1.5,0,1,0-2.08,2.16l4.6,4.45H13V7.89L17.52,12a1.5,1.5,0,0,0,2-2.22l-7-6.34a1.7,1.7,0,0,0-.43-.26l-.13,0A1.59,1.59,0,0,0,11.6,3h-.15a1.8,1.8,0,0,0-.45.09l-.06,0h0a1.37,1.37,0,0,0-.42.29s0,0,0,0l-7,7.26a1.5,1.5,0,0,0,1.08,2.55,1.45,1.45,0,0,0,1.07-.46L10,8.21V116.36s0,.09,0,.14a1.5,1.5,0,0,0,1.5,1.5H120.11l-4.06,4.49a1.49,1.49,0,0,0,1.11,2.5,1.47,1.47,0,0,0,1.11-.49l6.34-7a1.83,1.83,0,0,0,.26-.42A1,1,0,0,0,124.91,116.94Z"/><path d="M28.78,67c0,4.38,3.3,6.84,8,6.84s8-2.46,8-6.84a5.53,5.53,0,0,0-3-5.18,5.3,5.3,0,0,0,2.49-4.68c0-3.36-3.08-6.08-7.46-6.08s-7.46,2.72-7.46,6.08A5.28,5.28,0,0,0,31.8,61.8,5.58,5.58,0,0,0,28.78,67Zm8-12.61c2.41,0,3.86,1.11,3.86,2.93,0,2-1.45,3.18-3.86,3.18s-3.85-1.18-3.85-3.18C32.94,55.48,34.36,54.37,36.79,54.37Zm0,9.31c2.65,0,4.35,1.23,4.35,3.27s-1.7,3.51-4.35,3.51S32.45,69,32.45,67,34.14,63.68,36.79,63.68Z"/><path d="M55.84,73.82c3.73,0,7.58-2.16,7.58-7.55v-7.8c0-5.3-3.85-7.43-7.58-7.43s-7.62,2.13-7.62,7.43v7.8C48.22,71.66,52.11,73.82,55.84,73.82Zm-4-15.28c0-3.18,2.16-4,4-4s4,.83,4,4v7.85c0,3.12-2.12,4-4,4s-4-.83-4-4Z"/><path d="M67.67,73.45h2.65a.4.4,0,0,0,.46-.46V60.66a8.66,8.66,0,0,1,2.47-.34c2,0,3,1,3,3.24V73a.42.42,0,0,0,.46.46h2.65a.4.4,0,0,0,.46-.46V63.62a7.8,7.8,0,0,0-.4-2.5,4.86,4.86,0,0,1,2.72-.77c2.21,0,3.17,1.2,3.17,3.21V73c0,.31.15.46.43.46h2.68c.28,0,.43-.15.43-.46V63.68c0-4.31-2.77-6.56-6.62-6.56a8.17,8.17,0,0,0-4.66,1.42,7.07,7.07,0,0,0-4.47-1.42,14.09,14.09,0,0,0-5.57,1.2.54.54,0,0,0-.37.55V73A.4.4,0,0,0,67.67,73.45Z"/><path d="M91.89,60.81h7.52a.4.4,0,0,0,.46-.46V58.84c0-.28-.15-.43-.46-.43H95.12c.41-.34,1.08-.89,1.73-1.51,1.94-1.88,2.81-3,2.81-4.78,0-2.06-1.48-3.42-3.79-3.42a5.85,5.85,0,0,0-4,1.57.43.43,0,0,0,0,.62L92.69,52c.15.22.4.25.65,0a3.34,3.34,0,0,1,2.37-1c.92,0,1.45.41,1.45,1.17,0,1-.93,1.95-1.91,2.93L91.67,58.5a.65.65,0,0,0-.24.56v1.29A.42.42,0,0,0,91.89,60.81Z"/></svg>