<svg xmlns="http://www.w3.org/2000/svg" viewBox="0 0 24 24"><title>doc</title><path d="M22,11.3H17.92V8.44a1,1,0,0,0-.29-.71L11.19,1.29A1,1,0,0,0,10.48,1H2A1,1,0,0,0,1,2V22a1,1,0,0,0,1,1H16.92a1,1,0,0,0,1-1V19.36H22a1,1,0,0,0,1-1V12.3A1,1,0,0,0,22,11.3ZM11.48,4.41l3,3h-3ZM15.92,21H3V3H9.48V8.44a1,1,0,0,0,1,1h5.44V11.3H8.29a1,1,0,0,0-1,1v6.06a1,1,0,0,0,1,1h7.63Zm-3.17-5.67a1.81,1.81,0,0,1-2,1.94H9.69A.21.21,0,0,1,9.46,17V13.62a.2.2,0,0,1,.23-.22h1.09A1.8,1.8,0,0,1,12.75,15.33Zm2.45,2a2,2,0,0,1-2-2,2,2,0,0,1,4,0A2,2,0,0,1,15.2,17.33ZM21,16.85a2.14,2.14,0,0,1-1.37.48,2,2,0,1,1,0-4,2.13,2.13,0,0,1,1.26.39.2.2,0,0,1,0,.31l-.09.16c-.08.13-.18.14-.31.06a1.63,1.63,0,0,0-.88-.28,1.25,1.25,0,0,0-1.29,1.33,1.29,1.29,0,0,0,1.3,1.39,1.65,1.65,0,0,0,.95-.34c.12-.09.23-.09.31,0l.11.14A.22.22,0,0,1,21,16.85Z"/><path d="M10.16,14v2.66h.58A1.2,1.2,0,0,0,12,15.33,1.2,1.2,0,0,0,10.74,14Z"/><path d="M15.2,14a1.27,1.27,0,0,0-1.27,1.33,1.28,1.28,0,1,0,2.55,0A1.28,1.28,0,0,0,15.2,14Z"/></svg>