<svg xmlns="http://www.w3.org/2000/svg" viewBox="0 0 128 128"><title>eco-bulb</title><path d="M64,3.11c-20.61,0-36.15,14.62-36.15,34a36,36,0,0,0,9.53,24.46,23.9,23.9,0,0,1,6.24,16.11v2.82A13.41,13.41,0,0,0,46,88.14a1.52,1.52,0,0,0-.38,1v17.36a18.41,18.41,0,1,0,36.82,0V89.12a1.47,1.47,0,0,0-.38-1,13.46,13.46,0,0,0,2.35-7.64V77.69a23.86,23.86,0,0,1,6.24-16.1,36.06,36.06,0,0,0,9.53-24.47C100.15,17.73,84.61,3.11,64,3.11ZM79.41,90.62v4.55H48.59V90.62ZM64,121.89a15.42,15.42,0,0,1-15.41-15.41V98.17H79.41v8.31A15.42,15.42,0,0,1,64,121.89ZM88.41,59.56a26.84,26.84,0,0,0-7,18.13v2.82a10.49,10.49,0,0,1-2.77,7.11H65.5V63.22q1.16-.57,2.43-1.35l4.45-.13h.14c3.31-.4,7.94-1.57,11.24-4.88,5.91-5.9,5.07-16,5-16.42a1.5,1.5,0,0,0-1.36-1.36c-.42,0-10.52-.88-16.42,5-5,4.94-5.16,12.82-5.08,15.49-.68.4-1.32.73-1.93,1-.61-.29-1.25-.62-1.93-1C62.15,56.92,61.94,49,57,44.1c-5.9-5.9-16-5.07-16.42-5a1.5,1.5,0,0,0-1.36,1.36c0,.43-.88,10.52,5,16.42,3.3,3.31,7.93,4.48,11.24,4.88h.14l4.45.13q1.27.78,2.43,1.35v24.4H49.39a10.49,10.49,0,0,1-2.77-7.11V77.69a26.84,26.84,0,0,0-7-18.13,33,33,0,0,1-8.74-22.44c0-17.68,14.25-31,33.15-31s33.15,13.33,33.15,31A33,33,0,0,1,88.41,59.56ZM69,57.63c.15-3.07.91-8.14,4.18-11.41s8.26-4,11.34-4.17A68.74,68.74,0,0,1,69,57.63Zm16.67-12.1c-.39,2.95-1.41,6.63-4,9.2s-6.31,3.58-9.12,4A73.23,73.23,0,0,0,85.62,45.53ZM43.53,42c3.06.15,8.1.94,11.34,4.18s4,8.34,4.17,11.41A69,69,0,0,1,43.53,42ZM55.48,58.7c-2.81-.39-6.54-1.38-9.12-4s-3.58-6.24-4-9.19A73.78,73.78,0,0,0,55.48,58.7Z"/></svg>