<svg id="Layer_1" data-name="Layer 1" xmlns="http://www.w3.org/2000/svg" viewBox="0 0 64 64"><title>edit-md</title><path d="M2,63a1,1,0,0,1-.71-.29A1,1,0,0,1,1,61.8L4,46.68a1,1,0,0,1,.28-.53L36.67,13.81l0-.06.06-.05,6.55-6.55.05-.05s0,0,0,0L46.68,3.8A9.49,9.49,0,0,1,53.44,1h0A9.46,9.46,0,0,1,60.2,3.8a9.57,9.57,0,0,1,0,13.52l-3.29,3.29h0l0,0-6.62,6.62h0l0,0L17.88,59.63a1,1,0,0,1-.56.33L2.19,63ZM6,47.33,3.27,60.73l13.36-2.67.4-.4L6.33,47ZM15.8,53.6l2.64,2.65L48.13,26.57l-2.65-2.65Zm-4.05-4.05,2.64,2.64L44.07,22.51l-2.65-2.64Zm-4-4,2.58,2.58L40,18.45l-2.58-2.57ZM46.2,21.81l3.34,3.34,5.24-5.23L44.08,9.23l-5.23,5.23,3.27,3.27v0h0l4,4h0Zm-.7-14L56.19,18.5l2.6-2.59A7.56,7.56,0,0,0,48.1,5.21ZM62,63H23.72a1,1,0,0,1,0-2H62a1,1,0,0,1,0,2Z"/></svg>