<svg xmlns="http://www.w3.org/2000/svg" viewBox="0 0 128 128"><title>edit-lg</title><path d="M2,127.5a1.5,1.5,0,0,1-1.06-.44,1.47,1.47,0,0,1-.41-1.35L6.77,94.44a1.44,1.44,0,0,1,.43-.78L74.08,26.78a.76.76,0,0,1,.09-.09l.09-.09L87.82,13l.09-.1a.39.39,0,0,1,.1-.08l6.73-6.74A19.1,19.1,0,0,1,108.31.5h0a19.2,19.2,0,0,1,13.57,32.77l-6.8,6.79,0,0,0,0L101.35,53.79l0,0,0,.05L34.41,120.73a1.51,1.51,0,0,1-.85.5L2.29,127.47A1.43,1.43,0,0,1,2,127.5Zm7.62-32L3.91,124.09l28.6-5.71L33.86,117,11,94.13l-.68.68C10,95.05,9.83,95.27,9.62,95.46Zm20.1,13.19L36,114.91,98.13,52.77l-6.27-6.26Zm-8.38-8.38,6.26,6.26L89.74,44.39l-6.26-6.27ZM13.09,92l6.13,6.13L81.36,36l-6.13-6.12ZM92.94,43.34l7.31,7.31L111.87,39,89,16.13,77.35,27.75l7.16,7.16,0,0,0,0,8.34,8.34v0ZM91.1,14,114,36.91l5.76-5.77a16.19,16.19,0,0,0-22.9-22.9ZM126,127.5H46.9a1.5,1.5,0,0,1,0-3H126a1.5,1.5,0,0,1,0,3Z"/></svg>