<svg xmlns="http://www.w3.org/2000/svg" viewBox="0 0 128 128"><title>eesti-energia</title><polygon points="3.92 80.18 3.92 76.71 8.91 76.71 8.91 75.46 3.92 75.46 3.92 72.34 9.44 72.34 9.44 70.89 1.84 70.89 1.84 81.6 9.56 81.6 9.56 80.18 3.92 80.18"/><polygon points="47.88 80.18 47.88 76.71 52.87 76.71 52.87 75.46 47.88 75.46 47.88 72.34 53.41 72.34 53.41 70.89 45.8 70.89 45.8 81.6 53.53 81.6 53.53 80.18 47.88 80.18"/><path d="M18.62,73.63a2.19,2.19,0,0,0-.86-.59,3.46,3.46,0,0,0-1.38-.23H14.06a3.41,3.41,0,0,0-1.36.24,2.69,2.69,0,0,0-.93.66,2.77,2.77,0,0,0-.54,1,3.86,3.86,0,0,0-.17,1.13v2.8a3.56,3.56,0,0,0,.36,1.76,2.84,2.84,0,0,0,.83,1,2.52,2.52,0,0,0,.89.39c.28,0,.46.07.55.07.7,0,2,0,2.55-.1s1-.15,1.43-.23a12.42,12.42,0,0,0,1.23-.32V80l-.68.15c-.31,0-.66.11-1.06.16l-1.28.14c-.46,0-1.08,0-1.51,0a1.46,1.46,0,0,1-.6-.12A1.54,1.54,0,0,1,13.3,80a1.65,1.65,0,0,1-.31-.45,1.44,1.44,0,0,1-.11-.53V77.91h5.59a.69.69,0,0,0,.52-.22.94.94,0,0,0,.2-.65V75.28a3.17,3.17,0,0,0-.12-.85A2.06,2.06,0,0,0,18.62,73.63Zm-1.24,3.21h-4.5V75.3a1.45,1.45,0,0,1,.31-1,1.23,1.23,0,0,1,1-.36h1.88a1.26,1.26,0,0,1,1,.36,1.39,1.39,0,0,1,.31,1Z"/><path d="M73.13,73.63a2.19,2.19,0,0,0-.86-.59,3.43,3.43,0,0,0-1.38-.23H68.56a3.48,3.48,0,0,0-1.36.24,2.9,2.9,0,0,0-.93.66,3.1,3.1,0,0,0-.53,1,3.86,3.86,0,0,0-.17,1.13v2.8a3.56,3.56,0,0,0,.36,1.76,2.84,2.84,0,0,0,.83,1,2.45,2.45,0,0,0,.89.39c.28,0,.47.07.55.07.7,0,2,0,2.55-.1s1-.15,1.43-.23a12.42,12.42,0,0,0,1.23-.32V80l-.69.15c-.3,0-.65.11-1.06.16s-.82.1-1.28.14-1.07,0-1.5,0a1.46,1.46,0,0,1-.6-.12,1.54,1.54,0,0,1-.47-.31,1.45,1.45,0,0,1-.31-.45,1.44,1.44,0,0,1-.11-.53V77.91H73a.7.7,0,0,0,.52-.22.94.94,0,0,0,.2-.65V75.28a3.17,3.17,0,0,0-.12-.85A2.2,2.2,0,0,0,73.13,73.63Zm-1.24,3.21h-4.5V75.3a1.39,1.39,0,0,1,.31-1,1.24,1.24,0,0,1,1-.36h1.88a1.26,1.26,0,0,1,1,.36,1.39,1.39,0,0,1,.31,1Z"/><path d="M28.21,77.1a1.26,1.26,0,0,0-.36-.37,1.15,1.15,0,0,0-.66-.16H22.77V74.75a.8.8,0,0,1,.18-.49.62.62,0,0,1,.53-.23H27.7V72.81H23.63a3.19,3.19,0,0,0-1.92.52A1.83,1.83,0,0,0,21,74.92v1.54c0,.88.5,1.32,1.49,1.32h4.11v1.71a1.14,1.14,0,0,1-.25.71,1,1,0,0,1-.9.33q-.75,0-1.5-.06c-.5,0-.94-.07-1.32-.12s-1.29-.11-1.77-.19v1.26a34.38,34.38,0,0,0,4.93.36l.56,0a2.77,2.77,0,0,0,.9-.29,2.37,2.37,0,0,0,.81-.8,2.79,2.79,0,0,0,.36-1.53V77.79a2.42,2.42,0,0,0,0-.28A1.64,1.64,0,0,0,28.21,77.1Z"/><path d="M34.78,80.41a9.33,9.33,0,0,1-1,.06c-1,0-1.5-.61-1.5-1.84V74h3.37V72.81H32.24v-1.4H30.77l-.34,1.4H29.37V74h1.06V78.6a3.83,3.83,0,0,0,.33,1.76,2.83,2.83,0,0,0,.76,1,2.29,2.29,0,0,0,.83.39c.27,0,.44.07.53.07.32,0,1.07,0,1.31,0a3.71,3.71,0,0,0,.65-.1l.56-.14.57-.17V80.24a2.27,2.27,0,0,0-.34.05C35.42,80.33,35.14,80.36,34.78,80.41Z"/><rect x="37.31" y="70.16" width="2.06" height="1.6"/><rect x="37.42" y="72.81" width="1.82" height="8.79"/><path d="M62.94,73.07a2,2,0,0,0-.83-.39,5.06,5.06,0,0,0-.84-.08,11.4,11.4,0,0,0-1.6.12c-.47.09-.9.19-1.3.3s-.87.25-1.4.41l-.27-.65H55.22v8.81H57V74.46c.58-.12,1.08-.2,1.48-.27L59.74,74a6.33,6.33,0,0,1,.88-.1,1.29,1.29,0,0,1,.72.18,1.31,1.31,0,0,1,.45.46,1.69,1.69,0,0,1,.18.59c0,.22,0,.41,0,.59v5.87h1.81V75.78A4.67,4.67,0,0,0,63.57,74,2.26,2.26,0,0,0,62.94,73.07Z"/><path d="M78.3,72.91a6,6,0,0,0-.63.27,4.89,4.89,0,0,0-.48.25l-.27-.63H75.45v8.79h1.81V74.36l.34-.09.5-.11.54-.09a2.68,2.68,0,0,1,.46,0h.34V72.61a1.83,1.83,0,0,0-.5.09A4.34,4.34,0,0,0,78.3,72.91Z"/><path d="M89,73a.74.74,0,0,0-.59-.22H83.44A3.19,3.19,0,0,0,82.2,73a2.67,2.67,0,0,0-.91.62,2.72,2.72,0,0,0-.56,1,3.87,3.87,0,0,0-.19,1.2v2.44A4,4,0,0,0,80.86,80a2.74,2.74,0,0,0,.73,1,1.91,1.91,0,0,0,.85.39,4.32,4.32,0,0,0,.66.07,13,13,0,0,0,1.65-.1c.44-.06.83-.13,1.19-.21a7.52,7.52,0,0,0,.93-.25l.56-.18v.65a1.65,1.65,0,0,1-.09.49,2.35,2.35,0,0,1-.3.59,1.84,1.84,0,0,1-.58.48,1.69,1.69,0,0,1-.88.21c-.46,0-1.37,0-1.81,0L82.71,83l-1.13-.12V84c.42.07.81.13,1.15.17s.63.08,1.08.11,1.8.06,2.25.06a4,4,0,0,0,.94-.13,2.7,2.7,0,0,0,1-.5,3,3,0,0,0,.85-1.06,4,4,0,0,0,.35-1.81v-.69c0-.21,0-.56,0-1V73.67s0-.1-.05-.23A1,1,0,0,0,89,73Zm-1.53,6.61-1.4.23L84.79,80a8.41,8.41,0,0,1-1,.08,1.8,1.8,0,0,1-.5-.08,1.33,1.33,0,0,1-.46-.23,1.46,1.46,0,0,1-.33-.45,2,2,0,0,1-.12-.69V75.33A1.14,1.14,0,0,1,83.69,74h3.74Z"/><rect x="90.95" y="70.15" width="2.06" height="1.6"/><rect x="91.06" y="72.8" width="1.82" height="8.79"/><path d="M102.18,73.37a1.7,1.7,0,0,0-.61-.42,2.37,2.37,0,0,0-.89-.15h-4.9V74h4c.43,0,.7.08.84.27a1,1,0,0,1,.2.63v1.22H97.36a3.48,3.48,0,0,0-1.49.27,2.48,2.48,0,0,0-.86.66,2.4,2.4,0,0,0-.37.82,3.69,3.69,0,0,0-.09.72v.51a3.05,3.05,0,0,0,.23,1.28,2.21,2.21,0,0,0,.59.81,2,2,0,0,0,.75.43,2.24,2.24,0,0,0,.71.12h.53a10.09,10.09,0,0,0,1.35-.08l.84-.22c.28-.09.53-.18.76-.28s.46-.19.65-.27l.33.68h1.35V74.72a2.65,2.65,0,0,0-.11-.74A1.68,1.68,0,0,0,102.18,73.37Zm-1.33,6.54-.6.18-.82.2c-.3.06-.6.12-.91.16a6.92,6.92,0,0,1-.87.07,1.37,1.37,0,0,1-.92-.35,1.22,1.22,0,0,1-.4-1v-1a.58.58,0,0,1,.08-.29.83.83,0,0,1,.2-.3,1.54,1.54,0,0,1,.35-.24,1.3,1.3,0,0,1,.49-.1h3.4Z"/><path d="M125.71,45.84l-1.34-.5h-.21A64.76,64.76,0,0,0,116,46.47a4.06,4.06,0,0,0-1.65-1.41,40.37,40.37,0,0,0-3.87-1.37,3.9,3.9,0,0,0-1.87.13C102.38,45.58,96,51.37,96,51.37c-2.41,2-5.71,5.36-6.57,6.17-3,2.85-4.31,3.47-5.12,3.23a1.23,1.23,0,0,1-.63-.39A10.07,10.07,0,0,1,82.44,59l.41-.18c3.46-1.69,5.77-2.17,6.2-2.81L91,53.14a1.69,1.69,0,0,0,.09-1c-.26-1.29-2-2.94-3.69-4.42s-3-2.16-3.78-2.2a1.88,1.88,0,0,0-1.27.33c-1.47.78-3.44,1.93-3.44,1.93-1.61,1-2.79,3.54-3,7.15a12.54,12.54,0,0,0,.65,4.49l.11.27a10.61,10.61,0,0,0-2.34,3.43s-.1.34-.38,2c0,0-.08.2,0,.26a.8.8,0,0,0,.74-.1c.07-.1.16-.31.21-.4a11,11,0,0,1,2.76-3.13,11.34,11.34,0,0,0,3.52,3.84,2.42,2.42,0,0,0,1.19.22c2.86-.19,7.1-4.51,7.1-4.51,2.6-2.3,4.78-4.87,7.49-7.41A34.94,34.94,0,0,1,111,45.72a2.41,2.41,0,0,1,.71-.14c.17.08.24.29.33.45s.4.83.55,1.16l-.06.15c-8.66,2.42-15.82,6.95-15.89,10.9v.15l0,.21c0,1.93.19,3.53.23,4.37l0,.22a3.41,3.41,0,0,0,.49,1.09c2.1,3,6.42,6.59,10.07,6.54,8.64-.12,10.84-8.79,10.79-14.17a20.5,20.5,0,0,0-1.39-8.35,68.24,68.24,0,0,1,9.1-2C126.26,46.22,126.24,46,125.71,45.84ZM81.1,56.6A10.73,10.73,0,0,1,80.39,52a11.43,11.43,0,0,1,.84-3.71l0,0A35.67,35.67,0,0,1,85.13,51a13,13,0,0,1,2.87,3l0,0A66,66,0,0,0,81.1,56.6Zm25.08,9.21h-.13c-2.69-.16-5.87-2.69-7.84-5.62,1.71-3.5,6.89-7.51,15.09-10.71a29.49,29.49,0,0,1,.53,5.65C113.69,59.68,111.77,66.07,106.18,65.81Z"/></svg>