<svg id="Layer_1" data-name="Layer 1" xmlns="http://www.w3.org/2000/svg" viewBox="0 0 128 128"><title>electric_car-lg</title><path d="M116.37,39.29h8.29a1.5,1.5,0,0,0,0-3h-8.29a1.5,1.5,0,0,0,0,3Z"/><path d="M116.37,50.91h8.29a1.5,1.5,0,0,0,0-3h-8.29a1.5,1.5,0,0,0,0,3Z"/><path d="M121.82,90.38C118,85.53,111.73,83,103.33,82.87,100.75,79.78,88,66.4,59.5,66.4c-12.8,0-23.65,5-31.43,10.25l-.19.13A70.93,70.93,0,0,0,15.57,87.22a3.54,3.54,0,0,0-.91,2.36v7.79a8.8,8.8,0,0,1-3.05-2.25C8.5,91.7,5,83.82,6.21,65.69c.55-8.47,4.6-14.5,12-17.92a31,31,0,0,1,11.4-2.67H91.91c.61,6.64,5.25,11.83,10.86,11.83H112a1.5,1.5,0,0,0,1.5-1.5V31.77a1.46,1.46,0,0,0-.44-1.06,1.5,1.5,0,0,0-1.06-.44h-9.27c-5.61,0-10.25,5.18-10.86,11.83H29.65c-.25,0-24.94.31-26.43,23.4C2,84.88,6,93.49,9.54,97.3a10.89,10.89,0,0,0,5.12,3.24v7.19a3.5,3.5,0,0,0,3.5,3.5h5a14.38,14.38,0,0,0,28.62,0H89.31a14.38,14.38,0,0,0,28.62,0h6.22a1.49,1.49,0,0,0,1.46-1.16C125.72,109.59,128.18,98.37,121.82,90.38ZM102.73,33.27h7.81V53.93h-7.77c-4.38,0-7.94-4.64-7.94-10.33S98.39,33.27,102.73,33.27ZM99.16,82.86H61V69.41C82.73,69.8,94.6,78.54,99.16,82.86ZM58,82.86H39.49a.54.54,0,0,1-.27-.07l-7.63-4.85c6.89-4.29,15.94-8.18,26.41-8.52ZM17.66,107.73V89.58a.47.47,0,0,1,.13-.33,66.7,66.7,0,0,1,11.05-9.5l8.78,5.57a3.45,3.45,0,0,0,1.87.54H58v22.37H51.77a14.38,14.38,0,0,0-28.58,0h-5A.5.5,0,0,1,17.66,107.73ZM37.48,121.2a11.38,11.38,0,1,1,11.38-11.38A11.39,11.39,0,0,1,37.48,121.2Zm66.14,0A11.38,11.38,0,1,1,115,109.82,11.39,11.39,0,0,1,103.62,121.2Zm19.27-13h-5a14.38,14.38,0,0,0-28.58,0H61V85.86h41.6c7.8,0,13.48,2.15,16.86,6.38C123.84,97.71,123.29,105.35,122.89,108.23Z"/><path d="M37.48,104.45a5.37,5.37,0,1,0,5.36,5.37A5.38,5.38,0,0,0,37.48,104.45Zm0,7.73a2.37,2.37,0,1,1,2.36-2.36A2.37,2.37,0,0,1,37.48,112.18Z"/><path d="M103.62,104.45a5.37,5.37,0,1,0,5.36,5.37A5.37,5.37,0,0,0,103.62,104.45Zm0,7.73a2.37,2.37,0,1,1,2.36-2.36A2.36,2.36,0,0,1,103.62,112.18Z"/><path d="M77,91.59H67.42a1.5,1.5,0,1,0,0,3H77a1.5,1.5,0,0,0,0-3Z"/></svg>