<svg viewBox="0 0 120 120" xmlns="http://www.w3.org/2000/svg">
<path d="M79.8157 15.7465L78.254 14.4489L77.5725 16.3596C73.3275 27.9809 66.3424 35.8092 59.5702 43.3809L58.8462 44.1936H41.2129L50.1716 13.2511C50.3987 12.4811 50.2567 11.6683 49.774 11.0124C49.2913 10.3707 48.553 10 47.7438 10H23.452C21.9755 10 20.6551 10.9981 20.2434 12.4241L5.3219 64.0425C5.15153 64.6271 5.26511 65.283 5.63424 65.7679C6.00337 66.2669 6.58548 66.5521 7.19596 66.5521H32.0699L22.7279 103.341C22.5292 104.111 22.9125 104.909 23.6224 105.252C23.8353 105.351 24.0767 105.409 24.318 105.409C24.8291 105.409 25.3261 105.166 25.6526 104.738L43.3994 80.5547C45.7135 97.4519 61.8702 108.232 63.8295 109.472L65.4338 107.12C64.5393 106.449 60.0529 102.756 60.0529 95.6837C60.0529 88.6111 63.077 81.4673 69.0399 74.6371C70.488 78.373 72.4757 81.1536 73.9806 83.2925L75.9256 86.016L76.5361 82.7221C77.9559 75.0506 81.5194 67.4362 87.1274 60.0642C88.8737 65.5112 91.3582 69.5608 93.5872 73.1684C96.8242 78.4158 99.6069 82.9645 99.6069 90.5076C99.6069 99.2628 94.07 105.366 92.3663 107.034L91.4718 107.975L93.0193 110L94.1125 109.387C97.5625 107.49 114.756 96.9671 114.756 76.5336C114.756 56.1001 103 35.2246 79.8157 15.7465ZM45.2876 64.0853C45.1599 64.4275 45.0321 64.7697 44.9185 65.1119C44.6913 65.8106 44.4784 66.5093 44.2938 67.2366C44.1944 67.5788 44.1092 67.9353 44.0241 68.306C43.4704 70.7301 43.1438 73.3253 43.1154 76.1343L26.9872 98.1078L35.1649 65.8677C35.3069 65.3401 35.1933 64.7982 34.8525 64.3705C34.526 63.9427 34.0291 63.7003 33.4896 63.7003H8.37437L22.9693 13.2226C23.0261 13.0087 23.2249 12.8518 23.452 12.8518H47.3321L37.4365 47.0455H56.3332C55.7795 47.7014 55.2258 48.3431 54.7005 48.9705C54.3314 49.4125 53.9622 49.8546 53.6073 50.2966C52.3011 51.9221 51.0802 53.5334 49.9586 55.1733C49.6604 55.601 49.3765 56.0431 49.1067 56.4851C48.837 56.8986 48.5956 57.2979 48.3543 57.7114C48.0845 58.1677 47.8148 58.624 47.5734 59.0803C47.3746 59.4368 47.1901 59.779 47.0197 60.1355C46.8494 60.4492 46.6931 60.7771 46.537 61.1051C46.537 61.1051 46.537 61.1051 46.537 61.1336C46.2388 61.7753 45.9549 62.4169 45.6852 63.0729C45.5574 63.4151 45.4154 63.7431 45.3018 64.0853H45.2876ZM99.5501 102.001C101.14 98.9348 102.446 95.0421 102.446 90.5076C102.446 82.1517 99.323 77.0612 96.0008 71.6712C93.5304 67.6501 90.9749 63.5149 89.3422 57.5403C89.1434 56.8416 88.5897 56.314 87.8799 56.1714C87.7521 56.1429 87.6243 56.1286 87.4965 56.1286C86.9286 56.1286 86.3891 56.3853 86.0342 56.8416C80.2984 63.9997 76.4225 71.4288 74.4633 78.9577C73.072 76.8045 71.8652 74.5373 71.0275 71.6712C70.8713 71.1436 70.4454 70.7443 69.9201 70.616L69.0115 70.4449L68.4578 71.0438C61.0041 78.9291 57.2135 87.228 57.2135 95.6837C57.2135 97.7371 57.54 99.548 58.0369 101.131C52.5567 95.8121 45.9833 87.228 45.9549 76.5336C45.9549 63.9427 52.003 56.1714 60.5356 46.5749L61.6856 45.2916C62.0122 44.9351 62.3387 44.5644 62.651 44.1936C68.6849 37.449 75.2441 29.7918 79.5034 19.2257C101.012 37.7342 111.916 57.0127 111.916 76.5336C111.916 88.6397 105.087 97.1097 99.5501 102.001Z" />
</svg>
