<svg xmlns="http://www.w3.org/2000/svg" viewBox="0 0 123 123"><title>electricity-line-lg</title><path d="M121.5,120H1.5a1.5,1.5,0,0,0,0,3h120a1.5,1.5,0,0,0,0-3Z"/><path d="M1.37,54.15a1.5,1.5,0,0,0,.13,3h.13c28.07-2.52,42.22-7.43,42.81-7.64h0l.15-.07.12-.07.12-.09.11-.09a.52.52,0,0,0,.1-.11l.09-.11.08-.12.06-.12a.88.88,0,0,0,.05-.15.5.5,0,0,0,0-.13l0-.14s0-.1,0-.16,0,0,0,0V41.55h13V62.08a1.5,1.5,0,0,0,3,0V41.55H75.51v6.56a.88.88,0,0,0,0,.16.71.71,0,0,0,0,.14s0,.07,0,.11a1,1,0,0,0,0,.16l0,.08a1,1,0,0,0,.1.17s0,.06.07.1l.11.12.1.09.13.1.1,0,.16.09h0c.61.24,15.2,5.88,44.93,8h.11a1.5,1.5,0,0,0,.11-3C96.54,52.71,82.18,48.29,78.51,47V41.55H88.1a1.5,1.5,0,0,0,0-3H61.46V18.29H75.51v6.55a.78.78,0,0,0,0,.16.66.66,0,0,0,0,.14s0,.07,0,.11a1.09,1.09,0,0,0,0,.17l0,.07a1.62,1.62,0,0,0,.1.18l.07.09.11.13.1.08.13.1.1.05a.65.65,0,0,0,.16.09h0c.61.24,15.2,5.87,44.93,8h.11a1.5,1.5,0,0,0,.11-3C96.54,29.44,82.18,25,78.51,23.77V18.29H88.1a1.5,1.5,0,0,0,0-3H61.46V1.5a1.5,1.5,0,0,0-3,0V15.29H31.82a1.5,1.5,0,0,0,0,3H42.44v5.44c-3.68,1.14-17.53,5-41.07,7.15a1.5,1.5,0,0,0,.13,3h.13c28.07-2.51,42.22-7.43,42.81-7.63l0,0,.15-.07.12-.07.12-.08a.52.52,0,0,0,.11-.1.94.94,0,0,0,.1-.1l.09-.11.08-.13.06-.12a.78.78,0,0,0,.05-.14.74.74,0,0,0,0-.14l0-.14c0-.05,0-.1,0-.15s0,0,0-.05V18.29h13V38.55H31.82a1.5,1.5,0,0,0,0,3H42.44V47C38.76,48.14,24.91,52,1.37,54.15Z"/><path d="M50.68,112.48a1.45,1.45,0,0,0,1.06.44,1.47,1.47,0,0,0,1.06-.44L72.55,92.73a1.5,1.5,0,0,0,.33-1.63,1.51,1.51,0,0,0-1.39-.93H52.05L69.33,72.9a1.5,1.5,0,0,0-2.12-2.13L47.37,90.61a1.5,1.5,0,0,0,1.06,2.56H67.87L50.68,110.36A1.49,1.49,0,0,0,50.68,112.48Z"/></svg>