<svg xmlns="http://www.w3.org/2000/svg" viewBox="0 0 128 128"><title>electricity-tower</title><path d="M108.52,50.25a1.51,1.51,0,0,0-1.5,1.5V57h-4.77V51.75a1.5,1.5,0,0,0-3,0V57H80.58V43.3L99.25,31.23v4a1.5,1.5,0,0,0,3,0V30H107v5.24a1.5,1.5,0,1,0,3,0V21.74a1.5,1.5,0,1,0-3,0V27h-4.77V21.74a1.5,1.5,0,1,0-3,0V27H79.91L65.33,3.5a1.49,1.49,0,0,0-2.54,0L48.21,27H28.88V21.74a1.5,1.5,0,0,0-3,0V27H21V21.74a1.5,1.5,0,0,0-3,0V35.22a1.5,1.5,0,0,0,3,0V30h4.9v5.24a1.5,1.5,0,0,0,3,0v-4L47.54,43.31V57H28.88V51.75a1.5,1.5,0,0,0-3,0V57H21V51.75a1.5,1.5,0,0,0-3,0V65.23a1.5,1.5,0,0,0,3,0V60h4.9v5.24a1.5,1.5,0,0,0,3,0v-4L47.54,73.32V88.39l-8.46,35a1.5,1.5,0,1,0,2.92.7l1.61-6.63,20.45-15.56,20.46,15.56,1.6,6.63a1.5,1.5,0,0,0,1.46,1.15,1.45,1.45,0,0,0,.35,0A1.51,1.51,0,0,0,89,123.36l-8.46-35V73.32L99.25,61.24v4a1.5,1.5,0,1,0,3,0V60H107v5.24a1.5,1.5,0,0,0,3,0V51.75A1.5,1.5,0,0,0,108.52,50.25ZM77.58,54.9,66.18,43.5l11.4-11.4ZM75.49,60,64.06,71.43,52.62,60ZM52.68,57,64.05,45.62,75.43,57ZM64.05,41.38,52.65,30H75.46ZM50.54,32.11,61.93,43.5,50.54,54.89Zm0,30.05,11.4,11.39L50.54,85ZM64.06,75.67l11.4,11.4H52.66Zm10.57,14.4-10.57,8-10.57-8Zm3-5.12-11.4-11.4,11.4-11.41Zm3-55H95.65L80.58,39.73ZM64.06,7.13,76.38,27H51.74ZM32.46,30H47.54v9.76Zm0,30H47.54v9.76Zm12.26,52.82L50,91.15,61.58,100Zm38.68,0L66.54,100l11.62-8.84ZM80.58,60H95.65L80.58,69.74Z"/></svg>