<svg xmlns="http://www.w3.org/2000/svg" viewBox="0 0 128 128"><title>elektrilevi</title><path d="M21.92,42.13h0a1.36,1.36,0,1,0-1.36-1.36,1.38,1.38,0,0,0,.39,1A1.35,1.35,0,0,0,21.92,42.13Z"/><path d="M19.55,47.58h0A1.62,1.62,0,1,0,17.94,46a1.62,1.62,0,0,0,1.61,1.62Z"/><path d="M17.17,53h0a1.84,1.84,0,1,0,0-3.68,1.84,1.84,0,0,0-1.83,1.83,1.77,1.77,0,0,0,.53,1.3A1.83,1.83,0,0,0,17.17,53Z"/><path d="M14.86,58.26h0a2,2,0,1,0-2-2A2,2,0,0,0,14.88,58.26Z"/><path d="M14.63,61.43a2.17,2.17,0,0,0-4.34,0A2.16,2.16,0,0,0,10.92,63a2.19,2.19,0,0,0,1.53.64h0A2.18,2.18,0,0,0,14.63,61.43Z"/><path d="M22.94,74.78a2.09,2.09,0,0,0-2.09,2.08A2.1,2.1,0,0,0,22.93,79h0a2.09,2.09,0,1,0,0-4.18Z"/><path d="M20.58,80.1A1.93,1.93,0,0,0,18.67,82a1.9,1.9,0,0,0,.56,1.35,1.86,1.86,0,0,0,1.34.56h0a1.91,1.91,0,1,0,0-3.81Z"/><path d="M18.22,85.65a1.5,1.5,0,0,0-1.06,2.56,1.52,1.52,0,0,0,1.05.44h0a1.52,1.52,0,0,0,1.5-1.5A1.5,1.5,0,0,0,18.22,85.65Z"/><path d="M9,57.23H9a1,1,0,0,0,1-1,1,1,0,0,0-1-1,1,1,0,1,0,0,2Z"/><path d="M15.93,91.54a.8.8,0,1,0-.18,1.58h0a.79.79,0,0,0,.87-.7.79.79,0,0,0-.7-.88Z"/><path d="M24.28,36.47h0a.8.8,0,0,0,.79-.8.8.8,0,1,0-.8.8Z"/><path d="M7.67,60.33A1.55,1.55,0,1,0,6.56,63h0a1.56,1.56,0,0,0,1.55-1.54A1.54,1.54,0,0,0,7.67,60.33Z"/><path d="M19.42,73.75a2,2,0,1,0-2-2,2,2,0,0,0,2,2Z"/><path d="M17.05,78.49h0A1.64,1.64,0,1,0,15.9,78,1.67,1.67,0,0,0,17.05,78.49Z"/><path d="M15.77,82a1.06,1.06,0,1,0-1.06,1h0A1.06,1.06,0,0,0,15.77,82Z"/><path d="M24.45,46a1,1,0,0,0,1,1h0a1,1,0,1,0-1-1Z"/><path d="M23.06,52.67A1.55,1.55,0,1,0,22,52.21a1.55,1.55,0,0,0,1.09.46Z"/><path d="M18.82,56.23a2,2,0,0,0,1.93,2h0a1.94,1.94,0,1,0-1.94-2Z"/><path d="M33.56,64.94a1.63,1.63,0,0,0-1.62,1.62,1.59,1.59,0,0,0,.47,1.15,1.65,1.65,0,0,0,1.15.49h0a1.63,1.63,0,0,0,0-3.26Z"/><path d="M31.17,70.64a1,1,0,0,0-1.05,1,1.06,1.06,0,0,0,1.05,1.06h0a1,1,0,0,0,0-2.1Z"/><path d="M16.18,61.41a2.17,2.17,0,0,0,2.16,2.18h0a2.17,2.17,0,1,0-2.17-2.18Z"/><path d="M32.19,61.43a2.17,2.17,0,0,0-4.34,0A2.16,2.16,0,0,0,28.48,63a2.19,2.19,0,0,0,1.53.64h0A2.19,2.19,0,0,0,32.19,61.43Z"/><path d="M35.9,59.47A1.94,1.94,0,0,0,34,61.41a1.87,1.87,0,0,0,.56,1.38,1.91,1.91,0,0,0,1.38.58h0a2,2,0,0,0,0-3.9Z"/><path d="M4.21,64.62a2,2,0,0,0-1.95,1.94,2,2,0,0,0,2,2h0a2,2,0,1,0,0-3.9Z"/><path d="M10.1,64.4a2.17,2.17,0,1,0,0,4.33h0a2.17,2.17,0,1,0,0-4.33Z"/><path d="M13.83,66.56A2.15,2.15,0,0,0,16,68.73h0a2.17,2.17,0,1,0-2.17-2.17Z"/><path d="M24.14,63.59A2.17,2.17,0,1,0,22,61.41,2.12,2.12,0,0,0,22.6,63a2.17,2.17,0,0,0,1.53.64Z"/><path d="M21.78,68.73a2.15,2.15,0,1,0-1.54-.63,2.18,2.18,0,0,0,1.54.63Z"/><path d="M27.66,64.4a2.17,2.17,0,1,0,0,4.33h0a2.17,2.17,0,1,0,0-4.33Z"/><path d="M25.29,69.53a2.17,2.17,0,0,0-2.16,2.16,2.17,2.17,0,0,0,2.15,2.18h0a2.17,2.17,0,0,0,0-4.34Z"/><path d="M55.75,56.64c0,3.81,0,7.68,0,11.42v3.75h2.09V56l-1.12.35Z"/><path d="M75.84,65.49l0,0,0,0,.19-.16a5.24,5.24,0,0,0,2.2-4.41H76.29a3.25,3.25,0,0,1-1.47,2.84c-1.46,1.15-2.63,2.15-2.64,2.16l-.08.06v-.1s0-6.37,0-9.83l-.53.17-1.56.5c0,2.89,0,5.83,0,8.67,0,2.13,0,4.32,0,6.48h2.09v-3.4l2.19-1.76,0,0s.65.88,1.33,2a4.74,4.74,0,0,1,1,3.11H78.7A5.47,5.47,0,0,0,77.51,68C76.72,66.74,75.85,65.5,75.84,65.49Z"/><path d="M98.8,56.64c0,3.81,0,7.69,0,11.44v3.73h2.09V56l-1.12.35Z"/><path d="M85.52,70a3.21,3.21,0,0,1-1.94.33c-.41-.09-.53-.54-.51-.93V62.3h0c.74,0,1.5,0,2.23,0V62c0-.35,0-.71,0-1.08-.35,0-.69,0-1,0H83.07V58c-.38.06-.75.14-1.12.22l-1,.2v2.47H79.86V62.3H81V64c0,1.75,0,3.55,0,5.32a2.4,2.4,0,0,0,1.66,2.45A5.78,5.78,0,0,0,84,72a3.81,3.81,0,0,0,2.11-.55,4.67,4.67,0,0,1-.24-.62A2.53,2.53,0,0,0,85.52,70Z"/><path d="M87.33,61.66c0,1.94,0,3.91,0,5.82,0,1.42,0,2.89,0,4.33H89.4v-2.2c0-2.22,0-4.51,0-6.77v0h0a8.65,8.65,0,0,1,2.68-.34h.57c0-.58,0-1.18,0-1.77h-.65A9.84,9.84,0,0,0,87.33,61.66Z"/><path d="M95.23,56.38a1.1,1.1,0,0,0-.56.16,1.26,1.26,0,0,0,0,2.18,1,1,0,0,0,.58.17A1.28,1.28,0,0,0,96.5,57.7a1.15,1.15,0,0,0-.3-.88A1.35,1.35,0,0,0,95.23,56.38Z"/><rect x="94.22" y="60.85" width="2.09" height="10.97"/><path d="M123.87,58.72a1,1,0,0,0,.59.17,1.27,1.27,0,0,0,1.27-1.19,1.11,1.11,0,0,0-.3-.88,1.35,1.35,0,0,0-1-.44,1.17,1.17,0,0,0-.57.16,1.21,1.21,0,0,0-.63,1.08A1.19,1.19,0,0,0,123.87,58.72Z"/><rect x="123.46" y="60.85" width="2.09" height="10.97"/><path d="M50.71,60.75a7.22,7.22,0,0,0-.92-.06,4.63,4.63,0,0,0-3.23,1.14,4.85,4.85,0,0,0-1.28,3.64v.83a8.72,8.72,0,0,0,.34,3.17,3.58,3.58,0,0,0,2.62,2.31,7.8,7.8,0,0,0,1.68.19,4.82,4.82,0,0,0,2.46-.6,3.73,3.73,0,0,0,1.52-2.58H52a1.67,1.67,0,0,1-1.22,1.27,3.4,3.4,0,0,1-1,.13,2.39,2.39,0,0,1-1.85-.74,3.7,3.7,0,0,1-.57-2.5v-.28h6.7v-.33a7.6,7.6,0,0,0-.67-3.9A3.5,3.5,0,0,0,50.71,60.75ZM52,65.05H47.35v0a2.59,2.59,0,0,1,1-2.34,2.9,2.9,0,0,1,1.41-.36,3.1,3.1,0,0,1,1.18.23c1,.48,1,1.78,1,2.47Z"/><path d="M65.1,60.75a7.19,7.19,0,0,0-.91-.06A4.59,4.59,0,0,0,61,61.82a4.93,4.93,0,0,0-1.3,3.65c0,.31,0,.62,0,.93A8.31,8.31,0,0,0,60,69.46a3.6,3.6,0,0,0,2.62,2.32,7.73,7.73,0,0,0,1.68.19,4.75,4.75,0,0,0,2.37-.56A3.58,3.58,0,0,0,68.3,68.8l-1,0h-1a1.67,1.67,0,0,1-1.23,1.29,4,4,0,0,1-.91.11,2.32,2.32,0,0,1-1.94-.83,3.82,3.82,0,0,1-.51-2.4v-.29h6.7v-.32a7.57,7.57,0,0,0-.67-3.92A3.5,3.5,0,0,0,65.1,60.75Zm-3.34,4.3v0a2.59,2.59,0,0,1,1-2.34,2.91,2.91,0,0,1,1.42-.36,3.19,3.19,0,0,1,1.19.23c1,.48,1,1.78,1,2.47v0Z"/><path d="M108.24,60.75a7.22,7.22,0,0,0-.92-.06,4.63,4.63,0,0,0-3.22,1.13,5,5,0,0,0-1.29,3.65c0,.31,0,.62,0,.92a9.34,9.34,0,0,0,.29,2.93,3.55,3.55,0,0,0,2.57,2.43,7.48,7.48,0,0,0,1.77.23,5,5,0,0,0,2.26-.5,3.53,3.53,0,0,0,1.73-2.69h-2a1.6,1.6,0,0,1-1.21,1.27,3.52,3.52,0,0,1-1,.13,2.41,2.41,0,0,1-1.84-.73A3.78,3.78,0,0,1,104.9,67v-.28h6.69c0-.11,0-.22,0-.33a7.63,7.63,0,0,0-.67-3.9A3.47,3.47,0,0,0,108.24,60.75Zm-3.36,4.3v0a2.54,2.54,0,0,1,1-2.34,2.86,2.86,0,0,1,1.4-.36,3.19,3.19,0,0,1,1.19.23c1,.48,1,1.78,1,2.47v0Z"/><path d="M119.91,61.06c0,1.67,0,2.37-1.33,5.58l-1.39,3-1.38-3c-1.34-3.21-1.34-3.91-1.33-5.58v-.21h-2.07a11.6,11.6,0,0,0,1.33,6.06c1,2.18,1.33,2.88,2.38,4.9h2.15c1-2,1.39-2.72,2.37-4.9A11.6,11.6,0,0,0,122,60.85h-2.06Z"/></svg>