<svg id="Layer_1" data-name="Layer 1" xmlns="http://www.w3.org/2000/svg" viewBox="0 0 128 128"><path d="M67.81,19.27h0A2.77,2.77,0,1,0,65,16.49a2.78,2.78,0,0,0,2.77,2.78Z"/><path d="M63,30.42h0a3.31,3.31,0,1,0-2.35-1A3.25,3.25,0,0,0,63,30.42Z"/><path d="M58.09,41.43h0a3.74,3.74,0,1,0-2.68-1.11A3.75,3.75,0,0,0,58.12,41.43Z"/><path d="M53.37,52.26h0a4.13,4.13,0,1,0-4.14-4.15A4.15,4.15,0,0,0,53.4,52.26Z"/><path d="M52.89,58.74a4.43,4.43,0,1,0-4.45,4.42h0A4.45,4.45,0,0,0,52.89,58.74Z"/><path d="M69.89,86.06a4.28,4.28,0,0,0-4.27,4.25,4.17,4.17,0,0,0,1.24,3,4.22,4.22,0,0,0,3,1.28h0a4.28,4.28,0,0,0,0-8.55Z"/><path d="M65.06,96.94a3.91,3.91,0,0,0-3.89,3.89,3.77,3.77,0,0,0,1.12,2.75,3.82,3.82,0,0,0,2.76,1.15h0a3.9,3.9,0,1,0,0-7.79Z"/><path d="M60.23,108.28a3.08,3.08,0,0,0-3.06,3.06,3.06,3.06,0,0,0,3,3.07h0a3.07,3.07,0,1,0,0-6.13Z"/><path d="M41.33,50.16h0a2,2,0,0,0,2-2,2,2,0,0,0-.6-1.44,2,2,0,0,0-1.44-.59,2,2,0,0,0-2,2A2,2,0,0,0,41.33,50.16Z"/><path d="M55.55,120.32a1.66,1.66,0,0,0-1.8,1.44,1.63,1.63,0,0,0,1.44,1.8h0A1.62,1.62,0,0,0,57,122.13a1.65,1.65,0,0,0-1.44-1.81Z"/><path d="M72.64,7.68h0a1.63,1.63,0,0,0,1.62-1.62,1.64,1.64,0,0,0-1.63-1.63,1.63,1.63,0,1,0,0,3.25Z"/><path d="M38.66,56.49a3.17,3.17,0,0,0-5.42,2.22,3.18,3.18,0,0,0,3.15,3.18h0a3.17,3.17,0,0,0,2.25-5.4Z"/><path d="M62.69,83.93a4.16,4.16,0,1,0-4.17-4.17,4.16,4.16,0,0,0,4.17,4.17Z"/><path d="M57.84,93.63h0a3.33,3.33,0,0,0,3.32-3.31,3.29,3.29,0,0,0-1-2.36,3.33,3.33,0,1,0-4.73,4.69A3.28,3.28,0,0,0,57.84,93.63Z"/><path d="M55.22,100.82A2.16,2.16,0,1,0,53.06,103h0A2.16,2.16,0,0,0,55.22,100.82Z"/><path d="M73,27.11a2,2,0,0,0,2,2h0a2,2,0,1,0-2-2Z"/><path d="M70.13,40.82A3.15,3.15,0,1,0,67,37.66a3.11,3.11,0,0,0,.91,2.23,3.18,3.18,0,0,0,2.22.93Z"/><path d="M61.46,48.11a4,4,0,0,0,3.95,4h0a4,4,0,1,0-4-4Z"/><path d="M91.62,65.92a3.35,3.35,0,0,0-3.33,3.32,3.35,3.35,0,0,0,3.32,3.34h0a3.33,3.33,0,0,0,0-6.66Z"/><path d="M86.73,77.57a2.15,2.15,0,1,0,0,4.3h0a2.15,2.15,0,1,0,0-4.3Z"/><path d="M56.06,58.71a4.37,4.37,0,0,0,1.29,3.14,4.45,4.45,0,0,0,3.13,1.31h0a4.44,4.44,0,1,0-4.45-4.45Z"/><path d="M88.81,58.74a4.44,4.44,0,0,0-8.87,0,4.42,4.42,0,0,0,4.41,4.45h0A4.44,4.44,0,0,0,88.81,58.74Z"/><path d="M96.4,54.73a4,4,0,0,0-4,4,4,4,0,0,0,4,4h0a4,4,0,1,0,0-8Z"/><path d="M31.58,65.26a4,4,0,0,0-4,4,4,4,0,0,0,4,4h0a4,4,0,1,0,0-8Z"/><path d="M43.63,64.82a4.43,4.43,0,1,0,0,8.86h0a4.43,4.43,0,1,0,0-8.86Z"/><path d="M51.25,69.24a4.42,4.42,0,0,0,4.42,4.44h0a4.43,4.43,0,1,0-4.45-4.44Z"/><path d="M72.35,63.15a4.42,4.42,0,1,0-3.16-1.3,4.44,4.44,0,0,0,3.16,1.3Z"/><path d="M67.52,73.68a4.42,4.42,0,1,0-3.15-1.3,4.44,4.44,0,0,0,3.15,1.3Z"/><path d="M79.54,64.81a4.44,4.44,0,0,0-3.14,7.57,4.42,4.42,0,0,0,3.13,1.3h0a4.44,4.44,0,0,0,0-8.87Z"/><path d="M74.7,75.32a4.43,4.43,0,1,0,0,8.86h0a4.43,4.43,0,1,0,0-8.86Z"/></svg>