<svg id="Layer_1" data-name="Layer 1" xmlns="http://www.w3.org/2000/svg" viewBox="0 0 64 64"><title>email-md</title><path d="M51.28,7.35A11.72,11.72,0,1,0,63,19.07,11.74,11.74,0,0,0,51.28,7.35Zm0,21.44A9.72,9.72,0,1,1,61,19.07,9.73,9.73,0,0,1,51.28,28.79Z"/><path d="M51.28,34.08a1,1,0,0,0-1,1V53.25L34.14,37.33,40.57,31a1,1,0,0,0,0-1.41,1,1,0,0,0-1.42,0L28.49,40.09a2.57,2.57,0,0,1-1.85.77h0a2.57,2.57,0,0,1-1.85-.77L4.43,20H35.27a1,1,0,0,0,0-2H2a1,1,0,0,0-1,1V55.65a1,1,0,0,0,1,1H51.28a1,1,0,0,0,1-1V35.08A1,1,0,0,0,51.28,34.08ZM26.64,42.86h0a4.58,4.58,0,0,0,3.26-1.35l2.82-2.77L48.85,54.65H4.43L20.57,38.73l2.81,2.78A4.58,4.58,0,0,0,26.64,42.86ZM3,21.36l16.15,16L3,53.25Z"/><path d="M51.28,22.36a1,1,0,0,0,1-1V13.29a1,1,0,1,0-2,0v8.07A1,1,0,0,0,51.28,22.36Z"/><path d="M51.3,23.54a1.14,1.14,0,1,0,1.14,1.14A1.14,1.14,0,0,0,51.3,23.54Z"/></svg>