<svg xmlns="http://www.w3.org/2000/svg" viewBox="0 0 128 128"><title>email-lg</title><path d="M103.86,13.62a23.66,23.66,0,1,0,23.65,23.66A23.69,23.69,0,0,0,103.86,13.62Zm0,44.31a20.66,20.66,0,1,1,20.65-20.65A20.68,20.68,0,0,1,103.86,57.93Z"/><path d="M103.85,66.17a1.5,1.5,0,0,0-1.5,1.5v41.62L67.62,75l15.6-15.39a1.5,1.5,0,1,0-2.11-2.14l-24,23.64a5.94,5.94,0,0,1-4.23,1.75h0a5.92,5.92,0,0,1-4.23-1.76l-43-42.57H73.47a1.5,1.5,0,0,0,0-3H2a1.46,1.46,0,0,0-.55.11h0A1.34,1.34,0,0,0,.93,36h0a1.52,1.52,0,0,0-.31.48.08.08,0,0,0,0,0,1.32,1.32,0,0,0-.11.53v75.83a1.4,1.4,0,0,0,.11.53v0a1.75,1.75,0,0,0,.32.48h0a1.51,1.51,0,0,0,.49.33h0a1.68,1.68,0,0,0,.55.11H103.85a1.69,1.69,0,0,0,.56-.11h0a1.63,1.63,0,0,0,.49-.33h0a1.52,1.52,0,0,0,.31-.48,0,0,0,0,0,0,0,1.39,1.39,0,0,0,.1-.53V67.67A1.5,1.5,0,0,0,103.85,66.17ZM52.92,85.88h0a8.93,8.93,0,0,0,6.34-2.62l6.22-6.14,34.72,34.26H5.65L40.38,77.11l6.2,6.14A8.91,8.91,0,0,0,52.92,85.88ZM3.49,109.29V40.64L38.24,75Z"/><path d="M103.86,43.5a1.5,1.5,0,0,0,1.5-1.5V25.33a1.5,1.5,0,0,0-3,0V42A1.5,1.5,0,0,0,103.86,43.5Z"/><path d="M103.88,46.51a2.36,2.36,0,1,0,2.36,2.35A2.35,2.35,0,0,0,103.88,46.51Z"/></svg>