<svg xmlns="http://www.w3.org/2000/svg" viewBox="0 0 24 24"><title>enefit</title><path d="M23.3,6.9l-.59-.23h-.09a26,26,0,0,0-3.6.5,1.71,1.71,0,0,0-.73-.63,14.65,14.65,0,0,0-1.7-.62,1.63,1.63,0,0,0-.82.06,17,17,0,0,0-5.54,3.39c-1.06.91-2.52,2.4-2.89,2.77C6,13.42,5.44,13.7,5.09,13.59a.54.54,0,0,1-.28-.17,4,4,0,0,1-.54-.63l.18-.09C6,12,7,11.73,7.17,11.44L8,10.17a.78.78,0,0,0,0-.46,4.82,4.82,0,0,0-1.62-2,3.5,3.5,0,0,0-1.67-1,.74.74,0,0,0-.55.15c-.65.35-1.52.86-1.52.86C2,8.19,1.47,9.34,1.38,11a5.73,5.73,0,0,0,.29,2l.05.13a4.74,4.74,0,0,0-1,1.53,9,9,0,0,0-.17.9s0,.1,0,.12.3,0,.32,0,.07-.14.09-.18A4.91,4.91,0,0,1,2.14,14a5.07,5.07,0,0,0,1.55,1.72,1,1,0,0,0,.52.09c1.26-.08,3.12-2,3.12-2,1.15-1,2.11-2.18,3.3-3.32a15.24,15.24,0,0,1,6.2-3.66,1.23,1.23,0,0,1,.32-.06c.07,0,.1.13.14.2a5,5,0,0,1,.24.52l0,.07c-3.81,1.08-7,3.12-7,4.89v.16c0,.86.08,1.58.1,2l0,.1a1.47,1.47,0,0,0,.21.49c.92,1.32,2.83,3,4.43,2.93,3.8-.05,4.77-3.94,4.75-6.36A9.49,9.49,0,0,0,19.43,8a30,30,0,0,1,4-.9C23.54,7.06,23.54,7,23.3,6.9ZM3.68,11.72a4.91,4.91,0,0,1-.31-2.06A4.76,4.76,0,0,1,3.74,8h0a14.15,14.15,0,0,1,1.7,1.2,5.71,5.71,0,0,1,1.26,1.33v0A28.21,28.21,0,0,0,3.68,11.72Zm11,4.13h-.06a5.29,5.29,0,0,1-3.44-2.52c.75-1.57,3-3.37,6.63-4.81a13.17,13.17,0,0,1,.23,2.54C18,13.1,17.17,16,14.71,15.85Z" style="fill-rule:evenodd"/></svg>