<svg xmlns="http://www.w3.org/2000/svg" id="a" data-name="Layer 1" viewBox="0 0 128 128">
  <path d="M29.77759,70.61911v32.8501c0,.82861-.67139,1.5-1.5,1.5H14.74634c-.82861,0-1.5-.67139-1.5-1.5s.67139-1.5,1.5-1.5h12.03125v-31.3501c0-.82861,.67139-1.5,1.5-1.5s1.5,.67139,1.5,1.5Zm83.47607,31.3501h-12.03125v-31.3501c0-.82861-.67139-1.5-1.5-1.5s-1.5,.67139-1.5,1.5v32.8501c0,.82861,.67139,1.5,1.5,1.5h13.53125c.82861,0,1.5-.67139,1.5-1.5s-.67139-1.5-1.5-1.5Zm-6.02832-33.80762L64.26245,26.61179,20.76782,68.16794c-.59863,.57275-1.54883,.55127-2.12061-.04834-.57227-.59912-.55078-1.54834,.04834-2.12061L63.23267,23.44675c.58203-.55713,1.49902-.5542,2.0791,.00635l10.53027,10.18384v-6.69556c0-.82861,.67139-1.5,1.5-1.5h12.26367c.82861,0,1.5,.67139,1.5,1.5v20.45068c0,.28955-.08569,.55713-.22766,.78638l18.43323,17.8269c.59521,.57568,.61133,1.52539,.03516,2.12109-.29395,.3042-.68604,.45703-1.07812,.45703-.37549,0-.75146-.14014-1.04297-.42188Zm-28.3833-31.62329l9.26367,8.95898V28.44138h-9.26367v8.09692Zm-12.37671,32.94592c-.82861,0-1.5,.67139-1.5,1.5s.67139,1.5,1.5,1.5h1.27002c1.18652,2.87793,3.75122,4.88037,6.72559,4.88037,1.6875,0,3.27637-.62402,4.5957-1.80469,.61768-.55225,.67041-1.50049,.11768-2.11768-.55078-.61768-1.5-.67041-2.11768-.11768-.76074,.68018-1.6582,1.04004-2.5957,1.04004-1.33289,0-2.5271-.73096-3.34009-1.88037h1.19165c.82861,0,1.5-.67139,1.5-1.5s-.67139-1.5-1.5-1.5h-2.2583c-.00391-.04639-.00415-.09399-.00708-.14062h3.2478c.82861,0,1.5-.67139,1.5-1.5s-.67139-1.5-1.5-1.5h-2.74121c.74744-1.71509,2.21777-2.88477,3.90723-2.88477,1.26074,0,2.18066,.63379,2.73047,1.16602,.59473,.57568,1.54395,.56055,2.12109-.03516,.57568-.59521,.56006-1.54492-.03516-2.12109-1.33936-1.2959-3.0498-2.00977-4.81641-2.00977-3.31042,0-6.12012,2.47607-7.07837,5.88477h-.91724c-.82861,0-1.5,.67139-1.5,1.5s.67139,1.5,1.5,1.5h.58325c.00195,.04688,.00342,.09399,.00623,.14062h-.58948Zm-9.45947,23.26514c.82861,0,1.5-.67139,1.5-1.5v-20.62012c0-.82861-.67139-1.5-1.5-1.5s-1.5,.67139-1.5,1.5v20.62012c0,.82861,.67139,1.5,1.5,1.5Zm6.49414,0c.82861,0,1.5-.67139,1.5-1.5v-11.79297c0-.82861-.67139-1.5-1.5-1.5s-1.5,.67139-1.5,1.5v11.79297c0,.82861,.67139,1.5,1.5,1.5Zm4.99414-9.55029v8.05029c0,.82861,.67139,1.5,1.5,1.5s1.5-.67139,1.5-1.5v-8.05029c0-.82861-.67139-1.5-1.5-1.5s-1.5,.67139-1.5,1.5Zm6.49365,1.05908v6.99121c0,.82861,.67139,1.5,1.5,1.5s1.5-.67139,1.5-1.5v-6.99121c0-.82861-.67139-1.5-1.5-1.5s-1.5,.67139-1.5,1.5Zm13.19336,9.73584l-4.36865-2.52148c-.46387-.26855-1.03613-.26855-1.5,0-.46387,.26758-.75,.7627-.75,1.29883v1.01465h-30.11816v-26.30859h1.03076c.53613,0,1.03125-.28613,1.29883-.75,.26807-.46436,.26807-1.03613,0-1.5l-2.52148-4.36816c-.26807-.46387-.76318-.75-1.29932-.75-.53564,0-1.03125,.28564-1.29883,.75l-2.52246,4.36816c-.26758,.46436-.26758,1.03613,.00049,1.5,.26758,.46436,.76318,.75,1.29883,.75h1.01318v27.80859c0,.82861,.67139,1.5,1.5,1.5h31.61816v1.0293c0,.53564,.28564,1.03125,.75,1.29883,.23193,.13428,.49121,.20117,.75,.20117s.51807-.06689,.75-.20068l4.36865-2.52246c.46436-.26758,.75-.76318,.75-1.29883,0-.53613-.28613-1.03125-.75-1.29932Z"/>
</svg>