<svg xmlns="http://www.w3.org/2000/svg" viewBox="0 0 128 128"><title>envelope</title><path d="M116.06,25.1a1.34,1.34,0,0,0-.21-.2h0a1.55,1.55,0,0,0-.82-.31h-102a1.58,1.58,0,0,0-.58.11A1.76,1.76,0,0,0,12,25a1.65,1.65,0,0,0-.32.49,1.51,1.51,0,0,0-.11.52h0v75.87a1.51,1.51,0,0,0,.1.53.06.06,0,0,1,0,0A1.39,1.39,0,0,0,12,103h0a1.56,1.56,0,0,0,.5.33h0a1.51,1.51,0,0,0,.56.11H114.93a1.51,1.51,0,0,0,.56-.11h0a1.56,1.56,0,0,0,.5-.33h0a1.39,1.39,0,0,0,.32-.48.06.06,0,0,1,0,0,1.51,1.51,0,0,0,.1-.53V26.09h0A1.49,1.49,0,0,0,116.06,25.1Zm-2.63,73.23L78.69,64.06,94.3,48.66l19.13-19Zm-55.78-26A9,9,0,0,0,64,74.92h0a8.91,8.91,0,0,0,6.34-2.63l6.22-6.13,34.71,34.25H16.73L51.45,66.15Zm53.64-44.7L92.19,46.53l-24,23.64A6,6,0,0,1,64,71.92h0a6,6,0,0,1-4.23-1.76L16.72,27.59ZM49.32,64,14.57,98.33V29.68Z"/></svg>