<svg id="Layer_1" data-name="Layer 1" xmlns="http://www.w3.org/2000/svg" viewBox="0 0 128 128"><path d="M124.05,113.64h-6.87V37.77a1.5,1.5,0,0,0-1.5-1.5h-18a1.5,1.5,0,0,0-1.5,1.5v75.87H88.73V65.31a1.5,1.5,0,0,0-1.5-1.5h-18a1.5,1.5,0,0,0-1.5,1.5v48.33H60.29V55.16a1.5,1.5,0,0,0-1.5-1.5h-18a1.5,1.5,0,0,0-1.5,1.5v58.48H31.84V74.92a1.5,1.5,0,0,0-1.5-1.5h-18a1.5,1.5,0,0,0-1.5,1.5v38.72H4a1.5,1.5,0,0,0,0,3h120.1a1.5,1.5,0,0,0,0-3Zm-95.21,0h-15V76.42h15Zm28.45,0h-15v-57h15Zm28.44,0h-15V66.81h15Zm28.45,0h-15V39.27h15Z"/><path d="M12.32,20.85h100l-3.58,3.95a1.49,1.49,0,0,0,.11,2.12,1.47,1.47,0,0,0,1,.39,1.5,1.5,0,0,0,1.11-.49l5.85-6.46a1.38,1.38,0,0,0,.26-.43s0-.09,0-.13a1.32,1.32,0,0,0,.06-.39.76.76,0,0,0,0-.15,1.34,1.34,0,0,0-.1-.44s0-.05,0-.07h0a1.4,1.4,0,0,0-.3-.42s0,0,0-.05L110,11.79a1.5,1.5,0,0,0-2.09,2.15l4,3.91H12.32a1.5,1.5,0,0,0,0,3Z"/></svg>