<svg xmlns="http://www.w3.org/2000/svg" viewBox="0 0 128 128"><title>excavator</title><path d="M80.35,89.82H13.15a8.49,8.49,0,0,0,0,17h67.2a8.49,8.49,0,1,0,0-17Zm0,14H13.15a5.49,5.49,0,0,1,0-11h67.2a5.49,5.49,0,0,1,0,11Z"/><path d="M122.74,68,76.35,21.63a1.5,1.5,0,0,0-2.56,1.07v2.85L47.41,34.63a1.47,1.47,0,0,0-1,1.41V39.4l-3.63,1.22a1.49,1.49,0,0,0-1,1.42v2.41H36a1.5,1.5,0,0,0-1.5,1.5V67.1H15a8.5,8.5,0,0,0-8.49,8.49V86.76A1.5,1.5,0,0,0,8,88.26H63.91a1.5,1.5,0,0,0,1.5-1.5V68.6a1.44,1.44,0,0,0-.08-.46L59.43,50,75,44.38,116.13,72.8l-17,17H95a1.5,1.5,0,1,0,0,3H114.4a9,9,0,0,0,6.32-2.62A8.87,8.87,0,0,0,123.34,84V69.21A1.49,1.49,0,0,0,122.74,68ZM49.4,37.12l24.39-8.4v1.46L49.4,38.39ZM15,70.1h5.9v6.4H9.49v-.91A5.49,5.49,0,0,1,15,70.1ZM9.49,85.26V79.5H22.38a1.5,1.5,0,0,0,1.5-1.5V70.1H36a1.5,1.5,0,0,0,1.5-1.5V47.45h4.24V68.6A1.5,1.5,0,0,0,42.63,70l19.78,9v6.3Zm52.92-9.59-17.66-8V47.45h10.7l7,21.39ZM58,45.48a1.52,1.52,0,0,0-1.43-1H44.75V43.12L48.11,42a1.55,1.55,0,0,0,.51-.18l25.17-8.46v8.29L58.5,47.12Zm18.82-3.54V26.32L119.7,69.23l-1.41,1.41ZM118.6,88.08a6,6,0,0,1-4.2,1.74H103.35l16.1-16.09.1-.07.79-.79V84A5.87,5.87,0,0,1,118.6,88.08Z"/><path d="M13.5,93.91a4.4,4.4,0,1,0,4.39,4.4A4.42,4.42,0,0,0,13.5,93.91Zm0,6.8a2.4,2.4,0,1,1,2.39-2.4A2.4,2.4,0,0,1,13.5,100.71Z"/><path d="M79.39,93.91a4.4,4.4,0,1,0,4.4,4.4A4.41,4.41,0,0,0,79.39,93.91Zm0,6.8a2.4,2.4,0,1,1,2.4-2.4A2.4,2.4,0,0,1,79.39,100.71Z"/></svg>
