<svg id="Layer_1" data-name="Layer 1" xmlns="http://www.w3.org/2000/svg" viewBox="0 0 64 64"><title>exit-md</title><path d="M62.7,31.2l-6-6a1,1,0,0,0-1.42,0,1,1,0,0,0,0,1.41l4.32,4.29H32a1,1,0,0,0,0,2H59.57l-4.32,4.28A1,1,0,0,0,56,38.9a1,1,0,0,0,.71-.29l6-6a1,1,0,0,0,.3-.71A1,1,0,0,0,62.7,31.2Z"/><path d="M47.58,40.53a1,1,0,0,0-1,1v7.31a2.07,2.07,0,0,1-2.07,2.06h-25a2.07,2.07,0,0,1-2.07-2.06V15.16a2.07,2.07,0,0,1,2.07-2.06h25a2.07,2.07,0,0,1,2.07,2.06v7.12a1,1,0,0,0,2,0V15.16a4.07,4.07,0,0,0-4.07-4.06h-25a4.07,4.07,0,0,0-4.07,4.06V48.84a4.07,4.07,0,0,0,4.07,4.06h25a4.07,4.07,0,0,0,4.07-4.06V41.53A1,1,0,0,0,47.58,40.53Z"/></svg>