<svg xmlns="http://www.w3.org/2000/svg" viewBox="0 0 128 128"><title>factory-production</title><path d="M124.54,14.86H114.2V12.68a1.5,1.5,0,0,0-1.5-1.5h-5.14v-5a1.5,1.5,0,0,0-1.5-1.5H66a1.5,1.5,0,0,0-1.5,1.5v5H59.35a1.5,1.5,0,0,0-1.5,1.5v2.18H3.46A1.5,1.5,0,0,0,2,16.36v6.35a1.5,1.5,0,0,0,1.5,1.5H57.85v2.55a1.5,1.5,0,0,0,1.5,1.5h5.14v6.47s0,.06,0,.09a1.87,1.87,0,0,0,0,.25s0,.09,0,.13a1.36,1.36,0,0,0,.1.21.36.36,0,0,0,0,.09l7.35,11.72a1.48,1.48,0,0,0,1.27.7h7v7.29a1.47,1.47,0,0,0,.32.92l4.18,5.31A1.48,1.48,0,0,0,86,62a1.5,1.5,0,0,0,1.18-.57l4.18-5.31a1.47,1.47,0,0,0,.32-.92V47.92h7a1.48,1.48,0,0,0,1.27-.7l7.35-11.72a.36.36,0,0,0,0-.09,1.36,1.36,0,0,0,.1-.21.93.93,0,0,1,0-.13,1.87,1.87,0,0,0,0-.25s0-.06,0-.09V28.26h5.14a1.5,1.5,0,0,0,1.5-1.5V24.21h10.34a1.5,1.5,0,0,0,1.5-1.5V16.36A1.5,1.5,0,0,0,124.54,14.86ZM57.85,21.21H5V17.86H57.85Zm6.64,4.05H60.85V14.18h3.64ZM88.7,54.69,86,58.09l-2.67-3.4V47.92H88.7Zm9.18-9.77H74.17L68.7,36.21h34.65Zm6.68-32.24V33.2H67.49V7.68h37.07Zm6.64,3.68v8.9h-3.64V14.18h3.64ZM123,21.21H114.2V17.86H123Z"/><path d="M104.05,92.74a1.33,1.33,0,0,0,0-.21.76.76,0,0,0,0-.16,1.22,1.22,0,0,0-.1-.24l0-.12a1.76,1.76,0,0,0-.24-.3l-.07,0a1.37,1.37,0,0,0-.24-.18l-15.9-8.91V66.19a1.5,1.5,0,0,0-3,0V82.6L68.72,92l-.16.13s-.09.06-.12.1-.11.13-.16.19-.06.08-.08.12a1.31,1.31,0,0,0-.12.27l0,.08a1.74,1.74,0,0,0,0,.39h0V111a1.49,1.49,0,0,0,.68,1.25l16.52,10.8.06,0,0,0,.2.07.12.05a1.33,1.33,0,0,0,.79,0l.12-.05.2-.07.05,0,0,0,16.53-10.8a1.48,1.48,0,0,0,.68-1.25V92.74ZM84.52,119,71,110.2V96l13.52,8.4ZM86,101.81,72.37,93.34l13.55-8.15,13.74,7.7Zm15,8.4L87.52,119V104.4l4.35-2.84,9.18-6Z"/><path d="M57.55,92.74a.71.71,0,0,0,0-.21.78.78,0,0,0,0-.16l-.1-.24a.67.67,0,0,0-.06-.12,1.13,1.13,0,0,0-.24-.3l-.06,0a1.44,1.44,0,0,0-.25-.18L40.12,82.14a1.51,1.51,0,0,0-1.51,0L22.22,92l-.17.13-.12.1-.15.19-.08.12a1.31,1.31,0,0,0-.12.27l0,.08a1.31,1.31,0,0,0-.05.39h0V111a1.5,1.5,0,0,0,.67,1.25l16.53,10.8.06,0,.05,0,.19.07.13.05a1.33,1.33,0,0,0,.79,0l.12-.05.2-.07,0,0,.05,0,16.53-10.8a1.5,1.5,0,0,0,.68-1.25V92.74ZM38,119,24.5,110.2V96L38,104.42Zm1.48-17.23L25.87,93.34l13.55-8.15,13.74,7.7Zm15,8.4L41,119V104.4l4.35-2.84,9.18-6Z"/><path d="M85.89,87.82a1.5,1.5,0,0,0-1.5,1.5V92a1.5,1.5,0,0,0,3,0V89.32A1.5,1.5,0,0,0,85.89,87.82Z"/><path d="M89.06,14.18H92.8a1.5,1.5,0,0,0,0-3H89.06a1.5,1.5,0,0,0,0,3Z"/><path d="M72.2,14.18H83.87a1.5,1.5,0,0,0,0-3H72.2a1.5,1.5,0,0,0,0,3Z"/></svg>