<svg id="Layer_1" data-name="Layer 1" xmlns="http://www.w3.org/2000/svg" viewBox="0 0 128 128"><title>failure_protection-lg</title><path d="M124.25,9.51H44.33a1.5,1.5,0,0,0-1.5,1.5V22.38a1.5,1.5,0,0,0,3,0V12.51h76.92v103H45.83V106a1.5,1.5,0,0,0-3,0v11a1.5,1.5,0,0,0,1.5,1.5h79.92a1.51,1.51,0,0,0,1.5-1.5V11A1.51,1.51,0,0,0,124.25,9.51Z"/><path d="M57.08,99.54a1.5,1.5,0,0,0-1.5,1.5v3.19a1.5,1.5,0,0,0,1.5,1.5h54.41a1.5,1.5,0,0,0,1.5-1.5V23.77a1.5,1.5,0,0,0-1.5-1.5H57.08a1.5,1.5,0,0,0-1.5,1.5v3.4a1.5,1.5,0,0,0,3,0v-1.9H110v77.46H58.58V101A1.5,1.5,0,0,0,57.08,99.54Z"/><path d="M58.57,96.39V31.61a1.51,1.51,0,0,0-1-1.4L16.81,14.26a1.49,1.49,0,0,0-1.39.16,1.51,1.51,0,0,0-.66,1.24v96.68a1.51,1.51,0,0,0,.66,1.24,1.46,1.46,0,0,0,1.39.15l40.8-15.94A1.51,1.51,0,0,0,58.57,96.39Zm-3-1L17.76,110.14V17.86L55.57,32.63Z"/><path d="M11.66,53.46a1.5,1.5,0,1,0,0-3H3.75A1.5,1.5,0,0,0,2.25,52V76.19a1.5,1.5,0,0,0,1.5,1.5h7.91a1.5,1.5,0,0,0,0-3H5.25V53.46Z"/><path d="M74.28,56.94a1.5,1.5,0,0,0-1.5,1.5v23.1a1.5,1.5,0,0,0,1.5,1.5h20a1.5,1.5,0,0,0,1.5-1.5V58.44a1.5,1.5,0,0,0-3,0V80h-17V58.44A1.5,1.5,0,0,0,74.28,56.94Z"/><path d="M81.53,70.75h5.52a1.5,1.5,0,0,0,1.5-1.5V54.89h2.74a1.5,1.5,0,0,0,1.5-1.5V46.46a1.5,1.5,0,0,0-1.5-1.5h-14a1.5,1.5,0,0,0-1.5,1.5v6.93a1.5,1.5,0,0,0,1.5,1.5H80V69.25A1.5,1.5,0,0,0,81.53,70.75ZM78.79,51.89V48h11v3.93H87.05a1.5,1.5,0,0,0-1.5,1.5V67.75H83V53.39a1.5,1.5,0,0,0-1.5-1.5Z"/></svg>