<svg xmlns="http://www.w3.org/2000/svg" viewBox="0 0 128 128"><title>family-lg</title><path d="M33,127H11.35a1.5,1.5,0,0,1-1.49-1.36l-2-21.58-6-.9a1.5,1.5,0,0,1-1.27-1.63L2.13,84.38a20.46,20.46,0,0,1,12.62-17,1.5,1.5,0,1,1,1.14,2.77A17.47,17.47,0,0,0,5.12,84.66L3.63,100.4l5.8.86a1.49,1.49,0,0,1,1.27,1.35l2,21.39H31.63l2-21.39a1.5,1.5,0,0,1,1.27-1.35l5.8-.86L39.23,84.66A17.47,17.47,0,0,0,28.46,70.11a1.5,1.5,0,1,1,1.14-2.77,20.46,20.46,0,0,1,12.62,17l1.62,17.15a1.5,1.5,0,0,1-1.27,1.63l-6,.9-2,21.58A1.5,1.5,0,0,1,33,127Z"/><path d="M22.17,65.58A10.9,10.9,0,0,1,11.28,54.69V50.88a10.9,10.9,0,0,1,21.79,0v3.81A10.9,10.9,0,0,1,22.17,65.58Zm0-22.59a7.9,7.9,0,0,0-7.89,7.89v3.81a7.9,7.9,0,0,0,15.79,0V50.88A7.9,7.9,0,0,0,22.17,43Z"/><path d="M81.61,127H58.23a1.49,1.49,0,0,1-1.49-1.38l-2-24.78-6-.9a1.5,1.5,0,0,1-1.28-1.6l2.71-33A1.51,1.51,0,0,1,51,64.1l10.61-4.36a1.5,1.5,0,1,1,1.14,2.77l-9.76,4L50.49,97.18l5.82.87a1.5,1.5,0,0,1,1.28,1.36l2,24.59H80.23l2-24.59a1.5,1.5,0,0,1,1.27-1.36l5.83-.87L86.84,66.53l-9.77-4a1.5,1.5,0,0,1,1.14-2.77L88.83,64.1a1.5,1.5,0,0,1,.92,1.27l2.71,33a1.49,1.49,0,0,1-1.27,1.6l-6,.9-2,24.78A1.51,1.51,0,0,1,81.61,127Z"/><path d="M69.92,58.44A10.9,10.9,0,0,1,59,47.55V43.74a10.9,10.9,0,0,1,21.79,0v3.81A10.9,10.9,0,0,1,69.92,58.44Zm0-22.59A7.9,7.9,0,0,0,62,43.74v3.81a7.9,7.9,0,0,0,15.79,0V43.74A7.9,7.9,0,0,0,69.92,35.85Z"/><path d="M119.56,127H103.47a1.5,1.5,0,0,1-1.5-1.36l-1.36-14.88-3.8-.57a1.5,1.5,0,0,1-1.27-1.65l.95-8.21a14.93,14.93,0,0,1,9.14-12.07A1.5,1.5,0,0,1,106.77,91a11.91,11.91,0,0,0-7.3,9.64l-.78,6.76,3.52.52a1.51,1.51,0,0,1,1.28,1.35L104.83,124h13.36l1.35-14.69a1.5,1.5,0,0,1,1.27-1.35l3.53-.52-.78-6.76a11.91,11.91,0,0,0-7.3-9.64,1.5,1.5,0,0,1,1.14-2.78,14.93,14.93,0,0,1,9.14,12.07l.95,8.21a1.5,1.5,0,0,1-1.27,1.65l-3.8.57-1.37,14.88A1.49,1.49,0,0,1,119.56,127Z"/><path d="M111.52,86.36a10.2,10.2,0,0,1-10.2-10.19V74.43a10.2,10.2,0,1,1,20.39,0v1.74A10.2,10.2,0,0,1,111.52,86.36Zm0-19.13a7.21,7.21,0,0,0-7.19,7.2v1.74a7.2,7.2,0,0,0,14.39,0V74.43A7.21,7.21,0,0,0,111.51,67.23Z"/></svg>