<svg id="Layer_1" data-name="Layer 1" xmlns="http://www.w3.org/2000/svg" viewBox="0 0 128 128"><path d="M72.93,77.21V68.54a7.7,7.7,0,0,0-15.4,0v7.83a36.59,36.59,0,0,1-9.4,24.5l-8.7,9.66a1.51,1.51,0,0,0,.11,2.12,1.49,1.49,0,0,0,2.12-.11l8.7-9.66A39.56,39.56,0,0,0,60.53,76.37V68.54a4.7,4.7,0,0,1,9.4,0v8.67a49,49,0,0,1-12.75,33l-8.48,9.32A1.5,1.5,0,0,0,49.81,122a1.47,1.47,0,0,0,1.11-.49l8.48-9.33A51.87,51.87,0,0,0,72.93,77.21Z"/><path d="M81.37,68.54a16.14,16.14,0,0,0-32.28,0v7.83a28.15,28.15,0,0,1-7.23,18.85l-6.19,6.87a1.5,1.5,0,0,0,2.23,2l6.19-6.87a31.14,31.14,0,0,0,8-20.86V68.54a13.14,13.14,0,1,1,26.28,0v8.67a57.31,57.31,0,0,1-14.94,38.65l-7.16,7.88a1.49,1.49,0,0,0,.11,2.11,1.42,1.42,0,0,0,1,.39,1.47,1.47,0,0,0,1.11-.49l7.16-7.87A60.31,60.31,0,0,0,81.37,77.21Z"/><path d="M65.23,44A24.61,24.61,0,0,0,40.65,68.54v7.83a19.68,19.68,0,0,1-5.07,13.2L30,95.76a1.5,1.5,0,0,0,2.23,2l5.57-6.19a22.66,22.66,0,0,0,5.84-15.21V68.54a21.58,21.58,0,1,1,43.16,0v8.67a65.73,65.73,0,0,1-17.14,44.33l-2,2.18a1.5,1.5,0,0,0,.11,2.12,1.47,1.47,0,0,0,1,.39,1.54,1.54,0,0,0,1.12-.49l2-2.18A68.78,68.78,0,0,0,89.81,77.21V68.54A24.61,24.61,0,0,0,65.23,44Z"/><path d="M32.21,68.54a1.5,1.5,0,0,0,3,0A30.08,30.08,0,0,1,60.94,38.83a1.5,1.5,0,0,0-.42-3A33.06,33.06,0,0,0,32.21,68.54Z"/><path d="M35.21,76.37a1.5,1.5,0,0,0-3,0,11.28,11.28,0,0,1-2.9,7.56l-4.95,5.5a1.49,1.49,0,0,0,.11,2.12,1.46,1.46,0,0,0,1,.38,1.5,1.5,0,0,0,1.12-.49l4.95-5.51A14.23,14.23,0,0,0,35.21,76.37Z"/><path d="M94.67,95a1.51,1.51,0,0,0-1.84,1.07A72.64,72.64,0,0,1,90,104.6a1.49,1.49,0,0,0,.84,1.94,1.35,1.35,0,0,0,.55.11,1.5,1.5,0,0,0,1.4-1,78.59,78.59,0,0,0,2.91-8.87A1.5,1.5,0,0,0,94.67,95Z"/><path d="M87.29,44a1.49,1.49,0,0,0-2.12.11,1.51,1.51,0,0,0,.11,2.12,30,30,0,0,1,10,22.32v8.67a75.4,75.4,0,0,1-.69,10.19,1.49,1.49,0,0,0,1.28,1.69l.2,0a1.51,1.51,0,0,0,1.49-1.3,78.22,78.22,0,0,0,.72-10.6V68.54A33,33,0,0,0,87.29,44Z"/><path d="M78.09,41.42a1.5,1.5,0,1,0,1.29-2.71A32.75,32.75,0,0,0,70,35.86a1.5,1.5,0,1,0-.43,3A29.5,29.5,0,0,1,78.09,41.42Z"/><path d="M65.23,27.08q-1.16,0-2.31.06a1.5,1.5,0,0,0,.17,3c.71,0,1.43-.06,2.14-.06A38.51,38.51,0,0,1,103.7,68.54v8.67a1.5,1.5,0,0,0,3,0V68.54A41.51,41.51,0,0,0,65.23,27.08Z"/><path d="M42.47,37.21a1.5,1.5,0,0,0,.85-.27,38.46,38.46,0,0,1,11.49-5.43A1.5,1.5,0,1,0,54,28.63a41.24,41.24,0,0,0-12.38,5.85,1.49,1.49,0,0,0-.37,2.09A1.48,1.48,0,0,0,42.47,37.21Z"/><path d="M26.77,76.37V68.54A38.29,38.29,0,0,1,37.25,42.18a1.5,1.5,0,0,0-2.18-2.06,41.27,41.27,0,0,0-11.3,28.42v7.83A2.82,2.82,0,0,1,23,78.28L20.59,81a1.5,1.5,0,0,0,.12,2.12,1.46,1.46,0,0,0,1,.38A1.5,1.5,0,0,0,22.83,83l2.43-2.71A5.86,5.86,0,0,0,26.77,76.37Z"/><path d="M112.55,52.66A49.66,49.66,0,0,0,102,34.81a1.5,1.5,0,1,0-2.21,2,46.52,46.52,0,0,1,9.93,16.78,1.51,1.51,0,0,0,1.42,1,1.61,1.61,0,0,0,.48-.08A1.5,1.5,0,0,0,112.55,52.66Z"/><path d="M81.35,21.31a1.5,1.5,0,0,0-1,2.84,46.7,46.7,0,0,1,12.85,6.78A1.5,1.5,0,1,0,95,28.53,49.92,49.92,0,0,0,81.35,21.31Z"/><path d="M65.23,21.64a47.32,47.32,0,0,1,6.74.48,1.5,1.5,0,0,0,.42-3,50.18,50.18,0,0,0-7.16-.51A49.95,49.95,0,0,0,15.38,66.28a1.48,1.48,0,0,0,1.43,1.56h.07a1.5,1.5,0,0,0,1.49-1.44A47,47,0,0,1,65.23,21.64Z"/><path d="M65.23,10.2a58.38,58.38,0,0,0-13.45,1.56,1.5,1.5,0,0,0,.69,2.92A55.7,55.7,0,0,1,65.23,13.2a55.15,55.15,0,0,1,39.9,17,1.54,1.54,0,0,0,1.09.46,1.5,1.5,0,0,0,1.08-2.54A58.18,58.18,0,0,0,65.23,10.2Z"/><path d="M19.53,34.74a1.51,1.51,0,0,0,.92.32,1.48,1.48,0,0,0,1.18-.58A55.79,55.79,0,0,1,44.09,17.39a1.5,1.5,0,1,0-1.15-2.77,58.67,58.67,0,0,0-23.67,18A1.51,1.51,0,0,0,19.53,34.74Z"/><path d="M36.94,11.21a1.51,1.51,0,0,0,.65-.15,63.07,63.07,0,0,1,27.64-6.3A64,64,0,0,1,80.16,6.52a1.5,1.5,0,1,0,.7-2.92A67.14,67.14,0,0,0,65.23,1.76a66,66,0,0,0-28.94,6.6,1.5,1.5,0,0,0,.65,2.85Z"/><path d="M88.76,9.25A65.28,65.28,0,0,1,95,12.14a1.5,1.5,0,1,0,1.41-2.65,69.12,69.12,0,0,0-6.54-3,1.5,1.5,0,1,0-1.11,2.79Z"/></svg>