<svg id="Layer_1" data-name="Layer 1" xmlns="http://www.w3.org/2000/svg" viewBox="0 0 64 64"><title>flexi-md</title><path d="M50.71,37.11a7.17,7.17,0,0,0-4.78-6.73L19.45,21.82l26.48-8.57a7.17,7.17,0,0,0,4.78-6.73,1,1,0,0,0-1-1h0a1,1,0,0,0-1,1,5.2,5.2,0,0,1-3.39,4.82L18.07,20.16a6.67,6.67,0,0,0-1,.44,5.42,5.42,0,0,1-1.76-3.86,5.21,5.21,0,0,1,3.39-4.83L45.93,3.1a1,1,0,1,0-.61-1.9L18.07,10a7.17,7.17,0,0,0-4.78,6.73,7.43,7.43,0,0,0,2.14,5.08,7.41,7.41,0,0,0-2.14,5.07,7.17,7.17,0,0,0,4.78,6.73l26.48,8.56L18.07,50.75a7.17,7.17,0,0,0-4.78,6.73,1,1,0,0,0,1,1h0a1,1,0,0,0,1-1,5.2,5.2,0,0,1,3.39-4.82l27.25-8.81a6.67,6.67,0,0,0,1-.44,5.42,5.42,0,0,1,1.76,3.86,5.21,5.21,0,0,1-3.39,4.83L18.07,60.9a1,1,0,0,0,.3,2,1.06,1.06,0,0,0,.31-.05L45.93,54a7.18,7.18,0,0,0,4.78-6.73,7.43,7.43,0,0,0-2.14-5.08A7.41,7.41,0,0,0,50.71,37.11ZM47,41a6.67,6.67,0,0,0-1-.44L18.68,31.72a5.2,5.2,0,0,1-3.39-4.83A5.42,5.42,0,0,1,17.05,23a6.67,6.67,0,0,0,1,.44l27.25,8.81a5.2,5.2,0,0,1,3.39,4.83A5.42,5.42,0,0,1,47,41Z"/></svg>