<svg id="Layer_1" data-name="Layer 1" xmlns="http://www.w3.org/2000/svg" viewBox="0 0 128 128"><path d="M41.65,37.91a3.74,3.74,0,0,0,1.6-.36h0a3.87,3.87,0,0,0,1.94-2.29,6.41,6.41,0,0,0-.49-4.84c-1.43-2.9-4.3-4.32-6.52-3.23a3.8,3.8,0,0,0-1.94,2.24,6.41,6.41,0,0,0,.47,4.88A5.92,5.92,0,0,0,41.65,37.91Zm-2.58-7.49a.88.88,0,0,1,.41-.53.65.65,0,0,1,.29-.06A3.07,3.07,0,0,1,42,31.76a3.46,3.46,0,0,1,.34,2.54,1,1,0,0,1-.41.55c-.54.25-1.79-.35-2.54-1.86A3.48,3.48,0,0,1,39.07,30.42Z"/><path d="M37.27,43a5.88,5.88,0,0,0,.16-3.44h0c-.66-2.71-2.84-4.43-5-3.91s-3.26,3.05-2.6,5.75a5.46,5.46,0,0,0,2.36,3.45,3.48,3.48,0,0,0,1.84.54,3.2,3.2,0,0,0,.75-.09A3.58,3.58,0,0,0,37.27,43Zm-2.8-1.08c-.11.29-.26.44-.36.46a.5.5,0,0,1-.33-.09,2.62,2.62,0,0,1-1-1.6c-.28-1.17.11-2.06.4-2.13h0c.28,0,1,.53,1.29,1.71A2.94,2.94,0,0,1,34.47,41.89Z"/><path d="M50.82,32a4.12,4.12,0,0,0,1-.13c2.77-.75,4.16-4.25,3.16-8h0a8.3,8.3,0,0,0-2.47-4.13,4.61,4.61,0,0,0-4.24-1.17,4.25,4.25,0,0,0-2.63,2.1,7.89,7.89,0,0,0-.55,5.86C46,29.8,48.38,32,50.82,32Zm-2.55-9.8a1.51,1.51,0,0,1,.81-.71,1.15,1.15,0,0,1,.26,0,2.09,2.09,0,0,1,1.24.57,5.52,5.52,0,0,1,1.55,2.65c.57,2.14-.08,4-1.05,4.29s-2.48-1.05-3-3.19A5,5,0,0,1,48.27,22.19Z"/><path d="M97.56,103.61c-2-8.64-7.48-12.25-12.3-15.44-4.29-2.84-8.34-5.51-9.93-11.44-2.14-8,1.28-13,4.91-18.29s7.3-10.69,5.11-18.85c-2.29-8.54-9.09-11.77-19.15-9.07-12.35,3.31-34.43,15.1-29.58,35.94,2.56,11,8.09,17.25,13.44,23.28,5.08,5.72,10.33,11.64,13.08,21.9,2.55,9.52,10,14.27,16.89,14.27a14.66,14.66,0,0,0,3.75-.48C95.73,122.23,100.23,115.09,97.56,103.61ZM83,122.53c-6.35,1.7-14.43-2.2-17-11.67C63.11,99.92,57.61,93.73,52.3,87.75s-10.37-11.69-12.76-22C34.14,42.52,66.65,33.5,67,33.42c8.43-2.27,13.63.08,15.48,6.95s-1.2,11.25-4.7,16.37c-3.67,5.36-7.82,11.44-5.32,20.76,1.88,7,6.6,10.15,11.16,13.17,4.79,3.16,9.3,6.15,11,13.62C96.18,110.92,96.25,119,83,122.53Z"/><path d="M77.06,23.51l.62,0A6.31,6.31,0,0,0,82,21a12.53,12.53,0,0,0,2.25-9h0c-.65-6-4.52-10.35-8.83-9.89A6.31,6.31,0,0,0,71.1,4.54a12.53,12.53,0,0,0-2.25,9.05C69.47,19.3,73,23.51,77.06,23.51ZM73.43,6.43a3.44,3.44,0,0,1,2.26-1.37L76,5c2.44,0,4.8,3.22,5.23,7.25a9.48,9.48,0,0,1-1.59,6.84,3.42,3.42,0,0,1-2.26,1.37c-2.54.26-5.07-3-5.53-7.23A9.53,9.53,0,0,1,73.43,6.43Z"/><path d="M58.32,25.17a5.64,5.64,0,0,0,4,1.85,5,5,0,0,0,.76-.06c3.29-.56,5.31-4.46,4.58-8.87h0c-.74-4.41-3.91-7.44-7.2-6.89a5.41,5.41,0,0,0-3.93,3.24,9.62,9.62,0,0,0-.66,5.63A9.65,9.65,0,0,0,58.32,25.17Zm.94-9.47A2.56,2.56,0,0,1,61,14.15a1.23,1.23,0,0,1,.27,0c1.48,0,3.07,2,3.49,4.45.47,2.9-.75,5.18-2.13,5.42a2.58,2.58,0,0,1-2.11-.92,6.73,6.73,0,0,1-1.64-3.51A6.75,6.75,0,0,1,59.26,15.7Z"/></svg>