<svg id="Layer_1" data-name="Layer 1" xmlns="http://www.w3.org/2000/svg" viewBox="0 0 128 128"><path d="M54.2,32.76A6.84,6.84,0,0,0,57.77,37a9.57,9.57,0,0,0,1.1,4.08A8.09,8.09,0,0,0,65,45.58a7,7,0,0,0,1,.08,8.19,8.19,0,0,0,7.51-5.51,9.73,9.73,0,0,0-.34-8.06,9.67,9.67,0,0,0,0-8.84,7.81,7.81,0,0,0,1-5.18A6.92,6.92,0,0,0,68,12a6.17,6.17,0,0,0-5.86,3.1,6,6,0,0,0-3.72,1.67,7.61,7.61,0,0,0-2.39,6.55,8,8,0,0,0,.21,1.18,7.91,7.91,0,0,0-.91,1A7.72,7.72,0,0,0,54.2,32.76Zm3.56-5.48a6.13,6.13,0,0,1,.76-.78L59,26a1.48,1.48,0,0,0,.4-1.37c0-.19-.08-.39-.13-.59A8.16,8.16,0,0,1,59.05,23a4.64,4.64,0,0,1,1.46-4.07,3.17,3.17,0,0,1,2.27-.89h0a1.79,1.79,0,0,0,1.66-1A3.35,3.35,0,0,1,67.86,15a3.89,3.89,0,0,1,3.29,3.51,4.85,4.85,0,0,1-.79,3.58,1.84,1.84,0,0,0-.11,2.09,6.86,6.86,0,0,1,0,7,1.91,1.91,0,0,0,0,1.9,6.81,6.81,0,0,1,.4,6,4.88,4.88,0,0,1-9.19.59,6.61,6.61,0,0,1-.76-3.36,1.8,1.8,0,0,0-1.23-1.82,3.85,3.85,0,0,1-2.48-2.65A4.7,4.7,0,0,1,57.76,27.28Z"/><path d="M108.09,106A60.87,60.87,0,0,0,22,19.91l0,0-1,.95-.21.21-.95,1,0,0A60.87,60.87,0,0,0,106,108.09l0,0,1-1,.21-.21,1-1ZM64,6.11a57.85,57.85,0,0,1,42,97.72L86.86,84.74a72,72,0,0,1-.41-7.44v-5a1.26,1.26,0,0,0,0-.63V51.86a1.5,1.5,0,0,0-1.5-1.5H52.48L24.17,22.05A57.66,57.66,0,0,1,64,6.11Zm21.39,89H42.59a92.7,92.7,0,0,0,2-17.76V73.5H71.37L84,86.1C84.33,89.17,84.82,92.18,85.39,95.06ZM83.45,70.5H72.62L55.48,53.36h28Zm-15.08,0H44.55V53.36h6.69Zm7.25,3h7.83v3.8c0,1.38,0,2.77.13,4.16ZM6.11,64A57.66,57.66,0,0,1,22.05,24.17L48.24,50.36H43.05a1.5,1.5,0,0,0-1.5,1.5V71.68a1.66,1.66,0,0,0,0,.32,1.63,1.63,0,0,0,0,.31v5c0,14.83-5.4,31.26-7,36l-.16.44A57.91,57.91,0,0,1,6.11,64ZM37,115.18c.09-.23.2-.54.34-.94A147,147,0,0,0,42,98.06H86a143.86,143.86,0,0,0,4.84,16.74c0,.15.1.27.14.38a57.72,57.72,0,0,1-54,0Zm56.67-1.49a140.39,140.39,0,0,1-6.17-24.08L103.83,106A57.72,57.72,0,0,1,93.66,113.69Z"/></svg>