<svg id="Layer_1" data-name="Layer 1" xmlns="http://www.w3.org/2000/svg" viewBox="0 0 128 128"><path d="M87.15,109.2h-40v-12h13.9a1,1,0,0,0,0-2H47.15v-40h9.1a1,1,0,0,0,0-2h-9.1V41.1H58.68c0,1.34.07,2.71.07,4.1v3.9a1,1,0,0,0,2,0V45.2c0-1.39,0-2.75-.07-4.1H72.32c.08,1.32.13,2.65.13,4a1,1,0,1,0,2,0c0-1.35,0-2.68-.13-4H85.85c.13,1.32.2,2.65.2,4V55.9a1,1,0,0,0,2,0V45.1A42.45,42.45,0,0,0,46.57,2.72L46,2.7h-.3a42.46,42.46,0,0,0-42,36.62,1,1,0,0,0-.4.78,1,1,0,0,0,.23.61,42.44,42.44,0,0,0-.23,4.39v79.2a1,1,0,0,0,1,1h82.9a1,1,0,0,0,1-1v-14s0,0,0,0,0,0,0,0A1,1,0,0,0,87.15,109.2Zm-42,0H32.85v-12h12.3Zm0-70.1H33c.94-19.74,6.4-33,11.79-34.28C45,8.08,45.12,20.08,45.15,39.1ZM31,39.1H19.44C21.08,22.38,29.46,9,40.22,5.56,35.3,11,31.73,23.56,31,39.1Zm-.07,2c-.05,1.32-.07,2.65-.07,4v8.1H19.15V45.1c0-1.35.05-2.68.13-4ZM19.15,55.2h11.7v40H19.15Zm-2,40H5.25v-40h11.9Zm0-50.1v8.1H5.25V45.1c0-1.35.07-2.68.2-4H17.28C17.2,42.42,17.15,43.75,17.15,45.1ZM5.25,97.2h11.9v12H5.25Zm13.9,0h11.7v12H19.15Zm11.7,14v12.1H19.15V111.2Zm2,0h12.3v12.1H32.85Zm12.3-16H32.85v-40h12.3Zm0-50.1v8.1H32.85V45.1c0-1.36,0-2.69.06-4H45.15Zm2-6c0-9-.06-17.08-.14-23.3-.07-5.87-.1-9.11-.23-10.89C52.17,6.15,57.65,19.35,58.6,39.1Zm13.45,0c-.75-15.63-4.38-28.27-9.35-33.59C62.07,8.88,70.51,22.32,72.16,39.1Zm25,0H74.16C72.78,24.63,66.47,12.5,57.85,6.59A40.49,40.49,0,0,1,85.6,39.1ZM34,6.42C25.25,12.27,18.84,24.5,17.44,39.1H5.7A40.49,40.49,0,0,1,34,6.42ZM5.25,111.2h11.9v12.1H5.25Zm41.9,12.1V111.2h39v12.1Z"/><circle cx="115.45" cy="66.6" r="1.1"/><path d="M120.36,67.28a2.38,2.38,0,0,0-.68-.89,4.72,4.72,0,0,0-4.83-3.49h-.1a5.57,5.57,0,0,0-5.22,3.22c-.18.29-.37.57-.49.78a12.34,12.34,0,0,1-1.16,1l0-.15c-3.64-12.1-1.4-19,1.28-24.16a1.51,1.51,0,0,0-.21-1.75c-1-1-3.28-.19-4.21.32-12.13,7.44-13.44,17.89-13.44,22a14.32,14.32,0,0,0,.69,4.64l-.3-.14-1-.45c-8.88-4.29-15.2-11.62-19-16l-.19-.21A12.61,12.61,0,0,1,70,50.27a1.72,1.72,0,0,0-2-.64c-1.38.5-1.61,2.5-1.73,4.35-.2,6.42-.51,16.12,7.65,23.88,4.65,4.45,9.88,6.6,15.57,6.4a29.46,29.46,0,0,0-3,5.8l0,.09c-2.9,3.69-11.19,12.94-11.52,13.3l-.65.65.62.61a2.78,2.78,0,0,0,1.89,1h.2a5.18,5.18,0,0,0,2.55-.94,4.3,4.3,0,0,0,4.59-1.47,4.28,4.28,0,0,0,3.29-2.13c.58-1,2-3.43,3.1-5.38l1.28-2.21c6.64-.82,12.32-3,16-6.19,4.2-3.68,5.39-7.93,6.26-12,.61-3,3.18-4.45,4.79-5.1l5.82.27Zm-32.28,24h.25l.1-.36a25.87,25.87,0,0,1,3.94-7.16l.38-.58-.38-.58c-.35-.52-.86-.52-1.67-.52-5.56.51-10.71-1.43-15.31-5.76-7.53-7.15-7.24-16.34-7-22.42a9,9,0,0,1,.33-2.28c.43.45.86,1,1.29,1.49l.38.43C74.2,58,80.63,65.45,89.73,69.85s9.15,4.42,9.67,3.37l0,0v-.12a1,1,0,0,0-.4-1.15s-2.85-2.13-5.26-3.57c-.2-.25-.83-2.18-.64-5.5.29-4.49,2.3-12.95,12.49-19.12a3.21,3.21,0,0,1,1.18-.47c-2.66,5.4-4.65,12.62-1,24.76.31,1.52.75,1.85,1.17,2a1,1,0,0,0,1.11-.14l.15-.11A18,18,0,0,0,110.57,68a2.86,2.86,0,0,1,.22-.3,3.58,3.58,0,0,0,.49-.73,3.56,3.56,0,0,1,3.49-2.25,2.85,2.85,0,0,1,3.08,2.2l.19.65.41.21a.31.31,0,0,1,.1.14v.2l-.18,0-.11,0a9,9,0,0,0-6.2,6.53c-.94,4.58-2.14,7.83-5.54,10.82-5.79,5-15.2,5.78-15.27,5.78h-.61l-.29.58h0c-.4.77-3.58,6.34-4.52,7.84a2.25,2.25,0,0,1-2,1.27h-.51l-.41.42c-.57.67-1.71,1.68-2.9,1.06l-.58-.38-.65.45a4,4,0,0,1-1.17.67C82.8,97.4,86.39,93.3,88.08,91.3Z"/></svg>