<?xml version="1.0" encoding="utf-8"?>
<!-- Generator: Adobe Illustrator 23.0.3, SVG Export Plug-In . SVG Version: 6.00 Build 0)  -->
<svg version="1.1" id="Layer_1" xmlns="http://www.w3.org/2000/svg" xmlns:xlink="http://www.w3.org/1999/xlink" x="0px" y="0px"
	 viewBox="0 0 128 128" style="enable-background:new 0 0 128 128;" xml:space="preserve">
<style type="text/css">
	.st0{fill:#231F20;}
</style>
<title>stack-lg</title>
<g>
	<path class="st0" d="M79.6,68.2c0.8,0,1.5-0.7,1.5-1.5V40.8c0-5.6-3.4-9.4-6.2-11.6c-0.9-0.7-2.1-1.1-3.2-1.1h-6.5
		c-1.2,0-2.3,0.4-3.2,1.1c-2.8,2.2-6.2,6-6.2,11.6v25.9c0,0.8,0.7,1.5,1.5,1.5s1.5-0.7,1.5-1.5V40.8c0-4.4,2.8-7.5,5.1-9.3
		c0.4-0.3,0.9-0.5,1.4-0.5h6.5c0.5,0,1,0.2,1.4,0.5c2.3,1.8,5.1,4.9,5.1,9.3v25.9C78.1,67.5,78.7,68.2,79.6,68.2z"/>
	<path class="st0" d="M45.9,68.2c0.8,0,1.5-0.7,1.5-1.5v-8.6h2.3c0.8,0,1.5-0.7,1.5-1.5s-0.7-1.5-1.5-1.5h-2.3V44.6h2.3
		c0.8,0,1.5-0.7,1.5-1.5s-0.7-1.5-1.5-1.5h-2.3V18.4c0-1.6,1.3-3,3-3h13.5c1.3,0,3,2.8,3,4.9v3h-3c-0.8,0-1.5,0.7-1.5,1.5
		s0.7,1.5,1.5,1.5h9c0.8,0,1.5-0.7,1.5-1.5s-0.7-1.5-1.5-1.5h-3v-3c0-3.2-2.5-7.9-6-7.9H50.4c-3.3,0-6,2.7-6,6v48.3
		C44.4,67.5,45.1,68.2,45.9,68.2z"/>
	<path class="st0" d="M87.6,28.1c-1.3,0-2.5,0.4-3.5,1.2c-0.6,0.5-1.2,1-1.7,1.5c-0.6,0.6-0.6,1.5,0,2.1s1.5,0.6,2.1,0
		c0.4-0.4,0.9-0.9,1.4-1.3c0.4-0.3,1-0.5,1.6-0.5h6.3c0.6,0,1.1,0.2,1.6,0.5c2.3,1.8,5,4.9,5,9.2v25.9c0,0.8,0.7,1.5,1.5,1.5
		s1.5-0.7,1.5-1.5V40.8c0-5.6-3.3-9.4-6.2-11.6c-1-0.7-2.2-1.2-3.4-1.2H87.6z"/>
	<path class="st0" d="M72,15.4h14.3c1.3,0,3,2.8,3,4.9v3h-3c-0.8,0-1.5,0.7-1.5,1.5s0.7,1.5,1.5,1.5h9c0.8,0,1.5-0.7,1.5-1.5
		s-0.7-1.5-1.5-1.5h-3v-3c0-3.2-2.5-7.9-6-7.9H72c-0.8,0-1.5,0.7-1.5,1.5S71.1,15.4,72,15.4z"/>
	<path class="st0" d="M125,81.3c-3.3-4.3-9.1-9.4-17.4-9.4H13.4c-6.6,0-12,5.4-12,12v14c0,6.6,5.4,12,12,12h15.2v4.2
		c0,0.8,0.7,1.5,1.5,1.5s1.5-0.7,1.5-1.5v-4.2h61.9v4.2c0,0.8,0.7,1.5,1.5,1.5s1.5-0.7,1.5-1.5v-4.2h11.2c8.4,0,14.1-5.1,17.4-9.4
		c1-1.3,1.5-2.9,1.5-4.5V85.9C126.6,84.2,126,82.6,125,81.3z M123.6,95.9c0,1-0.3,2-0.9,2.7c-2.9,3.7-7.9,8.2-15.1,8.2H96.5v-9.7
		c0-0.8-0.7-1.5-1.5-1.5s-1.5,0.7-1.5,1.5v9.7H31.6v-9.7c0-0.8-0.7-1.5-1.5-1.5s-1.5,0.7-1.5,1.5v9.7H13.4c-4.9,0-9-4-9-9v-14
		c0-4.9,4-9,9-9h94.2c7.1,0,12.1,4.5,15.1,8.2c0.6,0.7,0.9,1.7,0.9,2.7V95.9z"/>
</g>
</svg>
