<svg id="Layer_1" data-name="Layer 1" xmlns="http://www.w3.org/2000/svg" viewBox="0 0 128 128"><title>generator-lg</title><path d="M125.15,20.21H15.35a1.5,1.5,0,0,0-1.5,1.5v79.91a1.5,1.5,0,0,0,1.5,1.5h109.8a1.5,1.5,0,0,0,1.5-1.5V21.71A1.5,1.5,0,0,0,125.15,20.21Zm-1.5,79.91H16.85V23.21h106.8Z"/><path d="M37.72,104.79h-12a1.5,1.5,0,0,0,0,3h12a1.5,1.5,0,0,0,0-3Z"/><path d="M114.83,104.79h-12a1.5,1.5,0,0,0,0,3h12a1.5,1.5,0,0,0,0-3Z"/><path d="M114.83,91a1.5,1.5,0,0,0,1.5-1.5V75.8a1.5,1.5,0,0,0-3,0V89.5A1.5,1.5,0,0,0,114.83,91Z"/><path d="M105.83,91a1.5,1.5,0,0,0,1.5-1.5V75.8a1.5,1.5,0,0,0-3,0V89.5A1.5,1.5,0,0,0,105.83,91Z"/><path d="M96.83,91a1.5,1.5,0,0,0,1.5-1.5V75.8a1.5,1.5,0,0,0-3,0V89.5A1.5,1.5,0,0,0,96.83,91Z"/><path d="M87.83,91a1.5,1.5,0,0,0,1.5-1.5V75.8a1.5,1.5,0,0,0-3,0V89.5A1.5,1.5,0,0,0,87.83,91Z"/><path d="M114.83,49a1.5,1.5,0,0,0,1.5-1.5V33.83a1.5,1.5,0,0,0-3,0v13.7A1.5,1.5,0,0,0,114.83,49Z"/><path d="M105.83,49a1.5,1.5,0,0,0,1.5-1.5V33.83a1.5,1.5,0,0,0-3,0v13.7A1.5,1.5,0,0,0,105.83,49Z"/><path d="M96.83,49a1.5,1.5,0,0,0,1.5-1.5V33.83a1.5,1.5,0,0,0-3,0v13.7A1.5,1.5,0,0,0,96.83,49Z"/><path d="M87.83,49a1.5,1.5,0,0,0,1.5-1.5V33.83a1.5,1.5,0,0,0-3,0v13.7A1.5,1.5,0,0,0,87.83,49Z"/><path d="M10.76,51.05a1.5,1.5,0,0,0,0-3H2.85a1.5,1.5,0,0,0-1.5,1.5V73.78a1.5,1.5,0,0,0,1.5,1.5h7.91a1.5,1.5,0,0,0,0-3H4.35V51.05Z"/><path d="M46,61.29a1.46,1.46,0,0,0,.75.2h.07l.06,0H47l6.49-.63L47.4,71.41a1.5,1.5,0,0,0,.55,2,1.43,1.43,0,0,0,.75.2,1.51,1.51,0,0,0,1.3-.75l7.55-13.08a1.49,1.49,0,0,0-.55-2,1.4,1.4,0,0,0-1-.18h0l-6.52.63,6.1-10.57A1.5,1.5,0,1,0,53,46.16L45.43,59.24A1.5,1.5,0,0,0,46,61.29Z"/></svg>