<svg id="Layer_1" data-name="Layer 1" xmlns="http://www.w3.org/2000/svg" viewBox="0 0 128 128"><title>Artboard 207</title><path d="M117.3,15.79H10.7a9.5,9.5,0,0,0-9.49,9.49v77.44a9.5,9.5,0,0,0,9.49,9.49H117.3a9.5,9.5,0,0,0,9.49-9.49V25.28A9.5,9.5,0,0,0,117.3,15.79Zm6.49,9.49v52.6H47.55a10.23,10.23,0,0,0,1.93-1.47,14,14,0,0,0,4.12-7.28,7.21,7.21,0,0,0-1.82-6.6c-3.36-3.36-9.2-2.4-13.89,2.29A15.8,15.8,0,0,0,35,69V18.79H117.3A6.5,6.5,0,0,1,123.79,25.28Zm-104.11,49c-3.4-3.41-4.39-7.55-2.3-9.64a4,4,0,0,1,2.87-1.1c2.07,0,4.58,1.19,6.78,3.39,2.76,2.77,4.14,8.14,4.7,10.9C28.21,77.67,22.25,76.86,19.68,74.29Zm15.63,3.55c.56-2.76,1.94-8.13,4.7-10.9,3.41-3.4,7.55-4.38,9.65-2.29s1.1,6.23-2.3,9.64C44.79,76.86,38.84,77.67,35.31,77.84Zm-24.61-59H32V69a15.8,15.8,0,0,0-2.87-4.22,14.11,14.11,0,0,0-7.28-4.12,7.24,7.24,0,0,0-6.61,1.83,7.24,7.24,0,0,0-1.82,6.6,14.11,14.11,0,0,0,4.12,7.28,10.23,10.23,0,0,0,1.93,1.47H4.21V25.28A6.5,6.5,0,0,1,10.7,18.79ZM4.21,102.72V80.88H29.9L20,90.83A1.5,1.5,0,0,0,21,93.39,1.51,1.51,0,0,0,22.07,93L32,83v26.21H10.7A6.5,6.5,0,0,1,4.21,102.72Zm113.09,6.49H35V83L47.76,95.74a1.48,1.48,0,0,0,1.06.43,1.5,1.5,0,0,0,1.06-.43,1.52,1.52,0,0,0,0-2.13L37.14,80.88h86.65v21.84A6.5,6.5,0,0,1,117.3,109.21Z"/></svg>