<svg xmlns="http://www.w3.org/2000/svg" viewBox="0 0 111.04 111.58"><title>gift-lg</title><path d="M109.54,18.8H89.78c1.26-4.62.84-9.11-1.23-12.58A12.72,12.72,0,0,0,79.89.29c-5.23-1-11.19.67-16.35,4.6a26.73,26.73,0,0,0-8,9.87,26.93,26.93,0,0,0-8-9.87C42.34,1,36.38-.72,31.15.29a12.7,12.7,0,0,0-8.66,5.93c-2.07,3.47-2.49,8-1.23,12.58H1.5A1.5,1.5,0,0,0,0,20.3V46.62a1.5,1.5,0,0,0,1.5,1.5H6.94v62a1.5,1.5,0,0,0,1.5,1.5H102.6a1.5,1.5,0,0,0,1.5-1.5v-62h5.44a1.5,1.5,0,0,0,1.5-1.5V20.3A1.5,1.5,0,0,0,109.54,18.8ZM65.36,7.28c4.42-3.37,9.64-4.88,14-4.05A9.62,9.62,0,0,1,86,7.76c1.76,3,2,6.93.66,11H57.17A23.16,23.16,0,0,1,65.36,7.28Zm-40.3.48a9.66,9.66,0,0,1,6.66-4.53c4.33-.83,9.54.68,14,4.05A23.16,23.16,0,0,1,53.87,18.8H24.4C23.09,14.69,23.31,10.71,25.06,7.76ZM3,21.8H41.06V45.12H3ZM9.94,48.12H41.06v60.46H9.94Zm34.12-1.5V21.8H67v86.78H44.06Zm57,62H70V48.12H101.1ZM108,45.12H70V21.8H108Z"/></svg>