<svg id="Layer_1" data-name="Layer 1" xmlns="http://www.w3.org/2000/svg" viewBox="0 0 128 128"><path d="M116.48,93.1A57.72,57.72,0,0,0,122,68.43,58.34,58.34,0,0,0,91.76,17.57a1.45,1.45,0,0,0-.73-.39,57.13,57.13,0,0,0-22.3-6.56,1.5,1.5,0,0,0-.24,3A54.15,54.15,0,0,1,87,18.51c-1.78.74-4.09,1.76-6.44,3C73.6,25,70.2,28.26,70.14,31.31c0,2.27,1.66,4.11,5,5.49s7.34,3.7,7.29,7.11-3.74,6.51-6.28,7.46c-3.85,1.46-9.3,6.25-9.07,11.13.12,2.54,1.83,6,9.3,8,5.3,1.45,8.64,3.72,9.9,6.73,1.5,3.57-.32,7.33-.91,8.4-1,1.73-.48,4.06,1.23,5.94a10.07,10.07,0,0,0,7.57,3.08,16.27,16.27,0,0,0,6.51-1.48c6.46-2.8,10.66-1.15,12.4-.11A55.05,55.05,0,0,1,64,123.43c-1.15,0-2.29,0-3.42-.11-.72-5.87-.72-14,1.51-15.87A12.53,12.53,0,0,1,68.22,105c2.84-.55,6.06-1.17,6.06-6.29,0-6.62-6.09-6.62-9.73-6.62-.27,0-.34-.07-.38-.11-.71-.75-.57-3.86-.46-6.12.2-4.42.44-9.42-3.34-10.63-2.88-.93-5.24.26-7.13,1.22s-2.56,1.22-3.3.76c-13.7-8.36-19.35-4.05-25.84,3-4.12,4.45-11,3.15-13.2,2.58a55,55,0,0,1,1.73-34,25.17,25.17,0,0,0,7,1A23.47,23.47,0,0,0,29,47.81C36.16,44.68,41.7,38,45.46,27.87L58.34,3.77a1.48,1.48,0,0,0-.1-1.58,1.5,1.5,0,0,0-1.48-.6c-1.06.19-26.07,4.75-37,14.09S5.66,35.47,10.15,46.85a58,58,0,0,0,49,79.36l.11,0h.08c1.54.12,3.09.2,4.66.2a58.06,58.06,0,0,0,52.39-33.14A1.11,1.11,0,0,0,116.48,93.1ZM21.72,18C29.85,11,47.14,6.7,54.2,5.17L42.76,26.55a1.08,1.08,0,0,0-.08.19C39.22,36.08,34.23,42.23,27.83,45a21.55,21.55,0,0,1-14,.92A55,55,0,0,1,34.24,22.17a1.5,1.5,0,1,0-1.63-2.52A58.07,58.07,0,0,0,12,42.77C9.63,33.84,12.89,25.51,21.72,18ZM11.9,86c3.6.63,10,.9,14.41-3.85,6.39-6.91,10.65-9.4,22.06-2.44,2.25,1.37,4.36.3,6.23-.64,1.61-.82,3.14-1.6,4.85-1s1.41,4.46,1.26,7.64C60.54,89.26,60.4,92.34,62,94a3.43,3.43,0,0,0,2.55,1c5.34,0,6.73.75,6.73,3.62,0,2.64-.84,2.8-3.63,3.34a15.26,15.26,0,0,0-7.47,3.12c-.76.64-4.32,4.38-2.66,17.9A55.14,55.14,0,0,1,11.9,86Zm87.64,4.44c-5.23,2.27-8.94,1-10.67-.87-.9-1-1.09-2-.83-2.46.76-1.37,3.08-6.2,1.06-11-1.64-3.91-5.64-6.75-11.88-8.46-3.16-.87-7-2.49-7.09-5.3-.15-3.13,4.16-7.06,7.13-8.18,3.28-1.24,8.16-5.34,8.22-10.24,0-2.81-1.52-6.82-9.16-9.92-1.2-.48-3.2-1.47-3.18-2.65C73.2,28.21,83.31,23,90.55,20.31A55.33,55.33,0,0,1,119,68.43a54.71,54.71,0,0,1-4.59,22C112,89,106.86,87.29,99.54,90.47Z"/></svg>