<svg xmlns="http://www.w3.org/2000/svg" viewBox="0 0 128 128"><title>green-lg</title><path d="M127.34,63.56A1.5,1.5,0,0,0,126,62.2a65.12,65.12,0,0,0-14.15.61C101.37,64.37,92.79,68.24,87,74S77.35,88.39,75.8,98.84a69.28,69.28,0,0,0-.68,13.27,69.31,69.31,0,0,1-6.67,3.6c-1-1.37-2.92-5.26-2.92-14.35V92.63c3.18-3,20.13-20.19,20.13-41.41,0-22.91-19.78-41.1-20.62-41.86a1.5,1.5,0,0,0-2,0c-.84.76-20.62,19-20.62,41.86,0,21.22,17,38.38,20.13,41.41v8.73c0,13.64,4.18,17,4.65,17.39a1.49,1.49,0,0,0,.88.28,1.57,1.57,0,0,0,.6-.12c14.9-6.51,39-26.14,55.79-50.46-.12,7.53-1.65,22.54-11.06,32-7.13,7.13-17.44,9.7-24.83,10.6a1.5,1.5,0,1,0,.36,3c7.86-1,18.85-3.71,26.59-11.45,5.78-5.78,9.66-14.36,11.21-24.81A65.53,65.53,0,0,0,127.34,63.56ZM82.66,51.22c0,16.83-11.83,31.43-17.13,37.11V14.11C70.83,19.79,82.66,34.37,82.66,51.22Zm-37.26,0c0-16.82,11.84-31.42,17.13-37.1V88.33C57.24,82.65,45.4,68.05,45.4,51.22Zm32.67,59c-.12-6.38.61-23.66,11.06-34.11s27.53-11.17,34-11.07C110.09,84.46,92.3,101,78.07,110.26Z"/><path d="M60.54,116.16a67.5,67.5,0,0,1-7.66-4,69.33,69.33,0,0,0-.68-13.27C50.65,88.39,46.77,79.81,41,74S26.63,64.37,16.17,62.81A65.12,65.12,0,0,0,2,62.2,1.5,1.5,0,0,0,.66,63.56a65.53,65.53,0,0,0,.62,14.15c1.55,10.45,5.43,19,11.21,24.81C20.23,110.26,31.22,113,39.08,114a1.5,1.5,0,1,0,.36-3c-7.39-.9-17.7-3.47-24.83-10.6C5.2,91,3.67,76,3.55,68.45c16.82,24.31,40.89,44,55.79,50.46a1.57,1.57,0,0,0,.6.12,1.5,1.5,0,0,0,.6-2.87ZM4.87,65.08c6.47-.11,23.61.68,34,11.07S50,103.88,49.93,110.26C35.69,101,17.89,84.45,4.87,65.08Z"/></svg>