<svg id="Layer_1" data-name="Layer 1" xmlns="http://www.w3.org/2000/svg" viewBox="0 0 128 128"><path d="M85.71,27.22a1.5,1.5,0,0,0,1.5-1.5V14.07a1.5,1.5,0,0,0-3,0V25.72A1.5,1.5,0,0,0,85.71,27.22Z"/><path d="M102,27.22a1.5,1.5,0,0,0,1.5-1.5V14.07a1.5,1.5,0,1,0-3,0V25.72A1.5,1.5,0,0,0,102,27.22Z"/><path d="M117.67,101.64H77.76a2.07,2.07,0,1,1,0-4.14h9.48a8.13,8.13,0,0,0,8.13-8.13V60.23s0-.08,0-.12c9.29-.62,16.62-7,16.62-14.69v-13a1.5,1.5,0,0,0-1.5-1.5H77.26a1.5,1.5,0,0,0-1.06.44,1.46,1.46,0,0,0-.44,1.06v13c0,7.72,7.33,14.07,16.62,14.69,0,0,0,.08,0,.12V89.37a5.12,5.12,0,0,1-5.13,5.13H77.76a5.07,5.07,0,1,0,0,10.14h39.91a2.83,2.83,0,0,1,0,5.66h-2.75c-13,.06-37.31.18-54,.07A12.31,12.31,0,0,1,48.67,98.21a42.25,42.25,0,0,0,3-3.65L57.39,92l.13-.06c3.94-2.21,9.14-6.06,11.56-11.86,4.34-10.41-1.92-22.64-2.19-23.16a1.51,1.51,0,0,0-1.78-.74c-.55.17-13.65,4.34-18,14.74-3.75,9,.42,19.34,1.79,22.32a34.84,34.84,0,0,1-2.35,2.84Q44.88,96,42.9,95.7c-1.12-3.09-5.45-13.37-14.44-17.12C18.06,74.24,5.82,80.5,5.31,80.77a1.49,1.49,0,0,0-.74,1.78c.17.55,4.33,13.65,14.74,18a21,21,0,0,0,8.09,1.51,32.38,32.38,0,0,0,8.47-1.22l.13,0,5.9-2.21c1.35.21,2.63.37,3.8.45a15.31,15.31,0,0,0,15.19,14.36c5,0,10.75.05,16.64.05,13.69,0,28.3-.07,37.43-.12h2.74a5.84,5.84,0,0,0,5.8-5.91A5.86,5.86,0,0,0,117.67,101.64ZM78.76,45.46V33.89H109V45.42c0,6.48-6.78,11.75-15.11,11.75S78.76,51.9,78.76,45.46ZM66,62.67c1.36,4.18,2.66,10.64.33,16.23-2.08,5-6.68,8.39-10.2,10.37l-1.34.6A100.58,100.58,0,0,0,66,62.67ZM49.89,72.06C52.63,65.49,59.74,61.64,63.53,60A95.1,95.1,0,0,1,51,90.32C49.46,86.5,47.13,78.67,49.89,72.06ZM35,98c-3.9,1.07-9.57,1.9-14.55-.18C14.87,95.44,11.25,89.93,9.27,86A100.27,100.27,0,0,0,36.38,97.44ZM9.12,82.38c3.86-1.5,11.62-3.77,18.19-1s10.47,10,12.1,13.72A95.53,95.53,0,0,1,9.12,82.38Z"/></svg>