<svg id="green-energy" xmlns="http://www.w3.org/2000/svg" viewBox="0 0 120 120"><path d="M60,0a60,60,0,1,0,60,60A60,60,0,0,0,60,0Zm0,116a56,56,0,1,1,56-56A56.06,56.06,0,0,1,60,116Z"/><path d="M99.25,59.79l-1.67-.15c-.63-.06-15.66-1.3-24.44,7.47-8,8-7.66,21.23-7.5,24-1.29.87-2.5,1.64-3.62,2.28V73.54C64.66,70.93,74.2,60.65,74.2,48c0-14.33-12.31-25.65-12.84-26.13L60,20.68,58.68,21.9c-.53.48-12.84,11.8-12.84,26.13,0,12.62,9.54,22.9,12.18,25.51V93.35c-1.13-.65-2.36-1.42-3.66-2.3.16-2.78.48-16-7.5-23.94-8.78-8.77-23.81-7.52-24.44-7.47l-1.67.15-.15,1.67c-.05.63-1.3,15.66,7.47,24.44,4.9,4.89,11.8,6.63,16.73,7.23l5.77.19a51.57,51.57,0,0,0,8.65,5.13h0a2.08,2.08,0,0,0,.8.17,2.16,2.16,0,0,0,.8-.17h0a51.49,51.49,0,0,0,8.63-5.13L75,93.15l.18,0c4.93-.6,11.83-2.34,16.73-7.23,8.77-8.78,7.52-23.81,7.47-24.44ZM76,69.94c5.09-5.09,13.09-6.17,17.68-6.35A122,122,0,0,1,69.6,88.2C69.7,83.73,70.65,75.27,76,69.94ZM70.2,48c0,8.12-4.78,15.38-8.18,19.53V28.5C65.42,32.65,70.2,39.92,70.2,48ZM49.84,48c0-8.11,4.78-15.38,8.18-19.53V67.56C54.62,63.41,49.84,56.15,49.84,48Zm.55,40.14a122.35,122.35,0,0,1-24-24.58c4.58.17,12.59,1.25,17.69,6.35C49.32,75.24,50.28,83.69,50.39,88.17ZM30.9,83.07c-4.16-4.17-5.64-10.28-6.14-14.89a128.79,128.79,0,0,0,20.37,21C40.84,88.6,35,87.11,30.9,83.07Zm58.2,0c-4,4-9.91,5.53-14.2,6.07a129.47,129.47,0,0,0,20.34-21C94.74,72.78,93.26,78.9,89.1,83.07Z"/></svg>