<svg xmlns="http://www.w3.org/2000/svg" viewBox="0 0 128 128"><title>growing</title><path d="M114.14,97C109,91.07,101.05,88,90.66,88,88.92,85,82.29,75.21,70.06,72.89a28.77,28.77,0,0,0-4.56-.47v-13a68.31,68.31,0,0,0,7.09-3.85l10.81-.34h.13c7.38-.89,17.69-3.48,25-10.74C113.9,39.08,117.54,31,119,21.22A61.76,61.76,0,0,0,119.58,8a1.5,1.5,0,0,0-1.36-1.36A61.09,61.09,0,0,0,105,7.18c-9.8,1.45-17.86,5.09-23.28,10.52S72.6,31.17,71.15,41a63.92,63.92,0,0,0-.64,12.38A64.33,64.33,0,0,1,64,56.84a64.33,64.33,0,0,1-6.51-3.48A63.92,63.92,0,0,0,56.85,41C55.4,31.17,51.76,23.12,46.33,17.7S32.85,8.63,23.05,7.18A61.09,61.09,0,0,0,9.78,6.6,1.5,1.5,0,0,0,8.42,8,61.76,61.76,0,0,0,9,21.22C10.46,31,14.1,39.08,19.52,44.51c7.26,7.26,17.57,9.85,25,10.74h.13l10.81.34a68.31,68.31,0,0,0,7.09,3.85V72.52c-9.25.72-19.23,5.69-29.8,14.91-6.81.06-12.37,1.94-16.6,5.62-10.66,9.27-8.83,26.42-8.75,27.15a1.5,1.5,0,0,0,1.49,1.33H119.13a1.49,1.49,0,0,0,1.48-1.29C120.69,119.68,122.44,106.43,114.14,97Zm-7.78-54.59c-6.63,6.63-16.22,9-23.12,9.88l-5.84.18a165.4,165.4,0,0,0,39.28-39.59C116.53,20,115,33.71,106.36,42.39ZM83.79,19.82C93,10.58,108.06,9.48,114.66,9.48h.7c-12.13,18-28.65,33.31-41.9,42C73.37,45.41,74.13,29.48,83.79,19.82Zm-39.58,0c9.64,9.64,10.42,25.59,10.33,31.68-13.25-8.7-29.77-24-41.9-42C18.81,9.41,34.62,10.23,44.21,19.82Zm.55,32.45c-6.9-.85-16.49-3.25-23.12-9.88C13,33.73,11.48,20,11.32,12.87A165.71,165.71,0,0,0,50.6,52.45Zm73,66.26H10.24c-.19-4-.06-16.36,7.83-23.22,6-5.23,15.3-6.26,27.62-3.07a1.5,1.5,0,1,0,.75-2.91,60.86,60.86,0,0,0-9.33-1.7C48.94,78,59.81,74,69.47,75.83c12.67,2.39,18.92,14.21,19,14.33a1.5,1.5,0,0,0,1.33.81h0c9.94-.11,17.33,2.59,22.07,8C117.85,105.74,117.94,115.13,117.75,118.53Z"/></svg>