<svg id="Layer_1" data-name="Layer 1" xmlns="http://www.w3.org/2000/svg" viewBox="0 0 128 128"><title>Artboard 212</title><path d="M125.75,50.89,115.5,40.64a4.08,4.08,0,0,0-2.86-1.18h-1.06V38.4a4,4,0,0,0-1.19-2.87L89.9,15C85.62,10.77,78.47,3.62,64,3.62S42.91,10.23,38.08,15.05A4.06,4.06,0,0,0,41,22C60.05,22,62.5,29.39,62.5,35.84,62.5,43.05,56.44,48,56.42,48l-.1.08-.15.14a1,1,0,0,0-.15.13h0L5.37,99a14.82,14.82,0,1,0,21.29,20.6L74.42,67c5.72-4.24,11-6.78,13.68-7.48v1.89a4.07,4.07,0,0,0,1.19,2.88L102.1,77.13A4.09,4.09,0,0,0,105,78.3h.13A4,4,0,0,0,108,76.92l17.92-20.48A4.07,4.07,0,0,0,125.75,50.89ZM24.44,117.55a11.72,11.72,0,0,1-20.38-7.88,11.85,11.85,0,0,1,3.43-8.58L57.06,51.52,71.34,66Zm99.23-63.09L105.76,74.94a1.09,1.09,0,0,1-.8.36,1,1,0,0,1-.75-.31L91.41,62.2a1.07,1.07,0,0,1-.31-.76V57.86a1.51,1.51,0,0,0-1.37-1.49c-2.91-.27-9.71,3-16.17,7.58L59.24,49.45c2-2,6.26-6.84,6.26-13.61C65.5,31.67,65.5,19,41,19a1.06,1.06,0,0,1-1-.65,1.08,1.08,0,0,1,.23-1.16C44.66,12.72,50.75,6.62,64,6.62s19.83,6.6,23.79,10.55l20.48,20.48a1.06,1.06,0,0,1,.31.75V41a1.5,1.5,0,0,0,1.5,1.5h2.56a1.1,1.1,0,0,1,.75.31L123.63,53A1,1,0,0,1,123.67,54.46Z"/></svg>