<svg id="Layer_1" data-name="Layer 1" xmlns="http://www.w3.org/2000/svg" viewBox="0 0 128 128"><path d="M28.28,61.45a1.5,1.5,0,0,0-1.5,1.5V94.3h-12a1.5,1.5,0,0,0,0,3H28.28a1.5,1.5,0,0,0,1.5-1.5V63A1.5,1.5,0,0,0,28.28,61.45Z"/><path d="M113.25,94.3h-12V63a1.5,1.5,0,0,0-3,0V95.8a1.5,1.5,0,0,0,1.5,1.5h13.53a1.5,1.5,0,0,0,0-3Z"/><path d="M20.77,60.5,64.26,18.94l43,41.55a1.45,1.45,0,0,0,1,.43,1.53,1.53,0,0,0,1.08-.46,1.5,1.5,0,0,0,0-2.12l-44-42.55a1.49,1.49,0,0,0-2.08,0L18.7,58.33a1.5,1.5,0,1,0,2.07,2.17Z"/><path d="M78.9,74.72H49.1c-2.2,0-4-1.44-4-3.2s1.78-3.2,4-3.2h9.41c3.85,0,7-2.78,7-6.2V57H76.38a1.49,1.49,0,0,0,1.37-.89,1.47,1.47,0,0,0-.25-1.61L65.12,40.67a1.55,1.55,0,0,0-2.24,0L50.5,54.46a1.47,1.47,0,0,0-.25,1.61,1.49,1.49,0,0,0,1.37.89H62.5v5.16c0,1.76-1.79,3.2-4,3.2H49.1c-3.85,0-7,2.78-7,6.2s3.13,6.2,7,6.2H78.9c2.2,0,4,1.43,4,3.2v.78c0,1.77-1.78,3.2-4,3.2H49.1c-3.85,0-7,2.78-7,6.2s3.13,6.2,7,6.2H78.9c2.2,0,4,1.44,4,3.2v.31c0,1.76-1.78,3.2-4,3.2H69.49c-3.85,0-7,2.78-7,6.2v4.7a1.5,1.5,0,0,0,3,0v-4.7c0-1.77,1.79-3.2,4-3.2H78.9c3.85,0,7-2.78,7-6.2v-.31c0-3.42-3.13-6.2-7-6.2H49.1c-2.2,0-4-1.43-4-3.2s1.78-3.2,4-3.2H78.9c3.85,0,7-2.78,7-6.2v-.78C85.88,77.5,82.75,74.72,78.9,74.72ZM55,54l9-10,9,10Z"/></svg>