<svg xmlns="http://www.w3.org/2000/svg" viewBox="0 0 128 128"><title>heat-pump</title><path d="M82.85,83.8h0c-1.58-.68-2.56-1.75-2.56-2.79s1-2.11,2.57-2.79a1.5,1.5,0,1,0-1.18-2.76c-2.75,1.18-4.39,3.25-4.39,5.55s1.64,4.37,4.39,5.55h0c1.57.68,2.55,1.74,2.55,2.78s-1,2.11-2.57,2.79a1.5,1.5,0,0,0,1.18,2.76c2.75-1.18,4.39-3.25,4.39-5.55S85.6,85,82.85,83.8Z"/><path d="M70.68,83.8h0c-1.58-.68-2.56-1.75-2.56-2.79s1-2.11,2.57-2.79a1.5,1.5,0,0,0-1.18-2.76C66.74,76.64,65.1,78.71,65.1,81s1.64,4.37,4.39,5.55h0c1.58.68,2.56,1.74,2.56,2.78s-1,2.11-2.57,2.79A1.5,1.5,0,0,0,70.09,95a1.52,1.52,0,0,0,.59-.12c2.75-1.18,4.39-3.25,4.39-5.55S73.43,85,70.68,83.8Z"/><path d="M58.51,83.8h0c-1.58-.68-2.56-1.75-2.56-2.79s1-2.11,2.57-2.79a1.5,1.5,0,0,0-1.18-2.76c-2.75,1.18-4.39,3.25-4.39,5.55s1.64,4.37,4.39,5.55h0c1.58.68,2.56,1.74,2.56,2.78s-1,2.11-2.57,2.79A1.5,1.5,0,0,0,57.92,95a1.52,1.52,0,0,0,.59-.12c2.75-1.18,4.39-3.25,4.39-5.55S61.26,85,58.51,83.8Z"/><path d="M46.34,83.8h0c-1.58-.68-2.56-1.75-2.56-2.79s1-2.11,2.57-2.79a1.5,1.5,0,0,0-1.18-2.76c-2.75,1.18-4.39,3.25-4.39,5.55s1.64,4.37,4.39,5.55h0c1.58.68,2.56,1.74,2.56,2.78s-1,2.11-2.57,2.79A1.5,1.5,0,0,0,45.75,95a1.52,1.52,0,0,0,.59-.12c2.75-1.18,4.39-3.26,4.39-5.55S49.09,85,46.34,83.8Z"/><path d="M112.05,33H16A10.22,10.22,0,0,0,5.74,43.19v18A10.22,10.22,0,0,0,16,71.38h96.1a10.22,10.22,0,0,0,10.21-10.21v-18A10.22,10.22,0,0,0,112.05,33ZM26.83,68.38V64.79h74.34v3.59Zm92.43-7.21a7.21,7.21,0,0,1-7.21,7.21h-7.88V63.29a1.5,1.5,0,0,0-1.5-1.5H25.33a1.5,1.5,0,0,0-1.5,1.5v5.09H16a7.21,7.21,0,0,1-7.21-7.21v-18A7.22,7.22,0,0,1,16,36h96.1a7.22,7.22,0,0,1,7.21,7.21Z"/><path d="M68.18,49.39H59.82a1.5,1.5,0,0,0,0,3h8.36a1.5,1.5,0,0,0,0-3Z"/><path d="M95.28,48.65a2.24,2.24,0,1,0,2.24,2.24A2.24,2.24,0,0,0,95.28,48.65Z"/><path d="M102,48.65a2.24,2.24,0,1,0,2.24,2.24A2.24,2.24,0,0,0,102,48.65Z"/></svg>