<svg id="Layer_1" data-name="Layer 1" xmlns="http://www.w3.org/2000/svg" viewBox="0 0 128 128"><path d="M77.7,79.22H39a1.5,1.5,0,0,0,0,3H77.7a5.1,5.1,0,1,1-5.09,5.1,1.5,1.5,0,0,0-3,0,8.1,8.1,0,1,0,8.09-8.1Z"/><path d="M79.62,53.52A10.94,10.94,0,0,0,68.69,64.45a1.5,1.5,0,0,0,3,0,7.93,7.93,0,1,1,7.93,7.93H39a1.5,1.5,0,0,0,0,3H79.62a10.93,10.93,0,0,0,0-21.86Z"/><path d="M59.39,65.55H39a1.5,1.5,0,0,0,0,3H59.39a8.1,8.1,0,1,0-8.09-8.1,1.5,1.5,0,0,0,3,0,5.1,5.1,0,1,1,5.09,5.1Z"/><path d="M28.28,59.57a1.5,1.5,0,0,0-1.5,1.5V92.42h-12a1.5,1.5,0,0,0,0,3H28.28a1.5,1.5,0,0,0,1.5-1.5V61.07A1.5,1.5,0,0,0,28.28,59.57Z"/><path d="M113.25,92.42h-12V61.07a1.5,1.5,0,1,0-3,0V93.92a1.5,1.5,0,0,0,1.5,1.5h13.53a1.5,1.5,0,0,0,0-3Z"/><path d="M20.77,58.62,64.26,17.06l43,41.55a1.5,1.5,0,0,0,2.12,0,1.5,1.5,0,0,0,0-2.12L90.88,38.63a1.52,1.52,0,0,0,.23-.79V17.39a1.5,1.5,0,0,0-1.5-1.5H77.34a1.5,1.5,0,0,0-1.5,1.5v6.69L65.31,13.9a1.51,1.51,0,0,0-2.08,0L18.7,56.45a1.5,1.5,0,1,0,2.07,2.17ZM78.84,18.89h9.27v17L78.84,27Z"/></svg>