<svg xmlns="http://www.w3.org/2000/svg" viewBox="0 0 128 128"><title>home-simple</title><path d="M9,69.65a1.5,1.5,0,0,0,1-.42l52.76-51,52.76,51a1.5,1.5,0,0,0,2.08-2.16L97.3,47.37a1.45,1.45,0,0,0,.12-.59V26.84a1.5,1.5,0,0,0-1.5-1.5H84a1.5,1.5,0,0,0-1.5,1.5V33L63.87,15a1.5,1.5,0,0,0-2.08,0L8,67.07a1.49,1.49,0,0,0,0,2.12A1.48,1.48,0,0,0,9,69.65ZM85.46,28.34h9V44.58l-9-8.66Z"/><path d="M69.19,56.29a1.5,1.5,0,0,0-1.5,1.5V72.66a1.5,1.5,0,0,0,1.5,1.5H82a1.5,1.5,0,0,0,1.5-1.5V57.79a1.5,1.5,0,0,0-1.5-1.5ZM80.46,71.16H70.69V59.29h9.77Z"/><path d="M43.4,56.29a1.5,1.5,0,0,0-1.5,1.5V72.66a1.5,1.5,0,0,0,1.5,1.5H56.17a1.5,1.5,0,0,0,1.5-1.5V57.79a1.5,1.5,0,0,0-1.5-1.5ZM54.67,71.16H44.9V59.29h9.77Z"/><path d="M122.12,110.27H100.18v-47a1.5,1.5,0,1,0-3,0v47H72.69V89.59a1.5,1.5,0,0,0-1.5-1.5h-17a1.5,1.5,0,0,0-1.5,1.5v20.68H28.47v-47a1.5,1.5,0,1,0-3,0v47H5.88a1.5,1.5,0,1,0,0,3H122.12a1.5,1.5,0,0,0,0-3ZM55.67,91.09h14v19.18h-14Z"/></svg>