<svg id="Layer_1" data-name="Layer 1" xmlns="http://www.w3.org/2000/svg" viewBox="0 0 128 128"><path d="M124.57,63.39,109.18,29.52a1.5,1.5,0,0,0-1.36-.88H97.57V17.15a1.51,1.51,0,0,0-1.5-1.5H82.32a1.5,1.5,0,0,0-1.5,1.5V28.64H20.18a1.5,1.5,0,0,0-1.36.88L3.43,63.39a1.51,1.51,0,0,0,.11,1.44,1.48,1.48,0,0,0,1.26.68h7.32v45.34a1.5,1.5,0,0,0,1.5,1.5H114.38a1.5,1.5,0,0,0,1.5-1.5V65.51h7.32a1.48,1.48,0,0,0,1.26-.68A1.51,1.51,0,0,0,124.57,63.39ZM83.82,18.65H94.57V44.93H83.82Zm-11,90.7H55.14V77.05H72.86Zm40,0h-37V75.55a1.5,1.5,0,0,0-1.5-1.5H53.64a1.5,1.5,0,0,0-1.5,1.5v33.8h-37V65.51h97.76Zm1.5-46.84H7.13l14-30.87H80.82V46.43a1.5,1.5,0,0,0,1.5,1.5H96.07a1.51,1.51,0,0,0,1.5-1.5V31.64h9.28l14,30.87Z"/><path d="M68.73,98.35a1.5,1.5,0,0,0,1.5-1.5v-5a1.5,1.5,0,0,0-3,0v5A1.5,1.5,0,0,0,68.73,98.35Z"/><path d="M23.27,97.78H44a1.5,1.5,0,0,0,1.5-1.5V75.55a1.5,1.5,0,0,0-1.5-1.5H23.27a1.5,1.5,0,0,0-1.5,1.5V96.28A1.5,1.5,0,0,0,23.27,97.78ZM35.13,77.05H42.5v7.37H35.13Zm0,10.37H42.5v7.36H35.13ZM24.77,77.05h7.36v7.37H24.77Zm0,10.37h7.36v7.36H24.77Z"/><path d="M84.19,97.78h20.73a1.5,1.5,0,0,0,1.5-1.5V75.55a1.5,1.5,0,0,0-1.5-1.5H84.19a1.5,1.5,0,0,0-1.5,1.5V96.28A1.5,1.5,0,0,0,84.19,97.78ZM96.05,77.05h7.37v7.37H96.05Zm0,10.37h7.37v7.36H96.05ZM85.69,77.05h7.36v7.37H85.69Zm0,10.37h7.36v7.36H85.69Z"/></svg>