<svg id="Layer_1" data-name="Layer 1" xmlns="http://www.w3.org/2000/svg" viewBox="0 0 64 64"><title>house-md</title><path d="M4.36,30.64,32.16,3.75,60,30.64a1,1,0,0,0,.69.28,1,1,0,0,0,.7-1.72L32.86,1.65a1,1,0,0,0-1.39,0L3,29.2a1,1,0,0,0,0,1.42A1,1,0,0,0,4.36,30.64Z"/><path d="M26.46,21.38a5.7,5.7,0,1,0,5.7-5.7A5.71,5.71,0,0,0,26.46,21.38Zm9.4,0a3.7,3.7,0,1,1-3.7-3.7A3.7,3.7,0,0,1,35.86,21.38Z"/><path d="M60.66,52h-8.5V29.92a1,1,0,0,0-2,0V52H37.59V41.28a1,1,0,0,0-1-1h-9a1,1,0,0,0-1,1V52H14.17V29.92a1,1,0,0,0-2,0V52H3.67a1,1,0,0,0,0,2h57a1,1,0,0,0,0-2ZM28.58,42.28h7V52h-7Z"/></svg>