<svg id="Layer_1" data-name="Layer 1" xmlns="http://www.w3.org/2000/svg" viewBox="0 0 128 128"><title>house_powerline-lg</title><path d="M41.28,64.29,27.36,77.76a1.5,1.5,0,0,0,1,2.58,1.53,1.53,0,0,0,1.05-.42L43.37,66.45a1.5,1.5,0,1,0-2.09-2.16Z"/><path d="M52.13,55.89a1.5,1.5,0,0,0,2.12,0l15.55-15,40.36,39a1.5,1.5,0,0,0,1,.42,1.46,1.46,0,0,0,1.08-.46,1.5,1.5,0,0,0,0-2.12l-41.4-40a1.51,1.51,0,0,0-2.09,0L52.17,53.77A1.5,1.5,0,0,0,52.13,55.89Z"/><path d="M61.48,66.43A8.33,8.33,0,1,0,69.8,58.1,8.33,8.33,0,0,0,61.48,66.43Zm13.65,0A5.33,5.33,0,1,1,69.8,61.1,5.33,5.33,0,0,1,75.13,66.43Z"/><path d="M123.9,110.9H99V75.84a1.5,1.5,0,0,0-3,0V110.9H77.85V91.33a1.5,1.5,0,0,0-1.5-1.5H63.25a1.5,1.5,0,0,0-1.5,1.5V110.9H43.83V75.84a1.5,1.5,0,0,0-3,0V110.9h-13a1.5,1.5,0,1,0,0,3h96a1.5,1.5,0,0,0,0-3Zm-49.05,0H64.75V92.83h10.1Z"/><path d="M30,56.56h0a1.53,1.53,0,0,0,0,.3A.45.45,0,0,0,30,57a1.09,1.09,0,0,0,.05.17l.06.12s.05.09.08.14l.06.07.12.15.07.05a1.07,1.07,0,0,0,.16.14,1.59,1.59,0,0,0,.26.14h0c.32.13,8,3.27,25.65,4.68h.12a1.5,1.5,0,0,0,.12-3C43,58.54,35.44,56.34,33,55.51V51.38h5a1.5,1.5,0,0,0,0-3H22V32.67h8v5.19h0a1.53,1.53,0,0,0,0,.3.38.38,0,0,0,0,.1.84.84,0,0,0,.05.17l.06.12c0,.05.05.1.08.14l.06.08.12.15.07,0,.16.13a1.08,1.08,0,0,0,.26.14h0c.32.14,8,3.28,25.65,4.68h.12a1.5,1.5,0,0,0,.12-3C43,39.84,35.44,37.64,33,36.8V32.67h5a1.5,1.5,0,0,0,0-3H22V15.6a1.5,1.5,0,1,0-3,0V29.67H4.1a1.5,1.5,0,0,0,0,3H9.67v3.19a1.5,1.5,0,0,0,3,0V32.67H19V48.38H4.1a1.5,1.5,0,0,0,0,3H9.67v3.18a1.5,1.5,0,0,0,3,0V51.38H19v61a1.5,1.5,0,0,0,3,0v-61h8Z"/></svg>