<svg xmlns="http://www.w3.org/2000/svg" viewBox="0 0 24 24"><title>img</title><path d="M22,11.31H17.91V8.44a1,1,0,0,0-.29-.71L11.19,1.29A1.05,1.05,0,0,0,10.48,1H2A1,1,0,0,0,1,2V22a1,1,0,0,0,1,1H16.91a1,1,0,0,0,1-1V19.36H22a1,1,0,0,0,1-1v-6A1,1,0,0,0,22,11.31ZM11.48,4.41l3,3h-3Zm4.43,6.9H8.3a1,1,0,0,0-1,1v6a1,1,0,0,0,1,1h7.61V21H3V3H9.48V8.44a1,1,0,0,0,1,1h5.43Zm-1,3.19s-.12.38-.21.6l-.56,1.32a.24.24,0,0,1-.25.18h-.23a.24.24,0,0,1-.26-.18l-.56-1.32c-.09-.22-.21-.6-.21-.6h0s0,.35,0,.6l-.15,2a.21.21,0,0,1-.23.22H12c-.15,0-.22-.09-.21-.24l.27-3.42a.22.22,0,0,1,.24-.21h.34a.26.26,0,0,1,.26.18l.69,1.73c.09.23.2.57.2.57h0s.1-.34.19-.57l.69-1.73A.25.25,0,0,1,15,13.4h.34a.21.21,0,0,1,.23.21L15.8,17a.2.2,0,0,1-.22.24h-.24a.23.23,0,0,1-.24-.22l-.14-2c0-.25,0-.6,0-.6Zm-4.19-.87V17c0,.15-.07.23-.22.23h-.25c-.15,0-.22-.08-.22-.23V13.63c0-.15.07-.23.22-.23h.25C10.68,13.4,10.75,13.48,10.75,13.63ZM20.24,17c0,.15-.07.23-.22.23h-.14c-.15,0-.22-.08-.22-.19v-.19h0a1.54,1.54,0,0,1-1.13.44,1.91,1.91,0,0,1-1.9-2,2,2,0,0,1,2-2,2.36,2.36,0,0,1,1.26.35.21.21,0,0,1,.05.32l-.1.15c-.08.13-.18.14-.31.06a1.73,1.73,0,0,0-.86-.24,1.26,1.26,0,0,0-1.32,1.34,1.3,1.3,0,0,0,1.29,1.38,1.28,1.28,0,0,0,1-.43v-.43h-.37A.2.2,0,0,1,19,15.6v-.14c0-.16.08-.23.22-.23H20c.15,0,.22.07.22.23Z"/></svg>