<svg xmlns="http://www.w3.org/2000/svg" viewBox="0 0 24 24"><title>instagram</title><path d="M12,2.31c3.14,0,3.51,0,4.75.07a6.37,6.37,0,0,1,2.18.41,3.48,3.48,0,0,1,1.35.88A3.62,3.62,0,0,1,21.14,5a6.7,6.7,0,0,1,.4,2.18c.05,1.24.07,1.61.07,4.75s0,3.51-.07,4.74a6.84,6.84,0,0,1-.4,2.19,4,4,0,0,1-2.24,2.23,6.44,6.44,0,0,1-2.18.4c-1.24.06-1.61.07-4.75.07s-3.5,0-4.74-.07A6.57,6.57,0,0,1,5,21.11a3.91,3.91,0,0,1-2.23-2.23,6.57,6.57,0,0,1-.4-2.19c-.06-1.23-.07-1.61-.07-4.74s0-3.51.07-4.75A6.44,6.44,0,0,1,2.81,5a3.72,3.72,0,0,1,.88-1.35A3.55,3.55,0,0,1,5,2.79a6.5,6.5,0,0,1,2.19-.41c1.24,0,1.61-.07,4.74-.07M12,.2C8.78.2,8.38.21,7.13.27A8.43,8.43,0,0,0,4.28.81,5.72,5.72,0,0,0,2.2,2.17,5.67,5.67,0,0,0,.84,4.25,8.7,8.7,0,0,0,.29,7.1C.24,8.36.22,8.76.22,12s0,3.59.07,4.84a8.65,8.65,0,0,0,.55,2.85A5.71,5.71,0,0,0,2.2,21.73a5.69,5.69,0,0,0,2.08,1.35,8.65,8.65,0,0,0,2.85.55c1.25.05,1.65.07,4.84.07s3.6,0,4.85-.07a8.7,8.7,0,0,0,2.85-.55,5.77,5.77,0,0,0,2.08-1.35,5.84,5.84,0,0,0,1.36-2.09,8.68,8.68,0,0,0,.54-2.85c.06-1.25.07-1.65.07-4.84s0-3.59-.07-4.85a8.48,8.48,0,0,0-.54-2.85,5.8,5.8,0,0,0-1.36-2.08A5.8,5.8,0,0,0,19.67.81,8.48,8.48,0,0,0,16.82.27C15.57.21,15.17.2,12,.2Zm0,5.71a6,6,0,1,0,6,6A6,6,0,0,0,12,5.91Zm0,10A3.92,3.92,0,1,1,15.89,12,3.91,3.91,0,0,1,12,15.86ZM18.25,4.27a1.41,1.41,0,1,0,1.41,1.4A1.41,1.41,0,0,0,18.25,4.27Z"/></svg>