<svg xmlns="http://www.w3.org/2000/svg" viewBox="0 0 128 128"><title>invoice-lg</title><path d="M33.11,92.42H94.89a1.5,1.5,0,0,0,1.5-1.5V48.07a1.5,1.5,0,0,0-1.5-1.5H33.11a1.5,1.5,0,0,0-1.5,1.5V90.92A1.5,1.5,0,0,0,33.11,92.42ZM93.39,75.13H77.64V63.85H93.39Zm-18.75,0h-40V63.85h40Zm-40,3h40V89.42h-40Zm43,11.29V78.13H93.39V89.42ZM93.39,60.85H77.64V49.57H93.39ZM74.64,49.57V60.85h-40V49.57Z"/><path d="M112.7.5H15.3A1.5,1.5,0,0,0,13.8,2V126a1.5,1.5,0,0,0,1.5,1.5h97.4a1.5,1.5,0,0,0,1.5-1.5V2A1.5,1.5,0,0,0,112.7.5Zm-1.5,124H16.8V3.5h94.4Z"/><path d="M95,106.45H76.22a1.5,1.5,0,0,0,0,3H95a1.5,1.5,0,0,0,0-3Z"/><path d="M42.54,31.84H85.46a1.5,1.5,0,0,0,1.5-1.5V19.75a1.5,1.5,0,0,0-1.5-1.5H42.54a1.5,1.5,0,0,0-1.5,1.5V30.34A1.5,1.5,0,0,0,42.54,31.84ZM44,21.25H84v7.59H44Z"/></svg>