<svg id="Layer_1" data-name="Layer 1" xmlns="http://www.w3.org/2000/svg" viewBox="0 0 64 64"><title>invoice-md</title><path d="M17.05,46H46.94a1,1,0,0,0,1-1V24.29a1,1,0,0,0-1-1H17.05a1,1,0,0,0-1,1V45A1,1,0,0,0,17.05,46Zm28.89-8.91H38.88V32.2h7.06Zm-9.06,0H18.05V32.2H36.88Zm-18.83,2H36.88V44H18.05ZM38.88,44V39.11h7.06V44ZM45.94,30.2H38.88V25.29h7.06Zm-9.06-4.91V30.2H18.05V25.29Z"/><path d="M55.56,1H8.44a1,1,0,0,0-1,1V62a1,1,0,0,0,1,1H55.56a1,1,0,0,0,1-1V2A1,1,0,0,0,55.56,1Zm-1,60H9.44V3H54.56Z"/><path d="M47,52.27H37.91a1,1,0,0,0,0,2H47a1,1,0,0,0,0-2Z"/><path d="M21.61,16.71H42.39a1,1,0,0,0,1-1V10.59a1,1,0,0,0-1-1H21.61a1,1,0,0,0-1,1v5.12A1,1,0,0,0,21.61,16.71Zm1-5.12H41.39v3.12H22.61Z"/></svg>