<svg xmlns="http://www.w3.org/2000/svg" viewBox="0 0 128 128"><title>bell-lg</title><path d="M46,24.3V8.1h3.1v8.6l3.6-4.1h3.8l-4,4.3l4.3,7.4h-3.3L50.5,19l-1.4,1.5v3.7H46z"/><path d="M61,24.3L57.1,8.1h3.3l2.4,11.1l3-11.1h3.9l2.8,11.3L75,8.1h3.3l-3.9,16.2h-3.5l-3.2-12.1l-3.2,12.1H61z"/><path d="M83.1,8.1v5.9c1-1.2,2.2-1.8,3.6-1.8c0.7,0,1.4,0.1,1.9,0.4c0.6,0.3,1,0.6,1.3,1c0.3,0.4,0.5,0.9,0.6,1.4c0.1,0.5,0.2,1.3,0.2,2.3v6.9h-3.1v-6.2c0-1.2-0.1-2-0.2-2.3c-0.1-0.3-0.3-0.6-0.6-0.8c-0.3-0.2-0.7-0.3-1.1-0.3c-0.5,0-1,0.1-1.4,0.4c-0.4,0.2-0.7,0.6-0.9,1.1c-0.2,0.5-0.3,1.2-0.3,2.2v5.9H80V8.1H83.1z"/><path d="M125.3,91.6c-0.1,0-0.2,0-0.3,0l-11.5-2.8c-0.5-0.1-0.8-0.4-1-0.9l-10.5-25.4L91.9,75.5c-0.2,0.3-0.5,0.5-0.9,0.5l-11.5,2.3c-0.6,0.1-1.1-0.1-1.5-0.6L66.7,62l-10.4-2.2l-11,7.2c-0.3,0.2-0.8,0.3-1.2,0.2c-0.4-0.1-0.7-0.4-0.9-0.8L32.4,45.2l-10.2,7.3c-0.3,0.2-0.8,0.3-1.2,0.2c-0.4-0.1-0.8-0.3-1-0.7L10,34.3c-0.4-0.7-0.2-1.6,0.5-2c0.7-0.4,1.6-0.2,2,0.5l9.3,16.3l10.2-7.4c0.3-0.3,0.8-0.3,1.2-0.2c0.4,0.1,0.8,0.4,1,0.8l10.8,21.3l10.2-6.7c0.3-0.2,0.7-0.3,1.1-0.2l11.5,2.5c0.4,0.1,0.7,0.3,0.9,0.6l11,15.4l10.1-2l11.3-14.5c0.3-0.4,0.8-0.6,1.4-0.6c0.5,0.1,1,0.4,1.2,0.9l11.2,27l10.8,2.6c0.8,0.2,1.3,1,1.1,1.8C126.6,91.2,126,91.6,125.3,91.6z"/><path d="M11.3,121.4c-0.8,0-1.5-0.7-1.5-1.5V8.1c0-0.8,0.7-1.5,1.5-1.5s1.5,0.7,1.5,1.5v111.8C12.7,120.7,12.1,121.4,11.3,121.4z"/><path d="M125.3,112.8H2.7c-0.8,0-1.5-0.7-1.5-1.5s0.7-1.5,1.5-1.5h122.7c0.8,0,1.5,0.7,1.5,1.5S126.2,112.8,125.3,112.8z"/></svg>