<svg xmlns="http://www.w3.org/2000/svg" viewBox="0 0 128 128">
		<path d="M63.7,75.7c-0.5,0-1-0.4-1-1v-7.1c0-0.5,0.4-1,1-1s1,0.4,1,1v7.1C64.6,75.2,64.2,75.7,63.7,75.7z"/>
		<path d="M53.3,75.7c-0.5,0-1-0.4-1-1v-7.1c0-0.5,0.4-1,1-1s1,0.4,1,1v7.1C54.3,75.2,53.9,75.7,53.3,75.7z"/>
		<path d="M58.5,75.7c-0.5,0-1-0.4-1-1v-7.1c0-0.5,0.4-1,1-1s1,0.4,1,1v7.1C59.5,75.2,59,75.7,58.5,75.7z"/>
		<path d="M48.2,75.7L48.2,75.7c-0.5,0-1-0.4-1-1l0-7.1c0-0.5,0.4-1,1-1l0,0c0.5,0,1,0.4,1,1l0,7.1C49.1,75.2,48.7,75.7,48.2,75.7z"
			/>
		<path d="M43,75.7L43,75.7c-0.5,0-1-0.4-1-1l0-7.1c0-0.5,0.4-1,1-1l0,0c0.5,0,1,0.4,1,1l0,7.1C44,75.2,43.5,75.7,43,75.7z"/>
		<path d="M84.3,75.7c-0.5,0-1-0.4-1-1v-7.1c0-0.5,0.4-1,1-1s1,0.4,1,1v7.1C85.3,75.2,84.9,75.7,84.3,75.7z"/>
		<path d="M74,75.7c-0.5,0-1-0.4-1-1v-7.1c0-0.5,0.4-1,1-1s1,0.4,1,1v7.1C75,75.2,74.5,75.7,74,75.7z"/>
		<path d="M79.2,75.7c-0.5,0-1-0.4-1-1v-7.1c0-0.5,0.4-1,1-1s1,0.4,1,1v7.1C80.1,75.2,79.7,75.7,79.2,75.7z"/>
		<path d="M68.8,75.7L68.8,75.7c-0.5,0-1-0.4-1-1l0-7.1c0-0.5,0.4-1,1-1l0,0c0.5,0,1,0.4,1,1l0,7.1C69.8,75.2,69.4,75.7,68.8,75.7z"
			/>
	<path d="M24.5,110.6c-0.3,0-0.5-0.1-0.7-0.3c-0.4-0.4-0.4-1,0-1.4l7.8-7.8c0.4-0.4,1-0.4,1.4,0c0.4,0.4,0.4,1,0,1.4l-7.8,7.8
		C25.1,110.5,24.8,110.6,24.5,110.6z"/>
	<path d="M40.5,121.2c-0.2,0-0.4-0.1-0.5-0.2c-0.5-0.3-0.6-0.9-0.3-1.4l6-9.3c0.3-0.5,0.9-0.6,1.4-0.3c0.5,0.3,0.6,0.9,0.3,1.4
		l-6,9.3C41.2,121,40.8,121.2,40.5,121.2z"/>
	<path d="M64,126.5c-0.5,0-1-0.4-1-1v-10.9c0-0.5,0.4-1,1-1s1,0.4,1,1v10.9C65,126.1,64.5,126.5,64,126.5z"/>
	<path d="M103.5,110.6c-0.3,0-0.5-0.1-0.7-0.3l-7.8-7.8c-0.4-0.4-0.4-1,0-1.4c0.4-0.4,1-0.4,1.4,0l7.8,7.8c0.4,0.4,0.4,1,0,1.4
		C104,110.5,103.7,110.6,103.5,110.6z"/>
	<path d="M87.5,121.2c-0.3,0-0.6-0.2-0.8-0.5l-6-9.3c-0.3-0.5-0.2-1.1,0.3-1.4c0.5-0.3,1.1-0.2,1.4,0.3l6,9.3
		c0.3,0.5,0.2,1.1-0.3,1.4C87.8,121.1,87.7,121.2,87.5,121.2z"/>
	<path d="M79.3,36.2c-0.8,0-1.5-0.7-1.5-1.5V18.6c0-7.8-6.4-14.2-14.2-14.2c-7.8,0-14.2,6.4-14.2,14.2l0,16.1c0,0.8-0.7,1.5-1.5,1.5
		c-0.8,0-1.5-0.7-1.5-1.5l0-16.1c0-9.4,7.7-17.1,17.1-17.1c9.4,0,17.1,7.7,17.1,17.1v16.1C80.8,35.5,80.1,36.2,79.3,36.2z"/>
	<path d="M79.3,36.2H48c-0.8,0-1.5-0.7-1.5-1.5c0-0.8,0.7-1.5,1.5-1.5h31.3c0.8,0,1.5,0.7,1.5,1.5C80.8,35.5,80.1,36.2,79.3,36.2z"
		/>
	<path d="M79.3,29.2H48c-0.8,0-1.5-0.7-1.5-1.5c0-0.8,0.7-1.5,1.5-1.5h31.3c0.8,0,1.5,0.7,1.5,1.5C80.8,28.5,80.1,29.2,79.3,29.2z"
		/>
		<path d="M29.7,83.9c-0.2,0-0.4,0-0.5-0.1c-0.8-0.3-1.1-1.2-0.9-1.9l18.3-47.7c0.3-0.8,1.2-1.1,1.9-0.9c0.8,0.3,1.1,1.2,0.9,1.9
			L31.1,82.9C30.9,83.5,30.3,83.9,29.7,83.9z"/>
		<path d="M97.6,83.9c-0.6,0-1.2-0.4-1.4-1L77.9,35.2c-0.3-0.8,0.1-1.6,0.9-1.9c0.8-0.3,1.6,0.1,1.9,0.9L99,81.9
			c0.3,0.8-0.1,1.6-0.9,1.9C97.9,83.8,97.8,83.9,97.6,83.9z"/>
	<path d="M63.7,105.5c-15.5,0-31-9.9-35.3-22.6c-0.2-0.5-0.1-1,0.2-1.3c0.3-0.4,0.7-0.6,1.2-0.6h67.9c0.5,0,0.9,0.2,1.2,0.6
		c0.3,0.4,0.4,0.9,0.2,1.3C94.6,95.6,79.1,105.5,63.7,105.5z M31.9,83.9c4.8,10.5,18.5,18.7,31.7,18.7c13.2,0,26.9-8.2,31.7-18.7
		H31.9z"/>
	<path d="M63.7,96.7c-5.6,0-11.2-1.5-16.1-4.2c-0.5-0.3-0.6-0.9-0.4-1.3c0.3-0.5,0.9-0.6,1.3-0.4c4.6,2.6,9.9,3.9,15.2,3.9
		c5.3,0,10.5-1.4,15.2-3.9c0.5-0.3,1.1-0.1,1.3,0.4c0.3,0.5,0.1,1.1-0.4,1.3C74.9,95.2,69.3,96.7,63.7,96.7z"/>
</svg>
