<svg xmlns="http://www.w3.org/2000/svg" viewBox="0 0 128 128">
			<path d="M63.7,75.7c-0.5,0-1-0.4-1-1v-7.1c0-0.5,0.4-1,1-1s1,0.4,1,1v7.1C64.6,75.2,64.2,75.7,63.7,75.7z"/>
			<path d="M63.7,76.2c-0.8,0-1.5-0.7-1.5-1.5v-7.1c0-0.8,0.7-1.5,1.5-1.5s1.5,0.7,1.5,1.5v7.1C65.1,75.5,64.5,76.2,63.7,76.2z
				 M63.7,67.1c-0.3,0-0.5,0.2-0.5,0.5v7.1c0,0.3,0.2,0.5,0.5,0.5s0.5-0.2,0.5-0.5v-7.1C64.1,67.3,63.9,67.1,63.7,67.1z"/>
			<path d="M53.3,75.7c-0.5,0-1-0.4-1-1v-7.1c0-0.5,0.4-1,1-1s1,0.4,1,1v7.1C54.3,75.2,53.9,75.7,53.3,75.7z"/>
			<path d="M53.3,76.2c-0.8,0-1.5-0.7-1.5-1.5v-7.1c0-0.8,0.7-1.5,1.5-1.5s1.5,0.7,1.5,1.5v7.1C54.8,75.5,54.1,76.2,53.3,76.2z
				 M53.3,67.1c-0.3,0-0.5,0.2-0.5,0.5v7.1c0,0.3,0.2,0.5,0.5,0.5s0.5-0.2,0.5-0.5v-7.1C53.8,67.3,53.6,67.1,53.3,67.1z"/>
			<path d="M58.5,75.7c-0.5,0-1-0.4-1-1v-7.1c0-0.5,0.4-1,1-1s1,0.4,1,1v7.1C59.5,75.2,59,75.7,58.5,75.7z"/>
			<path d="M58.5,76.2c-0.8,0-1.5-0.7-1.5-1.5v-7.1c0-0.8,0.7-1.5,1.5-1.5s1.5,0.7,1.5,1.5v7.1C60,75.5,59.3,76.2,58.5,76.2z
				 M58.5,67.1c-0.3,0-0.5,0.2-0.5,0.5v7.1c0,0.3,0.2,0.5,0.5,0.5S59,75,59,74.7v-7.1C59,67.3,58.8,67.1,58.5,67.1z"/>
			<path d="M48.2,75.7L48.2,75.7c-0.5,0-1-0.4-1-1l0-7.1c0-0.5,0.4-1,1-1l0,0c0.5,0,1,0.4,1,1l0,7.1C49.1,75.2,48.7,75.7,48.2,75.7z
				"/>
			<path d="M48.2,76.2c-0.8,0-1.5-0.7-1.5-1.5l0-7.1c0-0.8,0.7-1.5,1.5-1.5s1.5,0.7,1.5,1.5l0,7.1C49.6,75.5,49,76.2,48.2,76.2z
				 M48.2,67.1c-0.3,0-0.5,0.2-0.5,0.5l0,7.1c0,0.3,0.2,0.5,0.5,0.5s0.5-0.2,0.5-0.5l0-7.1C48.7,67.3,48.4,67.1,48.2,67.1z"/>
			<path d="M43,75.7L43,75.7c-0.5,0-1-0.4-1-1l0-7.1c0-0.5,0.4-1,1-1l0,0c0.5,0,1,0.4,1,1l0,7.1C44,75.2,43.5,75.7,43,75.7z"/>
			<path d="M43,76.2c-0.8,0-1.5-0.7-1.5-1.5l0-7.1c0-0.8,0.7-1.5,1.5-1.5s1.5,0.7,1.5,1.5l0,7.1C44.5,75.5,43.8,76.2,43,76.2z
				 M43,67.1c-0.3,0-0.5,0.2-0.5,0.5l0,7.1c0,0.3,0.2,0.5,0.5,0.5s0.5-0.2,0.5-0.5l0-7.1C43.5,67.3,43.3,67.1,43,67.1z"/>
			<path d="M84.3,75.7c-0.5,0-1-0.4-1-1v-7.1c0-0.5,0.4-1,1-1s1,0.4,1,1v7.1C85.3,75.2,84.9,75.7,84.3,75.7z"/>
			<path d="M84.3,76.2c-0.8,0-1.5-0.7-1.5-1.5v-7.1c0-0.8,0.7-1.5,1.5-1.5s1.5,0.7,1.5,1.5v7.1C85.8,75.5,85.1,76.2,84.3,76.2z
				 M84.3,67.1c-0.3,0-0.5,0.2-0.5,0.5v7.1c0,0.3,0.2,0.5,0.5,0.5c0.3,0,0.5-0.2,0.5-0.5v-7.1C84.8,67.3,84.6,67.1,84.3,67.1z"/>
			<path d="M74,75.7c-0.5,0-1-0.4-1-1v-7.1c0-0.5,0.4-1,1-1s1,0.4,1,1v7.1C75,75.2,74.5,75.7,74,75.7z"/>
			<path d="M74,76.2c-0.8,0-1.5-0.7-1.5-1.5v-7.1c0-0.8,0.7-1.5,1.5-1.5s1.5,0.7,1.5,1.5v7.1C75.5,75.5,74.8,76.2,74,76.2z M74,67.1
				c-0.3,0-0.5,0.2-0.5,0.5v7.1c0,0.3,0.2,0.5,0.5,0.5c0.3,0,0.5-0.2,0.5-0.5v-7.1C74.5,67.3,74.3,67.1,74,67.1z"/>
			<path d="M79.2,75.7c-0.5,0-1-0.4-1-1v-7.1c0-0.5,0.4-1,1-1s1,0.4,1,1v7.1C80.1,75.2,79.7,75.7,79.2,75.7z"/>
			<path d="M79.2,76.2c-0.8,0-1.5-0.7-1.5-1.5v-7.1c0-0.8,0.7-1.5,1.5-1.5s1.5,0.7,1.5,1.5v7.1C80.6,75.5,80,76.2,79.2,76.2z
				 M79.2,67.1c-0.3,0-0.5,0.2-0.5,0.5v7.1c0,0.3,0.2,0.5,0.5,0.5c0.3,0,0.5-0.2,0.5-0.5v-7.1C79.6,67.3,79.4,67.1,79.2,67.1z"/>
			<path d="M68.8,75.7L68.8,75.7c-0.5,0-1-0.4-1-1l0-7.1c0-0.5,0.4-1,1-1l0,0c0.5,0,1,0.4,1,1l0,7.1C69.8,75.2,69.4,75.7,68.8,75.7z
				"/>
			<path d="M68.8,76.2c-0.8,0-1.5-0.7-1.5-1.5l0-7.1c0-0.8,0.7-1.5,1.5-1.5s1.5,0.7,1.5,1.5l0,7.1C70.3,75.5,69.6,76.2,68.8,76.2z
				 M68.8,67.1c-0.3,0-0.5,0.2-0.5,0.5l0,7.1c0,0.3,0.2,0.5,0.5,0.5c0.3,0,0.5-0.2,0.5-0.5l0-7.1C69.3,67.3,69.1,67.1,68.8,67.1z"/>
		<path d="M24.5,110.6c-0.3,0-0.5-0.1-0.7-0.3c-0.4-0.4-0.4-1,0-1.4l7.8-7.8c0.4-0.4,1-0.4,1.4,0c0.4,0.4,0.4,1,0,1.4l-7.8,7.8
			C25.1,110.5,24.8,110.6,24.5,110.6z"/>
		<path d="M24.5,111.1c-0.4,0-0.8-0.2-1.1-0.4c-0.6-0.6-0.6-1.5,0-2.1l7.8-7.8c0.6-0.6,1.5-0.6,2.1,0c0.6,0.6,0.6,1.5,0,2.1
			l-7.8,7.8C25.3,110.9,24.9,111.1,24.5,111.1z M32.4,101.3c-0.1,0-0.3,0-0.3,0.1l-7.8,7.8c-0.2,0.2-0.2,0.5,0,0.7
			c0.2,0.2,0.5,0.2,0.7,0l7.8-7.8c0.2-0.2,0.2-0.5,0-0.7C32.6,101.3,32.5,101.3,32.4,101.3z"/>
		<path d="M40.5,121.2c-0.2,0-0.4-0.1-0.5-0.2c-0.5-0.3-0.6-0.9-0.3-1.4l6-9.3c0.3-0.5,0.9-0.6,1.4-0.3c0.5,0.3,0.6,0.9,0.3,1.4
			l-6,9.3C41.2,121,40.8,121.2,40.5,121.2z"/>
		<path d="M40.5,121.7c-0.3,0-0.6-0.1-0.8-0.2c-0.3-0.2-0.6-0.6-0.6-0.9c-0.1-0.4,0-0.8,0.2-1.1l6-9.3c0.4-0.7,1.4-0.9,2.1-0.4
			c0.7,0.4,0.9,1.4,0.4,2.1l-6,9.3C41.5,121.4,41,121.7,40.5,121.7z M46.5,110.4c0,0-0.1,0-0.1,0c-0.1,0-0.2,0.1-0.3,0.2l-6,9.3
			c-0.1,0.1-0.1,0.2-0.1,0.4c0,0.1,0.1,0.2,0.2,0.3c0.2,0.1,0.5,0.1,0.7-0.1l6-9.3c0.1-0.2,0.1-0.5-0.1-0.7
			C46.7,110.4,46.6,110.4,46.5,110.4z"/>
		<path d="M64,126.5c-0.5,0-1-0.4-1-1v-10.9c0-0.5,0.4-1,1-1s1,0.4,1,1v10.9C65,126.1,64.5,126.5,64,126.5z"/>
		<path d="M64,127c-0.8,0-1.5-0.7-1.5-1.5v-10.9c0-0.8,0.7-1.5,1.5-1.5s1.5,0.7,1.5,1.5v10.9C65.5,126.3,64.8,127,64,127z M64,114.1
			c-0.3,0-0.5,0.2-0.5,0.5v10.9c0,0.3,0.2,0.5,0.5,0.5s0.5-0.2,0.5-0.5v-10.9C64.5,114.3,64.3,114.1,64,114.1z"/>
		<path d="M103.5,110.6c-0.3,0-0.5-0.1-0.7-0.3l-7.8-7.8c-0.4-0.4-0.4-1,0-1.4c0.4-0.4,1-0.4,1.4,0l7.8,7.8c0.4,0.4,0.4,1,0,1.4
			C104,110.5,103.7,110.6,103.5,110.6z"/>
		<path d="M103.5,111.1c-0.4,0-0.8-0.2-1.1-0.4l-7.8-7.8c-0.6-0.6-0.6-1.5,0-2.1c0.6-0.6,1.5-0.6,2.1,0l7.8,7.8
			c0.6,0.6,0.6,1.5,0,2.1C104.2,110.9,103.8,111.1,103.5,111.1z M95.6,101.3c-0.1,0-0.3,0-0.3,0.1c-0.2,0.2-0.2,0.5,0,0.7l7.8,7.8
			c0.2,0.2,0.5,0.2,0.7,0c0.2-0.2,0.2-0.5,0-0.7l-7.8-7.8C95.9,101.3,95.8,101.3,95.6,101.3z"/>
		<path d="M87.5,121.2c-0.3,0-0.6-0.2-0.8-0.5l-6-9.3c-0.3-0.5-0.2-1.1,0.3-1.4c0.5-0.3,1.1-0.2,1.4,0.3l6,9.3
			c0.3,0.5,0.2,1.1-0.3,1.4C87.8,121.1,87.7,121.2,87.5,121.2z"/>
		<path d="M87.5,121.7c-0.5,0-1-0.3-1.3-0.7l-6-9.3c-0.4-0.7-0.2-1.6,0.4-2.1c0.3-0.2,0.7-0.3,1.1-0.2c0.4,0.1,0.7,0.3,0.9,0.6
			l6,9.3c0.2,0.3,0.3,0.7,0.2,1.1c-0.1,0.4-0.3,0.7-0.6,0.9C88,121.6,87.8,121.7,87.5,121.7z M81.5,110.4c-0.1,0-0.2,0-0.3,0.1
			c-0.2,0.1-0.3,0.5-0.1,0.7l6,9.3c0.1,0.2,0.5,0.3,0.7,0.1c0.1-0.1,0.2-0.2,0.2-0.3s0-0.3-0.1-0.4l-6-9.3c-0.1-0.1-0.2-0.2-0.3-0.2
			C81.5,110.4,81.5,110.4,81.5,110.4z"/>
		<path d="M79.3,36.2c-0.8,0-1.5-0.7-1.5-1.5V18.6c0-7.8-6.4-14.2-14.2-14.2c-7.8,0-14.2,6.4-14.2,14.2l0,16.1
			c0,0.8-0.7,1.5-1.5,1.5c-0.8,0-1.5-0.7-1.5-1.5l0-16.1c0-9.4,7.7-17.1,17.1-17.1c9.4,0,17.1,7.7,17.1,17.1v16.1
			C80.8,35.5,80.1,36.2,79.3,36.2z"/>
		<path d="M79.3,36.7c-1.1,0-2-0.9-2-2V18.6C77.3,11.1,71.2,5,63.7,5C56.1,5,50,11.1,50,18.6l0,16.1c0,1.1-0.9,2-2,2s-2-0.9-2-2
			l0-16.1C46,8.9,53.9,1,63.7,1c9.7,0,17.6,7.9,17.6,17.6v16.1C81.3,35.8,80.4,36.7,79.3,36.7z M63.7,4c8.1,0,14.7,6.6,14.7,14.7
			v16.1c0,0.5,0.4,1,1,1s1-0.4,1-1V18.6C80.3,9.5,72.8,2,63.7,2S47,9.5,47,18.6l0,16.1c0,0.5,0.4,1,1,1s1-0.4,1-1l0-16.1
			C49,10.5,55.6,4,63.7,4z"/>
		<path d="M79.3,36.2H48c-0.8,0-1.5-0.7-1.5-1.5c0-0.8,0.7-1.5,1.5-1.5h31.3c0.8,0,1.5,0.7,1.5,1.5C80.8,35.5,80.1,36.2,79.3,36.2z"
			/>
		<path d="M79.3,36.7H48c-1.1,0-2-0.9-2-2s0.9-2,2-2h31.3c1.1,0,2,0.9,2,2S80.4,36.7,79.3,36.7z M48,33.7c-0.5,0-1,0.4-1,1
			s0.4,1,1,1h31.3c0.5,0,1-0.4,1-1s-0.4-1-1-1H48z"/>
		<path d="M79.3,29.2H48c-0.8,0-1.5-0.7-1.5-1.5c0-0.8,0.7-1.5,1.5-1.5h31.3c0.8,0,1.5,0.7,1.5,1.5C80.8,28.5,80.1,29.2,79.3,29.2z"
			/>
		<path d="M79.3,29.7H48c-1.1,0-2-0.9-2-2s0.9-2,2-2h31.3c1.1,0,2,0.9,2,2S80.4,29.7,79.3,29.7z M48,26.7c-0.5,0-1,0.4-1,1
			s0.4,1,1,1h31.3c0.5,0,1-0.4,1-1s-0.4-1-1-1H48z"/>
			<path d="M29.7,83.9c-0.2,0-0.4,0-0.5-0.1c-0.8-0.3-1.1-1.2-0.9-1.9l18.3-47.7c0.3-0.8,1.2-1.1,1.9-0.9c0.8,0.3,1.1,1.2,0.9,1.9
				L31.1,82.9C30.9,83.5,30.3,83.9,29.7,83.9z"/>
			<path d="M29.7,84.4c-0.2,0-0.5,0-0.7-0.1c-1-0.4-1.5-1.5-1.1-2.6L46.2,34c0.2-0.5,0.6-0.9,1-1.1c0.5-0.2,1-0.2,1.5,0
				c0.5,0.2,0.9,0.6,1.1,1s0.2,1,0,1.5L31.6,83.1C31.3,83.9,30.5,84.4,29.7,84.4z M48,33.7c-0.1,0-0.3,0-0.4,0.1
				c-0.2,0.1-0.4,0.3-0.5,0.5L28.8,82c-0.2,0.5,0.1,1.1,0.6,1.3c0.5,0.2,1.1-0.1,1.3-0.6L48.9,35c0.1-0.2,0.1-0.5,0-0.8
				c-0.1-0.2-0.3-0.4-0.5-0.5C48.3,33.7,48.1,33.7,48,33.7z"/>
			<path d="M97.6,83.9c-0.6,0-1.2-0.4-1.4-1L77.9,35.2c-0.3-0.8,0.1-1.6,0.9-1.9c0.8-0.3,1.6,0.1,1.9,0.9L99,81.9
				c0.3,0.8-0.1,1.6-0.9,1.9C97.9,83.8,97.8,83.9,97.6,83.9z"/>
			<path d="M97.6,84.4c-0.8,0-1.6-0.5-1.9-1.3L77.4,35.4c-0.2-0.5-0.2-1,0-1.5s0.6-0.9,1.1-1c0.5-0.2,1-0.2,1.5,0
				c0.5,0.2,0.9,0.6,1,1.1l18.3,47.7c0.4,1-0.1,2.2-1.1,2.6C98.1,84.3,97.8,84.4,97.6,84.4z M79.3,33.7c-0.1,0-0.2,0-0.4,0.1
				c-0.2,0.1-0.4,0.3-0.5,0.5c-0.1,0.2-0.1,0.5,0,0.8l18.3,47.7c0.2,0.5,0.8,0.8,1.3,0.6c0.2-0.1,0.4-0.3,0.5-0.5
				c0.1-0.2,0.1-0.5,0-0.8L80.2,34.3c-0.1-0.2-0.3-0.4-0.5-0.5C79.6,33.7,79.4,33.7,79.3,33.7z"/>
		<path d="M63.7,105.5c-15.5,0-31-9.9-35.3-22.6c-0.2-0.5-0.1-1,0.2-1.3c0.3-0.4,0.7-0.6,1.2-0.6h67.9c0.5,0,0.9,0.2,1.2,0.6
			c0.3,0.4,0.4,0.9,0.2,1.3C94.6,95.6,79.1,105.5,63.7,105.5z M31.9,83.9c4.8,10.5,18.5,18.7,31.7,18.7c13.2,0,26.9-8.2,31.7-18.7
			H31.9z"/>
		<path d="M63.7,106C48,106,32.3,95.9,27.8,83c-0.2-0.6-0.1-1.3,0.3-1.8c0.4-0.5,1-0.8,1.6-0.8h67.9c0.6,0,1.2,0.3,1.6,0.8
			c0.4,0.5,0.5,1.2,0.3,1.8C95,95.9,79.3,106,63.7,106z M29.7,81.4c-0.3,0-0.6,0.2-0.8,0.4c-0.2,0.3-0.2,0.6-0.1,0.9
			C33.1,95.2,48.4,105,63.7,105c15.3,0,30.6-9.8,34.9-22.3c0.1-0.3,0.1-0.6-0.1-0.9c-0.2-0.3-0.5-0.4-0.8-0.4H29.7z M63.7,103
			c-13.4,0-27.2-8.2-32.2-19l-0.3-0.7h65l-0.3,0.7C90.9,94.9,77,103,63.7,103z M32.7,84.4c5,10,18.4,17.7,30.9,17.7
			c12.5,0,25.9-7.7,30.9-17.7H32.7z"/>
		<path d="M63.7,96.7c-5.6,0-11.2-1.5-16.1-4.2c-0.5-0.3-0.6-0.9-0.4-1.3c0.3-0.5,0.9-0.6,1.3-0.4c4.6,2.6,9.9,3.9,15.2,3.9
			c5.3,0,10.5-1.4,15.2-3.9c0.5-0.3,1.1-0.1,1.3,0.4c0.3,0.5,0.1,1.1-0.4,1.3C74.9,95.2,69.3,96.7,63.7,96.7z"/>
		<path d="M63.7,97.2c-5.7,0-11.4-1.5-16.4-4.3c-0.3-0.2-0.6-0.5-0.7-0.9c-0.1-0.4-0.1-0.8,0.1-1.1c0.2-0.3,0.5-0.6,0.9-0.7
			c0.4-0.1,0.8-0.1,1.1,0.1c4.5,2.5,9.7,3.9,14.9,3.9c5.2,0,10.4-1.3,14.9-3.9c0.3-0.2,0.7-0.2,1.1-0.1c0.4,0.1,0.7,0.4,0.9,0.7
			c0.2,0.3,0.2,0.7,0.1,1.1c-0.1,0.4-0.4,0.7-0.7,0.9C75,95.7,69.4,97.2,63.7,97.2z M48,91.1c0,0-0.1,0-0.1,0
			c-0.1,0-0.2,0.1-0.3,0.2c-0.1,0.1-0.1,0.2,0,0.4c0,0.1,0.1,0.2,0.2,0.3c4.8,2.7,10.3,4.1,15.9,4.1s11-1.4,15.9-4.1
			c0.1-0.1,0.2-0.2,0.2-0.3c0-0.1,0-0.3,0-0.4c-0.1-0.1-0.2-0.2-0.3-0.2c-0.1,0-0.3,0-0.4,0c-4.7,2.6-10,4-15.4,4s-10.7-1.4-15.4-4
			C48.2,91.1,48.1,91.1,48,91.1z"/>
</svg>
