<svg id="Layer_1" data-name="Layer 1" xmlns="http://www.w3.org/2000/svg" viewBox="0 0 128 128"><title>liquid-lg</title><path d="M103.64,102.86a43.58,43.58,0,0,0,4.2-18.7A44.27,44.27,0,0,0,81.63,44.07v-29h.51a7.55,7.55,0,0,0,0-15.1H45.86a7.55,7.55,0,1,0,0,15.1h.51v29A44.27,44.27,0,0,0,20.16,84.16c0,.67,0,1.33.05,2v0s0,0,0,0a43.82,43.82,0,0,0,83.4,16.68S103.63,102.87,103.64,102.86ZM45.86,12.1a4.55,4.55,0,1,1,0-9.1H82.14a4.55,4.55,0,0,1,0,9.1H45.86Zm2.58,34.34a1.49,1.49,0,0,0,.93-1.38v-30H78.63v30a1.49,1.49,0,0,0,.93,1.38,41.25,41.25,0,0,1,25.28,37.72,40.67,40.67,0,0,1-3.57,16.66L85,101c-7.11-.23-17.12-3.27-22.51-8.62l-.11-.12C57.5,87.53,47,84.68,39.61,84.68H23.18c0-.18,0-.35,0-.52A41.25,41.25,0,0,1,48.44,46.44ZM64,125A40.89,40.89,0,0,1,23.33,87.68H39.61c6.61,0,16.39,2.58,20.67,6.77l.1.1c5.94,5.89,16.83,9.23,24.59,9.49l14.8-.2A40.87,40.87,0,0,1,64,125Z"/><path d="M90.21,93.32a5.13,5.13,0,1,0-5.13-5.13A5.13,5.13,0,0,0,90.21,93.32Zm0-7.26a2.13,2.13,0,1,1-2.13,2.13A2.14,2.14,0,0,1,90.21,86.06Z"/><path d="M76.1,79.61a7.55,7.55,0,1,0-7.55-7.55A7.55,7.55,0,0,0,76.1,79.61Zm0-12.09a4.55,4.55,0,1,1-4.55,4.54A4.55,4.55,0,0,1,76.1,67.52Z"/></svg>