<svg xmlns="http://www.w3.org/2000/svg" viewBox="0 0 128 128">
	<path d="M89,123.8H77.9c-5.4,0-9.8-4.4-9.8-9.8V39c0-6.8,4.1-11.4,7.6-14.1c1.1-0.8,2.4-1.3,3.8-1.3h8c1.4,0,2.7,0.5,3.8,1.3
		c3.5,2.7,7.6,7.3,7.6,14.1v75C98.8,119.4,94.4,123.8,89,123.8z M79.4,26.6c-0.7,0-1.4,0.2-2,0.7C74.5,29.5,71,33.4,71,39v75
		c0,3.8,3.1,6.9,6.9,6.9H89c3.8,0,6.9-3.1,6.9-6.9V39c0-5.6-3.5-9.5-6.4-11.8c-0.5-0.4-1.2-0.7-2-0.7H79.4z"/>
	<path d="M60.3,109.9h-4.7c-0.8,0-1.5-0.7-1.5-1.5V11.2c0-3.9,3.2-7,7-7h16.7c3.9,0,7,3.2,7,7v5.6c0,0.8-0.7,1.5-1.5,1.5
		S82,17.6,82,16.8v-5.6c0-2.2-1.8-4.1-4.1-4.1H61.2c-2.2,0-4.1,1.8-4.1,4.1V107h3.2c0.8,0,1.5,0.7,1.5,1.5S61.2,109.9,60.3,109.9z"
		/>
	<path d="M60.3,43.3h-4.4c-0.8,0-1.5-0.7-1.5-1.5s0.7-1.5,1.5-1.5h4.4c0.8,0,1.5,0.7,1.5,1.5S61.2,43.3,60.3,43.3z"/>
	<path d="M89,18.3H77.9c-0.8,0-1.5-0.7-1.5-1.5c0-0.8,0.7-1.5,1.5-1.5H89c0.8,0,1.5,0.7,1.5,1.5C90.5,17.6,89.8,18.3,89,18.3z"/>
	<path d="M60.3,59.9h-4.4c-0.8,0-1.5-0.7-1.5-1.5s0.7-1.5,1.5-1.5h4.4c0.8,0,1.5,0.7,1.5,1.5S61.2,59.9,60.3,59.9z"/>
	<path d="M60.3,76.6h-4.4c-0.8,0-1.5-0.7-1.5-1.5s0.7-1.5,1.5-1.5h4.4c0.8,0,1.5,0.7,1.5,1.5S61.2,76.6,60.3,76.6z"/>
	<path d="M60.3,93.3h-4.4c-0.8,0-1.5-0.7-1.5-1.5c0-0.8,0.7-1.5,1.5-1.5h4.4c0.8,0,1.5,0.7,1.5,1.5C61.8,92.6,61.2,93.3,60.3,93.3z"
		/>
	<path d="M116.8,123.8h-13c-0.8,0-1.5-0.7-1.5-1.5s0.7-1.5,1.5-1.5h13c3.8,0,6.9-3.1,6.9-6.9V39c0-5.5-3.5-9.4-6.3-11.7
		c-0.6-0.5-1.4-0.7-2.2-0.7h-7.8c-0.8,0-1.6,0.3-2.2,0.7c-0.6,0.5-1.3,1-1.8,1.6c-0.6,0.6-1.5,0.6-2.1,0c-0.6-0.6-0.6-1.5,0-2.1
		c0.6-0.6,1.3-1.3,2.1-1.8c1.1-0.9,2.6-1.4,4-1.4h7.8c1.5,0,2.9,0.5,4,1.4c3.4,2.7,7.5,7.3,7.5,14v75
		C126.6,119.4,122.2,123.8,116.8,123.8z"/>
	<path d="M111.2,18.3c-0.8,0-1.5-0.7-1.5-1.5v-5.6c0-2.2-1.8-4.1-4.1-4.1h-13c-0.8,0-1.5-0.7-1.5-1.5s0.7-1.5,1.5-1.5h13
		c3.9,0,7,3.2,7,7v5.6C112.7,17.6,112,18.3,111.2,18.3z"/>
	<path d="M116.8,18.3h-11.1c-0.8,0-1.5-0.7-1.5-1.5c0-0.8,0.7-1.5,1.5-1.5h11.1c0.8,0,1.5,0.7,1.5,1.5
		C118.3,17.6,117.6,18.3,116.8,18.3z"/>
	<path d="M60.3,123.8H8.4c-0.8,0-1.5-0.7-1.5-1.5V92.4l-5.1-5.1c-0.3-0.3-0.4-0.7-0.4-1v-8.3c0-0.8,0.7-1.5,1.5-1.5h42.6
		c0.8,0,1.5,0.7,1.5,1.5s-0.7,1.5-1.5,1.5H4.4v6.2l5.1,5.1c0.3,0.3,0.4,0.7,0.4,1v29.1h50.4c0.8,0,1.5,0.7,1.5,1.5
		S61.2,123.8,60.3,123.8z"/>
	<path d="M11.2,79.4c-0.8,0-1.5-0.7-1.5-1.5V55.7c0-0.8,0.7-1.5,1.5-1.5h38.9c0.8,0,1.5,0.7,1.5,1.5s-0.7,1.5-1.5,1.5H12.7v20.7
		C12.7,78.7,12,79.4,11.2,79.4z"/>
	<path d="M32.5,93.3H8.4c-0.8,0-1.5-0.7-1.5-1.5c0-0.8,0.7-1.5,1.5-1.5h24.1c0.8,0,1.5,0.7,1.5,1.5C34,92.6,33.3,93.3,32.5,93.3z"/>
	<path d="M33.4,110.9c-0.8,0-1.5-0.7-1.5-1.5v-4.7c0-0.8,0.7-1.5,1.5-1.5s1.5,0.7,1.5,1.5v4.7C34.9,110.2,34.3,110.9,33.4,110.9z"/>
	<path d="M22.3,110.9c-0.8,0-1.5-0.7-1.5-1.5v-4.7c0-0.8,0.7-1.5,1.5-1.5c0.8,0,1.5,0.7,1.5,1.5v4.7
		C23.8,110.2,23.1,110.9,22.3,110.9z"/>
	<path d="M33.4,69.2c-0.8,0-1.5-0.7-1.5-1.5v-1c0-0.8,0.7-1.5,1.5-1.5s1.5,0.7,1.5,1.5v1C34.9,68.5,34.3,69.2,33.4,69.2z"/>
	<path d="M22.3,69.2c-0.8,0-1.5-0.7-1.5-1.5v-1c0-0.8,0.7-1.5,1.5-1.5c0.8,0,1.5,0.7,1.5,1.5v1C23.8,68.5,23.1,69.2,22.3,69.2z"/>
	<path d="M41.8,57.1H27.9c-0.8,0-1.5-0.7-1.5-1.5V22.3c0-0.8,0.7-1.5,1.5-1.5h13.9c0.8,0,1.5,0.7,1.5,1.5v33.3
		C43.3,56.5,42.6,57.1,41.8,57.1z M29.4,54.2h10.9V23.8H29.4V54.2z"/>
	<path d="M16.8,57.1c-0.8,0-1.5-0.7-1.5-1.5V33.4c0-0.8,0.7-1.5,1.5-1.5s1.5,0.7,1.5,1.5v22.2C18.3,56.5,17.6,57.1,16.8,57.1z"/>
</svg>
