<svg xmlns="http://www.w3.org/2000/svg" xmlns:xlink="http://www.w3.org/1999/xlink" viewBox="0 0 128 128">
		<path d="M89,123.8H77.9c-5.4,0-9.8-4.4-9.8-9.8V39c0-6.8,4.1-11.4,7.6-14.1c1.1-0.8,2.4-1.3,3.8-1.3h8c1.4,0,2.7,0.5,3.8,1.3
			c3.5,2.7,7.6,7.3,7.6,14.1v75C98.8,119.4,94.4,123.8,89,123.8z M79.4,26.6c-0.7,0-1.4,0.2-2,0.7C74.5,29.5,71,33.4,71,39v75
			c0,3.8,3.1,6.9,6.9,6.9H89c3.8,0,6.9-3.1,6.9-6.9V39c0-5.6-3.5-9.5-6.4-11.8c-0.5-0.4-1.2-0.7-2-0.7H79.4z"/>
		<path d="M89,124.3H77.9c-5.7,0-10.3-4.6-10.3-10.3V39c0-7,4.2-11.7,7.8-14.5c1.1-0.9,2.6-1.4,4.1-1.4h8c1.5,0,2.9,0.5,4.1,1.4
			c3.5,2.8,7.8,7.5,7.8,14.5v75C99.3,119.7,94.7,124.3,89,124.3z M79.4,24.1c-1.3,0-2.5,0.4-3.5,1.2c-3.4,2.6-7.4,7.1-7.4,13.7v75
			c0,5.1,4.2,9.3,9.3,9.3H89c5.1,0,9.3-4.2,9.3-9.3V39c0-6.6-4-11.1-7.4-13.7c-1-0.8-2.2-1.2-3.5-1.2H79.4z M89,121.4H77.9
			c-4.1,0-7.4-3.3-7.4-7.4V39c0-5.8,3.6-9.8,6.6-12.2c0.6-0.5,1.4-0.8,2.3-0.8h8c0.8,0,1.6,0.3,2.3,0.8c3,2.4,6.6,6.4,6.6,12.2v75
			C96.4,118.1,93.1,121.4,89,121.4z M79.4,27.1c-0.6,0-1.2,0.2-1.7,0.5c-2.8,2.2-6.2,6-6.2,11.4v75c0,3.5,2.9,6.4,6.4,6.4H89
			c3.5,0,6.4-2.9,6.4-6.4V39c0-5.4-3.4-9.1-6.2-11.4c-0.5-0.4-1-0.5-1.7-0.5H79.4z"/>
		<path d="M60.3,109.9h-4.7c-0.8,0-1.5-0.7-1.5-1.5V11.2c0-3.9,3.2-7,7-7h16.7c3.9,0,7,3.2,7,7v5.6c0,0.8-0.7,1.5-1.5,1.5
			S82,17.6,82,16.8v-5.6c0-2.2-1.8-4.1-4.1-4.1H61.2c-2.2,0-4.1,1.8-4.1,4.1V107h3.2c0.8,0,1.5,0.7,1.5,1.5S61.2,109.9,60.3,109.9z"
			/>
		<path d="M60.3,110.4h-4.7c-1.1,0-2-0.9-2-2V11.2c0-4.2,3.4-7.5,7.5-7.5h16.7c4.2,0,7.5,3.4,7.5,7.5v5.6c0,1.1-0.9,2-2,2
			s-2-0.9-2-2v-5.6c0-2-1.6-3.6-3.6-3.6H61.2c-2,0-3.6,1.6-3.6,3.6v95.3h2.7c1.1,0,2,0.9,2,2S61.4,110.4,60.3,110.4z M61.2,4.7
			c-3.6,0-6.5,2.9-6.5,6.5v97.2c0,0.5,0.4,1,1,1h4.7c0.5,0,1-0.4,1-1c0-0.5-0.4-1-1-1h-3.7V11.2c0-2.5,2.1-4.6,4.6-4.6h16.7
			c2.5,0,4.6,2.1,4.6,4.6v5.6c0,0.5,0.4,1,1,1c0.5,0,1-0.4,1-1v-5.6c0-3.6-2.9-6.5-6.5-6.5H61.2z"/>
		<path d="M60.3,43.3h-4.4c-0.8,0-1.5-0.7-1.5-1.5s0.7-1.5,1.5-1.5h4.4c0.8,0,1.5,0.7,1.5,1.5S61.2,43.3,60.3,43.3z"/>
		<path d="M60.3,43.8h-4.4c-1.1,0-2-0.9-2-2s0.9-2,2-2h4.4c1.1,0,2,0.9,2,2S61.4,43.8,60.3,43.8z M55.9,40.8c-0.5,0-1,0.4-1,1
			s0.4,1,1,1h4.4c0.5,0,1-0.4,1-1s-0.4-1-1-1H55.9z"/>
		<path d="M89,18.3H77.9c-0.8,0-1.5-0.7-1.5-1.5c0-0.8,0.7-1.5,1.5-1.5H89c0.8,0,1.5,0.7,1.5,1.5C90.5,17.6,89.8,18.3,89,18.3z"/>
		<path d="M89,18.8H77.9c-1.1,0-2-0.9-2-2s0.9-2,2-2H89c1.1,0,2,0.9,2,2S90.1,18.8,89,18.8z M77.9,15.8c-0.5,0-1,0.4-1,1s0.4,1,1,1
			H89c0.5,0,1-0.4,1-1s-0.4-1-1-1H77.9z"/>
		<path d="M60.3,59.9h-4.4c-0.8,0-1.5-0.7-1.5-1.5s0.7-1.5,1.5-1.5h4.4c0.8,0,1.5,0.7,1.5,1.5S61.2,59.9,60.3,59.9z"/>
		<path d="M60.3,60.4h-4.4c-1.1,0-2-0.9-2-2s0.9-2,2-2h4.4c1.1,0,2,0.9,2,2S61.4,60.4,60.3,60.4z M55.9,57.5c-0.5,0-1,0.4-1,1
			s0.4,1,1,1h4.4c0.5,0,1-0.4,1-1s-0.4-1-1-1H55.9z"/>
		<path d="M60.3,76.6h-4.4c-0.8,0-1.5-0.7-1.5-1.5s0.7-1.5,1.5-1.5h4.4c0.8,0,1.5,0.7,1.5,1.5S61.2,76.6,60.3,76.6z"/>
		<path d="M60.3,77.1h-4.4c-1.1,0-2-0.9-2-2s0.9-2,2-2h4.4c1.1,0,2,0.9,2,2S61.4,77.1,60.3,77.1z M55.9,74.1c-0.5,0-1,0.4-1,1
			c0,0.5,0.4,1,1,1h4.4c0.5,0,1-0.4,1-1c0-0.5-0.4-1-1-1H55.9z"/>
		<path d="M60.3,93.3h-4.4c-0.8,0-1.5-0.7-1.5-1.5c0-0.8,0.7-1.5,1.5-1.5h4.4c0.8,0,1.5,0.7,1.5,1.5C61.8,92.6,61.2,93.3,60.3,93.3z
			"/>
		<path d="M60.3,93.8h-4.4c-1.1,0-2-0.9-2-2s0.9-2,2-2h4.4c1.1,0,2,0.9,2,2S61.4,93.8,60.3,93.8z M55.9,90.8c-0.5,0-1,0.4-1,1
			c0,0.5,0.4,1,1,1h4.4c0.5,0,1-0.4,1-1c0-0.5-0.4-1-1-1H55.9z"/>
		<path d="M116.8,123.8h-13c-0.8,0-1.5-0.7-1.5-1.5s0.7-1.5,1.5-1.5h13c3.8,0,6.9-3.1,6.9-6.9V39c0-5.5-3.5-9.4-6.3-11.7
			c-0.6-0.5-1.4-0.7-2.2-0.7h-7.8c-0.8,0-1.6,0.3-2.2,0.7c-0.6,0.5-1.3,1-1.8,1.6c-0.6,0.6-1.5,0.6-2.1,0c-0.6-0.6-0.6-1.5,0-2.1
			c0.6-0.6,1.3-1.3,2.1-1.8c1.1-0.9,2.6-1.4,4-1.4h7.8c1.5,0,2.9,0.5,4,1.4c3.4,2.7,7.5,7.3,7.5,14v75
			C126.6,119.4,122.2,123.8,116.8,123.8z"/>
		<path d="M116.8,124.3h-13c-1.1,0-2-0.9-2-2s0.9-2,2-2h13c3.5,0,6.4-2.9,6.4-6.4V39c0-5.3-3.3-9.1-6.2-11.3
			c-0.5-0.4-1.2-0.6-1.9-0.6h-7.8c-0.7,0-1.4,0.2-1.9,0.6c-0.6,0.5-1.2,1-1.8,1.6c-0.8,0.8-2,0.8-2.8,0c-0.8-0.8-0.8-2,0-2.8
			c0.7-0.7,1.4-1.3,2.1-1.9c1.2-1,2.8-1.5,4.3-1.5h7.8c1.6,0,3.1,0.5,4.3,1.5c3.5,2.8,7.7,7.5,7.7,14.4v75
			C127.1,119.7,122.5,124.3,116.8,124.3z M103.8,121.4c-0.5,0-1,0.4-1,1c0,0.5,0.4,1,1,1h13c5.1,0,9.3-4.2,9.3-9.3V39
			c0-6.5-4-11-7.3-13.6c-1-0.8-2.3-1.2-3.7-1.2h-7.8c-1.4,0-2.7,0.5-3.7,1.3c-0.7,0.6-1.4,1.2-2,1.8c-0.4,0.4-0.4,1,0,1.4
			c0.4,0.4,1,0.4,1.4,0c0.6-0.6,1.2-1.1,1.9-1.6c0.7-0.5,1.6-0.9,2.5-0.9h7.8c0.9,0,1.8,0.3,2.5,0.8c3,2.3,6.5,6.3,6.5,12.1v75
			c0,4.1-3.3,7.4-7.4,7.4H103.8z"/>
		<path d="M111.2,18.3c-0.8,0-1.5-0.7-1.5-1.5v-5.6c0-2.2-1.8-4.1-4.1-4.1h-13c-0.8,0-1.5-0.7-1.5-1.5s0.7-1.5,1.5-1.5h13
			c3.9,0,7,3.2,7,7v5.6C112.7,17.6,112,18.3,111.2,18.3z"/>
		<path d="M111.2,18.8c-1.1,0-2-0.9-2-2v-5.6c0-2-1.6-3.6-3.6-3.6h-13c-1.1,0-2-0.9-2-2s0.9-2,2-2h13c4.2,0,7.5,3.4,7.5,7.5v5.6
			C113.2,17.9,112.3,18.8,111.2,18.8z M92.7,4.7c-0.5,0-1,0.4-1,1s0.4,1,1,1h13c2.5,0,4.6,2.1,4.6,4.6v5.6c0,0.5,0.4,1,1,1
			c0.5,0,1-0.4,1-1v-5.6c0-3.6-2.9-6.5-6.5-6.5H92.7z"/>
		<path d="M116.8,18.3h-11.1c-0.8,0-1.5-0.7-1.5-1.5c0-0.8,0.7-1.5,1.5-1.5h11.1c0.8,0,1.5,0.7,1.5,1.5
			C118.3,17.6,117.6,18.3,116.8,18.3z"/>
		<path d="M116.8,18.8h-11.1c-1.1,0-2-0.9-2-2s0.9-2,2-2h11.1c1.1,0,2,0.9,2,2S117.9,18.8,116.8,18.8z M105.7,15.8c-0.5,0-1,0.4-1,1
			s0.4,1,1,1h11.1c0.5,0,1-0.4,1-1s-0.4-1-1-1H105.7z"/>
		<path d="M60.3,123.8H8.4c-0.8,0-1.5-0.7-1.5-1.5V92.4l-5.1-5.1c-0.3-0.3-0.4-0.7-0.4-1v-8.3c0-0.8,0.7-1.5,1.5-1.5h42.6
			c0.8,0,1.5,0.7,1.5,1.5s-0.7,1.5-1.5,1.5H4.4v6.2l5.1,5.1c0.3,0.3,0.4,0.7,0.4,1v29.1h50.4c0.8,0,1.5,0.7,1.5,1.5
			S61.2,123.8,60.3,123.8z"/>
		<path d="M60.3,124.3H8.4c-1.1,0-2-0.9-2-2V92.6l-5-5c-0.4-0.4-0.6-0.9-0.6-1.4v-8.3c0-1.1,0.9-2,2-2h42.6c1.1,0,2,0.9,2,2
			s-0.9,2-2,2H4.9v5.5l5,5c0.4,0.4,0.6,0.9,0.6,1.4v28.6h49.9c1.1,0,2,0.9,2,2S61.4,124.3,60.3,124.3z M2.9,76.9c-0.5,0-1,0.4-1,1
			v8.3c0,0.3,0.1,0.5,0.3,0.7l5.3,5.3v30.2c0,0.5,0.4,1,1,1h51.9c0.5,0,1-0.4,1-1c0-0.5-0.4-1-1-1H9.4V91.8c0-0.3-0.1-0.5-0.3-0.7
			l-5.3-5.3v-7h41.7c0.5,0,1-0.4,1-1c0-0.5-0.4-1-1-1H2.9z"/>
		<path d="M11.2,79.4c-0.8,0-1.5-0.7-1.5-1.5V55.7c0-0.8,0.7-1.5,1.5-1.5h38.9c0.8,0,1.5,0.7,1.5,1.5s-0.7,1.5-1.5,1.5H12.7v20.7
			C12.7,78.7,12,79.4,11.2,79.4z"/>
		<path d="M11.2,79.9c-1.1,0-2-0.9-2-2V55.7c0-1.1,0.9-2,2-2h38.9c1.1,0,2,0.9,2,2s-0.9,2-2,2H13.2v20.2
			C13.2,79,12.3,79.9,11.2,79.9z M11.2,54.7c-0.5,0-1,0.4-1,1v22.2c0,0.5,0.4,1,1,1s1-0.4,1-1V56.6h37.9c0.5,0,1-0.4,1-1s-0.4-1-1-1
			H11.2z"/>
		<path d="M32.5,93.3H8.4c-0.8,0-1.5-0.7-1.5-1.5c0-0.8,0.7-1.5,1.5-1.5h24.1c0.8,0,1.5,0.7,1.5,1.5C34,92.6,33.3,93.3,32.5,93.3z"
			/>
		<path d="M32.5,93.8H8.4c-1.1,0-2-0.9-2-2s0.9-2,2-2h24.1c1.1,0,2,0.9,2,2S33.6,93.8,32.5,93.8z M8.4,90.8c-0.5,0-1,0.4-1,1
			c0,0.5,0.4,1,1,1h24.1c0.5,0,1-0.4,1-1c0-0.5-0.4-1-1-1H8.4z"/>
		<path d="M33.4,110.9c-0.8,0-1.5-0.7-1.5-1.5v-4.7c0-0.8,0.7-1.5,1.5-1.5s1.5,0.7,1.5,1.5v4.7C34.9,110.2,34.3,110.9,33.4,110.9z"
			/>
		<path d="M33.4,111.4c-1.1,0-2-0.9-2-2v-4.7c0-1.1,0.9-2,2-2s2,0.9,2,2v4.7C35.4,110.5,34.5,111.4,33.4,111.4z M33.4,103.7
			c-0.5,0-1,0.4-1,1v4.7c0,0.5,0.4,1,1,1s1-0.4,1-1v-4.7C34.4,104.2,34,103.7,33.4,103.7z"/>
		<path d="M22.3,110.9c-0.8,0-1.5-0.7-1.5-1.5v-4.7c0-0.8,0.7-1.5,1.5-1.5c0.8,0,1.5,0.7,1.5,1.5v4.7
			C23.8,110.2,23.1,110.9,22.3,110.9z"/>
		<path d="M22.3,111.4c-1.1,0-2-0.9-2-2v-4.7c0-1.1,0.9-2,2-2c1.1,0,2,0.9,2,2v4.7C24.3,110.5,23.4,111.4,22.3,111.4z M22.3,103.7
			c-0.5,0-1,0.4-1,1v4.7c0,0.5,0.4,1,1,1s1-0.4,1-1v-4.7C23.3,104.2,22.9,103.7,22.3,103.7z"/>
		<path d="M33.4,69.2c-0.8,0-1.5-0.7-1.5-1.5v-1c0-0.8,0.7-1.5,1.5-1.5s1.5,0.7,1.5,1.5v1C34.9,68.5,34.3,69.2,33.4,69.2z"/>
		<path d="M33.4,69.7c-1.1,0-2-0.9-2-2v-1c0-1.1,0.9-2,2-2s2,0.9,2,2v1C35.4,68.8,34.5,69.7,33.4,69.7z M33.4,65.8c-0.5,0-1,0.4-1,1
			v1c0,0.5,0.4,1,1,1s1-0.4,1-1v-1C34.4,66.2,34,65.8,33.4,65.8z"/>
		<path d="M22.3,69.2c-0.8,0-1.5-0.7-1.5-1.5v-1c0-0.8,0.7-1.5,1.5-1.5c0.8,0,1.5,0.7,1.5,1.5v1C23.8,68.5,23.1,69.2,22.3,69.2z"/>
		<path d="M22.3,69.7c-1.1,0-2-0.9-2-2v-1c0-1.1,0.9-2,2-2c1.1,0,2,0.9,2,2v1C24.3,68.8,23.4,69.7,22.3,69.7z M22.3,65.8
			c-0.5,0-1,0.4-1,1v1c0,0.5,0.4,1,1,1s1-0.4,1-1v-1C23.3,66.2,22.9,65.8,22.3,65.8z"/>
		<path d="M41.8,57.1H27.9c-0.8,0-1.5-0.7-1.5-1.5V22.3c0-0.8,0.7-1.5,1.5-1.5h13.9c0.8,0,1.5,0.7,1.5,1.5v33.3
			C43.3,56.5,42.6,57.1,41.8,57.1z M29.4,54.2h10.9V23.8H29.4V54.2z"/>
		<path d="M41.8,57.6H27.9c-1.1,0-2-0.9-2-2V22.3c0-1.1,0.9-2,2-2h13.9c1.1,0,2,0.9,2,2v33.3C43.8,56.8,42.9,57.6,41.8,57.6z
			 M27.9,21.4c-0.5,0-1,0.4-1,1v33.3c0,0.5,0.4,1,1,1h13.9c0.5,0,1-0.4,1-1V22.3c0-0.5-0.4-1-1-1H27.9z M40.8,54.7H28.9V23.3h11.9
			V54.7z M29.9,53.7h9.9V24.3h-9.9V53.7z"/>
		<path d="M16.8,57.1c-0.8,0-1.5-0.7-1.5-1.5V33.4c0-0.8,0.7-1.5,1.5-1.5s1.5,0.7,1.5,1.5v22.2C18.3,56.5,17.6,57.1,16.8,57.1z"/>
		<path d="M16.8,57.6c-1.1,0-2-0.9-2-2V33.4c0-1.1,0.9-2,2-2s2,0.9,2,2v22.2C18.8,56.8,17.9,57.6,16.8,57.6z M16.8,32.5
			c-0.5,0-1,0.4-1,1v22.2c0,0.5,0.4,1,1,1s1-0.4,1-1V33.4C17.8,32.9,17.3,32.5,16.8,32.5z"/>
</svg>
