<svg xmlns="http://www.w3.org/2000/svg" viewBox="0 0 128 128"><title>location-lg</title><path d="M91.27,41.14A27.27,27.27,0,1,0,64,68.41,27.27,27.27,0,0,0,91.27,41.14Zm-51.33,0A24.06,24.06,0,1,1,64,65.2,24.07,24.07,0,0,1,39.94,41.14Z"/><path d="M83.33,77.76c8.83-12.1,17.57-26.59,17.57-36.62a36.9,36.9,0,0,0-73.8,0c0,10,8.74,24.52,17.57,36.62C22,81.08,7,89.9,7,100.08c0,13.28,25,23.68,57,23.68s57-10.4,57-23.68C121,89.89,106,81.08,83.33,77.76ZM64,7.45A33.72,33.72,0,0,1,97.69,41.14c0,9.69-9.36,24.55-18.38,36.62a1.44,1.44,0,0,0-.36.48c-1.82,2.42-3.61,4.72-5.32,6.84a1.52,1.52,0,0,0-.43.54c-4,5-7.48,8.95-9.2,10.88-6.1-6.84-33.69-38.72-33.69-55.36A33.72,33.72,0,0,1,64,7.45ZM62.82,100a1.6,1.6,0,0,0,2.36,0c.5-.54,4.86-5.3,10.36-12.11,13.8,1.4,22.67,5.36,22.67,10.21,0,6.24-14.39,10.76-34.21,10.76s-34.21-4.52-34.21-10.76c0-4.84,8.87-8.81,22.67-10.21C58,94.68,62.32,99.44,62.82,100ZM64,120.76c-29.28,0-54-9.47-54-20.68C10,91.37,25,83.38,46.71,80.51q1.8,2.38,3.53,4.58c-14.94,1.81-23.45,6.48-23.45,13,0,10.16,20.05,13.76,37.21,13.76s37.21-3.6,37.21-13.76c0-6.52-8.5-11.19-23.45-13,1.15-1.46,2.34-3,3.53-4.58C103,83.38,118,91.36,118,100.08,118,111.29,93.28,120.76,64,120.76Z"/></svg>