<svg xmlns="http://www.w3.org/2000/svg" viewBox="0 0 128 128"><title>login-lg</title><path d="M78.6,127.5H68a1.5,1.5,0,0,1-1.5-1.5V115.21a1.5,1.5,0,0,1,.44-1.06L91.55,89.5a18.38,18.38,0,0,1,30.57-18.36h0A18.38,18.38,0,0,1,104.62,102l-4.53,4.53a1.5,1.5,0,0,1-1.06.44H94.29v4.5a1.5,1.5,0,0,1-1.5,1.5H88.28v4.51a1.5,1.5,0,0,1-1.5,1.5h-4.5v4.74a1.48,1.48,0,0,1-.41,1L79.7,127A1.52,1.52,0,0,1,78.6,127.5Zm-9.14-3H78l1.33-1.41v-5.65a1.5,1.5,0,0,1,1.5-1.5h4.5v-4.51a1.5,1.5,0,0,1,1.5-1.5h4.51v-4.5a1.5,1.5,0,0,1,1.5-1.5h5.62l4.71-4.72a1.51,1.51,0,0,1,1.5-.37,15.38,15.38,0,1,0-10-9.45A1.5,1.5,0,0,1,94.32,91L69.46,115.83ZM2,106.67H1.76a1.51,1.51,0,0,1-1.24-1.72l2.7-16.73A1.5,1.5,0,0,1,4,87.11L30.86,73.88l.15-.07,8.63-4.26a1.49,1.49,0,0,1,2,.68,1.51,1.51,0,0,1-.68,2l-7,3.47a25.71,25.71,0,0,0,19.65,9A26,26,0,0,0,73.5,75.39l-6.22-3.16a1.5,1.5,0,1,1,1.36-2.68l7.79,4,.1,0,8.25,4.2a1.5,1.5,0,1,1-1.36,2.67l-7.19-3.65A29,29,0,0,1,53.59,87.71,28.67,28.67,0,0,1,31.17,77.07L6.06,89.46l-2.58,16A1.5,1.5,0,0,1,2,106.67ZM112.86,86.28A5.88,5.88,0,1,1,117,84.56,5.85,5.85,0,0,1,112.86,86.28Zm0-8.76a2.89,2.89,0,0,0-2,4.92,2.88,2.88,0,0,0,4.92-2,2.89,2.89,0,0,0-2.88-2.88ZM53.43,66.4c-10.61,0-20.06-8.24-23.26-20.13a5.31,5.31,0,0,1-3.9-4.35l-1-5.5a7,7,0,0,1,.48-4.54,1.51,1.51,0,0,1-.64-1.23C25.12,13.46,37.26.5,53.36.5s28.37,13,28.37,30.15a1.49,1.49,0,0,1-.64,1.23,7,7,0,0,1,.48,4.54l-1,5.48a5.33,5.33,0,0,1-3.91,4.37C73.48,58.16,64,66.39,53.43,66.4ZM30.56,32.17a2.65,2.65,0,0,0-1.95.82,3.84,3.84,0,0,0-.37,2.91l1,5.47a2.37,2.37,0,0,0,2.32,2.11,1.52,1.52,0,0,1,1.31,1.15c2.62,11,11.08,18.76,20.58,18.77S71.38,55.67,74,44.63a1.5,1.5,0,0,1,1.3-1.15,2.39,2.39,0,0,0,2.33-2.14l1-5.45a3.82,3.82,0,0,0-.37-2.9,2.67,2.67,0,0,0-2-.82l-.57,0c-12,0-20.19,0-26.5-8.85-2.8,4.45-7.81,8.85-16.63,8.85ZM49.12,18.89a1.51,1.51,0,0,1,1.3.74C56,29.15,63,29.15,75.72,29.15h3C78,14.43,67.35,3.5,53.36,3.5S28.83,14.43,28.16,29.15h4.43c7,0,12.15-3.17,15.18-9.41a1.53,1.53,0,0,1,1.29-.85Z"/></svg>