<svg xmlns="http://www.w3.org/2000/svg" viewBox="0 0 128 128"><title>logs</title><path d="M39.13,41.56a2.72,2.72,0,0,1,2.14-.75,1.5,1.5,0,1,0,0-3,5.61,5.61,0,0,0-4.39,1.76,6.91,6.91,0,0,0-1.45,5,1.5,1.5,0,0,0,1.49,1.33h.17a1.51,1.51,0,0,0,1.33-1.65A3.89,3.89,0,0,1,39.13,41.56Z"/><path d="M74.08,40.81h3a1.5,1.5,0,0,0,0-3h-3a1.5,1.5,0,0,0,0,3Z"/><path d="M72.08,49.23H84.53a1.5,1.5,0,0,0,0-3H72.08a1.5,1.5,0,0,0,0,3Z"/><path d="M48.27,71.65h.17A1.5,1.5,0,0,0,49.76,70a4,4,0,0,1,.71-2.66,2.66,2.66,0,0,1,2.14-.77,1.5,1.5,0,0,0,0-3,5.59,5.59,0,0,0-4.38,1.77,6.86,6.86,0,0,0-1.45,5A1.49,1.49,0,0,0,48.27,71.65Z"/><path d="M85.42,66.55h3a1.5,1.5,0,0,0,0-3h-3a1.5,1.5,0,0,0,0,3Z"/><path d="M81.92,73.48a1.5,1.5,0,0,0,1.5,1.5H95.88a1.5,1.5,0,0,0,0-3H83.42A1.5,1.5,0,0,0,81.92,73.48Z"/><path d="M125.25,90.58a.08.08,0,0,0,0,0,16.83,16.83,0,0,0-6.42-9.18,7.3,7.3,0,0,0-4.35-1.44h-8.13a15.58,15.58,0,0,0,4.91-11.34,15.3,15.3,0,0,0-.48-3.82v0a16.9,16.9,0,0,0-6.43-9.2A7.3,7.3,0,0,0,100,54.09H95.08A15.57,15.57,0,0,0,99.9,42.83,15.31,15.31,0,0,0,99.43,39v0A16.87,16.87,0,0,0,93,29.78a7.27,7.27,0,0,0-4.35-1.43H40A14.39,14.39,0,0,0,31.1,54.09H26.22a14.4,14.4,0,0,0-8.77,25.83H16.37a14.42,14.42,0,0,0,0,28.83H40.92l.11,0,.23,0h73.23a7.16,7.16,0,0,0,4.34-1.3,16.19,16.19,0,0,0,6.9-13A15.32,15.32,0,0,0,125.25,90.58ZM102.56,58a14.42,14.42,0,0,1,4.62,5.6H96.85a1.5,1.5,0,0,0,0,3h11.24a13.25,13.25,0,0,1,.16,2,12.09,12.09,0,0,1-.48,3.4h-3.2a1.5,1.5,0,0,0,0,3h1.9a14.82,14.82,0,0,1-3.91,4.23,4.14,4.14,0,0,1-2.56.71H60.09A14.5,14.5,0,0,0,64.18,75h9.41a1.5,1.5,0,0,0,0-3h-8.3a14.22,14.22,0,0,0,.44-3.47,14,14,0,0,0-.15-2H77.19a1.5,1.5,0,0,0,0-3H64.84a14.57,14.57,0,0,0-4.65-6.38H88.66a9,9,0,0,0,1.18-.08H100A4.32,4.32,0,0,1,102.56,58ZM77.21,94.33a11.4,11.4,0,0,1-22.13,3.88,1.5,1.5,0,0,0-.29-.94,11,11,0,0,1-.4-2.94,11.41,11.41,0,0,1,22.82,0ZM41.26,105.75A11.42,11.42,0,1,1,52,90.37a14.28,14.28,0,0,0,0,7.92A11.35,11.35,0,0,1,41.26,105.75Zm-15-22.83h6.27a14.35,14.35,0,0,0-3.67,4.16,14.29,14.29,0,0,0-3.64-4.16ZM50,57.17H52.6a11.41,11.41,0,1,1-2.56,0Zm3.5,29.62a14.33,14.33,0,0,0-3.48-3.87h7A14.65,14.65,0,0,0,53.54,86.79Zm-11-6.87H35a14.35,14.35,0,0,0,3.74-4.34A14.58,14.58,0,0,0,42.55,79.92ZM88.64,31.35a4.26,4.26,0,0,1,2.57.85,14.39,14.39,0,0,1,4.63,5.61H85.5a1.5,1.5,0,0,0,0,3H96.74a11.9,11.9,0,0,1,.16,2,12.47,12.47,0,0,1-.47,3.4H93.22a1.5,1.5,0,0,0,0,3h1.9a14.8,14.8,0,0,1-3.9,4.23,3.56,3.56,0,0,1-1.62.63H51.32l-.34,0-.17,0h-2a14.59,14.59,0,0,0,4-4.86h9.41a1.5,1.5,0,0,0,0-3H54a14.66,14.66,0,0,0,.44-3.47,13.87,13.87,0,0,0-.15-1.95H65.85a1.5,1.5,0,0,0,0-3H53.49a14.42,14.42,0,0,0-4.75-6.46ZM28.56,42.76a11.42,11.42,0,1,1,12.7,11.33H38.69A11.42,11.42,0,0,1,28.56,42.76Zm9.93,14.33a14.52,14.52,0,0,0,1.48.08h2.48a14.52,14.52,0,0,0-3.68,4.27A14.44,14.44,0,0,0,35,57.09ZM14.8,68.51A11.41,11.41,0,0,1,37.06,65a1.47,1.47,0,0,0,.21.39,14.17,14.17,0,0,0,0,6.26,1.36,1.36,0,0,0-.13.3A11.42,11.42,0,0,1,14.8,68.51ZM5,94.33a11.42,11.42,0,0,1,22.26-3.56,1,1,0,0,1,.05.12,14.53,14.53,0,0,0-.43,3.44,14.16,14.16,0,0,0,.43,3.41A11.41,11.41,0,0,1,5,94.33Zm20.23,11.42a14.42,14.42,0,0,0,3.64-4.16,14.58,14.58,0,0,0,3.66,4.16Zm24.88,0a14.29,14.29,0,0,0,3.47-3.87A14.82,14.82,0,0,0,57,105.75Zm67-.71a4.2,4.2,0,0,1-2.56.71H74.57a14.53,14.53,0,0,0,4.09-5h9.41a1.5,1.5,0,0,0,0-3h-8.3a14.16,14.16,0,0,0,.44-3.47,15.7,15.7,0,0,0-.14-2h11.6a1.5,1.5,0,1,0,0-3H79.32a14.48,14.48,0,0,0-4.75-6.46h39.9a4.28,4.28,0,0,1,2.57.85,14.54,14.54,0,0,1,4.62,5.61H111.33a1.5,1.5,0,1,0,0,3h11.24a13.15,13.15,0,0,1,.16,2,12.07,12.07,0,0,1-.48,3.39h-3.2a1.5,1.5,0,0,0,0,3H121A15,15,0,0,1,117,105Z"/><path d="M67.09,89.38a5.62,5.62,0,0,0-4.38,1.76,6.93,6.93,0,0,0-1.45,5,1.5,1.5,0,0,0,1.49,1.32h.16a1.5,1.5,0,0,0,1.33-1.65A3.91,3.91,0,0,1,65,93.13a2.68,2.68,0,0,1,2.13-.75,1.5,1.5,0,0,0,0-3Z"/><path d="M99.9,92.38h3a1.5,1.5,0,1,0,0-3h-3a1.5,1.5,0,0,0,0,3Z"/><path d="M110.36,97.8H97.9a1.5,1.5,0,0,0,0,3h12.46a1.5,1.5,0,0,0,0-3Z"/><path d="M42.55,89.38a5.6,5.6,0,0,0-4.38,1.76,6.83,6.83,0,0,0-1.45,5,1.49,1.49,0,0,0,1.48,1.33h.18A1.51,1.51,0,0,0,39.7,95.8a3.94,3.94,0,0,1,.7-2.66,2.73,2.73,0,0,1,2.15-.76,1.5,1.5,0,1,0,0-3Z"/><path d="M17.67,92.38a1.5,1.5,0,0,0,0-3,5.63,5.63,0,0,0-4.39,1.76,6.93,6.93,0,0,0-1.45,5,1.51,1.51,0,0,0,1.49,1.33h.18a1.5,1.5,0,0,0,1.31-1.67,4,4,0,0,1,.71-2.66A2.73,2.73,0,0,1,17.67,92.38Z"/><path d="M27.51,63.55a5.61,5.61,0,0,0-4.39,1.77,6.83,6.83,0,0,0-1.44,5,1.48,1.48,0,0,0,1.48,1.33h.17A1.51,1.51,0,0,0,24.66,70a3.88,3.88,0,0,1,.71-2.68,2.72,2.72,0,0,1,2.14-.76,1.5,1.5,0,1,0,0-3Z"/></svg>