<svg xmlns="http://www.w3.org/2000/svg" viewBox="0 0 128 128"><defs><style>.cls-1{fill-rule:evenodd;}</style></defs><g id="Layer_2" data-name="Layer 2"><g id="Group_6881" data-name="Group 6881"><path id="Path_6209" data-name="Path 6209" class="cls-1" d="M70.49,21c-6.11-.09-6.12,9.47,0,9.4,6.11.11,6.16-9.47,0-9.4"/><path id="Path_6210" data-name="Path 6210" class="cls-1" d="M62.24,38.09c-7.32.07-7.33,11.2,0,11.24s7.4-11.15,0-11.24"/><path id="Path_6211" data-name="Path 6211" class="cls-1" d="M37.6,89.86c-9.83.09-9.83,15,0,15.07h0c9.81-.09,9.84-15,0-15.07"/><path id="Path_6212" data-name="Path 6212" class="cls-1" d="M78.67,5.19c-3.57,0-3.58,5.57,0,5.53s3.61-5.57,0-5.53"/><path id="Path_6213" data-name="Path 6213" class="cls-1" d="M17.13,92c-7,0-7,10.71,0,10.75s7-10.87,0-10.75"/><path id="Path_6214" data-name="Path 6214" class="cls-1" d="M79.26,43.7c-.09,4.47,6.91,4.49,6.86,0s-6.91-4.47-6.86,0"/><path id="Path_6215" data-name="Path 6215" class="cls-1" d="M110.9,109.61c-7.39.09-7.36,11.31,0,11.33s7.4-11.26,0-11.33"/><path id="Path_6216" data-name="Path 6216" class="cls-1" d="M58,89.86c-9.82.09-9.82,15,0,15.07s9.92-15,0-15.07"/><path id="Path_6217" data-name="Path 6217" class="cls-1" d="M119,90.61c-8.83.06-8.85,13.49,0,13.56s8.92-13.48,0-13.56"/><path id="Path_6218" data-name="Path 6218" class="cls-1" d="M98.58,89.86c-9.82.09-9.82,15,0,15.07s9.92-15,0-15.07"/><path id="Path_6219" data-name="Path 6219" class="cls-1" d="M9,108.49c-8.83.07-8.85,13.5,0,13.57H9c8.83-.09,8.86-13.5,0-13.57"/><path id="Path_6220" data-name="Path 6220" class="cls-1" d="M29.4,107.76c-9.81.07-9.82,15,0,15s9.91-15,0-15"/><path id="Path_6221" data-name="Path 6221" class="cls-1" d="M49.87,107.76c-9.81.07-9.83,15,0,15s9.92-15,0-15"/><path id="Path_6222" data-name="Path 6222" class="cls-1" d="M78.14,89.86c-9.82.09-9.83,15,0,15.07h0c9.82-.09,9.84-15,0-15.07"/><path id="Path_6223" data-name="Path 6223" class="cls-1" d="M70,107.74c-9.81.09-9.81,15,0,15.07s9.9-15,0-15.07"/><path id="Path_6224" data-name="Path 6224" class="cls-1" d="M90.39,107.74c-9.82.09-9.82,15,0,15.07s9.89-15,0-15.07"/><path id="Path_6225" data-name="Path 6225" d="M21,58.06,26.2,71.92a40,40,0,0,1,1.56,4.79h.13a45.36,45.36,0,0,1,1.56-4.79l5.24-13.86h4.12V81.14H35.29V71.68c0-2.16.12-4.66.4-7.53h-.12a55,55,0,0,1-2.16,6.62L29.57,81.14H26L22,70.77a51.05,51.05,0,0,1-2.28-6.68h-.13c.28,2.9.41,5.43.41,7.58v9.47H16.42V58.06Z"/><path id="Path_6226" data-name="Path 6226" d="M53.75,58.06l6.34,13.83A10.28,10.28,0,0,1,61,76.3v4.84H57V76.73H47.25v4.41H43.41V76.29a10.55,10.55,0,0,1,.87-4.4l6.31-13.84Zm-2.93,7.81-3.28,7.8h9.12L53.44,65.9a20.42,20.42,0,0,1-1.22-3.66H52.1a25.49,25.49,0,0,1-1.28,3.62"/><path id="Path_6227" data-name="Path 6227" d="M75.73,58.06c4.06,0,5.55,2.77,5.55,6.87,0,4.37-1.31,6.53-3.74,7.31l4.4,8.9H77.47L73.78,72.8H69.57v8.34h-4V58.06ZM69.58,69.64h5.75c1.5,0,2.25-1.74,2.25-4.34,0-2.06-.5-3.84-2-3.84h-6Z"/><path id="Path_6228" data-name="Path 6228" d="M89.91,58.06V73.92c0,2.61,1.6,3.9,4.53,3.9s4.37-1.29,4.37-3.9V58.06h3.85V73.65q0,7.5-8.44,7.49c-5.62,0-8.46-2.49-8.46-7.49V58.06Z"/></g></g></svg>