<svg id="Layer_1" data-name="Layer 1" xmlns="http://www.w3.org/2000/svg" viewBox="0 0 128 128"><title>Artboard 124</title><path d="M93.44,30.93a5.12,5.12,0,1,0-5.12-5.12A5.13,5.13,0,0,0,93.44,30.93Zm0-7.24a2.12,2.12,0,1,1-2.12,2.12A2.13,2.13,0,0,1,93.44,23.69Z"/><path d="M93.44,1.45a1.5,1.5,0,0,0,0,3A21.39,21.39,0,0,1,114.8,25.81a1.5,1.5,0,0,0,3,0A24.39,24.39,0,0,0,93.44,1.45Z"/><path d="M104.29,25.81a1.5,1.5,0,0,0,3,0A13.87,13.87,0,0,0,93.44,12a1.5,1.5,0,0,0,0,3A10.87,10.87,0,0,1,104.29,25.81Z"/><path d="M105.87,36.68a1.5,1.5,0,0,0-1.5,1.5v85.37H91.47V112a7.1,7.1,0,0,0-5.32-6.85V91.4a6.82,6.82,0,1,0-3,0v13.51H60.28V91.4a6.82,6.82,0,1,0-3,0v13.51H34.42V91.4a6.82,6.82,0,1,0-3,0v13.74A7.1,7.1,0,0,0,26.1,112v11.56H13.2V15H82.26a1.5,1.5,0,0,0,0-3H11.7a1.5,1.5,0,0,0-1.5,1.5v111.6a1.5,1.5,0,0,0,1.5,1.5h94.17a1.5,1.5,0,0,0,1.5-1.5V38.18A1.5,1.5,0,0,0,105.87,36.68ZM55,84.76a3.82,3.82,0,1,1,3.82,3.82A3.83,3.83,0,0,1,55,84.76Zm25.87,0a3.82,3.82,0,1,1,3.82,3.82A3.82,3.82,0,0,1,80.83,84.76Zm-51.73,0a3.82,3.82,0,1,1,3.82,3.82A3.82,3.82,0,0,1,29.1,84.76Zm0,27.23a4.08,4.08,0,0,1,4.08-4.08H84.39A4.08,4.08,0,0,1,88.47,112v11.56H29.1Z"/><path d="M90,64.13H27.6a1.5,1.5,0,1,0,0,3H90a1.5,1.5,0,0,0,0-3Z"/><path d="M91.47,38.19a1.5,1.5,0,0,0-1.5-1.5H27.6a1.5,1.5,0,0,0-1.5,1.5V53.52A1.5,1.5,0,0,0,27.6,55H90a1.5,1.5,0,0,0,1.5-1.5ZM88.47,52H29.1V39.69H88.47Z"/><path d="M36.46,47.61a1.5,1.5,0,0,0,1.5-1.5V45.6a1.5,1.5,0,0,0-3,0v.51A1.5,1.5,0,0,0,36.46,47.61Z"/><path d="M45.31,47.61a1.5,1.5,0,0,0,1.5-1.5V45.6a1.5,1.5,0,1,0-3,0v.51A1.5,1.5,0,0,0,45.31,47.61Z"/><path d="M54.15,47.61a1.5,1.5,0,0,0,1.5-1.5V45.6a1.5,1.5,0,0,0-3,0v.51A1.5,1.5,0,0,0,54.15,47.61Z"/><path d="M63,47.61a1.5,1.5,0,0,0,1.5-1.5V45.6a1.5,1.5,0,1,0-3,0v.51A1.5,1.5,0,0,0,63,47.61Z"/><path d="M71.84,47.61a1.5,1.5,0,0,0,1.5-1.5V45.6a1.5,1.5,0,1,0-3,0v.51A1.5,1.5,0,0,0,71.84,47.61Z"/><path d="M80.69,47.61a1.5,1.5,0,0,0,1.5-1.5V45.6a1.5,1.5,0,1,0-3,0v.51A1.5,1.5,0,0,0,80.69,47.61Z"/></svg>