<svg xmlns="http://www.w3.org/2000/svg" viewBox="0 0 128 128"><title>meters-lg</title>
	<path class="st0" d="M116.3,0.5H11.7c-0.8,0-1.5,0.7-1.5,1.5v124c0,0.8,0.7,1.5,1.5,1.5h104.7c0.8,0,1.5-0.7,1.5-1.5V2
		C117.8,1.2,117.2,0.5,116.3,0.5z M97.2,124.5H30.8v-13c0-2.6,2.1-4.7,4.7-4.7h56.9c2.6,0,4.7,2.1,4.7,4.7V124.5z M35.3,85.6
		c-2.4,0-4.4-2-4.4-4.4c0-2.4,2-4.4,4.4-4.4c2.4,0,4.4,2,4.4,4.4C39.7,83.7,37.7,85.6,35.3,85.6z M88.3,81.2c0-2.4,2-4.4,4.4-4.4
		c2.4,0,4.4,2,4.4,4.4c0,2.4-2,4.4-4.4,4.4C90.3,85.6,88.3,83.7,88.3,81.2z M114.8,124.5h-14.7v-13c0-3.6-2.5-6.7-5.9-7.5V88.5
		c3.4-0.7,5.9-3.7,5.9-7.3c0-4.1-3.3-7.4-7.4-7.4c-4.1,0-7.4,3.3-7.4,7.4c0,3.6,2.5,6.6,5.9,7.3v15.3H65.5V88.5
		c3.4-0.7,5.9-3.7,5.9-7.3c0-4.1-3.3-7.4-7.4-7.4c-4.1,0-7.4,3.3-7.4,7.4c0,3.6,2.5,6.6,5.9,7.3v15.3H36.7V88.5
		c3.4-0.7,5.9-3.7,5.9-7.3c0-4.1-3.3-7.4-7.4-7.4c-4.1,0-7.4,3.3-7.4,7.4c0,3.6,2.5,6.6,5.9,7.3V104c-3.4,0.8-5.9,3.9-5.9,7.5v13
		H13.2V3.5h101.7V124.5z M64,85.6c-2.4,0-4.4-2-4.4-4.4c0-2.4,2-4.4,4.4-4.4c2.4,0,4.4,2,4.4,4.4C68.4,83.7,66.4,85.6,64,85.6z"/>
	<path class="st0" d="M29.3,61.5h69.3c0.8,0,1.5-0.7,1.5-1.5c0-0.8-0.7-1.5-1.5-1.5H29.3c-0.8,0-1.5,0.7-1.5,1.5
		C27.8,60.8,28.5,61.5,29.3,61.5z"/>
	<path class="st0" d="M29.3,48h69.3c0.8,0,1.5-0.7,1.5-1.5v-17c0-0.8-0.7-1.5-1.5-1.5H29.3c-0.8,0-1.5,0.7-1.5,1.5v17
		C27.8,47.3,28.5,48,29.3,48z M30.8,31h66.3v14H30.8V31z"/>
	<path class="st0" d="M39.2,35.2c-0.8,0-1.5,0.7-1.5,1.5v2.6c0,0.8,0.7,1.5,1.5,1.5c0.8,0,1.5-0.7,1.5-1.5v-2.6
		C40.7,35.9,40,35.2,39.2,35.2z"/>
	<path class="st0" d="M49,35.2c-0.8,0-1.5,0.7-1.5,1.5v2.6c0,0.8,0.7,1.5,1.5,1.5c0.8,0,1.5-0.7,1.5-1.5v-2.6
		C50.5,35.9,49.9,35.2,49,35.2z"/>
	<path class="st0" d="M58.9,35.2c-0.8,0-1.5,0.7-1.5,1.5v2.6c0,0.8,0.7,1.5,1.5,1.5c0.8,0,1.5-0.7,1.5-1.5v-2.6
		C60.3,35.9,59.7,35.2,58.9,35.2z"/>
	<path class="st0" d="M68.7,35.2c-0.8,0-1.5,0.7-1.5,1.5v2.6c0,0.8,0.7,1.5,1.5,1.5c0.8,0,1.5-0.7,1.5-1.5v-2.6
		C70.2,35.9,69.5,35.2,68.7,35.2z"/>
	<path class="st0" d="M78.5,35.2c-0.8,0-1.5,0.7-1.5,1.5v2.6c0,0.8,0.7,1.5,1.5,1.5c0.8,0,1.5-0.7,1.5-1.5v-2.6
		C80,35.9,79.3,35.2,78.5,35.2z"/>
	<path class="st0" d="M88.3,35.2c-0.8,0-1.5,0.7-1.5,1.5v2.6c0,0.8,0.7,1.5,1.5,1.5s1.5-0.7,1.5-1.5v-2.6
		C89.8,35.9,89.2,35.2,88.3,35.2z"/>
</svg>
