<svg id="Layer_1" data-name="Layer 1" xmlns="http://www.w3.org/2000/svg" viewBox="0 0 128 128"><title>mobile-lg</title><path d="M69,117.2H59a1.5,1.5,0,0,1,0-3H69a1.5,1.5,0,0,1,0,3Z"/><path d="M93.67,127.49H34.34a9.12,9.12,0,0,1-9.11-9.1V9.62A9.12,9.12,0,0,1,34.34.51H93.67a9.11,9.11,0,0,1,9.1,9.1V118.39A9.11,9.11,0,0,1,93.67,127.49ZM34.34,3.51a6.12,6.12,0,0,0-6.11,6.11V118.39a6.11,6.11,0,0,0,6.11,6.1H93.67a6.11,6.11,0,0,0,6.1-6.1V9.61a6.11,6.11,0,0,0-6.1-6.1Z"/><path d="M92.91,105.58H35.09a1.5,1.5,0,0,1-1.5-1.5V10.63a1.5,1.5,0,0,1,1.5-1.5H92.91a1.5,1.5,0,0,1,1.5,1.5v93.45A1.5,1.5,0,0,1,92.91,105.58Zm-56.32-3H91.41V12.13H36.59Z"/></svg>