<svg xmlns="http://www.w3.org/2000/svg" viewBox="0 0 128 128"><title>money-lg</title><path d="M126,39.78a1.5,1.5,0,0,0-1.5,1.5V95.37H12.5a1.5,1.5,0,0,0,0,3H126a1.5,1.5,0,0,0,1.5-1.5V41.28A1.5,1.5,0,0,0,126,39.78Z"/><path d="M30.87,88.38a1.52,1.52,0,0,0,.59-.12h84a1.5,1.5,0,0,0,1.5-1.5V31.16a1.5,1.5,0,0,0-1.5-1.5H86.83a2.67,2.67,0,0,0-.4,0H22a1.84,1.84,0,0,0-.33,0,1.69,1.69,0,0,0-.33,0H2a1.5,1.5,0,0,0-1.5,1.5v55.6A1.5,1.5,0,0,0,2,88.26H30.28A1.52,1.52,0,0,0,30.87,88.38Zm66.57-3.12A18.14,18.14,0,0,1,114,68.7V85.26ZM114,65.7A21.13,21.13,0,0,0,94.44,85.26H34.62L48.25,71.63A16.45,16.45,0,0,0,71.41,48.46l15.8-15.8H114ZM72.21,59A13.46,13.46,0,1,1,58.75,45.5,13.48,13.48,0,0,1,72.21,59ZM20.06,32.66A18.16,18.16,0,0,1,3.5,49.19V32.66ZM3.5,52.19A21.15,21.15,0,0,0,23.06,32.66H83L69.3,46.34A16.45,16.45,0,0,0,46.13,69.51L30.38,85.26H3.5Z"/></svg>