<svg id="Layer_1" data-name="Layer 1" xmlns="http://www.w3.org/2000/svg" viewBox="0 0 64 64"><title>money-md</title><path d="M62,48.91H7.08a1,1,0,1,1,0-2H61V21a1,1,0,0,1,2,0v26.9A1,1,0,0,1,62,48.91ZM2,44a1,1,0,0,1-1-1V16.11a1,1,0,0,1,1-1H56.92a1,1,0,0,1,1,1V43a1,1,0,0,1-1,1Zm46.48-2h7.44V34.57A8.52,8.52,0,0,0,48.48,42Zm-30,0h28a10.51,10.51,0,0,1,9.45-9.45V17.11H43.35L36,24.5A8.24,8.24,0,0,1,24.4,36.06ZM3,42H15.62L23,34.65A8.24,8.24,0,0,1,34.54,23.08l6-6H12.45A10.52,10.52,0,0,1,3,26.55ZM29.46,23.32a6.24,6.24,0,1,0,6.24,6.24A6.25,6.25,0,0,0,29.46,23.32ZM3,17.11v7.43a8.54,8.54,0,0,0,7.44-7.43Z"/></svg>