<svg xmlns="http://www.w3.org/2000/svg" viewBox="0 0 24 24"><title>money</title><path d="M22,8.54a1,1,0,0,0-1,1v7.17H5.31a1,1,0,1,0,0,2H22a1,1,0,0,0,1-1V9.54A1,1,0,0,0,22,8.54Z"/><path d="M19.69,14.46V6.29a1,1,0,0,0-1-1H2a1,1,0,0,0-1,1v8.17a1,1,0,0,0,1,1H18.69A1,1,0,0,0,19.69,14.46ZM3,9.5a2.26,2.26,0,0,0,.9.18A2.4,2.4,0,0,0,6.29,7.29h-1A1.39,1.39,0,0,1,3,8.35V7.29H17.69v4a2.45,2.45,0,0,0-.9-.18,2.4,2.4,0,0,0-2.39,2.39H3Zm12.4,4a1.39,1.39,0,0,1,1.39-1.39,1.35,1.35,0,0,1,.9.34v1.05Z"/><path d="M10.34,8a2.4,2.4,0,1,0,2.4,2.39A2.39,2.39,0,0,0,10.34,8Zm0,3.79a1.4,1.4,0,1,1,1.4-1.4A1.4,1.4,0,0,1,10.34,11.77Z"/></svg>