<svg id="Layer_1" data-name="Layer 1" xmlns="http://www.w3.org/2000/svg" viewBox="0 0 128 128"><title>moving-lg</title><path d="M125.61,52.66,109,30.45l-.11-.12a.23.23,0,0,0-.07-.07,1.06,1.06,0,0,0-.29-.22h0L56.44.77A1.51,1.51,0,0,0,55,.77L2.86,30l0,0a1.39,1.39,0,0,0-.27.21h0a2.09,2.09,0,0,0-.22.28.59.59,0,0,0,0,.08,1.89,1.89,0,0,0-.11.25l0,.09a2.2,2.2,0,0,0,0,.36V96.66A1.48,1.48,0,0,0,2.86,98L55,127.23l.05,0,.25.1.08,0a1.41,1.41,0,0,0,.35,0,1.34,1.34,0,0,0,.35,0l.08,0,.25-.1.06,0L108.56,98a1.48,1.48,0,0,0,.76-1.3V63.75l15.82-8.88a1.51,1.51,0,0,0,.47-2.21ZM55.71,3.8,78.18,16.42l-48,28.15L6.66,31.34Zm-1.5,119.55L5.1,95.78V33.91L29.49,47.6h0l24.7,13.87Zm1.5-64.47L33.24,46.27l48-28.15,23.55,13.22Zm50.61,36.9L57.21,123.35V65.12l13.88,18.6a1.49,1.49,0,0,0,1.2.6,1.47,1.47,0,0,0,.73-.19l33.3-18.7ZM72.7,80.87,57.93,61.08,107.41,33.3l14.77,19.79Z"/></svg>