<svg id="Layer_1" data-name="Layer 1" xmlns="http://www.w3.org/2000/svg" viewBox="0 0 128 128"><path d="M40.75,19.2A8.28,8.28,0,0,1,41,16.74a2.17,2.17,0,0,1,.83-1.14,2.33,2.33,0,0,1,1.32-.39,1.63,1.63,0,0,1,1,.25,1.41,1.41,0,0,1,.52.75,9.16,9.16,0,0,1,.17,2.25V25H48V19.26a8.56,8.56,0,0,1,.26-2.46,2.35,2.35,0,0,1,.84-1.19,2.16,2.16,0,0,1,1.25-.4,1.49,1.49,0,0,1,1.35.67A5.07,5.07,0,0,1,52,18.17V25h3.16V17.37a6.67,6.67,0,0,0-.33-2.47,3.21,3.21,0,0,0-1.35-1.57,4.31,4.31,0,0,0-2.23-.54,4.1,4.1,0,0,0-1.94.48,5.55,5.55,0,0,0-1.7,1.42,3.63,3.63,0,0,0-1.38-1.42,3.94,3.94,0,0,0-2-.48,4.69,4.69,0,0,0-3.71,1.9V13.06H37.6V25h3.15Z"/><polygon points="63.67 24.99 66.94 12.68 70.22 24.99 73.75 24.99 77.75 8.53 74.4 8.53 71.87 20.03 68.98 8.53 65.03 8.53 62.02 19.84 59.54 8.53 56.14 8.53 60.07 24.99 63.67 24.99"/><path d="M82.56,19a6.92,6.92,0,0,1,.29-2.28,2.23,2.23,0,0,1,.9-1.15,2.68,2.68,0,0,1,1.41-.38,2.06,2.06,0,0,1,1.14.3,1.56,1.56,0,0,1,.63.8,9.32,9.32,0,0,1,.18,2.38V25h3.16V18a12.26,12.26,0,0,0-.17-2.38,3.74,3.74,0,0,0-.6-1.39,3.26,3.26,0,0,0-1.32-1,4.71,4.71,0,0,0-5.62,1.38V8.53H79.41V25h3.15Z"/><path d="M126.7,112.51H11.6V40.18l7.57,13.23a1.52,1.52,0,0,0,1,.72,1.48,1.48,0,0,0,1.19-.25l10.39-7.49,11,21.66a1.51,1.51,0,0,0,1,.77,1.49,1.49,0,0,0,1.2-.19l11.28-7.37L66.8,63.55,78.27,79.61a1.48,1.48,0,0,0,1.51.6l11.81-2.34a1.48,1.48,0,0,0,.89-.55l10.29-13.19,10.74,25.94a1.51,1.51,0,0,0,1,.88l11.8,2.85a1.45,1.45,0,0,0,.35,0,1.5,1.5,0,0,0,.36-3L116,88.21,104.56,60.6a1.52,1.52,0,0,0-1.19-.91,1.49,1.49,0,0,0-1.38.56L90.46,75l-10.31,2L68.91,61.33a1.52,1.52,0,0,0-.91-.59L56.2,58.2a1.49,1.49,0,0,0-1.14.21L44.66,65.2l-11-21.73a1.51,1.51,0,0,0-2.22-.54L21,50.47,11.6,34.14V8.5a1.5,1.5,0,0,0-3,0v104H1.3a1.5,1.5,0,1,0,0,3H8.6v7.23a1.5,1.5,0,1,0,3,0v-7.23H126.7a1.5,1.5,0,0,0,0-3Z"/></svg>