<svg id="Layer_1" data-name="Layer 1" xmlns="http://www.w3.org/2000/svg" viewBox="0 0 128 128"><path d="M123.34,74.67c-.59-1.62-2.38-3-16.78-.5-5.68,1-11.64,2.29-14.84,3.13,0-.12,0-.24-.06-.36l0-.07a.92.92,0,0,0,0-.16,5.06,5.06,0,0,0-.28-1,7.45,7.45,0,0,0-5.76-4.83l-34-6A24.16,24.16,0,0,0,39.1,65.94l-.16.07L22.47,74.28l-1.24-3.4a4.49,4.49,0,0,0-5.71-2.71L7.17,70.79a4.5,4.5,0,0,0-2.7,5.78l12.32,33.84a4.47,4.47,0,0,0,5.72,2.72l8.34-2.63a4.5,4.5,0,0,0,2.7-5.78l-1.09-3,4.15-2.5a13.29,13.29,0,0,1,3,0l.17,0,13.41,2.81a20.85,20.85,0,0,0,5.79.81,10.2,10.2,0,0,0,3.29-.44l56.62-18.14A7.48,7.48,0,0,0,123,80.56l.06-.12A7.59,7.59,0,0,0,123.34,74.67Zm-93.45,33-8.34,2.63a1.52,1.52,0,0,1-1.94-.91L7.29,75.54a1.51,1.51,0,0,1,.84-1.91L16.48,71a1.32,1.32,0,0,1,.51-.1,1.5,1.5,0,0,1,1.42,1l1.81,5h0l8.62,23.67,1.89,5.19A1.49,1.49,0,0,1,29.89,107.66Zm90.53-28.59a.41.41,0,0,0,0,.09,4.5,4.5,0,0,1-2.49,2.31L61.26,99.61c-1.47.54-5.39.22-7.24-.4l-.17,0L40.41,96.34a13,13,0,0,0-4.9.07,1.26,1.26,0,0,0-.26.13l-3.84,2.31L23.5,77.11l16.71-8.38A21.23,21.23,0,0,1,51,67.8l34,6a4.48,4.48,0,0,1,3.46,2.93,1.66,1.66,0,0,1,.11.38c0,.18,0,.32.07.42a3.93,3.93,0,0,1,0,1.45v0c-.15.7-3.22,2-11.53,1.31-5.2-.17-19.66-1.13-24.06-3.45a1.5,1.5,0,0,0-1.4,2.66c5.91,3.11,24.57,3.76,25.29,3.79,8.21.65,13-.31,14.34-2.86,5.39-1.67,26.07-5.68,29.24-4.5A4.6,4.6,0,0,1,120.42,79.07Z"/><path d="M60.83,35.17a4.32,4.32,0,1,0-2.39-2.26A4.21,4.21,0,0,0,60.83,35.17Zm-.15-4.66A1.8,1.8,0,1,1,63.1,32.8a1.79,1.79,0,0,1-1.38,0,1.75,1.75,0,0,1-1-.94A1.79,1.79,0,0,1,60.68,30.51Z"/><path d="M56.94,24.56l9.5-6.75,37.64,14.37-9.93,26L56.51,43.81,54,32.66a1.5,1.5,0,0,0-2.93.67l2.71,11.93a1.51,1.51,0,0,0,.92,1.07L94.48,61.52a1.39,1.39,0,0,0,.53.1,1.5,1.5,0,0,0,.62-.13,1.53,1.53,0,0,0,.79-.83l11-28.81a1.5,1.5,0,0,0-.87-1.93L66.76,14.72a1.49,1.49,0,0,0-1.4.18L55.2,22.11a1.5,1.5,0,0,0,1.74,2.45Z"/><path d="M75.9,37.43A1.25,1.25,0,0,0,75,39.77l2.21.84a9,9,0,0,0,.51,3.09A7.28,7.28,0,0,0,82,48.21a6.81,6.81,0,0,0,2.48.46,7.54,7.54,0,0,0,2.69-.51,1.25,1.25,0,0,0-.9-2.34,4.7,4.7,0,0,1-3.38.06,4.9,4.9,0,0,1-2.8-3,6.81,6.81,0,0,1-.3-1.28l3,1.15a1.2,1.2,0,0,0,.45.09,1.25,1.25,0,0,0,.45-2.42L79.93,39A6.64,6.64,0,0,1,80.2,38l4.85,1.86a1.41,1.41,0,0,0,.44.08,1.25,1.25,0,0,0,.45-2.42l-4.49-1.71a5.42,5.42,0,0,1,6-2,4.67,4.67,0,0,1,2.59,2.49,1.25,1.25,0,0,0,1.66.6,1.24,1.24,0,0,0,.6-1.66,7.24,7.24,0,0,0-3.95-3.77c-3.34-1.27-7.13.23-9.34,3.4l-1.89-.72a1.25,1.25,0,0,0-.89,2.34l1.61.61c-.12.31-.21.62-.3.93Z"/><path d="M21.07,40.2a11.74,11.74,0,0,0,7.38,2.63,11.56,11.56,0,0,0,5.75-1.54l15.69-8.95a1.5,1.5,0,0,0-1.48-2.61l-15.69,9A8.56,8.56,0,0,1,23,37.86,8.14,8.14,0,0,1,20.19,29q.09-.3.21-.6a10.53,10.53,0,0,1,5.81-6,11.52,11.52,0,0,1,8.64-.12l20,7.64a1.5,1.5,0,0,0,1.07-2.8l-20-7.64A14.54,14.54,0,0,0,25,19.62a13.54,13.54,0,0,0-7.43,7.66c-.1.25-.19.51-.27.77A11.09,11.09,0,0,0,21.07,40.2Z"/></svg>