<svg id="Layer_1" data-name="Layer 1" xmlns="http://www.w3.org/2000/svg" viewBox="0 0 128 128"><path d="M126.88,93,100.16,66.26A32.21,32.21,0,0,0,45.92,31.51c-7.33.59-23.77,2.59-23.77,8.61V56c-10.64,1.63-16,4.22-16,7.73V80c0,3.28,4.83,5.45,11.25,6.84v15.11c0,7.16,23.15,9.06,35.39,9.06s35.39-1.9,35.39-9.06V85.62c0-2.2-2.06-4-6.25-5.47a31.89,31.89,0,0,0,8.34-3.82L116.88,103a7.07,7.07,0,0,0,10-10ZM72.81,20A29.23,29.23,0,1,1,43.59,49.24,29.26,29.26,0,0,1,72.81,20ZM25.15,44.13c3.58,2.1,9.79,3.33,15.46,4,0,.35,0,.7,0,1.06a32,32,0,0,0,2.53,12.52c-13.67-1.45-18-4.39-18-5.33Zm18.93-9.45a31.79,31.79,0,0,0-3.23,10.5c-11.71-1.5-15.7-4.09-15.7-5.06S29.71,36.08,44.08,34.68ZM22.78,58.89a1.68,1.68,0,0,0,.32-.09c3.27,3.81,14.17,5.43,21.11,6.08h.14a1.37,1.37,0,0,0,.28,0,32.7,32.7,0,0,0,3.21,4.75c-2.09.08-4.2.15-6.33.15-21,0-32.39-4-32.39-6.06C9.12,63.1,11.43,60.6,22.78,58.89ZM9.12,80V67.68c6.65,3.9,22.84,5.06,32.39,5.06,3,0,6-.09,8.83-.26a.8.8,0,0,0,.15,0,32.12,32.12,0,0,0,21.95,9C68.76,83.53,58.13,86,41.51,86a117.29,117.29,0,0,1-22.32-1.88h0C12.57,82.83,9.12,81.11,9.12,80Zm43.64,28c-21,0-32.39-4-32.39-6.06V89.62c6.66,3.91,22.84,5.06,32.39,5.06s25.73-1.15,32.39-5.06v12.31C85.15,104,73.72,108,52.76,108ZM85.15,85.62c0,2.06-11.43,6.06-32.39,6.06-14.53,0-24.47-1.92-29.21-3.79a142.76,142.76,0,0,0,18,1.15c11.17,0,31.42-1.58,34.87-7.3C83.51,83.33,85.15,85.11,85.15,85.62Zm39.61,15.24a4.09,4.09,0,0,1-5.76,0L92.71,74.56a32.38,32.38,0,0,0,5.72-5.8L124.76,95.1a4.08,4.08,0,0,1,0,5.76Z"/><path d="M56.71,53.9a1.5,1.5,0,0,0,1.5,1.5h4.16c2.15,6.42,7.53,11,13.83,11a13.46,13.46,0,0,0,9.09-3.58,1.5,1.5,0,1,0-2-2.23,10.55,10.55,0,0,1-7.09,2.81c-4.68,0-8.72-3.26-10.64-8h5.81a1.5,1.5,0,0,0,0-3h-6.7a16.36,16.36,0,0,1-.31-3.16c0-.31,0-.6,0-.9h9.18a1.5,1.5,0,0,0,0-3H64.83c1.42-5.91,6-10.24,11.37-10.24a10.59,10.59,0,0,1,7.45,3.15,1.5,1.5,0,0,0,2.09-2.16,13.75,13.75,0,0,0-9.54-4c-7,0-12.9,5.66-14.44,13.24H58.21a1.5,1.5,0,0,0,0,3H61.4c0,.3,0,.59,0,.9a19.25,19.25,0,0,0,.26,3.16H58.21A1.5,1.5,0,0,0,56.71,53.9Z"/></svg>