<svg id="Layer_1" data-name="Layer 1" xmlns="http://www.w3.org/2000/svg" viewBox="0 0 128 128"><title>network-lg</title><path d="M114.43,85.86v-44a6.76,6.76,0,1,0-6.57-11L70.51,10.61a6.76,6.76,0,1,0-13,0L20.14,30.82a6.75,6.75,0,1,0-6.57,11v44a6.76,6.76,0,1,0,6.55,11.06L57.5,117.36a6.6,6.6,0,0,0-.26,1.84,6.76,6.76,0,0,0,13.52,0,6.6,6.6,0,0,0-.26-1.84l37.38-20.44a6.75,6.75,0,1,0,6.55-11.06Zm-1.5-54.35a3.76,3.76,0,1,1-3.76,3.76A3.76,3.76,0,0,1,112.93,31.51ZM69.08,13.25l37.34,20.21a6.71,6.71,0,0,0-.25,1.81,6.55,6.55,0,0,0,.32,2L88.57,47.83,68.62,13.72C68.78,13.57,68.93,13.41,69.08,13.25ZM64,60.24A3.76,3.76,0,1,1,60.24,64,3.77,3.77,0,0,1,64,60.24Zm-4.92-.87L42,49.35,62,15.24a4.58,4.58,0,0,0,.53.14v42A6.77,6.77,0,0,0,59.08,59.37Zm6.42-2v-42a4.58,4.58,0,0,0,.53-.14L86,49.35l-17.06,10A6.77,6.77,0,0,0,65.5,57.41ZM64,5A3.76,3.76,0,1,1,60.24,8.8,3.76,3.76,0,0,1,64,5ZM21.57,33.45l37.35-20.2c.15.16.3.32.46.47l-20,34.11L21.51,37.31a6.55,6.55,0,0,0,.32-2A6.46,6.46,0,0,0,21.57,33.45ZM11.31,35.27A3.76,3.76,0,1,1,15.07,39,3.76,3.76,0,0,1,11.31,35.27Zm3.76,60.94a3.76,3.76,0,1,1,3.76-3.76A3.76,3.76,0,0,1,15.07,96.21ZM17.1,86l-.53-.14v-44a6.85,6.85,0,0,0,3.42-2L37.91,50.42ZM20,87.85c-.1-.11-.2-.22-.31-.32L40.5,51.94,57.56,62a6.55,6.55,0,0,0-.32,2,6.77,6.77,0,0,0,.31,2ZM59.06,68.61a6.82,6.82,0,0,0,3.44,2V91H21.66c0-.17-.09-.35-.14-.52Zm-.12,46.12L21.57,94.29l.09-.34H62.5v18.67A6.74,6.74,0,0,0,58.94,114.73ZM64,123a3.76,3.76,0,1,1,3.76-3.76A3.76,3.76,0,0,1,64,123Zm5.06-8.23a6.74,6.74,0,0,0-3.56-2.11V94h40.84l.09.34ZM106.34,91H65.5V70.59a6.82,6.82,0,0,0,3.44-2l37.54,21.82C106.43,90.6,106.38,90.78,106.34,91Zm1.66-3.1L70.45,66a6.77,6.77,0,0,0,.31-2,6.55,6.55,0,0,0-.32-2l17.06-10,20.81,35.59C108.2,87.63,108.1,87.74,108,87.85ZM90.09,50.42,108,39.9a6.85,6.85,0,0,0,3.42,2v44l-.53.14Zm22.84,45.79a3.76,3.76,0,1,1,3.76-3.76A3.77,3.77,0,0,1,112.93,96.21Z"/></svg>