<svg id="Layer_1" data-name="Layer 1" xmlns="http://www.w3.org/2000/svg" viewBox="0 0 128 128"><path d="M121,26H110.47V17.75a1.5,1.5,0,0,0-1.5-1.5H99V6.06a1.5,1.5,0,0,0-1.5-1.5H7a1.5,1.5,0,0,0-1.5,1.5V121.94a1.5,1.5,0,0,0,1.5,1.5H109.25a13.29,13.29,0,0,0,13.28-13.27V27.47A1.5,1.5,0,0,0,121,26ZM8.47,120.44V7.56H96V110.17a13.22,13.22,0,0,0,4.88,10.27Zm111.06-10.27a10.28,10.28,0,0,1-20.55,0V19.25h8.49v88.33a1.5,1.5,0,1,0,3,0V29h9.06Z"/><path d="M86.17,68.34H18.28a1.5,1.5,0,0,0,0,3H86.17a1.5,1.5,0,0,0,0-3Z"/><path d="M86.17,80H18.28a1.5,1.5,0,0,0,0,3H86.17a1.5,1.5,0,0,0,0-3Z"/><path d="M86.17,91.71H18.28a1.5,1.5,0,0,0,0,3H86.17a1.5,1.5,0,0,0,0-3Z"/><path d="M86.17,103.39H18.28a1.5,1.5,0,0,0,0,3H86.17a1.5,1.5,0,0,0,0-3Z"/><path d="M86.17,56.66H65.76a1.5,1.5,0,0,0,0,3H86.17a1.5,1.5,0,0,0,0-3Z"/><path d="M86.17,45H65.76a1.5,1.5,0,0,0,0,3H86.17a1.5,1.5,0,0,0,0-3Z"/><path d="M86.17,33.29H65.76a1.5,1.5,0,0,0,0,3H86.17a1.5,1.5,0,0,0,0-3Z"/><path d="M86.17,21.61H65.76a1.5,1.5,0,0,0,0,3H86.17a1.5,1.5,0,0,0,0-3Z"/><path d="M19.32,60H54.73a1.5,1.5,0,0,0,1.5-1.5V23.11a1.5,1.5,0,0,0-1.5-1.5H19.32a1.5,1.5,0,0,0-1.5,1.5V58.53A1.5,1.5,0,0,0,19.32,60Zm1.5-35.42H53.23V57H20.82Z"/></svg>