<svg id="Layer_1" data-name="Layer 1" xmlns="http://www.w3.org/2000/svg" viewBox="0 0 128 128"><title>notifications-lg</title><path d="M102.25,15.64h-24a1.5,1.5,0,0,0,0,3h24c.26,0,1,0,1.06,1.05v99.48c0,.25,0,1-1.06,1H43.08c-.25,0-1,0-1-1V52.42a1.5,1.5,0,0,0-3,0v66.75a3.94,3.94,0,0,0,4,4h59.17a3.94,3.94,0,0,0,4.06-4V19.69A3.94,3.94,0,0,0,102.25,15.64Z"/><path d="M96.41,99.73H48.92c-.25,0-1,0-1.05-1V54.13a1.5,1.5,0,0,0-3,0V98.68a3.94,3.94,0,0,0,4.05,4H96.41a3.94,3.94,0,0,0,4-4V25.42a3.93,3.93,0,0,0-4-4.05H82.16a1.5,1.5,0,0,0,0,3H96.41c.26,0,1,0,1,1.05V98.68C97.46,98.93,97.46,99.7,96.41,99.73Z"/><path d="M66.07,111.91a6.6,6.6,0,1,0,6.6-6.61A6.61,6.61,0,0,0,66.07,111.91Zm10.2,0a3.6,3.6,0,1,1-3.6-3.61A3.61,3.61,0,0,1,76.27,111.91Z"/><path d="M54.89,47.92l6.16,6.65a4.48,4.48,0,0,0,2.85,1.58,1.89,1.89,0,0,0,.86-.19c1.6-.74,1.33-3,1.24-3.69l-1-7.84c7.32-4.09,11.65-10.69,11.65-17.83,0-12-12.33-21.82-27.49-21.82S21.69,14.57,21.69,26.6,34,48.42,49.18,48.42A33.91,33.91,0,0,0,54.89,47.92ZM24.69,26.6c0-10.38,11-18.82,24.49-18.82S73.67,16.22,73.67,26.6c0,6.29-4.09,12.15-11,15.66a1.52,1.52,0,0,0-.81,1.52L63,52.22l-6.44-6.94a1.51,1.51,0,0,0-1.1-.48,1.43,1.43,0,0,0-.29,0,31.51,31.51,0,0,1-6,.59C35.68,45.42,24.69,37,24.69,26.6Z"/><path d="M51.27,37.49a2,2,0,1,0-2,2A2,2,0,0,0,51.27,37.49Z"/><path d="M49.26,33.64a1.5,1.5,0,0,0,1.5-1.5V15.3a1.5,1.5,0,0,0-3,0V32.14A1.5,1.5,0,0,0,49.26,33.64Z"/></svg>