<svg xmlns="http://www.w3.org/2000/svg" viewBox="0 0 128 128"><title>nuclear-power-plant</title><path d="M123.27,107.5h-6.15V72.28a1.5,1.5,0,0,0-1.5-1.5h-4L110.2,19a1.51,1.51,0,0,0-1.5-1.46H96A1.5,1.5,0,0,0,94.45,19L93,70.78H88.77L87.31,19a1.5,1.5,0,0,0-1.5-1.46H73.06A1.51,1.51,0,0,0,71.56,19L70.1,70.78H65.87c0-.48,0-1,0-1.46V64.07a1.65,1.65,0,0,0,0-.32,1.55,1.55,0,0,0,0-.31V42.63a1.5,1.5,0,0,0-1.5-1.5h-44a1.5,1.5,0,0,0-1.5,1.5V63.44a1.06,1.06,0,0,0,0,.31,1.12,1.12,0,0,0,0,.32v5.25c0,16-6,33.89-7.56,38.18H4.73a1.5,1.5,0,0,0,0,3H123.27a1.5,1.5,0,0,0,0-3ZM97.4,20.5h9.84l1.41,50.28H96Zm-22.88,0h9.83l1.42,50.28H73.1Zm39.6,53.28V107.5H73.41c-1.39-3.9-6.48-19-7.41-33.72ZM21.89,69.32V65.25h41v4.07a92.37,92.37,0,0,0,1.47,15.56H20.42A92.37,92.37,0,0,0,21.89,69.32Zm41-25.19V62.25h-41V44.13Zm-43,43.75h45a149.51,149.51,0,0,0,5.35,19.62H14.51A149.51,149.51,0,0,0,19.86,87.88Z"/><path d="M74,88a1.5,1.5,0,0,0,1.5-1.5V80.3a1.5,1.5,0,0,0-3,0v6.15A1.5,1.5,0,0,0,74,88Z"/><path d="M90.46,88a1.5,1.5,0,0,0,1.5-1.5V80.3a1.5,1.5,0,0,0-3,0v6.15A1.5,1.5,0,0,0,90.46,88Z"/><path d="M106.92,88a1.5,1.5,0,0,0,1.5-1.5V80.3a1.5,1.5,0,0,0-3,0v6.15A1.5,1.5,0,0,0,106.92,88Z"/><path d="M98.69,88a1.5,1.5,0,0,0,1.5-1.5V80.3a1.5,1.5,0,0,0-3,0v6.15A1.5,1.5,0,0,0,98.69,88Z"/><path d="M82.24,88a1.5,1.5,0,0,0,1.5-1.5V80.3a1.5,1.5,0,0,0-3,0v6.15A1.5,1.5,0,0,0,82.24,88Z"/></svg>