<svg id="Layer_1" data-name="Layer 1" xmlns="http://www.w3.org/2000/svg" viewBox="0 0 128 128"><path d="M117.45,111.09H70.68a2.69,2.69,0,1,1,0-5.37h11.1a9.29,9.29,0,0,0,9.28-9.27V62.29a1.5,1.5,0,1,0-3,0V96.45a6.28,6.28,0,0,1-6.28,6.27H70.68a5.69,5.69,0,1,0,0,11.37h46.77a3.59,3.59,0,0,1,3.58,3.52,3.59,3.59,0,0,1-3.56,3.63c-12.53.06-55.1.24-76.76.09a14.73,14.73,0,0,1-14.62-14.87V58H43.71a1.5,1.5,0,0,0,1.5-1.5V5.11a1.5,1.5,0,0,0-1.5-1.5H5.47A1.5,1.5,0,0,0,4,5.11V56.47A1.5,1.5,0,0,0,5.47,58H23.09v48.48A17.72,17.72,0,0,0,40.7,124.33c6,0,13.5.06,21.56.06,21.26,0,46.14-.11,55.23-.15a6.59,6.59,0,0,0,6.54-6.67A6.61,6.61,0,0,0,117.45,111.09ZM7,6.61H42.21V55H7Z"/><path d="M89.19,15.69a1.5,1.5,0,0,0,1.5-1.5V5.11a1.5,1.5,0,1,0-3,0v9.08A1.5,1.5,0,0,0,89.19,15.69Z"/><path d="M106.29,22.67a1.53,1.53,0,0,0,1.06-.44l6.42-6.42a1.51,1.51,0,0,0,0-2.12,1.49,1.49,0,0,0-2.12,0l-6.43,6.42a1.51,1.51,0,0,0,0,2.12A1.53,1.53,0,0,0,106.29,22.67Z"/><path d="M111.94,38.19a1.5,1.5,0,0,0,1.5,1.5h9.09a1.5,1.5,0,0,0,0-3h-9.09A1.51,1.51,0,0,0,111.94,38.19Z"/><path d="M105.41,54.23a1.49,1.49,0,0,0,0,2.12l6.42,6.43A1.5,1.5,0,1,0,114,60.65l-6.42-6.42A1.51,1.51,0,0,0,105.41,54.23Z"/><path d="M71.28,54.42l-6.42,6.42a1.51,1.51,0,0,0,0,2.12,1.53,1.53,0,0,0,1.06.44A1.49,1.49,0,0,0,67,63l6.43-6.42a1.5,1.5,0,0,0-2.13-2.12Z"/><path d="M56.1,40h9.09a1.5,1.5,0,0,0,0-3H56.1a1.5,1.5,0,0,0,0,3Z"/><path d="M71.1,22.41a1.47,1.47,0,0,0,1.06.44,1.45,1.45,0,0,0,1.06-.44,1.49,1.49,0,0,0,0-2.12L66.8,13.87A1.5,1.5,0,0,0,64.68,16Z"/><path d="M89.31,55.28a17,17,0,1,0-17-17A17,17,0,0,0,89.31,55.28Zm0-30.92a14,14,0,1,1-14,14A14,14,0,0,1,89.31,24.36Z"/><path d="M31.59,29.8A1.49,1.49,0,0,0,30.28,29H21.67L28.6,18.31a1.5,1.5,0,0,0-2.52-1.63l-8.43,13A1.5,1.5,0,0,0,18.91,32h8.62L20.3,43.28a1.51,1.51,0,0,0,.45,2.07,1.55,1.55,0,0,0,.81.24,1.52,1.52,0,0,0,1.27-.69l8.71-13.57A1.5,1.5,0,0,0,31.59,29.8Z"/></svg>