<svg xmlns="http://www.w3.org/2000/svg" viewBox="0 0 128 128"><title>oil-tank</title><path d="M105.1,6.1H64a1.5,1.5,0,0,0-1.06.44L54.47,15l-4.7-4.7a1.52,1.52,0,0,0-2.13,0l-4.42,4.43-8-8.14a1.56,1.56,0,0,0-1.08-.45H20.4a1.5,1.5,0,0,0-1.5,1.5v6.89A1.5,1.5,0,0,0,20.4,16h8.74l6.26,6.52L30.9,27a1.49,1.49,0,0,0,0,2.12l4.64,4.64-8.17,8.12A1.5,1.5,0,0,0,26.93,43v75.19a3.53,3.53,0,0,0,3.52,3.52H105.1a3.53,3.53,0,0,0,3.52-3.52V9.63A3.53,3.53,0,0,0,105.1,6.1ZM29.93,50.22h75.69v57.83H29.93Zm.93-36.77A1.47,1.47,0,0,0,29.78,13H21.9V9.1H33.54l7.56,7.71-3.58,3.58Zm3.22,14.62,4.37-4.37a1.05,1.05,0,0,0,.11-.07,1.25,1.25,0,0,0,.08-.12l5.62-5.62h0l4.45-4.44,3.63,3.63L37.67,31.65Zm30.54-19H105.1a.52.52,0,0,1,.52.53V47.22H29.93V43.58ZM105.1,118.66H30.45a.52.52,0,0,1-.52-.52v-7.09h75.69v7.09A.52.52,0,0,1,105.1,118.66Z"/><path d="M70.17,32.8H96.68a3.5,3.5,0,0,0,3.5-3.5V17.49a3.5,3.5,0,0,0-3.5-3.5H70.17a3.5,3.5,0,0,0-3.5,3.5V29.3A3.5,3.5,0,0,0,70.17,32.8Zm-.5-15.31a.51.51,0,0,1,.5-.5H96.68a.51.51,0,0,1,.5.5V29.3a.51.51,0,0,1-.5.5H70.17a.51.51,0,0,1-.5-.5Z"/><path d="M79.77,74.75l-9-16.49a3.5,3.5,0,0,0-6,0l-9,16.49a24.13,24.13,0,0,0-3,11.55,15,15,0,0,0,14.91,15.42,14.93,14.93,0,0,0,15-14.94V86.3A24.12,24.12,0,0,0,79.77,74.75Zm-.06,12a11.93,11.93,0,0,1-12,11.94,11.52,11.52,0,0,1-1.42-.09A12.18,12.18,0,0,1,55.83,86.3a21.29,21.29,0,0,1,2.58-10.12l9-16.48a.41.41,0,0,1,.36-.15c.17,0,.33.06.37.15l9,16.49A21.21,21.21,0,0,1,79.71,86.3Z"/><path d="M76.2,86.75a1.5,1.5,0,0,0-2,.63c-2.18,4.17-4.52,5.31-4.6,5.35a1.5,1.5,0,0,0,1.18,2.76c.34-.14,3.36-1.53,6.08-6.72A1.49,1.49,0,0,0,76.2,86.75Z"/></svg>