<svg id="Layer_1" data-name="Layer 1" xmlns="http://www.w3.org/2000/svg" viewBox="0 0 128 128"><path d="M121.19,29.35h-5L110.88,12a1.24,1.24,0,0,0-1-.86L97.85,8.92a1.32,1.32,0,0,0-.71.07L86,13.62,82.34,9.46A1.28,1.28,0,0,0,81.41,9L65,8.9h0a1.24,1.24,0,0,0-.64.18L57.78,13l-8.9-6.89a1.24,1.24,0,0,0-1-.23L21.51,11.42a1.26,1.26,0,0,0-.88.71L12.79,29.35h-6A1.25,1.25,0,0,0,5.56,30.6v6.52a1.25,1.25,0,0,0,1.25,1.25h.94L14.46,96H13a1.24,1.24,0,0,0-1,.44,1.21,1.21,0,0,0-.28,1l2,12.67a1.23,1.23,0,0,0,1.23,1h8.91a12.81,12.81,0,0,0,1,3.22,13.1,13.1,0,0,0,11.92,7.74A13.11,13.11,0,0,0,42.08,121a13.08,13.08,0,0,0,7.55-9.81H78.75a12.81,12.81,0,0,0,1,3.22,13.06,13.06,0,0,0,24.8-3.22H113a1.23,1.23,0,0,0,1.23-1l2-12.67a1.21,1.21,0,0,0-.28-1A1.24,1.24,0,0,0,115,96h-1.5l6.71-57.67h.94a1.25,1.25,0,0,0,1.25-1.25V30.6A1.25,1.25,0,0,0,121.19,29.35ZM97.76,11.45l3.14.57,2.21,5.45L102.36,21a1.23,1.23,0,0,0,1,1.48l.26,0a1.24,1.24,0,0,0,1.22-1l.84-3.88a1.22,1.22,0,0,0-.07-.73l-1.76-4.33,4.9.9,4.89,15.89H95.15L90.3,18.65a1.1,1.1,0,0,0-.2-.31L87.71,15.6Zm-32.39,0,7.67.07-1,2a1.3,1.3,0,0,0-.06.91l2.36,7.35a1.25,1.25,0,0,0,1.19.87,1.21,1.21,0,0,0,.38-.06A1.25,1.25,0,0,0,76.76,21l-2.2-6.88,1.24-2.63,5,0,3.58,4.09a1.24,1.24,0,0,0,.47.54l3.23,3.69,4.31,9.5H67.27l-.87-5.13a1.12,1.12,0,0,0-.14-.4L62.1,16.47a1.3,1.3,0,0,0-.32-.38l-1.87-1.44ZM22.65,13.74l14.15-3-3.56,3.49a1.2,1.2,0,0,0-.33.55l-2.08,7.35a1.25,1.25,0,0,0,.86,1.54,1,1,0,0,0,.34,0,1.24,1.24,0,0,0,1.2-.91l2-7,6.14-6,6.45-1.36,3.56,2.75.2,6.27-4.26,4.9a1.25,1.25,0,0,0,.13,1.77A1.26,1.26,0,0,0,49.2,24l4.57-5.27a1.22,1.22,0,0,0,.31-.86l-.15-4.69,6.12,4.74L64,24.86l.75,4.49H15.54ZM8.06,31.85H119.94v4H8.06Zm6.36,66.69H29.09a12.92,12.92,0,0,0-5.38,10.16H16ZM46.6,112.86a10.55,10.55,0,1,1-19.71-7.53,10.57,10.57,0,0,1,9.87-6.79,10.29,10.29,0,0,1,3.75.7A10.55,10.55,0,0,1,46.6,112.86ZM44.4,98.54H84a13,13,0,0,0-4.53,5.9,12.86,12.86,0,0,0-.84,4.26H49.79A13.08,13.08,0,0,0,44.4,98.54Zm57.08,14.32h0a10.55,10.55,0,1,1-19.71-7.53,10.57,10.57,0,0,1,9.87-6.79,10.29,10.29,0,0,1,3.75.7,10.54,10.54,0,0,1,6.09,13.62ZM112,108.7h-7.29a13,13,0,0,0-5.39-10.16h14.29ZM111,96H17L10.27,38.37H117.73Z"/><path d="M61,80.27h6.38A1.25,1.25,0,0,0,68.58,79V55.39a1.25,1.25,0,0,0-1.25-1.25H61a1.25,1.25,0,0,0-1.25,1.25V79A1.25,1.25,0,0,0,61,80.27ZM62.2,56.64h3.88V77.77H62.2Z"/><path d="M35.15,80.27h6.38A1.25,1.25,0,0,0,42.78,79V55.39a1.25,1.25,0,0,0-1.25-1.25H35.15a1.25,1.25,0,0,0-1.25,1.25V79A1.25,1.25,0,0,0,35.15,80.27ZM36.4,56.64h3.88V77.77H36.4Z"/><path d="M86.76,80.27h6.37A1.25,1.25,0,0,0,94.38,79V55.39a1.25,1.25,0,0,0-1.25-1.25H86.76a1.25,1.25,0,0,0-1.25,1.25V79A1.25,1.25,0,0,0,86.76,80.27ZM88,56.64h3.87V77.77H88Z"/><path d="M38.28,105.07a4.3,4.3,0,1,0,2.49,5.56,4.33,4.33,0,0,0-2.49-5.56Zm.15,4.67h0a1.81,1.81,0,0,1-2.33,1,1.81,1.81,0,0,1-1-2.33,1.76,1.76,0,0,1,.95-1,1.69,1.69,0,0,1,.73-.16,1.82,1.82,0,0,1,.65.12,1.76,1.76,0,0,1,1,1A1.79,1.79,0,0,1,38.43,109.74Z"/><path d="M93.16,105.07a4.3,4.3,0,1,0,2.49,5.56,4.33,4.33,0,0,0-2.49-5.56Zm.15,4.67h0a1.8,1.8,0,1,1-3.37-1.29,1.76,1.76,0,0,1,1-1,1.69,1.69,0,0,1,.73-.16,1.82,1.82,0,0,1,.65.12,1.81,1.81,0,0,1,1,2.33Z"/></svg>