<svg xmlns="http://www.w3.org/2000/svg" viewBox="0 0 128 128"><title>organic</title><path d="M122.1,85.5c-.58-1.59-2.33-2.94-16.45-.51-2.2.38-4.44.81-6.54,1.24a14.72,14.72,0,0,0-1.77-8.59c-4-7.47-13.66-8-17.78-8.18l-.68,0a13.45,13.45,0,0,0-10-5.6c0-5,3.17-13.57,4.78-16.75.57,0,1.37,0,2.35,0,6.17,0,19.52-1.08,28.11-9.67C115.39,26.22,113.78,6.86,113.71,6a1.51,1.51,0,0,0-1.36-1.36c-.8-.07-19.57-1.62-30.87,9a13.66,13.66,0,0,0-2.89-2.52A42.48,42.48,0,0,0,67.05,5.75a1.47,1.47,0,0,0-1.16.18,1.5,1.5,0,0,0-.68,1c-.12.59-3,14.33,4,18.85a14.05,14.05,0,0,0,4.2,1.81,49.24,49.24,0,0,0-1.68,8.14.66.66,0,0,0,0,.14L71.4,45c-1.65,2.9-5.46,12.64-5.47,18.85a22.39,22.39,0,0,0-9.44,3.49c-3.92-1.22-7-1-9.14.79-2.54,2.06-2.94,5.58-3,7.59a23.38,23.38,0,0,0-4.78,1.19l-.16.07L23.37,85.08l-1.2-3.29a4.43,4.43,0,0,0-5.63-2.67L8.37,81.69A4.37,4.37,0,0,0,5.86,84a4.43,4.43,0,0,0-.15,3.39L17.77,120.5h0a4.47,4.47,0,0,0,4.17,2.94,4.13,4.13,0,0,0,1.46-.26l8.17-2.57a4.4,4.4,0,0,0,2.51-2.3,4.45,4.45,0,0,0,.15-3.4L33.17,112l4-2.44a13.82,13.82,0,0,1,2.88,0l.17.05,13.12,2.75a20.61,20.61,0,0,0,5.68.79,9.87,9.87,0,0,0,3.23-.43L117.69,95a7.29,7.29,0,0,0,4.1-3.69.75.75,0,0,0,.07-.12A7.39,7.39,0,0,0,122.1,85.5ZM78.55,71.8ZM110.79,7.6c.15,4.41-.08,19.06-8.75,27.73-8,8-21.08,8.81-26.52,8.77C84.64,30,90.1,27.86,92.6,27.86a1.5,1.5,0,0,0,0-3c-5.06,0-11.12,5.14-18,15.28L74.68,36c.72-5.87,2.76-14,8.38-19.63C91.71,7.7,106.38,7.46,110.79,7.6Zm-40,15.62c-3.78-2.45-3.55-9.92-3-14.07A44.56,44.56,0,0,1,77,13.71a11.23,11.23,0,0,1,2.45,2.2,31.23,31.23,0,0,0-5.06,8.78A11.54,11.54,0,0,1,70.8,23.22ZM49.24,70.49c1-.86,2.61-1.08,4.66-.69l-.34.39a1.5,1.5,0,0,0,.15,2.12,1.48,1.48,0,0,0,1,.37,1.52,1.52,0,0,0,1.14-.52c.57-.66.8-1,1-1.17s.12-.16.83-.75l0,0c.51-.35,4.9-3.32,9.81-3.44h0l.2,0h0a10.44,10.44,0,0,1,8.42,4,1.72,1.72,0,0,0,0,.29c.3,1.25,1.42,1.31,3.26,1.41,3.62.18,12.1.62,15.3,6.6A11.35,11.35,0,0,1,96,86.9c-1.9.42-3.57.82-4.81,1.14,0-.09,0-.19,0-.28a.56.56,0,0,1,0-.1s0-.1,0-.15a5.49,5.49,0,0,0-.27-1,7.33,7.33,0,0,0-5.66-4.75l-33.3-5.9a23.57,23.57,0,0,0-4.43-.35C47.44,74,47.74,71.7,49.24,70.49ZM31.36,117a1.4,1.4,0,0,1-.75.73l-8.17,2.57a1.45,1.45,0,0,1-1.85-.86L8.53,86.36a1.47,1.47,0,0,1,.05-1.11,1.38,1.38,0,0,1,.75-.72L17.5,82a1.44,1.44,0,0,1,1.85.86l1.78,4.87h0L28.52,108l2.89,7.93A1.45,1.45,0,0,1,31.36,117ZM119.19,89.8a.41.41,0,0,0,0,.09,4.33,4.33,0,0,1-2.42,2.25L61.31,109.89c-1.44.52-5.26.22-7.06-.39l-.18,0-13.15-2.76a12.7,12.7,0,0,0-4.81.07,1.34,1.34,0,0,0-.27.13l-3.72,2.24L24.4,87.92l16.33-8.19a20.62,20.62,0,0,1,10.59-.9l33.3,5.89A4.38,4.38,0,0,1,88,87.57a2.26,2.26,0,0,1,.11.37,2.43,2.43,0,0,0,.07.41,3.88,3.88,0,0,1,0,1.4v0C88,90.46,85,91.69,76.93,91c-5.09-.17-19.23-1.11-23.53-3.37A1.5,1.5,0,0,0,52,90.33c5.79,3,24,3.69,24.76,3.71,8,.64,12.76-.3,14.06-2.81,1.35-.41,3.66-1,6.42-1.57a1.44,1.44,0,0,0,.45-.09c8-1.7,19.4-3.57,21.69-2.74A4.4,4.4,0,0,1,119.19,89.8Z"/></svg>