<svg id="Layer_1" data-name="Layer 1" xmlns="http://www.w3.org/2000/svg" viewBox="0 0 128 128"><title>overvoltage-lg</title><path d="M44.28,40.44a2,2,0,1,0-2-2A2,2,0,0,0,44.28,40.44Z"/><path d="M23.39,33.22a2,2,0,1,0-2-2A2,2,0,0,0,23.39,33.22Z"/><path d="M53.89,91.94a2,2,0,1,0,2,2A2,2,0,0,0,53.89,91.94Z"/><path d="M8.77,72.32a2,2,0,1,0,2,2A2,2,0,0,0,8.77,72.32Z"/><path d="M33.83,96a2,2,0,1,0,2,2A2,2,0,0,0,33.83,96Z"/><path d="M54.17,44.61a1.5,1.5,0,0,0,0-3h0c-4.47,0-5.34,8-6.48,22.21-.41,5.11-.84,10.39-1.56,14.24-.94,5-2,5.33-2,5.33s-1-.31-2-5.25c-.71-3.81-1.14-9-1.55-14.11C39.49,50.13,38.56,41.61,34,41.61s-5.28,8-6.39,22.13c-.4,5.13-.82,10.43-1.53,14.29-.93,5-2,5.36-2,5.36s-1-.31-2-5.31C21.4,74.23,21,69,20.57,63.86c-1.13-14.21-2-22.25-6.49-22.25S8.65,50.07,7.52,63.88A1.52,1.52,0,0,0,8.9,65.5a1.5,1.5,0,0,0,1.61-1.38c.42-5.08.84-10.33,1.58-14.2.94-5,2-5.31,2-5.31s1,.31,2,5.3c.71,3.83,1.13,9.1,1.54,14.19,1.1,13.82,2,22.29,6.51,22.29S29.5,77.87,30.59,64c.52-6.57,1.48-18.79,3.4-19.37,0,0,1.08.23,2.06,5.37.73,3.87,1.16,9.17,1.58,14.29,1.15,14.13,2,22.12,6.5,22.12s5.42-8.49,6.54-22.33c.41-5.08.83-10.34,1.55-14.16C53.15,44.92,54.16,44.61,54.17,44.61Z"/><path d="M119.74,63.89l-1.5-.06c-.41,5.11-.84,10.39-1.56,14.24-.94,5-2,5.32-2,5.32s-1-.31-2-5.25c-.72-3.81-1.14-9-1.56-14.11-1.13-13.9-2.05-22.42-6.62-22.42s-5.28,8-6.39,22.13c-.41,5.12-.82,10.43-1.54,14.29-.93,5-2,5.36-2,5.36s-1-.31-2-5.31C92,74.23,91.54,69,91.14,63.86c-1.14-14.21-2-22.25-6.5-22.25S79.21,50.12,78.08,64c-.54,6.6-1.54,18.89-3.48,19.39h0a1.5,1.5,0,0,0,0,3c4.45,0,5.32-8,6.47-22.14.41-5.12.84-10.42,1.57-14.29,1-5,2-5.35,2-5.35s1,.31,2,5.3c.72,3.83,1.14,9.1,1.54,14.19,1.11,13.82,2,22.29,6.51,22.29s5.42-8.52,6.51-22.42c.51-6.56,1.47-18.78,3.4-19.36,0,0,1.08.23,2,5.37.73,3.87,1.17,9.17,1.58,14.29,1.15,14.13,2,22.12,6.51,22.12s5.42-8.48,6.54-22.38Z"/><path d="M64.25.46A1.5,1.5,0,0,0,62.75,2V126c0,.06,0,.12,0,.18a1.5,1.5,0,0,0,3-.18h0V2A1.5,1.5,0,0,0,64.25.46Z"/></svg>