<?xml version="1.0" encoding="UTF-8" standalone="no"?>
<!-- Generator: Adobe Illustrator 16.0.0, SVG Export Plug-In . SVG Version: 6.00 Build 0)  -->
<!DOCTYPE svg  PUBLIC '-//W3C//DTD SVG 1.1//EN'  'http://www.w3.org/Graphics/SVG/1.1/DTD/svg11.dtd'>
<svg id="Layer_1" xmlns="http://www.w3.org/2000/svg" xml:space="preserve" viewBox="0 0 179.333 204.667" version="1.1" y="0px" x="0px" xmlns:xlink="http://www.w3.org/1999/xlink" enable-background="new 0 0 179.333 204.667">
<g clip-rule="evenodd" fill-rule="evenodd">
	<polyline points="88.65 201.71 83.667 199.78 77.896 196.12 72.498 192.08 63.867 184.24 55.46 175.86 38.961 155.44 27.161 136.81 18.777 118.49 15.564 109.55 12.877 100.16 8.838 80.913 6.976 64.144 6.356 41.475 7.288 24.706 8.217 12.285 9.497 4.024 170.7 4.024 172.81 16.942 174.36 36.197 174.56 58.552 172.31 82.466 167.52 105.13 164.02 114.99 160.07 124.7 150.89 141.98 139.26 158.54 125.6 174.39 113.8 186.49 100.76 196.75 92.993 201.09 88.65 201.71" fill="#fff"/>
	<polyline points="70.627 93.615 68.708 84.297 70.037 75.718 73.442 70.098 79.06 65.367 85.716 62.999 93.558 62.999 100.5 65.067 108.05 69.949 113.97 78.675 115.3 88.735 112.93 96.866 104.06 104.56 93.703 106.78 82.755 105.3 73.29 98.646 70.627 93.615" fill="#F48120"/>
	<path fill="#006D3E" d="m24.334 91.869c-3.526-15.356-3.924-28.41-3.924-41.298 0-16.203 1.324-28.446 1.9-32.201h67.224l0.066 19.082-3.74-6.924-5.343 0.726-4.1 16.019-4.869 1.968 2.351-12.221-1.84-4.442-3.544 1.283-1.114-2.95-7.135 2.65 1.069 3.374-2.65 1.026 2.351 6.112 5.214-2.01-2.21 11.756 1.944 4.792 12.621-5.03 3.326-0.448 1.281-5.346 4.014-0.428 2.428 4.65 0.034 9.681c-12.027 0.202-22.795 8.663-22.268 22.3 0.091 2.667 0.577 5.355 1.454 7.931l-44.54-0.052m136.05-76.649h-141.15s-8.123 51.205 7.02 94.735c14.346 41.232 54.479 80.362 63.556 81.471 9.679-1.108 50.362-40.156 64.648-79.521 16.22-44.681 5.93-96.69 5.93-96.69zm-69.255 108.37c-0.37 0.079-0.729 0.147-1.08 0.174-0.006 0-0.009 0.003-0.016 0.003v-0.268c0.361 0.03 0.723 0.06 1.096 0.1zm33.665-9.11c-0.268-1.196-1.202-2.657-2.234-2.926-2.663-0.694-5.746 0.035-9.01 0.808l-4.961 1c-6.877 1.239-12.892 1.57-18.456 1.299h-0.065v-0.006h-0.032c0-1.818-0.148-3.715-0.148-5.373 11.927 1.695 23.67-4.975 25.971-16.911h40.884c-1.321 6.162-3.029 12.357-5.245 18.453-13.93 38.402-54.104 76.667-61.417 76.667-0.024 0-0.034-17.155-0.037-36.896 0.037-0.003 0.069-0.003 0.104-0.003 3.008-0.12 6.12-0.25 9.414-0.123 0.591 0.202 1.278 0.262 1.947 0.296 1.714 0.095 2.254 0.259 2.275 1.086 0.01 0.296 0.243 0.549 0.54 0.581 1.057 0.107 2.427-0.218 3.004-1.038 0.735-0.717 1.486-2.011 1.486-3.582 0-0.104-0.003-0.208-0.009-0.313 0.123-0.458 0.198-0.963 0.198-1.496v-1.025c0-1.307-0.631-2.509-1.877-3.582l-0.319-0.274-0.126 0.11s-0.395 0.167-0.515 0.218c-0.072-0.006-0.148-0.01-0.148-0.01-2.104-0.17-4.141-0.183-6.186-0.107 1.092-0.183 2.55-0.426 2.598-0.432 1.136-0.009 2.465-0.265 3.516-0.492 2.281-0.038 4.639-1.18 5.889-2.897 0.061-0.079 0.098-0.174 0.114-0.271 0.053-0.366 0.119-0.94 0.119-1.594 0-0.152-0.003-0.303-0.013-0.455l0.061-0.085 0.019-0.165c0.057-0.382 0.126-0.988 0.126-1.666 0-1.035-0.154-2.234-0.726-3.067l-0.139-0.193-0.228-0.072c-3.336-1.029-6.901-1.158-10.348-1.285-1.572-0.051-3.084-0.133-4.558-0.284 0.578-0.521 1.181-0.962 1.824-1.206 0.233-0.088 0.392-0.315 0.392-0.565 0-0.035-0.007-0.069-0.01-0.104-0.057-0.291-0.303-0.496-0.597-0.496h-1.335c-0.107-0.038-0.214-0.072-0.318-0.104 0.638-0.628 1.304-1.174 2.014-1.452l1.089-0.425c3.118 0.085 6.109 0.049 8.395-0.196-0.007 0.003 0.713-0.062 0.713-0.062 5.422-0.486 11.569-1.038 15.679-4.083 0.521-0.412 0.694-1.094 0.512-1.939-0.082-0.35-0.228-0.726-0.41-1.089 0.021-0.017 0.047-0.038 0.065-0.053 0.56-0.47 0.73-1.22 0.53-2.14zm-67.695-60.84c-0.512 0.192-3.254 3.378-3.254 3.378s-1.449 1.527-1.884 2.048c1.218 4.783-3.808 6.445-6.514 4.426-2.852-2.127-3.303-8.136 3.153-7.981 2.041-2.323 3.972-4.185 4.834-5.341-15.562-6.574-19.786 10.987-15.078 15.272-0.841-0.375-2.144-1.261-4.437-1.179-2.29 0.084-5.255 1.978-8.458 9.703 0.552 0.331 18.056 9.941 18.921 10.328 6.615-10.627 4.425-11.648 3.867-12.954 4.015 0.296 14.748-5.456 8.85-17.7zm20.87 93.85c-1.178-0.575-1.613-1.954-2.064-3.427 0 0-0.034-0.117-0.063-0.221 0.032-2.203 1.708-2.964 4.261-3.86l1.56-0.587c2.606-0.88 5.513-1.625 8.404-2.338 0.009 0 0.016-0.003 0.024-0.003 0.004-0.003 0.007-0.003 0.01-0.003 0 0 0.006-0.003 0.01-0.003 0.003 0 0.003-0.003 0.006-0.003 0.01 0 0.013-0.003 0.02-0.006h0.006c2.373-0.587 4.74-1.187 7.11-1.78l-0.663-0.827-0.477-0.609c-1.984-0.189-3.979-0.287-5.971-0.246-0.025 0-0.047 0.003-0.075 0.003-4.757 0.091-9.383 0.887-13.46 2.338-0.647-0.404-1.137-0.934-1.622-1.515 0 0-0.483-0.534-0.752-0.821 0-0.013 0.004-0.019 0.004-0.022 0-0.985-0.433-1.855-0.821-2.635-0.378-0.767-0.646-1.354-0.646-1.903 0-0.284 0.133-0.568 0.29-0.858 2.56-0.865 5.365-1.206 8.348-1.546 2.806-0.319 5.709-0.65 8.426-1.48 0.076 0 0.152-0.016 0.218-0.031v0.006c0.824-0.047 1.642-0.24 2.431-0.458 1.199-0.32 2.332-0.569 3.386-0.292-0.543 0.468-1.048 1.001-1.546 1.528-0.72 0.754-1.396 1.467-2.096 1.897l-0.331 0.205v1.139l0.539 0.12c2.695 0.577 5.564 0.682 8.338 0.783 3.264 0.12 6.625 0.268 9.711 1.167 0.256 0.483 0.404 1.18 0.404 2.073 0 0.398-0.035 0.849-0.095 1.297-1.048 1.398-2.995 2.376-4.832 2.376-1.24 0.265-2.49 0.518-3.503 0.518-0.126 0.012-3.929 0.675-3.929 0.675-2.815 0.47-5.697 0.959-8.478 1.764-1.318 0.382-2.616 0.824-3.869 1.385-0.221 0.104-0.306 0.076-0.334 0.319l-0.098 0.88 0.675 0.641 0.13 0.069c0.104 0.054 0.277 0.129 0.397 0.126l3.099-0.136 4.725-0.205c3.774-0.246 7.338-0.48 11.064-0.183 0.048 0.035 0.139 0.088 0.139 0.088s0.25-0.082 0.499-0.167c0.732 0.72 1.155 1.445 1.155 2.25v1.038c0 1.297-0.6 2.348-1.165 2.888-0.252 0.354-0.846 0.593-1.492 0.625-0.464-1.474-2.099-1.66-3.282-1.733-0.635-0.035-1.288-0.076-1.714-0.258l-0.113-0.047-0.13-0.003c-3.352-0.136-6.494 0-9.537 0.126h-0.003-0.003-0.003-0.004-0.003-0.006-0.004-0.003-0.003-0.007-0.013-0.003-0.003-0.003-0.003s0 0-0.004 0h-0.003s0 0.003-0.003 0.003h-0.01s0 0-0.003 0h-0.003-0.004-0.006-0.003-0.003-0.004-0.009-0.004-0.003-0.009-0.01-0.003-0.004c-4.038 0.16-7.873 0.3-12.079-0.14zm-17.926-37.41c1.392 0.371 2.806 0.753 2.806 0.753 9.139 2.476 17.493 4.73 27.2 5.206 5.655 0.274 11.759-0.06 18.753-1.316h0.019-0.01-0.003 0.003c0.184-0.037 5.053-1.018 5.053-1.018 3.093-0.738 6.013-1.425 8.351-0.82 0.344 0.088 1.032 0.977 1.247 1.9 0.088 0.417 0.038 0.688-0.044 0.756-3.794 2.944-9.746 3.501-14.994 3.99l-0.726 0.071c-0.073 0.005-0.148 0.011-0.222 0.017-0.072 0.011-0.145 0.018-0.224 0.024-0.072 0.006-0.148 0.018-0.228 0.024-0.075 0.003-0.151 0.009-0.227 0.019h-0.004c-0.075 0.003-0.154 0.01-0.233 0.016-0.075 0.006-0.157 0.012-0.236 0.021-0.082 0.006-0.158 0.006-0.236 0.012h-0.01c-0.079 0.006-0.158 0.01-0.24 0.018-0.082 0.003-0.167 0.009-0.249 0.013-0.085 0.003-0.167 0.006-0.249 0.013-0.086 0.005-0.171 0.006-0.256 0.009h-0.003c-0.086 0.003-0.171 0.006-0.253 0.013-0.085 0.003-0.174 0.003-0.259 0.003-0.088 0.008-0.177 0.011-0.265 0.011-0.086 0.003-0.177 0.006-0.266 0.006h-0.003c-0.085 0-0.177 0.006-0.262 0.006h-0.003c-14.533 0.34-32.635-2.1-43.731-9.74zm107.4-102.09c0.843 4.848 3.19 20.153 3.19 40.003 0 19.456-2.266 43.245-10.424 65.751-16.322 44.99-63.021 83.54-70.566 83.54-7.813 0-52.725-38.512-69.139-85.731-7.969-22.921-10.1-47.337-10.1-66.869 0-18.116 1.83-32.032 2.531-36.694 3.385 0.002 151.18 0.002 154.5 0.002z"/>
	<path fill="#231F20" d="m135.6 50.264c0.174 0.16 1.316 1.19 1.316 1.19 1.177 1.052 1.871 2.028 2.067 2.894 0.034 0.17 0.054 0.347 0.054 0.518 0 0.67-0.291 1.332-0.884 1.999-0.751 0.817-1.629 1.168-2.613 1.04-1.025-0.164-2.184-0.839-3.449-2.004 0 0-0.723-0.622-0.884-0.767 0.17-0.199 4.21-4.677 4.38-4.87m-0.11-0.288l-4.677 5.177 1.098 0.953c1.298 1.196 2.51 1.896 3.595 2.073 1.079 0.139 2.036-0.241 2.859-1.128 0.802-0.909 1.089-1.813 0.89-2.756-0.208-0.929-0.931-1.954-2.152-3.042l-1.521-1.377-0.09 0.1z"/>
	<path fill="#231F20" d="m128.35 42.414c0.202 0.126 1.748 1.112 1.944 1.234-0.139 0.227-9.102 14.538-9.247 14.765-0.192-0.121-1.742-1.082-1.938-1.206 0.15-0.228 9.11-14.566 9.25-14.793m-0.16-0.264l-9.465 15.142 2.408 1.499 9.54-15.226-2.411-1.534-0.07 0.119zm17.74 31.716l-0.02-0.238c-0.287-1.463-0.157-2.69 0.376-3.655 0.202-0.399 0.461-0.752 0.836-1.125 0.344-0.311 0.723-0.566 1.184-0.795 1.376-0.625 2.622-0.732 3.818-0.327 1.196 0.421 2.077 1.256 2.689 2.536 0.315 0.716 0.477 1.393 0.477 2.043 0 0.472-0.086 0.929-0.253 1.375-0.375 1.033-1.174 1.884-2.352 2.551-0.11-0.235-0.833-1.766-0.908-1.936 0.597-0.347 1.016-0.806 1.218-1.381 0.082-0.254 0.126-0.518 0.126-0.782 0-0.346-0.078-0.706-0.239-1.063-0.319-0.675-0.812-1.123-1.465-1.328-0.662-0.21-1.354-0.141-2.076 0.202-0.3 0.128-0.523 0.283-0.679 0.469-0.139 0.145-0.338 0.36-0.448 0.664-0.23 0.467-0.249 1.324-0.044 2.545 0 0.003 0.205 1.236 0.205 1.236 0.098 1.243-0.107 2.261-0.615 3.121-0.482 0.906-1.228 1.573-2.278 2.051-1.496 0.704-2.92 0.841-4.248 0.421-1.301-0.41-2.307-1.34-2.982-2.762-0.341-0.754-0.515-1.483-0.515-2.203 0-0.566 0.107-1.124 0.325-1.679 0.505-1.225 1.43-2.148 2.8-2.82 0.106 0.224 0.77 1.669 0.852 1.838-0.748 0.415-1.3 0.955-1.604 1.64-0.129 0.342-0.201 0.687-0.201 1.029 0 0.42 0.104 0.829 0.306 1.225 0.372 0.817 0.953 1.371 1.727 1.655 0.772 0.245 1.562 0.167 2.411-0.238 0.782-0.355 1.274-0.81 1.518-1.39 0.24-0.563 0.269-1.526 0.073-2.779-0.02 0.024-0.04-0.1-0.04-0.1zm2.26-6.064c-0.482 0.241-0.893 0.522-1.253 0.849-0.397 0.396-0.682 0.773-0.887 1.191-0.568 1.021-0.703 2.307-0.407 3.815 0-0.03 0.02 0.245 0.02 0.245l0.013 0.088c0.239 1.537 0.101 2.287-0.058 2.646-0.218 0.516-0.662 0.923-1.379 1.25-0.782 0.375-1.505 0.448-2.209 0.223-0.691-0.248-1.225-0.759-1.565-1.505-0.328-0.656-0.362-1.341-0.095-2.034 0.3-0.661 0.814-1.177 1.581-1.573l0.117-0.064-1.073-2.321-0.116 0.059c-1.496 0.699-2.531 1.72-3.074 3.041-0.505 1.327-0.442 2.665 0.202 4.095 0.713 1.493 1.771 2.473 3.149 2.908 1.392 0.443 2.885 0.295 4.449-0.436 1.102-0.502 1.888-1.213 2.398-2.168 0.534-0.899 0.745-1.974 0.647-3.271 0-0.003-0.205-1.269-0.205-1.269-0.189-1.136-0.183-1.963 0.028-2.378 0.095-0.271 0.266-0.462 0.395-0.596 0.142-0.164 0.322-0.286 0.587-0.398 0.66-0.313 1.294-0.38 1.884-0.191 0.571 0.18 1.014 0.575 1.301 1.177 0.246 0.557 0.281 1.109 0.095 1.643-0.187 0.546-0.581 0.991-1.187 1.305l-0.114 0.066 1.133 2.424 0.127-0.07c1.315-0.708 2.19-1.641 2.604-2.774 0.433-1.131 0.354-2.315-0.237-3.627-0.631-1.345-1.594-2.241-2.846-2.683-1.23-0.431-2.55-0.322-4 0.333zm-1.02-8.88c0.143 0.187 1.24 1.64 1.379 1.829-0.214 0.163-13.699 10.348-13.911 10.507-0.145-0.183-1.25-1.669-1.385-1.855 0.2-0.159 13.7-10.318 13.91-10.481zm-0.06-0.297l-14.249 10.727 1.714 2.294 14.359-10.842-1.717-2.264-0.1 0.085zm-11.84-11.889c0.192 0.172 3.721 3.334 3.721 3.334 1.527 1.368 2.396 2.801 2.595 4.265 0.016 0.17 0.024 0.344 0.024 0.511 0 1.266-0.526 2.466-1.605 3.664-0.919 1.046-2.023 1.603-3.374 1.701-1.291 0.095-2.524-0.319-3.654-1.222l-0.205-0.159s-0.739 7.902-0.783 8.414c-0.341-0.298-2.063-1.859-2.155-1.942 0.022-0.137 1.164-10.407 1.164-10.407s-5.52 6.147-5.696 6.347c-0.173-0.158-1.502-1.375-1.676-1.532 0.19-0.199 11.48-12.777 11.65-12.974zm-0.11-0.287l-11.923 13.285 2.08 1.894s4.797-5.338 5.308-5.911c-0.079 0.778-1.079 9.696-1.079 9.696l2.663 2.405s0.755-8.038 0.792-8.477c1.134 0.844 2.364 1.237 3.658 1.146 1.42-0.104 2.581-0.691 3.554-1.793 1.278-1.417 1.821-2.853 1.644-4.393-0.201-1.531-1.104-3.027-2.682-4.434l-3.923-3.521-0.09 0.103zm-25.42 6.949c-1.177-0.445-2.226-1.126-3.115-2.013-0.805-0.808-1.474-1.865-1.979-3.148-0.397-1.056-0.581-2.137-0.553-3.21 0-1.128 0.225-2.231 0.682-3.38 0.417-1.112 1.052-2.115 1.888-2.986 0.751-0.812 1.714-1.481 2.954-2.046 1.136-0.502 2.228-0.745 3.336-0.745 1.101-0.032 2.243 0.181 3.478 0.65 1.65 0.646 2.96 1.597 3.897 2.821 0.89 1.2 1.398 2.6 1.524 4.156-0.36-0.136-2.604-0.981-2.695-1.02-0.271-0.909-0.726-1.696-1.357-2.329-0.634-0.668-1.4-1.172-2.354-1.547-0.824-0.305-1.626-0.435-2.465-0.403-0.809 0-1.626 0.192-2.427 0.572-0.812 0.371-1.512 0.878-2.144 1.546-0.608 0.604-1.104 1.376-1.414 2.22-0.331 0.855-0.508 1.775-0.508 2.653-0.031 0.88 0.13 1.731 0.477 2.526 0.313 0.792 0.796 1.505 1.477 2.184 0.622 0.623 1.339 1.092 2.124 1.382 1.294 0.514 2.576 0.606 3.81 0.268 1.222-0.297 2.383-0.979 3.554-2.077l0.158-0.151s-7.313-2.831-7.559-2.926c0.082-0.216 0.71-1.836 0.789-2.05 0.246 0.095 9.701 3.711 9.979 3.817-1.107 2.433-2.714 4.159-4.81 5.106-2.14 1.006-4.35 1.052-6.75 0.13zm3.21-17.803c-1.139 0-2.271 0.251-3.446 0.77-1.274 0.582-2.266 1.271-3.039 2.106-0.864 0.895-1.518 1.933-1.943 3.079-0.468 1.179-0.697 2.315-0.697 3.473-0.035 1.104 0.154 2.22 0.567 3.311 0.518 1.322 1.209 2.408 2.042 3.249 0.918 0.914 1.998 1.611 3.206 2.073 2.443 0.933 4.784 0.89 6.969-0.137 2.187-0.994 3.875-2.803 5.009-5.373l0.06-0.134-10.513-4.022-0.984 2.563s6.987 2.711 7.385 2.867c-1.073 0.975-2.14 1.594-3.254 1.865-1.18 0.32-2.404 0.229-3.642-0.259-0.758-0.284-1.439-0.726-2.029-1.319-0.653-0.653-1.12-1.338-1.423-2.095-0.329-0.766-0.48-1.575-0.448-2.416 0-0.854 0.167-1.734 0.482-2.56 0.303-0.811 0.773-1.545 1.354-2.125 0.616-0.647 1.288-1.134 2.067-1.49 0.764-0.365 1.543-0.548 2.319-0.548 0.809-0.031 1.578 0.095 2.354 0.387 0.909 0.359 1.647 0.844 2.257 1.483 0.618 0.62 1.066 1.387 1.315 2.284l0.025 0.064 3.223 1.221-0.01-0.21c-0.098-1.703-0.644-3.225-1.609-4.525-0.966-1.267-2.319-2.247-4.015-2.913-1.28-0.485-2.46-0.703-3.59-0.669zm-16.35-3.138c0.228 0.028 2.033 0.264 2.26 0.294-0.031 0.266-1.846 15.158-1.846 15.158s5.476 0.666 5.734 0.693c-0.025 0.232-0.23 1.937-0.259 2.168-0.266-0.033-7.771-0.959-8.035-0.99 0.034-0.265 2.108-17.055 2.145-17.323zm-0.262-0.171l-2.19 17.735 8.578 1.057 0.328-2.714s-5.476-0.659-5.73-0.691c0.028-0.269 1.843-15.161 1.843-15.161l-2.809-0.363-0.026 0.137zm-33.396 2.472c0.228-0.086 3.103-1.168 3.332-1.254 0.076 0.197 0.424 1.126 0.499 1.324-0.23 0.086-3.108 1.167-3.336 1.254-0.072-0.202-0.422-1.126-0.495-1.324zm3.495-1.609l-0.13 0.046-3.721 1.4 0.691 1.838 3.85-1.447-0.69-1.837zm-0.039 20.265c0.016-0.076 2.704-14.869 2.704-14.869s-6.611 2.549-6.854 2.643c-0.088-0.21-0.735-1.831-0.82-2.051 0.249-0.097 9.051-3.466 9.3-3.558 0.082 0.221 0.701 1.847 0.727 1.912-0.016 0.075-2.841 15.229-2.841 15.229s7.471-2.845 7.713-2.938c0.086 0.211 0.71 1.801 0.789 2.017-0.243 0.098-9.645 3.696-9.891 3.791-0.085-0.226-0.802-2.111-0.827-2.176zm10.086-3.986s-7.075 2.696-7.508 2.859c0.085-0.467 2.761-14.822 2.761-14.822l-0.852-2.241-0.129 0.05-9.689 3.706 1.029 2.561s6.224-2.401 6.649-2.563c-0.082 0.464-2.632 14.46-2.632 14.46l0.953 2.506 10.411-3.987-0.993-2.529zm7.449-12.782c0.297 0.572 2.875 5.578 3.039 5.896-0.348 0.041-4.268 0.528-4.617 0.572 0.084-0.345 1.432-5.842 1.578-6.468zm-0.177-0.421l-1.768 7.213 5.406-0.675-3.551-6.893-0.087 0.355zm0.884-3.278c0.085 0.162 8.697 16.14 8.887 16.481-0.332 0.044-2.348 0.304-2.513 0.325-0.082-0.167-2.53-4.876-2.53-4.876l-7.016 0.846s-1.301 5.195-1.345 5.372c-0.167 0.019-2.083 0.252-2.411 0.293 0.098-0.378 4.592-17.961 4.64-18.138 0.164-0.021 2.117-0.281 2.288-0.303zm0.056-0.285l-2.566 0.341-4.784 18.704 2.992-0.363s1.307-5.193 1.354-5.37c0.177-0.022 6.454-0.78 6.634-0.802 0.082 0.163 2.537 4.877 2.537 4.877l3.093-0.401-9.168-16.998-0.092 0.012zm58.064 43.401c-0.957 0.139-1.304-1.301 0.41-1.92 0.164 0.311 0.221 0.59 0.246 0.82 0.09 0.67-0.3 1.046-0.66 1.1zm-8.62-10.25c-0.013-0.09 0.145-2.127 0.388-3.681 1.768 0.834 3.418 0.467 4.756-0.251-2.4 1.832-5.15 3.932-5.15 3.932zm-0.19-11.08l1.556-1.843s2.089 1.341 1.069 2.643c-1.14 1.45-3.02-1.122-2.63-0.8zm-23.87-13.138l-1.584 4.445c0.007-0.022-0.038-0.549 0.048-1.283 0.145-1.221 0.653-3.011 2.389-3.972 1.303-0.721 5.687-1.306 6.52 3.697l-7.38-2.887zm45.28 28.417c-0.679-1.42-1.694-2.375-3.032-2.845-1.348-0.462-2.743-0.349-4.268 0.339-0.523 0.262-0.952 0.557-1.334 0.906-0.437 0.428-0.735 0.835-0.957 1.286-0.397 0.713-0.597 1.548-0.597 2.49 0 0.461 0.058 0.952 0.155 1.466 0 0.038 0.019 0.293 0.019 0.293l0.007 0.066 0.009 0.047c0.092 0.581 0.123 1.038 0.123 1.395 0 0.576-0.088 0.889-0.157 1.053-0.18 0.443-0.581 0.795-1.222 1.085-0.71 0.341-1.354 0.414-1.981 0.213-0.591-0.218-1.058-0.672-1.363-1.333-0.297-0.6-0.329-1.179-0.086-1.794 0.25-0.568 0.729-1.043 1.424-1.402l0.392-0.204-1.332-2.888-0.42 0.194c-1.565 0.73-2.654 1.809-3.229 3.2-0.54 1.408-0.467 2.867 0.202 4.355 0.757 1.583 1.884 2.621 3.349 3.082 1.471 0.468 3.045 0.319 4.68-0.451 1.168-0.525 2.008-1.283 2.55-2.304 0.563-0.946 0.786-2.083 0.676-3.451 0-0.013-0.195-1.302-0.195-1.302-0.253-1.427-0.111-1.976-0.01-2.179 0.092-0.245 0.228-0.393 0.344-0.51 0.117-0.137 0.266-0.24 0.477-0.332 0.609-0.287 1.146-0.339 1.666-0.183 0.493 0.16 0.855 0.489 1.105 1.015 0.208 0.475 0.239 0.947 0.075 1.398-0.154 0.477-0.498 0.854-1.032 1.132l-0.388 0.202 1.417 3.006 0.426-0.224c1.383-0.747 2.313-1.741 2.752-2.948 0.46-1.207 0.38-2.476-0.24-3.873zm-8.08-11.921l-0.366 0.275-14.499 10.917 2.103 2.813 14.867-11.23-2.1-2.775zm-11.7-0.54c-0.95-0.155-2.055-0.798-3.272-1.919 0 0-0.354-0.309-0.645-0.565 0.496-0.559 3.463-3.84 3.961-4.387 0.395 0.358 1.073 0.976 1.073 0.976 1.133 1.005 1.789 1.928 1.969 2.729 0.029 0.15 0.051 0.3 0.051 0.451 0 0.59-0.262 1.171-0.802 1.779-0.67 0.747-1.44 1.05-2.33 0.936zm3.81-7.924l-4.159-3.733-0.31 0.339-12.131 13.525 2.556 2.328s3.551-3.961 4.854-5.411c-0.23 2.092-0.991 8.867-0.991 8.867l3.26 2.944s0.682-7.3 0.805-8.571c1.07 0.667 2.206 0.981 3.402 0.893 1.496-0.11 2.762-0.748 3.771-1.901 1.328-1.461 1.909-3.025 1.729-4.638-0.22-1.622-1.15-3.181-2.79-4.642zm-11.22-8.04l-0.243 0.393-9.639 15.414 2.951 1.836 9.878-15.765-2.95-1.878zm-18.41 5.149s6.018 2.333 7.191 2.786c-0.899 0.739-1.795 1.222-2.72 1.447-1.124 0.304-2.282 0.223-3.449-0.241-0.717-0.269-1.354-0.688-1.919-1.25-0.622-0.62-1.063-1.272-1.352-1.987-0.318-0.728-0.457-1.491-0.432-2.288 0-0.822 0.164-1.666 0.464-2.452 0.29-0.771 0.732-1.467 1.281-2.017 0.593-0.622 1.237-1.082 1.979-1.426 0.726-0.345 1.455-0.516 2.184-0.516 0.771-0.03 1.506 0.089 2.244 0.365 0.861 0.337 1.56 0.797 2.137 1.403 0.581 0.588 1.004 1.31 1.24 2.15l0.066 0.221 3.837 1.45-0.041-0.704c-0.106-1.762-0.669-3.344-1.669-4.694-1.007-1.316-2.404-2.332-4.156-3.019-1.316-0.499-2.531-0.724-3.708-0.69-1.178 0-2.349 0.261-3.566 0.795-1.31 0.603-2.345 1.315-3.149 2.187-0.884 0.919-1.563 1.992-2.001 3.182-0.486 1.206-0.72 2.383-0.72 3.584-0.041 1.134 0.161 2.293 0.584 3.424 0.54 1.365 1.253 2.493 2.117 3.361 0.953 0.948 2.067 1.671 3.32 2.149 2.524 0.966 4.952 0.916 7.221-0.148 2.257-1.029 3.999-2.891 5.163-5.536l0.195-0.44-11.124-4.257-1.2 3.161zm-43.141-14.003l-4.447 1.646 0.953 2.507 4.415-1.684-0.921-2.469zm10.048 16.282s-6.04 2.299-7.274 2.769c0.269-1.434 2.674-14.349 2.674-14.349l-0.998-2.625-0.426 0.165-9.991 3.822 1.262 3.157s5.217-2.007 6.42-2.47c-0.263 1.435-2.547 13.989-2.547 13.989l1.102 2.886 11.001-4.218-0.063-0.166 2.771-0.341s1.215-4.829 1.354-5.368c0.54-0.068 5.649-0.682 6.195-0.75 0.256 0.5 2.534 4.881 2.534 4.881l3.149-0.407-0.041 0.309 9.215 1.136 0.407-3.348s-4.961-0.603-5.73-0.694c0.104-0.855 1.843-15.155 1.843-15.155l-3.443-0.449-0.06 0.458-2.067 16.725-8.988-16.671-0.315 0.042-2.777 0.37-4.579 17.903-0.627-1.601zm6.107-6.276c0.211-0.863 0.908-3.724 1.269-5.184 0.685 1.336 2.029 3.94 2.43 4.723-0.833 0.104-2.853 0.357-3.699 0.461zm65.026 23.04c-3.941 1.704-4.32 5.382-4.32 5.382l-1.209-2.676 9.322-7.295-4.169-5.679s-3.004 2.381-4.769 3.771c-0.151 0.122-0.552 0.428-1.098 0.851 0.543-0.549 0.871-0.997 0.915-1.061 1.458-2.225 1.903-5.92-0.174-8.313-2.594-3.388-7.344-7.417-7.344-7.417l-6.027 6.861 4.604-7.405-6.375-3.886-3.049 4.926c0.092-6.421-5.662-10.81-12.491-10.189-2.319 0.211-9.65 2.472-9.745 12.474l0.047 0.129-2.437-0.341 1.84-15.123-6.709-0.812-1.608 13.714-7.133-13.201-5.343 0.727-4.1 16.024-4.869 1.963 2.351-12.22-1.84-4.442-3.544 1.282-1.114-2.949-7.135 2.648 1.069 3.376-2.65 1.025 2.351 6.109 5.214-2.007-2.21 11.755 1.944 4.797 12.621-5.032 3.326-0.456 1.281-5.337 4.014-0.429 2.522 4.829 3.376-0.472 11.358 1.453 0.095-0.678c2.316 2.49 6.053 4.806 11.146 3.456-0.297-0.054 0.553-0.079 1.761-0.645l-1.59 2.633 5.497 3.487 0.187-0.421 3.677 3.412 2.732-3.109-0.723 4.853 2.882 2.802 3.828 5.422 2.146-1.518c-0.943 2.375-1.177 6.219 2.859 8.982 3.2 2.2 10.91 1.12 11.273-5.236l1.303 2.509c0.086 0.04 5.031-1.68 5.688-5.647 0.93-5.742-4.77-9.681-9.46-7.656zm-111.75 7.848s-0.245 0.445-0.333 0.604c-0.217-0.11-3.95-2.086-4.175-2.211 0.108-0.196 0.596-1.093 0.596-1.093 0.479-0.896 1.015-1.504 1.552-1.756 0.555-0.25 1.161-0.183 1.853 0.194 0.789 0.412 1.222 0.94 1.281 1.572 0.013 0.091 0.019 0.18 0.019 0.283-0.001 0.628-0.269 1.44-0.793 2.407zm1.045-2.718c-0.069-0.726-0.547-1.332-1.424-1.787-0.758-0.412-1.465-0.479-2.095-0.202-0.594 0.279-1.173 0.928-1.68 1.875l-0.729 1.34 4.66 2.469 0.458-0.846c0.642-1.172 0.911-2.136 0.81-2.849zm6.501 5.395s-0.781 1.445-0.895 1.655c-0.222-0.115-4.636-2.458-4.864-2.575 0.114-0.21 0.892-1.659 0.892-1.659 0.502-0.974 1.107-1.593 1.804-1.848 0.714-0.276 1.476-0.185 2.323 0.291 0.784 0.405 1.226 0.926 1.351 1.584 0.021 0.124 0.036 0.259 0.036 0.392-0.001 0.586-0.214 1.286-0.647 2.16zm0.879-2.602c-0.141-0.739-0.64-1.336-1.488-1.778-0.923-0.515-1.757-0.609-2.55-0.302-0.763 0.275-1.419 0.942-1.952 1.976l-1.021 1.9 5.351 2.828 1.022-1.896c0.566-1.138 0.768-2.006 0.638-2.728zm12.22-11.93c-0.287 1.5-1.029 2.941-2.206 4.286-0.853 0.942-1.853 1.672-2.989 2.171-1.073 0.475-2.307 0.713-3.665 0.713-1.121 0-2.207-0.205-3.214-0.615-1.051-0.428-2.024-1.051-2.889-1.851-0.925-0.825-1.636-1.772-2.109-2.828-0.504-1.027-0.777-2.178-0.845-3.505-0.065-1.172 0.096-2.304 0.484-3.374 0.362-1.054 0.949-2.021 1.75-2.889 1.221-1.354 2.599-2.25 4.087-2.662 1.463-0.426 2.941-0.39 4.52 0.077-0.259 0.286-1.765 1.938-1.841 2.023-0.934-0.085-1.863 0.046-2.698 0.378-0.888 0.373-1.694 0.953-2.389 1.714-0.549 0.612-0.968 1.316-1.282 2.154-0.267 0.769-0.371 1.618-0.303 2.463 0.031 0.875 0.253 1.713 0.674 2.558 0.42 0.876 0.938 1.567 1.582 2.118 0.705 0.634 1.448 1.109 2.276 1.439 0.794 0.319 1.621 0.47 2.526 0.47 0.908-0.033 1.748-0.229 2.563-0.603 0.811-0.376 1.523-0.889 2.054-1.483 0.676-0.75 1.165-1.584 1.445-2.49 0.158-0.502 0.233-1.018 0.233-1.534 0-0.357-0.05-0.715-0.123-1.065 0.073-0.082 1.667-1.84 1.938-2.146 0.362 1.005 0.562 1.99 0.562 2.971 0.001 0.502-0.043 1.005-0.141 1.51zm-0.23-4.801l-0.082-0.208-2.339 2.591 0.019 0.07c0.189 0.83 0.155 1.704-0.098 2.532-0.271 0.867-0.732 1.668-1.389 2.389-0.505 0.568-1.187 1.059-1.966 1.416-0.783 0.36-1.591 0.549-2.451 0.579-0.866 0-1.655-0.148-2.416-0.448-0.797-0.325-1.52-0.776-2.198-1.394-0.618-0.523-1.113-1.188-1.521-2.035-0.402-0.805-0.612-1.606-0.645-2.451-0.066-0.811 0.036-1.625 0.29-2.351 0.3-0.806 0.701-1.482 1.228-2.065 0.663-0.729 1.437-1.285 2.287-1.645 0.813-0.328 1.723-0.448 2.634-0.354l0.069 0.007 2.233-2.451-0.202-0.065c-1.716-0.549-3.317-0.593-4.894-0.136-1.537 0.429-2.955 1.353-4.215 2.746-0.824 0.89-1.433 1.894-1.806 2.979-0.398 1.101-0.569 2.269-0.501 3.478 0.067 1.368 0.354 2.55 0.867 3.612 0.491 1.08 1.226 2.061 2.176 2.908 0.89 0.825 1.89 1.463 2.975 1.908 1.037 0.426 2.154 0.631 3.313 0.631 1.396 0 2.671-0.241 3.779-0.734 1.167-0.516 2.202-1.265 3.076-2.239 1.212-1.381 1.979-2.867 2.272-4.417 0.309-1.612 0.145-3.203-0.495-4.853zm-9.917 18.208c-0.126 0.68-0.489 1.563-1.076 2.632 0 0-1.727 3.282-1.848 3.508-0.238-0.128-15.171-8.081-15.41-8.207 0.122-0.227 1.747-3.243 1.747-3.243 0.901-1.663 1.89-2.689 3.028-3.135 1.154-0.479 2.424-0.346 3.773 0.39 0.61 0.308 1.1 0.75 1.431 1.277 0.324 0.549 0.508 1.16 0.54 1.808l0.015 0.301 0.221-0.209c0.644-0.611 1.367-0.952 2.225-1.053 0.839-0.088 1.711 0.091 2.588 0.549 0.748 0.406 1.337 0.89 1.806 1.48 0.479 0.574 0.802 1.221 0.961 1.923 0.077 0.339 0.118 0.663 0.118 0.988s-0.042 0.653-0.119 0.991zm0.264-2.042c-0.17-0.743-0.509-1.427-1.016-2.034-0.484-0.614-1.1-1.124-1.884-1.548-0.93-0.484-1.856-0.677-2.752-0.576-0.834 0.091-1.548 0.435-2.19 0.988-0.061-0.604-0.23-1.181-0.541-1.711-0.361-0.576-0.891-1.051-1.54-1.374-1.425-0.78-2.771-0.912-4.002-0.396-1.198 0.461-2.237 1.531-3.17 3.256l-1.875 3.482 15.895 8.469 1.976-3.752c0.6-1.087 0.969-1.999 1.104-2.708 0.167-0.7 0.167-1.386-0.005-2.096zm-11.044 0.341s-0.093 0.159-0.178 0.327c-0.596-0.315-3.006-1.591-3.612-1.914 0.196-0.36 0.442-0.811 0.442-0.811 0.438-0.824 0.938-1.398 1.405-1.619 0.452-0.196 0.966-0.139 1.565 0.187 0.699 0.366 1.063 0.795 1.112 1.32 0.011 0.082 0.019 0.161 0.019 0.253 0 0.581-0.254 1.334-0.753 2.257zm2.507 1.775c0.257-0.485 0.733-1.377 0.733-1.377 0.469-0.9 1.018-1.473 1.635-1.693 0.632-0.246 1.285-0.164 2.058 0.265 0.698 0.363 1.084 0.806 1.191 1.363 0.016 0.109 0.029 0.219 0.029 0.336 0 0.53-0.2 1.182-0.618 2.009 0 0-0.475 0.892-0.733 1.368-0.621-0.327-3.667-1.94-4.295-2.271zm8.85-2.192c-0.178-0.791-0.544-1.518-1.084-2.165-0.497-0.628-1.161-1.18-1.974-1.622-0.992-0.515-1.979-0.723-2.941-0.62-0.717 0.085-1.354 0.325-1.935 0.711-0.104-0.445-0.249-0.871-0.487-1.273-0.394-0.633-0.972-1.146-1.674-1.498-1.498-0.822-2.94-0.963-4.267-0.407-1.266 0.487-2.357 1.603-3.325 3.399l-2.031 3.77 16.466 8.767 2.126-4.03c0.621-1.136 0.99-2.053 1.131-2.797 0.177-0.739 0.177-1.479-0.005-2.235zm9.64-16.21l-0.271-0.689-2.8 3.101 0.054 0.233c0.18 0.775 0.148 1.592-0.092 2.365-0.255 0.824-0.693 1.583-1.313 2.263-0.486 0.542-1.127 1.005-1.865 1.344-0.744 0.341-1.505 0.521-2.33 0.549-0.811 0-1.566-0.136-2.284-0.428-0.764-0.305-1.453-0.743-2.105-1.327-0.589-0.505-1.057-1.133-1.442-1.938-0.387-0.769-0.586-1.532-0.615-2.323-0.063-0.781 0.032-1.548 0.271-2.238 0.288-0.768 0.658-1.393 1.161-1.957 0.632-0.693 1.368-1.22 2.177-1.564 0.756-0.299 1.615-0.418 2.476-0.326l0.23 0.023 2.678-2.939-0.679-0.216c-1.777-0.569-3.438-0.613-5.08-0.134-1.594 0.438-3.063 1.398-4.364 2.833-0.854 0.923-1.485 1.963-1.871 3.091-0.412 1.136-0.592 2.35-0.521 3.603 0.075 1.411 0.369 2.632 0.906 3.732 0.505 1.116 1.264 2.133 2.247 3.012 0.909 0.841 1.941 1.502 3.064 1.958 1.078 0.437 2.234 0.664 3.437 0.664 1.443 0 2.76-0.262 3.908-0.767 1.206-0.532 2.278-1.316 3.188-2.323 1.25-1.427 2.039-2.963 2.352-4.565 0.313-1.68 0.142-3.325-0.517-5.037zm0.328-3.245c-0.512 0.186-3.254 3.38-3.254 3.38s-1.449 1.524-1.884 2.045c1.218 4.778-3.808 6.443-6.514 4.428-2.852-2.128-3.303-8.139 3.153-7.987 2.041-2.32 3.972-4.182 4.834-5.337-15.561-6.575-19.785 10.982-15.077 15.268-0.841-0.369-2.144-1.256-4.437-1.174-2.29 0.081-5.255 1.971-8.458 9.706 0.552 0.327 18.056 9.938 18.921 10.326 6.615-10.634 4.425-11.648 3.867-12.953 4.014 0.287 14.747-5.46 8.849-17.702zm20.176 34.936c1.113-2.425 2.812-4.651 4.352-6.586 1.83-2.29 3.37-4.26 3.305-5.8-0.098-0.817-1.439-1.18-3.305-1.079-1.281 0.064-2.815 0.36-4.352 0.883-2.882 1.046-5.757 3.009-6.808 5.996-0.262 0.622-0.392 1.345-0.392 2.162v0.066c0.032 4.685 4.185 11.535 7.199 14.086 0.16 0.134 0.293 0.23 0.423 0.363-0.13-0.298-0.294-0.555-0.423-0.821-1.669-3.373-1.247-6.486 0.001-9.27zm0-15.464c1.436-0.265 2.944-0.327 4.352-0.197 0.947 0.098 1.865 0.259 2.68 0.522-0.591-1.339-1.601-2.589-2.68-3.601-1.37-1.308-2.916-2.296-3.828-2.587-0.199 0.099-0.363 0.227-0.523 0.356-3.469 2.523-5.788 6.324-7.004 10.878 0.918-3.146 3.795-4.782 7.003-5.371zm19.136 6.777c-0.293-2.584-1.11-5.401-2.124-7.959-1.571-3.965-3.733-7.305-5.5-8.257-2.519 0.063-4.614 0.528-7.161 1.639-0.59 0.262-1.177 0.527-1.837 0.851 0.53 0.428 1.152 0.851 1.837 1.341 1.83 1.377 3.954 3.344 4.841 6.984 1.08 4.327-2.13 8.09-4.841 11.991-2.881 4.131-5.268 8.387-1.54 13.596 0.233 0.327 0.82 0.751 1.54 1.211 2.222 1.405 6.085 3.112 8.079 3.276 1.502-2.031 3.241-4.914 4.582-8.454 1.734-4.521 2.813-10.06 2.124-16.221zm6.353-4.157c0.294-4.197 5.788-3.702 5.788-3.702-3.891-4.554-9.976-7.31-14.262-8.026-0.854-0.166-1.635-0.233-2.322-0.2 0.846 1.087 1.635 2.196 2.322 3.344 3.207 5.307 4.545 11.236 4.545 15.202 0.031 5.538-1.929 13.073-4.545 18.771-0.559 1.247-1.18 2.429-1.767 3.442 0.555 0.066 1.143 0.101 1.767 0.101 4.804-0.068 10.825-2.362 14.688-6.064 1.306-1.248 2.351-2.69 3.042-4.257 0.359-2.296-1.146-4.687-3.042-7.143-2.89-3.702-6.62-7.568-6.22-11.468zm1.82 0.295c1.441-0.194 2.981 0.196 4.387 0.821 2.389 1.079 4.282 2.853 4.354 3.242-2.36-4.979-2.979-5.376-3.831-6.652-0.063 0-0.266-0.032-0.523-0.032-1.37-0.066-4.68 0-4.39 2.621zm9.26 7.369c-0.782-2.026-2.777-3.601-4.872-4.619-1.537-0.753-3.144-1.18-4.387-1.242 0 2.291 2.196 4.781 4.387 7.207 2.458 2.719 4.903 5.306 4.219 7.435 0.59-1.469 1.28-6.913 0.65-8.781zm2.56 3.901c0.523 17.592-17.768 26.961-33.244 20.182-10.172-4.391-15.407-14.055-15.735-23.489-0.686-17.721 17.698-26.7 33.139-20.181 10.21 4.521 15.55 14.156 15.84 23.493zm8.21 30.457c-0.082-0.356-0.228-0.734-0.41-1.093-4.129 3.161-10.251 3.733-15.657 4.233 0 0-0.726 0.069-0.716 0.069-4.649 0.51-12.129 0.15-17.777-0.356h-0.007v-1.37c0.004 0.003 0.013 0.003 0.017 0.003-3.438-0.314-6.148-0.68-7.02-0.921-6.198-1.369-12.513-2.759-18.272-5.526-0.031-0.016-0.066-0.028-0.098-0.049-0.085-0.044-0.174-0.085-0.262-0.125-0.028-0.016-0.054-0.028-0.082-0.042-0.082-0.04-0.161-0.081-0.243-0.122-0.028-0.016-0.066-0.032-0.098-0.051-0.086-0.044-0.177-0.085-0.263-0.136-0.021-0.009-0.05-0.027-0.072-0.035-0.101-0.05-0.198-0.105-0.297-0.158-0.006 0-0.013-0.008-0.021-0.011-0.089-0.047-0.181-0.095-0.269-0.142-0.031-0.021-0.063-0.038-0.095-0.056-0.092-0.05-0.187-0.099-0.277-0.151-0.02-0.011-0.035-0.017-0.048-0.023-0.101-0.059-0.202-0.114-0.306-0.174 0-0.003-0.004-0.003-0.004-0.003-0.003-0.003-0.003-0.006-0.006-0.008-0.101-0.05-0.195-0.109-0.294-0.166-0.019-0.016-0.041-0.022-0.06-0.035-0.202-0.118-0.404-0.24-0.603-0.363-0.02-0.01-0.038-0.021-0.057-0.037-0.095-0.058-0.193-0.118-0.291-0.18-0.009-0.006-0.019-0.014-0.034-0.023-0.098-0.062-0.202-0.123-0.303-0.189 0-0.003 0-0.003-0.004-0.003-0.104-0.069-0.208-0.137-0.313-0.205-0.009-0.003-0.016-0.011-0.024-0.017-0.104-0.071-0.209-0.134-0.31-0.21 1.392 0.374 2.806 0.753 2.806 0.753 9.139 2.477 17.493 4.73 27.2 5.202v-1.368h0.017v-0.006c-9.569-0.472-17.828-2.698-26.857-5.153l-6.183-1.65c-0.309-0.084-0.634 0.062-0.782 0.347-0.148 0.278-0.082 0.631 0.164 0.838 1.591 1.354 3.264 2.513 4.996 3.525l-4.517-1.15c-0.271-0.071-0.556 0.059-0.679 0.313-0.129 0.248-0.063 0.557 0.161 0.737 7.603 6.179 17.09 8.18 26.261 10.118 0.99 0.265 4.371 0.68 8.499 1.004 0.324-0.074 0.659-0.163 0.994-0.254 1.41-0.375 2.994-0.795 4.554-0.204h4.923l-2.281 0.899c3.118 0.085 6.109 0.042 8.395-0.196-0.007 0.003 0.713-0.063 0.713-0.063 5.422-0.483 11.569-1.035 15.679-4.085 0.54-0.42 0.72-1.1 0.53-1.94zm-34.558 29.86h-0.003s0 0 0.003 0zm0.006 0h-0.006 0.006zm0.012 0h-0.009s0.006 0 0.009 0zm0.003 0h-0.003 0.003zm0.004 0zm0.013 0h-0.013 0.013zm0.006 0h-0.003-0.003 0.006zm0.006 0h-0.006s0.003 0 0.006 0zm0.006 0h-0.003-0.004 0.007zm0.013 0h-0.01s0.004 0 0.01 0zm0.01 0h-0.004-0.003 0.007zm0.006 0h-0.003 0.003zm0.006 0h-0.003 0.003zm0.934-10.81c0.01 0 0.016-0.003 0.022-0.006l-0.022 0.01zm-0.195 0.05c0.057-0.013 0.116-0.028 0.177-0.041-0.061 0.01-0.121 0.03-0.177 0.04zm-0.089 0.02c0.016-0.003 0.028-0.006 0.044-0.01-0.016 0.01-0.028 0.01-0.044 0.01zm-0.119 0.03c0.027-0.006 0.05-0.009 0.075-0.019-0.025 0.01-0.048 0.02-0.075 0.02zm-0.061 0.01c0.019-0.006 0.031-0.006 0.047-0.013-0.015 0.01-0.028 0.01-0.047 0.01zm-0.261 0.08c0.013-0.006 0.025-0.006 0.041-0.009-0.016 0-0.029 0-0.041 0.01zm-0.215 0.04c0.057-0.016 0.113-0.029 0.167-0.042-0.054 0.02-0.111 0.03-0.167 0.04zm9.688 4.3c1.096-0.186 2.55-0.426 2.598-0.432 1.136-0.006 2.465-0.268 3.516-0.499 2.281-0.032 4.639-1.18 5.889-2.891 0.061-0.079 0.098-0.17 0.114-0.271 0.053-0.363 0.119-0.946 0.119-1.593 0-0.152-0.003-0.303-0.013-0.455l0.061-0.088-0.095 0.139c-1.281 1.837-3.718 3.074-5.908 3.052-1.161 0.269-2.499 0.534-3.521 0.524l-3.831 0.669c-2.917 0.489-5.883 1.035-8.708 1.896v-1.483c-1.318 0.375-2.616 0.83-3.869 1.389-0.221 0.101-0.306 0.076-0.334 0.319l-0.098 0.877 0.675 0.647 0.13 0.06c0.104 0.057 0.277 0.136 0.397 0.133l3.099-0.139v-1.369c2.067-0.085 4.633-0.199 4.633-0.199 1.743-0.12 3.447-0.23 5.141-0.29zm-9.78-17.58c-0.113 0.01-0.233 0.024-0.347 0.024-0.066 0-0.136 0.013-0.199 0.027-2.619 0.809-5.484 1.134-8.252 1.446-3.023 0.34-6.151 0.694-8.926 1.685-0.136 0.05-0.255 0.139-0.338 0.262-0.782 1.149-0.665 2.212-0.324 3.156-0.66 1.366-0.022 2.601 0.502 3.613 0.382 0.739 0.748 1.439 0.669 2.14-0.02 0.177 0.075 0.382 0.195 0.515l0.884 0.928c0.59 0.675 1.209 1.373 2.188 1.875 0.147 0.079 0.321 0.088 0.476 0.032 1.354-0.477 2.777-0.877 4.245-1.206-0.448 0.167-1.174 0.436-1.174 0.436-2.311 0.811-5.191 1.818-5.191 5.213 0 0.069 0.01 0.142 0.028 0.202l0.107 0.356c0.006 0.016 0.016 0.035 0.021 0.054-0.116 0.388-0.18 0.811-0.18 1.288 0 0.063 0.01 0.129 0.028 0.192l0.11 0.344c0.505 1.568 1.07 3.345 2.847 4.083 0.054 0.025 0.114 0.041 0.171 0.047 4.402 0.452 8.366 0.293 12.554 0.126 3.008-0.12 6.12-0.25 9.414-0.123 0.591 0.202 1.278 0.262 1.947 0.3 1.714 0.091 2.254 0.252 2.275 1.076 0.01 0.303 0.243 0.552 0.54 0.59 1.057 0.104 2.427-0.224 3.004-1.042 0.735-0.716 1.486-2.01 1.486-3.582 0-0.104-0.003-0.208-0.009-0.319-0.29 1.032-0.821 1.84-1.291 2.278-0.603 0.89-2.017 1.241-3.096 1.121l-0.6-0.06-0.016-0.6c-0.022-0.824-0.515-0.975-2.193-1.073-0.669-0.041-1.357-0.107-1.954-0.313-3.291-0.132-6.394 0-9.398 0.126-0.065 0.003-0.139 0.006-0.205 0.01v-1.376c-4.039 0.171-7.874 0.319-12.08-0.12-1.178-0.571-1.613-1.954-2.064-3.427 0 0-0.034-0.114-0.063-0.224 0.032-2.2 1.708-2.967 4.261-3.86l1.56-0.583c2.606-0.881 5.513-1.625 8.404-2.339 0.006 0 0.009-0.003 0.012-0.003-0.006 0.003-0.021 0.003-0.028 0.003v-1.407c0.373-0.092 0.739-0.183 1.108-0.271 0 0 0.842-0.218 1.474-0.373-0.858-0.032-1.72-0.032-2.582-0.019v-1.407c0.004-0.003 0.013-0.003 0.017-0.003-4.757 0.095-9.383 0.887-13.46 2.342-0.647-0.404-1.137-0.938-1.622-1.515 0 0-0.483-0.53-0.752-0.821 0-0.009 0.004-0.019 0.004-0.022 0-0.985-0.433-1.856-0.821-2.635-0.378-0.773-0.646-1.351-0.646-1.906 0-0.281 0.133-0.568 0.29-0.858 2.56-0.865 5.365-1.208 8.348-1.546 2.806-0.315 5.709-0.647 8.426-1.477 0.076-0.003 0.152-0.022 0.218-0.028v-1.33zm6.211 4.63c0.578-0.524 1.181-0.969 1.824-1.212 0.233-0.088 0.392-0.316 0.392-0.562 0-0.035-0.007-0.069-0.01-0.107-0.057-0.291-0.303-0.493-0.597-0.493h-1.335c-0.107-0.041-0.214-0.076-0.318-0.104-0.307 0.303-0.609 0.612-0.902 0.925-0.41 0.436-0.84 0.865-1.275 1.265 0.732 0.12 1.47 0.21 2.221 0.29z"/>
</g>
</svg>
