<svg xmlns="http://www.w3.org/2000/svg" viewBox="0 0 120.00201 120.00049">
  <g>
    <path d="M60.001,0a60.00025,60.00025,0,1,0,60.001,60A60.00068,60.00068,0,0,0,60.001,0Zm0,116.00049A56.00025,56.00025,0,1,1,116.002,60,56.06417,56.06417,0,0,1,60.001,116.00049Z"/>
    <path d="M61.20238,60.00542a34.55222,34.55222,0,0,0,4.733-2.89l3.49591-.10754.11279-.00861c3.09216-.37573,7.42322-1.46881,10.49823-4.54315,5.50751-5.5069,4.72467-14.94275,4.68909-15.34186L84.637,36.07091l-1.04333-.09406c-.39789-.03711-9.83374-.81842-15.34125,4.68939-5.02783,5.02729-4.81323,13.32581-4.71075,15.03589-.80847.54956-1.57062,1.0293-2.273,1.4317V44.69792c1.658-1.63513,7.64337-8.0882,7.64337-16.01007,0-8.99878-7.72675-16.10565-8.05591-16.40393l-.843-.76416-.84289.76416c-.32922.29828-8.05591,7.40515-8.05591,16.40393,0,7.92187,5.98535,14.37494,7.64331,16.01007V57.1345c-.70935-.40594-1.47943-.89019-2.29657-1.44543.10272-1.74164.30237-10.0094-4.71161-15.02283-5.50689-5.50781-14.94275-4.72619-15.34124-4.68939l-1.0434.09406-.09436,1.04339c-.03558.39911-.81842,9.835,4.68909,15.34186,3.07495,3.07434,7.40606,4.16742,10.49823,4.54315l3.62481.11469a34.67646,34.67646,0,0,0,4.741,2.89142l-46.46045.00024a47.6377,47.6377,0,0,0,95.27539-.00049Zm10.0282,25.90087H62.08343v9.147h-4.1651v-9.147h-9.147v-4.1651h9.147V72.59428h4.1651v9.14691h9.14715Z"/>
  </g>
</svg>
