<?xml version="1.0" encoding="UTF-8"?><svg xmlns="http://www.w3.org/2000/svg" viewBox="0 0 120 120"><defs><style>.d{fill:#34b233;}.e{fill:#4c5b68;}</style></defs><g id="a"/><g id="b"><g id="c"><path class="e" d="M60,4c30.88,0,56,25.12,56,56s-25.12,56-56,56S4,90.88,4,60,29.12,4,60,4m0-4C26.86,0,0,26.86,0,60s26.86,60,60,60,60-26.86,60-60S93.14,0,60,0h0Z"/><g><path class="d" d="M12.36,60c0,26.31,21.33,47.64,47.64,47.64s47.64-21.33,47.64-47.64H12.36Zm66.7,31.11c-6.97,0-12.64-5.67-12.64-12.64,0-1.09,.89-1.98,1.98-1.98s1.98,.89,1.98,1.98c0,4.79,3.89,8.68,8.68,8.68s8.68-3.89,8.68-8.68-3.89-8.68-8.68-8.68H18.82c-1.09,0-1.98-.89-1.98-1.98s.89-1.98,1.98-1.98h60.24c6.97,0,12.64,5.67,12.64,12.64s-5.67,12.64-12.64,12.64Z"/><path class="d" d="M82.96,53.97H15.69c-1.07,0-1.94-.87-1.94-1.94s.87-1.94,1.94-1.94H82.96c7.03,0,12.75-5.72,12.75-12.76s-5.72-12.76-12.75-12.76-12.76,5.72-12.76,12.76c0,1.07-.87,1.94-1.94,1.94s-1.94-.87-1.94-1.94c0-9.17,7.46-16.63,16.63-16.63s16.63,7.46,16.63,16.63-7.46,16.63-16.63,16.63Z"/><path class="d" d="M18.78,43.33h0c-1.07,0-1.94-.87-1.94-1.94s.87-1.94,1.94-1.94H51.44c4.6,0,8.35-3.75,8.35-8.35s-3.74-8.35-8.35-8.35-8.35,3.74-8.35,8.35c0,1.07-.87,1.94-1.94,1.94s-1.94-.87-1.94-1.94c0-6.74,5.48-12.22,12.22-12.22s12.22,5.48,12.22,12.22-5.48,12.22-12.22,12.22H18.78Z"/></g></g></g></svg>