<?xml version="1.0" encoding="utf-8"?>
<!-- Generator: Adobe Illustrator 23.0.4, SVG Export Plug-In . SVG Version: 6.00 Build 0)  -->
<svg version="1.1" id="Layer_1" xmlns="http://www.w3.org/2000/svg" xmlns:xlink="http://www.w3.org/1999/xlink" x="0px" y="0px"
	 viewBox="0 0 120 120" enable-background="new 0 0 120 120" xml:space="preserve">
<title>package-spot</title>
<path fill="none" d="M60,4C29.1,4,4,29.1,4,60c0,30.9,25.1,56,56,56c30.9,0,56-25.1,56-56S90.9,4,60,4z M29,29c0.8-0.8,1.9-1,3-0.7
	l49.3,16.4c1,0.3,1.7,1.1,1.9,2.1c0.2,1-0.1,2-0.8,2.7l-8.2,8.2l2.2,2.2h-8.2l16.6,16.6l-8.2,8.2L59.8,68.1c-1.1-1.1-3-1.1-4.1,0
	L48.8,75l-5-15h-6.1l-9.3-28C28,31,28.3,29.8,29,29z M60,107.6c-26.3,0-47.6-21.3-47.6-47.6h25.3l7.1,21.3c0.3,1,1.1,1.7,2.1,1.9
	c1,0.2,2-0.1,2.7-0.8l8.2-8.2L74.5,91c0.6,0.6,1.3,0.9,2.1,0.9s1.5-0.3,2.1-0.9L91,78.6c1.1-1.1,1.1-3,0-4.1L76.4,60h31.2
	C107.6,86.3,86.3,107.6,60,107.6z"/>
<path fill="none" d="M68.2,60l-0.2-0.2c-1.1-1.1-1.1-3,0-4.1l6.9-6.9L35.7,35.7L43.8,60H68.2z"/>
<g>
	<path d="M37.7,60h6.1l5,15l6.9-6.9c1.1-1.1,3-1.1,4.1,0l16.7,16.7l8.2-8.2L68.2,60h8.2l-2.2-2.2l8.2-8.2c0.7-0.7,1-1.7,0.8-2.7
		c-0.2-1-1-1.8-1.9-2.1L32,28.3c-1-0.3-2.2-0.1-3,0.7c-0.8,0.8-1,1.9-0.7,3L37.7,60z M75,48.8l-6.9,6.9c-1.1,1.1-1.1,3,0,4.1
		l0.2,0.2H43.8l-8.1-24.3L75,48.8z"/>
	<path d="M60,0C26.9,0,0,26.9,0,60s26.9,60,60,60s60-26.9,60-60S93.1,0,60,0z M60,116C29.1,116,4,90.9,4,60C4,29.1,29.1,4,60,4
		c30.9,0,56,25.1,56,56S90.9,116,60,116z"/>
	<path d="M76.4,60L91,74.5c1.1,1.1,1.1,3,0,4.1L78.6,91c-0.6,0.6-1.3,0.9-2.1,0.9s-1.5-0.3-2.1-0.9L57.8,74.2l-8.2,8.2
		c-0.7,0.7-1.7,1-2.7,0.8c-1-0.2-1.8-1-2.1-1.9L37.7,60H12.4c0,26.3,21.3,47.6,47.6,47.6c26.3,0,47.6-21.3,47.6-47.6H76.4z"/>
</g>
</svg>
