<svg xmlns="http://www.w3.org/2000/svg" viewBox="0 0 128 128"><title>parking</title><path d="M117.2,6.8a4,4,0,0,1,4,4V117.2a4,4,0,0,1-4,4H10.8a4,4,0,0,1-4-4V10.8a4,4,0,0,1,4-4H117.2m0-4H10.8a8,8,0,0,0-8,8V117.2a8,8,0,0,0,8,8H117.2a8,8,0,0,0,8-8V10.8a8,8,0,0,0-8-8Z"/><path d="M42.05,32H64.72q10.56,0,16.52,5.82t6,16q0,10.39-6,16.17T64.72,75.78H51.55v18.9c0,.9-.42,1.34-1.26,1.34H42.05c-.83,0-1.25-.44-1.25-1.34V33.32C40.8,32.42,41.22,32,42.05,32Zm9.5,33.77H63.46q6.54,0,9.63-2.91t3.09-9q0-6.09-3.09-9T63.46,42H51.55Z"/></svg>