<svg xmlns="http://www.w3.org/2000/svg" viewBox="0 0 24 24"><title>pdf</title><path d="M10.54,14v1.36h.69a.63.63,0,0,0,.67-.69.62.62,0,0,0-.66-.67Z"/><path d="M22,11.31H17.92V8.44a1,1,0,0,0-.3-.71L11.19,1.29A1,1,0,0,0,10.48,1H2A1,1,0,0,0,1,2V22a1,1,0,0,0,1,1H16.92a1,1,0,0,0,1-1V19.36H22a1,1,0,0,0,1-1v-6A1,1,0,0,0,22,11.31ZM11.48,4.41l3,3h-3ZM15.92,21H3V3H9.48V8.44a1,1,0,0,0,1,1h5.44v1.87H8.3a1,1,0,0,0-1,1v6a1,1,0,0,0,1,1h7.62Zm-3.29-6.37A1.24,1.24,0,0,1,11.36,16h-.82v1.14c0,.16-.07.24-.23.24h-.26a.21.21,0,0,1-.23-.24V13.57a.21.21,0,0,1,.23-.24h1.31A1.22,1.22,0,0,1,12.63,14.63ZM15,17.33H13.88a.21.21,0,0,1-.23-.24V13.57a.21.21,0,0,1,.23-.24H15a1.86,1.86,0,0,1,2,2A1.87,1.87,0,0,1,15,17.33Zm5.46-3.6a.21.21,0,0,1-.23.23H18.9v1.13H20a.21.21,0,0,1,.24.23v.16a.21.21,0,0,1-.24.23H18.9v1.38a.21.21,0,0,1-.23.24h-.26a.21.21,0,0,1-.23-.24V13.57a.21.21,0,0,1,.23-.24h1.83a.21.21,0,0,1,.23.24Z"/><path d="M15,14h-.6v2.75H15a1.24,1.24,0,0,0,1.33-1.39A1.23,1.23,0,0,0,15,14Z"/></svg>