<svg id="Layer_1" data-name="Layer 1" xmlns="http://www.w3.org/2000/svg" viewBox="0 0 128 128"><path d="M120.53,77.87l-17.11-4.12,9.13.38h.27a6.5,6.5,0,0,0,6.49-6.23L119.6,61a6.53,6.53,0,0,0-6.23-6.77l-3.64-.15,1.5-6.22a6.51,6.51,0,0,0-.78-4.91,6.43,6.43,0,0,0-4-2.93L67.76,30.7,75,26.87a6.51,6.51,0,0,0,2.69-8.79L74.39,12A6.5,6.5,0,0,0,65.6,9.29L28.76,28.9a6.52,6.52,0,0,0-2.68,8.79l3.25,6.11a6.5,6.5,0,0,0,3,2.83l-1.4.2a6.52,6.52,0,0,0-5.53,7.35l1.13,7.91-7.47,1.06a6.51,6.51,0,0,0-5.52,7.35l.73,5.17-7.16,0h0c-2.54,0-4.54,2.85-4.57,6.48l0,6.92c0,2.59.58,4.74,1.6,5.78a2.33,2.33,0,0,0,1.48.73l-.89,2.9A6.53,6.53,0,0,0,9,106.57l39.92,12.18a6.46,6.46,0,0,0,1.89.28,6.63,6.63,0,0,0,3.06-.76,6.74,6.74,0,0,0,1.09-.74,3.77,3.77,0,0,0,3,1.87,7.8,7.8,0,0,0,1.1.08A10.6,10.6,0,0,0,62.2,119L102,106.28a6.5,6.5,0,0,0,4.22-8.16l-1.11-3.48,10.8,2.6a6.51,6.51,0,0,0,7.84-4.8l1.62-6.73A6.51,6.51,0,0,0,120.53,77.87Zm-7.28-20.65a3.52,3.52,0,0,1,3.35,3.64l-.29,6.92a3.5,3.5,0,0,1-3.64,3.35l-24.33-1L80,68.1a6.54,6.54,0,0,0-4.92.78,8.2,8.2,0,0,0-.87.65l-4-.16a2.32,2.32,0,0,1-1.6-.83l-.81-5.73v0l.16-3.94a3.5,3.5,0,0,1,3.64-3.36l16.83.7h.11l13.28,3.2A6.48,6.48,0,0,0,108.43,57ZM56.41,78l6.32-.9a5.37,5.37,0,0,0-.58.49,6.34,6.34,0,0,0-2,4.55l0,6.92a6.49,6.49,0,0,0,6.46,6.52H70l-14.23,4.54a5.62,5.62,0,0,0-1-.41L42.25,95.89l8.43,0h0a6.53,6.53,0,0,0,6.52-6.48l.05-6.92A11,11,0,0,0,56.41,78Zm10.2,14.58a3.42,3.42,0,0,1-2.46-1,3.46,3.46,0,0,1-1-2.47l0-6.92a3.36,3.36,0,0,1,3.48-3.33l4,.14-.16.68a6.52,6.52,0,0,0,4.79,7.84l11.45,2.76-7.48,2.38-.2,0ZM72.12,72.9,71.38,76l-4.6-.16a4.7,4.7,0,0,0-.65,0,6.35,6.35,0,0,0,1.35-1.34,6.65,6.65,0,0,0,1.13-2.39,4.84,4.84,0,0,0,1.43.28l2.21.09A3.19,3.19,0,0,0,72.12,72.9Zm33.61-30a3.44,3.44,0,0,1,2.16,1.57,3.48,3.48,0,0,1,.42,2.65l-1.62,6.73A3.49,3.49,0,0,1,105.11,56a3.46,3.46,0,0,1-2.64.42l-22.2-5.34-.65-4.62a6.52,6.52,0,0,0-2.54-4.28A6.44,6.44,0,0,0,72.27,41l-13,1.84,1.7-7.07a3.51,3.51,0,0,1,4.22-2.59ZM32,42.39l-3.25-6.11a3.51,3.51,0,0,1,1.44-4.73L67,11.93a3.48,3.48,0,0,1,1.63-.4,3.74,3.74,0,0,1,1,.15,3.53,3.53,0,0,1,2.07,1.7L75,19.49a3.5,3.5,0,0,1-1.45,4.73L36.72,43.83A3.51,3.51,0,0,1,32,42.39ZM57.78,36,56,43.28l-16.2,2.3ZM31.37,49.81,72.69,44a3.49,3.49,0,0,1,2.59.67,3.45,3.45,0,0,1,1.36,2.3l.83,5.82-5.79-.24A6.47,6.47,0,0,0,65,58.35a6.44,6.44,0,0,0-4.55-1.06L29.52,61.67l-1.13-7.91A3.5,3.5,0,0,1,31.37,49.81ZM19.5,66.12l41.32-5.86a4.19,4.19,0,0,1,.5,0A3.48,3.48,0,0,1,64.73,63l-.11,2.6a7.1,7.1,0,0,0,1.07,4l.06.41a3.49,3.49,0,0,1-.67,2.59A3.45,3.45,0,0,1,62.78,74L21.46,79.9a3.48,3.48,0,0,1-3.95-3s0,0,0-.08l-1-6.78A3.51,3.51,0,0,1,19.5,66.12Zm-13,26.45H6.12a7.67,7.67,0,0,1-.63-3.5l0-6.92c0-2.17,1-3.5,1.57-3.5h0l7.77,0A6.49,6.49,0,0,0,21,82.94a5.7,5.7,0,0,0,.92-.07l29.84-4.23,1.72.16a6.49,6.49,0,0,1,.83,3.7l-.05,6.92a3.53,3.53,0,0,1-3.52,3.5h0l-17.87-.07h0a1.34,1.34,0,0,0-.35.05L14.82,87.51A6.53,6.53,0,0,0,6.7,91.83Zm49.7,14.36-2,6.62a3.51,3.51,0,0,1-4.37,2.33L9.88,103.7a3.51,3.51,0,0,1-2.33-4.37l2-6.62a3.5,3.5,0,0,1,3.35-2.48,3.6,3.6,0,0,1,1,.15l39.92,12.18A3.51,3.51,0,0,1,56.18,106.93Zm44.87-3.5L61.29,116.1a5.36,5.36,0,0,1-3.63.15l-.61-1.9,2-6.54a6.45,6.45,0,0,0-.73-5.37L92.37,91.58l9.29,2.24L103.32,99A3.5,3.5,0,0,1,101.05,103.43ZM122.41,85l-1.62,6.73a3.51,3.51,0,0,1-4.22,2.58L76,84.56A3.47,3.47,0,0,1,73.84,83a3.52,3.52,0,0,1-.43-2.65L75,73.6a3.53,3.53,0,0,1,3.41-2.68,3.74,3.74,0,0,1,.81.1L87.33,73a1.42,1.42,0,0,0,.58.15h0l31.9,7.67A3.52,3.52,0,0,1,122.41,85Z"/></svg>