<svg xmlns="http://www.w3.org/2000/svg" viewBox="0 0 128 128"><title>personal-lg</title><path d="M123.68,82.82,125,81.56a7.57,7.57,0,0,0-10.71-10.71l-9,9h0l-29.6,29.6h0a1.48,1.48,0,0,0-.29.43.78.78,0,0,0,0,.14.5.5,0,0,0,0,.13l-2.84,11.42a1.36,1.36,0,0,0,0,.4.8.8,0,0,0-.26.09,12.71,12.71,0,0,1-5.62,1.61h0c-3.33,0-3.4-1.08-3.49-2.32a2.44,2.44,0,0,0-.92-2.12c-.75-.47-1.8-.36-3.63.38a28.24,28.24,0,0,1-4.69,1.48c1.62-1.28,2.71-3.19,2.57-4.75a2.83,2.83,0,0,0-2.39-2.51c-1.53-.36-3.77,1-6,2.78a9,9,0,0,0,.7-3.23c0-1.37-.61-1.84-1.12-2s-2.28-.65-8.27,8.8a1,1,0,0,0,1.69,1.07,46.5,46.5,0,0,1,5.68-7.54c-.21,2.8-3,6.65-4.8,8.88-.44.49-.81.91-1.09,1.24a1,1,0,0,0,.09,1.4,1,1,0,0,0,1.4-.06c.06-.07.46-.5,1-1.19,4-4.41,8.69-8.56,10.22-8.21.8.18.84.56.85.74.1,1-1.19,2.92-2.93,3.68-.64.28-2.34,1-1.81,2.31.36.85,1.44,1.06,3.6.72a28.86,28.86,0,0,0,6-1.76,6.23,6.23,0,0,1,1.75-.52,4.71,4.71,0,0,1,0,.54c.11,1.46.3,4.17,5.49,4.18h0a14.74,14.74,0,0,0,6.65-1.89,1,1,0,0,0,.35-.4,1.65,1.65,0,0,0,.38,0,1.47,1.47,0,0,0,.36,0l11.42-2.84.13-.05.13,0a1.46,1.46,0,0,0,.44-.29L116,90.54h0L121.56,85l.3.3a3.31,3.31,0,0,1,0,4.68l-11.13,11.13a1.5,1.5,0,0,0,1.06,2.56,1.49,1.49,0,0,0,1.06-.44L124,92.05a6.32,6.32,0,0,0,0-8.92ZM116.36,73a4.57,4.57,0,0,1,6.47,6.47l-7.92,7.91-6.46-6.46ZM85.3,117l-6.47-6.47L106.32,83l6.47,6.46Zm-7.77-3.54,4.83,4.84-6.43,1.6Z"/><path d="M27.7,35a7.28,7.28,0,0,0-.55,4.84l1.05,5.84a5.53,5.53,0,0,0,4.12,4.55C35.7,62.89,45.71,71.62,57,71.63S78.2,62.89,81.57,50.27a5.58,5.58,0,0,0,4.14-4.58l1-5.82A7.26,7.26,0,0,0,86.2,35a1.5,1.5,0,0,0,.71-1.28c0-18.2-12.91-31.92-30-31.92S27,15.56,27,33.76A1.51,1.51,0,0,0,27.7,35Zm56.1,4.31-1,5.79a2.65,2.65,0,0,1-2.56,2.34,1.5,1.5,0,0,0-1.3,1.15c-2.8,11.77-11.83,20-22,20s-19.15-8.23-22-20a1.51,1.51,0,0,0-1.3-1.15,2.63,2.63,0,0,1-2.55-2.32l-1-5.81a4.14,4.14,0,0,1,.41-3.17,3,3,0,0,1,2.14-.9l.14,0h2c9.4,0,14.71-4.73,17.66-9.47,6.68,9.47,15.39,9.47,28.15,9.47h.47l.14,0a3,3,0,0,1,2.14.9A4.19,4.19,0,0,1,83.8,39.35ZM56.88,4.84c14.94,0,26.32,11.68,27,27.42H80.63c-13.52,0-21,0-27-10.15a1.49,1.49,0,0,0-1.29-.74h-.06a1.51,1.51,0,0,0-1.29.84c-3.24,6.67-8.69,10-16.21,10H30C30.7,16.52,42,4.84,56.88,4.84Z"/><path d="M57.12,94.26a30.74,30.74,0,0,0,24-11.62L90,87.16a1.51,1.51,0,0,0,.68.16,1.5,1.5,0,0,0,.68-2.84L73.06,75.16a1.5,1.5,0,1,0-1.36,2.68l6.71,3.41a27.75,27.75,0,0,1-21.29,10,27.4,27.4,0,0,1-21-9.68l7.56-3.74a1.5,1.5,0,1,0-1.32-2.69L33.14,79.7h0L4.54,93.81a1.5,1.5,0,0,0-.82,1.1L.85,112.67a1.5,1.5,0,0,0,1.24,1.72l.24,0a1.5,1.5,0,0,0,1.48-1.26l2.75-17L33.35,82.94A30.33,30.33,0,0,0,57.12,94.26Z"/></svg>