<svg xmlns="http://www.w3.org/2000/svg" viewBox="0 0 24 24"><title>person</title><path d="M22.18,24H1.82A1.5,1.5,0,0,1,.33,22.33l.53-4.69a1.5,1.5,0,0,1,.92-1.22l5.28-2.17A1.5,1.5,0,0,1,8.2,17L3.74,18.86,3.5,21h17l-.24-2.13L15.63,17a1.5,1.5,0,1,1,1.11-2.78l5.46,2.17a1.48,1.48,0,0,1,.94,1.22l.53,4.69A1.5,1.5,0,0,1,22.18,24Zm-10-10.12a6,6,0,0,1-6-6V6a6,6,0,0,1,6.55-6,6.19,6.19,0,0,1,5.49,6.23V7.62a6.18,6.18,0,0,1-5.49,6.23A4.53,4.53,0,0,1,12.15,13.88ZM12.14,3a3,3,0,0,0-2,.79A3,3,0,0,0,9.12,6V7.86a3,3,0,0,0,3.29,3,3.16,3.16,0,0,0,2.75-3.24V6.25A3.18,3.18,0,0,0,12.41,3Z"/></svg>