<svg id="Layer_1" data-name="Layer 1" xmlns="http://www.w3.org/2000/svg" viewBox="0 0 128 128"><title>person-lg</title><path d="M32.18,38.06a7.84,7.84,0,0,0-.68,5.46l1.17,6.55a6.08,6.08,0,0,0,4.59,5C41,69.17,52.16,79,64.71,79s23.71-9.79,27.44-23.9a6.08,6.08,0,0,0,4.6-5l1.17-6.52a7.83,7.83,0,0,0-.68-5.46,1.49,1.49,0,0,0,.86-1.35c0-20.3-14.32-35.6-33.31-35.6s-33.48,15.3-33.48,35.6A1.5,1.5,0,0,0,32.18,38.06ZM95,43l-1.16,6.49a3.14,3.14,0,0,1-3,2.77,1.49,1.49,0,0,0-1.3,1.14C86.32,66.67,76.14,76,64.71,76S43.09,66.67,39.94,53.4a1.48,1.48,0,0,0-1.3-1.14,3.13,3.13,0,0,1-3-2.75L34.45,43a4.62,4.62,0,0,1,.5-3.69,3.47,3.47,0,0,1,2.53-1.08l.16,0h.54c14.33,0,24.09,0,31.55-10.77C73,32.79,78.9,38.21,89.5,38.21h2.28l.15,0a3.48,3.48,0,0,1,2.54,1.08A4.62,4.62,0,0,1,95,43ZM64.79,4.11c16.81,0,29.61,13.27,30.29,31.1H89.5c-8.49,0-14.66-3.83-18.32-11.37A1.51,1.51,0,0,0,69.89,23h-.06a1.49,1.49,0,0,0-1.29.74C61.78,35.21,53.39,35.21,38.18,35.21H34.34C35,17.38,47.89,4.11,64.79,4.11Z"/><path d="M127.39,125.15l-3.22-19.9a1.48,1.48,0,0,0-.82-1.1l-32-15.8h0L81,83.25a1.5,1.5,0,0,0-1.33,2.69l8.7,4.29a30.89,30.89,0,0,1-23.84,11.09A31.31,31.31,0,0,1,40.38,89.86l8-3.92A1.5,1.5,0,0,0,47,83.25L4.65,104.15a1.48,1.48,0,0,0-.82,1.1L.61,125.15a1.5,1.5,0,0,0,1.24,1.72l.24,0a1.49,1.49,0,0,0,1.48-1.26l3.1-19.14,31-15.28a34.25,34.25,0,0,0,26.88,13.11A33.84,33.84,0,0,0,91.11,91.58l30.22,14.91,3.1,19.14a1.49,1.49,0,0,0,1.48,1.26l.24,0A1.5,1.5,0,0,0,127.39,125.15Z"/></svg>