<svg id="Layer_1" data-name="Layer 1" xmlns="http://www.w3.org/2000/svg" viewBox="0 0 64 64"><title>person-md</title><path d="M62,63a1,1,0,0,1-1-.85l-1.49-9.21L45.2,45.65A17,17,0,0,1,32,52a16.81,16.81,0,0,1-13.07-6.15L4.49,52.94,3,62.14a1,1,0,0,1-2-.31L2.6,52.11a1,1,0,0,1,.54-.74l20.7-10.21a1,1,0,0,1,.88,1.8L20.78,44.9A14.83,14.83,0,0,0,32,50a15,15,0,0,0,11.37-5.24L39.9,43a1,1,0,1,1,.91-1.78L60.87,51.38a1,1,0,0,1,.53.73L63,61.83A1,1,0,0,1,62.14,63ZM31.91,39.57c-6.21,0-11.73-4.79-13.63-11.72A3.2,3.2,0,0,1,16,25.25l-.58-3.2a4.24,4.24,0,0,1,.25-2.63,1,1,0,0,1-.34-.75C15.33,8.6,22.44,1,31.87,1S48.49,8.6,48.49,18.67a1,1,0,0,1-.34.75A4.22,4.22,0,0,1,48.39,22l-.57,3.19a3.21,3.21,0,0,1-2.29,2.62C43.64,34.78,38.11,39.57,31.91,39.57ZM18.62,19.68a1.39,1.39,0,0,0-1,.43,2.11,2.11,0,0,0-.19,1.59L18,24.88A1.27,1.27,0,0,0,19.2,26a1,1,0,0,1,.87.76c1.51,6.36,6.38,10.81,11.84,10.81s10.32-4.45,11.84-10.81a1,1,0,0,1,.87-.76,1.29,1.29,0,0,0,1.24-1.14l.56-3.17a2.09,2.09,0,0,0-.19-1.58,1.62,1.62,0,0,0-1.14-.44h-.22c-6.95,0-11.72,0-15.4-5a10.9,10.9,0,0,1-9.67,5Zm10.79-8a1,1,0,0,1,.86.49c3.22,5.47,7.26,5.47,14.6,5.47h1.59C46,9.25,39.89,3,31.87,3S17.8,9.25,17.35,17.67H19.8a9,9,0,0,0,8.71-5.4,1,1,0,0,1,.86-.56Z"/></svg>