<svg id="Layer_1" data-name="Layer 1" xmlns="http://www.w3.org/2000/svg" viewBox="0 0 128 128"><path d="M65.68,17.35H36.29a5.54,5.54,0,0,0-5.53,5.54V41a5.54,5.54,0,0,0,5.53,5.53H65.68A5.54,5.54,0,0,0,71.22,41V22.89A5.55,5.55,0,0,0,65.68,17.35ZM68.22,41a2.54,2.54,0,0,1-2.54,2.53H36.29A2.53,2.53,0,0,1,33.76,41V22.89a2.54,2.54,0,0,1,2.53-2.54H65.68a2.54,2.54,0,0,1,2.54,2.54Z"/><path d="M54.5,60a3,3,0,0,0-5.21,0L42.45,72.56a18.82,18.82,0,0,0-2.28,9,11.93,11.93,0,0,0,10.32,12,12.92,12.92,0,0,0,1.38.08A11.73,11.73,0,0,0,63.62,81.89v-.37a18.82,18.82,0,0,0-2.28-9Zm6.12,21.88a8.73,8.73,0,0,1-9.79,8.67,8.93,8.93,0,0,1-7.66-9A15.79,15.79,0,0,1,45.08,74l6.81-12.49h0v0L58.71,74a15.79,15.79,0,0,1,1.91,7.52Z"/><path d="M56.45,82.18c-1.59,3-3.26,3.87-3.34,3.91A1.5,1.5,0,0,0,53.72,89a1.49,1.49,0,0,0,.58-.11c.27-.12,2.68-1.22,4.8-5.28a1.5,1.5,0,1,0-2.65-1.39Z"/><path d="M117,65.81V54.91a1.57,1.57,0,0,0-.22-.79L102.32,30.45A1.5,1.5,0,1,0,99.76,32l9.53,15.63a10.41,10.41,0,0,0,4.52,19.8H114v19.5a9.85,9.85,0,0,1-9.49,6.64h0A9.86,9.86,0,0,1,95,86.94V54.06a1.37,1.37,0,0,0,0-.29c-.7-3.56-3.84-10.07-10.86-10.89v-26A11.58,11.58,0,0,0,72.55,5.3H29.42A11.58,11.58,0,0,0,17.85,16.87v89.41H12.52a1.5,1.5,0,0,0-1.5,1.5V121.2a1.5,1.5,0,0,0,1.5,1.5H89a1.5,1.5,0,0,0,1.5-1.5V107.78a1.5,1.5,0,0,0-1.5-1.5H84.12V45.91c5.95.94,7.65,7.28,7.88,8.31v33a1.51,1.51,0,0,0,.08.48,12.93,12.93,0,0,0,12.39,8.91h0a13,13,0,0,0,12.41-8.9,1.57,1.57,0,0,0,.08-.49V65.81ZM87.45,119.7H14V109.28H87.45Zm-66.6-13.42V16.87A8.59,8.59,0,0,1,29.42,8.3H72.55a8.58,8.58,0,0,1,8.57,8.57v89.41Zm93-41.84a7.41,7.41,0,0,1-3-14.22L114,55.33v9.11Z"/></svg>