<svg xmlns="http://www.w3.org/2000/svg" viewBox="0 0 128 128"><title>piggy-lg</title><path d="M92.41,58.81a4.44,4.44,0,1,0,4.44,4.43A4.44,4.44,0,0,0,92.41,58.81Zm0,5.87a1.44,1.44,0,1,1,1.44-1.44A1.44,1.44,0,0,1,92.41,64.68Z"/><path d="M126.05,73.42c-.39,0-9.6-.48-13-9.17a34.94,34.94,0,0,0-21.87-20V32.63a1.5,1.5,0,0,0-2.44-1.17L75.08,42.41H48.87A36.72,36.72,0,0,0,12.19,79.09c0,.6,0,1.2,0,1.79a9.08,9.08,0,0,1-6.07-15.5A1.5,1.5,0,0,0,4,63.25,12.09,12.09,0,0,0,12.5,83.89a36.47,36.47,0,0,0,26.81,30.62v5.95a7,7,0,0,0,14.09,0v-4.69H75v4.69a7,7,0,0,0,14.09,0v-5.95a36.46,36.46,0,0,0,23.14-18.79l14.18-3.53a1.49,1.49,0,0,0,1.14-1.45V74.91A1.5,1.5,0,0,0,126.05,73.42ZM124.5,89.57,110.79,93a1.51,1.51,0,0,0-1,.8,33.56,33.56,0,0,1-22.61,18.1A1.5,1.5,0,0,0,86,113.34v7.12a4,4,0,0,1-8.09,0v-6.19a1.5,1.5,0,0,0-1.5-1.5H51.9a1.5,1.5,0,0,0-1.5,1.5v6.19a4,4,0,0,1-8.09,0v-7.12a1.5,1.5,0,0,0-1.15-1.46A33.49,33.49,0,0,1,15.48,83.54a12,12,0,0,0,5.68-3.2A1.5,1.5,0,1,0,19,78.23a9,9,0,0,1-3.81,2.28c0-.47,0-.94,0-1.42A33.71,33.71,0,0,1,48.87,45.41H75.61a1.44,1.44,0,0,0,.94-.33l11.6-9.32v9.6a1.5,1.5,0,0,0,1.08,1.44,32,32,0,0,1,21,18.55c3.32,8.41,11,10.43,14.27,10.92Z"/><path d="M60.62,21.94A10.72,10.72,0,1,0,49.9,11.22,10.73,10.73,0,0,0,60.62,21.94Zm0-18.44a7.72,7.72,0,1,1-7.72,7.72A7.72,7.72,0,0,1,60.62,3.5Z"/><path d="M70.84,49.71H50.4a1.5,1.5,0,0,0,0,3H70.84a1.5,1.5,0,0,0,0-3Z"/></svg>