<svg id="Layer_1" data-name="Layer 1" xmlns="http://www.w3.org/2000/svg" viewBox="0 0 128 128"><title>powering-lg</title><path d="M50,50.17A19.56,19.56,0,0,0,63.87,83.56,19.56,19.56,0,0,0,77.7,50.17,19.59,19.59,0,0,0,50,50.17ZM75.58,75.71a16.55,16.55,0,1,1,0-23.42A16.45,16.45,0,0,1,75.58,75.71Z"/><path d="M125.74,25.7a1.49,1.49,0,0,0-2.12,0l-3.86,3.86a12.09,12.09,0,0,1-8.59,3.64H98.75a14.75,14.75,0,0,0-4.94.86,14.76,14.76,0,0,0,.87-4.94V16.71a12.13,12.13,0,0,1,3.65-8.6L102,4.4a1.5,1.5,0,0,0-2.12-2.13L96.19,6a15.11,15.11,0,0,0-4.52,10.72V29.12A12.12,12.12,0,0,1,88,37.72l-2.76,2.75a31.82,31.82,0,0,0-44.94,45l-2.75,2.75A12.13,12.13,0,0,1,29,91.81H16.58A15.15,15.15,0,0,0,5.86,96.32L2.2,100a1.51,1.51,0,0,0,0,2.12,1.49,1.49,0,0,0,2.12,0L8,98.45a12.17,12.17,0,0,1,8.6-3.65H29a14.76,14.76,0,0,0,4.94-.87,14.77,14.77,0,0,0-.86,5V111.3a12.09,12.09,0,0,1-3.64,8.59l-3.6,3.61a1.49,1.49,0,0,0,0,2.12,1.51,1.51,0,0,0,2.12,0l3.6-3.61a15.11,15.11,0,0,0,4.52-10.71V98.89a12.12,12.12,0,0,1,3.64-8.6l2.75-2.75a31.6,31.6,0,0,0,21.41,8.28h0A31.82,31.82,0,0,0,87.41,42.59l2.75-2.75a12.11,12.11,0,0,1,8.59-3.64h12.42a15.11,15.11,0,0,0,10.71-4.52l3.86-3.86A1.49,1.49,0,0,0,125.74,25.7ZM84.25,84.38A28.83,28.83,0,1,1,92.69,64,28.64,28.64,0,0,1,84.25,84.38Z"/></svg>