<svg xmlns="http://www.w3.org/2000/svg" viewBox="0 0 24 24"><title>profile</title><path d="M22.18,23.5H1.82a1,1,0,0,1-.75-.33,1,1,0,0,1-.25-.78l.54-4.69A1,1,0,0,1,2,16.88l5.28-2.17a1,1,0,0,1,1.3.55A1,1,0,0,1,8,16.56l-4.73,2-.34,3H21.06l-.34-3-4.9-1.95a1,1,0,0,1,.74-1.86L22,16.88a1,1,0,0,1,.62.82l.54,4.69a1,1,0,0,1-.25.78A1,1,0,0,1,22.18,23.5Zm-10-10.12a5.43,5.43,0,0,1-3.72-1.46A5.51,5.51,0,0,1,6.62,7.86V6a5.52,5.52,0,0,1,6-5.5,5.69,5.69,0,0,1,5,5.73V7.62a5.68,5.68,0,0,1-5,5.73A4.19,4.19,0,0,1,12.13,13.38Zm0-10.88a3.49,3.49,0,0,0-2.37.92A3.54,3.54,0,0,0,8.62,6V7.86a3.52,3.52,0,0,0,3.84,3.5,3.67,3.67,0,0,0,3.2-3.74V6.25a3.68,3.68,0,0,0-3.2-3.74Z"/></svg>