<svg id="Layer_1" data-name="Layer 1" xmlns="http://www.w3.org/2000/svg" viewBox="0 0 128 128"><path d="M121.66,62.6,101.08,42a.69.69,0,0,1-.14-.75.7.7,0,0,1,.64-.41H102A14.89,14.89,0,1,0,87.15,26c0,.16,0,.31,0,.44a.68.68,0,0,1-.41.65.7.7,0,0,1-.75-.14L65.42,6.36a5,5,0,0,0-7.05,0l-21,21a3.68,3.68,0,0,0,0,5.2l2.52,2.52a3.68,3.68,0,0,0,3.32,1A8.78,8.78,0,0,1,45,36,9.07,9.07,0,1,1,35.92,45a9.56,9.56,0,0,1,.17-1.77,3.67,3.67,0,0,0-1-3.32L32.56,37.4a3.68,3.68,0,0,0-5.19,0l-21,21a5,5,0,0,0,0,7L26.91,86a.68.68,0,0,1-.5,1.16H26a14.89,14.89,0,1,0,14.88,14.89v-.46a.67.67,0,0,1,1.15-.49l20.53,20.53a5,5,0,0,0,7,0l21.05-21a3.69,3.69,0,0,0,0-5.2L88.1,92.94a3.68,3.68,0,0,0-3.32-1,8.71,8.71,0,0,1-1.77.18A9,9,0,0,1,74,83.05a9.06,9.06,0,1,1,18.12,0,9.09,9.09,0,0,1-.17,1.78,3.64,3.64,0,0,0,1,3.3l2.51,2.52A3.71,3.71,0,0,0,98,91.73a3.67,3.67,0,0,0,2.6-1.08l21-21a5,5,0,0,0,0-7.05Zm-2.11,4.93-21,21a.71.71,0,0,1-1,0L95,86a.68.68,0,0,1-.19-.61A11.8,11.8,0,0,0,95.07,83,12.06,12.06,0,1,0,83,95.11a11.67,11.67,0,0,0,2.36-.24.69.69,0,0,1,.61.19l2.52,2.52a.68.68,0,0,1,0,1l-21,21a2,2,0,0,1-2.81,0L44.11,99a3.67,3.67,0,0,0-4-.79,3.68,3.68,0,0,0-2.24,3.5v.35A11.89,11.89,0,1,1,26,90.18h.36A3.68,3.68,0,0,0,29,83.91L8.46,63.34a1.92,1.92,0,0,1-.58-1.4,1.94,1.94,0,0,1,.57-1.4l21-21a.68.68,0,0,1,1,0L33,42a.69.69,0,0,1,.19.61A11.73,11.73,0,0,0,32.92,45,12.06,12.06,0,1,0,45,33a11.73,11.73,0,0,0-2.36.23A.69.69,0,0,1,42,33L39.5,30.47a.66.66,0,0,1,0-.95l21-21a2,2,0,0,1,2.81,0L83.88,29.06a3.68,3.68,0,0,0,6.28-2.77,2.81,2.81,0,0,1,0-.3A11.89,11.89,0,1,1,102,37.87h-.36A3.68,3.68,0,0,0,99,44.14l20.58,20.58a2,2,0,0,1,0,2.81Z"/></svg>