<svg xmlns="http://www.w3.org/2000/svg" viewBox="0 0 128 128">
	<path d="M97.3,118H30.7c-0.8,0-1.5-0.7-1.5-1.5v-105c0-0.8,0.7-1.5,1.5-1.5h66.7c0.8,0,1.5,0.7,1.5,1.5v105
		C98.8,117.3,98.2,118,97.3,118z M32.2,115h63.7V13H32.2V115z"/>
	<path d="M97.3,96.4H30.7c-0.8,0-1.5-0.7-1.5-1.5s0.7-1.5,1.5-1.5h66.7c0.8,0,1.5,0.7,1.5,1.5S98.2,96.4,97.3,96.4z"/>
	<path d="M50.4,33h-9.8c-0.8,0-1.5-0.7-1.5-1.5v-9.8c0-0.8,0.7-1.5,1.5-1.5h9.8c0.8,0,1.5,0.7,1.5,1.5v9.8
		C51.9,32.3,51.2,33,50.4,33z M42,30h6.8v-6.8H42V30z"/>
	<path d="M68.9,33h-9.8c-0.8,0-1.5-0.7-1.5-1.5v-9.8c0-0.8,0.7-1.5,1.5-1.5h9.8c0.8,0,1.5,0.7,1.5,1.5v9.8
		C70.4,32.3,69.8,33,68.9,33z M60.6,30h6.8v-6.8h-6.8V30z"/>
	<path d="M87.5,33h-9.8c-0.8,0-1.5-0.7-1.5-1.5v-9.8c0-0.8,0.7-1.5,1.5-1.5h9.8c0.8,0,1.5,0.7,1.5,1.5v9.8C89,32.3,88.3,33,87.5,33z
		 M79.1,30H86v-6.8h-6.8V30z"/>
	<path d="M45.4,47.5c-2.9,0-5.3-2.4-5.3-5.3c0-2.9,2.4-5.3,5.3-5.3c2.9,0,5.3,2.4,5.3,5.3C50.7,45.1,48.4,47.5,45.4,47.5z
		 M45.4,39.9c-1.3,0-2.3,1-2.3,2.3c0,1.3,1,2.3,2.3,2.3c1.3,0,2.3-1,2.3-2.3C47.7,41,46.7,39.9,45.4,39.9z"/>
	<path d="M45.4,61.3c-2.9,0-5.3-2.4-5.3-5.3s2.4-5.3,5.3-5.3c2.9,0,5.3,2.4,5.3,5.3S48.4,61.3,45.4,61.3z M45.4,53.8
		c-1.3,0-2.3,1-2.3,2.3s1,2.3,2.3,2.3c1.3,0,2.3-1,2.3-2.3S46.7,53.8,45.4,53.8z"/>
	<path d="M38.8,111.9c-0.8,0-1.5-0.7-1.5-1.5v-9.6c0-0.8,0.7-1.5,1.5-1.5s1.5,0.7,1.5,1.5v9.6C40.3,111.3,39.7,111.9,38.8,111.9z"/>
	<path d="M48.7,111.9c-0.8,0-1.5-0.7-1.5-1.5v-9.6c0-0.8,0.7-1.5,1.5-1.5s1.5,0.7,1.5,1.5v9.6C50.2,111.3,49.5,111.9,48.7,111.9z"/>
	<path d="M58.5,111.9c-0.8,0-1.5-0.7-1.5-1.5v-9.6c0-0.8,0.7-1.5,1.5-1.5s1.5,0.7,1.5,1.5v9.6C60,111.3,59.4,111.9,58.5,111.9z"/>
	<path d="M68.4,111.9c-0.8,0-1.5-0.7-1.5-1.5v-9.6c0-0.8,0.7-1.5,1.5-1.5s1.5,0.7,1.5,1.5v9.6C69.9,111.3,69.2,111.9,68.4,111.9z"/>
	<path d="M78.3,111.9c-0.8,0-1.5-0.7-1.5-1.5v-9.6c0-0.8,0.7-1.5,1.5-1.5s1.5,0.7,1.5,1.5v9.6C79.8,111.3,79.1,111.9,78.3,111.9z"/>
	<path d="M88.1,111.9c-0.8,0-1.5-0.7-1.5-1.5v-9.6c0-0.8,0.7-1.5,1.5-1.5s1.5,0.7,1.5,1.5v9.6C89.6,111.3,88.9,111.9,88.1,111.9z"/>
</svg>
