<svg xmlns="http://www.w3.org/2000/svg" viewBox="0 0 128 128">
		<path d="M97.3,118H30.7c-0.8,0-1.5-0.7-1.5-1.5v-105c0-0.8,0.7-1.5,1.5-1.5h66.7c0.8,0,1.5,0.7,1.5,1.5v105
			C98.8,117.3,98.2,118,97.3,118z M32.2,115h63.7V13H32.2V115z"/>
		<path d="M97.3,118.5H30.7c-1.1,0-2-0.9-2-2v-105c0-1.1,0.9-2,2-2h66.7c1.1,0,2,0.9,2,2v105C99.3,117.6,98.4,118.5,97.3,118.5z
			 M30.7,10.5c-0.6,0-1,0.4-1,1v105c0,0.6,0.4,1,1,1h66.7c0.6,0,1-0.4,1-1v-105c0-0.6-0.4-1-1-1H30.7z M96.3,115.5H31.7v-103h64.7
			V115.5z M32.7,114.5h62.7v-101H32.7V114.5z"/>
		<path d="M97.3,96.4H30.7c-0.8,0-1.5-0.7-1.5-1.5s0.7-1.5,1.5-1.5h66.7c0.8,0,1.5,0.7,1.5,1.5S98.2,96.4,97.3,96.4z"/>
		<path d="M97.3,96.9H30.7c-1.1,0-2-0.9-2-2s0.9-2,2-2h66.7c1.1,0,2,0.9,2,2S98.4,96.9,97.3,96.9z M30.7,93.9c-0.6,0-1,0.4-1,1
			s0.4,1,1,1h66.7c0.6,0,1-0.4,1-1s-0.4-1-1-1H30.7z"/>
		<path d="M50.4,33h-9.8c-0.8,0-1.5-0.7-1.5-1.5v-9.8c0-0.8,0.7-1.5,1.5-1.5h9.8c0.8,0,1.5,0.7,1.5,1.5v9.8
			C51.9,32.3,51.2,33,50.4,33z M42,30h6.8v-6.8H42V30z"/>
		<path d="M50.4,33.5h-9.8c-1.1,0-2-0.9-2-2v-9.8c0-1.1,0.9-2,2-2h9.8c1.1,0,2,0.9,2,2v9.8C52.4,32.6,51.5,33.5,50.4,33.5z
			 M40.5,20.6c-0.6,0-1,0.4-1,1v9.8c0,0.6,0.4,1,1,1h9.8c0.6,0,1-0.4,1-1v-9.8c0-0.6-0.4-1-1-1H40.5z M49.4,30.5h-7.8v-7.8h7.8V30.5
			z M42.5,29.5h5.8v-5.8h-5.8V29.5z"/>
		<path d="M68.9,33h-9.8c-0.8,0-1.5-0.7-1.5-1.5v-9.8c0-0.8,0.7-1.5,1.5-1.5h9.8c0.8,0,1.5,0.7,1.5,1.5v9.8
			C70.4,32.3,69.8,33,68.9,33z M60.6,30h6.8v-6.8h-6.8V30z"/>
		<path d="M68.9,33.5h-9.8c-1.1,0-2-0.9-2-2v-9.8c0-1.1,0.9-2,2-2h9.8c1.1,0,2,0.9,2,2v9.8C70.9,32.6,70,33.5,68.9,33.5z M59.1,20.6
			c-0.6,0-1,0.4-1,1v9.8c0,0.6,0.4,1,1,1h9.8c0.6,0,1-0.4,1-1v-9.8c0-0.6-0.4-1-1-1H59.1z M67.9,30.5h-7.8v-7.8h7.8V30.5z
			 M61.1,29.5h5.8v-5.8h-5.8V29.5z"/>
		<path d="M87.5,33h-9.8c-0.8,0-1.5-0.7-1.5-1.5v-9.8c0-0.8,0.7-1.5,1.5-1.5h9.8c0.8,0,1.5,0.7,1.5,1.5v9.8C89,32.3,88.3,33,87.5,33
			z M79.1,30H86v-6.8h-6.8V30z"/>
		<path d="M87.5,33.5h-9.8c-1.1,0-2-0.9-2-2v-9.8c0-1.1,0.9-2,2-2h9.8c1.1,0,2,0.9,2,2v9.8C89.5,32.6,88.6,33.5,87.5,33.5z
			 M77.6,20.6c-0.6,0-1,0.4-1,1v9.8c0,0.6,0.4,1,1,1h9.8c0.6,0,1-0.4,1-1v-9.8c0-0.6-0.4-1-1-1H77.6z M86.5,30.5h-7.8v-7.8h7.8V30.5
			z M79.6,29.5h5.8v-5.8h-5.8V29.5z"/>
		<path d="M45.4,47.5c-2.9,0-5.3-2.4-5.3-5.3c0-2.9,2.4-5.3,5.3-5.3c2.9,0,5.3,2.4,5.3,5.3C50.7,45.1,48.4,47.5,45.4,47.5z
			 M45.4,39.9c-1.3,0-2.3,1-2.3,2.3c0,1.3,1,2.3,2.3,2.3c1.3,0,2.3-1,2.3-2.3C47.7,41,46.7,39.9,45.4,39.9z"/>
		<path d="M45.4,48c-3.2,0-5.8-2.6-5.8-5.8c0-3.2,2.6-5.8,5.8-5.8c3.2,0,5.8,2.6,5.8,5.8C51.2,45.4,48.6,48,45.4,48z M45.4,37.4
			c-2.6,0-4.8,2.1-4.8,4.8c0,2.6,2.1,4.8,4.8,4.8c2.6,0,4.8-2.1,4.8-4.8C50.2,39.6,48.1,37.4,45.4,37.4z M45.4,45
			c-1.5,0-2.8-1.2-2.8-2.8c0-1.5,1.2-2.8,2.8-2.8c1.5,0,2.8,1.2,2.8,2.8C48.2,43.8,47,45,45.4,45z M45.4,40.4c-1,0-1.8,0.8-1.8,1.8
			c0,1,0.8,1.8,1.8,1.8c1,0,1.8-0.8,1.8-1.8C47.2,41.2,46.4,40.4,45.4,40.4z"/>
		<path d="M45.4,61.3c-2.9,0-5.3-2.4-5.3-5.3s2.4-5.3,5.3-5.3c2.9,0,5.3,2.4,5.3,5.3S48.4,61.3,45.4,61.3z M45.4,53.8
			c-1.3,0-2.3,1-2.3,2.3s1,2.3,2.3,2.3c1.3,0,2.3-1,2.3-2.3S46.7,53.8,45.4,53.8z"/>
		<path d="M45.4,61.8c-3.2,0-5.8-2.6-5.8-5.8s2.6-5.8,5.8-5.8c3.2,0,5.8,2.6,5.8,5.8S48.6,61.8,45.4,61.8z M45.4,51.3
			c-2.6,0-4.8,2.1-4.8,4.8s2.1,4.8,4.8,4.8c2.6,0,4.8-2.1,4.8-4.8S48.1,51.3,45.4,51.3z M45.4,58.8c-1.5,0-2.8-1.2-2.8-2.8
			s1.2-2.8,2.8-2.8c1.5,0,2.8,1.2,2.8,2.8S47,58.8,45.4,58.8z M45.4,54.3c-1,0-1.8,0.8-1.8,1.8s0.8,1.8,1.8,1.8c1,0,1.8-0.8,1.8-1.8
			S46.4,54.3,45.4,54.3z"/>
		<path d="M38.8,111.9c-0.8,0-1.5-0.7-1.5-1.5v-9.6c0-0.8,0.7-1.5,1.5-1.5s1.5,0.7,1.5,1.5v9.6C40.3,111.3,39.7,111.9,38.8,111.9z"
			/>
		<path d="M38.8,112.4c-1.1,0-2-0.9-2-2v-9.6c0-1.1,0.9-2,2-2s2,0.9,2,2v9.6C40.8,111.5,39.9,112.4,38.8,112.4z M38.8,99.9
			c-0.6,0-1,0.4-1,1v9.6c0,0.6,0.4,1,1,1s1-0.4,1-1v-9.6C39.8,100.3,39.4,99.9,38.8,99.9z"/>
		<path d="M48.7,111.9c-0.8,0-1.5-0.7-1.5-1.5v-9.6c0-0.8,0.7-1.5,1.5-1.5s1.5,0.7,1.5,1.5v9.6C50.2,111.3,49.5,111.9,48.7,111.9z"
			/>
		<path d="M48.7,112.4c-1.1,0-2-0.9-2-2v-9.6c0-1.1,0.9-2,2-2s2,0.9,2,2v9.6C50.7,111.5,49.8,112.4,48.7,112.4z M48.7,99.9
			c-0.6,0-1,0.4-1,1v9.6c0,0.6,0.4,1,1,1s1-0.4,1-1v-9.6C49.7,100.3,49.2,99.9,48.7,99.9z"/>
		<path d="M58.5,111.9c-0.8,0-1.5-0.7-1.5-1.5v-9.6c0-0.8,0.7-1.5,1.5-1.5s1.5,0.7,1.5,1.5v9.6C60,111.3,59.4,111.9,58.5,111.9z"/>
		<path d="M58.5,112.4c-1.1,0-2-0.9-2-2v-9.6c0-1.1,0.9-2,2-2s2,0.9,2,2v9.6C60.5,111.5,59.6,112.4,58.5,112.4z M58.5,99.9
			c-0.6,0-1,0.4-1,1v9.6c0,0.6,0.4,1,1,1s1-0.4,1-1v-9.6C59.5,100.3,59.1,99.9,58.5,99.9z"/>
		<path d="M68.4,111.9c-0.8,0-1.5-0.7-1.5-1.5v-9.6c0-0.8,0.7-1.5,1.5-1.5s1.5,0.7,1.5,1.5v9.6C69.9,111.3,69.2,111.9,68.4,111.9z"
			/>
		<path d="M68.4,112.4c-1.1,0-2-0.9-2-2v-9.6c0-1.1,0.9-2,2-2s2,0.9,2,2v9.6C70.4,111.5,69.5,112.4,68.4,112.4z M68.4,99.9
			c-0.6,0-1,0.4-1,1v9.6c0,0.6,0.4,1,1,1s1-0.4,1-1v-9.6C69.4,100.3,69,99.9,68.4,99.9z"/>
		<path d="M78.3,111.9c-0.8,0-1.5-0.7-1.5-1.5v-9.6c0-0.8,0.7-1.5,1.5-1.5s1.5,0.7,1.5,1.5v9.6C79.8,111.3,79.1,111.9,78.3,111.9z"
			/>
		<path d="M78.3,112.4c-1.1,0-2-0.9-2-2v-9.6c0-1.1,0.9-2,2-2s2,0.9,2,2v9.6C80.3,111.5,79.4,112.4,78.3,112.4z M78.3,99.9
			c-0.6,0-1,0.4-1,1v9.6c0,0.6,0.4,1,1,1s1-0.4,1-1v-9.6C79.3,100.3,78.8,99.9,78.3,99.9z"/>
		<path d="M88.1,111.9c-0.8,0-1.5-0.7-1.5-1.5v-9.6c0-0.8,0.7-1.5,1.5-1.5s1.5,0.7,1.5,1.5v9.6C89.6,111.3,88.9,111.9,88.1,111.9z"
			/>
		<path d="M88.1,112.4c-1.1,0-2-0.9-2-2v-9.6c0-1.1,0.9-2,2-2s2,0.9,2,2v9.6C90.1,111.5,89.2,112.4,88.1,112.4z M88.1,99.9
			c-0.6,0-1,0.4-1,1v9.6c0,0.6,0.4,1,1,1s1-0.4,1-1v-9.6C89.1,100.3,88.7,99.9,88.1,99.9z"/>
</svg>
