<svg id="Layer_1" data-name="Layer 1" xmlns="http://www.w3.org/2000/svg" viewBox="0 0 128 128"><title>rebuilding_3-lg</title><path d="M124,122.5H104.25V94.64a1.51,1.51,0,0,0-.65-1.23L81.4,78.05a1.52,1.52,0,0,0-1.71,0L57.49,93.41a1.5,1.5,0,0,0-.64,1.23V122.5H33.63s0-.08,0-.12V20.79h14v6.53a1.46,1.46,0,0,0,.16.66,1.5,1.5,0,0,0,1,1.74c1,.33,25,8.07,74.84,8.07a1.5,1.5,0,0,0,0-3c-44,0-68.18-6.26-73-7.65V20.79h9.59a1.5,1.5,0,0,0,0-3H33.64V4a1.5,1.5,0,0,0-3,0V17.79H4a1.5,1.5,0,0,0,0,3H14.62v6.53a1.5,1.5,0,1,0,3,0V20.79h13V122.38s0,.08,0,.12H4a1.5,1.5,0,0,0,0,3H124a1.5,1.5,0,0,0,0-3Zm-37.45,0h-12V101.8h12Zm3,0V100.3a1.5,1.5,0,0,0-1.5-1.5h-15a1.5,1.5,0,0,0-1.5,1.5v22.2H59.85V95.43l20.7-14.32,20.7,14.32V122.5Z"/></svg>