<svg id="Layer_1" data-name="Layer 1" xmlns="http://www.w3.org/2000/svg" viewBox="0 0 128 128"><title>rebuilding_1-lg</title><path d="M64,82.41a4.32,4.32,0,1,0,4.32,4.31A4.32,4.32,0,0,0,64,82.41Z"/><path d="M124,122.5H108.23s0-.08,0-.12v-6.52h7.13a1.5,1.5,0,0,0,1.5-1.5V98.27a1.5,1.5,0,0,0-1.5-1.5h-7.13V41a1.5,1.5,0,0,0-3,0v4.32c-5.71,1.73-39.41,10.9-82.48.16V41a1.5,1.5,0,0,0-3,0v4.67A23.46,23.46,0,0,1,6.48,50.42a1.5,1.5,0,0,0,0,3h0a25.53,25.53,0,0,0,13.25-4.15v73.11s0,.08,0,.12H4a1.5,1.5,0,0,0,0,3H124a1.5,1.5,0,0,0,0-3ZM113.87,99.77v13.09h-5.63V99.77ZM22.76,122.38V48.58a175.83,175.83,0,0,0,41.69,5c20.79,0,35.75-3.73,40.79-5.18v73.94s0,.08,0,.12H22.75S22.76,122.42,22.76,122.38Z"/></svg>