<svg xmlns="http://www.w3.org/2000/svg" viewBox="0 0 128 128"><title>recycle</title><path d="M3,43l7.72,6L3.41,62.93C-.23,69.35,6,75.61,10,77.79s10,2.39,15.68,2.32L35.89,63.4l7.72,4.17L30.21,42.74ZM4.09,77.06,20.67,107.7C24,112,30.29,113,36.8,112.8H54.29v-29l-33.17-.23C16,83.87,9.24,82.78,4.09,77.06ZM108.41,20.6l-9,3.83L90.74,11.32C86.88,5,78.39,7.46,74.55,9.88s-6.94,7.58-9.63,12.59l9.66,17-7.4,4.73,28.22.32ZM78.05,5.07,43.22,4.72c-5.34.85-9.27,5.86-12.29,11.63l-8.48,15.3L47.83,45.71,64.11,16.82C66.33,12.17,70.55,6.8,78.05,5.07Zm1.52,118.21,1-9.75,15.66-1.21c7.37-.32,9.37-8.93,9.11-13.46S102.09,89.11,99,84.34l-19.59.18-.55-8.76-14,24.53Zm28.3-19L125.06,74c1.85-5.08-.63-10.95-4.21-16.39l-9.27-14.83L87,58.11l17.37,28.25C107.35,90.56,110,96.85,107.87,104.25Z"/></svg>