<svg id="Layer_1" data-name="Layer 1" xmlns="http://www.w3.org/2000/svg" viewBox="0 0 128 128"><path d="M65,31c-12.35,0-21.76,7.14-21.76,21.51v9.66a4.75,4.75,0,0,1,2.44-1.13,6.85,6.85,0,0,1,0-.79A5.87,5.87,0,0,1,48.25,56a6,6,0,0,1,5-.69,7.89,7.89,0,0,1,3,1.67V52.27c0-6.64,4-8.9,8.74-8.9s8.74,2.26,8.74,8.9V71.94c0,6.64-4,8.9-8.74,8.9l-.62,0a11.16,11.16,0,0,0-.65,4.11s1.8.11,7.81-3.77c2.53-1.63,4.83-2.24,6.95-1.67a7.29,7.29,0,0,1,4.62,4.21,6.39,6.39,0,0,1,.26.6,24,24,0,0,0,3.31-13V52.52C86.68,38.15,77.36,31,65,31Z"/><path d="M51.93,60.84A2.45,2.45,0,0,0,48.66,63a5.29,5.29,0,0,0,4,5.34,2.43,2.43,0,0,0,2.93-2.37,4.24,4.24,0,0,0-.54-2.39A5.33,5.33,0,0,0,51.93,60.84Z"/><path d="M45.33,66.75a1.76,1.76,0,0,0-.37,2,3.48,3.48,0,0,0,2.85,2.39,1.58,1.58,0,0,0,1.95-1.45,2.61,2.61,0,0,0-.1-.85,3.85,3.85,0,0,0-.48-1,3.68,3.68,0,0,0-2-1.41A1.83,1.83,0,0,0,45.33,66.75Z"/><path d="M43,71.8a1.39,1.39,0,0,0,0,1.5,2.93,2.93,0,0,0,2.28,1.59,1.48,1.48,0,0,0,1.6-.62,1.53,1.53,0,0,0-.1-1.77,3.06,3.06,0,0,0-2.17-1.36A1.61,1.61,0,0,0,43,71.8Z"/><path d="M45.06,78.6a1.21,1.21,0,0,0,1-1.79,2.57,2.57,0,0,0-2.88-1.3,1.21,1.21,0,0,0-.71,1.89A2.74,2.74,0,0,0,45.06,78.6Z"/><path d="M45.12,82.54a1.16,1.16,0,0,0,1.17-.76,1.29,1.29,0,0,0-.46-1.34A2.3,2.3,0,0,0,44,79.8a1.08,1.08,0,0,0-.9,1.71A2.28,2.28,0,0,0,45.12,82.54Z"/><path d="M58.42,76.69c-.08-1.12-.74-3.15-1.92-3.81a4,4,0,0,0-3.88.05,8.61,8.61,0,0,0-3.73,3.61c-2.21,3.88-1.11,9,2,12.54,4.92,5.52,15.42,6.82,21.44,4.79,2.77-.93,6-3.56,4.83-6.5s-4.58-3.12-8.09-1-4.94,1.78-4.94,1.78a12,12,0,0,0,3.94,5C58.54,90.36,58.72,81,58.42,76.69Z"/><path d="M22,52.42l.37-1.25a.22.22,0,0,0-.15-.3L9.65,47.2l1.25-4.3a.23.23,0,0,0-.15-.31l-1.12-.32a.22.22,0,0,0-.29.17l-3,10.32a.22.22,0,0,0,.16.29l1.12.33a.22.22,0,0,0,.29-.16l1.25-4.3,12.57,3.67A.22.22,0,0,0,22,52.42Z"/><path d="M32.48,31.33a.2.2,0,0,0-.32,0L27.62,37l-4-3.25,4.05-5a.22.22,0,0,0-.05-.34l-.9-.72a.22.22,0,0,0-.34,0l-4,5-3.8-3.09,4.35-5.35a.22.22,0,0,0,0-.33L22,23.16a.2.2,0,0,0-.32,0l-5.33,6.56a.21.21,0,0,0,0,.34l11.24,9.14a.22.22,0,0,0,.34,0l5.51-6.79a.2.2,0,0,0,0-.32Z"/><path d="M40.73,26.65l7.74-4a.21.21,0,0,0,.1-.31l-.54-1a.21.21,0,0,0-.31-.1l-6.38,3.34L39,19.93l5.68-3a.21.21,0,0,0,.09-.33l-.53-1c-.08-.15-.19-.19-.32-.12l-5.69,3-2.27-4.33L42,10.93a.21.21,0,0,0,.1-.31l-.55-1a.2.2,0,0,0-.31-.09l-7.48,3.92a.22.22,0,0,0-.12.32L40.4,26.57C40.47,26.7,40.58,26.73,40.73,26.65Z"/><path d="M57.42,20.15l1.29-.1a.2.2,0,0,0,.21-.24l-.38-5.28L59.84,13l6,6.4a.31.31,0,0,0,.3.13l1.69-.12c.19,0,.26-.15.12-.31l-7-7.44,5.52-6.86c.13-.16,0-.3-.17-.28l-1.67.12a.43.43,0,0,0-.3.17l-5.94,7.45-.5-6.9a.21.21,0,0,0-.25-.21l-1.29.09c-.17,0-.25.1-.23.25l1,14.46C57.16,20.08,57.25,20.16,57.42,20.15Z"/><path d="M79.83,22.56c3.32,1.2,6.08-.06,7.22-3.22l1.5-4.16c1.16-3.22-.18-5.93-3.5-7.13s-6.08,0-7.25,3.27l-1.49,4.15C75.17,18.64,76.5,21.36,79.83,22.56ZM78,16.08l1.5-4.15c.82-2.31,2.64-3.16,5-2.32a3.53,3.53,0,0,1,2.35,5l-1.5,4.15c-.8,2.22-2.6,3.09-4.94,2.24S77.2,18.3,78,16.08Z"/><path d="M93.91,30.26a.23.23,0,0,0,.34,0l4.53-4.43c1.18-1.16,2.68-2.71,3.82-3.91l0,0c-.35,1.07-.72,2.4-1,3.52l-2.39,10a.31.31,0,0,0,.1.31l1,1a.21.21,0,0,0,.33,0l10.36-10.13a.2.2,0,0,0,0-.32l-.91-.93a.22.22,0,0,0-.33,0l-4.53,4.43c-1.25,1.22-2.78,2.77-4,4l-.06,0c.33-1.06.66-2.32,1-3.39l2.59-10.28a.38.38,0,0,0-.08-.33l-1-1.05a.21.21,0,0,0-.34,0L93,29a.21.21,0,0,0,0,.34Z"/><path d="M121.3,45.55l-1.62-4.84c-.05-.16-.15-.22-.29-.17l-13.75,4.6a.22.22,0,0,0-.14.31l1.62,4.84c1.08,3.22,3.53,4.56,6.75,3.48l4.06-1.36C121.19,51.32,122.38,48.76,121.3,45.55Zm-4,5.11L113.28,52c-2.28.77-3.84-.08-4.58-2.28l-1.12-3.35,11-3.7L119.75,46C120.49,48.25,119.69,49.88,117.35,50.66Z"/><path d="M30,88.93a.42.42,0,0,0-.63-.15l-2.42,1.49a60.59,60.59,0,0,0-5,3.45l-.07-.07a55.39,55.39,0,0,0,3.38-5.14l2-3.41a.53.53,0,0,0,0-.62l-1.95-3.17a.42.42,0,0,0-.63-.15L11.38,89.32a.42.42,0,0,0-.15.64l1.85,3a.41.41,0,0,0,.63.16L15.6,92a52.16,52.16,0,0,0,5.51-4l.07.06a40.42,40.42,0,0,0-3.72,5.62L15.82,96.8a.59.59,0,0,0,0,.64l1.93,3.14a.42.42,0,0,0,.64.16l13.25-8.17a.4.4,0,0,0,.15-.63Z"/><path d="M52.72,105.58l-3.29-1.5a.42.42,0,0,0-.61.23l-4,8.93c-.62,1.37-1.6,1.79-2.77,1.25s-1.51-1.54-.89-2.91l4-8.92a.4.4,0,0,0-.23-.61l-3.3-1.5a.42.42,0,0,0-.61.23l-4,8.84c-1.79,3.95-.68,7,3.23,8.76s6.91.6,8.7-3.35l4-8.84A.41.41,0,0,0,52.72,105.58Z"/><path d="M77.25,118.09l-5.81.73L70,107.08a.41.41,0,0,0-.51-.4l-3.55.44a.42.42,0,0,0-.4.52l1.94,15.45a.43.43,0,0,0,.52.4l9.81-1.24a.4.4,0,0,0,.4-.51l-.41-3.25A.4.4,0,0,0,77.25,118.09Z"/><path d="M103.15,104.81a.42.42,0,0,0-.65-.09l-4.67,3.52L90.7,98.8a.41.41,0,0,0-.64-.09l-2.86,2.15a.41.41,0,0,0-.09.64l9.37,12.43a.41.41,0,0,0,.65.09l7.9-6a.42.42,0,0,0,.09-.65Z"/><rect x="108.47" y="78.22" width="4.5" height="16.49" rx="0.46" transform="translate(-15.33 148.47) rotate(-64.18)"/></svg>