<svg id="Layer_1" data-name="Layer 1" xmlns="http://www.w3.org/2000/svg" viewBox="0 0 128 128"><g id="Group_6249" data-name="Group 6249"><g id="Group_6246" data-name="Group 6246"><path id="Path_6677" data-name="Path 6677" d="M64.67,30.17c-12.39,0-21.83,7.16-21.83,21.57v9.67a4.89,4.89,0,0,1,2.45-1.13,7,7,0,0,1,0-.79,5.86,5.86,0,0,1,2.54-4.24,6,6,0,0,1,5-.69,8,8,0,0,1,3,1.68V51.48c0-6.65,4.05-8.93,8.76-8.93s8.77,2.28,8.77,8.93V71.2c0,6.65-4.05,8.93-8.77,8.93l-.62,0a11.08,11.08,0,0,0-.66,4.11s1.81.11,7.84-3.78c2.53-1.63,4.84-2.24,7-1.67A7.32,7.32,0,0,1,82.82,83c.1.2.17.4.25.6a24,24,0,0,0,3.33-13V51.74C86.4,37.33,77.05,30.17,64.67,30.17Z"/><path id="Path_6678" data-name="Path 6678" d="M52.31,67.55a2.45,2.45,0,0,0,2.89-1.9,2.61,2.61,0,0,0,0-.48,4.27,4.27,0,0,0-.54-2.4,5.36,5.36,0,0,0-3.15-2.7,2.45,2.45,0,0,0-3.14,1.48,2.29,2.29,0,0,0-.14.64A5.32,5.32,0,0,0,52.31,67.55Z"/><path id="Path_6679" data-name="Path 6679" d="M44.94,66a1.76,1.76,0,0,0-.37,2,3.48,3.48,0,0,0,2.86,2.4,1.58,1.58,0,0,0,1.91-1.16,1.35,1.35,0,0,0,0-.29,2.51,2.51,0,0,0-.1-.86,3.84,3.84,0,0,0-.48-1,3.64,3.64,0,0,0-2-1.41A1.8,1.8,0,0,0,44.94,66Z"/><path id="Path_6680" data-name="Path 6680" d="M44.28,70.4a1.58,1.58,0,0,0-1.64.67,1.37,1.37,0,0,0,0,1.49A2.94,2.94,0,0,0,45,74.16a1.5,1.5,0,0,0,1.61-.62,1.55,1.55,0,0,0-.11-1.78A3.06,3.06,0,0,0,44.28,70.4Z"/><path id="Path_6681" data-name="Path 6681" d="M44.67,77.88a1.22,1.22,0,0,0,1.14-1.29,1.16,1.16,0,0,0-.15-.51,2.57,2.57,0,0,0-2.89-1.29,1.19,1.19,0,0,0-.91,1.43,1.28,1.28,0,0,0,.21.46A2.71,2.71,0,0,0,44.67,77.88Z"/><path id="Path_6682" data-name="Path 6682" d="M43.58,79.08a1.09,1.09,0,0,0-1.11,1.08,1.13,1.13,0,0,0,.2.64,2.29,2.29,0,0,0,2.06,1,1.17,1.17,0,0,0,1.17-.76,1.29,1.29,0,0,0-.45-1.34A2.32,2.32,0,0,0,43.58,79.08Z"/><path id="Path_6683" data-name="Path 6683" d="M68.75,85.69c-3.41,2.09-5,1.78-5,1.78a12.05,12.05,0,0,0,4,5.06c-9.56-2.86-9.39-12.2-9.69-16.57-.07-1.12-.74-3.16-1.92-3.81a4.07,4.07,0,0,0-3.89,0,8.57,8.57,0,0,0-3.74,3.63c-2.22,3.88-1.11,9.06,2,12.57C55.46,93.92,66,95.23,72,93.2c2.77-.94,6-3.58,4.85-6.52C75.67,83.59,72.27,83.54,68.75,85.69Z"/></g><g id="Group_6247" data-name="Group 6247"><path id="Path_6684" data-name="Path 6684" d="M21.93,45.32a.27.27,0,0,1-.35.13h0L6.81,36.79a.27.27,0,0,1-.11-.36l0,0,6-10.28a.25.25,0,0,1,.33-.14l.05,0,14.74,8.64A.25.25,0,0,1,28,35l0,0-.79,1.34a.25.25,0,0,1-.33.13l0,0L13.48,28.67,9.3,35.8l13.32,7.81a.24.24,0,0,1,.12.32s0,0,0,0Z"/><path id="Path_6685" data-name="Path 6685" d="M47.24,20.8c-.19.06-.3-.05-.29-.24l.64-5.77L38.47,5.47a.2.2,0,0,1,.09-.36l1.63-.55a.34.34,0,0,1,.4.1l7.31,7.71L48.76,2A.29.29,0,0,1,49,1.65l1.62-.54a.22.22,0,0,1,.29.1.2.2,0,0,1,0,.13L49.11,20a.35.35,0,0,1-.26.31Z"/><path id="Path_6686" data-name="Path 6686" d="M93.42,6.47a.26.26,0,0,1,.19.32s0,0,0,0l-.5,1.28a.26.26,0,0,1-.34.16h0L87.81,6.35l-5.59,14.4a.26.26,0,0,1-.33.16l0,0-1.42-.55a.26.26,0,0,1-.19-.33,0,0,0,0,1,0,0L85.83,5.59,80.91,3.68a.24.24,0,0,1-.17-.3.43.43,0,0,1,0,0L81.25,2a.25.25,0,0,1,.31-.17l0,0Z"/><path id="Path_6687" data-name="Path 6687" d="M102.58,37.15a.27.27,0,0,1,.07-.37l0,0,15-8.1a.27.27,0,0,1,.37.1v0l.74,1.36a.25.25,0,0,1-.06.35l0,0-5.36,2.89,1.85,3.43c1.85,3.45,1.09,6.39-2,8s-6,.77-7.88-2.62Zm2.6.67,1.9,3.52c1.25,2.32,2.92,2.82,5.11,1.64s2.59-2.79,1.34-5.12l-1.9-3.51Z"/></g><g id="Group_6248" data-name="Group 6248"><path id="Path_6688" data-name="Path 6688" d="M7.79,92.11a.45.45,0,0,1,.06-.63l.09-.06,14.27-9a.45.45,0,0,1,.63.06l.06.09L25,85.85a.45.45,0,0,1-.06.63l-.09.06-4.65,2.93h6.7a.6.6,0,0,1,.6.33l2.6,4.12c.21.34.08.6-.35.57l-8.85-.76-4.79,10.39c-.15.36-.47.38-.68,0l-2.48-3.93a.66.66,0,0,1,0-.69L16,93.27,14.51,93l-4,2.51a.45.45,0,0,1-.63-.06l-.06-.1Z"/><path id="Path_6689" data-name="Path 6689" d="M51,107.4a.46.46,0,0,1,.54-.34l.1,0,3.64,1.32a.45.45,0,0,1,.34.53.49.49,0,0,1,0,.11l-5.74,15.86a.46.46,0,0,1-.54.34l-.1,0-3.64-1.32a.44.44,0,0,1-.34-.54.69.69,0,0,1,0-.1l2.12-5.85L43.2,115.9l-2.12,5.86a.45.45,0,0,1-.54.33.29.29,0,0,1-.1,0l-3.65-1.32a.45.45,0,0,1-.33-.54l0-.1,5.75-15.87a.45.45,0,0,1,.53-.34l.11,0,3.64,1.32a.46.46,0,0,1,.34.54.42.42,0,0,1,0,.1l-2.07,5.73,4.16,1.51Z"/><path id="Path_6690" data-name="Path 6690" d="M65.75,126.91c-.38,0-.55-.18-.43-.54L67,121.13,60.72,110c-.18-.34,0-.57.33-.6l4.23-.36a.62.62,0,0,1,.61.35l3,6.25L70.67,109a.56.56,0,0,1,.54-.44l4.21-.35c.37,0,.54.18.45.54l-5.35,17.4a.6.6,0,0,1-.54.45Z"/><path id="Path_6691" data-name="Path 6691" d="M87.37,123.28a.45.45,0,0,1-.62-.11.31.31,0,0,1,0-.1L85,119.92a.47.47,0,0,1,.15-.64l0,0c.92-.67,1.16-1.59.77-3.2a55.88,55.88,0,0,0-4.08-9.75.49.49,0,0,1,.19-.67l0,0,10.09-5.43a.45.45,0,0,1,.62.11.31.31,0,0,1,0,.1l8,14.86a.45.45,0,0,1-.11.62l-.1.05-3.41,1.84a.45.45,0,0,1-.62-.11.47.47,0,0,1-.06-.09l-6.07-11.3-2.58,1.39a38.81,38.81,0,0,1,2.93,7.87C91.62,119.35,90.35,121.53,87.37,123.28Z"/><path id="Path_6692" data-name="Path 6692" d="M120,95c-2.41,3.75-6.15,4.48-9.81,2.13l-.9,1.41,5.25,3.38a.45.45,0,0,1,.21.6l-.06.1-2.07,3.21a.45.45,0,0,1-.6.21l-.09-.06L97.7,96.86a.46.46,0,0,1-.21-.6l.06-.09L99.62,93a.44.44,0,0,1,.6-.21.18.18,0,0,1,.09.06l5.11,3.28.91-1.4c-3.58-2.3-4.37-6-2-9.71s6-4.56,9.52-2.31l4,2.61C121.54,87.6,122.37,91.28,120,95ZM116,92.49c.77-1.19.39-2.3-.85-3.1l-3.81-2.45a2.15,2.15,0,1,0-2.32,3.61l3.8,2.45c1.24.8,2.41.69,3.18-.5Z"/></g></g></svg>