<svg id="Layer_1" data-name="Layer 1" xmlns="http://www.w3.org/2000/svg" viewBox="0 0 128 128"><path d="M111.38,46.34a11.89,11.89,0,0,0,.77-3.64c0-7.32-5-16.26-5.9-17.84-.72-5.86-17-8.25-24.53-9l-13-11.95a7.78,7.78,0,0,0-10.47,0L45.13,16c-8.73,1-22.74,3.43-23.38,8.92-.92,1.6-5.9,10.59-5.9,17.83a11,11,0,0,0,.48,2.89A15.83,15.83,0,0,0,19.85,52s0,.1-.05.15c-.25,1.89-6,45.72-.2,59.67-1.22,1.69-4.13,6.22-2.9,9.47.41,1.09,1.45,2.48,4.11,3l.1,0c.29,0,19.65,1.93,44.42,1.93a377.87,377.87,0,0,0,39.79-1.93c.5,0,5-.43,6-3.47.74-2.26-.74-5-4.52-8.37,1.78-4.11,7.89-22-.18-58.76A15.86,15.86,0,0,0,111.38,46.34Zm-7.6-21.08c0,1.36-2.66,3-7.56,4.35a1.2,1.2,0,0,0-.39-.8l-11-10.1C98.56,20.51,103.78,23.6,103.78,25.26ZM60,5.71a5.26,5.26,0,0,1,7.09,0L93.71,30.25c-6.88,1.62-17,2.82-29.71,2.82-13.18,0-23.63-1.3-30.51-3ZM42,18.87,31.16,28.81a1.14,1.14,0,0,0-.32.52c-4.3-1.32-6.62-2.8-6.62-4.07C24.22,23.67,29.12,20.7,42,18.87ZM18.35,42.7c0-5.15,2.94-11.56,4.59-14.77,4.79,5,23,7.64,41.06,7.64s36.28-2.62,41.06-7.65c1.66,3.19,4.59,9.58,4.59,14.78a9.73,9.73,0,0,1-.63,2.84c-1.91,5.67-7,9.26-14.43,10.1A276.56,276.56,0,0,1,64,57.42a274.89,274.89,0,0,1-30.64-1.79c-4.47-.51-12.31-2.58-14.62-10.72A8.49,8.49,0,0,1,18.35,42.7Zm85.58,69.42a1.24,1.24,0,0,0,.29,1.54c4.76,4,4.64,5.86,4.49,6.32-.37,1.15-2.7,1.68-3.81,1.76-39.38,4.23-81.95.17-83.69,0-1.78-.35-2.07-1.13-2.17-1.39-.72-1.91,1.44-5.71,3-7.65a1.26,1.26,0,0,0,.14-1.32C16.8,100.26,21.08,62.2,22.08,54a22,22,0,0,0,11,4.12A279.3,279.3,0,0,0,64,59.92a278.47,278.47,0,0,0,30.88-1.8,23.42,23.42,0,0,0,9.28-2.93C112.67,95,104,112,103.93,112.12Z"/><path d="M55.55,88.87l7.21-7.11c.24-.23.13-.47-.17-.47H60.11a.57.57,0,0,0-.48.2L52,89V74.93c0-.24-.14-.37-.41-.37h-2a.33.33,0,0,0-.37.37V98.49a.33.33,0,0,0,.37.37h2c.27,0,.41-.13.41-.37v-6l1.73-1.67,6.46,7.86a.61.61,0,0,0,.51.23h2.52c.3,0,.4-.2.2-.47Z"/><path d="M78.57,82.24A16.83,16.83,0,0,0,72,80.91c-4.25,0-7.62,1.94-7.62,7.08v3.4c0,4.72,3.23,6.93,7.31,6.93a10.49,10.49,0,0,0,4.36-1v.82c.1,3.47-1.33,5-4.39,5a7.86,7.86,0,0,1-5.07-1.91.33.33,0,0,0-.54.07l-1,1.46c-.13.24-.13.41,0,.55a9.75,9.75,0,0,0,6.56,2.34c5.07,0,7.17-2.82,7.17-7.27V82.68A.41.41,0,0,0,78.57,82.24ZM76.09,94.78a8,8,0,0,1-4.15,1c-2.69,0-4.69-1.15-4.69-4.41V88c0-3.37,1.9-4.56,4.82-4.56a14.71,14.71,0,0,1,4,.58Z"/><path d="M63.43,12.74a1.52,1.52,0,1,0-1.52-1.52A1.52,1.52,0,0,0,63.43,12.74Z"/><circle cx="80.22" cy="24.88" r="1.51"/><circle cx="69.06" cy="16.59" r="1.51"/><circle cx="73.74" cy="25.07" r="1.51"/><path d="M52.61,21a1.52,1.52,0,1,0-1.52-1.51A1.52,1.52,0,0,0,52.61,21Z"/><path d="M46.77,26.2a1.51,1.51,0,1,0-1.51-1.51A1.51,1.51,0,0,0,46.77,26.2Z"/><circle cx="54.02" cy="26.05" r="1.51"/></svg>