<svg id="Layer_1" data-name="Layer 1" xmlns="http://www.w3.org/2000/svg" viewBox="0 0 128 128"><path d="M124.88,47.22,108.84,13l0-.06,0-.11,0-.07-.06-.07a.27.27,0,0,0-.07-.08.23.23,0,0,0-.07-.07.46.46,0,0,1-.07-.07.18.18,0,0,1-.07,0l-.09-.06-.08,0,0,0h0l-.1,0-.09,0-.07,0h-.11l-.13,0h-.15l-.14,0h-.19l-39,7.64a4.8,4.8,0,0,0-1.52-1.71A4.88,4.88,0,0,0,59,21.51L20.29,28.68h-.07l-.13,0-.11,0-.06,0h0l-.05,0-.11.06-.06,0-.08.06-.09.07,0,.06a.27.27,0,0,0-.07.08l-.07.08,0,.06-.06.12s0,0,0,.06L3.06,63.79a1.49,1.49,0,0,0-1.28,1.47,18.74,18.74,0,0,0,37.48,0,1.49,1.49,0,0,0-1.34-1.48L22.7,31.28l36.83-6.82a4.87,4.87,0,0,0,2.79,2.31V112.9h-19a1.5,1.5,0,1,0,0,3H84.34a1.5,1.5,0,0,0,0-3h-19V26.76a4.84,4.84,0,0,0,2.55-1.88,4.91,4.91,0,0,0,.78-2.16l36.21-7.08L90,47.23a1.49,1.49,0,0,0-1.28,1.47,18.74,18.74,0,1,0,37.48,0A1.49,1.49,0,0,0,124.88,47.22Zm-3.32,0H93.35l14.13-30.07Zm-101-13.51L34.6,63.76H6.39Zm0,47.31A15.77,15.77,0,0,1,4.85,66.76H36.09l.09.08A15.75,15.75,0,0,1,20.52,81ZM65.38,23.19a1.88,1.88,0,0,1-1.21.8,2.07,2.07,0,0,1-.35,0h0a1.9,1.9,0,0,1-.33-3.76,2.19,2.19,0,0,1,.36,0,1.88,1.88,0,0,1,1.86,1.54h0A1.88,1.88,0,0,1,65.38,23.19Zm42.1,41.25A15.77,15.77,0,0,1,91.81,50.2h31.24l.09.08A15.76,15.76,0,0,1,107.48,64.44Z"/></svg>