<svg id="Layer_1" data-name="Layer 1" xmlns="http://www.w3.org/2000/svg" viewBox="0 0 128 128"><defs><style>.cls-1{fill-rule:evenodd;}</style></defs><path class="cls-1" d="M126.42,64c0-8.68-10.44-16.19-26.65-20.68a81.07,81.07,0,0,0,1.69-8c2-12.85-.22-21.84-6.25-25.32S80.28,9,70.15,17.19c-2.05,1.65-4.1,3.5-6.15,5.51-2-2-4.1-3.86-6.15-5.51C47.72,9,38.82,6.46,32.79,10s-8.25,12.47-6.25,25.32a81.07,81.07,0,0,0,1.69,8C12,47.81,1.58,55.32,1.58,64S12,80.19,28.23,84.68a81.07,81.07,0,0,0-1.69,8c-2,12.85.22,21.84,6.25,25.32a11.66,11.66,0,0,0,6,1.52c5.36,0,11.93-3,19.11-8.76,2-1.65,4.1-3.5,6.15-5.51,2,2,4.1,3.86,6.15,5.51,7.18,5.78,13.75,8.76,19.11,8.76a11.66,11.66,0,0,0,5.95-1.52c6-3.48,8.25-12.47,6.25-25.32a81.07,81.07,0,0,0-1.69-8C116,80.19,126.42,72.68,126.42,64ZM72,19.53c9-7.22,16.87-9.76,21.68-7s6.56,10.9,4.79,22.26c-.39,2.5-.94,5.1-1.63,7.76a126.48,126.48,0,0,0-18.76-3,127.4,127.4,0,0,0-12-14.7C68.08,22.9,70.06,21.12,72,19.53ZM83.13,75c-2.12,3.67-4.35,7.19-6.66,10.53-4,.33-8.21.52-12.47.52s-8.44-.19-12.47-.52C49.22,82.23,47,78.71,44.87,75s-4-7.37-5.8-11c1.75-3.67,3.68-7.37,5.8-11s4.35-7.19,6.66-10.53c4-.33,8.21-.52,12.47-.52s8.44.19,12.47.52C78.78,45.77,81,49.29,83.13,53s4.05,7.37,5.8,11C87.18,67.67,85.25,71.37,83.13,75Zm7.41-7.5a121.16,121.16,0,0,1,5.51,14.93,123.56,123.56,0,0,1-15.7,2.72q2.78-4.17,5.38-8.65C87.45,73.55,89.06,70.54,90.54,67.54ZM64,101A120.9,120.9,0,0,1,53.8,88.76c3.31.21,6.72.33,10.2.33s6.89-.12,10.2-.33A120.9,120.9,0,0,1,64,101ZM47.65,85.19A123.56,123.56,0,0,1,32,82.47a121.16,121.16,0,0,1,5.51-14.93c1.48,3,3.09,6,4.81,9S45.8,82.41,47.65,85.19ZM37.46,60.46A121.16,121.16,0,0,1,32,45.53a123.56,123.56,0,0,1,15.7-2.72Q44.88,47,42.27,51.46C40.55,54.45,38.94,57.46,37.46,60.46ZM64,27A120.9,120.9,0,0,1,74.2,39.24c-3.31-.21-6.72-.33-10.2-.33s-6.89.12-10.2.33A120.9,120.9,0,0,1,64,27ZM85.73,51.46q-2.6-4.49-5.38-8.65a123.56,123.56,0,0,1,15.7,2.72,121.16,121.16,0,0,1-5.51,14.93C89.06,57.46,87.45,54.45,85.73,51.46ZM29.5,34.8c-1.77-11.36,0-19.48,4.79-22.26a8.84,8.84,0,0,1,4.45-1.09c4.63,0,10.64,2.78,17.23,8.08,2,1.59,4,3.37,5.92,5.31a127.4,127.4,0,0,0-12,14.7,126.48,126.48,0,0,0-18.76,3C30.44,39.9,29.89,37.3,29.5,34.8ZM4.58,64c0-7.16,9.74-13.66,24.46-17.72A128,128,0,0,0,35.76,64,128,128,0,0,0,29,81.72C14.32,77.66,4.58,71.16,4.58,64ZM56,108.47c-9,7.22-16.87,9.76-21.68,7s-6.56-10.9-4.79-22.26c.39-2.5.94-5.1,1.63-7.76a126.48,126.48,0,0,0,18.76,3,127.4,127.4,0,0,0,12,14.7C59.92,105.1,57.94,106.88,56,108.47ZM98.5,93.2c1.77,11.36,0,19.48-4.79,22.26s-12.71.23-21.68-7c-2-1.59-4-3.37-5.92-5.31a127.4,127.4,0,0,0,12-14.7,126.48,126.48,0,0,0,18.76-3C97.56,88.1,98.11,90.7,98.5,93.2ZM99,81.72A128,128,0,0,0,92.24,64,128,128,0,0,0,99,46.28c14.72,4.06,24.46,10.56,24.46,17.72S113.68,77.66,99,81.72Z"/><path class="cls-1" d="M64,56.47c-9.81.08-9.82,15,0,15.06S73.88,56.57,64,56.47Z"/></svg>