<svg id="Layer_1" data-name="Layer 1" xmlns="http://www.w3.org/2000/svg" viewBox="0 0 64 64"><title>search-md</title><path d="M58.19,63a4.91,4.91,0,0,1-3.48-1.44L35.87,42.73a22.74,22.74,0,1,1,6.92-7L61.68,54.59a4.94,4.94,0,0,1,0,7A4.91,4.91,0,0,1,58.19,63ZM37.52,41.55l18.6,18.6A2.93,2.93,0,0,0,60.27,56L41.64,37.37A22.65,22.65,0,0,1,37.52,41.55ZM23.57,3A20.68,20.68,0,1,0,44.25,23.68,20.71,20.71,0,0,0,23.57,3ZM10.91,29.78a1,1,0,0,1-.93-.63,14.67,14.67,0,0,1,8.12-19A1,1,0,1,1,18.84,12a12.65,12.65,0,0,0-7,16.44,1,1,0,0,1-.55,1.31A1,1,0,0,1,10.91,29.78Z"/></svg>