<svg xmlns="http://www.w3.org/2000/svg" viewBox="0 0 128 128"><title>select-lg</title><path d="M93.82,75.15H70.63V59a7,7,0,0,0-14,0V82.93H53.84A9,9,0,0,0,47.1,85.7a7.64,7.64,0,0,0-1.87,6,45.07,45.07,0,0,0,1.27,5.11l5.34,18.62a.65.65,0,0,0,0,.13c2,5,5.33,6.11,7.8,6.11H92.51a8,8,0,0,0,8-8l0-32.25A6.32,6.32,0,0,0,93.82,75.15Zm-1.31,43.49H59.68c-2.25,0-3.87-1.36-5-4.14L49.38,95.92a38.09,38.09,0,0,1-1.16-4.55,4.6,4.6,0,0,1,1.11-3.66,6,6,0,0,1,4.51-1.78h2.78V94.7a1.5,1.5,0,0,0,3,0V59a4,4,0,0,1,8,0V83.92a1.5,1.5,0,1,0,3,0V78.15h7v5.77a1.5,1.5,0,0,0,3,0V78.15h7v5.77a1.5,1.5,0,0,0,3,0V78.15h3.28a3.3,3.3,0,0,1,3.63,3.27l0,32.24A5,5,0,0,1,92.51,118.64Z"/><path d="M126,13.09H93a1.5,1.5,0,0,0-1.5,1.5V59.45A1.5,1.5,0,0,0,93,61h33a1.5,1.5,0,0,0,1.5-1.5V14.59A1.5,1.5,0,0,0,126,13.09ZM124.5,58h-30V16.09h30Z"/><path d="M35,13.09H2a1.5,1.5,0,0,0-1.5,1.5V59.45A1.5,1.5,0,0,0,2,61H35a1.5,1.5,0,0,0,1.5-1.5V14.59A1.5,1.5,0,0,0,35,13.09ZM33.47,58H3.5V16.09h30Z"/><path d="M53.5,66.17a1.5,1.5,0,0,0-1.5-1.5H44.15V9.36h39.7V64.67H75a1.5,1.5,0,0,0,0,3H85.35a1.5,1.5,0,0,0,1.5-1.5V7.86a1.5,1.5,0,0,0-1.5-1.5H42.65a1.5,1.5,0,0,0-1.5,1.5V66.17a1.5,1.5,0,0,0,1.5,1.5H52A1.5,1.5,0,0,0,53.5,66.17Z"/></svg>