<svg id="Layer_1" data-name="Layer 1" xmlns="http://www.w3.org/2000/svg" viewBox="0 0 64 64"><title>shield-md</title><path d="M32,63a1.12,1.12,0,0,1-.31,0c-.26-.08-26.37-8.69-26.37-31.47V10.37A1,1,0,0,1,6,9.42L31.69,1.05a.94.94,0,0,1,.62,0L58,9.42a1,1,0,0,1,.69.95V31.48C58.68,54.26,32.57,62.87,32.3,63A1,1,0,0,1,32,63ZM7.32,11.1V31.48c0,20,21.82,28.45,24.68,29.46,2.85-1,24.68-9.45,24.68-29.46V11.1L32,3.05ZM32,41.15a3.4,3.4,0,0,1-2.41-1L21.1,31.67a3.43,3.43,0,0,1,0-4.84,3.5,3.5,0,0,1,4.83,0L32,32.89l11.49-11.5a3.5,3.5,0,0,1,4.83,0,3.42,3.42,0,0,1,0,4.83L34.41,40.15A3.4,3.4,0,0,1,32,41.15ZM23.52,27.83a1.42,1.42,0,0,0-1,.42,1.39,1.39,0,0,0-.41,1,1.37,1.37,0,0,0,.41,1L31,38.73a1.45,1.45,0,0,0,2,0h0L46.9,24.81a1.43,1.43,0,0,0,.41-1,1.42,1.42,0,0,0-2.42-1L32.7,35a1,1,0,0,1-.7.29h0a1,1,0,0,1-.7-.29l-6.77-6.77A1.4,1.4,0,0,0,23.52,27.83Z"/></svg>