<svg id="Layer_1" data-name="Layer 1" xmlns="http://www.w3.org/2000/svg" viewBox="0 0 128 128"><title>shopping_cart-lg</title><path d="M107.63,85.54l16.93-46.47a1.49,1.49,0,0,0-.18-1.37,1.5,1.5,0,0,0-1.23-.64H32.67L25.45,7.32A1.51,1.51,0,0,0,24,6.18H4.85a1.5,1.5,0,1,0,0,3h18L44.66,99.12a11.52,11.52,0,1,0,10.26,2.71H88.63a11.48,11.48,0,1,0,7.72-3H47.68l-3-12.31h61.53A1.49,1.49,0,0,0,107.63,85.54ZM96.35,101.83a8.5,8.5,0,1,1-8.5,8.5A8.51,8.51,0,0,1,96.35,101.83Zm-49.15,0a8.5,8.5,0,1,1-8.5,8.5A8.51,8.51,0,0,1,47.2,101.83ZM44,83.52,33.4,40.06H121L105.17,83.52Z"/></svg>