<svg xmlns="http://www.w3.org/2000/svg" viewBox="0 0 128 128"><title>smart-home-alt</title><path d="M122.12,110.27h-7.53c.54-4.62,3.52-8.17,7.1-8.17a1.5,1.5,0,0,0,0-3c-5.21,0-9.52,4.89-10.12,11.17h-6.8c.67-10.34,8.14-18.81,16.92-18.81a1.5,1.5,0,0,0,0-3c-10.4,0-19.25,9.84-19.94,21.81H92.36V78.92a1.5,1.5,0,0,0-3,0v31.35H64.86V89.59a1.5,1.5,0,0,0-1.5-1.5h-17a1.5,1.5,0,0,0-1.5,1.5v20.68H20.66l.25-31.34a1.5,1.5,0,0,0-1.49-1.51h0a1.5,1.5,0,0,0-1.5,1.49l-.25,31.36H5.88a1.5,1.5,0,1,0,0,3H122.12a1.5,1.5,0,0,0,0-3ZM47.84,91.09h14v19.18h-14Z"/><path d="M88.52,41.76H109.4a10.78,10.78,0,1,0-2.93-21.15,10.13,10.13,0,0,0-18.89,3.21,9,9,0,0,0,.94,17.94Zm0-15h.33a1.5,1.5,0,0,0,1.6-1.47A7.13,7.13,0,0,1,104.28,23a1.49,1.49,0,0,0,2,.86,7.59,7.59,0,0,1,3.11-.66,7.78,7.78,0,1,1,0,15.56H88.52a6,6,0,1,1,0-12Z"/><path d="M10.58,76.88a1.47,1.47,0,0,0,1-.41L55.11,34.91l43,41.55a1.5,1.5,0,1,0,2.08-2.15l-44-42.56a1.5,1.5,0,0,0-2.08,0L9.55,74.3a1.5,1.5,0,0,0-.05,2.12A1.48,1.48,0,0,0,10.58,76.88Z"/><path d="M46.87,68.14a8,8,0,1,0,8-8A8,8,0,0,0,46.87,68.14Zm13,0a5,5,0,1,1-5-5A5,5,0,0,1,59.83,68.14Z"/></svg>