<svg id="Layer_1" data-name="Layer 1" xmlns="http://www.w3.org/2000/svg" viewBox="0 0 24 24"><path d="M12,.7A11.3,11.3,0,1,0,23.3,12,11.31,11.31,0,0,0,12,.7Zm0,21.6A10.3,10.3,0,1,1,22.3,12,10.31,10.31,0,0,1,12,22.3Z"/><path d="M17,14.24H7.06a.5.5,0,0,0-.5.5.5.5,0,0,0,.5.5h9.88a.5.5,0,0,0,0-1Z"/><path d="M8.8,10.07c.41,0,.74-.65.74-1.45S9.21,7.16,8.8,7.16s-.75.65-.75,1.46S8.39,10.07,8.8,10.07Z"/><path d="M15.2,10.07c.41,0,.75-.65.75-1.45s-.34-1.46-.75-1.46-.74.65-.74,1.46S14.79,10.07,15.2,10.07Z"/></svg>