<svg xmlns="http://www.w3.org/2000/svg" viewBox="0 0 128 128">
		<path d="M124.8,126.5H35.1c-0.8,0-1.5-0.6-1.7-1.3L1.5,3.7c-0.1-0.5,0-1.1,0.3-1.6s0.9-0.7,1.4-0.7h89.7c0.8,0,1.5,0.6,1.7,1.3
			l31.9,121.5c0.1,0.5,0,1.1-0.3,1.6C125.9,126.3,125.4,126.5,124.8,126.5z M36.5,122.9h86L91.5,5.1h-86L36.5,122.9z"/>
		<path d="M124.8,127H35.1c-1,0-2-0.7-2.2-1.7L1,3.9c-0.2-0.7,0-1.4,0.4-2C1.8,1.3,2.5,1,3.2,1h89.7c1,0,2,0.7,2.2,1.7L127,124.1
			c0.2,0.7,0,1.4-0.4,2C126.2,126.7,125.5,127,124.8,127z M3.2,2c-0.4,0-0.8,0.2-1,0.5C1.9,2.8,1.8,3.2,1.9,3.6l31.9,121.5
			c0.2,0.6,0.7,1,1.3,1h89.7c0.4,0,0.8-0.2,1-0.5c0.2-0.3,0.3-0.7,0.2-1.1L94.2,2.9c-0.2-0.6-0.7-1-1.3-1H3.2z M123.1,123.4h-87
			l-0.1-0.4L4.9,4.6h87L92,4.9L123.1,123.4z M36.9,122.4h85L91.1,5.6h-85L36.9,122.4z"/>
		<path d="M3.3,126.5c-0.5,0-0.9-0.2-1.3-0.5c-0.7-0.7-0.7-1.8,0-2.5l25.2-24.8c0.7-0.7,1.8-0.7,2.5,0c0.7,0.7,0.7,1.8,0,2.5
			L4.6,126C4.3,126.4,3.8,126.5,3.3,126.5z"/>
		<path d="M3.3,127c-0.6,0-1.2-0.2-1.6-0.7c-0.4-0.4-0.7-1-0.7-1.6c0-0.6,0.2-1.2,0.7-1.6L27,98.3c0.9-0.9,2.4-0.9,3.2,0
			c0.4,0.4,0.7,1,0.7,1.6c0,0.6-0.2,1.2-0.7,1.6L5,126.4C4.5,126.8,3.9,127,3.3,127z M28.6,98.6c-0.3,0-0.7,0.1-0.9,0.4L2.4,123.8
			c-0.2,0.2-0.4,0.6-0.4,0.9c0,0.3,0.1,0.7,0.4,0.9c0.5,0.5,1.3,0.5,1.8,0l25.2-24.8c0.2-0.2,0.4-0.6,0.4-0.9c0-0.3-0.1-0.7-0.4-0.9
			C29.3,98.8,28.9,98.6,28.6,98.6z"/>
		<path d="M65.1,126.5c-0.8,0-1.5-0.5-1.7-1.3L31.5,3.7c-0.3-1,0.3-1.9,1.3-2.2c1-0.3,1.9,0.3,2.2,1.3l31.9,121.5
			c0.3,1-0.3,1.9-1.3,2.2C65.4,126.5,65.2,126.5,65.1,126.5z"/>
		<path d="M65.1,127c-1,0-2-0.7-2.2-1.7L31,3.9c-0.3-1.2,0.4-2.5,1.6-2.8c0.6-0.2,1.2-0.1,1.7,0.2c0.5,0.3,0.9,0.8,1.1,1.4
			l31.9,121.5c0.3,1.2-0.4,2.5-1.6,2.8C65.5,127,65.3,127,65.1,127z M33.2,2c-0.1,0-0.2,0-0.3,0c-0.7,0.2-1.1,0.9-0.9,1.6
			l31.9,121.5c0.2,0.7,0.9,1.1,1.6,0.9c0.7-0.2,1.1-0.9,0.9-1.6L34.5,2.9c-0.1-0.3-0.3-0.6-0.6-0.8C33.7,2,33.4,2,33.2,2z"/>
		<path d="M94.9,126.5c-0.8,0-1.5-0.5-1.7-1.3L61.3,3.7c-0.3-1,0.3-1.9,1.3-2.2c1-0.3,1.9,0.3,2.2,1.3l31.9,121.5
			c0.3,1-0.3,1.9-1.3,2.2C95.2,126.5,95.1,126.5,94.9,126.5z"/>
		<path d="M94.9,127c-1,0-2-0.7-2.2-1.7L60.8,3.9c-0.3-1.2,0.4-2.5,1.6-2.8c0.6-0.2,1.2-0.1,1.7,0.2c0.5,0.3,0.9,0.8,1.1,1.4
			l31.9,121.5c0.3,1.2-0.4,2.5-1.6,2.8C95.3,127,95.1,127,94.9,127z M63.1,2c-0.1,0-0.2,0-0.3,0c-0.7,0.2-1.1,0.9-0.9,1.6
			l31.9,121.5c0.2,0.7,0.9,1.1,1.6,0.9c0.7-0.2,1.1-0.9,0.9-1.6L64.3,2.9c-0.1-0.3-0.3-0.6-0.6-0.8C63.5,2,63.3,2,63.1,2z"/>
		<path d="M32.4,116c-1,0-1.8-0.8-1.8-1.8s0.8-1.8,1.8-1.8c21.7,0,40.1-40.5,40.3-40.9c0.6-1.2,13.7-30.2,30.7-30.2
			c1,0,1.8,0.8,1.8,1.8s-0.8,1.8-1.8,1.8c-14.7,0-27.3,27.7-27.5,28C75.1,74.8,56.4,116,32.4,116z"/>
		<path d="M32.4,116.5c-1.3,0-2.3-1-2.3-2.3s1-2.3,2.3-2.3c11,0,21.2-10.9,27.8-20.1c7.3-10.1,12-20.4,12-20.5
			c0.6-1.2,13.8-30.4,31.2-30.4c1.3,0,2.3,1,2.3,2.3c0,1.3-1,2.3-2.3,2.3c-14.3,0-26.9,27.5-27,27.7C75.6,75,56.7,116.5,32.4,116.5z
			 M103.4,41.9c-16.7,0-29.7,28.6-30.3,29.9c-0.2,0.4-18.6,41.2-40.8,41.2c-0.7,0-1.3,0.6-1.3,1.3s0.6,1.3,1.3,1.3
			c23.7,0,42.3-41,43.1-42.7c0.1-0.3,12.8-28.3,27.9-28.3c0.7,0,1.3-0.6,1.3-1.3S104.1,41.9,103.4,41.9z"/>
		<path d="M14.4,45c-1,0-1.8-0.8-1.8-1.8s0.8-1.8,1.8-1.8C33.7,41.4,50.5,9,53.7,2.5c0.4-0.9,1.5-1.3,2.4-0.8
			c0.9,0.4,1.3,1.5,0.8,2.4C52.2,13.7,35.3,45,14.4,45z"/>
		<path d="M14.4,45.5c-1.3,0-2.3-1-2.3-2.3c0-1.3,1-2.3,2.3-2.3c19,0,35.7-32.2,38.9-38.6c0.3-0.6,0.7-1,1.3-1.2
			c0.6-0.2,1.2-0.2,1.7,0.1c0.5,0.3,1,0.7,1.2,1.3c0.2,0.6,0.2,1.2-0.1,1.8C52.7,13.9,35.6,45.5,14.4,45.5z M55.3,2
			c-0.1,0-0.3,0-0.4,0.1c-0.3,0.1-0.6,0.3-0.7,0.7C51,9.2,34,41.9,14.4,41.9c-0.7,0-1.3,0.6-1.3,1.3s0.6,1.3,1.3,1.3
			c20.6,0,37.5-31.1,42.1-40.6c0.2-0.3,0.2-0.7,0.1-1c-0.1-0.3-0.3-0.6-0.7-0.7C55.7,2,55.5,2,55.3,2z"/>
</svg>
