<svg xmlns="http://www.w3.org/2000/svg" viewBox="0 0 128 128"><title>solar-sun-lg</title><path d="M71.18,43.31a1.51,1.51,0,0,0-1.45-1.13H3.53a1.51,1.51,0,0,0-1.19.58,1.55,1.55,0,0,0-.27,1.3l16.44,63.62L.45,125.43a1.5,1.5,0,0,0,0,2.12,1.5,1.5,0,0,0,2.12,0L19.38,111l4.09,15.84A1.5,1.5,0,0,0,24.93,128h66.2a1.5,1.5,0,0,0,1.45-1.88ZM26.09,125,5.46,45.18h19L45.13,125Zm22.13,0L27.6,45.18H46.53L67.16,125Zm22,0L49.63,45.18H68.56L89.19,125Z"/><path d="M101.7,11a1.5,1.5,0,0,0,1.5-1.5v-8a1.5,1.5,0,0,0-3,0v8A1.5,1.5,0,0,0,101.7,11Z"/><path d="M113.56,15.94a1.47,1.47,0,0,0,1.06-.44l5.68-5.68a1.5,1.5,0,1,0-2.12-2.12l-5.68,5.68a1.49,1.49,0,0,0,0,2.12A1.45,1.45,0,0,0,113.56,15.94Z"/><path d="M126.5,24.8h-8a1.5,1.5,0,0,0,0,3h8a1.5,1.5,0,0,0,0-3Z"/><path d="M114.62,37.09a1.51,1.51,0,0,0-2.12,0,1.49,1.49,0,0,0,0,2.12l5.68,5.68a1.45,1.45,0,0,0,1.06.44,1.48,1.48,0,0,0,1.06-.44,1.51,1.51,0,0,0,0-2.12Z"/><path d="M101.7,41.56a1.5,1.5,0,0,0-1.5,1.5v8a1.5,1.5,0,1,0,3,0v-8A1.5,1.5,0,0,0,101.7,41.56Z"/><path d="M83.11,44.89a1.45,1.45,0,0,0,1.06.44,1.47,1.47,0,0,0,1.06-.44l5.68-5.68a1.49,1.49,0,0,0,0-2.12,1.51,1.51,0,0,0-2.12,0l-5.68,5.68A1.49,1.49,0,0,0,83.11,44.89Z"/><path d="M76.91,27.8h8a1.5,1.5,0,0,0,0-3h-8a1.5,1.5,0,0,0,0,3Z"/><path d="M88.79,15.5a1.45,1.45,0,0,0,1.06.44,1.47,1.47,0,0,0,1.06-.44,1.49,1.49,0,0,0,0-2.12L85.23,7.7a1.51,1.51,0,0,0-2.12,0,1.49,1.49,0,0,0,0,2.12Z"/><path d="M101.7,14A12.33,12.33,0,1,0,114,26.3,12.34,12.34,0,0,0,101.7,14Zm0,21.65A9.33,9.33,0,1,1,111,26.3,9.33,9.33,0,0,1,101.7,35.62Z"/></svg>