<svg xmlns="http://www.w3.org/2000/svg" viewBox="0 0 128 128">
	<path d="M124.8,126.5H35.1c-0.8,0-1.5-0.6-1.7-1.3L1.5,3.7c-0.1-0.5,0-1.1,0.3-1.6s0.9-0.7,1.4-0.7h89.7c0.8,0,1.5,0.6,1.7,1.3
		l31.9,121.5c0.1,0.5,0,1.1-0.3,1.6C125.9,126.3,125.4,126.5,124.8,126.5z M36.5,122.9h86L91.5,5.1h-86L36.5,122.9z"/>
	<path d="M3.3,126.5c-0.5,0-0.9-0.2-1.3-0.5c-0.7-0.7-0.7-1.8,0-2.5l25.2-24.8c0.7-0.7,1.8-0.7,2.5,0c0.7,0.7,0.7,1.8,0,2.5L4.6,126
		C4.3,126.4,3.8,126.5,3.3,126.5z"/>
	<path d="M65.1,126.5c-0.8,0-1.5-0.5-1.7-1.3L31.5,3.7c-0.3-1,0.3-1.9,1.3-2.2c1-0.3,1.9,0.3,2.2,1.3l31.9,121.5
		c0.3,1-0.3,1.9-1.3,2.2C65.4,126.5,65.2,126.5,65.1,126.5z"/>
	<path d="M94.9,126.5c-0.8,0-1.5-0.5-1.7-1.3L61.3,3.7c-0.3-1,0.3-1.9,1.3-2.2c1-0.3,1.9,0.3,2.2,1.3l31.9,121.5
		c0.3,1-0.3,1.9-1.3,2.2C95.2,126.5,95.1,126.5,94.9,126.5z"/>
	<path d="M32.4,116c-1,0-1.8-0.8-1.8-1.8s0.8-1.8,1.8-1.8c21.7,0,40.1-40.5,40.3-40.9c0.6-1.2,13.7-30.2,30.7-30.2
		c1,0,1.8,0.8,1.8,1.8s-0.8,1.8-1.8,1.8c-14.7,0-27.3,27.7-27.5,28C75.1,74.8,56.4,116,32.4,116z"/>
	<path d="M14.4,45c-1,0-1.8-0.8-1.8-1.8s0.8-1.8,1.8-1.8C33.7,41.4,50.5,9,53.7,2.5c0.4-0.9,1.5-1.3,2.4-0.8
		c0.9,0.4,1.3,1.5,0.8,2.4C52.2,13.7,35.3,45,14.4,45z"/>
</svg>
