<svg id="Layer_1" data-name="Layer 1" xmlns="http://www.w3.org/2000/svg" viewBox="0 0 128 128"><path d="M36.94,92.39a7.86,7.86,0,1,0,7.85,7.86A7.87,7.87,0,0,0,36.94,92.39Zm0,12.71a4.86,4.86,0,1,1,4.85-4.85A4.86,4.86,0,0,1,36.94,105.1Z"/><path d="M90.75,92.39a7.86,7.86,0,1,0,7.86,7.86A7.86,7.86,0,0,0,90.75,92.39Zm0,12.71a4.86,4.86,0,1,1,4.86-4.85A4.85,4.85,0,0,1,90.75,105.1Z"/><path d="M104.28,84.55a4.43,4.43,0,0,0,3.59-4.34V76.63a4.43,4.43,0,0,0-4.43-4.43H97L91.54,60.12A7.05,7.05,0,0,0,85.14,56l-10.27,0-1.53-6.7H99.88a1.52,1.52,0,0,0,1.16-.55,1.47,1.47,0,0,0,.31-1.24L98.69,33.92a1,1,0,0,0,0-.17l-3.35-17h0L92.64,3.18A1.51,1.51,0,0,0,91.17,2H36.83a1.51,1.51,0,0,0-1.47,1.21L32.69,16.75h0l-3.35,17a1.62,1.62,0,0,0,0,.19l-2.65,13.5A1.47,1.47,0,0,0,27,48.67a1.52,1.52,0,0,0,1.16.55H54.66l-1.51,6.62L43,55.79h0a7.06,7.06,0,0,0-6.42,4.15L31,72.2H24.19a4.43,4.43,0,0,0-4.42,4.43v3.58a4.42,4.42,0,0,0,3.85,4.37,8.76,8.76,0,0,0-6.87,8.53v13.94a1.51,1.51,0,0,0,.34,1A17.1,17.1,0,0,0,21,111.15V122a4.06,4.06,0,0,0,4,4h9.47a4.05,4.05,0,0,0,4-4v-4.43A126.62,126.62,0,0,0,64,119.82a126.62,126.62,0,0,0,25.41-2.27V122a4.05,4.05,0,0,0,4,4h9.47a4.06,4.06,0,0,0,4-4V111.15a17.1,17.1,0,0,0,3.94-3.15,1.51,1.51,0,0,0,.34-1V93.11A8.76,8.76,0,0,0,104.28,84.55Zm-.84-9.35a1.43,1.43,0,0,1,1.43,1.43v3.58a1.42,1.42,0,0,1-1.43,1.42h-2.19l-2.9-6.43Zm-46.86-29H50.36L52,35.63H76l1.61,10.59H56.58ZM35.39,18.56H51.53L49.39,32.63H32.62Zm19.17,0H73.44l2.14,14.07H52.42ZM71.37,5,73,15.56H55L56.63,5Zm24,27.66H78.61L76.47,18.56H92.61ZM80.68,46.22,79.07,35.63H96l2.09,10.59ZM92,15.56H76L74.41,5H89.93ZM38.07,5H53.59L52,15.56H36ZM32,35.63h16.9L47.32,46.22H29.94ZM57.74,49.22H70.26l1.53,6.69-15.56-.06Zm-18.42,12A4.06,4.06,0,0,1,43,58.79h0l42.1.17a4.08,4.08,0,0,1,3.68,2.39l10.38,23H28.81Zm-16.55,19V76.63a1.43,1.43,0,0,1,1.42-1.43h5.48l-2.91,6.43H24.19A1.42,1.42,0,0,1,22.77,80.21ZM35.59,122a1,1,0,0,1-1,1H25.08a1,1,0,0,1-1-1v-9.17a56.54,56.54,0,0,0,11.56,4.06ZM104,122a1,1,0,0,1-1,1H93.45a1,1,0,0,1-1-1v-5.11A56.54,56.54,0,0,0,104,112.81Zm4.28-15.54c-2,1.85-12.71,10.38-44.25,10.38s-42.32-8.55-44.25-10.37V93.11a5.76,5.76,0,0,1,5.75-5.74h77a5.76,5.76,0,0,1,5.75,5.74Z"/><path d="M70.94,97.6H57.06a1.5,1.5,0,0,0,0,3H70.94a1.5,1.5,0,0,0,0-3Z"/><path d="M70.94,104.36H57.06a1.5,1.5,0,0,0,0,3H70.94a1.5,1.5,0,0,0,0-3Z"/></svg>