<svg id="Layer_1" data-name="Layer 1" xmlns="http://www.w3.org/2000/svg" viewBox="0 0 128 128"><path d="M81.1,40A13.19,13.19,0,0,0,94.29,26.85V22.1a13.19,13.19,0,0,0-26.38,0v4.75A13.2,13.2,0,0,0,81.1,40ZM70.91,22.1a10.19,10.19,0,0,1,20.38,0v4.75a10.19,10.19,0,0,1-20.38,0Z"/><path d="M102.49,110.05,90.4,77h1.06A7.41,7.41,0,0,0,93.3,62.41l1.82-5.13c1.58-4.59,1.21-10.36-4.62-12.82l-2.65-1.09a1.5,1.5,0,1,0-1.14,2.77l2.64,1.09c4.91,2.08,3.49,7.46,2.94,9.06l-2.08,5.88H73.37a1.5,1.5,0,0,0,0,3H91.46a4.42,4.42,0,1,1,0,8.83H66.13a4.16,4.16,0,0,1-3.61-3.25L60.4,55.13c-.31-3.07.68-6.92,4.36-8.51L69,44.89a1.5,1.5,0,0,0-1.13-2.78L63.6,43.86l-.05,0C60.7,40.74,50.13,30.72,27.74,26.46a1.5,1.5,0,1,0-.56,2.94c20.51,3.91,30.74,13,33.78,16.13a11.52,11.52,0,0,0-3.54,10l2.13,15.67a7.31,7.31,0,0,0,3.76,5.11l-7,12.8H45.19a8.38,8.38,0,0,0,0,16.75H66.05a1.5,1.5,0,0,0,1.3-.76l9.06-15.81,9.4,24.61c1.59,4.68,5.1,7.59,9.17,7.59,4.69,0,8-3.54,8-8.62A8.32,8.32,0,0,0,102.49,110.05ZM95,118.45c-4.12,0-5.89-4.25-6.35-5.61L78.08,85.23a1.5,1.5,0,0,0-2.7-.21l-10.2,17.8h-20a5.38,5.38,0,0,1,0-10.75h12a1.49,1.49,0,0,0,1.31-.77L66.33,77H87.21l12.44,34a5,5,0,0,1,.3,1.79C100,116.24,98,118.45,95,118.45Z"/><path d="M62.74,36a1.52,1.52,0,0,0,1.23.64,1.45,1.45,0,0,0,.86-.28,1.49,1.49,0,0,0,.37-2.08c-.54-.77-13.41-18.84-38.15-27.65a1.5,1.5,0,0,0-1,2.83A82.29,82.29,0,0,1,62.74,36Z"/></svg>