<svg id="Layer_1" data-name="Layer 1" xmlns="http://www.w3.org/2000/svg" viewBox="0 0 128 128"><title>stabilizer-lg</title><path d="M125.28,64.41H110.22c.55-6.67,1.52-17.08,3.29-17.62v0a1.5,1.5,0,0,0,0-3c-4.27,0-5.21,7.44-6.3,20.62h-7c0-.38,0-.76-.08-1.13-1.12-15.71-2-24.59-6.45-24.59s-5.26,8.83-6.34,25.72H80.48c0-.68-.08-1.34-.11-2C79.12,41,78.2,32.31,73.92,32.31S68.69,41.48,67.45,64l0,.41H60.58l0-.41c-1.24-22.52-2.17-31.69-6.47-31.69S48.88,41,47.63,62.43c0,.64-.07,1.31-.11,2H40.63c-1.08-16.89-2-25.72-6.34-25.72S29,47.57,27.84,63.28c0,.37-.05.75-.08,1.13h-7c-1.09-13.18-2-20.62-6.3-20.62a1.5,1.5,0,1,0,0,3c1.77.54,2.75,11,3.3,17.62H2.72a1.5,1.5,0,1,0,0,3H18C19.09,80.23,20.09,88,24.4,88c4.08,0,5.14-7.41,6.15-20.63h7.26c1.08,16.9,1.93,25.73,6.26,25.73,4,0,5.13-7.53,6.27-25.73h7.4c1.15,20,2.19,28.27,6.24,28.28h0c4,0,5.09-8.25,6.24-28.28h7.4c1.14,18.2,2.25,25.73,6.27,25.73,4.33,0,5.18-8.83,6.26-25.73h7.26C98.46,80.63,99.52,88,103.6,88c4.31,0,5.31-7.81,6.38-20.63h15.3a1.5,1.5,0,0,0,0-3ZM24.4,85s-1-.31-2-5.27c-.63-3.38-1-7.86-1.41-12.36h6.51C27,75,26,84.28,24.4,85Zm6.37-20.63c0-.31,0-.6.06-.92.55-7.77,1.48-20.74,3.42-21.78,1.9,1.32,2.82,14,3.37,22.7ZM44.06,90.07c-1.82-1.62-2.68-13.77-3.24-22.66h6.52C46.74,77.1,45.82,88.45,44.06,90.07Zm6.46-25.66c0-.59.07-1.19.11-1.81.58-10,1.45-25.06,3.44-27.18,2,2.24,2.9,18.13,3.49,28.75,0,.08,0,.16,0,.24ZM64,92.56c-1.79-2-2.68-14.91-3.26-25.15h6.52C66.68,77.65,65.79,90.52,64,92.56Zm6.43-28.15v-.24C71,53.55,71.9,37.66,73.93,35.42c2,2.12,2.86,17.14,3.44,27.18,0,.62.07,1.22.11,1.81ZM83.94,90.07c-1.76-1.62-2.68-13-3.28-22.66h6.52C86.62,76.3,85.77,88.45,83.94,90.07Zm6.44-25.66c.55-8.69,1.47-21.32,3.36-22.69,2,1.16,2.88,14,3.43,21.77,0,.32,0,.61.06.92Zm15.18,15.36c-.93,4.9-1.93,5.26-1.92,5.28C102,84.28,101,75,100.46,67.41H107C106.6,71.91,106.19,76.39,105.56,79.77Z"/></svg>