<svg id="Layer_1" data-name="Layer 1" xmlns="http://www.w3.org/2000/svg" viewBox="0 0 64 64"><title>stack-md</title><path d="M32,63a1,1,0,0,1-.48-.12l-30-16.56A1,1,0,0,1,1,45.44a1,1,0,0,1,.52-.87L7.46,41.3a1,1,0,0,1,1,1.75L4.09,45.44,32,60.86,59.91,45.44l-4.3-2.37a1,1,0,0,1,1-1.75l5.88,3.25a1,1,0,0,1,.52.87,1,1,0,0,1-.52.88l-30,16.56A1,1,0,0,1,32,63Zm0-11.27a.91.91,0,0,1-.48-.13l-30-16.55A1,1,0,0,1,1,34.17a1,1,0,0,1,.52-.87L7.46,30a1,1,0,0,1,1,1.75L4.09,34.17,32,49.58,59.91,34.17l-4.3-2.37a1,1,0,0,1,1-1.75l5.88,3.25a1,1,0,0,1,.52.87,1,1,0,0,1-.52.88l-30,16.55A.91.91,0,0,1,32,51.73Zm0-11.27a1,1,0,0,1-.48-.13l-30-16.56A1,1,0,0,1,1,22.89,1,1,0,0,1,1.55,22l14-7.44a1,1,0,0,1,.94,1.77L4.12,22.92,32,38.31,59.91,22.9,48,16.34a1,1,0,0,1,1-1.75L62.46,22a1,1,0,0,1,.52.88,1,1,0,0,1-.52.87l-30,16.56A1,1,0,0,1,32,40.46Zm.48-15.2A12.13,12.13,0,1,1,38.17,2.42a1,1,0,0,1,.42,1.35,1,1,0,0,1-1.36.41,10.13,10.13,0,1,0,5.38,9,1,1,0,0,1,2,0A12.14,12.14,0,0,1,32.48,25.26Zm-.35-7.1a1,1,0,0,1-.71-.29l-5.18-5.19a1,1,0,0,1,1.41-1.42l4.48,4.49,9.06-9.06A1,1,0,1,1,42.61,8.1l-9.77,9.77A1,1,0,0,1,32.13,18.16Z"/></svg>