<svg xmlns="http://www.w3.org/2000/svg" viewBox="0 0 128 128"><title>stack-lg</title><path d="M64,127.53a1.58,1.58,0,0,1-.73-.18l-62-34.24a1.5,1.5,0,0,1,0-2.62l12.24-6.76A1.5,1.5,0,1,1,15,86.35L5.11,91.8,64,124.32,122.89,91.8l-9.79-5.41a1.5,1.5,0,1,1,1.45-2.62l12.17,6.72a1.5,1.5,0,0,1,0,2.62l-62,34.24A1.58,1.58,0,0,1,64,127.53Zm0-23.3a1.59,1.59,0,0,1-.73-.19L1.28,69.8a1.5,1.5,0,0,1,0-2.62l12.24-6.76A1.5,1.5,0,1,1,15,63L5.11,68.49,64,101l58.89-32.52-9.79-5.4a1.5,1.5,0,1,1,1.45-2.63l12.17,6.72a1.5,1.5,0,0,1,0,2.62L64.73,104A1.59,1.59,0,0,1,64,104.23Zm0-23.31a1.59,1.59,0,0,1-.73-.19L1.28,46.5a1.51,1.51,0,0,1,0-2.64L33.11,27a1.5,1.5,0,0,1,1.41,2.65L5.16,45.21,64,77.7l58.89-32.52-27.27-15a1.5,1.5,0,0,1,1.45-2.63l29.65,16.37a1.49,1.49,0,0,1,.77,1.31,1.51,1.51,0,0,1-.77,1.32l-62,34.23A1.59,1.59,0,0,1,64,80.92ZM65,49.5A24.52,24.52,0,1,1,76.5,3.33,1.5,1.5,0,0,1,75.09,6,21.52,21.52,0,1,0,86.51,25a1.5,1.5,0,0,1,3,0A24.55,24.55,0,0,1,65,49.5Zm-.73-14.69a1.5,1.5,0,0,1-1.06-.44L52.48,23.64a1.5,1.5,0,1,1,2.12-2.12l9.67,9.67L83.41,12.06a1.49,1.49,0,0,1,2.12,0,1.51,1.51,0,0,1,0,2.12L65.33,34.37A1.5,1.5,0,0,1,64.27,34.81Z"/></svg>