<svg xmlns="http://www.w3.org/2000/svg" viewBox="0 0 91.93 122.09"><title>station-lg</title><path d="M41,64.41a5.82,5.82,0,1,0-5.82-5.82A5.82,5.82,0,0,0,41,64.41Zm0-8.64a2.82,2.82,0,1,1-2.82,2.82A2.82,2.82,0,0,1,41,55.77Z" transform="translate(-18.03 -2.96)"/><path d="M64,64.41a5.82,5.82,0,1,0-5.82-5.82A5.83,5.83,0,0,0,64,64.41Zm0-8.64a2.82,2.82,0,1,1-2.82,2.82A2.83,2.83,0,0,1,64,55.77Z" transform="translate(-18.03 -2.96)"/><path d="M87.56,64.41a5.82,5.82,0,1,0-5.82-5.82A5.83,5.83,0,0,0,87.56,64.41Zm0-8.64a2.82,2.82,0,1,1-2.82,2.82A2.83,2.83,0,0,1,87.56,55.77Z" transform="translate(-18.03 -2.96)"/><path d="M58.54,96.32h4.89L61.6,103.5a.2.2,0,0,0,.12.24.14.14,0,0,0,.09,0,.24.24,0,0,0,.17-.09l8.19-11.11a.22.22,0,0,0,0-.22.22.22,0,0,0-.19-.12H65l1.79-6.14a.22.22,0,0,0,0-.19.21.21,0,0,0-.17-.08H61.47a.22.22,0,0,0-.21.15L58.34,96.05a.19.19,0,0,0,0,.18A.21.21,0,0,0,58.54,96.32Z" transform="translate(-18.03 -2.96)"/><path d="M64.27,112.33A17.54,17.54,0,1,0,46.73,94.79,17.56,17.56,0,0,0,64.27,112.33Zm0-32.07A14.54,14.54,0,1,1,49.73,94.79,14.56,14.56,0,0,1,64.27,80.26Z" transform="translate(-18.03 -2.96)"/><path d="M94.6,29.64l.59-3.73,1.68.26a1.77,1.77,0,0,0,2-1.47h0a1.77,1.77,0,0,0-1.48-2l-1.68-.26.39-2.53,1.69.26a1.75,1.75,0,0,0,2-1.47,1.77,1.77,0,0,0-1.47-2l-1.69-.26.4-2.53,1.69.26a1.77,1.77,0,1,0,.55-3.49l-1.69-.26.06-.37a6.1,6.1,0,0,0-12.06-1.9l-.06.37-1.69-.27a1.77,1.77,0,0,0-.55,3.5L85,12l-.4,2.53-1.69-.26a1.77,1.77,0,1,0-.54,3.49l1.68.26-.39,2.53L82,20.26a1.77,1.77,0,1,0-.55,3.49l1.69.26-.62,3.91-18-2.55-.21,0L43,28.32l-.61-3.85,1.69-.26a1.77,1.77,0,0,0-.55-3.49L41.85,21l-.4-2.53,1.69-.26a1.77,1.77,0,0,0-.55-3.49L40.91,15l-.4-2.53,1.69-.26a1.77,1.77,0,0,0-.55-3.49L40,8.94l-.06-.37a6.1,6.1,0,0,0-12.06,1.9l.06.37-1.69.26a1.77,1.77,0,0,0,.55,3.49l1.69-.26.39,2.53-1.68.26a1.77,1.77,0,0,0,.55,3.5l1.68-.27.4,2.53-1.69.26a1.77,1.77,0,0,0,.55,3.5l1.69-.27L30.91,30,18,31.81V41.87h6.59v81.95a1.38,1.38,0,0,0,1.5,1.22h76.3a1.38,1.38,0,0,0,1.5-1.22V41.87h6v-10Zm-6-21.06a3.1,3.1,0,1,1,6.13,1l0,.37L88.53,9ZM88,12.44l6.14,1-.4,2.53-6.14-1Zm-.94,6,6.13,1L92.77,22l-6.13-1Zm-1,6,6.13,1-.54,3.44-6.13-1ZM40,28.37l-6.14,1L33.3,25.9l6.14-1Zm-1.49-9.45.4,2.53-6.14,1-.39-2.53Zm-.55-3.49-6.13,1-.4-2.53,6.14-1Zm-7.08-5.06L30.8,10a3.11,3.11,0,0,1,2.59-3.55,2.59,2.59,0,0,1,.48,0A3.11,3.11,0,0,1,36.94,9l.06.37ZM100.92,122.6H27.62V41.87h73.3Zm6-83.73H21V34.42l43.24-6.05L107,34.42Z" transform="translate(-18.03 -2.96)"/></svg>