<svg id="Layer_1" data-name="Layer 1" xmlns="http://www.w3.org/2000/svg" viewBox="0 0 128 128"><title>street_light-lg</title><path d="M117.38,115.9H72.74V93.57a1.5,1.5,0,0,0-1.5-1.5H65.48v-66A28,28,0,0,1,73,19.26c4.86-3.16,13.3-6.91,26.2-7.15a1.49,1.49,0,0,0-.2.76v5.81a1.5,1.5,0,0,0,1.5,1.5h16.91a1.5,1.5,0,0,0,1.5-1.5V10.6a1.5,1.5,0,0,0-1.5-1.5H100.5C77.93,9.1,67.39,19,64,23.11c-3.4-4.11-14-14-36.52-14H10.58a1.5,1.5,0,0,0-1.5,1.5v8.08a1.51,1.51,0,0,0,1.5,1.5H27.5a1.5,1.5,0,0,0,1.5-1.5V12.87a1.49,1.49,0,0,0-.2-.76c12.9.24,21.35,4,26.21,7.15a28,28,0,0,1,7.47,6.81v66H56.74a1.5,1.5,0,0,0-1.5,1.5V115.9H10.58a1.5,1.5,0,1,0,0,3h106.8a1.5,1.5,0,0,0,0-3Zm-1.5-103.8v5.08H102V12.87a1.47,1.47,0,0,0-.22-.77ZM26,12.87v4.31H12.08V12.1H26.22A1.47,1.47,0,0,0,26,12.87Zm43.74,103H58.24V95.07h11.5Z"/><path d="M125.87,37.9l-7.49-7.48a1.5,1.5,0,1,0-2.12,2.12L123.74,40a1.51,1.51,0,0,0,2.13,0A1.51,1.51,0,0,0,125.87,37.9Z"/><path d="M99.41,30.42,91.92,37.9a1.51,1.51,0,0,0,0,2.12,1.51,1.51,0,0,0,2.13,0l7.48-7.48a1.5,1.5,0,0,0-2.12-2.12Z"/><path d="M108.87,30a1.5,1.5,0,0,0-1.5,1.5V42.07a1.5,1.5,0,0,0,3,0V31.48A1.5,1.5,0,0,0,108.87,30Z"/><path d="M35,40.46A1.49,1.49,0,0,0,36.08,40a1.51,1.51,0,0,0,0-2.12l-7.49-7.48a1.5,1.5,0,0,0-2.12,2.12L34,40A1.48,1.48,0,0,0,35,40.46Z"/><path d="M11.74,30.42a1.51,1.51,0,0,0-2.12,0L2.13,37.9a1.51,1.51,0,0,0,0,2.12,1.51,1.51,0,0,0,2.13,0l7.48-7.48A1.51,1.51,0,0,0,11.74,30.42Z"/><path d="M19.08,43.57a1.5,1.5,0,0,0,1.5-1.5V31.48a1.5,1.5,0,0,0-3,0V42.07A1.5,1.5,0,0,0,19.08,43.57Z"/></svg>