<svg id="Layer_1" data-name="Layer 1" xmlns="http://www.w3.org/2000/svg" viewBox="0 0 128 128"><path d="M120.64,72.84a1.48,1.48,0,0,0-1.8.31,2.75,2.75,0,0,1-2.14.44c-2.9-.29-9.53-3.23-21.42-19.79C82.83,36.46,69.16,33.55,62.11,33.36a1.47,1.47,0,0,0-1.54,1.46A1.5,1.5,0,0,0,62,36.36c6.49.18,19.12,2.9,30.81,19.19,9.8,13.64,17.85,20.73,23.94,21h.45C114.59,81,108,87,97.16,85c-5.22-1-9.46-.1-12.63,2.51A15.12,15.12,0,0,0,79.9,95c-2.09-4.35-5.67-10.88-10.16-15.56a1.5,1.5,0,0,0-2.17,2.07c6.76,7,11.54,19.08,11.58,19.2a1.51,1.51,0,0,0,1.4,1,1.24,1.24,0,0,0,.27,0,1.5,1.5,0,0,0,1.23-1.45c0-.07.14-6.78,4.41-10.3,2.45-2,5.86-2.64,10.16-1.86,14.46,2.64,23.26-7.44,24.76-13.42A1.55,1.55,0,0,0,120.64,72.84Z"/><path d="M42.22,31.13A14.26,14.26,0,1,0,28,16.87,14.27,14.27,0,0,0,42.22,31.13Zm0-25.51A11.26,11.26,0,1,1,31,16.87,11.26,11.26,0,0,1,42.22,5.62Z"/><path d="M59.16,82.2,76.16,64a6.32,6.32,0,0,0,0-8.67l-2.77-2.89-10.43-10A30.22,30.22,0,0,0,43.34,34.1l-.54,0a30.06,30.06,0,0,0-9.69,1.46,30.61,30.61,0,0,0-11.58,6.91l-10.48,10L8.33,55.32A6.3,6.3,0,0,0,8.28,64l17,18.21-7.37,31.3a9.25,9.25,0,0,0,.6,6l.25.54a9.23,9.23,0,0,0,17.4-1.89l6.06-27.52,6.06,27.52A9.21,9.21,0,0,0,54.67,125a8.93,8.93,0,0,0,2.59.38A9.3,9.3,0,0,0,65.68,120l.24-.54a9.26,9.26,0,0,0,.61-6Zm4,36-.24.53a6.23,6.23,0,0,1-11.75-1.27L43.68,83.31a1.5,1.5,0,0,0-2.93,0l-7.52,34.18a6.23,6.23,0,0,1-11.75,1.27l-.24-.53a6.25,6.25,0,0,1-.41-4l7.55-32.08A1.52,1.52,0,0,0,28,80.74L10.47,61.94a3.29,3.29,0,0,1,0-4.54l2.67-2.8,10.43-10a27.31,27.31,0,0,1,19.1-7.55l.5,0a27.27,27.27,0,0,1,17.63,7.52l10.39,9.94,2.72,2.84a3.29,3.29,0,0,1,0,4.54L56.42,80.74a1.5,1.5,0,0,0-.36,1.37l7.55,32.08A6.31,6.31,0,0,1,63.2,118.23Z"/><path d="M29,52a1.49,1.49,0,0,0-1.64.35L21,59a1.5,1.5,0,0,0,0,2.07l6.37,6.72a1.53,1.53,0,0,0,1.09.47,1.55,1.55,0,0,0,.56-.11A1.5,1.5,0,0,0,30,66.75V53.39A1.5,1.5,0,0,0,29,52ZM27,63,24.18,60,27,57.12Z"/><path d="M63.41,61.06a1.49,1.49,0,0,0,0-2.07L57,52.35a1.5,1.5,0,0,0-2.58,1V66.75a1.5,1.5,0,0,0,.94,1.39,1.55,1.55,0,0,0,.56.11,1.53,1.53,0,0,0,1.09-.47Zm-5.95-3.94L60.25,60,57.46,63Z"/></svg>