<svg id="Layer_1" data-name="Layer 1" xmlns="http://www.w3.org/2000/svg" viewBox="0 0 128 128"><g id="Group_6257" data-name="Group 6257"><g id="Group_6254" data-name="Group 6254"><path id="Path_6713" data-name="Path 6713" d="M64.53,31.5c-12.6,0-22.21,7.29-22.21,22v9.86a5,5,0,0,1,2.49-1.16,7.26,7.26,0,0,1,0-.8A5.92,5.92,0,0,1,47.44,57a6,6,0,0,1,5.06-.71A8,8,0,0,1,55.61,58V53.2c0-6.78,4.12-9.09,8.92-9.09s8.93,2.31,8.93,9.09V73.27c0,6.78-4.12,9.09-8.93,9.09l-.63,0a11.3,11.3,0,0,0-.67,4.19s1.84.11,8-3.85C73.79,81,76.14,80.4,78.3,81A7.48,7.48,0,0,1,83,85.28a6.57,6.57,0,0,1,.26.61,24.51,24.51,0,0,0,3.38-13.22V53.45C86.67,38.79,77.14,31.5,64.53,31.5Z"/><path id="Path_6714" data-name="Path 6714" d="M52,69.55a2.49,2.49,0,0,0,2.94-1.93,2.72,2.72,0,0,0,.05-.49,4.33,4.33,0,0,0-.55-2.44,5.46,5.46,0,0,0-3.21-2.75A2.49,2.49,0,0,0,48,63.45a2.44,2.44,0,0,0-.14.65A5.39,5.39,0,0,0,52,69.55Z"/><path id="Path_6715" data-name="Path 6715" d="M44.45,68a1.82,1.82,0,0,0-.38,2A3.58,3.58,0,0,0,47,72.46a1.61,1.61,0,0,0,2-1.18,1.54,1.54,0,0,0,0-.3,2.53,2.53,0,0,0-.1-.87,3.84,3.84,0,0,0-.49-1,3.72,3.72,0,0,0-2.08-1.44A1.83,1.83,0,0,0,44.45,68Z"/><path id="Path_6716" data-name="Path 6716" d="M43.78,72.46a1.63,1.63,0,0,0-1.68.67,1.43,1.43,0,0,0,0,1.53,3,3,0,0,0,2.33,1.63,1.53,1.53,0,0,0,1.64-.64A1.57,1.57,0,0,0,46,73.84,3.11,3.11,0,0,0,43.78,72.46Z"/><path id="Path_6717" data-name="Path 6717" d="M44.18,80.07a1.24,1.24,0,0,0,1.16-1.31,1.35,1.35,0,0,0-.15-.52,2.65,2.65,0,0,0-2.95-1.32,1.23,1.23,0,0,0-.93,1.46,1.33,1.33,0,0,0,.21.47A2.8,2.8,0,0,0,44.18,80.07Z"/><path id="Path_6718" data-name="Path 6718" d="M43.06,81.29a1.11,1.11,0,0,0-1.12,1.1,1,1,0,0,0,.2.65,2.3,2.3,0,0,0,2.1,1,1.17,1.17,0,0,0,1.19-.77A1.32,1.32,0,0,0,45,82,2.41,2.41,0,0,0,43.06,81.29Z"/><path id="Path_6719" data-name="Path 6719" d="M68.7,88c-3.48,2.12-5,1.81-5,1.81a12.26,12.26,0,0,0,4,5.15c-9.74-2.91-9.56-12.43-9.86-16.87-.08-1.14-.76-3.22-2-3.89a4.13,4.13,0,0,0-4,0A8.76,8.76,0,0,0,48.09,78c-2.26,4-1.14,9.23,2,12.8,5,5.63,15.75,7,21.88,4.89C74.85,94.71,78.13,92,77,89S72.28,85.84,68.7,88Z"/></g><g id="Group_6255" data-name="Group 6255"><path id="Path_6720" data-name="Path 6720" d="M22.81,47.82a8.4,8.4,0,0,1-4.19,4.42.24.24,0,0,1-.33-.06l0,0L17.58,51a.22.22,0,0,1,0-.31.1.1,0,0,1,0,0,7.64,7.64,0,0,0,3.48-3.62c.8-1.91.72-4-1-4.7s-2.93.58-4.45,2.75-3.74,4.33-6.53,3.17-2.93-4.13-1.73-7a8.45,8.45,0,0,1,3.72-4.19.22.22,0,0,1,.3,0,.16.16,0,0,1,0,.07l.7,1.1a.23.23,0,0,1-.06.33l0,0A8,8,0,0,0,9,42.1c-.83,2-.6,3.74.93,4.38s2.77-.56,4.2-2.56c1.79-2.53,3.71-4.64,6.69-3.39S24,44.86,22.81,47.82Z"/><path id="Path_6721" data-name="Path 6721" d="M39.59,27.64c-3.05,2-6.27,1.31-8.17-1.58l-5.74-8.75a.24.24,0,0,1,.06-.34h0l1.22-.8a.22.22,0,0,1,.32,0l0,0L33,24.86c1.41,2.15,3.47,2.68,5.6,1.28s2.49-3.51,1.08-5.66L34,11.85a.23.23,0,0,1,0-.32l0,0,1.22-.8a.26.26,0,0,1,.35,0l0,0,5.74,8.75C43.3,22.4,42.65,25.63,39.59,27.64Z"/><path id="Path_6722" data-name="Path 6722" d="M65.49,3.7c3.59,0,5.63,2,5.6,5.36s-2.1,5.33-5.68,5.31l-3.79,0,0,5.35a.24.24,0,0,1-.21.25H59.89a.24.24,0,0,1-.25-.21v0l.11-15.77A.23.23,0,0,1,60,3.66h0Zm-.27,8.87c2.62,0,3.9-1.16,3.92-3.52s-1.25-3.54-3.87-3.56l-3.59,0,0,7.07Z"/><path id="Path_6723" data-name="Path 6723" d="M87.91,24.39l6.57,4.26a.23.23,0,0,1,.1.31l0,0-.69,1.06a.22.22,0,0,1-.31.1l0,0-8-5.18a.24.24,0,0,1-.13-.31l0,0L94,11.38a.22.22,0,0,1,.31-.1l0,0,7.71,5a.23.23,0,0,1,.1.31l0,0-.69,1.07a.22.22,0,0,1-.3.1l0,0-6.3-4.08-2.9,4.47L97.79,22a.24.24,0,0,1,.1.32.1.1,0,0,1,0,.05l-.68,1a.23.23,0,0,1-.31.12l0,0L91,19.69Z"/><path id="Path_6724" data-name="Path 6724" d="M107.51,50.52a.34.34,0,0,1,0-.35l3.76-6.69L110.14,41l-5.55,2.52a.22.22,0,0,1-.31-.08.08.08,0,0,1,0,0l-.59-1.28a.24.24,0,0,1,.07-.33l.05,0,14.34-6.53a.24.24,0,0,1,.32.09l0,.06L120.6,40c1.48,3.25.7,6-2.16,7.29-2.36,1.07-4.6.34-6.12-1.92l-3.72,6.77c-.11.2-.27.17-.36,0Zm10-12.92-5.82,2.65,1.44,3.16c1,2.24,2.5,3,4.45,2.08S120,43,119,40.76Z"/></g><g id="Group_6256" data-name="Group 6256"><path id="Path_6725" data-name="Path 6725" d="M9.22,90.73a.43.43,0,0,1,.08-.6l.09,0,2-1.16a1,1,0,0,1,.6-.13l11.37.9-2.92-5a.43.43,0,0,1,.08-.6l.09,0,2.88-1.7a.43.43,0,0,1,.6.08.41.41,0,0,1,.05.09l5.89,10a.44.44,0,0,1-.08.6l-.09,0L28,94.3a1.19,1.19,0,0,1-.61.14L16,93.67l3.23,5.48a.43.43,0,0,1-.07.6l-.09,0-2.91,1.72a.43.43,0,0,1-.59-.08.47.47,0,0,1-.06-.09Z"/><path id="Path_6726" data-name="Path 6726" d="M44.09,117.85l6.14,2.27a.43.43,0,0,1,.32.51.3.3,0,0,1,0,.1l-1.11,3a.42.42,0,0,1-.51.31l-.1,0-10-3.71a.43.43,0,0,1-.32-.51.3.3,0,0,1,0-.1l5.54-15a.44.44,0,0,1,.52-.32l.09,0L54.29,108a.44.44,0,0,1,.32.51.3.3,0,0,1,0,.1l-1.11,3a.43.43,0,0,1-.51.32l-.1,0-5.77-2.13-.76,2.07,4.9,1.81a.41.41,0,0,1,.31.51.29.29,0,0,1,0,.1l-1.08,2.92a.41.41,0,0,1-.51.31l-.1,0-4.9-1.81Z"/><path id="Path_6727" data-name="Path 6727" d="M86.79,121.56a.54.54,0,0,1-.62-.14l-4-3.79-1,.34,1.58,4.5a.43.43,0,0,1-.2.57l-.09,0L79,124.3a.43.43,0,0,1-.57-.2l0-.09-5.3-15.13a.42.42,0,0,1,.19-.57l.1,0,5.69-2c3.9-1.36,6.86.11,8,3.52a5.12,5.12,0,0,1-1.17,5.69l4.93,4c.29.26.26.52-.1.64Zm-8.1-10.62,1.16,3.29,1.54-.54c1.28-.45,1.62-1.12,1.21-2.29s-1.08-1.45-2.36-1Z"/><path id="Path_6728" data-name="Path 6728" d="M117.16,95.53c-2.22,3.89-5.75,4.91-9.53,2.76l-3.36-1.92c-3.75-2.14-4.65-5.68-2.43-9.58s5.73-4.93,9.49-2.79l3.36,1.91C118.46,88.07,119.39,91.63,117.16,95.53Zm-3.81-2.18c.79-1.38.39-2.51-1.11-3.37l-3.16-1.8c-1.49-.85-2.64-.6-3.42.78s-.42,2.5,1.07,3.35l3.15,1.79C111.39,95,112.56,94.73,113.35,93.35Z"/></g></g></svg>