<svg xmlns="http://www.w3.org/2000/svg" viewBox="0 0 128 128"><title>support-lg</title><path d="M64,2.58A56.38,56.38,0,0,0,7.68,58.9V76.46a8.74,8.74,0,0,0,8.73,8.74h9.67C31.57,100.3,43.34,114,64,114a1.5,1.5,0,0,0,0-3c-31.79,0-38.75-34.14-38.75-47.29V59.81C37.47,58,47,51.94,52.54,42.27,63.88,59.4,80.44,60.35,102.76,60.4v3.29a57.42,57.42,0,0,1-4,19.42h0a50.67,50.67,0,0,1-12.31,19,1.5,1.5,0,0,0-.07,2.12,1.47,1.47,0,0,0,1.1.48,1.5,1.5,0,0,0,1-.4A53.28,53.28,0,0,0,101.1,85.2h6.63c-1.09,6.67-8.56,23.36-23.51,31.34A5.36,5.36,0,1,0,85.54,120a4.78,4.78,0,0,0-.08-.75c16.43-8.64,24.25-26.8,25.29-34.08h.85a8.74,8.74,0,0,0,8.72-8.74V58.9A56.38,56.38,0,0,0,64,2.58ZM25.07,82.2H16.41a5.74,5.74,0,0,1-5.73-5.74V60.4h6.45c1.76,0,3.45-.09,5.12-.24v3.53A64.61,64.61,0,0,0,25.07,82.2ZM53.72,38.51a1.49,1.49,0,0,0-1.29-.74h-.06a1.5,1.5,0,0,0-1.29.85c-6,12.29-17.71,18.78-33.95,18.78H10.7a53.32,53.32,0,0,1,106.6,0H106.73C82.42,57.4,64.86,57.4,53.72,38.51ZM111.6,82.2h-9.37a59.4,59.4,0,0,0,3.53-18.51V60.4h11.56V76.46A5.74,5.74,0,0,1,111.6,82.2Z"/><path d="M43.14,70.48a4.14,4.14,0,1,0,4.13-4.13A4.14,4.14,0,0,0,43.14,70.48Z"/><path d="M84.87,70.48a4.14,4.14,0,1,0-4.14,4.14A4.13,4.13,0,0,0,84.87,70.48Z"/></svg>