<svg id="Layer_1" data-name="Layer 1" xmlns="http://www.w3.org/2000/svg" viewBox="0 0 64 64"><title>support-md</title><path d="M32,1.5A28.35,28.35,0,0,0,3.68,29.82v8.75a4.61,4.61,0,0,0,4.6,4.61h4.65C15.72,50.72,21.65,57.52,32,57.52a1,1,0,0,0,0-2c-15.64,0-19.06-16.83-19.06-23.31V30.5c5.92-.94,10.55-3.86,13.36-8.5,5.7,8.25,14.19,8.78,24.76,8.82v1.39a28.52,28.52,0,0,1-2,9.57v0A25,25,0,0,1,43,51.14a1,1,0,0,0,0,1.42,1,1,0,0,0,1.41,0,27.13,27.13,0,0,0,6.3-9.43h2.83c-.69,3.51-4.52,11.69-12,15.41a2.18,2.18,0,0,0-1.4-.52,2.22,2.22,0,1,0,2.2,2.36c8.49-4.15,12.59-13.35,13.26-17.25h.21a4.61,4.61,0,0,0,4.6-4.61V29.82A28.35,28.35,0,0,0,32,1.5ZM12.26,41.18h-4a2.61,2.61,0,0,1-2.6-2.61V30.82h3c.79,0,1.55,0,2.3-.1v1.49A32.64,32.64,0,0,0,12.26,41.18ZM27.09,19.53a1,1,0,0,0-.86-.49h0a1,1,0,0,0-.86.56c-2.93,6-8.7,9.22-16.69,9.22H5.7a26.32,26.32,0,0,1,52.6,0h-5C41.27,28.82,32.57,28.82,27.09,19.53ZM55.72,41.18h-4.3a28.51,28.51,0,0,0,1.64-9V30.82h5.26v7.75A2.61,2.61,0,0,1,55.72,41.18Z"/><path d="M21.6,35.59a2.06,2.06,0,1,0,2.06-2.06A2.06,2.06,0,0,0,21.6,35.59Z"/><path d="M40.34,37.65a2.06,2.06,0,1,0-2.06-2.06A2.06,2.06,0,0,0,40.34,37.65Z"/></svg>