<svg id="Layer_1" data-name="Layer 1" xmlns="http://www.w3.org/2000/svg" viewBox="0 0 64 64"><path d="M55.19,42.5a1,1,0,0,0-1,1V54.24a2.84,2.84,0,0,1-2.84,2.84H6.73a2.85,2.85,0,0,1-2.84-2.84V17.32h50.3v2.87a1,1,0,0,0,2,0V9.76a4.85,4.85,0,0,0-4.84-4.84H6.73A4.86,4.86,0,0,0,1.89,9.76V54.24a4.86,4.86,0,0,0,4.84,4.84H51.35a4.85,4.85,0,0,0,4.84-4.84V43.5A1,1,0,0,0,55.19,42.5ZM6.73,6.92H51.35a2.84,2.84,0,0,1,2.84,2.84v5.56H3.89V9.76A2.85,2.85,0,0,1,6.73,6.92Z"/><path d="M37.92,27.58H9.26a1,1,0,1,0,0,2H37.92a1,1,0,0,0,0-2Z"/><path d="M38.92,35.16a1,1,0,0,0-1-1H9.26a1,1,0,1,0,0,2H37.92A1,1,0,0,0,38.92,35.16Z"/><path d="M9.26,40.73a1,1,0,1,0,0,2H31.62a1,1,0,0,0,0-2Z"/><path d="M60.26,30.28l.57-.57a4.32,4.32,0,0,0,0-6.14,4.35,4.35,0,0,0-6.14,0l-4.93,4.94h0L33.47,44.8h0a1.07,1.07,0,0,0-.19.28l0,.09,0,.09-1.56,6.28a1,1,0,0,0,.26,1,1,1,0,0,0,.71.29,1,1,0,0,0,.24,0l6.29-1.56.08,0,.09,0a.84.84,0,0,0,.29-.2L55.89,34.65h0l3-2.95,0,0a1.65,1.65,0,0,1,0,2.33l-6.12,6.12a1,1,0,0,0,.7,1.71,1,1,0,0,0,.71-.29l6.12-6.13a3.63,3.63,0,0,0,0-5.15ZM56.11,25a2.35,2.35,0,0,1,4,1.65,2.36,2.36,0,0,1-.69,1.66l-4.23,4.23-3.31-3.31ZM38.9,48.82l-3.31-3.31L50.46,30.63l3.31,3.31Zm-4.18-1.35,2.22,2.22-3,.73Z"/><path d="M8.32,12.34a1.23,1.23,0,1,0-1.23-1.23A1.23,1.23,0,0,0,8.32,12.34Z"/><path d="M18.15,12.34a1.23,1.23,0,1,0-1.23-1.23A1.23,1.23,0,0,0,18.15,12.34Z"/><path d="M13.24,12.34A1.23,1.23,0,1,0,12,11.11,1.23,1.23,0,0,0,13.24,12.34Z"/></svg>