<svg xmlns="http://www.w3.org/2000/svg" viewBox="0 0 128 128"><title>survey-lg</title><path d="M113,86.45a1.5,1.5,0,0,0-1.5,1.5v20.37a8.51,8.51,0,0,1-8.5,8.5H14.05a8.51,8.51,0,0,1-8.5-8.5V32.83h106v6.56a1.5,1.5,0,0,0,3,0V19.67A11.51,11.51,0,0,0,103,8.17H14.05a11.51,11.51,0,0,0-11.5,11.5v88.65a11.51,11.51,0,0,0,11.5,11.5h89a11.51,11.51,0,0,0,11.5-11.5V88A1.5,1.5,0,0,0,113,86.45ZM14.05,11.17h89a8.51,8.51,0,0,1,8.5,8.5V29.83H5.55V19.67A8.51,8.51,0,0,1,14.05,11.17Z"/><path d="M77,55.38H17.33a1.5,1.5,0,1,0,0,3H77a1.5,1.5,0,0,0,0-3Z"/><path d="M78.53,70.57a1.5,1.5,0,0,0-1.5-1.5H17.33a1.5,1.5,0,1,0,0,3H77A1.5,1.5,0,0,0,78.53,70.57Z"/><path d="M17.33,82.76a1.5,1.5,0,1,0,0,3H63.9a1.5,1.5,0,1,0,0-3Z"/><path d="M122.74,60.42l1.61-1.61a8.46,8.46,0,0,0-6-14.44h0a8.42,8.42,0,0,0-6,2.48L68.16,91.07h0a0,0,0,0,0,0,0,1.62,1.62,0,0,0-.28.42.84.84,0,0,0-.06.14s0,.08,0,.13l-3.25,13.09A1.49,1.49,0,0,0,66,106.73a1.55,1.55,0,0,0,.37,0l13.09-3.25.13,0,.13,0a1.68,1.68,0,0,0,.44-.29l33.94-33.94h0l6.55-6.56.5.5a4,4,0,0,1,0,5.68L108.37,81.48A1.5,1.5,0,0,0,109.43,84a1.53,1.53,0,0,0,1.06-.44l12.76-12.76a7,7,0,0,0,0-9.92ZM114.51,49a5.42,5.42,0,0,1,3.86-1.6h0a5.46,5.46,0,0,1,3.86,9.32L113,65.92l-7.72-7.72ZM79.06,99.86l-7.72-7.72,31.82-31.82L110.88,68Zm-9-4.78,6.09,6.09-8.1,2Z"/><path d="M15.36,23a2.55,2.55,0,1,0-2.56-2.55A2.56,2.56,0,0,0,15.36,23Z"/><path d="M35.84,23a2.55,2.55,0,1,0-2.56-2.55A2.56,2.56,0,0,0,35.84,23Z"/><path d="M25.6,23A2.55,2.55,0,1,0,23,20.48,2.56,2.56,0,0,0,25.6,23Z"/></svg>