<svg id="Layer_1" data-name="Layer 1" xmlns="http://www.w3.org/2000/svg" viewBox="0 0 128 128"><title>Artboard 59</title><path d="M50.7,94.19H77.3a1.5,1.5,0,0,0,1.5-1.5V35.31a1.5,1.5,0,0,0-1.5-1.5H50.7a1.5,1.5,0,0,0-1.5,1.5V92.69A1.5,1.5,0,0,0,50.7,94.19Zm1.5-3V65.5H75.8V91.19ZM75.8,36.81V62.5H52.2V36.81Z"/><path d="M64,80.48a9.26,9.26,0,0,0-7.69,4.11A1,1,0,0,0,58,85.7a7.24,7.24,0,0,1,12,0,1,1,0,0,0,.84.44.94.94,0,0,0,.55-.17,1,1,0,0,0,.28-1.38A9.25,9.25,0,0,0,64,80.48Z"/><path d="M64,23.35a3.54,3.54,0,1,0-3.54-3.54A3.55,3.55,0,0,0,64,23.35Z"/><path d="M64,104.39a3.54,3.54,0,1,0,3.54,3.54A3.55,3.55,0,0,0,64,104.39Z"/><path d="M113.58,2.56H14.42a1.5,1.5,0,0,0-1.5,1.5V123.94a1.5,1.5,0,0,0,1.5,1.5h99.16a1.5,1.5,0,0,0,1.5-1.5V4.06A1.5,1.5,0,0,0,113.58,2.56Zm-1.5,119.88H15.92V5.56h96.16Z"/></svg>