<svg id="Layer_1" data-name="Layer 1" xmlns="http://www.w3.org/2000/svg" viewBox="0 0 64 64"><title>tag-md</title><path d="M30.66,58.87a1,1,0,0,1-.71-.29,1,1,0,0,1,0-1.42L57.48,29.63V9a1,1,0,0,1,2,0v21.1a1,1,0,0,1-.29.71L31.37,58.58A1,1,0,0,1,30.66,58.87Zm-3.33-3.33a1.05,1.05,0,0,1-.71-.29L4.81,33.43a1,1,0,0,1,0-1.41l26.6-26.6a1,1,0,0,1,.7-.29H53.93a1,1,0,0,1,1,1V27.94a1,1,0,0,1-.3.71L28,55.25A1,1,0,0,1,27.33,55.54ZM6.93,32.73l20.4,20.4,25.6-25.6V7.13H32.53ZM45.09,18.56a3.62,3.62,0,0,1-2.55-1h0A3.6,3.6,0,1,1,48.69,15a3.6,3.6,0,0,1-3.6,3.59ZM44,16.1A1.6,1.6,0,0,0,46.69,15,1.6,1.6,0,0,0,44,13.84,1.61,1.61,0,0,0,44,16.1Z"/></svg>