<svg id="Layer_1" data-name="Layer 1" xmlns="http://www.w3.org/2000/svg" viewBox="0 0 128 128"><path d="M91.75,46.07a1.5,1.5,0,0,0-.37,2.09A46.23,46.23,0,1,1,79.82,36.65a1.5,1.5,0,1,0,1.71-2.46,49.18,49.18,0,1,0,12.3,12.25A1.49,1.49,0,0,0,91.75,46.07Z"/><path d="M70.39,47.45a1.49,1.49,0,0,0-.57-2A33.43,33.43,0,1,0,82.54,58a1.5,1.5,0,0,0-2.61,1.49A30.48,30.48,0,1,1,68.35,48,1.51,1.51,0,0,0,70.39,47.45Z"/><path d="M53.5,60.15a14.1,14.1,0,0,1,3.3.38,1.5,1.5,0,0,0,.68-2.93,17.73,17.73,0,0,0-4-.45A17.48,17.48,0,1,0,71,74.63a18,18,0,0,0-.4-3.74,1.5,1.5,0,1,0-2.94.64A14.48,14.48,0,1,1,53.5,60.15Z"/><path d="M123.6,19.55a1.5,1.5,0,0,0-1.39-.92h-13v-13a1.5,1.5,0,0,0-2.56-1.07L92,19.29a1.51,1.51,0,0,0-.43,1.05l-.11,14L52.38,73.52a1.51,1.51,0,0,0,1.06,2.56,1.53,1.53,0,0,0,1.07-.44L93.58,36.42h13.84a1.52,1.52,0,0,0,1.06-.44l14.79-14.79A1.51,1.51,0,0,0,123.6,19.55ZM106.8,33.42H94.47L94.56,21,106.25,9.29V20.13a1.5,1.5,0,0,0,1.5,1.5h10.84Z"/></svg>