<svg id="Layer_1" data-name="Layer 1" xmlns="http://www.w3.org/2000/svg" viewBox="0 0 128 128"><title>Artboard 180</title><path d="M126.07,110.27h-7.86V36.47a1.49,1.49,0,0,0-.63-1.23l-6.18-4.38V11.69a1.5,1.5,0,0,0-1.5-1.5h-12a1.5,1.5,0,0,0-1.5,1.5v8.56L94.7,19A1.5,1.5,0,0,0,93,19L70.07,35.24a1.52,1.52,0,0,0-.63,1.23v3H58.56v-3a1.52,1.52,0,0,0-.63-1.23L35,19a1.5,1.5,0,0,0-1.74,0l-1.7,1.21V11.69a1.5,1.5,0,0,0-1.5-1.5h-12a1.5,1.5,0,0,0-1.5,1.5V30.83l-6.22,4.41a1.49,1.49,0,0,0-.63,1.23v73.8H1.93a1.5,1.5,0,0,0,0,3H126.07a1.5,1.5,0,0,0,0-3ZM99.44,13.19h9V28.73l-9-6.36Zm-30,29.23v67.85H58.56V42.42ZM19.64,13.19h9v9.16l-9,6.35Zm8.25,97.08V91.81H40.45v18.46Zm15.56,0v-20a1.5,1.5,0,0,0-1.5-1.5H26.39a1.5,1.5,0,0,0-1.5,1.5v20H12.79v-73l6.09-4.32.12-.06,12-8.49a.83.83,0,0,0,.14-.13l3.06-2.17L55.56,37.24v73Zm44.1,0V91.81h12.56v18.46Zm15.56,0v-20a1.5,1.5,0,0,0-1.5-1.5H86.05a1.5,1.5,0,0,0-1.5,1.5v20H72.44v-73L93.83,22.07l3.24,2.3h0l12,8.49h0l6.17,4.38v73Z"/><path d="M30.1,39.42H22.21a1.5,1.5,0,0,0-1.5,1.5V55.79a1.5,1.5,0,0,0,1.5,1.5H30.1a1.5,1.5,0,0,0,1.5-1.5V40.92A1.5,1.5,0,0,0,30.1,39.42ZM28.6,54.29H23.71V42.42H28.6Z"/><path d="M46.14,39.42H38.25a1.5,1.5,0,0,0-1.5,1.5V55.79a1.5,1.5,0,0,0,1.5,1.5h7.89a1.5,1.5,0,0,0,1.5-1.5V40.92A1.5,1.5,0,0,0,46.14,39.42Zm-1.5,14.87H39.75V42.42h4.89Z"/><path d="M30.1,63.8H22.21a1.5,1.5,0,0,0-1.5,1.5V80.17a1.5,1.5,0,0,0,1.5,1.5H30.1a1.5,1.5,0,0,0,1.5-1.5V65.3A1.5,1.5,0,0,0,30.1,63.8ZM28.6,78.67H23.71V66.8H28.6Z"/><path d="M46.14,63.8H38.25a1.5,1.5,0,0,0-1.5,1.5V80.17a1.5,1.5,0,0,0,1.5,1.5h7.89a1.5,1.5,0,0,0,1.5-1.5V65.3A1.5,1.5,0,0,0,46.14,63.8Zm-1.5,14.87H39.75V66.8h4.89Z"/><path d="M89.75,39.42H81.86a1.5,1.5,0,0,0-1.5,1.5V55.79a1.5,1.5,0,0,0,1.5,1.5h7.89a1.5,1.5,0,0,0,1.5-1.5V40.92A1.5,1.5,0,0,0,89.75,39.42Zm-1.5,14.87H83.36V42.42h4.89Z"/><path d="M105.79,39.42H97.9a1.5,1.5,0,0,0-1.5,1.5V55.79a1.5,1.5,0,0,0,1.5,1.5h7.89a1.5,1.5,0,0,0,1.5-1.5V40.92A1.5,1.5,0,0,0,105.79,39.42Zm-1.5,14.87H99.4V42.42h4.89Z"/><path d="M89.75,63.8H81.86a1.5,1.5,0,0,0-1.5,1.5V80.17a1.5,1.5,0,0,0,1.5,1.5h7.89a1.5,1.5,0,0,0,1.5-1.5V65.3A1.5,1.5,0,0,0,89.75,63.8Zm-1.5,14.87H83.36V66.8h4.89Z"/><path d="M105.79,63.8H97.9a1.5,1.5,0,0,0-1.5,1.5V80.17a1.5,1.5,0,0,0,1.5,1.5h7.89a1.5,1.5,0,0,0,1.5-1.5V65.3A1.5,1.5,0,0,0,105.79,63.8Zm-1.5,14.87H99.4V66.8h4.89Z"/><path d="M61.08,30.32a.91.91,0,0,0,.23,0,1,1,0,0,0,.23-2,10.72,10.72,0,1,1,12.2-5.85c-1.17,2.46-3.66,5.12-5.95,5.21a2,2,0,0,1-1.55-.49c-.87-.8-1.11-2.56-1.19-3.88,2.74-.42,4.83-2.42,4.83-4.82V14.71a1,1,0,0,0-1-1H67.32a.91.91,0,0,0,.08-.37V9.92a1,1,0,0,0-2,0v3.42a1.11,1.11,0,0,0,.07.37H62.53a1.11,1.11,0,0,0,.07-.37V9.92a1,1,0,1,0-2,0v3.42a.91.91,0,0,0,.08.37H59.12a1,1,0,0,0-.71.3,1,1,0,0,0-.29.7v3.83C58.12,21,60.25,23,63,23.37c.14,2.1.52,4.12,1.84,5.34a4,4,0,0,0,3,1c3.25-.13,6.26-3.38,7.67-6.35a12.71,12.71,0,1,0-14.46,6.94Zm-1-11.79V15.71h7.76v2.83c0,1.6-1.74,2.9-3.88,2.9S60.12,20.14,60.12,18.53Z"/></svg>