<svg id="Layer_1" data-name="Layer 1" xmlns="http://www.w3.org/2000/svg" viewBox="0 0 128 128"><title>Artboard 58</title><path d="M126.07,112.54h-7.86V38.74a1.51,1.51,0,0,0-.63-1.23l-6.18-4.38V14a1.5,1.5,0,0,0-1.5-1.5h-12a1.5,1.5,0,0,0-1.5,1.5v8.56L94.7,21.28a1.5,1.5,0,0,0-1.74,0L70.07,37.51a1.53,1.53,0,0,0-.63,1.23v2.95H58.56V38.74a1.53,1.53,0,0,0-.63-1.23l-6.18-4.38V14a1.5,1.5,0,0,0-1.5-1.5h-12a1.5,1.5,0,0,0-1.5,1.5v8.56L35,21.28a1.5,1.5,0,0,0-1.74,0L10.42,37.51a1.51,1.51,0,0,0-.63,1.23v73.8H1.93a1.5,1.5,0,0,0,0,3H126.07a1.5,1.5,0,0,0,0-3ZM99.44,15.46h9V31l-9-6.36Zm-59.65,0h9V31l-9-6.36ZM69.44,44.69v67.85H58.56V44.69ZM27.89,112.54V94.08H40.45v18.46Zm15.56,0v-20a1.5,1.5,0,0,0-1.5-1.5H26.39a1.51,1.51,0,0,0-1.5,1.5v20H12.79v-73L34.17,24.34,55.56,39.51v73Zm44.1,0V94.08h12.56v18.46Zm15.56,0v-20a1.51,1.51,0,0,0-1.5-1.5H86.05a1.5,1.5,0,0,0-1.5,1.5v20H72.44v-73L93.83,24.34l21.38,15.17v73Z"/><path d="M30.1,41.69H22.21a1.5,1.5,0,0,0-1.5,1.5V58.06a1.5,1.5,0,0,0,1.5,1.5H30.1a1.5,1.5,0,0,0,1.5-1.5V43.19A1.5,1.5,0,0,0,30.1,41.69ZM28.6,56.56H23.71V44.69H28.6Z"/><path d="M46.14,41.69H38.25a1.5,1.5,0,0,0-1.5,1.5V58.06a1.5,1.5,0,0,0,1.5,1.5h7.89a1.5,1.5,0,0,0,1.5-1.5V43.19A1.5,1.5,0,0,0,46.14,41.69Zm-1.5,14.87H39.75V44.69h4.89Z"/><path d="M30.1,66.07H22.21a1.5,1.5,0,0,0-1.5,1.5V82.44a1.5,1.5,0,0,0,1.5,1.5H30.1a1.5,1.5,0,0,0,1.5-1.5V67.57A1.5,1.5,0,0,0,30.1,66.07ZM28.6,80.94H23.71V69.07H28.6Z"/><path d="M46.14,66.07H38.25a1.5,1.5,0,0,0-1.5,1.5V82.44a1.5,1.5,0,0,0,1.5,1.5h7.89a1.5,1.5,0,0,0,1.5-1.5V67.57A1.5,1.5,0,0,0,46.14,66.07Zm-1.5,14.87H39.75V69.07h4.89Z"/><path d="M89.75,41.69H81.86a1.5,1.5,0,0,0-1.5,1.5V58.06a1.5,1.5,0,0,0,1.5,1.5h7.89a1.5,1.5,0,0,0,1.5-1.5V43.19A1.5,1.5,0,0,0,89.75,41.69Zm-1.5,14.87H83.36V44.69h4.89Z"/><path d="M105.79,41.69H97.9a1.5,1.5,0,0,0-1.5,1.5V58.06a1.5,1.5,0,0,0,1.5,1.5h7.89a1.5,1.5,0,0,0,1.5-1.5V43.19A1.5,1.5,0,0,0,105.79,41.69Zm-1.5,14.87H99.4V44.69h4.89Z"/><path d="M89.75,66.07H81.86a1.5,1.5,0,0,0-1.5,1.5V82.44a1.5,1.5,0,0,0,1.5,1.5h7.89a1.5,1.5,0,0,0,1.5-1.5V67.57A1.5,1.5,0,0,0,89.75,66.07Zm-1.5,14.87H83.36V69.07h4.89Z"/><path d="M105.79,66.07H97.9a1.5,1.5,0,0,0-1.5,1.5V82.44a1.5,1.5,0,0,0,1.5,1.5h7.89a1.5,1.5,0,0,0,1.5-1.5V67.57A1.5,1.5,0,0,0,105.79,66.07Zm-1.5,14.87H99.4V69.07h4.89Z"/></svg>