<svg xmlns="http://www.w3.org/2000/svg" viewBox="0 0 128 128"><title>thermo-lg</title><path d="M63.94,28.49a1.5,1.5,0,0,0,1.5-1.5V22.84a1.5,1.5,0,0,0-3,0V27A1.5,1.5,0,0,0,63.94,28.49Z"/><path d="M71.75,31.68a1.51,1.51,0,0,0,1.06-.44l2.93-2.93a1.5,1.5,0,1,0-2.12-2.13l-2.93,2.94a1.49,1.49,0,0,0,0,2.12A1.51,1.51,0,0,0,71.75,31.68Z"/><path d="M79.17,36.45H75a1.5,1.5,0,0,0,0,3h4.15a1.5,1.5,0,0,0,0-3Z"/><path d="M72.89,44.7a1.49,1.49,0,0,0-2.12,0,1.51,1.51,0,0,0,0,2.12l2.94,2.93a1.45,1.45,0,0,0,1.06.44,1.48,1.48,0,0,0,1.06-.44,1.51,1.51,0,0,0,0-2.12Z"/><path d="M64.06,47.53a1.5,1.5,0,0,0-1.5,1.5v4.15a1.5,1.5,0,1,0,3,0V49A1.5,1.5,0,0,0,64.06,47.53Z"/><path d="M55.19,44.78l-2.93,2.94a1.5,1.5,0,0,0,1.06,2.56,1.51,1.51,0,0,0,1.06-.44l2.93-2.94a1.49,1.49,0,0,0,0-2.12A1.51,1.51,0,0,0,55.19,44.78Z"/><path d="M54.48,38.07a1.5,1.5,0,0,0-1.5-1.5H48.83a1.5,1.5,0,0,0,0,3H53A1.5,1.5,0,0,0,54.48,38.07Z"/><path d="M55.11,31.32a1.49,1.49,0,0,0,1.06.44,1.5,1.5,0,0,0,1.06-2.56l-2.94-2.93a1.49,1.49,0,0,0-2.12,0,1.51,1.51,0,0,0,0,2.12Z"/><path d="M64,30.86A7.15,7.15,0,1,0,71.15,38,7.16,7.16,0,0,0,64,30.86Zm0,11.3A4.15,4.15,0,1,1,68.15,38,4.15,4.15,0,0,1,64,42.16Z"/><path d="M64,68.89a4,4,0,1,0,4,4A4,4,0,0,0,64,68.89Z"/><path d="M82.37,13.79H45.63a5.5,5.5,0,0,0-5.5,5.5V44.66a31.71,31.71,0,0,0,1.29,8.27l1.42,4.45a7.33,7.33,0,0,0,6.64,4.85h29a7.33,7.33,0,0,0,6.64-4.85l1.42-4.45a31.71,31.71,0,0,0,1.29-8.27V19.29A5.5,5.5,0,0,0,82.37,13.79Zm2.5,30.87A29.63,29.63,0,0,1,83.73,52l-1.42,4.45a4.38,4.38,0,0,1-3.79,2.76h-29a4.38,4.38,0,0,1-3.79-2.76L44.27,52a29.63,29.63,0,0,1-1.14-7.36V19.29a2.5,2.5,0,0,1,2.5-2.5H82.37a2.5,2.5,0,0,1,2.5,2.5Z"/><path d="M93.56,2.43H34.44a5.51,5.51,0,0,0-5.5,5.5V50a22.63,22.63,0,0,0,1.86,8.26l11,23.27A8.43,8.43,0,0,0,48.87,86h5.68v34.08a5.51,5.51,0,0,0,5.5,5.5H68a5.51,5.51,0,0,0,5.5-5.5V86h5.68a8.43,8.43,0,0,0,7.07-4.47l11-23.27A22.63,22.63,0,0,0,99.06,50V7.93A5.51,5.51,0,0,0,93.56,2.43ZM70.45,120.07a2.5,2.5,0,0,1-2.5,2.5h-7.9a2.5,2.5,0,0,1-2.5-2.5V86h12.9ZM96.06,50a19.7,19.7,0,0,1-1.57,7l-11,23.27A5.43,5.43,0,0,1,79.13,83H48.87a5.43,5.43,0,0,1-4.36-2.76L33.51,57a19.7,19.7,0,0,1-1.57-7V7.93a2.5,2.5,0,0,1,2.5-2.5H93.56a2.5,2.5,0,0,1,2.5,2.5Z"/></svg>