<svg xmlns="http://www.w3.org/2000/svg" viewBox="0 0 128 128"><title>time-lg</title><path d="M73.13,107.76a6.45,6.45,0,1,0,6.45,6.44A6.46,6.46,0,0,0,73.13,107.76Zm0,9.92a3.48,3.48,0,1,1,3.48-3.48A3.48,3.48,0,0,1,73.13,117.68Z"/><path d="M90.17,101.48a6.45,6.45,0,1,0,6.44,6.45A6.45,6.45,0,0,0,90.17,101.48Zm0,9.93a3.48,3.48,0,1,1,3.47-3.48A3.48,3.48,0,0,1,90.17,111.41Z"/><path d="M103.47,89.49a6.45,6.45,0,1,0,6.45,6.44A6.45,6.45,0,0,0,103.47,89.49Zm0,9.92A3.48,3.48,0,1,1,107,95.93,3.48,3.48,0,0,1,103.47,99.41Z"/><path d="M112.33,74a6.45,6.45,0,1,0,6.44,6.44A6.45,6.45,0,0,0,112.33,74Zm0,9.92a3.48,3.48,0,1,1,3.47-3.48A3.48,3.48,0,0,1,112.33,83.92Z"/><path d="M115.4,56.16a6.45,6.45,0,1,0,6.45,6.44A6.46,6.46,0,0,0,115.4,56.16Zm0,9.92a3.48,3.48,0,1,1,3.48-3.48A3.48,3.48,0,0,1,115.4,66.08Z"/><path d="M111.57,51.21a6.45,6.45,0,1,0-6.45-6.45A6.45,6.45,0,0,0,111.57,51.21Zm0-9.92a3.48,3.48,0,1,1-3.48,3.47A3.47,3.47,0,0,1,111.57,41.29Z"/><path d="M56.79,10.57a52.2,52.2,0,0,1,33.27,8,1.64,1.64,0,0,0,.5.2l-6.35,9a1.51,1.51,0,0,0-.07,1.61,1.49,1.49,0,0,0,1.28.74h.14l18.9-1.81a1.49,1.49,0,0,0,1.29-1.88l-5-17.94a1.46,1.46,0,0,0-1.18-1.06,1.5,1.5,0,0,0-1.47.6l-6,8.52a1.46,1.46,0,0,0-.47-.49A55.14,55.14,0,0,0,56.5,7.61a55.69,55.69,0,0,0-1.89,110.65h.19a1.49,1.49,0,0,0,.19-3,52.72,52.72,0,0,1,1.8-104.74Zm41.95,1.69,3.67,13.21L88.5,26.8Z"/><path d="M91.53,84.72a1.49,1.49,0,0,0,.7-2.8l-32-17v-35a1.49,1.49,0,0,0-3,0V65.77A1.49,1.49,0,0,0,58,67.09L90.84,84.54A1.45,1.45,0,0,0,91.53,84.72Z"/></svg>