<svg id="Layer_1" data-name="Layer 1" xmlns="http://www.w3.org/2000/svg" viewBox="0 0 64 64"><title>time-md</title><path d="M36.86,62.36a3.64,3.64,0,1,1,3.64-3.64A3.64,3.64,0,0,1,36.86,62.36Zm0-5.28a1.64,1.64,0,1,0,1.64,1.64A1.65,1.65,0,0,0,36.86,57.08Zm-9.76,4H27A29.85,29.85,0,0,1,28,1.78,29.59,29.59,0,0,1,46.55,6.1l2.84-4a1,1,0,0,1,1-.41,1,1,0,0,1,.79.72l2.44,8.79a1,1,0,0,1-.87,1.26l-9.25.89a1,1,0,0,1-.92-1.57l2.82-4a27.55,27.55,0,0,0-17.21-4,27.85,27.85,0,0,0-.95,55.33,1,1,0,0,1-.13,2ZM49.81,5l-4.35,6.17,5.91-.57ZM45.93,59a3.64,3.64,0,1,1,3.64-3.64A3.64,3.64,0,0,1,45.93,59Zm0-5.28a1.64,1.64,0,1,0,1.64,1.64A1.64,1.64,0,0,0,45.93,53.74ZM53,52.64A3.64,3.64,0,1,1,56.65,49,3.65,3.65,0,0,1,53,52.64Zm0-5.28A1.64,1.64,0,1,0,54.65,49,1.63,1.63,0,0,0,53,47.36Zm4.71-3a3.64,3.64,0,1,1,3.64-3.64A3.64,3.64,0,0,1,57.72,44.39Zm0-5.28a1.64,1.64,0,1,0,1.64,1.64A1.65,1.65,0,0,0,57.72,39.11ZM46.65,43.24a1,1,0,0,1-.47-.12L28.71,33.83a1,1,0,0,1-.53-.89V13.81a1,1,0,0,1,2,0V32.34l16.94,9a1,1,0,0,1,.42,1.36A1,1,0,0,1,46.65,43.24ZM59.36,34.9A3.64,3.64,0,1,1,63,31.26,3.65,3.65,0,0,1,59.36,34.9Zm0-5.28A1.64,1.64,0,1,0,61,31.26,1.63,1.63,0,0,0,59.36,29.62Zm-2-4.22A3.64,3.64,0,1,1,61,21.76,3.64,3.64,0,0,1,57.32,25.4Zm0-5.28A1.64,1.64,0,1,0,59,21.76,1.64,1.64,0,0,0,57.32,20.12Z"/></svg>