<svg id="Layer_1" data-name="Layer 1" xmlns="http://www.w3.org/2000/svg" viewBox="0 0 128 128"><path d="M64.3,29.54h-.58a40.85,40.85,0,0,0-6.1.48,5.81,5.81,0,0,0-.63.15A40.45,40.45,0,0,0,35.47,41.39,39.5,39.5,0,0,0,23.6,69.49,40.67,40.67,0,0,0,64,110.33h.13a40.4,40.4,0,0,0,.19-80.79ZM96.65,51.63c-1.56.43-3.12.83-4.69,1.23-2.85.72-5.79,1.47-8.64,2.42a8.9,8.9,0,0,1-11.17-8.69c.14-3.09.11-6.21.07-9.23,0-1.31,0-2.62,0-3.92A37.42,37.42,0,0,1,96.65,51.63ZM80.92,82.69c2.4,3.09,4.79,6.2,7.2,9.35L90.36,95a35.66,35.66,0,0,1-8.79,6.72l-6.76-8.8c-.3-.39-.61-.77-.92-1.16a26.33,26.33,0,0,1-1.71-2.26c-1.49-2.24-4.58-3.59-8.27-3.63h-.13c-3.78,0-7.1,1.44-8.71,3.77-2.09,3-4.34,5.91-6.72,8.94l-2.33,3a36.63,36.63,0,0,1-8.73-6.78l.17-.22,1.67-2.21L42,88.58c1.55-2,3.11-4.06,4.66-6.1a8,8,0,0,0-4.53-13.21l-9.34-2.5-5.39-1.45a33.81,33.81,0,0,1,2.86-10.67l13.08,3.49A11.84,11.84,0,0,0,53.8,56.45a11.75,11.75,0,0,0,4.33-9.61V45.7c0-4.15,0-8.44,0-12.67,1.17-.19,2.36-.32,3.56-.4.5,0,1-.05,1.49-.06l.66,0a36,36,0,0,1,5.37.39v.31q0,2.07,0,4.14c0,3,.07,6.06-.07,9.07A11.89,11.89,0,0,0,84.26,58.12c2.75-.91,5.64-1.64,8.44-2.35,1.62-.41,3.25-.83,4.86-1.28l.08,0a38.91,38.91,0,0,1,2.87,10.73l-3.67,1c-3.8,1-7.58,2-11.35,3A8.18,8.18,0,0,0,79.43,75,8,8,0,0,0,80.92,82.69ZM37.59,43.52a37.5,37.5,0,0,1,17.52-9.89c0,4,0,8.11,0,12.06v1.15A8.82,8.82,0,0,1,52,54.07a8.89,8.89,0,0,1-7.86,1.17L31.26,51.82A37.28,37.28,0,0,1,37.59,43.52Zm-11,24.71L32,69.66l9.34,2.51a5,5,0,0,1,2.92,8.5l-4.65,6.08-2.86,3.73L35.06,92.7l-.28.38A37.69,37.69,0,0,1,26.6,69.5C26.6,69.07,26.62,68.65,26.63,68.23Zm37.48,39.1H64a37.06,37.06,0,0,1-15.87-3.62c.86-1.12,1.73-2.23,2.59-3.33,2.3-2.94,4.68-6,6.83-9.09,1-1.5,3.48-2.47,6.24-2.47h.11c2.61,0,4.88.92,5.78,2.29.59.88,1.25,1.7,1.88,2.48l.88,1.11L79.54,104A36.91,36.91,0,0,1,64.11,107.33ZM93,93.47,90.5,90.21c-2.41-3.15-4.8-6.26-7.21-9.36a5,5,0,0,1-1-4.93,5.16,5.16,0,0,1,4-3.81c3.78-1,7.56-2,11.37-3l3.74-1c0,.62,0,1.24,0,1.87A37.44,37.44,0,0,1,93,93.47Z"/><path d="M64.11,59.72H64a9.54,9.54,0,0,0-9.55,9.52,9.58,9.58,0,0,0,2.79,6.84A9.46,9.46,0,0,0,64,78.88h0a9.58,9.58,0,0,0,.12-19.16ZM64,75.88h0A6.48,6.48,0,0,1,59.35,74,6.57,6.57,0,0,1,64,62.72h.08A6.58,6.58,0,0,1,64,75.88Z"/><path d="M117.61,104.09l-.92-.61c14.6-27.53,8.91-61.56-13.48-79.66A62.37,62.37,0,0,0,26.8,22.18C3.07,39.81-3.68,75.24,11.16,103.31l-.31.29A12.9,12.9,0,0,1,9,105c-1.52,1-3.61,2.4-3,5.39,1,4.8,4.82,7.79,10.1,7.79h80l15.64,0c5,0,8.77-3,9.73-7.53C122.2,107.05,119.76,105.48,117.61,104.09Zm.9,5.92c-.66,3.16-3.26,5.13-6.79,5.14q-12.28,0-24.56,0H16.1c-3.88,0-6.49-2-7.16-5.37-.18-.88.05-1.19,1.74-2.31a14.82,14.82,0,0,0,2.26-1.73c.23-.22.48-.43.72-.64l.38-.33a1.5,1.5,0,0,0,.33-1.85C-.51,76,5.74,41.57,28.59,24.59a59.38,59.38,0,0,1,72.74,1.56c21.59,17.45,26.79,50.57,12.1,77a1.52,1.52,0,0,0,.38,1.91c.74.58,1.5,1.07,2.17,1.51C118.26,108.08,118.81,108.61,118.51,110Z"/></svg>