<?xml version="1.0" encoding="utf-8"?>
<!-- Generator: Adobe Illustrator 23.0.1, SVG Export Plug-In . SVG Version: 6.00 Build 0)  -->
<svg version="1.1" id="Layer_1" xmlns="http://www.w3.org/2000/svg" xmlns:xlink="http://www.w3.org/1999/xlink" x="0px" y="0px"
	 viewBox="0 0 128 128" style="enable-background:new 0 0 128 128;" xml:space="preserve">
<title>bell-lg</title>
<path d="M15.1,127.6c-4.2,0-8.1-1.6-11.1-4.6c-2.9-2.9-4.6-6.9-4.6-11.1c0-4.2,1.6-8.1,4.6-11.1l46.1-46.1L23.7,28.3l-7.4,7.3
	c-0.3,0.3-0.8,0.5-1.2,0.4c-0.4-0.1-0.8-0.3-1.1-0.7L1.6,14.9c-0.3-0.6-0.3-1.3,0.2-1.8l8.8-8.8c0.5-0.5,1.2-0.6,1.8-0.2l20.5,12.5
	c0.4,0.2,0.6,0.6,0.7,1.1c0.1,0.4-0.1,0.9-0.4,1.2l-7.4,7.4l26.4,26.4l17.2-17.2c-2.1-9.7,0.8-19.6,7.8-26.6
	c7.5-7.5,18.5-10.3,28.7-7.3c0.5,0.1,0.9,0.5,1,1c0.1,0.5,0,1-0.4,1.4L93.3,17.3l3.5,12.9l12.9,3.5l13.3-13.3
	c0.4-0.4,0.9-0.5,1.4-0.4c0.5,0.1,0.9,0.5,1,1c3,10.2,0.3,21.2-7.3,28.7c-7,7-16.9,9.9-26.6,7.8L74.3,74.8l12.4,12.4l9-9
	c0.6-0.6,1.5-0.6,2.1,0l22.3,22.3c2.9,2.9,4.6,6.9,4.6,11.1c0,4.2-1.6,8.1-4.6,11.1c-6.1,6.1-16,6.1-22.1,0l-22.3-22.3
	c-0.6-0.6-0.6-1.5,0-2.1l9-9L72.2,76.9L26.1,123C23.2,125.9,19.3,127.6,15.1,127.6z M97.6,3.4C90.8,3.4,84.2,6,79.2,11
	c-6.5,6.5-9.1,15.7-6.9,24.6c0.1,0.5,0,1-0.4,1.4L6.1,102.9c-2.4,2.4-3.7,5.6-3.7,9c0,3.4,1.3,6.6,3.7,9c2.4,2.4,5.6,3.7,9,3.7
	s6.6-1.3,9-3.7L90,55c0.4-0.4,0.9-0.5,1.4-0.4c8.9,2.2,18.2-0.4,24.7-6.9c6.2-6.2,8.8-14.9,7.1-23.4l-12,12
	c-0.4,0.4-0.9,0.5-1.4,0.4l-14.5-3.9c-0.5-0.1-0.9-0.5-1-1l-3.9-14.5c-0.1-0.5,0-1,0.4-1.4l12-12C101,3.5,99.3,3.4,97.6,3.4z
	 M78.8,99.4l21.2,21.2c5,5,13,5,18,0c2.4-2.4,3.7-5.6,3.7-9c0-3.4-1.3-6.6-3.7-9L96.8,81.3L78.8,99.4z M4.7,14.4l10.9,17.9
	l14.1-14.1L11.8,7.2L4.7,14.4z M110.6,114.6c-0.4,0-0.7-0.1-1-0.4L92.7,97.3c-0.6-0.6-0.6-1.5,0-2.1c0.6-0.6,1.5-0.6,2.1,0
	l16.9,16.9c0.6,0.6,0.6,1.5,0,2.1C111.3,114.5,110.9,114.6,110.6,114.6z M15.4,113c-0.4,0-0.7-0.1-1-0.4c-0.6-0.6-0.6-1.5,0-2.1
	l65.2-65.2c0.6-0.6,1.5-0.6,2.1,0c0.6,0.6,0.6,1.5,0,2.1l-65.2,65.2C16.2,112.9,15.8,113,15.4,113z"/>
</svg>
