<svg id="Layer_1" data-name="Layer 1" xmlns="http://www.w3.org/2000/svg" viewBox="0 0 128 128"><path d="M75,86.39l3.6-8.61a1.51,1.51,0,0,0-.06-1.28,1.54,1.54,0,0,0-1-.77l-9.2-1.81-4-4.5A1.51,1.51,0,0,0,62.63,69L53,72.94a1.54,1.54,0,0,0-.8.77L47.91,83.2a1.47,1.47,0,0,0-.13.62l.08,16.52-5.47,10.73a1.51,1.51,0,0,0,.36,1.82l9.11,7.83a1.54,1.54,0,0,0,1,.36H71.32a1.5,1.5,0,0,0,1.5-1.48l.07-5.48,5.37-5.31a1.5,1.5,0,0,0,.44-1.06V93a1.49,1.49,0,0,0-.21-.77Zm.71,20.73-5.35,5.3a1.55,1.55,0,0,0-.45,1l-.06,4.61H53.4l-7.8-6.7,5.1-10a1.49,1.49,0,0,0,.16-.69l-.08-16.55,3.93-8.64,8.07-3.29,3.6,4.07a1.46,1.46,0,0,0,.84.48l7.89,1.56-3.19,7.62a1.53,1.53,0,0,0,.1,1.35l3.68,6.08Z"/><path d="M49.21,37.47a3,3,0,1,0-3-3A3,3,0,0,0,49.21,37.47Z"/><path d="M78.79,37.47a3,3,0,1,0-3-3A3,3,0,0,0,78.79,37.47Z"/><path d="M124.81,56,105.67,36.84V26.41a1.49,1.49,0,0,0-.88-1.37L86.8,17a1.5,1.5,0,0,0-.62-.13H77.9V8.42a1.5,1.5,0,0,0-1.5-1.5H51.6a1.5,1.5,0,0,0-1.5,1.5v8.43H41.82a1.47,1.47,0,0,0-.62.13L23.21,25a1.49,1.49,0,0,0-.88,1.37V36.85L3.19,56a1.5,1.5,0,0,0-.3,1.7L22.47,99.15a1.52,1.52,0,0,0,1.36.86h10.5a1.5,1.5,0,0,0,1.45-1.89L27.12,65.66,43.29,52.35H84.71l16.17,13.31L92.22,98.12A1.5,1.5,0,0,0,93.67,100h10.5a1.52,1.52,0,0,0,1.36-.86l19.58-41.43A1.5,1.5,0,0,0,124.81,56ZM25.33,27.38l16.81-7.53H51.6a1.5,1.5,0,0,0,1.5-1.5V9.92H74.9v8.43a1.5,1.5,0,0,0,1.5,1.5h9.46l16.81,7.53V36H94a1.49,1.49,0,0,0-1.25.69l-8.28,12.7H43.57l-8.28-12.7A1.49,1.49,0,0,0,34,36H25.33ZM24.47,64A1.48,1.48,0,0,0,24,65.5L32.38,97h-7.6L6.05,57.4,24.45,39h8.77l7.54,11.58ZM103.22,97h-7.6L104,65.5a1.48,1.48,0,0,0-.49-1.54L87.24,50.55,94.78,39h8.77L122,57.4Z"/></svg>