<svg xmlns="http://www.w3.org/2000/svg" viewBox="0 0 128 128"><title>tree</title><path d="M120.17,122.71H100.56c.54-4.89,3.69-8.66,7.48-8.66a1.5,1.5,0,0,0,0-3c-5.42,0-9.9,5.11-10.5,11.66H90.3C91,111.85,98.82,103,108,103a1.5,1.5,0,0,0,0-3C97.2,100,88,110.23,87.29,122.71H65.5V93.59a45.67,45.67,0,1,0-3,0v29.12H34.56A14.83,14.83,0,0,0,19.83,109.4a1.5,1.5,0,0,0,0,3,11.82,11.82,0,0,1,11.7,10.31H7.83a1.5,1.5,0,1,0,0,3H120.17a1.5,1.5,0,0,0,0-3ZM21.33,48A42.67,42.67,0,1,1,65.5,90.59V76.91L88.87,61.73a1.5,1.5,0,1,0-1.64-2.51L65.5,73.34V38.42a1.5,1.5,0,0,0-3,0v17.8L51.08,50.89a1.5,1.5,0,0,0-1.27,2.72L62.5,59.53V90.59A42.71,42.71,0,0,1,21.33,48Z"/></svg>