<svg xmlns="http://www.w3.org/2000/svg" viewBox="0 0 24 24"><title>twitter</title><path d="M23,5.19a9.45,9.45,0,0,1-2.26,2.33c0,.13,0,.33,0,.59a12.64,12.64,0,0,1-.53,3.62,13.13,13.13,0,0,1-1.61,3.47A13.61,13.61,0,0,1,16,18.13a11.05,11.05,0,0,1-3.6,2,13.1,13.1,0,0,1-4.51.76,12.5,12.5,0,0,1-6.92-2A9.06,9.06,0,0,0,2.09,19,8.87,8.87,0,0,0,7.69,17a4.51,4.51,0,0,1-4.22-3.13,5.3,5.3,0,0,0,.85.07,4.79,4.79,0,0,0,1.19-.15,4.44,4.44,0,0,1-2.59-1.56,4.38,4.38,0,0,1-1-2.87V9.35a4.53,4.53,0,0,0,2,.57A4.44,4.44,0,0,1,2.47,8.31a4.3,4.3,0,0,1-.55-2.15,4.52,4.52,0,0,1,.61-2.27A12.72,12.72,0,0,0,6.65,7.22a12.68,12.68,0,0,0,5.18,1.39,5.41,5.41,0,0,1-.11-1A4.32,4.32,0,0,1,13,4.39a4.52,4.52,0,0,1,6.48.1A9,9,0,0,0,22.39,3.4a4.43,4.43,0,0,1-2,2.49A9.31,9.31,0,0,0,23,5.19Z"/></svg>