<svg id="Layer_1" data-name="Layer 1" xmlns="http://www.w3.org/2000/svg" viewBox="0 0 64 64"><title>umbrella-md</title><path d="M28.42,63a4.59,4.59,0,0,1-4.58-4.58,1,1,0,0,1,2,0,2.58,2.58,0,1,0,5.16,0v-27H7.24a1,1,0,0,1-1-1A25.79,25.79,0,0,1,31,4.63V2a1,1,0,0,1,2,0V4.63A25.79,25.79,0,0,1,57.76,30.37a1,1,0,0,1-1,1H33V58.42A4.58,4.58,0,0,1,28.42,63Zm17-33.63H55.74A23.8,23.8,0,0,0,38.24,7.44C42.43,11.54,45.28,19.69,45.47,29.37Zm-24.94,0H43.47C43.2,17,38.12,6.74,32.12,6.61h-.23C25.88,6.74,20.8,17,20.53,29.37Zm-12.27,0H18.53c.19-9.68,3-17.83,7.23-21.93A23.8,23.8,0,0,0,8.26,29.37Z"/></svg>