<svg xmlns="http://www.w3.org/2000/svg" viewBox="0 0 128 128"><title>umbrella-lg</title><path d="M56.6,127.49a8.9,8.9,0,0,1-8.89-8.9,1.5,1.5,0,0,1,3,0,5.9,5.9,0,1,0,11.79,0V62.14H12.83a1.5,1.5,0,0,1-1.5-1.5A52.74,52.74,0,0,1,62.5,8V2a1.5,1.5,0,0,1,3,0V8a52.74,52.74,0,0,1,51.17,52.65,1.5,1.5,0,0,1-1.5,1.5H65.5v56.45A8.91,8.91,0,0,1,56.6,127.49ZM91.27,59.14h22.38a49.77,49.77,0,0,0-38.79-47C84.39,20,91,37.77,91.27,59.14Zm-51.54,0H88.27C87.88,32.59,77.25,11.2,64.21,11h-.42C50.75,11.2,40.12,32.59,39.73,59.14Zm-25.38,0H36.73c.3-21.37,6.88-39.19,16.41-47A49.77,49.77,0,0,0,14.35,59.14Z"/></svg>