<svg id="Layer_1" data-name="Layer 1" xmlns="http://www.w3.org/2000/svg" viewBox="0 0 128 128"><title>Artboard 218</title><path d="M68.18,30.51l.64,3.58a4,4,0,0,0,2.61,3.12C73.64,45,79.91,50.36,86.94,50.37s13.29-5.37,15.5-13.16a4,4,0,0,0,2.62-3.15l.64-3.55a5.31,5.31,0,0,0-.22-2.91,1.49,1.49,0,0,0,.32-.92c0-11.44-8.13-20.07-18.91-20.07S68.07,15.24,68.07,26.68a1.49,1.49,0,0,0,.32.92A5.22,5.22,0,0,0,68.18,30.51ZM102.74,30l-.63,3.52a1,1,0,0,1-1,1,1.49,1.49,0,0,0-1.3,1.14c-1.65,6.92-6.92,11.75-12.82,11.76S75.76,42.53,74.12,35.61a1.5,1.5,0,0,0-1.31-1.14,1,1,0,0,1-1-.94L71.13,30a2,2,0,0,1,.14-1.47,1.26,1.26,0,0,1,.87-.33h1.3a12.47,12.47,0,0,0,10.79-5.34c4.16,5.34,9.49,5.34,17.15,5.34h.35a1.3,1.3,0,0,1,.88.33A2,2,0,0,1,102.74,30ZM86.89,9.61c8.6,0,15.2,6.6,15.86,15.57h-1.37c-8.29,0-12.46,0-15.94-5.91a1.49,1.49,0,0,0-1.29-.74h-.06a1.52,1.52,0,0,0-1.29.85,9.69,9.69,0,0,1-9.36,5.8H71.12C71.78,16.21,78.34,9.61,86.89,9.61Z"/><path d="M54.61,68.82l.24,0a1.51,1.51,0,0,0,1.48-1.26l.39-2.44,15.66-7.73A19.07,19.07,0,0,0,87,64.18a19.39,19.39,0,0,0,14.84-7L118,65.14l1.62,10.07a1.51,1.51,0,0,0,1.48,1.26l.24,0a1.5,1.5,0,0,0,1.25-1.72l-1.76-10.84a1.48,1.48,0,0,0-.81-1.1L96.9,51.41a1.5,1.5,0,0,0-1.33,2.69l3.52,1.74a16.34,16.34,0,0,1-12,5.34A16.14,16.14,0,0,1,75.17,56L79.1,54.1a1.5,1.5,0,0,0-1.33-2.69l-5.6,2.76,0,0L54.7,62.79a1.52,1.52,0,0,0-.82,1.1l-.51,3.21A1.49,1.49,0,0,0,54.61,68.82Z"/><path d="M105.65,83c-5.54,1-11.35,2.23-14.49,3,0-.09,0-.19,0-.28a.87.87,0,0,1,0-.1c0-.05,0-.1,0-.15a5.49,5.49,0,0,0-.27-1,7.33,7.33,0,0,0-5.66-4.75l-33.3-5.9A23.54,23.54,0,0,0,39.62,74.9l-.16.06L23.37,83l-1.2-3.29a4.43,4.43,0,0,0-5.63-2.68L8.37,79.65a4.45,4.45,0,0,0-2.66,5.69l12.06,33.12h0a4.47,4.47,0,0,0,4.17,2.94,4.37,4.37,0,0,0,1.46-.26l8.17-2.57a4.4,4.4,0,0,0,2.51-2.3,4.45,4.45,0,0,0,.15-3.4L33.17,110l4-2.43a13.82,13.82,0,0,1,2.88,0l.17,0,13.12,2.76a20.61,20.61,0,0,0,5.68.79,10.15,10.15,0,0,0,3.23-.43l55.41-17.75a7.33,7.33,0,0,0,4.1-3.69.75.75,0,0,0,.07-.12,7.39,7.39,0,0,0,.24-5.67C121.52,81.87,119.77,80.52,105.65,83ZM31.36,115a1.4,1.4,0,0,1-.75.73l-8.17,2.57a1.45,1.45,0,0,1-1.85-.86L8.53,84.32a1.47,1.47,0,0,1,.05-1.11,1.38,1.38,0,0,1,.75-.72l8.17-2.58a1.45,1.45,0,0,1,1.85.87l1.78,4.86h0l8.8,24.18h0l1.48,4.07A1.45,1.45,0,0,1,31.36,115Zm87.83-27.24a.41.41,0,0,0,0,.09,4.33,4.33,0,0,1-2.42,2.25L61.31,107.85c-1.44.52-5.26.21-7.06-.39l-.18,0-13.15-2.76a12.5,12.5,0,0,0-4.81.07,1.31,1.31,0,0,0-.27.12l-3.72,2.25L24.4,85.88l16.33-8.2a20.83,20.83,0,0,1,10.59-.9l33.3,5.9A4.36,4.36,0,0,1,88,85.53a2.47,2.47,0,0,1,.11.36,2.58,2.58,0,0,0,.07.42,3.88,3.88,0,0,1,0,1.4v0C88,88.42,85,89.65,76.93,89c-5.09-.17-19.23-1.11-23.53-3.37A1.5,1.5,0,1,0,52,88.28c5.79,3,24,3.69,24.76,3.72,8,.64,12.76-.31,14.06-2.81,5.27-1.62,25.42-5.55,28.56-4.4A4.41,4.41,0,0,1,119.19,87.76Z"/></svg>