<svg id="Layer_1" data-name="Layer 1" xmlns="http://www.w3.org/2000/svg" viewBox="0 0 128 128"><defs><style>.cls-1{fill:#2de07e;}.cls-2{fill:#fff;}</style></defs><g id="Shape_15_copy_7" data-name="Shape 15 copy 7"><path class="cls-1" d="M94.07,76H82.93a1.06,1.06,0,0,1-1.07-1.07V49.75a2.92,2.92,0,0,0-5.84,0V77.07a4.29,4.29,0,0,0,4.28,4.29H94.07a2.69,2.69,0,0,0,0-5.37ZM32.78,46.86a5.07,5.07,0,0,0-.55,0H27.77l3.29-9.44L22.14,47.66a2.91,2.91,0,0,0-.76,2.06,2.53,2.53,0,0,0,1.13,2,2.45,2.45,0,0,0,1.42.45h4.5L23.69,66.09c-1,2.94-1.88,5.94-2.84,8.79h-.2c-.86-2.8-1.83-5.94-2.79-8.79L12,48.82a2.93,2.93,0,1,0-5.53,1.92L16.07,78h0s0,.07,0,.11a5,5,0,0,0,4.54,3.24h.23a4.94,4.94,0,0,0,4.53-3.26.59.59,0,0,0,0-.08h0l9.63-27.13a1.25,1.25,0,0,0,.09-.25,2.9,2.9,0,0,0,.06-1.47A3,3,0,0,0,32.78,46.86Zm86.25,0H97.73a2.68,2.68,0,0,0-2.67,2.68h0a2.68,2.68,0,0,0,2.67,2.67h7.79V78.46a4.38,4.38,0,0,0,0,.51s0,0,0,0a2.89,2.89,0,0,0,5.65.1,2.82,2.82,0,0,0,.08-.65V52.17H119a2.68,2.68,0,0,0,2.67-2.67h0A2.68,2.68,0,0,0,119,46.81Zm-65,0c-8.53,0-13.54,4.93-13.54,13.38v7.72c0,8.45,5,13.43,13.54,13.43s13.54-5,13.54-13.43V60.21C67.59,51.76,62.58,46.83,54.05,46.83Zm7.61,21.1c0,5.17-2.6,7.92-7.61,7.92s-7.61-2.75-7.61-7.92V60.26c0-5.21,2.6-8,7.61-8s7.61,2.76,7.61,8Z"/></g><path class="cls-2" d="M106.86,35.23l0-.15c0-.59-.16-1.7-.16-3v-.25c0-2.75,5-5.9,11-7.58l0-.11c-.1-.22-.27-.61-.38-.8s-.11-.26-.23-.32a2.12,2.12,0,0,0-.49.11,24.08,24.08,0,0,0-9.78,5.66c-1.87,1.76-3.39,3.55-5.19,5.15,0,0-2.94,3-4.92,3.13a1.57,1.57,0,0,1-.83-.15,7.84,7.84,0,0,1-2.43-2.66,7.55,7.55,0,0,0-1.92,2.17c0,.06-.1.21-.14.27s-.4.18-.51.07v-.18c.2-1.15.27-1.39.27-1.39a7.28,7.28,0,0,1,1.62-2.38l-.08-.2a8.81,8.81,0,0,1-.45-3.12c.14-2.5.95-4.29,2.07-5,0,0,1.36-.8,2.38-1.35a1.32,1.32,0,0,1,.88-.23,5.45,5.45,0,0,1,2.62,1.53c1.2,1,2.38,2.18,2.56,3.07a1.14,1.14,0,0,1-.07.72l-1.31,2c-.3.45-1.9.79-4.3,2l-.28.12a6.73,6.73,0,0,0,.85,1,.92.92,0,0,0,.44.27c.56.16,1.48-.27,3.55-2.25.59-.57,2.88-2.87,4.55-4.29,0,0,4.43-4,8.73-5.25a2.7,2.7,0,0,1,1.29-.09c1,.29,2.06.72,2.69,1a2.78,2.78,0,0,1,1.14,1,44,44,0,0,1,5.67-.79h.15l.93.36c.37.14.38.26.2.31a46.06,46.06,0,0,0-6.31,1.4,14.16,14.16,0,0,1,1,5.8c0,3.74-1.49,9.77-7.47,9.85-2.53,0-5.53-2.5-7-4.54a2.52,2.52,0,0,1-.34-.76M113.18,37h.08c3.88.18,5.21-4.26,5.3-7.44a20.44,20.44,0,0,0-.36-3.92c-5.69,2.23-9.28,5-10.46,7.45,1.36,2,3.57,3.79,5.43,3.9Zm-17.3-6.4a47.3,47.3,0,0,1,4.75-1.81l0,0a8.86,8.86,0,0,0-2-2.06A24.28,24.28,0,0,0,96,24.88l0,0a7.7,7.7,0,0,0-.58,2.58,7.47,7.47,0,0,0,.49,3.2"/><rect class="cls-2" x="75.99" y="25.81" width="2.08" height="1.62"/><path class="cls-2" d="M85.48,37.31l-.55.14-.66.1c-.25,0-1,0-1.34,0a3.58,3.58,0,0,1-.53-.07,2.07,2.07,0,0,1-.84-.4,2.75,2.75,0,0,1-.77-1,4,4,0,0,1-.34-1.79V29.64H79.39V28.48h1.06l.35-1.42h1.5v1.42h3.4v1.16H82.3v4.75c0,1.25.5,1.87,1.5,1.87a9.55,9.55,0,0,0,1.06-.06l.86-.13.35,0v1.11l-.59.18"/><polygon class="cls-2" points="40.51 26.55 40.51 37.42 48.33 37.42 48.33 35.99 42.58 35.99 42.62 32.47 47.67 32.47 47.67 31.2 42.62 31.2 42.62 28.03 48.21 28.03 48.21 26.55 40.51 26.55"/><path class="cls-2" d="M67,31a1.43,1.43,0,0,0-.32-1,1.24,1.24,0,0,0-1-.37H63.6a1.25,1.25,0,0,0-1,.37,1.47,1.47,0,0,0-.31.95V32.6H67ZM68.37,37c-.43.13-.84.24-1.24.33s-.88.16-1.45.23-1.87.1-2.58.1a4.14,4.14,0,0,1-.56-.07,2.21,2.21,0,0,1-.9-.4,3,3,0,0,1-.84-1,3.67,3.67,0,0,1-.36-1.78V31.54a3.68,3.68,0,0,1,.17-1.15,2.81,2.81,0,0,1,.54-1,2.72,2.72,0,0,1,.94-.67,3.54,3.54,0,0,1,1.38-.25h2.35a3.76,3.76,0,0,1,1.4.23,2.28,2.28,0,0,1,.87.6,2.14,2.14,0,0,1,.45.82,2.9,2.9,0,0,1,.13.86V32.8a.92.92,0,0,1-.21.65.67.67,0,0,1-.53.23H62.28v1.17a1.31,1.31,0,0,0,.11.54,1.51,1.51,0,0,0,.31.45,1.39,1.39,0,0,0,.48.32,2.35,2.35,0,0,0,.8.12c.43,0,.87,0,1.33-.05s.89-.08,1.3-.14.76-.11,1.07-.17a4.47,4.47,0,0,0,.69-.15Z"/><path class="cls-2" d="M56.93,37.42v-6a4.41,4.41,0,0,0,0-.6,1.5,1.5,0,0,0-.18-.59,1.29,1.29,0,0,0-1.19-.65,6.27,6.27,0,0,0-.89.09l-1.23.19-1.49.29v7.22H50.06V28.48h1.49l.28.67,1.42-.43c.4-.1.84-.2,1.32-.29a10.16,10.16,0,0,1,1.61-.13,5.29,5.29,0,0,1,.86.08,1.94,1.94,0,0,1,.83.4,2.35,2.35,0,0,1,.65,1,5.06,5.06,0,0,1,.25,1.78v5.89Z"/><rect class="cls-2" x="76.11" y="28.5" width="1.84" height="8.92"/><path class="cls-2" d="M73.7,26.79a1.61,1.61,0,0,0-.87.18.84.84,0,0,0-.34.35.67.67,0,0,0,0,.17v1h1.87v1.16H72.44V37.4H70.62V29.66h-.9V28.5h.9v-.73a2.49,2.49,0,0,1,.16-1,2,2,0,0,1,.44-.65,1.69,1.69,0,0,1,.61-.38,3.85,3.85,0,0,1,.94-.12,14.15,14.15,0,0,1,2.07.13v1Z"/><path class="cls-1" d="M36.27,90.73c3,0,5.12,1.82,5.12,4.91v2.14a4.46,4.46,0,0,1-4.69,4.77,5.79,5.79,0,0,1-2-.36V106c0,.26-.13.39-.37.39H31.79a.34.34,0,0,1-.38-.39V92a.37.37,0,0,1,.28-.41A14,14,0,0,1,36.27,90.73ZM38,97.84V95.57a1.65,1.65,0,0,0-1.84-1.9,4.52,4.52,0,0,0-1.49.24v5.4a3,3,0,0,0,1.51.37A1.62,1.62,0,0,0,38,97.84Z"/><path class="cls-1" d="M47.28,90.73c3,0,4.74,1.56,4.74,4.84v5.93a.43.43,0,0,1-.33.43,16.33,16.33,0,0,1-4.45.62c-3.11,0-5.08-1.16-5.08-3.71,0-2.25,1.78-3.37,4.71-3.37a14.34,14.34,0,0,1,1.84.13v-.22c0-1.14-.41-1.77-1.81-1.77a6.37,6.37,0,0,0-2.7.6.34.34,0,0,1-.52-.13l-.89-1.68c-.11-.22-.11-.37,0-.48A8.47,8.47,0,0,1,47.28,90.73Zm0,9.14a7.15,7.15,0,0,0,1.47-.17V97.8a8,8,0,0,0-1.49-.13c-1.19,0-1.71.39-1.71,1.08S46.2,99.87,47.24,99.87Z"/><path class="cls-1" d="M54.09,102.27a.34.34,0,0,1-.39-.39V92.07a.5.5,0,0,1,.28-.45,9.14,9.14,0,0,1,4-.89,12.61,12.61,0,0,1,2.09.22.37.37,0,0,1,.35.41v2a.31.31,0,0,1-.41.34,10,10,0,0,0-1.34-.08,4.44,4.44,0,0,0-1.64.28v8c0,.26-.13.39-.37.39Z"/><path class="cls-1" d="M66,99.59c.19,0,.45,0,.69,0s.41.07.41.32V102a.38.38,0,0,1-.3.43,7.63,7.63,0,0,1-1.36.11c-2.51,0-4.2-1.36-4.2-4.12V88.7c0-.23.13-.36.39-.36h2.25c.24,0,.37.1.39.34l.26,2.59h1.94a.35.35,0,0,1,.39.37v2.08a.35.35,0,0,1-.39.36H64.59V98C64.59,99.05,65.09,99.59,66,99.59Z"/><path class="cls-1" d="M68.65,102.29a.35.35,0,0,1-.39-.38V92.07a.46.46,0,0,1,.28-.45,12.61,12.61,0,0,1,4.54-.89c3.28,0,5.14,1.78,5.14,5v6.16a.35.35,0,0,1-.39.38H75.28a.35.35,0,0,1-.38-.38V95.75c0-1.58-.67-2.08-1.82-2.08a5.35,5.35,0,0,0-1.51.2v8a.34.34,0,0,1-.37.38Z"/><path class="cls-1" d="M89.46,97.41c0,.24-.13.37-.39.37H83v.34c0,1.11.72,1.67,1.86,1.67A5.38,5.38,0,0,0,87.56,99a.3.3,0,0,1,.49.09l1.13,1.49a.36.36,0,0,1-.07.54,7,7,0,0,1-4.41,1.42c-2.81,0-5.07-1.49-5.07-4.49V95.34c0-3.22,2.26-4.61,5-4.61s4.82,1.34,4.82,4.61Zm-4.84-3.93A1.52,1.52,0,0,0,83,95.19v.45h3.33v-.45A1.53,1.53,0,0,0,84.62,93.48Z"/><path class="cls-1" d="M91.23,102.27a.34.34,0,0,1-.39-.39V92.07a.48.48,0,0,1,.28-.45,9.13,9.13,0,0,1,4-.89,12.83,12.83,0,0,1,2.1.22.37.37,0,0,1,.35.41v2a.31.31,0,0,1-.41.34,10.14,10.14,0,0,0-1.34-.08,4.49,4.49,0,0,0-1.65.28v8c0,.26-.13.39-.36.39Z"/></svg>