<svg id="Layer_1" data-name="Layer 1" xmlns="http://www.w3.org/2000/svg" viewBox="0 0 128 128"><title>voltage_control-lg</title><path d="M118.9,20.21H9.1a1.5,1.5,0,0,0-1.5,1.5v79.91a1.5,1.5,0,0,0,1.5,1.5H118.9a1.5,1.5,0,0,0,1.5-1.5V21.71A1.5,1.5,0,0,0,118.9,20.21Zm-1.5,79.91H10.6V23.21H117.4Z"/><path d="M19.42,64.61H66.49a1.5,1.5,0,0,0,1.5-1.5V32.38a1.5,1.5,0,0,0-1.5-1.5H19.42a1.5,1.5,0,0,0-1.5,1.5V63.11A1.5,1.5,0,0,0,19.42,64.61Zm1.5-30.73H65V61.61H20.92Z"/><path d="M31.46,104.79h-12a1.5,1.5,0,0,0,0,3h12a1.5,1.5,0,0,0,0-3Z"/><path d="M108.58,104.79h-12a1.5,1.5,0,0,0,0,3h12a1.5,1.5,0,0,0,0-3Z"/><path d="M108.58,92.74a1.5,1.5,0,0,0,1.5-1.5V77.54a1.5,1.5,0,0,0-3,0v13.7A1.5,1.5,0,0,0,108.58,92.74Z"/><path d="M99.58,92.74a1.5,1.5,0,0,0,1.5-1.5V77.54a1.5,1.5,0,0,0-3,0v13.7A1.5,1.5,0,0,0,99.58,92.74Z"/><path d="M90.58,92.74a1.5,1.5,0,0,0,1.5-1.5V77.54a1.5,1.5,0,0,0-3,0v13.7A1.5,1.5,0,0,0,90.58,92.74Z"/><path d="M81.58,92.74a1.5,1.5,0,0,0,1.5-1.5V77.54a1.5,1.5,0,0,0-3,0v13.7A1.5,1.5,0,0,0,81.58,92.74Z"/><path d="M43,35.14A20.81,20.81,0,0,0,22.17,55.92a1.5,1.5,0,0,0,3,0,17.78,17.78,0,1,1,35.56,0,1.5,1.5,0,0,0,3,0A20.8,20.8,0,0,0,43,35.14Z"/><path d="M33.35,45.66a1.49,1.49,0,0,0-2.12,0,1.51,1.51,0,0,0,0,2.12l11,11a1.48,1.48,0,0,0,1.06.44,1.45,1.45,0,0,0,1.06-.44,1.49,1.49,0,0,0,0-2.12Z"/></svg>