<svg id="Layer_1" data-name="Layer 1" xmlns="http://www.w3.org/2000/svg" viewBox="0 0 128 128"><title>Artboard 208</title><g id="Shape_14" data-name="Shape 14"><path d="M64.26,51.77a4.61,4.61,0,0,0-3.81-3.59,5,5,0,0,0-.86,0h-7l5.18-14.77-14,16.07a4.56,4.56,0,0,0-1.19,3.22,4,4,0,0,0,1.78,3.18,3.88,3.88,0,0,0,2.23.69h7.06L48.74,70.75c-1.51,4.61-3,9.3-4.46,13.76H44c-1.36-4.39-2.87-9.3-4.39-13.76l-9.21-27a4.6,4.6,0,1,0-8.69,3L36.76,89.39h0a1.22,1.22,0,0,0,.07.17,7.78,7.78,0,0,0,7.11,5.08h.37a7.79,7.79,0,0,0,7.12-5.1l.06-.14h0L64,54.46c0-.13.09-.26.13-.39A4.45,4.45,0,0,0,64.26,51.77Z"/></g><path d="M68.47,77.29H85.61a.58.58,0,0,0,.66-.66V72.75q0-.63-.66-.63H76.19a68.87,68.87,0,0,0,5.47-5.5,24.41,24.41,0,0,0,3.19-4.42,8.52,8.52,0,0,0,1-4,7.21,7.21,0,0,0-2.36-5.74,9.31,9.31,0,0,0-6.32-2.05,11.67,11.67,0,0,0-8.57,3.81.69.69,0,0,0,0,.92l2.29,3.06c.3.37.59.39.89,0a7.61,7.61,0,0,1,5.21-2.55,3.27,3.27,0,0,1,2.38.76,2.59,2.59,0,0,1,.76,1.9,5.27,5.27,0,0,1-1.26,3.16,56.72,56.72,0,0,1-4.62,5l-6,6.1a1.11,1.11,0,0,0-.34.81v3.22A.59.59,0,0,0,68.47,77.29Z"/><path d="M105.92,72.12H96.5a68.87,68.87,0,0,0,5.47-5.5,23.92,23.92,0,0,0,3.19-4.42,8.41,8.41,0,0,0,1-4,7.18,7.18,0,0,0-2.36-5.74,9.3,9.3,0,0,0-6.32-2.05,11.68,11.68,0,0,0-8.57,3.81.7.7,0,0,0,0,.92l2.29,3.06c.29.37.59.39.88,0a7.62,7.62,0,0,1,5.21-2.55,3.25,3.25,0,0,1,2.38.76,2.55,2.55,0,0,1,.76,1.9,5.31,5.31,0,0,1-1.25,3.16,58.38,58.38,0,0,1-4.62,5l-6.06,6.1a1.1,1.1,0,0,0-.33.81v3.22a.58.58,0,0,0,.66.66h17.14a.59.59,0,0,0,.67-.66V72.75C106.59,72.33,106.37,72.12,105.92,72.12Z"/><path d="M70.38,87.92l3.13-3.08s.07-.1,0-.14,0-.07-.12-.07H72.36a.26.26,0,0,0-.21.09L68.81,88V81.87c0-.11,0-.16-.17-.16h-.87c-.11,0-.17.05-.17.16V92.11a.15.15,0,0,0,.17.16h.87c.12,0,.17-.06.17-.16V89.48l.76-.73,2.81,3.42a.29.29,0,0,0,.22.1h1.09q.24,0,.09-.21Z"/><path d="M87.61,81.71h-1c-.09,0-.14,0-.17.14l-1.54,5.78q-.31,1.2-.72,3.12h0q-.31-1.25-.9-3.3L81.59,82a.16.16,0,0,0-.17-.14h-1a.17.17,0,0,0-.17.14l-1.63,5.44c-.35,1.21-.66,2.31-.9,3.3h0c-.21-1-.45-2-.74-3.12L75.4,81.85c0-.1-.07-.14-.17-.14h-1c-.14,0-.19.06-.15.19l2.85,10.22a.18.18,0,0,0,.19.15h1.08a.18.18,0,0,0,.18-.15l1.7-5.51q.45-1.48.81-3.12h0q.26,1.26.81,3.12l1.7,5.51a.15.15,0,0,0,.17.15h1.08a.18.18,0,0,0,.18-.15L87.76,81.9C87.79,81.77,87.75,81.71,87.61,81.71Z"/></svg>