<svg id="Layer_1" data-name="Layer 1" xmlns="http://www.w3.org/2000/svg" viewBox="0 0 128 128"><path d="M92.16,76.54H12.54a1.5,1.5,0,0,0,0,3H92.16a12.06,12.06,0,1,1-12,12.06,1.5,1.5,0,0,0-3,0,15.06,15.06,0,1,0,15-15.06Z"/><path d="M96.09,23.75A20.89,20.89,0,0,0,75.23,44.62a1.5,1.5,0,0,0,3,0A17.87,17.87,0,1,1,96.09,62.48H12.54a1.5,1.5,0,1,0,0,3H96.09a20.87,20.87,0,1,0,0-41.73Z"/><path d="M12.54,51.46h42A15.06,15.06,0,1,0,39.48,36.4a1.5,1.5,0,0,0,3,0A12.06,12.06,0,1,1,54.54,48.46h-42a1.5,1.5,0,0,0,0,3Z"/></svg>