<svg id="Layer_1" data-name="Layer 1" xmlns="http://www.w3.org/2000/svg" viewBox="0 0 128 128"><path d="M103.4,79.53a1.48,1.48,0,0,0-1.43-1H71.24L69.67,53.93,93.18,66.19a4.91,4.91,0,0,0,5-8.46l-27.67-18L68.91,6.83a4.91,4.91,0,0,0-9.82,0L57.51,39.73l-27.61,18a4.91,4.91,0,0,0,4.92,8.5L58.33,53.93,56.76,78.48H26a1.48,1.48,0,0,0-1.43,1l-11.19,36a1.49,1.49,0,0,0,1.43,1.94H38v7.16a1.5,1.5,0,0,0,3,0v-7.16H87v7.16a1.5,1.5,0,0,0,3,0v-7.16h23.17a1.49,1.49,0,0,0,1.43-1.94Zm-41.35-33a3.06,3.06,0,0,1-.29-.21l-.29-.23c-.08-.08-.15-.17-.22-.25L61,45.57a3.14,3.14,0,0,1-.18-.31,1.64,1.64,0,0,1-.16-.29,2.79,2.79,0,0,1-.14-.37c0-.1-.07-.19-.09-.29a2.63,2.63,0,0,1-.06-.39c0-.11,0-.22,0-.33s0-.25,0-.38a2.07,2.07,0,0,1,0-.35,2.22,2.22,0,0,1,.09-.37,3,3,0,0,1,.1-.32,1.76,1.76,0,0,1,.17-.37,1.59,1.59,0,0,1,.15-.29,3.06,3.06,0,0,1,.21-.29l.23-.28.24-.22a3.61,3.61,0,0,1,.3-.25l.28-.17.32-.17a2.67,2.67,0,0,1,.36-.14,2.19,2.19,0,0,1,.34-.1l.18,0a3.39,3.39,0,0,1,.64-.06,3.49,3.49,0,0,1,.65.06l.16,0a3.57,3.57,0,0,1,.35.1l.36.13.33.18.27.17a3.88,3.88,0,0,1,.31.26l.22.2a3.15,3.15,0,0,1,.24.3l.21.28a2.85,2.85,0,0,1,.16.3,2.21,2.21,0,0,1,.16.35c0,.11.08.23.11.34s.06.23.08.34,0,.28,0,.41,0,.21,0,.31a3.59,3.59,0,0,1,0,.46,2,2,0,0,1,0,.24,3.24,3.24,0,0,1-.16.53.56.56,0,0,0,0,.12,3.81,3.81,0,0,1-1.23,1.52l-.13.09a3.57,3.57,0,0,1-1.27.53,3.7,3.7,0,0,1-2.69-.5ZM97.27,62.89a1.91,1.91,0,0,1-2.61.69l-.06,0L67.24,49.28h0l.11-.07a1.64,1.64,0,0,0,.22-.14l.22-.14c.12-.08.23-.17.34-.26l.16-.12c.12-.1.23-.21.34-.32l.13-.12c.1-.11.21-.22.31-.34l.12-.15c.09-.11.17-.22.25-.34l.15-.21.18-.3.16-.3.12-.24c0-.12.11-.25.16-.38a1.46,1.46,0,0,1,.07-.19c0-.14.09-.29.13-.43s0-.12,0-.18.07-.29.09-.44l0-.21c0-.14,0-.28,0-.42s0-.18,0-.28,0-.16,0-.24v0L96.59,60.28A1.9,1.9,0,0,1,97.27,62.89ZM62.09,6.83a1.91,1.91,0,1,1,3.82.07l1.48,30.82,0,0-.09-.05-.18-.1-.25-.13-.16-.07-.23-.09-.19-.07-.2-.07L65.81,37l-.12,0h0l-.25-.06-.22,0h0l-.15,0-.26,0h-.2l-.21,0h-.66l-.23,0-.25,0-.17,0-.2,0L62.5,37l-.1,0-.09,0-.11,0-.37.12h0l-.25.09-.3.13-.33.16-.2.11-.11.06L62.09,6.9ZM33.4,63.54l-.06,0a1.91,1.91,0,1,1-1.87-3.34L57.33,43.42v0h0c0,.12,0,.25,0,.37v.08a6.67,6.67,0,0,0,2.73,4.93l.06,0,.42.27.14.09.06,0Zm28-11.23L64,51l2.56,1.34,1.67,26.17H59.77ZM27.13,81.48h73.74l4.66,15H22.47ZM16.88,114.42l4.66-15h84.92l4.66,15Z"/><path d="M24.12,11.3a1.5,1.5,0,0,0,1.5-1.5V3.42a1.5,1.5,0,1,0-3,0V9.8A1.5,1.5,0,0,0,24.12,11.3Z"/><path d="M33.53,15.2a1.51,1.51,0,0,0,1.06-.44l4.51-4.51a1.51,1.51,0,0,0,0-2.12,1.49,1.49,0,0,0-2.12,0l-4.51,4.51a1.5,1.5,0,0,0,1.06,2.56Z"/><path d="M35.93,23.11a1.5,1.5,0,0,0,1.5,1.5H43.8a1.5,1.5,0,0,0,0-3H37.43A1.5,1.5,0,0,0,35.93,23.11Z"/><path d="M32.47,31.46a1.49,1.49,0,0,0,0,2.12L37,38.09a1.49,1.49,0,0,0,1.06.44A1.5,1.5,0,0,0,39.1,36l-4.51-4.51A1.49,1.49,0,0,0,32.47,31.46Z"/><path d="M22.62,36.42V42.8a1.5,1.5,0,0,0,3,0V36.42a1.5,1.5,0,0,0-3,0Z"/><path d="M15.77,31.46a1.5,1.5,0,0,0-2.13,0L9.14,36a1.5,1.5,0,0,0,1.06,2.56,1.53,1.53,0,0,0,1.06-.44l4.51-4.51A1.51,1.51,0,0,0,15.77,31.46Z"/><path d="M12.31,23.11a1.5,1.5,0,0,0-1.5-1.5H4.43a1.5,1.5,0,0,0,0,3h6.38A1.5,1.5,0,0,0,12.31,23.11Z"/><path d="M13.64,14.76a1.51,1.51,0,0,0,2.13,0,1.51,1.51,0,0,0,0-2.12L11.26,8.13a1.5,1.5,0,0,0-2.12,2.12Z"/><path d="M24.12,33.2A10.1,10.1,0,1,0,14,23.11,10.1,10.1,0,0,0,24.12,33.2Zm0-17.19a7.1,7.1,0,1,1-7.1,7.1A7.11,7.11,0,0,1,24.12,16Z"/><path d="M90.82,14.5a11.73,11.73,0,0,1,12.26.05,14.19,14.19,0,0,0,7.63,2.26,15,15,0,0,0,7.93-2.32A1.5,1.5,0,0,0,116.93,12a11.57,11.57,0,0,1-12.26,0,14.67,14.67,0,0,0-15.53,0,1.5,1.5,0,0,0,1.68,2.49Z"/><path d="M116.93,21.88a11.56,11.56,0,0,1-12.26,0,14.65,14.65,0,0,0-15.53,0,1.5,1.5,0,0,0,1.67,2.49,11.65,11.65,0,0,1,12.27,0,14.21,14.21,0,0,0,7.63,2.27,15,15,0,0,0,7.93-2.32,1.5,1.5,0,1,0-1.71-2.47Z"/><path d="M116.94,31.68a11.51,11.51,0,0,1-12.27,0,14.65,14.65,0,0,0-15.53,0,1.5,1.5,0,0,0,1.68,2.49,11.74,11.74,0,0,1,12.26,0,14.21,14.21,0,0,0,7.63,2.27,14.92,14.92,0,0,0,7.93-2.33,1.5,1.5,0,1,0-1.7-2.46Z"/></svg>