<svg viewBox="0 0 120 120" xmlns="http://www.w3.org/2000/svg">
    <rect x="36.6665" y="79.4214" width="60.4639" height="5.53264" rx="2.76632" transform="rotate(-45 36.6665 79.4214)"/>
    <rect x="40.579" y="36.667" width="60.4639" height="5.53264" rx="2.76632" transform="rotate(45 40.579 36.667)"/>
    <path d="M116 60C116 90.9279 90.9279 116 60 116C29.0721 116 4 90.9279 4 60C4 29.0721 29.0721 4 60 4C90.9279 4 116 29.0721 116 60ZM11.6155 60C11.6155 86.722 33.278 108.384 60 108.384C86.722 108.384 108.384 86.722 108.384 60C108.384 33.278 86.722 11.6155 60 11.6155C33.278 11.6155 11.6155 33.278 11.6155 60Z"/>
</svg>
