<svg xmlns="http://www.w3.org/2000/svg" viewBox="0 0 24 24"><title>xls</title><path d="M22,11.31H17.91V8.44a1,1,0,0,0-.29-.71L11.19,1.29A1.05,1.05,0,0,0,10.48,1H2A1,1,0,0,0,1,2V22a1,1,0,0,0,1,1H16.91a1,1,0,0,0,1-1V19.36H22a1,1,0,0,0,1-1v-6A1,1,0,0,0,22,11.31ZM11.48,4.41l3,3h-3ZM15.91,21H3V3H9.48V8.44a1,1,0,0,0,1,1h5.43v1.87H8.3a1,1,0,0,0-1,1v6a1,1,0,0,0,1,1h7.61ZM10.3,13.67c-.09-.15,0-.27.15-.27h.31a.27.27,0,0,1,.26.15l.45.79.24.48h0s.12-.25.24-.48l.45-.79a.29.29,0,0,1,.27-.15H13c.18,0,.24.12.15.27l-1,1.63,1,1.69c.1.16,0,.28-.16.28h-.28a.29.29,0,0,1-.27-.16L12,16.22c-.13-.22-.24-.45-.24-.45h0s-.11.23-.24.45l-.51.89a.28.28,0,0,1-.27.16h-.28c-.18,0-.25-.12-.15-.28l1-1.69ZM16.74,17a.21.21,0,0,1-.23.23H14.59c-.15,0-.22-.08-.22-.23V13.63c0-.15.07-.23.22-.23h.25a.21.21,0,0,1,.23.23v3h1.44a.2.2,0,0,1,.23.22Zm2.07.29a2,2,0,0,1-1.19-.39.21.21,0,0,1,0-.32l.13-.17c.08-.12.17-.13.31-.05a1.35,1.35,0,0,0,.79.28c.36,0,.57-.18.57-.44,0-.73-1.8-.58-1.8-1.79a1.17,1.17,0,0,1,1.3-1.12,1.79,1.79,0,0,1,1,.3.21.21,0,0,1,.07.31l-.1.18c-.08.15-.19.13-.31.07a1.29,1.29,0,0,0-.67-.21c-.36,0-.59.17-.59.44,0,.72,1.81.53,1.81,1.77A1.16,1.16,0,0,1,18.81,17.33Z"/></svg>